<svg width="138" height="80" viewBox="0 0 138 80" fill="none" xmlns="http://www.w3.org/2000/svg">
<path d="M93.7367 96.9641C89.7486 78.6592 86.0134 59.9497 84.9342 41.2064C88.2983 36.3076 91.6457 31.1307 92.6659 25.178C93.6186 19.5964 92.3876 14.7567 91.5023 9.16655C91.1735 7.08396 90.1617 5.07726 88.5429 3.81253C86.924 2.55623 84.6896 2.13465 82.8347 2.96094C82.3625 3.17173 81.8651 3.46683 81.3761 3.3235C80.9292 3.19703 80.6425 2.76701 80.2968 2.43819C78.8972 1.106 76.6628 1.62876 74.9765 2.53937C74.5887 2.75015 74.1755 2.98624 73.7287 2.95251C72.8602 2.89349 72.388 1.91543 71.7894 1.24934C70.7945 0.136381 69.1925 -0.192449 67.7676 0.102654C66.3426 0.389326 62.7002 3.02839 61.5451 3.939C65.4995 8.98948 70.7017 13.5594 70.356 20.1022C70.0103 26.6367 67.2617 33.0025 62.793 37.5639C63.4253 55.169 63.83 72.5211 63.2145 90.1345C63.1218 92.8073 63.4506 96.3654 63.9396 98.9876C67.9531 100.345 74.1924 102.107 78.366 102.672C81.1315 103.043 83.9814 103.237 86.6795 102.487C89.3776 101.736 92.6321 99.6622 93.7282 96.9641H93.7367Z" fill="#F4C7A3"/>
<path d="M90.6339 40.6077L117.615 43.1371V2.66577L91.477 4.35208C91.477 4.35208 80.516 5.19523 80.516 22.0583C80.516 38.9214 90.6339 40.6077 90.6339 40.6077Z" fill="#787771"/>
<path d="M117.615 43.1371C106.439 43.1371 97.3791 34.0773 97.3791 22.9014C97.3791 11.7256 106.439 2.66577 117.615 2.66577C128.791 2.66577 137.85 11.7256 137.85 22.9014C137.85 34.0773 128.791 43.1371 117.615 43.1371Z" fill="#6FF6F7"/>
<path d="M118.458 11.9406C131.948 11.9406 137.85 22.9859 137.85 22.9859C137.85 22.9859 131.948 33.0194 118.458 33.0194C104.967 33.0194 97.3791 22.9859 97.3791 22.9859C97.3791 22.9859 104.967 11.9406 118.458 11.9406Z" fill="white"/>
<path d="M124.432 30.8631C119.775 30.8631 116 27.0881 116 22.4315C116 17.7749 119.775 14 124.432 14C129.088 14 132.863 17.7749 132.863 22.4315C132.863 27.0881 129.088 30.8631 124.432 30.8631Z" fill="#474741"/>
<path d="M133.154 14.5879C126.687 7.38739 115.861 6.16482 107.935 11.7212C107.042 12.3451 106.198 10.8865 107.084 10.2625C115.6 4.30145 127.412 5.66736 134.343 13.3991C135.068 14.2085 133.879 15.4058 133.146 14.5879H133.154Z" fill="#008586"/>
<path d="M131.274 33.7866C127.581 37.6736 122.126 39.5285 116.822 39.2587C111.004 38.9636 105.642 36.3582 101.114 32.8254C100.263 32.1593 101.46 30.9705 102.303 31.6366C106.46 34.8827 111.485 37.311 116.814 37.5808C121.696 37.8253 126.67 36.1896 130.068 32.5978C130.819 31.8052 132.007 33.0025 131.265 33.7866H131.274Z" fill="#008586"/>
<path d="M82.0927 9.35206C81.747 7.88497 82.059 6.27455 82.7757 5.00982C83.5008 3.74509 84.5969 2.81762 85.8026 2.23585C87.2107 1.55289 88.8548 1.35053 90.2629 2.05035C91.2747 2.55624 92.0925 3.50057 92.7418 4.53765C93.4753 5.71807 94.0149 7.05025 94.3438 8.44989C93.4753 9.0148 92.6659 9.70618 91.7974 10.2627C91.6794 10.3385 91.4602 10.3723 91.4517 10.2036C91.3674 8.83773 90.4568 7.86811 89.5631 6.97437C89.074 6.48534 88.467 6.05533 87.8262 6.14808C87.1685 6.24926 86.6542 6.89848 86.435 7.62359C86.2073 8.34871 86.2158 9.14127 86.2242 9.90854C86.2242 10.5578 86.241 11.207 86.241 11.8647C84.951 10.8107 83.6188 9.85795 82.1012 9.34363L82.0927 9.35206Z" fill="#474741"/>
<path d="M89.7486 5.25428C82.9865 7.60668 81.5531 16.9067 81.3761 23.0448C81.199 29.3347 83.0033 37.1423 89.386 39.9079C90.3809 40.3379 89.5209 41.7881 88.5344 41.3665C83.3743 39.1322 80.7015 33.424 79.9596 28.1375C79.5127 24.9419 79.6392 21.7211 80.086 18.5339C80.5245 15.4227 81.258 12.2946 82.7757 9.52063C84.2175 6.88156 86.4181 4.63035 89.2933 3.627C90.3219 3.27287 90.7604 4.90016 89.7401 5.25428H89.7486Z" fill="#474741"/>
<path d="M6.39445 34.7816L22.6251 36.2992V11.9574L6.90877 12.9692C6.90877 12.9692 0.315323 13.4751 0.315323 23.6182C0.315323 33.7613 6.40289 34.7731 6.40289 34.7731L6.39445 34.7816Z" fill="#787771"/>
<path d="M44.2605 40.6077L71.2414 43.1371V2.66577L45.1036 4.35208C45.1036 4.35208 34.1426 5.19523 34.1426 22.0583C34.1426 38.9214 44.2605 40.6077 44.2605 40.6077Z" fill="#787771"/>
<path d="M70.3982 43.1371C59.2223 43.1371 50.1625 34.0773 50.1625 22.9014C50.1625 11.7256 59.2223 2.66577 70.3982 2.66577C81.5741 2.66577 90.6339 11.7256 90.6339 22.9014C90.6339 34.0773 81.5741 43.1371 70.3982 43.1371Z" fill="#6FF6F7"/>
<path d="M71.2414 11.9406C84.7318 11.9406 90.6339 22.9859 90.6339 22.9859C90.6339 22.9859 84.7318 33.0194 71.2414 33.0194C57.7509 33.0194 50.1625 22.9859 50.1625 22.9859C50.1625 22.9859 57.7509 11.9406 71.2414 11.9406Z" fill="white"/>
<path d="M76.4315 30.8631C71.7749 30.8631 68 27.0881 68 22.4315C68 17.7749 71.7749 14 76.4315 14C81.0881 14 84.8631 17.7749 84.8631 22.4315C84.8631 27.0881 81.0881 30.8631 76.4315 30.8631Z" fill="#474741"/>
<path d="M9.54785 97.2592C13.536 79.8566 17.2711 62.0829 18.3504 44.2586C14.9862 39.6044 11.6389 34.6804 10.6187 29.0228C9.66589 23.7194 10.8969 19.1158 11.7822 13.8039C12.111 11.8225 13.1228 9.91701 14.7417 8.71973C16.3605 7.52245 18.5949 7.12616 20.4498 7.9103C20.922 8.11265 21.4194 8.3909 21.9085 8.25599C22.3553 8.13795 22.642 7.72481 22.9877 7.42127C24.3873 6.15654 26.6217 6.654 28.308 7.51402C28.6959 7.71638 29.109 7.93559 29.5559 7.9103C30.4243 7.85127 30.8965 6.92381 31.4951 6.29144C32.49 5.2375 34.092 4.92553 35.517 5.20378C36.9419 5.48202 38.215 6.25772 39.3702 7.1346C35.4158 11.9321 32.5828 18.0028 32.9285 24.2169C33.2742 30.4309 36.0229 34.6467 40.4916 38.9805C39.8592 55.7171 39.4545 74.0388 40.07 90.7754C40.1627 93.3133 39.8339 96.6943 39.3449 99.1901C35.3315 100.48 29.0921 102.158 24.9185 102.689C22.153 103.043 19.3031 103.22 16.605 102.512C13.9069 101.804 10.6524 99.8224 9.55627 97.2592H9.54785Z" fill="#F4C7A3"/>
<path d="M43.4752 6.50737C34.2166 11.9682 32.4801 25.0072 37.1923 33.5327C38.6147 36.1039 40.6915 38.2532 43.5537 39.5348C44.566 39.9886 43.6759 41.3577 42.6724 40.912C37.1574 38.4443 34.2864 32.9516 33.3702 27.6341C32.4539 22.2848 33.2044 16.5613 36.0055 11.7453C37.5675 9.07059 39.8014 6.77802 42.5938 5.13023C43.5363 4.573 44.4176 5.95015 43.4752 6.50737Z" fill="#474741"/>
<path d="M34.033 6.31674C32.001 7.69951 30.3316 9.7821 29.4378 12.0502C29.2692 12.4718 28.8729 12.7669 28.4007 12.6404C27.996 12.5308 27.6419 12.0249 27.8105 11.6033C28.8982 8.86307 30.7447 6.5191 33.1814 4.85809C33.5608 4.59671 34.1173 4.79064 34.3365 5.16163C34.5811 5.57477 34.4124 6.05536 34.033 6.31674Z" fill="#E6995A"/>
<path d="M25.5634 8.08217C25.243 8.12432 24.9226 8.19177 24.6106 8.29295C24.4588 8.33511 24.3155 8.3857 24.1722 8.44472C24.1384 8.46158 24.0963 8.47002 24.0626 8.48688C24.13 8.45316 24.1384 8.45315 24.0878 8.47845C24.0204 8.51217 23.9445 8.5459 23.8771 8.57963C23.582 8.72296 23.3037 8.88316 23.0339 9.06865C22.9665 9.11081 22.9074 9.1614 22.84 9.20356C22.6966 9.30474 22.9074 9.13611 22.7641 9.26258C22.646 9.36376 22.528 9.46494 22.41 9.56612C22.1823 9.7769 21.9715 10.0046 21.7692 10.2491C21.609 10.443 21.8619 10.1226 21.7101 10.325C21.668 10.384 21.6174 10.4514 21.5752 10.5189C21.4825 10.6453 21.4066 10.7803 21.3223 10.9152C21.238 11.0501 21.1705 11.185 21.1031 11.3283C21.0694 11.3958 21.0356 11.4716 21.0019 11.5391C20.9176 11.7162 21.0272 11.4548 20.9682 11.6234C20.8501 11.9438 20.749 12.2642 20.6731 12.593C20.5803 13.0399 20.0576 13.3013 19.636 13.1832C19.1723 13.0568 18.953 12.593 19.0458 12.1462C19.6697 9.27944 22.1907 6.88489 25.1081 6.47175C25.5465 6.41273 26.0355 6.57292 26.1451 7.06195C26.2379 7.45823 26.0271 8.03158 25.5549 8.09903L25.5634 8.08217Z" fill="#E6995A"/>
<path d="M19.1056 9.00424C19.037 9.00424 18.9608 9.00424 18.8922 9.0127C18.7474 9.02117 18.9303 8.99578 18.8465 9.0127C18.717 9.04655 18.595 9.07193 18.4655 9.11424C18.3512 9.14809 18.2369 9.19886 18.1302 9.24117C18.2293 9.1904 18.1302 9.24117 18.0845 9.26656C18.0311 9.3004 17.9778 9.32579 17.9244 9.35964C17.8101 9.42733 17.6958 9.50349 17.5892 9.58811C17.5358 9.62196 17.4901 9.66426 17.4444 9.70657C17.5587 9.61349 17.3758 9.7658 17.3682 9.77426C17.1777 9.95196 16.9948 10.155 16.8348 10.3666C16.7967 10.4174 16.7509 10.4681 16.7128 10.5274C16.7738 10.4428 16.6824 10.5697 16.6671 10.5951C16.5833 10.722 16.5071 10.8574 16.4309 10.9928C16.2861 11.2466 16.1566 11.5174 16.0346 11.7966C15.8213 12.2959 15.6536 12.8121 15.4707 13.4213C15.3412 13.8359 14.9373 14.1575 14.5334 14.0136C14.1601 13.8782 13.8629 13.4213 14 12.9728C14.4191 11.5851 14.9221 10.2143 15.806 9.11424C16.6442 8.06498 17.6196 7.54306 18.8922 7.50921C19.2884 7.50075 20.3049 7.69796 20.2896 8.14643C20.2668 8.61183 19.5323 8.98731 19.1056 8.99578V9.00424Z" fill="#E6995A"/>
<path d="M19.5814 43.7949C19.5814 43.7949 19.6488 43.8792 19.6741 43.9213C19.6235 43.8539 19.6488 43.8876 19.6825 43.9382C19.75 44.0225 19.809 44.1068 19.8765 44.1827C20.0114 44.3598 20.1463 44.5284 20.2896 44.7055C20.5594 45.0427 20.8292 45.38 21.099 45.7088C21.6471 46.3749 22.1951 47.0326 22.76 47.6818C23.0467 48.0106 23.1142 48.5502 22.76 48.8706C22.4396 49.1657 21.8747 49.2248 21.5712 48.8706C20.3739 47.4963 19.2357 46.0882 18.1227 44.6464C17.9962 44.4862 17.9878 44.1827 18.0384 43.9972C18.089 43.8033 18.2407 43.5925 18.4262 43.4913C18.8731 43.2552 19.2947 43.4154 19.5814 43.7949Z" fill="#E6995A"/>
<path d="M64.6868 43.8436C64.7458 45.0241 64.7964 46.196 64.8554 47.368C64.8723 47.8065 64.4507 48.228 64.0123 48.2112C63.5401 48.1943 63.1944 47.8402 63.1691 47.368C63.1101 46.1876 63.0595 45.0156 63.0005 43.8436C62.9836 43.4052 63.4052 42.9836 63.8436 43.0005C64.3158 43.0258 64.6615 43.3715 64.6868 43.8436Z" fill="#E6995A"/>
<path d="M83.5851 11.207C77.0675 6.67923 68.1554 6.37569 61.368 10.4903C60.4406 11.0552 59.589 9.59654 60.5164 9.03162C67.7844 4.62193 77.447 4.89174 84.4367 9.7483C85.322 10.3638 84.4789 11.8225 83.5851 11.207Z" fill="#008586"/>
<path d="M84.2596 34.7478C80.71 38.1878 76.0136 40.3126 71.0643 40.5908C65.9969 40.8859 60.997 39.1574 57.0511 36.0041C56.1995 35.3295 57.4052 34.1407 58.2399 34.8152C65.6007 40.692 76.3256 40.0933 83.0624 33.5589C83.8381 32.8001 85.0353 33.9973 84.2512 34.7478H84.2596Z" fill="#008586"/>
<path d="M10.2139 13.9219C8.71312 14.8326 8.25782 16.7634 7.81095 18.3401C7.29663 20.195 6.90034 22.0921 6.79073 24.0229C6.57994 27.64 7.36408 31.2487 9.57314 34.1745C10.1633 34.9502 8.91547 35.8439 8.24938 35.1947C8.15663 35.1019 8.0639 35.0176 7.97115 34.9249C7.19545 34.166 8.38429 32.9688 9.15999 33.736C9.25273 33.8288 9.34548 33.9131 9.43823 34.0059C8.99979 34.3431 8.55293 34.6888 8.11449 35.0261C5.5766 31.6703 4.77559 27.3534 5.15501 23.2304C5.35737 21.0297 5.8464 18.8544 6.51249 16.7465C7.04367 15.0602 7.77722 13.4245 9.34548 12.4717C10.273 11.9068 11.1245 13.3655 10.1971 13.9304L10.2139 13.9219Z" fill="#474741"/>
<path d="M6.66427 33.0447C5.17189 32.7243 3.68794 32.3954 2.19556 32.075C1.76555 31.9823 1.47045 31.4511 1.60535 31.0379C1.74869 30.5826 2.17869 30.3466 2.64243 30.4477C4.13481 30.7681 5.61876 31.097 7.11114 31.4174C7.54115 31.5101 7.83625 32.0413 7.70134 32.4544C7.55801 32.9097 7.128 33.1458 6.66427 33.0447Z" fill="#474741"/>
<path d="M5.86327 27.9182C4.05893 27.7496 2.30516 27.3365 0.627288 26.6451C0.222574 26.4764 -0.114685 26.0802 0.0370831 25.608C0.163556 25.2202 0.635718 24.8407 1.07416 25.0178C1.85829 25.3382 2.66772 25.608 3.48558 25.8188C4.32873 26.0296 5.07913 26.1561 5.85483 26.2319C6.29327 26.2741 6.72328 26.5945 6.69799 27.0751C6.68112 27.4967 6.327 27.9604 5.85483 27.9182H5.86327Z" fill="#474741"/>
<path d="M5.80424 22.4461C4.09264 22.0836 2.38947 21.721 0.677866 21.3585C0.247858 21.2657 -0.0472431 20.7345 0.0876617 20.3214C0.230998 19.8661 0.661002 19.63 1.12474 19.7312C2.83634 20.0937 4.53951 20.4563 6.25111 20.8189C6.68112 20.9116 6.97622 21.4428 6.84131 21.8559C6.68955 22.3112 6.26797 22.5389 5.80424 22.4461Z" fill="#474741"/>
<path d="M7.86154 16.9488C6.49563 16.7043 5.12973 16.4598 3.75539 16.2153C3.31695 16.1394 3.0387 15.5829 3.16517 15.1782C3.31694 14.7145 3.73852 14.5037 4.20226 14.588C5.56816 14.8325 6.93407 15.077 8.30841 15.3216C8.74685 15.3974 9.02509 15.9539 8.89861 16.3586C8.74684 16.8224 8.32527 17.0332 7.86154 16.9488Z" fill="#474741"/>
<path d="M46.7309 21.1646C43.6281 21.114 40.5253 21.1309 37.4141 21.1983C36.3264 21.2236 36.3264 19.5373 37.4141 19.512C40.5169 19.4361 43.6197 19.4277 46.7309 19.4783C47.8186 19.4952 47.8186 21.1815 46.7309 21.1646Z" fill="#474741"/>
<path d="M47.026 24.7395C43.8726 24.7986 40.7192 24.866 37.5658 24.925C36.4781 24.9419 36.4781 23.2556 37.5658 23.2387C40.7192 23.1797 43.8726 23.1122 47.026 23.0532C48.1137 23.0364 48.1137 24.7227 47.026 24.7395Z" fill="#474741"/>
<path d="M44.505 26.3163C44.6905 30.7344 46.0648 35.0176 48.4509 38.7443C49.0411 39.6634 47.5825 40.5065 46.9923 39.5959C44.4459 35.6247 43.0126 31.0295 42.8187 26.3163C42.7765 25.2286 44.4628 25.237 44.505 26.3163Z" fill="#474741"/>
<path d="M52.3126 5.16157C49.6651 8.41614 47.515 12.0923 45.9805 16.0045C45.8118 16.4261 45.4156 16.7212 44.9434 16.5947C44.5387 16.4851 44.1846 15.9877 44.3532 15.5576C45.9973 11.3587 48.2654 7.47181 51.1153 3.97272C51.402 3.6186 52.009 3.67762 52.3041 3.97272C52.6583 4.31841 52.5908 4.81588 52.3041 5.16157H52.3126Z" fill="#474741"/>
<path d="M98.4499 4.83275C97.1177 5.05197 96.1903 6.12277 95.4314 7.15984C94.6726 8.21379 94.0487 9.37734 93.5933 10.5915C92.6659 13.0703 92.3202 15.7094 92.3286 18.3485C92.3286 19.4362 90.6507 19.4362 90.6423 18.3485C90.6339 15.3384 91.0555 12.2947 92.219 9.50382C92.7755 8.1632 93.4837 6.91533 94.3775 5.76865C95.3049 4.58823 96.4516 3.45841 97.9946 3.20546C99.057 3.0284 99.5123 4.65568 98.4415 4.83275H98.4499Z" fill="#474741"/>
<path d="M93.6271 31.4259C93.6102 34.6804 94.8412 37.8676 97.0756 40.2452C97.8175 41.0378 96.6287 42.2267 95.8867 41.4341C93.3573 38.736 91.9239 35.1273 91.9492 31.4174C91.9492 30.3298 93.6439 30.3298 93.6355 31.4174L93.6271 31.4259Z" fill="#474741"/>
<path d="M95.6844 23.9217C94.2763 24.0398 92.8767 24.1494 91.4686 24.2674C91.0302 24.3012 90.6086 23.8543 90.6255 23.4243C90.6507 22.9353 90.9964 22.6233 91.4686 22.5811C92.8767 22.4631 94.2763 22.3535 95.6844 22.2354C96.1228 22.2017 96.5444 22.6486 96.5275 23.0786C96.5022 23.5676 96.1565 23.8796 95.6844 23.9217Z" fill="#474741"/>
<path d="M95.2291 27.7581H92.0757C91.6372 27.7581 91.2156 27.3702 91.2325 26.9149C91.2494 26.4596 91.6035 26.0718 92.0757 26.0718H95.2291C95.6675 26.0718 96.0891 26.4596 96.0722 26.9149C96.0553 27.3702 95.7012 27.7581 95.2291 27.7581Z" fill="#474741"/>
</svg>
