<svg width="225" height="110" viewBox="0 0 225 110" fill="none" xmlns="http://www.w3.org/2000/svg">
<g id="Frame" clip-path="url(#clip0_23713_4829)">
<g id="Group">
<g id="Modo_de_aislamiento">
<g id="Group_2">
<g id="Group_3">
<path id="Vector" d="M147.675 86.9454C147.675 86.9454 137.37 76.6717 137.808 73.3506C138.247 70.0296 136.748 56.3051 133.421 42.2827C130.719 30.884 122.656 35.1636 127.399 52.9853C127.523 29.3365 113.837 38.3667 121.527 56.288C120.116 35.467 108.997 41.5259 115.708 59.1124C113.98 42.0187 106.195 49.993 110.549 69.0248C114.668 87.0285 120.081 88.684 130.691 101.42" fill="#E9A493"/>
<path id="Vector_2" d="M168.89 159.198C161.093 152.105 123.439 104.439 123.439 104.439L148.177 81.7304L195.392 130.279L168.89 159.198Z" fill="#F1C754"/>
<path id="Vector_3" d="M127.994 109.86L151.951 86.216" stroke="#DEA94D" stroke-width="2.83" stroke-linecap="round" stroke-linejoin="round"/>
<path id="Vector_4" d="M129.087 53.0394L115.416 59.9464" stroke="#AB6453" stroke-linecap="round" stroke-linejoin="round"/>
<path id="Vector_5" d="M127.574 53.803L125.993 41.6854" stroke="#AB6453" stroke-linecap="round" stroke-linejoin="round"/>
<path id="Vector_6" d="M121.528 56.2852L119.191 45.4283" stroke="#AB6453" stroke-linecap="round" stroke-linejoin="round"/>
<path id="Vector_7" d="M115.825 59.8073L113.67 50.9401" stroke="#AB6453" stroke-linecap="round" stroke-linejoin="round"/>
<g id="Vector_8">
<path d="M133.414 59.0352C126.766 44.3592 117.463 46.0721 127.007 62.1941C122.467 68.1257 121.819 75.6754 127.075 79.9488" fill="#E9A493"/>
<path d="M133.414 59.0352C126.766 44.3592 117.463 46.0721 127.007 62.1941C122.467 68.1257 121.819 75.6754 127.075 79.9488" stroke="#AB6453" stroke-linecap="round" stroke-linejoin="round"/>
</g>
</g>
<g id="Group_4">
<path id="Vector_9" d="M51.1957 77.9552C51.1957 77.9552 60.1959 72.3176 61.6977 69.4503C63.1995 66.5831 71.1903 55.6613 81.621 46.4365C90.0974 38.9366 91.007 47.1323 80.4242 58.2432C93.7299 40.4759 98.4232 53.5508 83.2246 64.1184C94.5351 50.3523 101.194 59.0726 86.2494 69.5891C97.799 59.7792 100.881 65.2848 85.1334 80.1252C72.1458 92.3653 67.0171 95.0866 60.8307 99.4652" fill="#AC4946"/>
<path id="Vector_10" d="M43.7739 80.1212L51.1182 75.5857L65.7336 104.883L57.6782 111.517L43.7739 80.1212Z" fill="white"/>
<path id="Vector_11" d="M46.8288 75.9673L6.42464 93.7346L-30.2704 97.4011C-28.5179 104.26 -27.0595 111.057 -25.6712 118.032C-24.1846 127.924 -23.0831 137.433 -21.8763 147.183C-7.86911 146.315 2.59386 145.204 6.69013 143.964C22.3301 139.234 64.9212 110.174 64.9212 110.174L46.8307 75.9617L46.8288 75.9673Z" fill="#6073C9"/>
<g id="Clip path group">
<mask id="mask0_23713_4829" style="mask-type:luminance" maskUnits="userSpaceOnUse" x="-32" y="75" width="97" height="73">
<g id="clippath">
<path id="SVGID" d="M-23.9585 147.314C-8.90903 146.428 2.39354 145.27 6.69106 143.971C22.331 139.241 64.9222 110.18 64.9222 110.18L46.8316 75.9682L6.42746 93.7355L-31.6694 97.5419" fill="white"/>
</g>
</mask>
<g mask="url(#mask0_23713_4829)">
<g id="Group_5">
<g id="Group_6">
<path id="Vector_12" d="M-11.4861 92.6846C-12.5801 94.5137 -12.7134 96.7774 -12.5354 98.8502C-12.3256 101.299 -11.6109 103.731 -10.5325 105.937C-9.51152 108.027 -8.10043 110.053 -6.17104 111.396C-5.29718 112.004 -4.3169 112.445 -3.26628 112.642C-2.21566 112.839 -1.11132 112.748 -0.0955434 112.412C1.188 111.985 2.37657 111.287 3.52775 110.588C3.98334 110.311 4.43804 110.029 4.9131 109.787C5.12392 109.681 5.34219 109.58 5.56412 109.496C5.59315 109.484 5.62498 109.473 5.65307 109.464C5.75047 109.425 5.5969 109.482 5.65682 109.462C5.71299 109.443 5.76916 109.425 5.82438 109.409C5.94233 109.374 6.06492 109.344 6.18656 109.317C6.30071 109.293 6.41672 109.273 6.53177 109.256C6.60004 109.248 6.66831 109.24 6.73658 109.232C6.75248 109.231 6.81701 109.225 6.73379 109.231C6.78147 109.228 6.82915 109.226 6.87683 109.223C7.16104 109.213 7.4442 109.225 7.72543 109.251C8.45788 109.328 9.13096 109.506 9.85801 109.737C11.145 110.148 12.4292 110.567 13.7849 110.683C14.9061 110.782 16.0816 110.666 17.0843 110.128C18.1892 109.539 18.9455 108.531 19.45 107.41C20.6593 104.734 20.6322 101.589 19.8903 98.7951C19.1108 95.8634 17.601 93.1616 15.7683 90.7593C13.9356 88.3569 11.846 86.3074 9.4718 84.5547C8.9623 84.1793 8.43777 83.8206 7.90006 83.4825C7.44434 83.1971 6.97274 83.8891 7.43125 84.1755C9.79552 85.6628 11.8684 87.4944 13.7129 89.5763C15.6588 91.7736 17.3155 94.235 18.4072 96.9729C18.9227 98.2614 19.3012 99.6314 19.4721 101.034C19.5558 101.699 19.5855 102.339 19.5607 103.03C19.5488 103.369 19.5247 103.707 19.4857 104.043C19.4468 104.38 19.389 104.734 19.3316 105.015C19.1785 105.743 18.9629 106.462 18.6587 107.139C18.5425 107.399 18.4085 107.647 18.2296 107.927C18.1524 108.044 18.0724 108.16 17.9868 108.275C17.9426 108.332 17.8984 108.389 17.8523 108.442C17.8363 108.461 17.8204 108.481 17.8044 108.5C17.7734 108.537 17.7724 108.539 17.8025 108.506C17.7865 108.525 17.7677 108.544 17.7527 108.561C17.5713 108.755 17.3723 108.937 17.1594 109.096C17.1134 109.13 17.0646 109.164 17.0159 109.197C16.9184 109.264 17.0871 109.153 16.9877 109.216C16.9681 109.228 16.9484 109.24 16.9287 109.252C16.8106 109.324 16.6887 109.389 16.5651 109.45C16.4611 109.499 16.3552 109.544 16.2475 109.586C16.2157 109.597 16.1829 109.611 16.1511 109.622C16.0472 109.662 16.2035 109.605 16.1371 109.627C16.0668 109.65 15.9938 109.672 15.9218 109.691C15.6709 109.759 15.4146 109.806 15.1574 109.838C15.0985 109.846 15.0377 109.85 14.9769 109.854C14.861 109.865 15.0283 109.85 14.9573 109.857C14.9255 109.859 14.8965 109.862 14.8647 109.863C14.7217 109.871 14.5777 109.872 14.4347 109.871C14.1552 109.866 13.8777 109.847 13.5984 109.815C12.9547 109.744 12.4757 109.638 11.8428 109.47C10.4322 109.092 9.08246 108.507 7.61083 108.392C6.54937 108.31 5.53043 108.527 4.58035 109C3.56282 109.508 2.63055 110.168 1.62878 110.703C1.01871 111.03 0.393744 111.345 -0.260714 111.573C-0.176457 111.545 -0.29535 111.583 -0.302845 111.587C-0.327182 111.594 -0.351519 111.601 -0.373057 111.61C-0.439523 111.631 -0.502245 111.65 -0.570561 111.667C-0.705346 111.706 -0.841034 111.738 -0.978573 111.766C-1.23121 111.821 -1.48935 111.855 -1.74746 111.88C-1.86061 111.892 -1.69043 111.878 -1.76055 111.882C-1.78954 111.885 -1.81758 111.885 -1.84657 111.887C-1.9036 111.89 -1.96063 111.892 -2.01672 111.892C-2.15227 111.896 -2.28872 111.894 -2.42329 111.885C-2.66906 111.874 -2.9138 111.841 -3.15664 111.802C-3.17719 111.799 -3.20053 111.794 -3.22108 111.79C-3.11275 111.811 -3.22108 111.79 -3.24068 111.783C-3.29576 111.771 -3.34806 111.759 -3.40315 111.747C-3.53292 111.715 -3.66175 111.681 -3.78868 111.641C-4.02015 111.569 -4.24502 111.487 -4.46515 111.39C-4.52205 111.365 -4.57894 111.339 -4.63584 111.314C-4.66289 111.302 -4.81768 111.224 -4.71883 111.273C-4.83073 111.217 -4.94168 111.157 -5.05168 111.095C-5.27448 110.97 -5.48974 110.831 -5.69935 110.685C-5.90897 110.539 -6.12224 110.377 -6.32427 110.208C-6.37547 110.166 -6.42668 110.124 -6.47694 110.079C-6.50115 110.058 -6.52255 110.038 -6.54396 110.018C-6.47134 110.081 -6.56256 110 -6.57281 109.993C-6.67332 109.903 -6.7729 109.81 -6.86872 109.715C-7.26691 109.324 -7.63693 108.906 -7.98162 108.468C-8.35882 107.987 -8.64006 107.574 -8.93779 107.089C-9.56756 106.065 -10.0877 104.974 -10.5151 103.85C-10.7265 103.294 -10.8895 102.799 -11.0586 102.193C-11.2277 101.586 -11.3596 101.027 -11.4708 100.434C-11.582 99.8408 -11.6579 99.2816 -11.7112 98.7019C-11.7174 98.6374 -11.7237 98.5729 -11.7271 98.5093C-11.72 98.5804 -11.7331 98.3981 -11.7348 98.3663C-11.7444 98.2195 -11.7512 98.0737 -11.7552 97.9289C-11.7651 97.6541 -11.7656 97.3793 -11.7578 97.1074C-11.7431 96.585 -11.7014 96.0656 -11.6176 95.5511C-11.608 95.4951 -11.5984 95.4391 -11.5888 95.3831C-11.584 95.3597 -11.5495 95.1842 -11.5715 95.2953C-11.5447 95.1702 -11.518 95.0451 -11.4884 94.921C-11.4341 94.696 -11.3685 94.4748 -11.2936 94.2537C-11.2187 94.0326 -11.1392 93.8349 -11.0485 93.6316C-11.0249 93.5803 -11.0023 93.5318 -10.9786 93.4805C-11.0325 93.5934 -10.9607 93.4461 -10.9456 93.42C-10.8947 93.3249 -10.841 93.2308 -10.7872 93.1366C-10.6713 92.9419 -10.7038 92.6875 -10.8994 92.5557C-11.0802 92.4352 -11.3645 92.4731 -11.4804 92.6678L-11.4861 92.6846Z" fill="#808FD4"/>
<path id="Vector_13" d="M24.9901 82.1827C23.2669 83.6676 21.8278 85.539 21.4085 87.8181C21.0544 89.7387 21.5432 91.6952 22.3696 93.4291C23.333 95.4497 24.7321 97.2527 26.1953 98.9309C27.7812 100.754 29.4976 102.458 31.199 104.17C32.7767 105.759 34.3675 107.347 35.7743 109.09C36.3876 109.85 36.8891 110.535 37.347 111.339C38.0051 112.501 38.414 113.79 38.6769 115.096C39.3772 118.585 38.946 122.161 38.8179 125.681C38.7533 127.465 38.7597 129.262 39.0092 131.031C39.1303 131.899 39.3131 132.759 39.5727 133.596C39.8056 134.346 40.0712 135.1 40.468 135.781C41.9152 138.28 44.5853 139.924 47.206 140.959C49.8266 141.993 53.0597 142.611 55.9822 142.109C56.6117 142.001 57.2313 141.831 57.827 141.592C58.328 141.394 57.9549 140.644 57.4567 140.843C56.2814 141.309 54.9589 141.463 53.685 141.447C52.2278 141.427 50.7773 141.195 49.3743 140.804C46.6682 140.05 43.9013 138.71 42.0375 136.547C41.0875 135.445 40.5544 134.125 40.1966 132.722C39.7681 131.048 39.6287 129.322 39.6229 127.598C39.6098 124.08 40.1042 120.566 39.8005 117.049C39.649 115.304 39.2778 113.571 38.5929 111.954C38.2527 111.152 37.788 110.405 37.2866 109.693C36.0741 107.975 34.6055 106.441 33.1387 104.94C31.4792 103.242 29.7757 101.582 28.1548 99.8443C26.6324 98.2116 25.1144 96.4556 23.9708 94.5986C23.4412 93.7391 22.9791 92.8368 22.6369 91.8847C22.6267 91.8594 22.6193 91.8351 22.6092 91.8098C22.6313 91.8735 22.6092 91.8098 22.6036 91.7986C22.5852 91.7424 22.5668 91.6862 22.5483 91.6301C22.5106 91.5112 22.4738 91.3895 22.4416 91.2726C22.3801 91.0489 22.3232 90.8206 22.2794 90.5905C22.2357 90.3604 22.1984 90.1387 22.1733 89.9087C22.1446 89.6618 22.1394 89.5758 22.1333 89.2992C22.1145 88.3318 22.2537 87.5615 22.5973 86.6763C22.7865 86.1913 22.9535 85.8641 23.2389 85.4085C23.5243 84.9529 23.8771 84.4827 24.2493 84.0659C24.6214 83.6491 25.0881 83.2019 25.5377 82.8144C25.9469 82.4631 25.3966 81.8305 24.9873 82.1818L24.9901 82.1827Z" fill="#808FD4"/>
<path id="Vector_14" d="M59.337 125.074C57.064 125.031 54.7623 124.916 52.5344 124.436C50.3064 123.956 48.2564 123.199 46.6821 121.683C44.8092 119.879 44.1179 117.258 44.1852 114.71C44.2216 113.358 44.5381 112.055 45.0759 110.818C45.6137 109.58 46.2936 108.522 46.9868 107.425C47.7779 106.176 48.5794 104.925 49.2326 103.596C49.8857 102.266 50.3286 100.747 50.4807 99.2385C50.6161 97.8991 50.5485 96.4035 49.8756 95.2021C49.3029 94.175 48.3452 93.5012 47.2629 93.0846C46.1069 92.6369 44.8562 92.4504 43.6392 92.2565C42.4222 92.0627 41.1483 91.834 39.8947 91.6745C38.7989 91.5374 37.6806 91.4206 36.6331 91.1687C35.6835 90.9407 34.8466 90.6291 34.1083 90.0078C33.8141 89.7615 33.4656 89.3439 33.2533 88.9849C32.9612 88.4928 32.7562 87.9554 32.6131 87.4014C32.4204 86.6529 32.3231 85.8804 32.2389 85.1156C32.1475 84.289 32.0917 83.4589 32.0639 82.6289C31.9618 79.3369 32.3177 76.0566 32.654 72.7883C32.7382 71.9775 32.8188 71.1686 32.8937 70.3578C32.9439 69.8226 32.1057 69.7726 32.0583 70.3088C31.7545 73.6287 31.3124 76.9422 31.2273 80.28C31.1847 81.9629 31.2346 83.649 31.4238 85.32C31.5771 86.6823 31.7797 88.102 32.4787 89.3091C33.0062 90.221 33.775 90.9182 34.7187 91.3845C35.6624 91.8508 36.7017 92.0625 37.7319 92.2274C38.9106 92.4145 40.1019 92.5278 41.2834 92.7066C42.536 92.8968 43.8006 93.0975 45.0436 93.3438C46.1548 93.5642 47.3041 93.8568 48.2122 94.5388C49.1202 95.2208 49.5709 96.3687 49.6737 97.5393C49.8013 99.0053 49.5193 100.51 49.0426 101.89C48.5658 103.27 47.7846 104.581 46.9991 105.841C45.5597 108.155 43.972 110.428 43.499 113.17C43.2337 114.709 43.3297 116.314 43.6627 117.837C43.9243 119.036 44.4086 120.177 45.1292 121.173C46.4654 123.023 48.5416 124.163 50.6864 124.824C52.933 125.517 55.3051 125.765 57.6461 125.865C58.1937 125.888 58.7442 125.903 59.2928 125.914C59.8414 125.926 59.8819 125.087 59.3417 125.079L59.337 125.074Z" fill="#808FD4"/>
<path id="Vector_15" d="M39.9754 73.4336C39.3415 75.2127 39.1658 77.1594 39.6712 78.9936C40.1416 80.7005 41.1242 82.2221 42.3792 83.4553C43.7226 84.7778 45.332 85.7941 47.051 86.5604C48.7701 87.3268 50.6791 87.8549 52.5848 88.0886C54.3709 88.3067 56.2199 88.2747 57.9755 87.8554C58.1757 87.8077 58.3714 87.7554 58.5689 87.6975C58.7841 87.6332 58.944 87.4377 58.8956 87.2029C58.8536 86.9952 58.6189 86.8128 58.4008 86.8762C57.5958 87.1152 56.766 87.2616 55.93 87.3341C55.8814 87.3395 55.8337 87.342 55.786 87.3446C55.7056 87.3517 55.7701 87.3454 55.786 87.3446C55.757 87.3473 55.7252 87.349 55.6962 87.3516C55.5812 87.3595 55.4644 87.3636 55.3503 87.3686C55.1353 87.3769 54.9212 87.3824 54.7062 87.3813C54.2566 87.3819 53.8053 87.3601 53.3558 87.3233C52.9064 87.2865 52.4561 87.2338 52.0087 87.1634C51.8929 87.146 51.7808 87.1267 51.666 87.1065C51.6155 87.0988 51.566 87.0883 51.5128 87.0796C51.4867 87.0739 51.3101 87.0422 51.3951 87.0585C51.1673 87.0125 50.9404 86.9637 50.7116 86.9112C49.8013 86.6964 48.9072 86.4154 48.0377 86.0709C47.6113 85.9015 47.1906 85.7154 46.7775 85.5161C46.7663 85.5124 46.6945 85.4756 46.7402 85.4973C46.7961 85.5256 46.6843 85.469 46.6871 85.4699C46.6414 85.4482 46.5966 85.4237 46.5481 85.401C46.439 85.3453 46.3337 85.2878 46.2246 85.2321C46.0297 85.1256 45.8358 85.0162 45.6438 84.9012C44.8721 84.4432 44.1408 83.921 43.4641 83.3298C43.4045 83.2753 43.452 83.3195 43.4641 83.3298C43.4445 83.3138 43.4278 83.2988 43.4092 83.28C43.3682 83.2443 43.3282 83.2058 43.2872 83.1701C43.2016 83.0912 43.1188 83.0132 43.0369 82.9324C42.8825 82.7802 42.7318 82.6262 42.5858 82.4676C42.3003 82.1587 42.0364 81.8322 41.7894 81.4927C41.7328 81.4111 41.6762 81.3295 41.6196 81.2479C41.6075 81.2282 41.5926 81.2076 41.5796 81.1907C41.627 81.2629 41.5843 81.1954 41.5713 81.1785C41.5407 81.1307 41.5082 81.0792 41.4776 81.0313C41.37 80.8607 41.268 80.6827 41.1726 80.5037C40.9752 80.1373 40.8041 79.758 40.662 79.3666C40.6537 79.3451 40.6454 79.3236 40.6371 79.302C40.6371 79.302 40.6012 79.1963 40.6214 79.2562C40.639 79.3058 40.6159 79.2356 40.6104 79.2243C40.6012 79.1963 40.592 79.1682 40.5827 79.1401C40.5505 79.0418 40.522 78.9417 40.4935 78.8415C40.4375 78.6385 40.3908 78.4354 40.3478 78.2306C40.3049 78.0257 40.2741 77.8125 40.2508 77.6049C40.2382 77.5039 40.2284 77.4039 40.2223 77.302C40.2161 77.2374 40.2258 77.3655 40.2223 77.302C40.2197 77.273 40.2179 77.2412 40.2181 77.2132C40.2137 77.1524 40.2121 77.0926 40.2105 77.0328C40.1967 76.5944 40.2175 76.1553 40.272 75.7182C40.2865 75.6108 40.301 75.5034 40.3193 75.3941C40.3289 75.3381 40.3395 75.2793 40.3491 75.2232C40.3548 75.1971 40.3568 75.1728 40.3625 75.1467C40.3692 75.1177 40.3683 75.1205 40.3578 75.1607C40.3644 75.1411 40.3645 75.1224 40.3684 75.1018C40.4181 74.8722 40.4706 74.6435 40.5343 74.4186C40.6037 74.1769 40.6787 73.9371 40.7639 73.7039C40.9449 73.1973 40.1507 72.9252 39.9716 73.4355L39.9754 73.4336Z" fill="#808FD4"/>
<path id="Vector_16" d="M66.1753 97.9402C65.4557 98.0928 64.7745 98.4455 64.1455 98.819C63.2944 99.3232 62.4924 99.9127 61.7332 100.542C60.9205 101.218 60.1515 101.95 59.4466 102.74C58.7418 103.531 58.1503 104.283 57.6619 105.162C57.2612 105.885 56.918 106.686 56.8813 107.522C56.8446 108.358 57.135 109.205 57.5166 109.94C58.4743 111.784 60.057 113.293 61.6576 114.585C63.2582 115.876 64.8851 116.951 66.706 117.73C66.872 117.802 67.0427 117.869 67.2144 117.933C67.7202 118.117 67.9885 117.325 67.4827 117.141C67.1272 117.011 66.7821 116.86 66.4445 116.696C66.4231 116.685 66.3988 116.674 66.3774 116.664C66.3662 116.66 66.2944 116.623 66.3429 116.646C66.3914 116.668 66.3186 116.634 66.3084 116.628C66.2841 116.617 66.2627 116.606 66.2394 116.592C66.1405 116.543 66.0426 116.491 65.9447 116.439C65.7461 116.334 65.5494 116.224 65.3537 116.111C64.484 115.611 63.6473 115.049 62.8435 114.446C61.9922 113.809 61.2251 113.162 60.4837 112.421C60.1218 112.061 59.7722 111.684 59.4431 111.291C59.2944 111.113 59.1476 110.929 59.0083 110.742C58.9396 110.65 58.8737 110.559 58.8087 110.465C58.7205 110.338 58.7038 110.314 58.637 110.207C58.4041 109.844 58.1984 109.466 58.0311 109.066C57.9932 108.975 57.9582 108.885 57.924 108.793C57.8963 108.718 57.9176 108.775 57.924 108.793C57.9157 108.771 57.9083 108.747 57.9028 108.726C57.8844 108.67 57.8688 108.615 57.8513 108.556C57.8008 108.373 57.7596 108.191 57.7352 108.005C57.728 107.962 57.7244 107.917 57.7209 107.872C57.7092 107.768 57.7207 107.919 57.7174 107.818C57.715 107.733 57.7117 107.65 57.7149 107.567C57.7181 107.484 57.7259 107.406 57.7347 107.324C57.7396 107.282 57.7473 107.241 57.7522 107.199C57.756 107.179 57.7598 107.158 57.7637 107.138C57.7753 107.057 57.7522 107.19 57.7637 107.138C57.8515 106.759 57.9785 106.393 58.1419 106.04C58.1636 105.994 58.1853 105.948 58.2061 105.905C58.1664 105.985 58.2325 105.855 58.2419 105.836C58.2938 105.738 58.3457 105.641 58.4004 105.544C58.5097 105.35 58.6303 105.16 58.7536 104.971C59.0163 104.573 59.3051 104.19 59.6078 103.822C59.9322 103.426 60.2254 103.104 60.5936 102.727C60.9618 102.349 61.3346 101.995 61.7232 101.649C62.1119 101.303 62.4844 100.996 62.8785 100.689C63.0689 100.542 63.2603 100.401 63.4544 100.26C63.5454 100.194 63.6392 100.13 63.732 100.067C63.777 100.036 63.8221 100.004 63.8699 99.9736C63.8933 99.9597 63.9149 99.9421 63.9383 99.9282C63.9749 99.9031 63.9065 99.9486 63.9665 99.9096C64.319 99.6796 64.6809 99.459 65.0557 99.2646C65.2187 99.1794 65.3827 99.1008 65.5485 99.0259C65.6225 98.9917 65.6984 98.9612 65.7742 98.9307C65.8107 98.915 65.8463 98.9021 65.8847 98.8902C65.9025 98.8837 65.9203 98.8773 65.9381 98.8708C66.0102 98.8422 65.8819 98.8892 65.9306 98.8745C66.0673 98.8303 66.2021 98.7917 66.3405 98.7606C66.8683 98.6492 66.7002 97.8279 66.1725 97.9393L66.1753 97.9402Z" fill="#808FD4"/>
</g>
</g>
</g>
</g>
<path id="Vector_17" d="M55.5554 115.435L37.5341 81.2025" stroke="#495AAB" stroke-width="2.83" stroke-linecap="round" stroke-linejoin="round"/>
<path id="Vector_18" d="M73.0118 59.0364C80.4587 43.6028 70.5363 40.5475 65.8044 59.5841C58.2659 67.5858 57.891 73.2622 61.4306 77.4252" fill="#AC4946"/>
<path id="Vector_19" d="M75.3906 52.4008L73.2963 60.334C73.2963 60.334 80.7555 64.4239 74.2747 74.8494" stroke="#762F0E" stroke-linecap="round" stroke-linejoin="round"/>
<path id="Vector_20" d="M79.0582 57.3467L86.0174 70.4122" stroke="#762F0E" stroke-linecap="round" stroke-linejoin="round"/>
<path id="Vector_21" d="M79.829 58.7934L85.2148 52.3464" stroke="#762F0E" stroke-linecap="round" stroke-linejoin="round"/>
<path id="Vector_22" d="M83.2255 64.1155L90.0467 57.955" stroke="#762F0E" stroke-linecap="round" stroke-linejoin="round"/>
<path id="Vector_23" d="M85.8529 69.8198L90.4749 66.153" stroke="#762F0E" stroke-linecap="round" stroke-linejoin="round"/>
</g>
<g id="Group_7">
<path id="Vector_24" d="M54.6813 43.3421L30.7542 45.911L35.2304 69.0058C35.2304 69.0058 54.2733 69.0446 59.5181 64.5342C64.7629 60.0238 54.6803 43.3449 54.6803 43.3449L54.6813 43.3421Z" fill="#E9A493"/>
<path id="Vector_25" d="M51.0574 45.2877C51.0574 45.2877 56.3992 41.4123 64.551 32.3922C72.7029 23.372 78.4807 14.1187 81.5765 16.0722C86.9033 19.4273 69.7842 37.7373 69.7842 37.7373C69.7842 37.7373 81.9365 18.5841 85.0938 20.7799C89.7873 24.0422 74.2065 40.6394 74.2065 40.6394C74.2065 40.6394 80.5751 22.5847 85.983 27.5616C88.6911 30.0515 76.1857 45.2536 76.1857 45.2536C76.1857 45.2536 81.9552 29.723 85.0695 32.3036C88.7685 35.3694 74.4503 54.5596 64.2201 62.3079C48.3377 74.3412 37.8408 55.3847 51.0565 45.2905L51.0574 45.2877Z" fill="#E9A493"/>
<path id="Vector_26" d="M81.4737 22.1248C81.4737 22.1248 77.9378 27.3575 72.5912 34.3982" stroke="#AB6453" stroke-linecap="round" stroke-linejoin="round"/>
<path id="Vector_27" d="M84.6285 26.1981C84.6285 26.1981 79.098 34.9517 76.2912 37.8387" stroke="#AB6453" stroke-linecap="round" stroke-linejoin="round"/>
<path id="Vector_28" d="M78.4525 40.736C79.4497 39.2018 85.0677 32.2999 85.0677 32.2999" stroke="#AB6453" stroke-linecap="round" stroke-linejoin="round"/>
<g id="Vector_29">
<path d="M56.1221 42.8567C56.5748 42.4047 69.7051 30.2317 73.4972 32.5895C77.2893 34.9474 67.8733 42.881 67.8733 42.881C67.8733 42.881 71.1735 52.3202 59.3339 55.542" fill="#E9A493"/>
<path d="M56.1221 42.8567C56.5748 42.4047 69.7051 30.2317 73.4972 32.5895C77.2893 34.9474 67.8733 42.881 67.8733 42.881C67.8733 42.881 71.1735 52.3202 59.3339 55.542" stroke="#AB6453" stroke-linecap="round" stroke-linejoin="round"/>
</g>
</g>
<g id="Group_8">
<path id="Vector_30" d="M110.226 78.0509L118.804 102.947L94.3526 108.059C94.3526 108.059 86.4835 89.4343 88.7443 82.4467C91.0024 75.4581 110.226 78.0509 110.226 78.0509Z" fill="#EFBCAF"/>
<path id="Vector_31" d="M111.08 79.7288C111.08 79.7288 110.997 72.7241 113.52 60.0623C116.039 47.3996 118.932 38.7853 115.307 37.3824C109.073 34.9714 105.65 58.9908 105.65 58.9908C105.65 58.9908 116.297 37.1967 110.4 35.2023C104.647 33.26 100.374 57.0602 100.374 57.0602C100.374 57.0602 111.724 40.1936 104.058 38.7391C100.22 38.0099 95.1898 58.2963 95.1898 58.2963C95.1898 58.2963 104.278 44.7324 100.596 42.5209C93.6736 38.3664 87.618 66.4147 87.493 80.0415C87.3021 101.197 110.852 97.383 111.08 79.7288Z" fill="#EFBCAF"/>
<path id="Vector_32" d="M112.357 38.324C112.357 38.324 112.784 45.5482 108.638 55.1637" stroke="#AB6453" stroke-linecap="round" stroke-linejoin="round"/>
<path id="Vector_33" d="M105.591 39.299C105.591 39.299 108.496 40.2329 103.16 54.3068" stroke="#AB6453" stroke-linecap="round" stroke-linejoin="round"/>
<path id="Vector_34" d="M99.0338 53.7108C103.033 43.4431 100.592 42.5227 100.592 42.5227" stroke="#AB6453" stroke-linecap="round" stroke-linejoin="round"/>
<path id="Vector_35" d="M120.029 181.742C122.093 180.257 125.547 181.115 127.796 180.005C137.948 175.759 145.968 169.109 155.151 163.586L146.699 154.677L117.633 87.7673L85.1763 98.1208C85.1763 98.1208 94.6561 143.113 102.86 158.401C104.827 162.065 109.984 171.219 117.457 182.961C117.565 182.926 117.674 182.891 117.784 182.853L120.032 181.743L120.029 181.742Z" fill="#CC5650"/>
<path id="Vector_36" d="M109.25 79.6861C121.977 58.2938 117.771 49.1435 109.929 60.6744L109.25 79.6861Z" fill="#EFBCAF"/>
<path id="Vector_37" d="M114.375 55.4377L110.734 68.6725" stroke="#AB6453" stroke-linecap="round" stroke-linejoin="round"/>
</g>
<path id="Vector_38" d="M88.1426 111.725L122.955 100.2" stroke="#AB3A15" stroke-width="2.83" stroke-miterlimit="10"/>
<path id="Vector_39" d="M93.3897 105.355C89.6644 107.195 88.6076 102.051 92.0646 100.975C95.5189 99.8988 95.4163 104.357 93.3897 105.355Z" stroke="#AB3A15" stroke-width="2.83" stroke-miterlimit="10"/>
<path id="Vector_40" d="M93.5353 109.901L99.4816 133.824" stroke="#AB3A15" stroke-width="2.83" stroke-miterlimit="10"/>
<path id="Vector_41" d="M32.4598 43.999L40.0337 44.0372L42.8852 69.9109L36.3694 71.4478L32.4598 43.999Z" fill="#F1C754"/>
<path id="Vector_42" d="M-21.1699 83.7009C-18.0558 84.9648 -13.368 87.0738 -7.37939 86.1258C-1.13073 85.138 -1.19596 81.9677 5.85619 81.0586C8.51618 80.7147 15.3885 80.2813 18.9931 79.6085C20.2562 79.3717 21.2043 79.097 21.4814 79.0068C23.6281 78.3174 24.5612 77.479 29.7161 76.3297C33.0622 75.5818 39.8412 74.5208 39.8412 74.5208L36.9954 42.5681L26.2383 42.4375C20.2303 42.1621 15.5671 41.169 12.3624 40.2832C7.66975 38.99 5.68757 38.5214 2.02093 38.465C-3.13834 38.3835 -5.62086 39.7329 -8.67487 40.1804" fill="#5F823C"/>
<g id="Group_9" style="mix-blend-mode:multiply" opacity="0.3">
<g id="Clip path group_2">
<mask id="mask1_23713_4829" style="mask-type:luminance" maskUnits="userSpaceOnUse" x="-22" y="38" width="62" height="49">
<g id="clippath-1">
<path id="SVGID_2" d="M-21.1699 83.7009C-18.0558 84.9648 -13.368 87.0738 -7.37939 86.1258C-1.13073 85.138 -1.19596 81.9677 5.85619 81.0586C8.51618 80.7147 15.3885 80.2813 18.9931 79.6085C20.2562 79.3717 21.2043 79.097 21.4814 79.0068C23.6281 78.3174 24.5612 77.479 29.7161 76.3297C33.0622 75.5818 39.8412 74.5208 39.8412 74.5208L36.9954 42.5681L26.2383 42.4375C20.2303 42.1621 15.5671 41.169 12.3624 40.2832C7.66975 38.99 5.68757 38.5214 2.02093 38.465C-3.13834 38.3835 -5.62086 39.7329 -8.67487 40.1804" fill="white"/>
</g>
</mask>
<g mask="url(#mask1_23713_4829)">
<g id="Group_10">
<g id="Group_11">
<path id="Vector_43" d="M-12.3944 91.4503C-11.1272 87.7922 -11.3653 83.8333 -12.5658 80.1911C-13.1703 78.3639 -13.9807 76.6104 -14.9533 74.9487C-15.708 73.6572 -16.577 72.4361 -17.3073 71.1279C-18.0376 69.8197 -18.7031 68.4399 -19.1243 66.993C-19.4976 65.709 -19.718 64.2958 -19.3102 63.0642C-19.1243 62.4969 -18.805 61.9967 -18.3563 61.5933C-17.7968 61.0933 -17.0998 60.7677 -16.3735 60.5583C-16.014 60.4554 -15.6136 60.3695 -15.2733 60.3599C-14.9676 60.3512 -14.6294 60.3846 -14.4025 60.4427C-13.7929 60.5962 -13.3511 60.8582 -12.853 61.2672C-12.7235 61.3734 -12.6826 61.4091 -12.5691 61.5162C-12.4481 61.629 -12.3318 61.7463 -12.2174 61.8693C-11.9831 62.1172 -11.7581 62.3744 -11.5416 62.638C-11.1047 63.1635 -10.6867 63.7076 -10.2434 64.2322C-9.38733 65.2429 -8.3788 66.2273 -7.07575 66.6094C-6.35517 66.8223 -5.59544 66.8644 -4.88292 66.6128C-4.20877 66.3731 -3.64563 65.8899 -3.17018 65.3708C-2.64587 64.7996 -2.19233 64.1701 -1.70248 63.5716C-1.238 63.0019 -0.728996 62.5035 -0.0951824 62.0973C1.46215 61.1022 3.30252 60.5338 5.15675 60.5878C6.06517 60.6147 6.95793 60.7892 7.80695 61.1204C8.55612 61.4148 9.24949 61.8462 9.8978 62.3185C12.2964 64.0639 13.9676 66.6206 15.138 69.3291C16.4073 72.2707 17.14 75.4237 17.6839 78.5721C18.2278 81.7204 18.5249 84.6759 18.8832 87.7364C18.9595 88.3957 19.0386 89.0558 19.1252 89.7123C19.1965 90.2482 20.0161 90.0765 19.9467 89.5444C19.5535 86.5594 19.2789 83.5648 18.8464 80.5852C18.3768 77.3372 17.7492 74.095 16.6733 70.988C15.6701 68.0897 14.2367 65.2547 12.0478 63.0655C10.9175 61.9339 9.57455 60.9142 8.07621 60.3255C6.28584 59.6223 4.26143 59.5825 2.41391 60.0799C1.4836 60.3295 0.588209 60.7064 -0.23859 61.2032C-0.971653 61.6444 -1.58727 62.1535 -2.14652 62.8003C-2.64563 63.38 -3.08608 64.0077 -3.58519 64.5875C-4.01287 65.0853 -4.51338 65.5679 -5.12399 65.8135C-5.68873 66.0434 -6.37725 65.9662 -6.95957 65.7689C-7.28993 65.657 -7.48017 65.5645 -7.76627 65.3864C-8.05238 65.2084 -8.31316 65.0109 -8.5598 64.79C-8.74224 64.6284 -9.0185 64.3476 -9.22121 64.1261C-9.45088 63.8735 -9.67211 63.6145 -9.88864 63.3508C-10.3254 62.816 -10.7453 62.2682 -11.1999 61.7491C-12.0756 60.7411 -13.1078 59.8267 -14.461 59.5836C-15.2138 59.4472 -15.9771 59.5631 -16.7016 59.7856C-17.4898 60.0303 -18.2524 60.3836 -18.8784 60.9328C-21.2401 63.0033 -20.3372 66.5291 -19.2864 69.0285C-18.7124 70.393 -17.9933 71.6974 -17.2104 72.9517C-16.8032 73.6013 -16.3688 74.2352 -15.9728 74.8904C-15.4683 75.7228 -15.0003 76.5802 -14.5802 77.4588C-12.9439 80.8742 -11.9938 84.703 -12.5392 88.4964C-12.6716 89.4126 -12.8946 90.3105 -13.1998 91.1837C-13.3751 91.6922 -12.5838 91.9634 -12.4075 91.4521L-12.3944 91.4503Z" fill="#5F823C"/>
<path id="Vector_44" d="M7.96251 32.8926C7.23531 35.0394 6.47728 37.1851 6.14776 39.4385C5.81825 41.6919 5.94074 44.2232 7.60861 45.9145C8.51464 46.833 9.83842 47.5684 11.1638 47.3871C12.4892 47.2058 13.428 46.1572 14.1469 45.1496C14.5469 44.5862 14.9012 43.9917 15.2443 43.3934C15.7287 42.5529 16.1787 41.6944 16.5792 40.8067C17.4012 38.979 18.0077 37.0597 18.4208 35.1029C19.25 31.181 19.3496 27.1555 19.1752 23.1651C19.1542 22.665 19.1277 22.1631 19.0983 21.6601C19.0844 21.4339 18.9498 21.2323 18.705 21.218C18.5004 21.2049 18.249 21.3849 18.2629 21.6112C18.4892 25.5037 18.5236 29.4373 17.9088 33.2977C17.6072 35.183 17.1394 37.0432 16.4793 38.8352C15.8638 40.505 15.0636 42.0842 14.1487 43.6058C13.8086 44.1676 13.4488 44.7228 13.0305 45.2301C12.9195 45.3641 12.8941 45.3929 12.787 45.5064C12.6799 45.6199 12.5597 45.7352 12.4396 45.8412C12.3326 45.936 12.2219 46.0233 12.1065 46.1059C12.0784 46.1244 12.053 46.1439 12.0249 46.1625C11.964 46.2042 12.1074 46.1124 11.9977 46.1782C11.9312 46.2181 11.8646 46.2579 11.7962 46.294C11.6781 46.357 11.5564 46.4125 11.4281 46.4595C11.3597 46.4863 11.5189 46.431 11.4037 46.4669C11.3663 46.476 11.3307 46.4889 11.2933 46.4981C11.2184 46.5164 11.1436 46.5347 11.0678 46.5465C11.0051 46.5565 10.9396 46.5655 10.8751 46.5717C10.9462 46.5646 10.8779 46.5727 10.8667 46.5689C10.8256 46.5706 10.7882 46.5704 10.7471 46.572C10.5975 46.5713 10.4462 46.5575 10.2986 46.5324C10.3808 46.5478 10.2435 46.52 10.2407 46.5191C10.2127 46.5096 10.1828 46.5057 10.1548 46.4962C10.0745 46.4753 9.99239 46.4506 9.914 46.424C9.76282 46.3728 9.55668 46.2811 9.46344 46.2339C9.2089 46.1009 8.96564 45.953 8.73277 45.7836C8.61821 45.698 8.5074 45.6106 8.40128 45.5185C8.46364 45.5739 8.33241 45.4546 8.31661 45.4367C8.26265 45.3841 8.21148 45.3325 8.15847 45.2771C7.98457 45.0903 7.82381 44.8923 7.68089 44.6785C7.72916 44.7479 7.63081 44.596 7.6141 44.5716C7.57978 44.5163 7.5464 44.4582 7.51583 44.4011C7.45189 44.2858 7.39449 44.1696 7.33899 44.0479C7.28904 43.9373 7.2447 43.8287 7.20225 43.7145C7.18838 43.6817 7.17826 43.6471 7.16535 43.6115C7.16995 43.6256 7.19023 43.6855 7.16535 43.6115C7.14232 43.5413 7.12208 43.4721 7.10185 43.4028C7.02738 43.1436 6.9707 42.8779 6.92711 42.6104C6.9062 42.4879 6.88903 42.3635 6.87841 42.2382C6.87123 42.1765 6.865 42.112 6.86061 42.0512C6.86066 42.0419 6.85004 41.9166 6.85709 42.0063C6.85357 41.9615 6.85004 41.9166 6.84931 41.8727C6.81836 41.3099 6.84163 40.7437 6.89479 40.1814C6.92422 39.8918 6.95924 39.6041 7.00642 39.3175C7.02668 39.1839 7.0507 39.0485 7.07377 38.916C7.08817 38.8366 7.10351 38.7544 7.11791 38.6751C7.11222 38.6919 7.10261 38.7479 7.12076 38.6667C7.13222 38.6144 7.14184 38.5584 7.15331 38.5061C7.27194 37.9347 7.41298 37.371 7.57176 36.8101C7.85894 35.7873 8.19651 34.7815 8.54247 33.7786C8.61263 33.5714 8.68279 33.3643 8.75295 33.1572C8.92551 32.6478 8.13416 32.3766 7.96066 32.8888L7.96251 32.8926Z" fill="#5F823C"/>
<path id="Vector_45" d="M25.3554 82.0443C26.0941 79.2555 25.3336 76.4332 24.2112 73.8596C23.0887 71.286 21.4739 68.6734 20.3259 65.9726C19.799 64.7364 19.3836 63.4568 19.2189 62.1187C18.9822 60.2101 18.8447 58.2852 18.9408 56.3615C19.0369 54.4378 19.4051 52.5032 19.9711 50.6295C20.6246 48.4702 21.2733 46.3062 21.9295 44.1478C23.2392 39.8302 24.5721 35.5173 25.9947 31.2348C26.173 30.6993 26.3513 30.1637 26.5324 29.6291C26.7134 29.0945 25.9136 28.8485 25.7401 29.3607C24.2866 33.6515 22.934 37.9764 21.613 42.309C20.954 44.4664 20.3034 46.6266 19.6528 48.7869C19.0545 50.7651 18.4665 52.7219 18.2305 54.7824C18.0101 56.6952 18.0476 58.6206 18.2132 60.5362C18.2886 61.3917 18.3602 62.2584 18.529 63.105C18.6614 63.7738 18.8564 64.4233 19.0814 65.0674C20.0395 67.8131 21.5913 70.3076 22.8547 72.9165C24.0404 75.3587 25.1193 78.0611 24.7555 80.8302C24.7119 81.1524 24.6487 81.4679 24.565 81.7797C24.427 82.2977 25.2211 82.5698 25.3573 82.048L25.3554 82.0443Z" fill="#5F823C"/>
<path id="Vector_46" d="M-4.04253 87.7179C-4.1058 87.6559 -4.16157 87.5902 -4.21639 87.5217C-4.24705 87.4832 -4.27396 87.4429 -4.30088 87.4026C-4.22289 87.5132 -4.3324 87.3482 -4.35281 87.3164C-4.47334 87.1102 -4.57603 86.8882 -4.66658 86.6672C-4.71463 86.5511 -4.75893 86.4331 -4.80323 86.3151C-4.81709 86.2823 -4.82721 86.2477 -4.84107 86.2149C-4.84383 86.2046 -4.88348 86.0914 -4.85399 86.1794C-4.88163 86.0951 -4.91022 86.0137 -4.93506 85.9304C-5.0336 85.6224 -5.11905 85.3127 -5.1998 84.9983C-5.56038 83.5844 -5.79648 82.1347 -5.96994 80.6844C-6.12281 79.422 -6.2334 78.3112 -6.21518 77.0413C-6.20438 76.346 -6.12932 75.7006 -5.89911 75.0579C-5.68596 74.4655 -5.34891 73.9588 -4.86374 73.5584C-4.42174 73.1933 -3.82974 72.9289 -3.26541 72.7831C-2.55039 72.5979 -1.87619 72.5423 -1.15738 72.5393C0.457846 72.5342 2.06364 72.7412 3.58497 73.2159C3.92657 73.3223 4.26527 73.4464 4.59739 73.5807C4.92951 73.7151 5.18225 73.835 5.46194 73.9859C6.03813 74.2934 6.58226 74.6587 7.08314 75.078C7.28517 75.2462 7.49826 75.4464 7.72892 75.6867C7.94378 75.9093 8.14734 76.1467 8.33687 76.3888C8.4242 76.4995 8.50964 76.6158 8.59228 76.7311C8.63685 76.793 8.68047 76.8577 8.7241 76.9224C8.79743 77.0284 8.68143 76.8549 8.75101 76.9627C8.77978 77.0068 8.80854 77.0509 8.83451 77.094C9.00335 77.3602 9.15721 77.6339 9.30262 77.914C9.9203 79.1217 10.2745 80.315 10.5232 81.6628C10.803 83.1679 10.8942 84.6216 10.8934 86.1439C10.8943 86.556 10.8867 86.9653 10.8726 87.3755C10.856 87.9128 11.6904 87.9646 11.708 87.4245C11.8086 84.3635 11.6164 81.1627 10.4084 78.3073C9.89727 77.0983 9.1783 75.9593 8.24992 75.0239C7.26293 74.0312 6.07664 73.2768 4.78081 72.7536C3.22936 72.1283 1.55014 71.834 -0.110375 71.7333C-1.61109 71.6399 -3.24618 71.6945 -4.61143 72.3989C-5.22331 72.7127 -5.76013 73.1643 -6.15448 73.7296C-6.6147 74.388 -6.85958 75.1662 -6.9774 75.9563C-7.15994 77.1861 -7.0343 78.4736 -6.92054 79.704C-6.78098 81.2084 -6.56665 82.7131 -6.25311 84.1922C-6.10868 84.8714 -5.9418 85.5488 -5.72624 86.2115C-5.55399 86.7441 -5.36215 87.2833 -5.06907 87.7633C-4.95871 87.9442 -4.83619 88.1261 -4.68361 88.2745C-4.52172 88.4323 -4.27328 88.4728 -4.09213 88.3157C-3.93256 88.1763 -3.88909 87.8822 -4.05098 87.7244L-4.04253 87.7179Z" fill="#5F823C"/>
</g>
</g>
</g>
</g>
</g>
<g id="Group_12">
<g id="Group_13" style="mix-blend-mode:multiply" opacity="0.4">
<path id="Vector_47" d="M25.8225 42.4121C25.7624 43.2436 25.7183 44.0741 25.6769 44.9057C25.5697 46.991 25.4896 49.0793 25.4404 51.1687C25.3729 53.9477 25.3587 56.726 25.4155 59.5065C25.4774 62.3918 25.6131 65.2801 25.9116 68.1488C26.1609 70.5452 26.497 72.9711 27.2142 75.2764C27.2942 75.5375 27.3818 75.7949 27.4731 76.0505C27.5506 76.264 27.8485 76.3337 28.033 76.2402C28.2542 76.131 28.3002 75.8938 28.2227 75.6804C28.2135 75.6523 28.1517 75.4754 28.1876 75.5812C28.1673 75.5212 28.1489 75.4651 28.1286 75.4052C28.0881 75.2853 28.0503 75.1665 28.0135 75.0448C27.9362 74.794 27.8654 74.5422 27.7984 74.2886C27.6524 73.7431 27.527 73.192 27.4175 72.6401C27.1654 71.4034 26.9835 70.153 26.8343 68.8981C26.501 66.077 26.3525 63.3185 26.2755 60.4593C26.1985 57.6002 26.2022 54.8807 26.2576 52.0914C26.3017 49.8973 26.3777 47.7015 26.4844 45.5068C26.5341 44.5034 26.6183 43.4992 26.6559 42.4947C26.6569 42.4826 26.6588 42.4676 26.657 42.4546C26.6951 41.9183 25.8578 41.8656 25.8216 42.4056L25.8225 42.4121Z" fill="#5F823C"/>
</g>
<g id="Group_14" style="mix-blend-mode:multiply" opacity="0.4">
<path id="Vector_48" d="M25.773 47.4967C27.0764 47.5919 28.3809 47.6843 29.6843 47.7795C31.7653 47.929 33.8424 48.0803 35.9233 48.2299C36.4045 48.2649 36.883 48.2991 37.3642 48.3342C37.9005 48.3723 37.9522 47.538 37.413 47.4989C36.1095 47.4037 34.8051 47.3113 33.5016 47.2161C31.4207 47.0666 29.3436 46.9152 27.2627 46.7657C26.7814 46.7306 26.303 46.6965 25.8218 46.6614C25.2855 46.6233 25.2338 47.4576 25.773 47.4967Z" fill="#5F823C"/>
</g>
<g id="Group_15" style="mix-blend-mode:multiply" opacity="0.4">
<path id="Vector_49" d="M25.5772 53.0497C26.9482 53.1022 28.3164 53.1538 29.6874 53.2064L36.2292 53.4536C36.7255 53.4719 37.2217 53.4902 37.7142 53.5104C38.2507 53.5299 38.3023 52.6956 37.7631 52.6752C36.3921 52.6226 35.0239 52.571 33.6529 52.5185L27.1111 52.2713C26.6148 52.2529 26.1186 52.2346 25.6261 52.2144C25.0896 52.195 25.038 53.0292 25.5772 53.0497Z" fill="#5F823C"/>
</g>
<g id="Group_16" style="mix-blend-mode:multiply" opacity="0.4">
<path id="Vector_50" d="M25.8644 59.0471C27.2808 58.984 28.6935 58.9227 30.1099 58.8596L36.817 58.5637C37.3265 58.5429 37.8342 58.5183 38.3437 58.4974C38.569 58.4864 38.7725 58.3463 38.7859 58.1043C38.7971 57.8959 38.6179 57.6511 38.3926 57.6622C36.9762 57.7253 35.5635 57.7865 34.1471 57.8496L27.44 58.1455C26.9305 58.1664 26.4228 58.191 25.9133 58.2118C25.688 58.2229 25.4845 58.363 25.4712 58.605C25.4599 58.8133 25.6391 59.0581 25.8644 59.0471Z" fill="#5F823C"/>
</g>
<g id="Group_17" style="mix-blend-mode:multiply" opacity="0.4">
<path id="Vector_51" d="M26.0301 64.6757C26.4593 64.6433 26.8875 64.6136 27.3167 64.5811C28.3471 64.5058 29.3776 64.4306 30.4108 64.3562L34.1547 64.0831C35.2328 64.0052 36.3147 63.9255 37.3928 63.8477C37.9145 63.8091 38.4548 63.808 38.9702 63.733C38.9768 63.7321 38.9861 63.7322 38.9926 63.7313C39.2199 63.7146 39.3605 63.4378 39.3194 63.2366C39.2682 62.9915 39.0518 62.8933 38.8246 62.9099C38.3954 62.9424 37.9672 62.972 37.538 63.0045L34.4439 63.2294C33.1956 63.3214 31.9483 63.4106 30.7 63.5025C29.6219 63.5804 28.54 63.6601 27.4619 63.738C26.9401 63.7765 26.3999 63.7776 25.8845 63.8526C25.8779 63.8535 25.8686 63.8535 25.862 63.8544C25.6348 63.871 25.4942 64.1479 25.5353 64.349C25.5865 64.5941 25.8029 64.6924 26.0301 64.6757Z" fill="#5F823C"/>
</g>
<g id="Group_18" style="mix-blend-mode:multiply" opacity="0.4">
<path id="Vector_52" d="M26.5284 69.7368C26.952 69.7118 27.3765 69.684 27.7972 69.658L30.8481 69.4684L34.5404 69.2371C35.6054 69.1704 36.6676 69.1027 37.7316 69.0388C38.2477 69.0077 38.7648 68.9738 39.2809 68.9427C39.2865 68.9446 39.2968 68.9419 39.3033 68.941C39.5296 68.9271 39.7312 68.7926 39.7454 68.5478C39.7586 68.3432 39.5784 68.0919 39.3522 68.1057C38.9286 68.1308 38.5041 68.1586 38.0834 68.1845C37.0661 68.2487 36.0488 68.3128 35.0325 68.3741L31.3402 68.6055L28.149 68.8037C27.6329 68.8348 27.1158 68.8687 26.5997 68.8998C26.5941 68.8979 26.5838 68.9007 26.5773 68.9016C26.351 68.9154 26.1494 69.0499 26.1351 69.2947C26.122 69.4993 26.3021 69.7507 26.5284 69.7368Z" fill="#5F823C"/>
</g>
<g id="Group_19" style="mix-blend-mode:multiply" opacity="0.4">
<path id="Vector_53" d="M27.33 74.3171C28.7261 74.2034 30.1222 74.0898 31.5164 73.9723L38.1508 73.4303C38.6614 73.388 39.1748 73.3466 39.6853 73.3042C39.9097 73.2867 40.0531 73.0107 40.012 72.8096C39.9637 72.5655 39.7445 72.4663 39.5173 72.4829C38.1212 72.5966 36.7251 72.7102 35.3309 72.8277L28.6964 73.3697C28.1859 73.412 27.6725 73.4534 27.162 73.4958C26.9375 73.5134 26.7941 73.7893 26.8352 73.9904C26.8836 74.2345 27.1028 74.3337 27.33 74.3171Z" fill="#5F823C"/>
</g>
<g id="Group_20" style="mix-blend-mode:multiply" opacity="0.4">
<path id="Vector_54" d="M25.8704 44.7216C27.1303 44.7428 28.3874 44.763 29.6473 44.7842C31.6371 44.8155 33.6261 44.8496 35.6131 44.8799C36.0692 44.8878 36.5226 44.8947 36.9787 44.9025C37.5151 44.9127 37.5677 44.0756 37.0275 44.0673C35.7676 44.0461 34.5105 44.0259 33.2506 44.0048C31.2607 43.9735 29.2718 43.9394 27.2847 43.909C26.8286 43.9011 26.3753 43.8942 25.9192 43.8864C25.3827 43.8763 25.3301 44.7134 25.8704 44.7216Z" fill="#5F823C"/>
</g>
</g>
<path id="Vector_55" d="M42.5165 43.5989L44.9167 69.432L52.0081 68.7296L49.0516 43.1106L42.5165 43.5989Z" fill="#CC5650"/>
<path id="Vector_56" d="M53.1386 75.2873L64.304 98.3142L70.6231 93.7558L58.4341 72.1014L53.1386 75.2873Z" fill="#F1C754"/>
<path id="Vector_57" d="M88.7241 95.488L114.176 87.9568L112.512 82.532L87.3533 88.3498L88.7241 95.488Z" fill="#6073C9"/>
<path id="Vector_58" d="M125.733 99.8777L144.585 82.3854L140.645 78.2802L121.124 93.5739L125.733 99.8777Z" fill="#8DA664"/>
<path id="Vector_59" d="M131.426 114.589L156.202 89.9741L160.391 94.2012L135.442 119.741L131.426 114.589Z" fill="#DEA94D"/>
<path id="Vector_60" d="M138.278 122.988L163.789 97.7392L168.114 102.09L142.425 128.287L138.278 122.988Z" fill="#DEA94D"/>
<path id="Vector_61" d="M65.425 97.0778L66.9045 104.743L68.4828 104.644L66.1383 97.4598L73.0778 102.899L74.2652 101.264L65.7644 96.4907" fill="#F1C754"/>
<path id="Vector_62" d="M45.4074 68.6653L42.8248 76.2896L44.422 76.3377L45.9322 68.7744L46.6173 75.0439L48.5339 74.3608L46.334 68.4176" fill="#CC5650"/>
<path id="Vector_63" d="M90.5154 92.2821L83.5057 97.2118L82.7986 95.356L90.3271 91.5849L80.6521 91.3279L81.9043 88.6631L90.457 90.9986" fill="#6073C9"/>
<path id="Vector_64" d="M140.06 81.9043L149.224 72.4219L150.893 74.2478L140.883 82.1831L152.731 76.9296L153.54 79.9494L140.949 83.004" fill="#8DA664"/>
</g>
</g>
</g>
</g>
<defs>
<clipPath id="clip0_23713_4829">
<rect width="237" height="166" fill="white" transform="translate(0.257874 -21) rotate(18.7132)"/>
</clipPath>
</defs>
</svg>
