<svg width="153" height="350" viewBox="0 0 153 350" fill="none" xmlns="http://www.w3.org/2000/svg">
<path d="M147.557 133.376C139.002 125.815 111.81 103.749 103.102 99.7359C94.3949 95.7232 85.6873 93.8715 76.2152 93.7956C55.0145 93.6234 15.834 114.975 7.471 120.645C-0.891962 126.315 -2.72698 133.839 4.49209 139.625C11.7111 145.412 35.0842 162.425 44.5929 166.707L34.2813 332.897L17.0952 349.794C17.0952 349.794 54.4462 349.563 53.9879 349.794C53.5296 350.026 67.2785 208.833 67.2785 208.833L75.0695 209.527L89.9641 349.794H130.6L111.046 336.138L99.4361 174.113C99.4361 174.113 132.74 163.62 143.585 155.287C154.432 146.954 156.111 140.936 147.557 133.376ZM42.4169 151.313C42.0723 151.313 24.6571 137.657 17.0952 132.911L44.7084 118.212L45.3958 149.923C45.3958 149.923 42.7597 151.313 42.4169 151.313ZM107.531 155.75L103.713 153.282L105.033 120.431L135.619 144.023C128.419 145.875 107.531 155.75 107.531 155.75Z" fill="#6FF6F7"/>
<path d="M75.5 98.7946C73.0165 98.7946 71 97.5126 71 95.9296V83.6595C71 82.0784 73.0136 80.7946 75.5 80.7946C77.9835 80.7946 80 82.0766 80 83.6595V95.9296C80 97.5126 77.9864 98.7946 75.5 98.7946Z" fill="#6FF6F7"/>
<path d="M43.6901 251.795C43.6901 251.795 41.0843 255.932 46 257.795" stroke="#47CACB" stroke-width="1.07359" stroke-miterlimit="10" stroke-linecap="round" stroke-linejoin="round"/>
<path d="M116.588 49.9973C115.346 49.9973 114.153 50.2056 113.033 50.5775C112.143 30.6696 96.001 14.7946 76.1617 14.7946C55.9706 14.7946 39.5891 31.2311 39.2391 51.6336C37.5313 50.6016 35.545 49.9973 33.4121 49.9973C27.1105 49.9973 22 55.1812 22 61.5773C22 67.9715 27.1087 73.1572 33.4121 73.1572C37.273 73.1572 40.6793 71.2068 42.7444 68.2281C48.6521 80.9609 61.3743 89.7946 76.1617 89.7946C90.2693 89.7946 102.521 81.7697 108.749 69.9778C110.794 71.9431 113.548 73.1572 116.588 73.1572C122.889 73.1572 128 67.9734 128 61.5773C128 55.1812 122.889 49.9973 116.588 49.9973Z" fill="#6FF6F7"/>
<path d="M64 55.2946C64 53.3612 62.4334 51.7946 60.5 51.7946C58.5666 51.7946 57 53.3612 57 55.2946C57 57.228 58.5666 58.7946 60.5 58.7946C62.4334 58.7946 64 57.228 64 55.2946Z" fill="#4A413C"/>
<path d="M97 55.2946C97 53.3612 95.2096 51.7946 93 51.7946C90.7904 51.7946 89 53.3612 89 55.2946C89 57.228 90.7904 58.7946 93 58.7946C95.2096 58.7946 97 57.228 97 55.2946Z" fill="#4A413C"/>
<path d="M74.3306 55.7946L73 57.4706C73 57.4706 73.6107 58.861 75 58.7921" stroke="#47CACB" stroke-width="3" stroke-miterlimit="10" stroke-linecap="round" stroke-linejoin="round"/>
<path d="M76 67.7935C76 67.7935 82.391 67.9667 87 63.7946" stroke="#47CACB" stroke-width="3" stroke-miterlimit="10" stroke-linecap="round" stroke-linejoin="round"/>
<path d="M99 252.795C99 252.795 103.5 255.295 99 257.795" stroke="#47CACB" stroke-width="1.07359" stroke-miterlimit="10" stroke-linecap="round" stroke-linejoin="round"/>
</svg>
