<svg width="153" height="350" viewBox="0 0 153 350" fill="none" xmlns="http://www.w3.org/2000/svg">
<path d="M147.557 133.376C139.002 125.815 111.81 103.748 103.102 99.7357C94.3949 95.7231 85.6873 93.8714 76.2152 93.7955C55.0145 93.6233 15.834 114.975 7.471 120.645C-0.891962 126.315 -2.72698 133.839 4.49209 139.625C11.7111 145.412 35.0842 162.425 44.5929 166.706L34.2813 332.897L17.0952 349.794C17.0952 349.794 54.4462 349.563 53.9879 349.794C53.5296 350.026 67.2785 208.833 67.2785 208.833L75.0695 209.527L89.9641 349.794H130.6L111.046 336.138L99.4361 174.113C99.4361 174.113 132.74 163.62 143.585 155.287C154.432 146.954 156.111 140.936 147.557 133.376ZM42.4169 151.313C42.0723 151.313 24.6571 137.657 17.0952 132.911L44.7084 118.212L45.3958 149.923C45.3958 149.923 42.7597 151.313 42.4169 151.313ZM107.531 155.75L103.713 153.282L105.033 120.43L135.619 144.023C128.419 145.875 107.531 155.75 107.531 155.75Z" fill="#8E4B26"/>
<path d="M75.5 98.7944C73.0165 98.7944 71 97.5124 71 95.9294V83.6594C71 82.0783 73.0136 80.7944 75.5 80.7944C77.9835 80.7944 80 82.0764 80 83.6594V95.9294C80 97.5124 77.9864 98.7944 75.5 98.7944Z" fill="#8E4B26"/>
<path d="M43.6901 251.794C43.6901 251.794 41.0843 255.932 46 257.794" stroke="#663317" stroke-width="1.07359" stroke-miterlimit="10" stroke-linecap="round" stroke-linejoin="round"/>
<path d="M116.588 49.9972C115.346 49.9972 114.153 50.2055 113.033 50.5773C112.143 30.6694 96.001 14.7944 76.1617 14.7944C55.9706 14.7944 39.5891 31.231 39.2391 51.6334C37.5313 50.6015 35.545 49.9972 33.4121 49.9972C27.1105 49.9972 22 55.181 22 61.5772C22 67.9714 27.1087 73.1571 33.4121 73.1571C37.273 73.1571 40.6793 71.2067 42.7444 68.228C48.6521 80.9607 61.3743 89.7944 76.1617 89.7944C90.2693 89.7944 102.521 81.7695 108.749 69.9776C110.794 71.9429 113.548 73.1571 116.588 73.1571C122.889 73.1571 128 67.9733 128 61.5772C128 55.181 122.889 49.9972 116.588 49.9972Z" fill="#8E4B26"/>
<path d="M64 55.2944C64 53.361 62.4334 51.7944 60.5 51.7944C58.5666 51.7944 57 53.361 57 55.2944C57 57.2278 58.5666 58.7944 60.5 58.7944C62.4334 58.7944 64 57.2278 64 55.2944Z" fill="#333132"/>
<path d="M97 55.2944C97 53.361 95.2096 51.7944 93 51.7944C90.7904 51.7944 89 53.361 89 55.2944C89 57.2278 90.7904 58.7944 93 58.7944C95.2096 58.7944 97 57.2278 97 55.2944Z" fill="#333132"/>
<path d="M74.3306 55.7944L73 57.4705C73 57.4705 73.6107 58.8609 75 58.792" stroke="#663317" stroke-width="3" stroke-miterlimit="10" stroke-linecap="round" stroke-linejoin="round"/>
<path d="M76 67.7934C76 67.7934 82.391 67.9666 87 63.7944" stroke="#663317" stroke-width="3" stroke-miterlimit="10" stroke-linecap="round" stroke-linejoin="round"/>
<path d="M99 252.794C99 252.794 103.5 255.294 99 257.794" stroke="#663317" stroke-width="1.07359" stroke-miterlimit="10" stroke-linecap="round" stroke-linejoin="round"/>
</svg>
