<svg width="153" height="350" viewBox="0 0 153 350" fill="none" xmlns="http://www.w3.org/2000/svg">
<path d="M147.557 133.376C139.002 125.815 111.81 103.748 103.102 99.7357C94.3949 95.7231 85.6873 93.8714 76.2152 93.7955C55.0145 93.6233 15.834 114.975 7.471 120.645C-0.891962 126.315 -2.72698 133.839 4.49209 139.625C11.7111 145.412 35.0842 162.425 44.5929 166.706L34.2813 332.897L17.0952 349.794C17.0952 349.794 54.4462 349.563 53.9879 349.794C53.5296 350.026 67.2785 208.833 67.2785 208.833L75.0695 209.527L89.9641 349.794H130.6L111.046 336.138L99.4361 174.113C99.4361 174.113 132.74 163.62 143.585 155.287C154.432 146.954 156.111 140.936 147.557 133.376ZM42.4169 151.313C42.0723 151.313 24.6571 137.657 17.0952 132.911L44.7084 118.212L45.3958 149.923C45.3958 149.923 42.7597 151.313 42.4169 151.313ZM107.531 155.75L103.713 153.282L105.033 120.43L135.619 144.023C128.419 145.875 107.531 155.75 107.531 155.75Z" fill="#C8C7BF"/>
<path d="M75 98.7944C72.7925 98.7944 71 97.5124 71 95.9294V83.6594C71 82.0783 72.7899 80.7944 75 80.7944C77.2075 80.7944 79 82.0764 79 83.6594V95.9294C79 97.5124 77.2101 98.7944 75 98.7944Z" fill="#C8C7BF"/>
<path d="M43.9201 251.794C43.9201 251.794 40.4457 256.622 47 258.794" stroke="#585858" stroke-width="1.07359" stroke-miterlimit="10" stroke-linecap="round" stroke-linejoin="round"/>
<path d="M115.696 50.9972C114.465 50.9972 113.283 51.2055 112.174 51.5773C111.292 31.6694 95.3029 15.7944 75.6508 15.7944C55.6501 15.7944 39.4231 32.231 39.0765 52.6334C37.3848 51.6015 35.4172 50.9972 33.3044 50.9972C27.0623 50.9972 22 56.181 22 62.5772C22 68.9714 27.0605 74.1571 33.3044 74.1571C37.1289 74.1571 40.5031 72.2067 42.5487 69.228C48.4006 81.9607 61.0029 90.7944 75.6508 90.7944C89.6252 90.7944 101.761 82.7695 107.931 70.9776C109.956 72.9429 112.684 74.1571 115.696 74.1571C121.938 74.1571 127 68.9733 127 62.5772C127 56.181 121.938 50.9972 115.696 50.9972Z" fill="#C8C7BF"/>
<path d="M64 55.2944C64 53.361 62.4334 51.7944 60.5 51.7944C58.5666 51.7944 57 53.361 57 55.2944C57 57.2278 58.5666 58.7944 60.5 58.7944C62.4334 58.7944 64 57.2278 64 55.2944Z" fill="#4A413C"/>
<path d="M97 55.2944C97 53.361 95.2096 51.7944 93 51.7944C90.7904 51.7944 89 53.361 89 55.2944C89 57.2278 90.7904 58.7944 93 58.7944C95.2096 58.7944 97 57.2278 97 55.2944Z" fill="#4A413C"/>
<path d="M74.6613 54.7944L72 57.0292C72 57.0292 73.2213 58.8831 76 58.7911" stroke="#585858" stroke-width="3" stroke-miterlimit="10" stroke-linecap="round" stroke-linejoin="round"/>
<path d="M76 66.7937C76 66.7937 82.972 66.9235 88 63.7944" stroke="#585858" stroke-width="3" stroke-miterlimit="10" stroke-linecap="round" stroke-linejoin="round"/>
<path d="M99 252.794C99 252.794 101.25 255.794 99 258.794" stroke="#585858" stroke-width="1.07359" stroke-miterlimit="10" stroke-linecap="round" stroke-linejoin="round"/>
</svg>
