<svg width="153" height="350" viewBox="0 0 153 350" fill="none" xmlns="http://www.w3.org/2000/svg">
<path fill-rule="evenodd" clip-rule="evenodd" d="M33.4121 49.9973C32.9351 49.9973 32.4649 50.027 32.0033 50.0847C32.5384 44.9486 35.1334 31.0165 47.6893 22.0947C53.5942 16.5053 62.731 12.5193 76.6142 13.0468C79.2644 10.7327 85.3707 5.7333 88.3648 6.01112C91.7329 6.32365 89.8738 13.1335 89.3162 14.9498C89.3836 14.9689 89.4509 14.9882 89.518 15.0075C90.9046 13.4725 96.1023 7.89564 97.8158 8.59728C99.8 9.40978 99.1824 16.1739 99.1824 16.1739C99.1824 16.1739 118.695 24.7085 119.134 50.2866C118.315 50.0973 117.463 49.9973 116.588 49.9973C116.352 49.9973 116.117 50.0049 115.885 50.0196C116.08 54.239 116.485 69.2614 112.575 72.4161C113.822 72.8947 115.174 73.1572 116.588 73.1572C117.525 73.1572 118.436 73.0425 119.308 72.8262C119.823 87.4455 121 96 121 96C105.299 94.7408 92.8277 93.7521 79.9999 93.3924V89.5946C91.9377 88.3439 102.183 81.3233 107.998 71.3309C103.739 66.1996 102.728 51.0094 102.728 51.0094C96.5764 46.348 86.3207 29.7406 86.3207 29.7406C66.2936 46.2719 47.7143 48.7394 47.7143 48.7394C47.7143 48.7394 47.9346 65.6731 44.0678 70.815C49.6144 80.6997 59.4402 87.7865 70.9999 89.4307V93.2482C59.1565 93.2037 46.3563 93.7337 30 95.098L30.9626 72.8898C31.7516 73.0649 32.5712 73.1572 33.4121 73.1572C35.6223 73.1572 37.6836 72.518 39.4295 71.4126C35.5609 67.8832 37.3262 54.6995 37.92 50.9478C36.5377 50.3392 35.0164 49.9973 33.4121 49.9973Z" fill="#7B5E46"/>
</svg>
