<svg width="61" height="48" viewBox="0 0 61 48" fill="none" xmlns="http://www.w3.org/2000/svg">
<path d="M30.7857 47.7142C29.5243 47.7142 28.5 46.9816 28.5 46.077V39.0656C28.5 38.1621 29.5228 37.4285 30.7857 37.4285C32.0472 37.4285 33.0714 38.161 33.0714 39.0656V46.077C33.0714 46.9816 32.0486 47.7142 30.7857 47.7142Z" fill="#C8C7BF"/>
<path d="M54.0403 20.4015C53.3371 20.4015 52.6619 20.5205 52.0281 20.733C51.5241 9.35707 42.3873 0.285645 31.1576 0.285645C19.7287 0.285645 10.4561 9.67794 10.258 21.3365C9.29131 20.7468 8.16699 20.4015 6.95968 20.4015C3.39275 20.4015 0.5 23.3637 0.5 27.0186C0.5 30.6725 3.39171 33.6357 6.95968 33.6357C9.14507 33.6357 11.0732 32.5212 12.2421 30.8191C15.5861 38.095 22.7874 43.1428 31.1576 43.1428C39.143 43.1428 46.0777 38.5571 49.6032 31.8189C50.7607 32.9419 52.3196 33.6357 54.0403 33.6357C57.6072 33.6357 60.5 30.6736 60.5 27.0186C60.5 23.3637 57.6072 20.4015 54.0403 20.4015Z" fill="#C8C7BF"/>
</svg>
