<svg width="153" height="350" viewBox="0 0 153 350" fill="none" xmlns="http://www.w3.org/2000/svg">
<path d="M76.8136 4C52.9635 4 35 21.6496 35 43.4214C35 45.989 35.1708 47.5345 35.6855 49.9651C35.6855 49.9651 37.0105 51.7357 41.917 51.7357C41.917 51.7357 41.917 62.487 45.2985 62.9855C48.68 63.4841 48.68 50.9282 48.68 50.9282C48.68 50.9282 63.1048 44.4767 85.0403 27.3256C85.0403 27.3256 101.789 44.0712 107.132 47.8541C107.132 47.8541 104.078 62.1892 108.877 62.2895C113.675 62.3899 113.893 50.7418 113.893 50.7418L119.315 49.9651C119.533 48.3596 120 45.0827 120 43.423C119.998 21.6496 100.664 4 76.8136 4Z" fill="#2D3228"/>
</svg>
