<svg width="153" height="350" viewBox="0 0 153 350" fill="none" xmlns="http://www.w3.org/2000/svg">
<path fill-rule="evenodd" clip-rule="evenodd" d="M33.412 49.9973C33.1663 49.9973 32.9224 50.0052 32.6805 50.0208C34.9363 36.664 43.4239 10.8421 75.3395 10.2825C75.3395 10.2825 84.4765 -0.439034 88.3648 0.0139607C92.253 0.466956 89.175 11.7918 89.175 11.7918C89.175 11.7918 95.8315 2.24088 97.8158 3.26103C99.8 4.28117 99.1824 12.7739 99.1824 12.7739C99.1824 12.7739 116.497 22.2824 118.872 50.2295C118.134 50.0772 117.37 49.9973 116.588 49.9973C116.352 49.9973 116.117 50.0049 115.885 50.0196C116.08 54.239 116.485 69.2614 112.575 72.4161C113.822 72.8947 115.174 73.1572 116.588 73.1572C117.451 73.1572 118.292 73.0599 119.101 72.8754C119.303 93.7083 120.486 107.675 120.876 111.759C113.535 106.191 106.722 101.404 103.102 99.7359C95.5667 96.2633 88.0311 94.4091 79.9999 93.9237V89.5946C91.9377 88.3439 102.183 81.3233 107.998 71.3309C103.739 66.1996 102.728 51.0094 102.728 51.0094C96.5764 46.348 86.3206 29.7406 86.3206 29.7406C66.2936 46.2719 47.7143 48.7394 47.7143 48.7394C47.7143 48.7394 47.9346 65.6731 44.0678 70.815C49.6144 80.6997 59.4402 87.7865 70.9999 89.4307V94.1242C58.9134 95.6205 43.128 101.972 30.1254 108.236L31.3428 72.9673C32.0139 73.0921 32.7054 73.1572 33.412 73.1572C35.6223 73.1572 37.6835 72.518 39.4295 71.4126C35.5608 67.8832 37.3262 54.6995 37.92 50.9478C36.5377 50.3392 35.0163 49.9973 33.412 49.9973Z" fill="#2D3228"/>
</svg>
