<svg width="61" height="13" viewBox="0 0 61 13" fill="none" xmlns="http://www.w3.org/2000/svg">
<path d="M11 6C11 3.0999 8.65011 0.75 5.75 0.75C2.84989 0.75 0.5 3.0999 0.5 6C0.5 8.9001 2.84989 11.25 5.75 11.25C8.65011 11.25 11 8.9001 11 6Z" fill="#4A413C"/>
<path d="M60.5 6C60.5 3.0999 57.8144 0.75 54.5 0.75C51.1856 0.75 48.5 3.0999 48.5 6C48.5 8.9001 51.1856 11.25 54.5 11.25C57.8144 11.25 60.5 8.9001 60.5 6Z" fill="#4A413C"/>
<path d="M26.496 6.75L24.5 9.26407C24.5 9.26407 25.416 11.3497 27.5 11.2463" stroke="#E88F7A" stroke-width="3" stroke-miterlimit="10" stroke-linecap="round" stroke-linejoin="round"/>
</svg>
