<svg width="153" height="350" viewBox="0 0 153 350" fill="none" xmlns="http://www.w3.org/2000/svg">
<g clip-path="url(#clip0_446_5752)">
<path d="M98.2654 42.2727C92.3449 41.5646 88.4718 42.3117 82.78 46.4299C80.8327 47.8392 78.6925 48.172 75.5018 48.172C72.3075 48.172 70.1709 47.8356 68.2236 46.4299C62.5318 42.3117 58.6587 41.561 52.7382 42.2727C43.6413 43.3634 39 45.1657 39 45.1657L39.8004 50.8526C42.9875 51.6528 43.4841 55.4983 43.4841 55.4983C43.8343 58.1186 45.8244 68.8585 58.037 68.8585C65.9119 68.8585 71.9216 63.1008 72.3218 55.3213C72.4647 52.5168 74.262 51.5112 75.4982 51.5006C76.7309 51.5112 78.5317 52.5204 78.6746 55.3213C79.0712 63.1008 85.081 68.8585 92.9595 68.8585C105.176 68.8585 107.166 58.1186 107.512 55.4983C107.512 55.4983 108.009 51.6528 111.196 50.8526L111.996 45.1657C111.996 45.1657 107.355 43.3598 98.2582 42.2727H98.2654ZM58.0405 66.27C52.949 66.27 48.6328 63.207 47.1286 58.9685C47.1286 58.9685 45.8244 56.4933 45.8244 47.0602C45.8244 47.0602 51.5662 43.2678 60.706 45.3534C65.8618 46.529 69.5206 50.6578 69.5206 55.6683C69.5206 61.5251 64.379 66.2735 58.0405 66.2735V66.27ZM103.871 58.972C102.367 63.2106 98.0546 66.2735 92.963 66.2735C86.621 66.2735 81.483 61.5251 81.483 55.6683C81.483 50.6613 85.1417 46.529 90.2976 45.3534C99.4373 43.2713 105.179 47.0602 105.179 47.0602C105.179 56.4933 103.875 58.9685 103.875 58.9685L103.871 58.972Z" fill="#BD5800"/>
<path opacity="0.15" d="M41.1188 46.4228C40.833 46.4617 40.6293 46.7238 40.6686 47.007L40.9509 49.0679C40.9902 49.3512 41.2546 49.553 41.5404 49.5141C41.8263 49.4751 42.0299 49.2131 41.9906 48.9298L41.7083 46.8689C41.669 46.5857 41.4046 46.3838 41.1188 46.4228Z" fill="black"/>
<path d="M41.0295 46.32C40.7436 46.3589 40.54 46.621 40.5793 46.9043L40.8615 48.9651C40.9008 49.2484 41.1652 49.4502 41.4511 49.4113C41.7369 49.3723 41.9406 49.1103 41.9013 48.827L41.619 46.7662C41.5797 46.4829 41.3153 46.281 41.0295 46.32Z" fill="#FF7069"/>
<path opacity="0.15" d="M109.881 46.4228C110.167 46.4617 110.371 46.7238 110.331 47.007L110.049 49.0679C110.01 49.3512 109.745 49.553 109.46 49.5141C109.174 49.4751 108.97 49.2131 109.009 48.9298L109.292 46.8689C109.331 46.5857 109.595 46.3838 109.881 46.4228Z" fill="black"/>
<path d="M109.971 46.32C110.256 46.3589 110.46 46.621 110.421 46.9043L110.138 48.9651C110.099 49.2484 109.835 49.4502 109.549 49.4113C109.263 49.3723 109.059 49.1103 109.099 48.827L109.381 46.7662C109.42 46.4829 109.685 46.281 109.971 46.32Z" fill="#FF7069"/>
<g opacity="0.5">
<mask id="mask0_446_5752" style="mask-type:luminance" maskUnits="userSpaceOnUse" x="81" y="44" width="25" height="23">
<path d="M90.294 45.3533C99.4338 43.2712 105.176 47.0601 105.176 47.0601C105.176 56.4933 103.871 58.9684 103.871 58.9684C102.367 63.207 98.0546 66.2699 92.9631 66.2699C86.621 66.2699 81.483 61.5215 81.483 55.6647C81.483 50.6577 85.1418 46.5254 90.2976 45.3498L90.294 45.3533Z" fill="white"/>
</mask>
<g mask="url(#mask0_446_5752)">
<path opacity="0.71" d="M90.294 45.3533C99.4338 43.2712 105.176 47.0601 105.176 47.0601C105.176 56.4933 103.871 58.9684 103.871 58.9684C102.367 63.207 98.0546 66.2699 92.9631 66.2699C86.621 66.2699 81.483 61.5215 81.483 55.6647C81.483 50.6577 85.1418 46.5254 90.2976 45.3498L90.294 45.3533Z" fill="#E6E6E6"/>
<g style="mix-blend-mode:screen" opacity="0.3">
<path d="M89.9189 69H84.6487L93.7884 42H99.0586L89.9189 69Z" fill="url(#paint0_linear_446_5752)"/>
<path d="M92.8666 69H91.1694L100.309 42H102.006L92.8666 69Z" fill="url(#paint1_linear_446_5752)"/>
</g>
</g>
</g>
<g opacity="0.5">
<mask id="mask1_446_5752" style="mask-type:luminance" maskUnits="userSpaceOnUse" x="45" y="44" width="25" height="23">
<path d="M60.706 45.3533C51.5662 43.2712 45.8244 47.0601 45.8244 47.0601C45.8244 56.4933 47.1286 58.9684 47.1286 58.9684C48.6328 63.207 52.9454 66.2699 58.0405 66.2699C64.3826 66.2699 69.5206 61.5215 69.5206 55.6647C69.5206 50.6577 65.8618 46.5254 60.706 45.3498V45.3533Z" fill="white"/>
</mask>
<g mask="url(#mask1_446_5752)">
<path opacity="0.71" d="M60.706 45.3533C51.5662 43.2712 45.8244 47.0601 45.8244 47.0601C45.8244 56.4933 47.1286 58.9684 47.1286 58.9684C48.6328 63.207 52.9454 66.2699 58.0405 66.2699C64.3826 66.2699 69.5206 61.5215 69.5206 55.6647C69.5206 50.6577 65.8618 46.5254 60.706 45.3498V45.3533Z" fill="#E6E6E6"/>
<g style="mix-blend-mode:screen" opacity="0.3">
<path d="M54.639 69H49.3689L58.5086 42H63.7788L54.639 69Z" fill="url(#paint2_linear_446_5752)"/>
<path d="M57.5867 69H55.8896L65.0293 42H66.7265L57.5867 69Z" fill="url(#paint3_linear_446_5752)"/>
</g>
</g>
</g>
</g>
<defs>
<linearGradient id="paint0_linear_446_5752" x1="91.8554" y1="35.2013" x2="91.8554" y2="82.8452" gradientUnits="userSpaceOnUse">
<stop stop-color="white"/>
<stop offset="1"/>
</linearGradient>
<linearGradient id="paint1_linear_446_5752" x1="96.5896" y1="42" x2="96.5896" y2="42" gradientUnits="userSpaceOnUse">
<stop stop-color="white"/>
<stop offset="1"/>
</linearGradient>
<linearGradient id="paint2_linear_446_5752" x1="56.572" y1="42" x2="56.572" y2="42" gradientUnits="userSpaceOnUse">
<stop stop-color="white"/>
<stop offset="1"/>
</linearGradient>
<linearGradient id="paint3_linear_446_5752" x1="61.3062" y1="42" x2="61.3062" y2="42" gradientUnits="userSpaceOnUse">
<stop stop-color="white"/>
<stop offset="1"/>
</linearGradient>
<clipPath id="clip0_446_5752">
<rect width="73" height="27" fill="white" transform="translate(39 42)"/>
</clipPath>
</defs>
</svg>
