<svg width="153" height="350" viewBox="0 0 153 350" fill="none" xmlns="http://www.w3.org/2000/svg">
<path d="M112.995 55.3C113.448 51.4021 112.837 49.041 111.592 44.8L41.3858 44.6868C40.3254 47.0056 39.1768 48.4411 38.8889 51.8706C38.6009 55.3 39.3028 57.3999 39.3028 57.3999C75.0742 72.5174 112.995 55.3 112.995 55.3Z" fill="#DD2D54"/>
<path d="M60.0291 57.9431C61.6721 56.7304 62.0184 54.4188 60.8024 52.7801C59.5865 51.1413 57.2689 50.796 55.6259 52.0087C53.9828 53.2215 53.6366 55.5331 54.8525 57.1718C56.0684 58.8105 58.386 59.1559 60.0291 57.9431Z" fill="white"/>
<path d="M96.6466 57.2974C98.2897 56.0846 98.6359 53.7731 97.42 52.1343C96.2041 50.4956 93.8864 50.1502 92.2434 51.363C90.6004 52.5757 90.2541 54.8873 91.47 56.526C92.686 58.1648 95.0036 58.5101 96.6466 57.2974Z" fill="white"/>
<path d="M49.6474 47.846C50.2963 50.7338 64.4946 47.2408 63.66 44.7374C62.8242 42.2326 48.9063 44.548 49.6474 47.846Z" fill="#1F1F1F"/>
<path d="M88.6249 45.1695C88.4243 48.1225 103.033 48.7934 102.945 46.1558C102.859 43.5197 88.8541 41.7976 88.6249 45.1695Z" fill="#1F1F1F"/>
<path d="M74.8175 56L72.9908 57.8831C72.9908 57.8831 73.8291 59.4453 75.7363 59.3679" stroke="#DE7651" stroke-width="2" stroke-miterlimit="10" stroke-linecap="round" stroke-linejoin="round"/>
</svg>
