<svg width="153" height="350" viewBox="0 0 153 350" fill="none" xmlns="http://www.w3.org/2000/svg">
<g clip-path="url(#clip0_446_5820)">
<path d="M71.9857 48.2845C70.8872 45.5763 68.6936 43.8806 67.0076 43.3986C66.0689 43.1316 65.1408 42.9963 64.2543 42.9963C61.3202 42.9963 59.2101 44.4562 57.8195 46.0548C56.4324 44.4632 54.3188 42.9998 51.3813 42.9998C50.4948 42.9998 49.5701 43.135 48.628 43.4021C46.9419 43.8806 44.7484 45.5763 43.6498 48.2845C42.8746 50.1952 42.4018 53.2467 44.5467 56.9363C47.1783 61.472 55.6259 67.7658 56.5785 68.4697C56.9469 68.7402 57.3815 68.8755 57.816 68.8755C58.2506 68.8755 58.6886 68.7402 59.0571 68.4697C60.0096 67.7658 68.4572 61.472 71.0888 56.9363C73.2337 53.2467 72.7575 50.1952 71.9857 48.2845ZM69.2881 55.896C66.7851 60.2063 57.8299 66.7914 57.8195 66.7983C57.8195 66.7983 48.854 60.2063 46.351 55.896C43.0449 50.2021 47.0358 46.0167 49.1981 45.4029C55.6085 43.5824 57.8126 50.0565 57.816 50.0704C57.8195 50.0565 60.0235 43.5824 66.4374 45.4029C68.5997 46.0167 72.5906 50.2021 69.2846 55.896H69.2881Z" fill="#FA413A"/>
<path opacity="0.6" d="M66.4377 45.4036C60.0273 43.5831 57.8232 50.0572 57.8163 50.071C57.8128 50.0572 55.6088 43.5831 49.1984 45.4036C47.0361 46.0173 43.0452 50.2028 46.3512 55.8967C48.8542 60.207 57.8093 66.7921 57.8198 66.799C57.8198 66.799 66.7853 60.207 69.2883 55.8967C72.5944 50.2028 68.6035 46.0173 66.4412 45.4036H66.4377Z" fill="#FA413A"/>
<path opacity="0.2" d="M54.5937 45.9858L45.8576 54.9359C46.0001 55.2514 46.1635 55.5704 46.3512 55.8964C46.6085 56.3403 46.9353 56.8049 47.3142 57.2869L56.0225 47.1683C55.6227 46.7383 55.1464 46.3291 54.5937 45.9858Z" fill="white"/>
<path opacity="0.2" d="M53.3283 63.2235L70.0879 49.1622C69.2848 47.092 67.5988 45.7292 66.4342 45.3998C64.5292 44.8588 62.9996 45.053 61.7863 45.5905L58.2647 49.072C57.9553 49.6546 57.8163 50.0673 57.8128 50.0707C57.8128 50.0707 57.7607 49.9181 57.6529 49.6754L48.5205 58.7052C49.9493 60.2587 51.7118 61.8573 53.3248 63.2235H53.3283Z" fill="white"/>
<path d="M106.346 48.2848C105.248 45.5765 103.054 43.8808 101.368 43.3988C100.43 43.1318 99.5015 42.9966 98.615 42.9966C95.6809 42.9966 93.5708 44.4565 92.1768 46.0551C90.7897 44.4599 88.676 42.9966 85.7385 42.9966C84.852 42.9966 83.9273 43.1318 82.9852 43.3988C81.2992 43.8774 79.1056 45.573 78.0071 48.2848C77.2318 50.1954 76.759 53.247 78.904 56.9366C81.5391 61.4722 89.9832 67.766 90.9357 68.47C91.3042 68.7405 91.7387 68.8757 92.1733 68.8757C92.6078 68.8757 93.0458 68.7405 93.4143 68.47C94.3669 67.766 102.814 61.4722 105.446 56.9366C107.591 53.247 107.118 50.1954 106.343 48.2848H106.346ZM103.649 55.8963C101.146 60.2066 92.1907 66.7916 92.1802 66.7986C92.1802 66.7986 83.2147 60.2066 80.7117 55.8963C77.4057 50.2024 81.3965 46.0169 83.5588 45.4031C89.9693 43.5826 92.1733 50.0567 92.1768 50.0706C92.1802 50.0567 94.3842 43.5826 100.798 45.4031C102.96 46.0169 106.951 50.2024 103.645 55.8963H103.649Z" fill="#FA413A"/>
<path opacity="0.6" d="M100.798 45.4033C94.3843 43.5828 92.1837 50.0569 92.1768 50.0708C92.1733 50.0569 89.9693 43.5828 83.5588 45.4033C81.3965 46.0171 77.4057 50.2026 80.7117 55.8965C83.2147 60.2067 92.1698 66.7918 92.1802 66.7988C92.1802 66.7988 101.146 60.2067 103.649 55.8965C106.955 50.2026 102.964 46.0171 100.802 45.4033H100.798Z" fill="#FA413A"/>
<path opacity="0.2" d="M88.9542 45.9822L80.218 54.9322C80.3606 55.2478 80.524 55.5668 80.7117 55.8927C80.9689 56.3366 81.2957 56.8013 81.6746 57.2833L90.3829 47.1646C89.9832 46.7347 89.5104 46.3255 88.9542 45.9822Z" fill="white"/>
<path opacity="0.2" d="M87.6888 63.2233L104.448 49.162C103.645 47.0918 101.959 45.729 100.795 45.3995C98.8896 44.8586 97.36 45.0528 96.1468 45.5903L92.6252 49.0718C92.3158 49.6544 92.1733 50.067 92.1733 50.0705C92.1733 50.0705 92.1211 49.9179 92.0134 49.6752L82.8809 58.7049C84.3097 60.2585 86.0722 61.857 87.6853 63.2233H87.6888Z" fill="white"/>
<path d="M79.1612 49.3008H71.6001V51.2219H79.1612V49.3008Z" fill="#FA413A"/>
<path d="M79.4498 47.085H70.4147V48.2293H79.4498V47.085Z" fill="#FA413A"/>
</g>
<defs>
<clipPath id="clip0_446_5820">
<rect width="64" height="29" fill="white" transform="translate(43 43)"/>
</clipPath>
</defs>
</svg>
