<svg width="153" height="350" viewBox="0 0 153 350" fill="none" xmlns="http://www.w3.org/2000/svg">
<g clip-path="url(#clip0_446_5940)">
<path opacity="0.3" d="M92.3844 46.6801C95.1979 46.5586 100.987 46.2227 103.554 48.2809C106.121 50.339 104.494 59.2255 101.276 61.9697C98.0578 64.7139 90.6153 64.6817 86.603 62.788C82.5907 60.8942 80.9296 53.5406 81.87 50.8607C82.8104 48.1808 84.0746 47.0374 92.3882 46.6801H92.3844Z" fill="#89D3EA"/>
<path opacity="0.3" d="M59.7428 46.6801C56.9254 46.5586 51.1402 46.2227 48.5771 48.2809C46.014 50.339 47.6367 59.2255 50.8549 61.9697C54.0732 64.7139 61.5158 64.6817 65.528 62.788C69.5403 60.8942 71.2015 53.5406 70.261 50.8607C69.3206 48.1808 68.0564 47.0374 59.7428 46.6801Z" fill="#89D3EA"/>
<path d="M108.229 45.4794C104.81 44.6861 95.4712 43.8679 92.0487 44.0179C84.4597 44.3538 81.7001 45.2435 80.3125 47.0766C79.7305 47.316 78.2968 47.7805 75.9649 47.7805C73.3865 47.7805 71.8756 47.1945 71.4478 47.0015C69.987 45.3614 67.131 44.5503 59.9506 44.2323C56.528 44.0823 47.1892 44.9005 43.7705 45.6938C42.7106 45.9403 42.857 48.7345 43.5238 49.0132C44.6955 49.5028 44.7919 52.1004 45.131 54.4587C45.609 57.7746 47.5284 61.8945 49.1356 63.3023C53.0476 66.7254 62.1012 66.6825 66.9807 64.3207C70.8581 62.4412 72.9317 56.2632 73.0434 52.129C73.6216 51.6609 74.5504 51.2 75.9611 51.2C77.4604 51.2 78.397 51.6788 78.9558 52.154C79.1408 56.2846 81.2067 62.2625 85.0108 64.1027C89.8903 66.4646 98.9439 66.5075 102.856 63.0844C104.463 61.6801 106.383 57.5567 106.861 54.2408C107.2 51.8825 107.296 49.2848 108.468 48.7953C109.138 48.5166 109.281 45.7188 108.221 45.4758L108.229 45.4794ZM65.5238 62.7878C61.5115 64.6816 54.069 64.7173 50.8507 61.9695C47.6324 59.2253 46.0059 50.3389 48.5729 48.2807C51.1398 46.2226 56.925 46.5585 59.7386 46.6799C68.0522 47.0408 69.3164 48.1843 70.2568 50.8606C71.1972 53.5404 69.5361 60.8904 65.5238 62.7878ZM101.276 61.9695C98.0574 64.7137 90.6149 64.6816 86.6026 62.7878C82.5904 60.894 80.9292 53.5404 81.8696 50.8606C82.8101 48.1807 84.0743 47.0373 92.3879 46.6799C95.2015 46.5585 100.991 46.2226 103.557 48.2807C106.124 50.3389 104.498 59.2253 101.28 61.9695H101.276Z" fill="#404040"/>
<path opacity="0.2" d="M54.5743 58.3819C54.5743 53.7046 57.7502 49.7169 62.2095 48.1698C61.4811 48.1054 60.664 48.0554 59.7467 48.0161C57.2992 47.9089 52.2733 47.6195 50.0417 49.4061C47.8139 51.1962 49.2246 58.9179 52.0189 61.3012C52.9131 62.0658 54.185 62.5804 55.6149 62.8734C54.9443 61.5013 54.5704 59.9827 54.5704 58.3783L54.5743 58.3819Z" fill="white"/>
<path opacity="0.2" d="M89.166 58.4964C89.166 53.5476 92.685 49.3598 97.5336 47.9699C95.8917 47.8913 94.2845 47.977 93.1937 48.0235C85.8977 48.3379 84.7838 49.342 83.959 51.6967C83.1342 54.0478 84.5949 60.5046 88.1138 62.1661C88.7112 62.4484 89.3973 62.6842 90.1373 62.8664C89.5129 61.5265 89.1622 60.0508 89.1622 58.4964H89.166Z" fill="white"/>
</g>
<defs>
<clipPath id="clip0_446_5940">
<rect width="66" height="22" fill="white" transform="translate(43 44)"/>
</clipPath>
</defs>
</svg>
