<svg width="154" height="350" viewBox="0 0 154 350" fill="none" xmlns="http://www.w3.org/2000/svg">
<path d="M36.2736 51.416L37.6917 57.7059C37.6917 57.7059 38.2614 64.8087 49.5238 64.2415C60.7862 63.6743 64.7966 54.7981 77.7837 54.9104C84.2381 54.9663 84.6789 56.3082 94.6065 61.8992C104.534 67.4903 109.124 64.275 110.731 61.8992C113.568 57.7059 117.822 25.8586 109.313 0.69888C109.313 0.69888 101.918 4.32245 98.676 9.42018C98.676 9.42018 80.323 7.15492 54.2347 9.42018C54.2347 9.42018 49.522 2.71831 45.6146 0C45.6146 0 30.6213 19.9235 36.2736 51.416Z" fill="black"/>
<path d="M54.7188 51.3112C56.947 51.3112 58.7534 49.5309 58.7534 47.3348C58.7534 45.1387 56.947 43.3584 54.7188 43.3584C52.4905 43.3584 50.6841 45.1387 50.6841 47.3348C50.6841 49.5309 52.4905 51.3112 54.7188 51.3112Z" fill="#F6F8F7"/>
<path d="M98.7551 51.2146C100.983 51.2146 102.79 49.4343 102.79 47.2381C102.79 45.042 100.983 43.2617 98.7551 43.2617C96.5268 43.2617 94.7205 45.042 94.7205 47.2381C94.7205 49.4343 96.5268 51.2146 98.7551 51.2146Z" fill="#F6F8F7"/>
<path d="M49.4351 36.1414C48.8853 38.365 62.9757 41.819 63.2074 39.7821C63.4391 37.7416 50.0621 33.6025 49.4351 36.1414Z" fill="#F6F8F7"/>
<path d="M90.5717 37.828C91.1583 40.0425 105.225 36.5015 104.449 34.5987C103.671 32.6959 89.9024 35.3 90.5717 37.828Z" fill="#F6F8F7"/>
</svg>
