<svg width="153" height="350" viewBox="0 0 153 350" fill="none" xmlns="http://www.w3.org/2000/svg">
<path d="M46.3622 48.9484C46.3622 48.9484 65.1108 49.1208 68.3452 45.8648C72.0616 42.1219 60.7721 38.2878 60.1761 37.8212C58.8525 36.7663 40.358 41.1989 39.6919 39.4644C37.6408 34.1189 34.9061 25 33.0479 25C31.1897 25 30.8742 51.6262 39.1134 58.6251C45.6171 64.1533 53.3217 66.2529 53.3217 66.2529L46.3534 48.9383L46.3622 48.9484Z" fill="#FFDA44"/>
<path opacity="0.32" d="M63.6296 47.7007C61.4909 46.9501 59.2996 46.4024 56.9418 46.3314C52.4891 46.1995 47.23 46.5951 42.7948 46.1691C38.4999 45.7634 35.6424 44.4751 32.6009 41.7365C33.495 48.5325 35.4671 55.5111 39.131 58.6251C45.6347 64.1532 53.3393 66.2529 53.3393 66.2529L46.371 48.9382C46.371 48.9382 56.9944 49.0295 63.6296 47.6906V47.7007Z" fill="#514700"/>
<path d="M106.64 48.9486C106.64 48.9486 87.8915 49.1211 84.6572 45.8651C80.9408 42.1222 92.2303 38.288 92.8263 37.8214C94.1498 36.7665 112.644 41.1991 113.31 39.4646C115.37 34.1292 118.105 25.0104 119.954 25.0104C121.804 25.0104 122.128 51.6366 113.889 58.6355C107.385 64.1636 99.6807 66.2633 99.6807 66.2633L106.649 48.9486H106.64Z" fill="#FFDA44"/>
<path opacity="0.32" d="M110.558 46.3212C107.315 47.224 105.676 48.218 102.065 48.8875C104.747 48.9686 106.64 48.9483 106.64 48.9483L99.6718 66.263C99.6718 66.263 107.376 64.1633 113.88 58.6352C117.64 55.4401 119.613 48.1775 120.48 41.209C118.596 43.3999 114.012 45.3678 110.558 46.3212Z" fill="#514700"/>
<path d="M85.994 42C85.994 47.5212 81.5152 52 75.994 52C70.4728 52 65.994 47.5212 65.994 42C65.994 36.4788 70.4728 32 75.994 32C81.5152 32 85.994 36.4788 85.994 42Z" fill="#FFF1B2"/>
<path d="M75.9413 36L77.7698 39.9592L81.8763 40.5826L78.8994 43.6597L79.6109 48.0035L75.9413 45.941L72.2717 48.0035L72.9769 43.6597L70 40.5826L74.1127 39.9592L75.9413 36Z" fill="#BFAC34"/>
</svg>
