<svg width="153" height="350" viewBox="0 0 153 350" fill="none" xmlns="http://www.w3.org/2000/svg">
<g clip-path="url(#clip0_446_5996)">
<path d="M67.485 39.7729C67.485 39.7729 63.3679 33.9797 62.1135 32.9117C60.8537 31.8484 59.2347 31.0426 57.5032 30.9997C56.372 30.971 55.1551 31.3239 54.5225 32.1631C53.7452 33.193 54.0883 34.6329 54.8924 35.6438C52.6516 34.528 50.0462 34.0083 47.4838 34.1609C46.0471 34.2467 44.3048 34.857 44.2512 36.1349C44.2137 37.0551 45.1036 37.7703 45.9184 38.3425C44.01 37.9468 41.9514 38.1566 40.1984 38.929C39.6516 39.1674 39.0994 39.5012 38.9065 40.0161C38.6438 40.717 39.1906 41.4942 39.925 41.8423C40.6594 42.1904 41.5225 42.219 42.3535 42.2333C40.4718 42.9151 37.1427 45.4327 38.2095 47.2207C39.2763 49.0088 44.3745 47.7071 49.3976 43.7829C53.8739 40.2831 55.5572 37.0599 67.485 39.7682V39.7729Z" fill="#B0A5A4"/>
<path d="M40.2195 46.5105C40.8306 44.8417 43.8649 42.6865 45.4249 42.0333C44.4224 41.9665 43.3127 42.081 42.2673 42.2765C40.375 43.0012 37.1638 45.4711 38.2146 47.2305C38.5308 47.7645 39.2224 48.0172 40.1552 48.0125C40.0587 47.5166 40.048 47.0016 40.2249 46.5153L40.2195 46.5105Z" fill="#D8D2D2"/>
<path d="M44.6206 39.4158C45.7357 39.4158 47.0115 39.3967 47.939 39.9451C47.419 39.3395 46.6577 38.7912 45.8804 38.343C43.9827 37.952 41.9348 38.1666 40.1926 38.9342C39.6458 39.1726 39.0936 39.5064 38.9006 40.0214C38.8309 40.2073 38.8202 40.4028 38.8577 40.5888C39.2169 40.3694 39.6082 40.1835 40.0049 40.0357C41.4524 39.5112 43.0552 39.4206 44.6206 39.4158Z" fill="#D8D2D2"/>
<path d="M62.1077 32.9121C60.8532 31.8489 59.2343 31.0431 57.5027 31.0001C56.3716 30.9715 55.1547 31.3244 54.5221 32.1636C53.7448 33.1935 54.0879 34.6334 54.892 35.6443C52.6512 34.5285 50.0458 34.0088 47.4834 34.1614C46.1217 34.2424 44.4813 34.8003 44.2722 35.9542C48.0945 35.7301 52.351 35.916 55.4871 37.6564C55.2137 36.3166 55.1172 35.2104 56.0178 34.4904C57.3205 33.4462 59.1753 33.8848 60.5584 34.8385C61.9415 35.7968 62.7027 37.294 63.2388 38.7817C63.2656 38.858 63.2924 38.9295 63.3192 39.0058C64.5576 39.1679 65.9353 39.4206 67.4899 39.7734C67.4899 39.7734 63.3675 33.9802 62.113 32.9121H62.1077Z" fill="#D8D2D2"/>
<path d="M86.5157 39.7734C86.5157 39.7734 90.6328 33.9802 91.8873 32.9121C93.1417 31.8489 94.766 31.0431 96.4976 31.0001C97.6287 30.9715 98.8456 31.3244 99.4782 32.1636C100.256 33.1935 99.9124 34.6334 99.103 35.6443C101.344 34.5285 103.949 34.0088 106.512 34.1614C107.948 34.2472 109.691 34.8575 109.744 36.1354C109.782 37.0556 108.892 37.7708 108.077 38.343C109.985 37.9473 112.044 38.1571 113.797 38.9295C114.344 39.1679 114.896 39.5017 115.089 40.0166C115.352 40.7175 114.805 41.4947 114.07 41.8428C113.336 42.1909 112.473 42.2195 111.642 42.2338C113.524 42.9156 116.853 45.4332 115.786 47.2212C114.719 49.0092 109.621 47.7076 104.598 43.7834C100.122 40.2836 98.4382 37.0604 86.5104 39.7687L86.5157 39.7734Z" fill="#B0A5A4"/>
<path d="M113.781 46.5105C113.17 44.8417 110.135 42.6865 108.581 42.0333C109.583 41.9665 110.693 42.081 111.738 42.2765C113.631 43.0012 116.842 45.4711 115.791 47.2305C115.469 47.7645 114.783 48.0172 113.85 48.0125C113.947 47.5166 113.958 47.0016 113.781 46.5153V46.5105Z" fill="#D8D2D2"/>
<path d="M109.379 39.4158C108.264 39.4158 106.988 39.3967 106.061 39.9451C106.581 39.3395 107.337 38.7912 108.12 38.343C110.017 37.952 112.065 38.1666 113.807 38.9342C114.354 39.1726 114.906 39.5064 115.099 40.0214C115.169 40.2073 115.18 40.4028 115.142 40.5888C114.783 40.3694 114.392 40.1835 113.995 40.0357C112.548 39.5112 110.945 39.4206 109.379 39.4158Z" fill="#D8D2D2"/>
<path d="M91.887 32.9121C93.1415 31.8489 94.7658 31.0431 96.4973 31.0001C97.6285 30.9715 98.8454 31.3244 99.478 32.1636C100.255 33.1935 99.9122 34.6334 99.1027 35.6443C101.344 34.5285 103.949 34.0088 106.511 34.1614C107.873 34.2424 109.513 34.8003 109.722 35.9542C105.9 35.7301 101.644 35.916 98.5076 37.6564C98.781 36.3166 98.8775 35.2104 97.9769 34.4904C96.6742 33.4462 94.8194 33.8848 93.4363 34.8385C92.0532 35.7968 91.292 37.294 90.7559 38.7817C90.7291 38.858 90.7023 38.9295 90.6755 39.0058C89.4371 39.1679 88.0594 39.4206 86.5048 39.7734C86.5048 39.7734 90.6272 33.9802 91.8817 32.9121H91.887Z" fill="#D8D2D2"/>
<path d="M76.5551 39.6779C70.685 39.6779 64.965 39.4777 59.5559 39.0819L59.6899 37.6562C70.4223 38.443 82.4037 38.443 94.3262 37.6562L94.4442 39.0819C88.44 39.4777 82.4252 39.6779 76.5551 39.6779Z" fill="#2A3137"/>
<path d="M59.9097 61.4778C66.9502 61.4778 72.6577 56.4014 72.6577 50.1393C72.6577 43.8772 66.9502 38.8008 59.9097 38.8008C52.8691 38.8008 47.1616 43.8772 47.1616 50.1393C47.1616 56.4014 52.8691 61.4778 59.9097 61.4778Z" fill="#5B344C"/>
<path d="M94.085 61.4778C101.126 61.4778 106.833 56.4014 106.833 50.1393C106.833 43.8772 101.126 38.8008 94.085 38.8008C87.0444 38.8008 81.3369 43.8772 81.3369 50.1393C81.3369 56.4014 87.0444 61.4778 94.085 61.4778Z" fill="#5B344C"/>
<path d="M49.3489 56.4906C51.6433 59.4992 55.5138 61.478 59.9097 61.478C66.5142 61.478 71.9448 57.0103 72.5934 51.2886C66.3588 51.9561 60.1885 53.0289 54.2433 54.8027C52.5922 55.2938 50.9464 55.8516 49.3489 56.4953V56.4906Z" fill="#40132F"/>
<path d="M99.4833 49.0616C93.5221 50.1011 87.4161 50.2298 81.3477 50.5827C81.6103 56.6382 87.207 61.4778 94.0796 61.4778C100.952 61.4778 106.828 56.3997 106.828 50.1392C106.828 49.1665 106.688 48.2225 106.431 47.3213C104.179 48.0794 101.837 48.6468 99.4833 49.0616Z" fill="#40132F"/>
<path d="M58.8858 42.4626C56.393 42.7392 54.0557 43.9407 52.4796 45.6858C51.2306 47.0686 50.4372 48.8519 50.673 50.6113C50.7695 51.3456 51.2145 52.1848 52.0454 52.242C52.7102 52.2849 53.2462 51.7985 53.6751 51.3503C55.2405 49.7053 56.7576 48.0031 58.5803 46.5822C60.4029 45.1614 63.5015 44.6369 65.9031 44.3412C64.0108 42.8679 61.384 42.1908 58.8912 42.4674L58.8858 42.4626Z" fill="#6F4D62"/>
<path d="M93.1789 42.4626C90.6861 42.7392 88.3488 43.9407 86.7727 45.6858C85.5237 47.0686 84.7303 48.8519 84.9661 50.6113C85.0626 51.3456 85.5076 52.1848 86.3385 52.242C87.0032 52.2849 87.5393 51.7985 87.9682 51.3503C89.5336 49.7053 91.0507 48.0031 92.8733 46.5822C94.696 45.1614 97.7946 44.6369 100.196 44.3412C98.3039 42.8679 95.6771 42.1908 93.1843 42.4674L93.1789 42.4626Z" fill="#6F4D62"/>
<path d="M102.362 46.8251C102.223 47.2065 100.362 46.9872 98.1324 47.1303C95.9023 47.2447 94.0849 47.6786 93.8919 47.3162C93.8062 47.1446 94.1761 46.7917 94.9105 46.4532C95.6449 46.1099 96.76 45.8 98.0251 45.7284C99.2957 45.6569 100.443 45.8333 101.22 46.086C102.003 46.3388 102.421 46.6439 102.357 46.8251H102.362Z" fill="#6F4D62"/>
<path d="M59.9097 37.2651C52.0346 37.2651 45.4354 43.1299 45.4354 50.139C45.4354 57.1481 52.0346 63.0129 59.9097 63.0129C67.7847 63.0129 74.1373 57.1386 74.3839 50.139C74.1373 43.1394 67.9723 37.2651 59.9097 37.2651ZM59.9097 59.9422C53.9055 59.9422 48.8878 55.484 48.8878 50.139C48.8878 44.794 53.6589 40.5408 59.5022 40.3501C65.8066 40.1451 70.7332 44.6652 70.9261 50.139C70.7385 55.4793 66.0585 59.9422 59.9043 59.9422H59.9097Z" fill="#2A3137"/>
<path d="M71.6713 48.0505C71.4783 42.5767 66.5517 38.0566 60.2474 38.2616C55.0903 38.4285 50.7802 41.8615 49.8313 46.2434C51.4985 42.9057 55.2082 40.4883 59.5076 40.35C65.8119 40.145 70.7385 44.6651 70.9315 50.1389C70.9101 50.7445 70.8243 51.3405 70.6903 51.9222C71.28 50.7302 71.6231 49.4189 71.6713 48.0505Z" fill="#10181F"/>
<path d="M60.6548 60.9242C52.7798 60.9242 46.1806 55.0594 46.1806 48.0503C46.1806 47.1206 46.2985 46.2098 46.5183 45.3325C45.8268 46.8249 45.4354 48.4461 45.4354 50.1388C45.4354 57.1431 52.0346 63.0126 59.9097 63.0126C66.9323 63.0126 72.5183 58.5545 73.9979 52.7803C71.8428 57.5102 66.7983 60.9242 60.6494 60.9242H60.6548Z" fill="#10181F"/>
<path d="M94.0849 37.2651C101.96 37.2651 108.559 43.1299 108.559 50.139C108.559 57.1481 101.965 63.0129 94.0849 63.0129C86.2045 63.0129 79.8573 57.1386 79.6107 50.139C79.8573 43.1394 86.0223 37.2651 94.0849 37.2651ZM94.0849 59.9422C100.089 59.9422 105.107 55.484 105.107 50.139C105.107 44.794 100.336 40.5408 94.4924 40.3501C88.188 40.1451 83.2614 44.6652 83.0684 50.139C83.2561 55.4793 87.9361 59.9422 94.0903 59.9422H94.0849Z" fill="#2A3137"/>
<path d="M82.3234 48.0505C82.5164 42.5767 87.4429 38.0566 93.7473 38.2616C98.9044 38.4285 103.214 41.8615 104.163 46.2434C102.496 42.9057 98.7865 40.4883 94.4871 40.35C88.1827 40.145 83.2561 44.6651 83.0632 50.1389C83.0846 50.7445 83.1704 51.3405 83.3044 51.9222C82.7147 50.7302 82.3663 49.4189 82.3234 48.0505Z" fill="#10181F"/>
<path d="M93.3452 60.9242C101.22 60.9242 107.819 55.0594 107.819 48.0503C107.819 47.1206 107.701 46.2098 107.482 45.3325C108.173 46.8249 108.565 48.4461 108.565 50.1388C108.565 57.1431 101.965 63.0126 94.0903 63.0126C87.0676 63.0126 81.4817 58.5545 80.0021 52.7803C82.1571 57.5102 87.2017 60.9242 93.3505 60.9242H93.3452Z" fill="#10181F"/>
<path d="M85.2289 58.7645C84.7625 56.943 81.7497 54.6782 81.7497 54.6782C81.7497 54.6782 81.8462 51.6743 81.7872 49.1854C81.739 47.0779 81.546 44.7796 79.9324 43.2348C78.7852 42.1333 75.2095 42.1333 74.0569 43.2348C72.4433 44.7796 72.2503 47.0779 72.2021 49.1854C72.1431 51.6791 72.1753 54.6782 72.1753 54.6782C72.1753 54.6782 69.2268 56.9478 68.7604 58.7645C68.294 60.5859 71.4355 61.406 72.7167 61.139C73.092 61.816 74.4697 63.9998 77.1716 63.9998C79.8734 63.9998 80.9188 61.7779 81.2726 61.139C82.5538 61.4012 85.6953 60.5859 85.2289 58.7645Z" fill="#FDB07B"/>
<path d="M74.4107 60.772C73.6388 60.9102 72.7274 61.1391 72.7274 61.1391C73.1027 61.8162 74.4804 64 77.1823 64C77.9167 64 78.5225 63.8331 79.0317 63.5804C78.4742 63.5232 77.9328 63.3992 77.4128 63.2085C76.1369 62.7364 75.0594 61.8591 74.4107 60.772Z" fill="#FF954D"/>
<path d="M75.8479 55.5176C75.3975 52.6425 75.3011 49.7244 75.553 46.8349C75.6602 45.5809 75.8479 44.2983 76.5126 43.1921C76.6788 42.9155 76.8771 42.6485 77.113 42.4101C75.8961 42.391 74.6578 42.6628 74.0681 43.235C72.4545 44.7799 72.2615 47.0781 72.2132 49.1856C72.1543 51.6793 72.1864 54.6784 72.1864 54.6784C72.1864 54.6784 69.238 56.948 68.7716 58.7647C68.6054 59.4179 68.9056 59.9376 69.4149 60.3334C69.4738 59.6897 69.6561 59.0508 69.9778 58.4691C71.0338 56.5618 73.473 55.3364 75.8532 55.5224L75.8479 55.5176Z" fill="#FF954D"/>
<path d="M79.4606 54.2158C79.0532 54.1252 79.3481 51.9414 79.2194 49.2856C79.1926 48.6229 79.1444 47.9839 79.0908 47.4118C79.0371 46.8491 78.9567 46.3628 78.8388 45.9766C78.6244 45.1994 78.2116 44.8131 78.3242 44.651C78.3778 44.5795 78.5761 44.5843 78.8656 44.7225C79.1497 44.8656 79.5143 45.1612 79.7984 45.6094C80.0879 46.0528 80.3023 46.6203 80.4363 47.2401C80.5703 47.8504 80.6668 48.5227 80.6936 49.2332C80.758 50.6588 80.5543 51.9462 80.2701 52.8426C79.9914 53.7438 79.6536 54.254 79.4606 54.2158Z" fill="#FFE5D3"/>
<path d="M79.6108 61.921C79.4339 61.8209 79.45 61.5109 79.4768 61.0913C79.4982 60.6718 79.525 60.133 79.4231 59.556C79.332 58.9791 79.1337 58.4737 78.9782 58.0922C78.8388 57.7251 78.6834 57.501 78.753 57.3293C78.7959 57.2483 78.9139 57.1958 79.1122 57.2197C79.3052 57.2387 79.5625 57.3436 79.8038 57.5248C80.2755 57.8729 80.758 58.5404 80.8813 59.3701C81.0207 60.1949 80.7794 60.9483 80.4578 61.3965C80.1308 61.8542 79.7716 62.0164 79.6108 61.921Z" fill="#FFE5D3"/>
</g>
<defs>
<clipPath id="clip0_446_5996">
<rect width="78" height="33" fill="white" transform="translate(38 31)"/>
</clipPath>
</defs>
</svg>
