<svg width="153" height="350" viewBox="0 0 153 350" fill="none" xmlns="http://www.w3.org/2000/svg">
<path d="M142.429 148.437C134.46 141.395 109.135 120.843 101.025 117.106C92.9155 113.369 84.8056 111.644 75.9838 111.573C56.2383 111.413 19.7471 131.299 11.9582 136.58C4.16926 141.861 2.46021 148.868 9.18375 154.257C15.9073 159.647 37.676 175.492 46.532 179.48L36.9282 334.263L20.9218 350C20.9218 350 55.709 349.784 55.2822 350C54.8553 350.216 67.6604 218.714 67.6604 218.714L74.9167 219.361L88.7889 350H126.636L108.423 337.281L97.6107 186.378C97.6107 186.378 128.628 176.605 138.729 168.844C148.831 161.083 150.395 155.478 142.429 148.437ZM44.5054 165.143C44.1844 165.143 27.9646 152.424 20.9218 148.004L46.6395 134.314L47.2798 163.848C47.2798 163.848 44.8246 165.143 44.5054 165.143ZM105.15 169.275L101.594 166.976L102.823 136.38L131.31 158.353C124.604 160.078 105.15 169.275 105.15 169.275Z" fill="#C8C7BF"/>
<path d="M75.3176 116.229C73.0046 116.229 71.1265 115.035 71.1265 113.56V102.133C71.1265 100.66 73.0019 99.4644 75.3176 99.4644C77.6306 99.4644 79.5087 100.658 79.5087 102.133V113.56C79.5087 115.035 77.6333 116.229 75.3176 116.229Z" fill="#C8C7BF"/>
<path d="M45.6912 258.727C45.6912 258.727 43.2642 262.58 47.8425 264.315" stroke="#585858" stroke-width="1.07359" stroke-miterlimit="10" stroke-linecap="round" stroke-linejoin="round"/>
<path d="M113.585 70.7811C112.428 70.7811 111.317 70.975 110.274 71.3214C109.445 52.78 94.4114 37.9946 75.9339 37.9946C57.1287 37.9946 41.8716 53.3029 41.5457 72.305C39.9551 71.3439 38.1051 70.7811 36.1186 70.7811C30.2496 70.7811 25.4899 75.6091 25.4899 81.5662C25.4899 87.5215 30.2479 92.3512 36.1186 92.3512C39.7145 92.3512 42.887 90.5347 44.8104 87.7605C50.3125 99.6192 62.1615 107.847 75.9339 107.847C89.0731 107.847 100.484 100.373 106.284 89.39C108.189 91.2204 110.754 92.3512 113.585 92.3512C119.454 92.3512 124.214 87.5232 124.214 81.5662C124.214 75.6091 119.454 70.7811 113.585 70.7811Z" fill="#C8C7BF"/>
<path d="M64.607 75.7148C64.607 73.9141 63.1479 72.4551 61.3472 72.4551C59.5465 72.4551 58.0875 73.9141 58.0875 75.7148C58.0875 77.5155 59.5465 78.9746 61.3472 78.9746C63.1479 78.9746 64.607 77.5155 64.607 75.7148Z" fill="#4A413C"/>
<path d="M95.3419 75.7148C95.3419 73.9141 93.6744 72.4551 91.6164 72.4551C89.5585 72.4551 87.891 73.9141 87.891 75.7148C87.891 77.5155 89.5585 78.9746 91.6164 78.9746C93.6744 78.9746 95.3419 77.5155 95.3419 75.7148Z" fill="#4A413C"/>
<path d="M74.2285 76.1802L72.9892 77.7412C72.9892 77.7412 73.5579 79.0362 74.8519 78.9719" stroke="#585858" stroke-width="3" stroke-miterlimit="10" stroke-linecap="round" stroke-linejoin="round"/>
<path d="M75.7833 87.3558C75.7833 87.3558 81.7356 87.5171 86.0283 83.6313" stroke="#585858" stroke-width="3" stroke-miterlimit="10" stroke-linecap="round" stroke-linejoin="round"/>
<path d="M97.2046 259.658C97.2046 259.658 101.396 261.987 97.2046 264.315" stroke="#585858" stroke-width="1.07359" stroke-miterlimit="10" stroke-linecap="round" stroke-linejoin="round"/>
<path fill-rule="evenodd" clip-rule="evenodd" d="M90.4084 35.1433C91.6086 39.9615 103.383 46.0298 111.79 46.8097C113.285 35.0204 108 23.6638 98.5265 16.5967C94.9092 18.712 92.8644 23.0282 91.9031 25.6884C90.4917 29.5665 88.7859 31.0355 90.4084 35.1433Z" fill="#787771"/>
<path fill-rule="evenodd" clip-rule="evenodd" d="M77.1784 43.6739C96.4095 48.1876 109.19 65.2919 107.173 83.8225C113.418 79.5277 117.085 67.8667 116.741 60.6019C116.435 54.1704 114.591 49.913 111.79 46.8095C106.661 41.1365 98.3377 39.331 90.4085 35.1431C81.6792 37.1943 77.4507 40.2498 77.1784 43.6739Z" fill="#787771"/>
<path fill-rule="evenodd" clip-rule="evenodd" d="M47.1843 83.8225C45.1673 65.292 57.9473 48.1877 77.1785 43.6739C82.3349 41.8844 86.8635 38.925 90.4086 35.1431C93.2202 32.141 95.415 28.6208 96.8264 24.7427C97.7932 22.0825 98.3544 19.3422 98.5266 16.5965C98.8434 11.5379 97.821 6.45251 95.5261 1.81586C95.0927 0.945156 94.3481 0.357563 93.3646 0.111842C92.3756 -0.133879 91.4198 0.0263741 90.5864 0.581917C84.013 4.95147 76.7117 8.28473 68.977 10.4375C51.6295 14.7002 40.4832 30.3302 42.5724 46.8095C39.7719 49.913 37.9272 54.1704 37.6215 60.6019C37.2659 67.8667 40.9332 79.5277 47.1843 83.8225Z" fill="#787771"/>
<path d="M71.3332 29.4362L71.4804 29.414C71.9644 29.3408 72.4468 29.2522 72.9279 29.143C75.2256 28.618 77.36 27.6567 79.2179 26.3431L79.2181 26.343C81.0704 25.0347 82.645 23.375 83.8251 21.4428L83.8255 21.4421C84.0379 21.0957 83.9259 20.6378 83.5386 20.4184C83.1458 20.1959 82.6453 20.3296 82.4223 20.6932C81.352 22.4412 79.9263 23.9437 78.2445 25.1301C76.5625 26.3166 74.63 27.1816 72.5451 27.6607L72.5448 27.6607C70.4541 28.1398 68.3118 28.2059 66.2435 27.881C64.1697 27.5561 62.1687 26.8399 60.3613 25.7477C59.9727 25.5137 59.4639 25.634 59.2328 25.9883C59.0078 26.3332 59.1088 26.7971 59.4834 27.023L59.4839 27.0232C61.477 28.2279 63.6878 29.0182 65.9761 29.377L65.9777 29.3773C66.4293 29.4496 66.8882 29.5016 67.3494 29.5381L68.6963 29.6447L67.6045 30.4406C63.5057 33.4284 59.0245 35.3234 54.8356 37.0889C54.8355 37.089 54.8354 37.089 54.8353 37.089L54.7427 37.1284C50.2482 39.0406 46.1018 40.8046 42.8265 43.5496C42.8419 44.2569 42.8808 44.9676 42.9459 45.6791C46.2792 42.3772 50.7847 40.4764 55.4789 38.4959L55.5021 38.4861L71.3332 29.4362ZM71.3332 29.4362L71.2222 29.5353M71.3332 29.4362L71.2222 29.5353M71.2222 29.5353C66.3252 33.906 60.7774 36.2553 55.5025 38.4859L71.2222 29.5353Z" fill="#5F5F59" stroke="#5F5F59"/>
<path d="M92 33.5C97.5 35.3333 101 46.5 110.5 46.5" stroke="#5F5F59" stroke-width="3" stroke-linecap="round"/>
<path d="M119.624 284.376C116.873 292.775 104.746 301.174 95.3252 303.192C91.4811 304.015 87.6148 304.006 83.7541 303.999C81.1673 303.993 78.5295 302.802 76.1376 300.471C73.9944 298.382 72.8517 289.012 72.1691 282.633C68.1964 245.56 66.0795 221.235 61.7448 188.206C59.9056 174.193 52.4812 134.079 57.0011 132.791C59.0752 132.199 74.0222 132.886 77.5111 132.886C81 132.886 90 132.5 94.5 132.5C96.7695 132.5 98.5 132.362 101.513 131.843C103.5 131.5 105.259 131.28 107 131.843C108.741 132.405 110.192 133.729 110.293 137.882C110.367 140.926 109.573 143.659 108.814 146.121C108.814 162.5 109.719 173.765 110.293 188.206C111.331 214.316 114.69 240.348 117.966 265.406C118.64 270.559 120.879 280.55 119.626 284.379L119.624 284.376Z" fill="#787771"/>
<path d="M42.1344 190.675C41.905 202.628 42.3292 214.63 41.9188 226.557C41.2943 244.657 38.246 270.078 39.1746 276.522C39.853 281.23 43.4001 283.27 45.394 284.853C53.9902 291.68 68.6165 298.447 77.677 297.637L66.4637 136.61C59.7122 132.556 54.7709 134.158 47.8053 133.926C45.0044 133.831 43.443 138.948 43.443 142.511C43.443 145.267 44.6921 148.704 46.1872 149.103C46.1872 149.103 42.3638 178.721 42.1344 190.675Z" fill="#787771"/>
<path d="M74.5001 152.5C88.3334 152.167 104.4 149.1 108 143.5C112.5 136.5 102 157.5 96 158.5M57.5001 133.5C55.0001 136.5 53.0001 141.5 57.5001 154C63.2582 169.995 68.5 293 75.5 298" stroke="#5F5F59" stroke-width="3" stroke-linecap="round" stroke-linejoin="round"/>
<path d="M44.5773 166.304V161C44.5773 161 41.8838 163.585 41.5482 163.585C41.3921 163.585 37.2535 160.625 32.5 157L28 168C34.1389 172.186 39.9816 177.179 43.68 178.869C43.68 178.869 49.512 180.937 50.185 179.481C50.8579 178.025 43.0071 174.578 43.0071 174.578C43.0071 174.578 52.2791 177.258 52.5034 174.655C52.7277 172.05 44.5037 170.671 44.5037 170.671C44.5037 170.671 54 170.518 54 168.22C54 165.922 44.5773 166.304 44.5773 166.304Z" fill="#C8C7BF"/>
<path d="M113 166L109 163.5V168C109 168 99.3305 168.262 99.5595 171.339C99.7281 173.612 104.598 173.199 107.135 172.827C104.318 173.345 98.5629 174.593 99.0264 176.109C99.6365 178.109 108.339 177.263 108.339 177.263C108.339 177.263 101 182 102.004 184.419C103.5 186 105.516 184.65 105.516 184.65C105.516 184.65 116.216 179.228 128 174.5L123.093 162C117.809 164.355 113 166 113 166Z" fill="#C8C7BF"/>
</svg>
