<svg width="153" height="350" viewBox="0 0 153 350" fill="none" xmlns="http://www.w3.org/2000/svg">
<path d="M51.5 31C54.5 26.233 61.1 18.6 73.5 19C65.8839 19.8475 54.9772 27 51.5 31Z" fill="#FFE9E3"/>
<path fill-rule="evenodd" clip-rule="evenodd" d="M111.836 125.678L115.212 152.216C110.807 154.201 107.531 155.75 107.531 155.75L103.713 153.282L105.033 120.431L111.836 125.678ZM32.4683 143.896L34.6822 123.549L44.7084 118.212L45.3958 149.923C45.3958 149.923 42.7597 151.314 42.4169 151.314C42.2991 151.314 40.188 149.719 37.1578 147.43C35.7559 146.371 34.1573 145.163 32.4683 143.896ZM30.868 158.604L19.6514 261.692C19.6514 261.692 26.81 263.52 38.4812 265.208L44.5929 166.707C41.2786 165.215 36.2799 162.176 30.868 158.604ZM61.5989 267.551C64.5709 236.639 67.2785 208.833 67.2785 208.833L75.0695 209.528L81.2743 267.96C74.3605 268.085 67.7506 267.911 61.5989 267.551ZM106.032 266.169L99.4361 174.114C99.4361 174.114 107.628 171.533 117.208 167.914L129.138 261.692C121.414 263.725 113.656 265.176 106.032 266.169Z" fill="#4CDADB"/>
<path fill-rule="evenodd" clip-rule="evenodd" d="M71 96.1351C71 97.7181 73.0165 99.0001 75.5 99.0001C77.9864 99.0001 80 97.7181 80 96.1351V94.0122C87.9717 94.5089 95.4565 96.3607 102.941 99.813C107.738 102.026 118.153 109.73 127.96 117.462L118.434 130.173L118.364 130.914L104.869 120.495L103.551 153.325L107.363 155.792C107.363 155.792 111.573 153.799 116.863 151.437L122.595 165.779C110.872 170.488 99.2806 174.143 99.2806 174.143L110.872 336.064L130.396 349.712H89.8233L74.952 209.535L67.1732 208.841C67.1732 208.841 53.6081 348.276 53.8968 349.701C53.1798 349.488 17.0684 349.712 17.0684 349.712L34.2276 332.826L44.5231 166.741C40.8402 165.081 35.0743 161.507 28.9749 157.415L33.9103 145.068C35.0447 145.923 36.1194 146.735 37.0981 147.475L37.0996 147.477C40.125 149.764 42.2329 151.358 42.3505 151.358C42.6927 151.358 45.3247 149.968 45.3247 149.968L44.6384 118.278L33.4742 124.226L24.8025 110.92C38.6084 103.902 57.2304 95.8666 71 94.1913V96.1351ZM53.8968 349.701C53.8985 349.71 53.9007 349.714 53.9034 349.712C53.9107 349.708 53.9084 349.705 53.8968 349.701Z" fill="#008954"/>
<path d="M45.3047 153.662V149.185C45.3047 149.185 42.5333 150.816 42.1881 150.816C42.0274 150.816 33.8615 144.795 28.9705 141L24 153.878C30.0923 158.384 40.3972 165.143 44.3815 166.815C44.3815 166.815 50.3822 168.981 51.0746 167.456C51.767 165.932 43.6891 162.323 43.6891 162.323C43.6891 162.323 53.2293 165.129 53.4601 162.404C53.6909 159.677 45.229 158.233 45.229 158.233C45.229 158.233 55 158.074 55 155.668C55 153.262 45.3047 153.662 45.3047 153.662Z" fill="#C0FFD6"/>
<path d="M101.263 169.767L44.2539 171.682L43.9684 176.259L99.2805 174.725L101.263 169.767Z" fill="#004F50"/>
<path d="M43.964 176.339L43.6749 181.003C51.9845 195.229 67.1742 209.308 67.1742 209.308L74.9531 209.999C85.7062 196.742 99.2816 174.725 99.2816 174.725L43.964 176.339Z" fill="#FAE366"/>
<path d="M107.605 155.527L103.5 152.5L103.407 157.454C103.407 157.454 93.3305 157.535 93.5595 160.745C93.7281 163.117 98.5979 162.686 101.135 162.298C98.3176 162.838 92.5629 164.14 93.0264 165.723C93.6365 167.81 102.339 166.927 102.339 166.927C102.339 166.927 94.1715 173.19 96.0036 174.394C97.8357 175.599 99.5158 174.635 99.5158 174.635C99.5158 174.635 111.216 170.796 123 165.863L117.093 151C111.809 153.457 107.605 155.527 107.605 155.527Z" fill="#C0FFD6"/>
<path d="M53.9032 349.712C53.7733 349.778 58.1368 302.507 59.656 286.3L37.1973 285.6L34.2274 332.884L17.0682 349.714C17.0682 349.714 54.3608 349.481 53.9032 349.712Z" fill="#003920"/>
<path d="M107.381 285.6L82.8165 287L89.8233 349.712H130.396L110.872 336.109L107.381 285.6Z" fill="#003920"/>
<path fill-rule="evenodd" clip-rule="evenodd" d="M71 96.135C71 97.718 73.0165 99 75.5 99C77.9864 99 80 97.718 80 96.135V93.7153C85.0492 94.007 90.0043 94.8994 94.0461 96.461C92.2692 103.34 84.9222 111.699 76.2972 111.699C67.1183 111.699 58.0864 102.942 56.147 97.8657C59.384 95.7237 64.8782 94.3308 71 93.8233V96.135Z" fill="#4CDADB"/>
<path fill-rule="evenodd" clip-rule="evenodd" d="M80.8088 134.996C80.8088 133.54 81.9894 132.359 83.4458 132.359V132.359C84.9022 132.359 86.0828 133.54 86.0828 134.996L86.0828 139.782C86.0828 140.516 85.8248 141.235 85.2893 141.735C84.2366 142.72 83.0143 143.51 81.6786 144.067C79.992 144.77 78.1681 145.083 76.3435 144.981C74.6095 144.97 72.8961 144.604 71.3089 143.905C69.7216 143.207 68.2941 142.191 67.1141 140.92C65.0503 138.552 63.9412 135.5 64.0024 132.359C63.9896 130.754 64.2936 129.162 64.8969 127.675C65.5003 126.188 66.3911 124.834 67.5184 123.692C68.6582 122.515 70.0247 121.581 71.5355 120.946C73.0462 120.312 74.6698 119.99 76.3083 120C79.0965 120.018 81.8063 120.818 84.1389 122.286C85.2777 123.003 85.3659 124.562 84.4785 125.574V125.574C83.4792 126.713 81.6841 126.636 80.3584 125.902C80.2007 125.815 80.0396 125.733 79.8755 125.657C78.8305 125.173 77.6885 124.933 76.5369 124.958C74.6857 124.993 72.9232 125.758 71.6321 127.085C70.9059 127.759 70.3253 128.575 69.9262 129.482C69.5272 130.389 69.318 131.368 69.3115 132.359C69.2907 133.37 69.4764 134.375 69.8573 135.312C70.2381 136.249 70.8062 137.099 71.5266 137.809C72.7888 139.071 74.4587 139.844 76.238 139.989C77.2118 140.041 78.1833 139.933 79.1146 139.672C80.1938 139.37 80.8088 138.301 80.8088 137.18L80.8088 134.996Z" fill="#C0FFD6"/>
</svg>
