<svg width="155" height="350" viewBox="0 0 155 350" fill="none" xmlns="http://www.w3.org/2000/svg">
<path fill-rule="evenodd" clip-rule="evenodd" d="M112.211 125.196L115.172 152.686C111.301 154.44 108.531 155.75 108.531 155.75L104.713 153.282L106.033 120.431L112.211 125.196ZM34.2222 144.462L36.1729 123.288L45.7084 118.212L46.3958 149.923C46.3958 149.923 43.7597 151.313 43.4169 151.313C43.2991 151.313 41.188 149.719 38.1578 147.43C36.9663 146.53 35.6326 145.522 34.2222 144.462ZM32.8594 159.255L21.1543 286.311C21.1543 286.311 27.4858 288.221 37.9369 290.097L45.5929 166.707C42.482 165.306 37.8871 162.542 32.8594 159.255ZM60.1635 292.974C63.8971 253.827 68.2785 208.833 68.2785 208.833L76.0695 209.527L84.9928 293.561C76.1545 293.874 67.7721 293.585 60.1635 292.974ZM108.826 291.204L100.436 174.113C100.436 174.113 107.875 171.769 116.866 168.417L129.564 286.311C122.638 288.465 115.684 290.059 108.826 291.204Z" fill="#C0FFD6"/>
<path fill-rule="evenodd" clip-rule="evenodd" d="M71.9999 96.5023C71.9999 98.0941 74.0164 99.3833 76.4999 99.3833C78.9863 99.3833 80.9999 98.0941 80.9999 96.5023V93.6443C88.9713 94.1607 96.5426 96.0526 104 99.5001C112.694 103.519 140.458 125.927 149 133.5C157.54 141.073 155.19 147.324 144.36 155.67C133.532 164.016 100.281 174.527 100.281 174.527L94.3439 186.067L90.8234 189.586H85.9219L75.9521 209.999L68.1732 209.303C68.1732 209.303 67.7157 198.969 68.1732 198.737C68.6308 198.505 63.4632 198.737 63.4632 198.737H46.3247L45.5231 167.108C36.0293 162.82 12.6928 145.779 5.48498 139.982C-1.7228 134.186 -0.350136 126.679 7.99976 121C15.7294 115.743 50.1384 96.5049 71.9999 93.8127V96.5023ZM38.7082 148.118C41.4013 150.241 43.2395 151.69 43.3505 151.69C43.6928 151.69 46.3247 150.297 46.3247 150.297L45.6384 118.534L18.4998 133C23.6153 136.221 33.0492 143.657 38.7082 148.118ZM104.5 158L108 155.5C108 155.5 129.31 145.855 136.5 144L106 120.5L104.5 158Z" fill="#40C181"/>
<path d="M103.98 169.391L45.5162 168V168.7C46.1053 168.959 45.5162 169.149 45.5162 169.149L44.7593 172.447C44.7593 172.447 37.4955 196 33.9863 224C67.4522 237.849 106.442 229.6 111.89 224C107.679 211.4 106.275 183.4 102.431 172.248C102.431 172.248 103.846 171.814 106.275 170.957C104.838 169.957 103.98 169.391 103.98 169.391Z" fill="#40C181"/>
<path d="M45.4145 162.698L45.3965 169.528L103.205 169.679L103.223 162.85L45.4145 162.698Z" fill="#006D42"/>
<path d="M82.1288 165.949C82.2338 162.549 79.5548 159.708 76.145 159.603C72.7351 159.498 69.8878 162.17 69.7828 165.571C69.6777 168.971 72.3567 171.812 75.7666 171.917C79.1764 172.022 82.0252 169.348 82.1288 165.949Z" fill="#FFD83B"/>
<path d="M46.438 154.742L46.363 149.5C46.363 149.5 43.842 151 43.4998 151C43.3405 151 39.3483 148.137 34.4998 144.5L29.5295 157.749C35.791 161.949 41.7506 165.652 45.5228 167.347C45.5228 167.347 51.4714 169.422 52.1577 167.961C52.8441 166.501 44.8365 163.042 44.8365 163.042C44.8365 163.042 54.2937 165.731 54.5225 163.12C54.7513 160.506 46.363 159.123 46.363 159.123C46.363 159.123 56.049 158.97 56.049 156.664C56.049 154.359 46.438 154.742 46.438 154.742Z" fill="#6FF6F7"/>
<path d="M108.364 155.434L104.551 152.975L104.17 158.278C104.17 158.278 94.1036 158.356 94.3324 161.428C94.5008 163.699 99.3658 163.286 101.901 162.915C99.0858 163.431 93.3368 164.678 93.7998 166.193C94.4093 168.19 103.103 167.345 103.103 167.345C103.103 167.345 94.9438 173.34 96.7741 174.492C98.6044 175.645 100.283 174.723 100.283 174.723C100.283 174.723 111.971 171.049 123.744 166.327L117.843 151.101C112.564 153.453 108.364 155.434 108.364 155.434Z" fill="#6FF6F7"/>
<path fill-rule="evenodd" clip-rule="evenodd" d="M72 96.5023C72 98.0942 74.0165 99.3834 76.5 99.3834C78.9864 99.3834 81 98.0942 81 96.5023V93.6748C87.2678 93.8109 95.5786 95.8568 97.5 97.0001C93.3568 105.602 82.8787 122.645 78.629 129.557C77.5228 131.357 76.8387 132.469 76.7981 132.568C76.6682 132.894 69.7704 122.407 63.1132 112.285C59.6961 107.09 56.3425 101.991 54 98.5001C59.3043 96.0248 67.4303 94.2449 72 93.7552V96.5023Z" fill="#C0FFD6"/>
<path d="M54.9032 349.712C54.7732 349.778 59.1368 306.007 60.6559 289.8L38.899 275.1L35.2273 332.884L18.0681 349.714C18.0681 349.714 55.3608 349.481 54.9032 349.712Z" fill="#008586"/>
<path d="M107.679 276.5L84.5183 291.2L90.8232 349.712H131.396L111.872 336.109L107.679 276.5Z" fill="#008586"/>
</svg>
