<svg width="153" height="350" viewBox="0 0 153 350" fill="none" xmlns="http://www.w3.org/2000/svg">
<path d="M35.4818 116.2L19.6514 296.004C19.6514 296.004 75.2245 313.545 129.138 296.004L110.961 119.418L35.4818 116.2Z" fill="#400100"/>
<path fill-rule="evenodd" clip-rule="evenodd" d="M71 96.1349C71 97.7179 73.0165 98.9999 75.5 98.9999C77.9864 98.9999 80 97.7179 80 96.1349V93.7258C87.9718 94.2226 95.4565 96.0743 102.941 99.5266C111.635 103.537 138.784 125.589 147.326 133.145C155.867 140.701 154.19 146.715 143.36 155.043C132.532 163.37 99.2807 173.857 99.2807 173.857L110.872 335.778L130.396 349.426H89.8234L74.9521 209.248L67.1733 208.554C67.1733 208.554 53.6082 347.989 53.8969 349.415C53.1799 349.202 17.0685 349.426 17.0685 349.426L34.2277 332.54L44.5232 166.455C35.0293 162.176 11.6928 145.174 4.48506 139.391C-2.72271 133.608 -0.890568 126.089 7.45932 120.423C15.177 115.186 49.1807 96.5597 71 93.9049V96.1349ZM53.9035 349.426C53.9008 349.427 53.8986 349.424 53.8969 349.415C53.9085 349.419 53.9108 349.422 53.9035 349.426ZM37.0997 147.19C40.1251 149.478 42.233 151.071 42.3506 151.071C42.6928 151.071 45.3248 149.682 45.3248 149.682L44.6385 117.991L17.0685 132.681C22.0385 135.803 31.2716 142.784 37.0997 147.19ZM103.551 153.038L107.363 155.505C107.363 155.505 128.218 145.636 135.407 143.786L104.869 120.208L103.551 153.038Z" fill="#B81F0F"/>
<path d="M45.5773 154.018L45.4642 149.92C45.4642 149.92 42.8838 151.299 42.5482 151.299C42.3921 151.299 38.5843 148.339 33.8307 144.714L29 157.015C35.1389 161.201 40.9816 164.893 44.68 166.582C44.68 166.582 50.512 168.651 51.185 167.195C51.8579 165.739 44.0071 162.291 44.0071 162.291C44.0071 162.291 53.2791 164.972 53.5034 162.369C53.7277 159.764 45.5037 158.385 45.5037 158.385C45.5037 158.385 55 158.232 55 155.934C55 153.636 45.5773 154.018 45.5773 154.018Z" fill="#DC3A26"/>
<path d="M101 168.714L44.2841 170.778L44 175.714L99.0279 174.059L101 168.714Z" fill="#680300"/>
<path d="M44.286 175.361L44 180.121C52.219 194.64 67.243 209.008 67.243 209.008L74.9369 209.714C85.5727 196.184 99 173.714 99 173.714L44.286 175.361Z" fill="#DC3A26"/>
<path d="M54.1916 349.712C54.0604 349.779 58.4661 301.854 60 285.424L37.3239 284.714L34 332.5L16.5 349.712C16.5 349.712 54.6536 349.478 54.1916 349.712Z" fill="#F09648"/>
<path d="M107.265 284.714L83 286.133L89.9214 349.714H131L111 336L107.265 284.714Z" fill="#F09648"/>
<path d="M76 165.714H67V178.714H76V165.714Z" fill="#FF553E"/>
<path d="M107.605 155.052L103.788 152.59L103.407 156.899C103.407 156.899 93.3305 156.976 93.5595 160.053C93.7281 162.326 98.5979 161.913 101.135 161.541C98.3176 162.058 92.5629 163.307 93.0264 164.823C93.6365 166.823 102.339 165.977 102.339 165.977C102.339 165.977 94.1715 171.979 96.0036 173.133C97.8357 174.288 99.5158 173.364 99.5158 173.364C99.5158 173.364 111.216 169.685 123 164.958L117.093 150.714C111.809 153.068 107.605 155.052 107.605 155.052Z" fill="#DC3A26"/>
<path fill-rule="evenodd" clip-rule="evenodd" d="M71 96.1351C71 97.7181 73.0165 99.0001 75.5 99.0001C77.9864 99.0001 80 97.7181 80 96.1351V93.7261C87.9719 94.2228 95.4567 96.0748 102.942 99.5288C104.206 100.112 105.868 101.085 107.799 102.33C104.951 114.629 95.9698 143.558 74.5716 142.707C50.4737 141.749 45.7259 115.773 44.4282 101.64C53.6675 97.9016 63.1267 94.8635 71 93.9053V96.1351Z" fill="#F09648"/>
</svg>
