<svg width="153" height="350" viewBox="0 0 153 350" fill="none" xmlns="http://www.w3.org/2000/svg">
<path fill-rule="evenodd" clip-rule="evenodd" d="M112.681 126.33L117.555 151.166C112.021 153.628 107.531 155.75 107.531 155.75L103.713 153.282L105.033 120.431L112.681 126.33ZM30.8551 142.689L34.0075 123.909L44.7084 118.212L45.3958 149.923C45.3958 149.923 42.7597 151.314 42.4169 151.314C42.2991 151.314 40.188 149.719 37.1578 147.43C35.316 146.039 33.1347 144.391 30.8551 142.689ZM28.4538 156.995L19.583 209.843C19.583 209.843 28.1235 211.257 41.7564 212.422L44.5929 166.707C40.7904 164.995 34.7709 161.247 28.4538 156.995ZM66.7948 213.807C67.1039 210.626 67.2785 208.833 67.2785 208.833L75.0695 209.528L75.5371 213.931C72.5503 213.922 69.6317 213.878 66.7948 213.807ZM102.225 213.039L99.4361 174.114C99.4361 174.114 109.637 170.899 120.586 166.616L129.069 209.843C120.079 211.378 111.042 212.4 102.225 213.039Z" fill="#4E2600"/>
<path fill-rule="evenodd" clip-rule="evenodd" d="M71 97.1405C71 98.639 73.0165 99.8526 75.5 99.8526C77.9864 99.8526 80 98.639 80 97.1405V93.9194C88.5585 94.4254 96.9783 96.5954 104.5 100.5C103.267 112.521 105.207 121.057 105.207 121.057C105.207 121.057 104.594 139.25 104 147C103.406 154.749 103.803 162.622 103.803 162.622L102.543 163.326H45.5511L44.1475 118.943C47.6566 112.603 44.1475 102.035 44.1475 102.035C52.2645 97.4239 61.5551 94.7128 71 93.9963V97.1405Z" fill="#FFD83B"/>
<path d="M44.8491 161.92L37.1289 228.08C37.1289 228.08 66.202 237.86 108.014 229.395L102.4 161.92H44.8491Z" fill="#FFD83B"/>
<path d="M103.102 159.812H45.5511L44.1475 167.034H102.4L103.102 159.812Z" fill="#FFFDF7"/>
<path d="M45.2148 153.709L45.0975 149.433C45.0975 149.433 42.4178 150.872 42.0693 150.872C41.9072 150.872 37.9529 147.783 33.0165 144L28 156.836C34.375 161.204 40.4425 165.056 44.2831 166.819C44.2831 166.819 50.3394 168.978 51.0382 167.458C51.737 165.939 43.5843 162.342 43.5843 162.342C43.5843 162.342 53.2129 165.139 53.4458 162.422C53.6788 159.704 45.1385 158.265 45.1385 158.265C45.1385 158.265 55 158.106 55 155.708C55 153.31 45.2148 153.709 45.2148 153.709Z" fill="#D17C30"/>
<path d="M53.8351 349.998C53.7051 350.065 58.0686 306.114 59.5878 289.841L37.8309 275.081L34.1592 333.101L17 350C17 350 54.2926 349.766 53.8351 349.998Z" fill="#383000"/>
<path d="M106.611 276.487L83.4502 291.247L89.7551 349.998H130.328L110.804 336.34L106.611 276.487Z" fill="#383000"/>
<path fill-rule="evenodd" clip-rule="evenodd" d="M71 96.2941C71 97.7892 73.0165 98.9999 75.5 98.9999C77.9864 98.9999 80 97.7892 80 96.2941V93.894C85.2296 94.171 90.3749 94.9999 94.5 96.4999C92.7231 103.384 84.854 111.804 76.2289 111.804C67.0501 111.804 59.4219 101.635 57.4824 96.5549C60.6464 95.2173 65.5526 94.2965 71 93.9456V96.2941Z" fill="#4E2600"/>
<path d="M107.605 155.527L103.788 152.958L103.407 157.454C103.407 157.454 93.3305 157.535 93.5595 160.745C93.7281 163.117 98.5979 162.686 101.135 162.298C98.3176 162.838 92.5629 164.14 93.0264 165.723C93.6365 167.81 102.339 166.927 102.339 166.927C102.339 166.927 94.1715 173.19 96.0036 174.394C97.8357 175.599 99.5158 174.635 99.5158 174.635C99.5158 174.635 111.216 170.796 123 165.863L117.093 151C111.809 153.457 107.605 155.527 107.605 155.527Z" fill="#D17C30"/>
<path d="M83.1066 133.283L86.6963 131.287L82.3354 128.433L84.8302 124.072H80.5945L80.6448 120.37L77.2911 122.233L75.9847 119.749L74.1013 123.041L70.8152 120.89L70.7721 124.072H66.3666L68.0902 127.348L64.5005 129.344L68.8614 132.2L66.3666 136.56H70.6023L70.552 140.263L73.9042 138.398L75.2121 140.882L77.0954 137.59L80.3816 139.742L80.4247 136.56H84.8302L83.1066 133.283Z" fill="#D17C30"/>
</svg>
