<svg width="255" height="140" viewBox="0 0 255 140" fill="none" xmlns="http://www.w3.org/2000/svg">
<g clip-path="url(#clip0_32700_41677)">
<mask id="mask0_32700_41677" style="mask-type:alpha" maskUnits="userSpaceOnUse" x="174" y="20" width="81" height="80">
<circle cx="214.125" cy="60" r="40" fill="#D9D9D9"/>
</mask>
<g mask="url(#mask0_32700_41677)">
<circle cx="214.125" cy="60" r="40" fill="#FFEDE3"/>
<path d="M195.465 81.5464L188.125 160.618C188.125 160.618 213.894 168.332 238.893 160.618L230.465 82.9615L195.465 81.5464Z" fill="#3D4347"/>
<path d="M193.547 54.7925C193.547 54.7925 193.723 32.6499 213.51 32.2925C213.51 32.2925 219.083 27.2208 220.869 27.4351C222.654 27.6494 221.241 33.0065 221.241 33.0065C221.241 33.0065 224.297 28.4885 225.208 28.9711C226.119 29.4536 224.458 33.4711 224.458 33.4711C224.458 33.4711 233.834 38.7751 233.619 54.7925C233.405 70.8099 234.477 80.8821 234.477 80.8821L192.691 80.3464L193.547 54.7925Z" fill="#6768E6"/>
<path d="M247.68 89.9034C243.68 86.4037 230.966 76.1892 226.894 74.3317C222.823 72.4743 218.751 71.6172 214.323 71.582C204.41 71.5023 186.09 81.386 182.18 84.0106C178.269 86.6351 177.411 90.1177 180.787 92.7963C184.162 95.4748 195.091 103.35 199.537 105.332L194.715 182.26L186.68 190.082C186.68 190.082 204.144 189.975 203.93 190.082C203.715 190.189 210.144 124.832 210.144 124.832L213.787 125.153L220.751 190.082H239.751L230.608 183.76L225.18 108.761C225.18 108.761 240.752 103.903 245.823 100.046C250.894 96.1888 251.679 93.4031 247.68 89.9034ZM198.519 98.2066C198.358 98.2066 190.215 91.8851 186.68 89.6883L199.591 82.8843L199.912 97.5628C199.912 97.5628 198.68 98.2066 198.519 98.2066ZM228.965 100.26L227.18 99.1177L227.797 83.9111L242.098 94.832C238.731 95.6891 228.965 100.26 228.965 100.26Z" fill="#F8B79B"/>
<path d="M214.322 71.5823C208.1 71.5317 198.569 75.4068 191.364 78.9486L194.285 85.6814L199.589 82.8863L199.911 97.5648L197.653 100.499C197.653 100.499 199.367 104.793 199.536 105.333C199.547 105.367 199.544 105.399 199.53 105.43L199.41 107.348L226.108 106.459L227.939 105.861L227.001 101.119L227.179 99.1197L227.796 83.9131L231.595 86.8137C232.871 84.4908 234.474 81.5234 235.307 79.978C231.836 77.368 228.603 75.1137 226.894 74.3346C222.822 72.4746 218.751 71.6174 214.322 71.5823Z" fill="#070904"/>
<path d="M199.965 99.4742L199.911 97.5637C199.911 97.5637 198.679 98.2065 198.518 98.2065C198.444 98.2065 196.625 96.8265 194.354 95.1362L192.047 100.871C194.979 102.823 197.77 104.544 199.537 105.332C199.537 105.332 202.322 106.296 202.644 105.617C202.965 104.938 199.215 103.331 199.215 103.331C199.215 103.331 203.644 104.581 203.751 103.367C203.858 102.153 199.93 101.51 199.93 101.51C199.93 101.51 204.466 101.439 204.466 100.367C204.466 99.2959 199.965 99.4742 199.965 99.4742Z" fill="#F8931F"/>
<path d="M228.965 100.26L227.18 99.1177L227.001 101.117C227.001 101.117 222.287 101.153 222.394 102.581C222.473 103.637 224.751 103.445 225.939 103.272C224.62 103.512 221.928 104.092 222.145 104.795C222.43 105.724 226.502 105.331 226.502 105.331C226.502 105.331 222.681 108.117 223.538 108.653C224.395 109.188 225.181 108.76 225.181 108.76C225.181 108.76 230.655 107.052 236.168 104.858L233.404 98.2468C230.932 99.3397 228.965 100.26 228.965 100.26Z" fill="#F8931F"/>
<path d="M214.322 71.582C210.266 71.5494 204.801 73.1857 199.492 75.3106C200.1 81.8566 202.323 93.8883 213.608 94.3323C223.629 94.7266 227.835 81.3269 229.169 75.6303C228.265 75.0535 227.486 74.6026 226.894 74.3326C222.823 72.4743 218.751 71.6172 214.322 71.582Z" fill="#3D4347"/>
<path d="M213.975 73.7498C213.246 73.7498 212.654 73.1584 212.654 72.4281V66.7675C212.654 66.0381 213.245 65.4458 213.975 65.4458C214.705 65.4458 215.297 66.0372 215.297 66.7675V72.4281C215.297 73.1584 214.706 73.7498 213.975 73.7498Z" fill="#F8B79B"/>
<path d="M216.636 78.5784H211.064V85.2752H216.636V78.5784Z" fill="#3BC493"/>
<path d="M233.061 51.5972C232.48 51.5972 231.922 51.6932 231.398 51.8646C230.982 42.6872 223.431 35.3689 214.151 35.3689C204.706 35.3689 197.043 42.946 196.879 52.3514C196.08 51.8757 195.151 51.5972 194.154 51.5972C191.206 51.5972 188.815 53.9869 188.815 56.9354C188.815 59.8831 191.205 62.2737 194.154 62.2737C195.96 62.2737 197.553 61.3746 198.519 60.0014C201.282 65.8711 207.234 69.9434 214.151 69.9434C220.75 69.9434 226.481 66.244 229.394 60.808C230.351 61.714 231.639 62.2737 233.061 62.2737C236.009 62.2737 238.399 59.884 238.399 56.9354C238.399 53.9869 236.009 51.5972 233.061 51.5972Z" fill="#F8B79B"/>
<path d="M208.722 52.6555C208.722 51.7085 207.955 50.9412 207.008 50.9412C206.061 50.9412 205.293 51.7085 205.293 52.6555C205.293 53.6024 206.061 54.3697 207.008 54.3697C207.955 54.3697 208.722 53.6024 208.722 52.6555Z" fill="#563E4C"/>
<path d="M223.829 52.6555C223.829 51.7085 223.062 50.9412 222.115 50.9412C221.168 50.9412 220.401 51.7085 220.401 52.6555C220.401 53.6024 221.168 54.3697 222.115 54.3697C223.062 54.3697 223.829 53.6024 223.829 52.6555Z" fill="#563E4C"/>
<path d="M233.619 60.8998C234.092 60.8998 234.476 60.5161 234.476 60.0427C234.476 59.5693 234.092 59.1855 233.619 59.1855C233.145 59.1855 232.762 59.5693 232.762 60.0427C232.762 60.5161 233.145 60.8998 233.619 60.8998Z" fill="#F6F8F7"/>
<path d="M213.51 52.6555L212.654 53.5307C212.654 53.5307 213.047 54.2567 213.94 54.2207" stroke="#DE7651" stroke-width="1.07359" stroke-miterlimit="10" stroke-linecap="round" stroke-linejoin="round"/>
<path d="M214.119 57.6495C214.119 57.6495 217.19 57.7206 219.405 56.0063" stroke="#DE7651" stroke-width="1.07359" stroke-miterlimit="10" stroke-linecap="round" stroke-linejoin="round"/>
<path d="M196.88 52.3512C196.88 52.3512 195.154 62.3635 198.225 62.8992C201.297 63.4349 201.154 51.7804 201.154 51.7804C201.154 51.7804 209.404 50.6129 218.297 42.7915C218.297 42.7915 222.851 50.6489 225.583 52.8544C225.583 52.8544 226.219 63.0415 229.168 63.2558C232.119 63.4701 231.399 51.8635 231.399 51.8635C231.399 51.8635 231.346 35.8804 214.455 34.9161C197.565 33.9527 196.087 48.7324 196.88 52.3512Z" fill="#6768E6"/>
<circle cx="214.125" cy="60" r="37.1143" stroke="#F09648" stroke-width="5.77143"/>
</g>
</g>
<rect x="198.125" y="84" width="32" height="32" rx="16" fill="#F09648"/>
<path d="M213.904 107.26C212.264 107.26 210.704 106.5 209.864 105.24C209.784 105.12 209.664 104.84 209.664 104.54C209.664 103.88 210.204 103.3 210.924 103.3C211.344 103.3 211.644 103.48 211.844 103.7C212.464 104.38 213.204 104.74 213.904 104.74C215.344 104.74 216.044 103.72 216.044 102.58C216.044 101.44 215.164 100.44 213.824 100.44H212.944C212.264 100.44 211.684 99.94 211.684 99.18C211.684 98.86 211.804 98.58 212.004 98.34L214.324 95.52H210.804C210.124 95.52 209.544 94.94 209.544 94.24C209.544 93.58 210.124 93 210.804 93H216.984C217.664 93 218.244 93.58 218.244 94.24C218.244 94.58 218.084 94.9 217.884 95.14L215.264 98.18C217.404 98.58 218.704 100.36 218.704 102.58C218.704 104.72 217.404 107.26 213.904 107.26Z" fill="#383000"/>
<g clip-path="url(#clip1_32700_41677)">
<mask id="mask1_32700_41677" style="mask-type:alpha" maskUnits="userSpaceOnUse" x="0" y="20" width="81" height="80">
<circle cx="40.875" cy="60" r="40" fill="#D9D9D9"/>
</mask>
<g mask="url(#mask1_32700_41677)">
<circle cx="40.875" cy="60" r="40" fill="#FFEDE3"/>
<path d="M56.0353 12.1407C53.1511 12.7836 9.3656 22.909 9.3656 22.909L9.68533 25.6107L60.9442 13.2661C60.9442 13.2661 58.9188 11.4979 56.0353 12.1407Z" fill="white"/>
<path d="M-3.17062 25.3735C-4.1469 27.098 -3.21259 28.7489 -2.49517 29.8195C-1.77774 30.8909 6.66082 30.3715 7.39711 28.7026C8.13254 27.0338 7.8651 25.052 6.90081 23.9806C5.93653 22.9092 -1.56347 22.5338 -3.17062 25.3735Z" fill="#F8B79B"/>
<path d="M33.2222 74.1413C28.579 71.713 20.0076 70.8559 20.0076 70.8559C8.00759 62.2844 5.93588 34.213 5.93588 34.213C7.50702 31.8559 7.43588 27.499 7.43588 27.499L-2.49241 28.7136C-2.56356 31.1419 -1.34983 33.2136 -1.34983 33.2136C-2.63555 59.6419 14.5073 82.225 14.5073 82.225L15.793 105.784L17.0787 170.784L8.65044 178.424H25.7933L26.7936 120.498L30.6507 120.641L32.365 178.424H50.365L42.7939 172.213L42.3113 117.213L45.3344 113.499C45.3344 113.499 45.7939 112.713 52.8567 109.356C59.9204 105.999 62.2219 99.9276 62.2219 99.9276C57.3653 88.927 37.8653 76.5696 33.2222 74.1413ZM45.5796 104.873C44.6684 104.498 43.651 104.338 43.651 104.338L44.5622 94.0519C48.5804 95.4447 51.3122 99.5162 51.3122 99.5162L45.5796 104.873Z" fill="#F8B79B"/>
<path d="M14.1267 64.0688C11.875 65.5431 8.74124 67.608 6.7381 68.9863C10.6544 77.142 14.5072 82.224 14.5072 82.224C19.2927 77.1643 20.0075 70.8548 20.0075 70.8548C17.6967 69.2048 15.7578 66.8263 14.1267 64.0688Z" fill="#053460"/>
<path d="M43.8399 80.9573C43.4567 83.8758 43.0839 89.2501 44.5624 94.051C45.933 94.5258 47.1493 95.3144 48.1624 96.145C49.7241 94.7521 52.1799 92.3976 54.3476 89.6281C51.069 86.4533 47.3156 83.4687 43.8399 80.9573Z" fill="#053460"/>
<path d="M33.2224 74.1412C28.5793 71.7129 20.0078 70.8558 20.0078 70.8558C19.4327 70.4452 18.8876 69.9772 18.3578 69.4827L12.8713 79.8695C13.8776 81.3918 14.5084 82.225 14.5084 82.225L15.7941 105.776L43.2681 106.365L44.4647 104.513C43.9984 104.394 43.6521 104.338 43.6521 104.338L44.5633 94.0526C45.2816 94.3021 45.957 94.639 46.5853 95.0204L45.6561 86.2844L46.0393 82.5849C40.5424 78.4209 35.3387 75.2478 33.2224 74.1412Z" fill="#053460"/>
<path d="M62.2217 99.9269C60.354 95.6969 56.3186 91.2681 51.7972 87.2781L47.7137 95.7929C49.938 97.4789 51.3112 99.5164 51.3112 99.5164L45.5786 104.874C44.6675 104.498 43.65 104.338 43.65 104.338L42.7569 107.387C42.7569 107.387 36.6857 110.641 37.614 111.998C38.5423 113.355 42.3283 110.569 42.3283 110.569C42.3283 110.569 37.1143 114.784 38.0786 115.676C39.0429 116.569 43.0037 112.405 43.0037 112.405C43.0037 112.405 39.8289 116.998 40.8643 117.569C41.8997 118.14 42.3112 117.211 42.3112 117.211L45.3343 113.497C45.3343 113.497 45.7937 112.711 52.8566 109.355C59.9203 105.998 62.2217 99.9269 62.2217 99.9269Z" fill="#F8B79B"/>
<path d="M51.3115 99.5164L61.7233 100.981C62.0678 100.331 62.2221 99.927 62.2221 99.927C62.0387 99.5113 61.8236 99.0921 61.599 98.673L49.3341 97.2004C50.5855 98.4373 51.3115 99.5164 51.3115 99.5164Z" fill="#F6F8F7"/>
<path d="M9.60068 53.3761C9.39497 52.7066 9.2004 52.0389 9.01697 51.3738L1.3584 54.9044C1.54268 55.5489 1.73126 56.1875 1.92754 56.8166L9.60068 53.3761Z" fill="#F6F8F7"/>
<path d="M-0.625574 51.1142C2.50814 49.5602 7.14269 59.4979 3.47241 61.3734C-0.197023 63.2479 -1.901 51.7468 -0.625574 51.1142Z" fill="black"/>
<path d="M59.2941 94.6055C56.7698 94.9038 56.7938 103.57 61.3658 103.534C65.937 103.498 65.0438 93.9267 59.2941 94.6055Z" fill="black"/>
<path d="M32.394 76.6639C31.3277 76.1325 30.894 74.8382 31.4254 73.7727L33.9934 68.6179C34.524 67.5516 35.8192 67.1179 36.8846 67.6493C37.9509 68.1799 38.3846 69.475 37.8532 70.5404L35.2852 75.6953C34.7546 76.7607 33.4594 77.1945 32.394 76.6639Z" fill="#F8B79B"/>
<path d="M62.2354 60.3619C62.1 60.3619 61.9671 60.373 61.8334 60.3824C62.0922 59.1696 62.2354 57.9139 62.2354 56.6239C62.2354 46.7324 54.2168 38.7139 44.3254 38.7139C39.9214 38.7139 35.8945 40.3099 32.7754 42.9464C31.6825 41.455 29.9228 40.4821 27.9325 40.4821C24.6154 40.4821 21.9265 43.171 21.9265 46.4882C21.9265 49.465 24.0942 51.9293 26.9365 52.405C26.6082 53.7601 26.4162 55.1676 26.4162 56.6239C26.4162 66.5153 34.4348 74.5339 44.3263 74.5339C49.272 74.5339 53.7488 72.529 56.9897 69.289C58.0165 71.1284 59.9794 72.3747 62.2362 72.3747C65.5534 72.3747 68.2422 69.6859 68.2422 66.3687C68.2422 63.0516 65.5525 60.3619 62.2354 60.3619Z" fill="#F8B79B"/>
<path d="M59.3979 64.1185L61.8339 60.3822L35.691 40.9534C34.6556 41.5268 33.6742 42.1876 32.7767 42.9471L31.2553 44.6905C40.3976 60.1902 59.3979 64.1185 59.3979 64.1185Z" fill="#DD2D54"/>
<path d="M38.9697 51.0392C39.9165 51.0392 40.684 50.2717 40.684 49.3249C40.684 48.3781 39.9165 47.6106 38.9697 47.6106C38.0229 47.6106 37.2554 48.3781 37.2554 49.3249C37.2554 50.2717 38.0229 51.0392 38.9697 51.0392Z" fill="white"/>
<path d="M52.7819 60.8873C53.7287 60.8873 54.4962 60.1198 54.4962 59.173C54.4962 58.2263 53.7287 57.4587 52.7819 57.4587C51.8351 57.4587 51.0676 58.2263 51.0676 59.173C51.0676 60.1198 51.8351 60.8873 52.7819 60.8873Z" fill="white"/>
<path d="M38.9547 44.216C38.2064 45.3689 43.9656 48.9346 44.5261 47.8452C45.0867 46.7549 39.8093 42.8995 38.9547 44.216Z" fill="#FBAE46"/>
<path d="M50.8478 54.4433C50.5761 55.7907 57.2438 56.9856 57.3638 55.7658C57.4847 54.547 51.1581 52.9047 50.8478 54.4433Z" fill="#FBAE46"/>
<path d="M29.8625 40.9535C29.8625 40.9535 40.1482 51.4398 54.9339 45.2255C54.9339 45.2255 57.7531 57.7526 61.8348 60.3815C65.9165 63.0112 67.0916 62.8381 67.0916 62.8381C67.0916 62.8381 73.9522 44.2552 59.7022 38.7138C59.7022 38.7138 41.2196 20.9315 29.8625 40.9535Z" fill="#FBC30C"/>
<path d="M43.2013 57.36L41.7278 57.1191C41.7278 57.1191 41.8084 58.0568 42.2636 58.3517" stroke="#DE7651" stroke-width="1.07359" stroke-miterlimit="10" stroke-linecap="round" stroke-linejoin="round"/>
<path d="M36.8796 60.4409L40.6836 63.1195" stroke="#DE7651" stroke-width="1.07359" stroke-miterlimit="10" stroke-linecap="round" stroke-linejoin="round"/>
<circle cx="40.875" cy="60" r="37.1143" stroke="#E4E3DB" stroke-width="5.77143"/>
</g>
</g>
<rect x="24.875" y="84" width="32" height="32" rx="16" fill="#E4E3DB"/>
<path d="M37.6808 107C36.9008 107 36.3608 106.44 36.3608 105.72C36.3608 105.34 36.5408 105.06 36.7008 104.88L41.7208 99.26C42.4408 98.46 42.6808 97.9 42.6808 97.24C42.6808 96.08 41.7408 95.26 40.5808 95.26C39.5808 95.26 38.9408 95.82 38.5008 96.76C38.3208 97.14 38.0008 97.44 37.4208 97.44C36.6808 97.44 36.1808 96.88 36.1808 96.2C36.1808 95.96 36.3008 95.62 36.3408 95.54C37.0208 93.94 38.5008 92.74 40.5808 92.74C43.3208 92.74 45.3408 94.7 45.3408 97.24C45.3408 98.36 44.8608 99.5 43.8208 100.62L40.2808 104.48H44.2808C44.9808 104.48 45.5408 105.04 45.5408 105.72C45.5408 106.44 44.9808 107 44.2808 107H37.6808Z" fill="#003920"/>
<g clip-path="url(#clip2_32700_41677)">
<mask id="mask2_32700_41677" style="mask-type:alpha" maskUnits="userSpaceOnUse" x="67" y="0" width="120" height="120">
<circle cx="127" cy="60" r="60" fill="#D9D9D9"/>
</mask>
<g mask="url(#mask2_32700_41677)">
<circle cx="127" cy="60" r="60" fill="#FFEDE3"/>
<path d="M136.392 103.174L133.915 94.0471L98.8551 99.125L101.003 104.496C101.003 104.496 101.595 115.209 101.821 128.44L135.554 127.391C135.082 114.792 135.464 107.463 136.392 103.174Z" fill="#AF1414"/>
<path d="M120.821 83.6464C114.73 83.385 105.498 83.4999 100.81 86.7226C96.1224 89.9453 67.7039 141.02 67.7039 141.02C67.7039 141.02 62.4304 148.149 63.798 149.028C65.1656 149.907 69.6575 143.851 69.6575 143.851C69.6575 143.851 66.2391 152.348 67.8024 152.934C69.3645 153.52 72.6857 145.023 72.6857 145.023C72.6857 145.023 70.5376 152.504 72.8814 152.963C75.2252 153.422 75.9084 142.778 75.9084 142.778C75.9084 142.778 79.2284 147.27 80.6933 146.294C82.1581 145.317 77.9592 140.141 77.9592 140.141L101.007 104.496C101.007 104.496 103.937 157.524 99.2491 173.345C94.5615 189.165 80.1085 216.509 80.1085 216.509L94.7572 229.688L93.1951 213.97C93.1951 213.97 109.992 189.75 113.117 174.711C116.243 159.672 118.977 139.75 118.977 139.75C118.977 139.75 124.234 175.289 120.824 229.688H144.563L133.04 218.224C133.04 218.224 137.337 163.823 135.774 132.353C134.211 100.883 137.214 97.708 141.169 96.9755C145.124 96.2431 166.951 97.6353 170.173 92.3606C173.396 87.0859 174.349 70.827 172.591 62.8428C172.591 62.8428 176.729 55.9943 175.667 55.2618C174.606 54.5294 170.687 60.0596 170.687 60.0596C170.687 60.0596 171.054 54.2728 169.039 54.4192C167.025 54.5657 167.538 60.7182 167.538 60.608C167.538 60.4979 162.301 53.9435 160.836 55.0415C159.371 56.1408 163.729 61.9264 163.729 61.9264C163.729 61.9264 160.031 60.3514 159.517 61.7061C159.004 63.0608 163.473 66.2472 163.473 66.2472L162.923 85.4007C162.921 85.4042 148.084 84.8183 120.821 83.6464Z" fill="#F8B79B"/>
<path d="M137.143 100.606H97.2415V110.318L101.004 104.497C101.004 104.497 101.645 116.108 101.848 130.085H135.666C134.89 112.651 135.616 104.498 137.143 100.606Z" fill="#AF1414"/>
<path d="M150.07 84.8814C143.038 84.5908 133.22 84.1794 120.821 83.6462C114.73 83.3849 105.498 83.4997 100.81 86.7224C98.9843 87.9775 93.5572 96.4937 87.6122 106.423C90.0896 108.332 93.7518 111.251 95.6537 112.773L101.005 104.497C101.005 104.497 109.379 107.451 121.83 107.304C128.629 107.225 133.425 105.093 136.392 103.174C137.441 98.3254 139.184 97.3433 141.167 96.9765C142.519 96.7258 145.964 96.7234 150.04 96.6191C150.031 93.414 150.05 88.6221 150.07 84.8814Z" fill="#DD2D54"/>
<path d="M169.853 49.9545C161.084 48.9701 163.311 38.089 168.193 33.7917C173.076 29.4943 173.466 22.634 173.466 22.634C173.466 22.634 180.107 33.5983 178.544 40.727C176.983 47.8556 174.639 50.4924 169.853 49.9545Z" fill="#FBC30C"/>
<path d="M168.56 45.1936C166.798 44.576 165.557 40.5341 168.121 38.2501C170.685 35.9649 171.49 34.1344 173.615 34.4274C175.739 34.7203 175.665 47.6839 168.56 45.1936Z" fill="#DD2D54"/>
<path d="M166.66 27.8347C165.039 27.782 161.602 19.997 164.898 19.8506C168.195 19.7041 171.132 27.9812 166.66 27.8347Z" fill="#FBC30C"/>
<path d="M172.369 19.1195C170.537 18.8992 169.731 14.7987 171.344 14.5784C172.956 14.3581 174.201 19.3386 172.369 19.1195Z" fill="#EFC150"/>
<path d="M120.555 87.6301C118.465 87.6301 116.771 85.9356 116.771 83.8461V78.8163C116.771 76.7256 118.465 75.0322 120.555 75.0322C122.645 75.0322 124.339 76.7268 124.339 78.8163V83.8461C124.339 85.9367 122.644 87.6301 120.555 87.6301Z" fill="#F8B79B"/>
<path d="M151.645 60.4805C151.645 56.3812 148.322 53.0588 144.223 53.0588C140.124 53.0588 136.801 56.3823 136.801 60.4805C136.801 64.5798 140.125 67.9021 144.223 67.9021C148.321 67.9021 151.645 64.5798 151.645 60.4805Z" fill="#F8B79B"/>
<path d="M120.723 33.4299C106.485 33.4299 94.9414 39.5355 94.9414 53.7752C94.9414 53.8913 94.9484 54.0049 94.9496 54.121C94.4281 54.0049 93.8878 53.9393 93.3324 53.9393C89.2331 53.9393 85.9108 57.2616 85.9108 61.3609C85.9108 65.4602 89.2342 68.7826 93.3324 68.7826C95.3129 68.7826 97.1094 68.0021 98.4395 66.7364C102.908 74.4018 111.211 79.557 120.723 79.557C134.962 79.557 146.505 68.0138 146.505 53.7752C146.505 39.5367 134.962 33.4299 120.723 33.4299Z" fill="#F8B79B"/>
<path d="M91.8777 54.0818L94.9493 54.1205C94.9493 54.1205 96.7985 57.5272 103.976 57.1604C111.154 56.7936 120.822 50.0563 129.1 50.129C137.377 50.2016 139.207 53.0564 147.85 54.0091C147.85 54.0091 151.585 29.8386 146.165 15.4828C146.165 15.4828 142.02 18.2661 139.954 21.5626C139.954 21.5626 123.606 20.2442 106.979 21.7091C106.979 21.7091 103.975 16.7285 101.485 14.9707C101.485 14.9707 88.2753 33.7165 91.8777 54.0818Z" fill="black"/>
<path d="M110.944 50.3257C112.364 50.3257 113.516 49.1745 113.516 47.7543C113.516 46.3341 112.364 45.1829 110.944 45.1829C109.524 45.1829 108.373 46.3341 108.373 47.7543C108.373 49.1745 109.524 50.3257 110.944 50.3257Z" fill="#F6F8F7"/>
<path d="M140.745 50.3257C142.165 50.3257 143.316 49.1745 143.316 47.7543C143.316 46.3341 142.165 45.1829 140.745 45.1829C139.325 45.1829 138.174 46.3341 138.174 47.7543C138.174 49.1745 139.325 50.3257 140.745 50.3257Z" fill="#F6F8F7"/>
<path d="M107.576 40.5158C107.225 41.9538 116.206 44.1874 116.353 42.8702C116.501 41.5506 107.975 38.874 107.576 40.5158Z" fill="#F6F8F7"/>
<path d="M135.53 41.6688C135.904 43.1009 144.869 40.811 144.374 39.5805C143.879 38.35 135.104 40.0341 135.53 41.6688Z" fill="#F6F8F7"/>
<path d="M128.733 50.8618L132.102 52.6935C132.102 52.6935 129.978 55.11 128.147 55.0373" stroke="#DE7651" stroke-width="0.978555" stroke-miterlimit="10" stroke-linecap="round" stroke-linejoin="round"/>
<path d="M113.572 59.4316C113.572 59.4316 116.648 62.1422 124.339 60.5309" stroke="#DE7651" stroke-width="0.978555" stroke-miterlimit="10" stroke-linecap="round" stroke-linejoin="round"/>
<circle cx="127" cy="60" r="57.1143" stroke="#FAE366" stroke-width="5.77143"/>
</g>
</g>
<rect x="107" y="100" width="40" height="40" rx="20" fill="#FAE366"/>
<path d="M124.017 127C123.337 127 122.757 126.42 122.757 125.72C122.757 125.06 123.337 124.48 124.017 124.48H126.477V115.8L124.417 116.58C124.257 116.64 124.097 116.68 123.937 116.68C123.277 116.68 122.717 116.12 122.717 115.44C122.717 114.9 123.057 114.48 123.557 114.28L127.417 112.82C127.537 112.78 127.677 112.74 127.877 112.74C128.537 112.74 129.097 113.3 129.097 113.94V124.48H130.817C131.497 124.48 132.077 125.06 132.077 125.72C132.077 126.42 131.497 127 130.817 127H124.017Z" fill="#003920"/>
<defs>
<clipPath id="clip0_32700_41677">
<rect width="80" height="80" fill="white" transform="translate(174.125 20)"/>
</clipPath>
<clipPath id="clip1_32700_41677">
<rect width="80" height="80" fill="white" transform="translate(0.875 20)"/>
</clipPath>
<clipPath id="clip2_32700_41677">
<rect width="120" height="120" fill="white" transform="translate(67)"/>
</clipPath>
</defs>
</svg>
