<svg width="161" height="268" viewBox="0 0 161 268" fill="none" xmlns="http://www.w3.org/2000/svg">
<path d="M80.0807 267.524C117.824 267.524 148.422 258.484 148.422 247.333C148.422 236.182 117.824 227.143 80.0807 227.143C42.3369 227.143 11.7396 236.182 11.7396 247.333C11.7396 258.484 42.3369 267.524 80.0807 267.524Z" fill="#E4E3DB"/>
<path d="M122.116 68.6995L128.856 83.6055C128.856 83.6055 128.296 113.035 127.735 134.324C127.175 155.603 125.503 205.948 104.291 223.947C83.0695 241.947 11.4359 240.544 11.4359 240.544C11.4359 240.544 7.50574 238.292 10.0353 233.797C10.0353 233.797 20.7137 223.956 26.6131 181.77C32.5126 139.584 36.4427 99.3615 36.4427 99.3615C36.4427 99.3615 36.2475 66.9828 51.3314 59.7337C66.4068 52.4846 122.125 68.708 122.125 68.708L122.116 68.6995Z" fill="#002020"/>
<path d="M10.0346 233.787C10.0346 233.787 20.713 223.945 26.6124 181.76C31.663 145.625 35.2791 110.926 36.2043 101.722C37.7407 104.357 38.6575 108.666 38.6575 108.666C38.6575 108.666 33.6323 173.601 29.1335 200.04C24.6431 226.478 11.4352 240.534 11.4352 240.534C11.4352 240.534 7.50502 238.282 10.0346 233.787Z" fill="#003737"/>
<path d="M105.962 53.7635C105.962 53.7635 101.328 52.2508 101.048 49.4379C101.048 49.4379 104.222 49.2934 106.633 47.3303C109.044 45.3672 109.553 41.424 106.633 37.9056C103.713 34.3873 104.137 31.158 103.993 27.9201C103.849 24.6822 102.304 21.3084 98.7981 18.7759C95.2924 16.2434 86.5748 16.6683 84.3339 18.0705C82.0845 19.4728 79.869 24.8182 80.4886 31.5659C81.1083 38.3136 82.789 48.3671 78.0185 50.5172C73.2395 52.6588 65.549 54.146 65.549 54.146C65.549 54.146 93.7475 71.5845 105.971 53.755L105.962 53.7635Z" fill="#FFC4AB"/>
<path d="M81.8979 32.5884C81.8979 32.5884 79.7927 28.6282 76.7539 28.7642C73.7235 28.9001 73.7235 32.8519 74.3771 34.5685C75.0392 36.2852 78.859 41.0358 81.8894 37.475C84.9197 33.9142 81.8894 32.5884 81.8894 32.5884H81.8979Z" fill="#FFC4AB"/>
<path d="M126.148 87.3584C126.148 87.3584 125.215 101.61 119.035 116.236C112.855 130.861 110.046 140.235 110.046 140.235L75.2094 136.487C75.2094 136.487 74.4624 107.992 68.0961 92.2365C61.7298 76.4805 48.6237 92.2364 46.3742 95.6103C44.1248 98.9841 41.8414 106.65 49.5149 114.264C54.209 118.921 49.2858 131.856 33.3615 121.369C25.3569 116.1 22.0804 103.956 24.1431 94.2081C25.8917 85.9307 35.1356 64.1155 53.496 56.9854C71.8479 49.8637 78.0275 61.8634 95.4457 56.9854C95.4457 56.9854 103.688 55.3367 114.918 54.6653C126.157 53.9854 137.013 61.4895 144.882 73.4891C152.734 85.4803 154.983 98.6017 149.364 108.358C143.745 118.105 130.265 119.984 130.265 119.984C130.265 119.984 135.884 107.236 135.138 100.488C134.391 93.7407 126.148 87.3669 126.148 87.3669V87.3584Z" fill="#4CDADB"/>
<g style="mix-blend-mode:soft-light">
<path d="M125.766 74.9816C125.766 74.9816 126.683 82.6131 126.14 87.3552" stroke="black" stroke-width="0.5" stroke-miterlimit="10"/>
</g>
<path d="M95.428 56.9851L115.944 87.3837L89.4776 86.7038L116.479 122.516L114.883 126.493L61.2961 77.1432L84.7581 76.8202L62.094 56.9851C62.094 56.9851 83.4424 62.611 95.428 56.9851Z" fill="#FAE366"/>
<path d="M63.1296 206.373C63.1296 206.373 74.9285 205.252 79.8433 208.761C79.8433 208.761 74.2239 215.229 70.854 216.07C67.4841 216.911 63.1296 206.365 63.1296 206.365V206.373Z" fill="#00A1A2"/>
<path d="M89.4787 204.884C89.4787 204.884 100.938 201.85 106.362 204.51C106.362 204.51 101.872 211.81 98.6887 213.196C95.497 214.581 89.4872 204.884 89.4872 204.884H89.4787Z" fill="#00A1A2"/>
<path d="M74.8859 130.097C74.8859 130.097 67.3397 189.721 66.2192 211.851C65.0987 233.981 73.3325 227.225 76.7024 211.851C80.0723 196.478 84.1892 167.6 91.6844 154.853C91.6844 154.853 90.5639 186.348 93.1784 209.973C95.8013 233.598 101.421 221.973 102.541 207.721C103.662 193.469 108.16 150.655 112.838 131.941C112.838 131.941 89.1634 139.462 74.8774 130.097H74.8859Z" fill="#00696A"/>
<path d="M74.377 123.656L69.7253 121.361" stroke="black" stroke-width="0.66" stroke-miterlimit="10"/>
<path d="M134.068 100.465C134.068 100.465 143.32 94.7121 151.614 109.338C151.614 109.338 144.721 124.813 122.261 129.164C122.261 129.164 122.116 134.79 116.641 135.776C111.166 136.762 111.209 136.796 111.022 134.654L117.176 120.776C117.176 120.776 125.206 117.071 134.076 100.465H134.068Z" fill="#008586"/>
<path d="M114.884 126.495C114.884 126.495 95.2414 134.509 74.623 126.495L74.0968 136.43C74.0968 136.43 94.4944 144.784 111.819 136.43L114.884 126.495Z" fill="#F09648"/>
<path d="M46.3651 104.977C46.3651 104.977 32.5035 107.603 32.13 122.229C32.13 122.229 45.2361 130.48 58.3507 133.106C58.3507 133.106 65.1075 138.63 73.9524 137.628C73.9524 137.628 75.6501 136.276 74.3768 134.203C74.3768 134.203 76.813 133.013 74.8861 130.106C74.8861 130.106 76.6772 128.789 75.6246 127.345C75.6246 127.345 78.1796 124.336 74.3768 123.665L74.1476 121.37C74.1476 121.37 68.1803 115.676 63.5456 121.328C63.5456 121.328 51.2374 114.979 46.3736 104.994L46.3651 104.977Z" fill="#008586"/>
<g style="mix-blend-mode:soft-light">
<path d="M100.208 147.866C100.208 147.866 93.6884 150.909 91.6852 154.852" stroke="black" stroke-width="0.5" stroke-miterlimit="10"/>
</g>
<g style="mix-blend-mode:soft-light">
<path d="M97.1173 186.255L98.798 189.357" stroke="black" stroke-width="0.5" stroke-miterlimit="10"/>
</g>
<g style="mix-blend-mode:soft-light">
<path d="M78.7396 185.515C78.7396 185.515 77.9672 186.968 76.9571 188.099" stroke="black" stroke-width="0.5" stroke-miterlimit="10"/>
</g>
<g style="mix-blend-mode:soft-light">
<path d="M71.5847 184.498C71.5847 184.498 71.9243 186.112 72.5779 187.48" stroke="black" stroke-width="0.5" stroke-miterlimit="10"/>
</g>
<path d="M79.8429 208.758C79.8429 208.758 71.5837 211.155 63.1292 206.37L64.394 242.794C64.394 242.794 68.2223 254.182 89.4857 261.218C89.4857 261.218 80.5474 248.896 73.4851 240.882C73.4851 240.882 77.5935 217.63 79.8429 208.767V208.758Z" fill="#4CDADB"/>
<path d="M106.361 204.511C106.361 204.511 98.6025 208.224 89.4775 204.885L97.915 241.138C97.915 241.138 103.577 248.838 126.47 253.198C126.47 253.198 114.637 242.371 106.361 235.623C106.361 235.623 105.588 213.621 106.361 204.519V204.511Z" fill="#4CDADB"/>
<g style="mix-blend-mode:soft-light">
<path d="M111.021 127.753L108.695 137.747" stroke="black" stroke-width="0.5" stroke-miterlimit="10"/>
</g>
<g style="mix-blend-mode:soft-light">
<path d="M104.29 129.222L102.507 139.42" stroke="black" stroke-width="0.5" stroke-miterlimit="10"/>
</g>
<g style="mix-blend-mode:soft-light">
<path d="M95.9464 130.097L95.2928 140.227" stroke="black" stroke-width="0.5" stroke-miterlimit="10"/>
</g>
<g style="mix-blend-mode:soft-light">
<path d="M87.8898 129.704V139.741" stroke="black" stroke-width="0.5" stroke-miterlimit="10"/>
</g>
<g style="mix-blend-mode:soft-light">
<path d="M80.2676 128.313L80.8193 138.477" stroke="black" stroke-width="0.5" stroke-miterlimit="10"/>
</g>
<g style="mix-blend-mode:soft-light">
<path d="M75.6245 127.336L75.9047 137.262" stroke="black" stroke-width="0.5" stroke-miterlimit="10"/>
</g>
<path d="M95.4285 56.989C95.4285 56.989 89.6733 58.4422 82.229 51.8305C74.7847 45.2188 71.8392 47.1904 66.6358 49.5784C61.4409 51.9665 76.0494 58.9861 84.1898 59.411C92.3387 59.8444 95.4285 56.9805 95.4285 56.9805V56.989Z" fill="#003737"/>
<path d="M95.4285 56.985C95.4285 56.985 86.4392 58.9396 76.4654 52.9653C66.4915 46.991 62.1285 47.4584 54.3021 54.0786C54.3021 54.0786 64.8193 58.8971 70.4301 59.679C76.0494 60.4523 86.1591 62.2795 95.4285 56.985Z" fill="#004F50"/>
<path d="M95.4285 56.9873C95.4285 56.9873 89.8091 63.6415 83.2052 64.3468C76.6012 65.0522 65.9313 61.9588 57.5023 62.0948C49.0733 62.2392 43.9123 64.2363 40.6613 65.4856C40.6613 65.4856 45.8901 54.0553 53.5636 53.163C70.3962 51.1914 80.1069 64.8142 95.42 56.9873H95.4285Z" fill="#00696A"/>
<path d="M95.4283 56.9888C95.4283 56.9888 99.664 55.935 103.857 52.3912C107.932 48.9494 112.286 50.768 117.099 53.8699C122.634 57.4307 95.4283 56.9888 95.4283 56.9888Z" fill="#003737"/>
<path d="M95.4283 56.9881C95.4283 56.9881 104.986 55.5944 111.021 52.11C117.846 48.1753 121.988 49.9855 130.069 59.6736C130.069 59.6736 124.272 57.1581 113.882 58.2968C103.297 59.4611 95.4283 56.9881 95.4283 56.9881Z" fill="#004F50"/>
<path d="M95.4275 56.9869C95.4275 56.9869 101.183 61.3805 112.005 60.1228C122.828 58.865 131.096 61.6355 139.525 66.539C139.525 66.539 134.483 52.1174 123.609 52.9757C113.618 53.7575 109.196 57.8877 95.436 56.9954L95.4275 56.9869Z" fill="#00696A"/>
<g style="mix-blend-mode:soft-light">
<path d="M78.2135 32.3089C77.3477 31.5951 76.5922 31.3316 76.5753 31.3316L76.7365 30.7708C76.8554 30.8047 79.6396 31.7396 80.8025 35.1474L80.2932 35.3429C79.9621 34.3655 79.4783 33.6092 78.969 33.0313C78.0862 32.4364 76.8639 33.7112 76.8554 33.7282L76.4734 33.3203C76.5158 33.2693 77.3138 32.4364 78.222 32.3089H78.2135Z" fill="#21061C"/>
</g>
<path d="M80.4874 19.3903C80.4874 19.3903 77.1684 17.6992 75.7678 19.3903C74.3672 21.0815 74.5795 25.2882 77.1854 28.764C77.1854 28.764 80.1733 30.2087 81.2938 32.4863C81.2938 32.4863 81.2089 34.5854 82.2275 34.7723C83.2376 34.9593 83.2461 31.2115 83.2461 31.2115C83.2461 31.2115 84.3836 32.9962 84.3836 30.8376C84.3836 28.679 82.6944 21.9313 85.4107 22.1183C85.4107 22.1183 86.6245 19.5858 89.7143 19.8662C92.8041 20.1467 96.4286 22.1438 101.216 21.005C101.216 21.005 102.472 22.5092 102.939 23.6565C102.939 23.6565 110.409 22.5942 110.876 13.5945C111.351 4.57774 101.989 2.13872 97.4897 7.20373C92.9993 12.2687 94.0264 13.7644 89.4342 12.8296C84.8419 11.8948 83.2376 11.3254 80.4874 19.3903Z" fill="#6E3B36"/>
<g style="mix-blend-mode:soft-light">
<path d="M105.826 17.8929C105.826 17.8929 104.392 20.1705 101.226 20.9948" stroke="black" stroke-width="0.5" stroke-miterlimit="10"/>
</g>
<g style="mix-blend-mode:soft-light">
<path d="M101.048 49.4315C101.048 49.4315 96.6506 50.1624 92.2451 48.7687" stroke="#21061C" stroke-width="0.63" stroke-miterlimit="10"/>
</g>
<path d="M94.1803 34.8257C92.9155 33.8739 92.3808 34.0268 91.6508 34.3243C90.9208 34.6302 89.8003 35.9645 90.5557 37.7831C91.3112 39.6017 93.4673 40.8 95.114 40.8255C97.1852 40.851 98.5773 40.0692 99.1885 39.0409C99.7996 38.0126 99.4092 36.3469 98.0425 36.1939C95.5045 35.9135 95.4366 35.7775 94.1718 34.8257H94.1803Z" fill="#F8F8F8"/>
<path d="M92.5842 26.7691C92.9662 26.9306 93.0765 27.5424 93.1274 27.9759C93.1869 28.4518 93.2463 29.0637 93.1699 29.5311C93.0595 30.1684 92.3295 30.3044 92.1088 29.6415C91.9136 29.0636 91.5486 26.3357 92.5927 26.7691H92.5842Z" fill="#5C1723"/>
<path d="M99.1799 26.6668C99.6213 26.8113 99.7401 27.3127 99.8335 27.8056C99.9269 28.307 100.02 28.9528 99.9608 29.4542C99.8759 30.1426 99.129 30.1681 98.8998 29.5647C98.7045 29.0633 98.6197 28.324 98.6112 27.7801C98.6112 27.3976 98.6791 26.5053 99.1799 26.6668Z" fill="#5C1723"/>
<g style="mix-blend-mode:soft-light">
<path d="M96.3621 26.8345C96.3621 26.8345 96.3536 27.9563 96.4555 28.6361C96.6168 29.7069 97.542 30.8797 97.941 31.4576C98.3399 32.0355 98.8917 32.6303 98.4248 33.4972C98.1108 34.0921 97.7203 34.517 97.7203 34.517" stroke="#21061C" stroke-width="0.63" stroke-miterlimit="10"/>
</g>
<path d="M89.3752 25.814C89.0102 25.0746 89.6468 24.1398 90.2665 23.7574C90.6994 23.4939 91.2511 23.3919 91.7689 23.4854C92.482 23.6129 92.9658 24.0208 93.3053 24.6072C93.5515 25.0406 92.9997 25.3806 92.6178 25.2446C92.049 25.0491 91.4379 24.6242 90.8607 24.9216C90.4362 25.1426 90.2155 25.559 89.9015 25.8905C89.7487 26.0519 89.4855 26.0094 89.3837 25.8055L89.3752 25.814Z" fill="#6E3B36"/>
<path d="M101.073 25.2547C100.674 24.9573 100.368 24.5578 99.8759 24.3964C99.2223 24.1839 98.6706 24.7023 98.1358 24.9743C97.6944 25.1952 97.3124 24.6513 97.4398 24.2859C97.8048 23.2151 99.112 22.7052 100.224 23.1726C100.912 23.4616 101.752 24.3114 101.557 25.0762C101.506 25.2887 101.268 25.3992 101.073 25.2547Z" fill="#6E3B36"/>
<path d="M96.7279 37.8753L90.3786 35.9631" stroke="#E6DDDD" stroke-width="0.5" stroke-miterlimit="10"/>
</svg>
