<svg width="266" height="140" viewBox="0 0 266 140" fill="none" xmlns="http://www.w3.org/2000/svg">
<g clip-path="url(#clip0_35887_8158)">
<path d="M192.608 86.5165C185.576 79.4839 181.625 69.9456 181.625 60C181.625 50.0544 185.576 40.5161 192.608 33.4835C199.641 26.4509 209.179 22.5 219.125 22.5C229.071 22.5 238.609 26.4509 245.642 33.4835C252.674 40.5161 256.625 50.0544 256.625 60C256.625 69.9456 252.674 79.4839 245.642 86.5165C238.609 93.5491 229.071 97.5 219.125 97.5C209.179 97.5 199.641 93.5491 192.608 86.5165Z" fill="#FEFFFF" stroke="#F09648" stroke-width="5"/>
<path d="M213.714 53.3358C213.714 54.5532 212.7 55.5 211.55 55.5C210.333 55.5 209.386 54.5532 209.386 53.3358C209.386 48.6014 213.241 44.6786 218.043 44.6786H220.207C224.942 44.6786 228.864 48.6014 228.864 53.3358V53.6063C228.864 56.5822 227.309 59.2875 224.874 60.9108L222.033 62.7369C221.56 63.0074 221.289 63.5485 221.289 64.0896V64.1572C221.289 65.3746 220.275 66.3215 219.125 66.3215C217.908 66.3215 216.961 65.3746 216.961 64.1572V64.0896C216.961 62.0605 217.975 60.1668 219.666 59.0846L222.507 57.2585C223.724 56.4469 224.536 55.0942 224.536 53.6063V53.3358C224.536 50.9686 222.574 49.0072 220.207 49.0072H218.043C215.608 49.0072 213.714 50.9686 213.714 53.3358ZM219.125 74.9786C218.11 74.9786 217.231 74.5052 216.758 73.6259C216.284 72.8143 216.284 71.7998 216.758 70.9206C217.231 70.109 218.11 69.5679 219.125 69.5679C220.072 69.5679 220.951 70.109 221.425 70.9206C221.898 71.7998 221.898 72.8143 221.425 73.6259C220.951 74.5052 220.072 74.9786 219.125 74.9786Z" fill="#787771"/>
</g>
<rect x="203.25" y="84" width="32" height="32" rx="16" fill="#F09648"/>
<path d="M219.007 107.786C217.203 107.786 215.487 106.95 214.563 105.564C214.475 105.432 214.343 105.124 214.343 104.794C214.343 104.068 214.937 103.43 215.729 103.43C216.191 103.43 216.521 103.628 216.741 103.87C217.423 104.618 218.237 105.014 219.007 105.014C220.591 105.014 221.361 103.892 221.361 102.638C221.361 101.384 220.393 100.284 218.919 100.284H217.951C217.203 100.284 216.565 99.734 216.565 98.898C216.565 98.546 216.697 98.238 216.917 97.974L219.469 94.872H215.597C214.849 94.872 214.211 94.234 214.211 93.464C214.211 92.738 214.849 92.1 215.597 92.1H222.395C223.143 92.1 223.781 92.738 223.781 93.464C223.781 93.838 223.605 94.19 223.385 94.454L220.503 97.798C222.857 98.238 224.287 100.196 224.287 102.638C224.287 104.992 222.857 107.786 219.007 107.786Z" fill="#003920"/>
<g clip-path="url(#clip1_35887_8158)">
<path d="M19.3585 86.5165C12.3259 79.4839 8.375 69.9456 8.375 60C8.375 50.0544 12.3259 40.5161 19.3585 33.4835C26.3911 26.4509 35.9294 22.5 45.875 22.5C55.8206 22.5 65.3589 26.4509 72.3915 33.4835C79.4241 40.5161 83.375 50.0544 83.375 60C83.375 69.9456 79.4241 79.4839 72.3915 86.5165C65.3589 93.5491 55.8206 97.5 45.875 97.5C35.9294 97.5 26.3911 93.5491 19.3585 86.5165Z" fill="#FEFFFF" stroke="#E4E3DB" stroke-width="5"/>
<path d="M40.7143 53.3358C40.7143 54.5532 39.6998 55.5 38.55 55.5C37.3326 55.5 36.3857 54.5532 36.3857 53.3358C36.3857 48.6014 40.2408 44.6786 45.0429 44.6786H47.2071C51.9415 44.6786 55.8643 48.6014 55.8643 53.3358V53.6063C55.8643 56.5822 54.3087 59.2875 51.8739 60.9108L49.0333 62.7369C48.5598 63.0074 48.2893 63.5485 48.2893 64.0896V64.1572C48.2893 65.3746 47.2748 66.3215 46.125 66.3215C44.9076 66.3215 43.9607 65.3746 43.9607 64.1572V64.0896C43.9607 62.0605 44.9752 60.1668 46.6661 59.0846L49.5067 57.2585C50.7241 56.4469 51.5357 55.0942 51.5357 53.6063V53.3358C51.5357 50.9686 49.5743 49.0072 47.2071 49.0072H45.0429C42.608 49.0072 40.7143 50.9686 40.7143 53.3358ZM46.125 74.9786C45.1105 74.9786 44.2313 74.5052 43.7578 73.6259C43.2844 72.8143 43.2844 71.7998 43.7578 70.9206C44.2313 70.109 45.1105 69.5679 46.125 69.5679C47.0719 69.5679 47.9511 70.109 48.4246 70.9206C48.898 71.7998 48.898 72.8143 48.4246 73.6259C47.9511 74.5052 47.0719 74.9786 46.125 74.9786Z" fill="#787771"/>
</g>
<rect x="30" y="84" width="32" height="32" rx="16" fill="#E4E3DB"/>
<path d="M42.4864 107.5C41.6284 107.5 41.0344 106.884 41.0344 106.092C41.0344 105.674 41.2324 105.366 41.4084 105.168L46.9304 98.986C47.7224 98.106 47.9864 97.49 47.9864 96.764C47.9864 95.488 46.9524 94.586 45.6764 94.586C44.5764 94.586 43.8724 95.202 43.3884 96.236C43.1904 96.654 42.8384 96.984 42.2004 96.984C41.3864 96.984 40.8364 96.368 40.8364 95.62C40.8364 95.356 40.9684 94.982 41.0124 94.894C41.7604 93.134 43.3884 91.814 45.6764 91.814C48.6904 91.814 50.9124 93.97 50.9124 96.764C50.9124 97.996 50.3844 99.25 49.2404 100.482L45.3464 104.728H49.7464C50.5164 104.728 51.1324 105.344 51.1324 106.092C51.1324 106.884 50.5164 107.5 49.7464 107.5H42.4864Z" fill="#003920"/>
<g clip-path="url(#clip2_35887_8158)">
<path d="M92.4664 100.659C81.683 89.8753 75.625 75.2499 75.625 60C75.625 44.7501 81.683 30.1247 92.4664 19.3414C103.25 8.55802 117.875 2.5 133.125 2.5C148.375 2.5 163 8.55802 173.784 19.3414C184.567 30.1247 190.625 44.7501 190.625 60C190.625 75.2499 184.567 89.8753 173.784 100.659C163 111.442 148.375 117.5 133.125 117.5C117.875 117.5 103.25 111.442 92.4664 100.659Z" fill="#FEFFFF" stroke="#FAE366" stroke-width="5"/>
<path d="M125.411 51.1143C125.411 52.7375 124.058 54 122.525 54C120.902 54 119.639 52.7375 119.639 51.1143C119.639 44.8018 124.779 39.5714 131.182 39.5714H134.068C140.38 39.5714 145.611 44.8018 145.611 51.1143V51.475C145.611 55.4428 143.537 59.05 140.29 61.2143L136.503 63.6491C135.871 64.0098 135.511 64.7312 135.511 65.4527V65.5428C135.511 67.1661 134.158 68.4286 132.625 68.4286C131.002 68.4286 129.739 67.1661 129.739 65.5428V65.4527C129.739 62.7473 131.092 60.2223 133.346 58.7794L137.134 56.3446C138.757 55.2625 139.839 53.4589 139.839 51.475V51.1143C139.839 47.958 137.224 45.3428 134.068 45.3428H131.182C127.936 45.3428 125.411 47.958 125.411 51.1143ZM132.625 79.9714C131.272 79.9714 130.1 79.3402 129.469 78.1678C128.837 77.0857 128.837 75.733 129.469 74.5607C130.1 73.4786 131.272 72.7571 132.625 72.7571C133.887 72.7571 135.06 73.4786 135.691 74.5607C136.322 75.733 136.322 77.0857 135.691 78.1678C135.06 79.3402 133.887 79.9714 132.625 79.9714Z" fill="#787771"/>
</g>
<rect x="112.625" y="100" width="40" height="40" rx="20" fill="#FAE366"/>
<path d="M129.343 127.5C128.595 127.5 127.957 126.862 127.957 126.092C127.957 125.366 128.595 124.728 129.343 124.728H132.049V115.18L129.783 116.038C129.607 116.104 129.431 116.148 129.255 116.148C128.529 116.148 127.913 115.532 127.913 114.784C127.913 114.19 128.287 113.728 128.837 113.508L133.083 111.902C133.215 111.858 133.369 111.814 133.589 111.814C134.315 111.814 134.931 112.43 134.931 113.134V124.728H136.823C137.571 124.728 138.209 125.366 138.209 126.092C138.209 126.862 137.571 127.5 136.823 127.5H129.343Z" fill="#003920"/>
<defs>
<clipPath id="clip0_35887_8158">
<rect width="80" height="80" fill="white" transform="translate(179.25 20)"/>
</clipPath>
<clipPath id="clip1_35887_8158">
<rect width="80" height="80" fill="white" transform="translate(6 20)"/>
</clipPath>
<clipPath id="clip2_35887_8158">
<rect width="120" height="120" fill="white" transform="translate(72.625)"/>
</clipPath>
</defs>
</svg>
