<svg width="352" height="420" viewBox="0 0 352 420" fill="none" xmlns="http://www.w3.org/2000/svg">
<g clip-path="url(#clip0_7_8737)">
<path d="M321.609 108.342C321.609 100.144 323.331 91.9991 326.618 84.4804L351.146 28.8215H208.209L321.556 142.28V108.342H321.609Z" fill="#FF3D3D"/>
<path d="M351.145 391.126H0.145508L24.6727 335.52C27.9604 327.949 29.6825 319.856 29.6825 311.658V108.342C29.6825 100.144 27.9604 91.9991 24.6727 84.5326L0.145508 28.8215H208.261L263.474 84.1149L321.608 142.28V311.658C321.608 319.856 323.331 328.001 326.67 335.52L351.198 391.126H351.145Z" fill="#61B6F2"/>
<path d="M93.0358 108.342V311.658C93.0358 319.856 91.3137 327.949 87.9738 335.52L63.4466 391.179H0.145508L24.6727 335.52C28.0126 328.001 29.6825 319.856 29.6825 311.658V108.342C29.6825 100.144 28.0126 92.0513 24.6727 84.5326L0.145508 28.8215H63.4466L87.9738 84.4804C91.3137 91.9991 93.0358 100.144 93.0358 108.342Z" fill="#B0E2FC"/>
<path d="M351.146 391.126H287.845L263.265 335.52C259.977 328.001 258.255 319.856 258.255 311.659V108.342C258.255 100.144 259.925 91.9992 263.265 84.5327L263.422 84.1672L321.556 142.332V311.711C321.556 319.908 323.279 328.053 326.618 335.572L351.146 391.179V391.126Z" fill="#299AEA"/>
<path d="M351.146 0H0.145508V28.8215H351.146V0Z" fill="#1379DA"/>
<path d="M351.146 391.126H0.145508V419.948H351.146V391.126Z" fill="#1379DA"/>
<path d="M175.698 239.291C215.269 239.291 247.348 207.196 247.348 167.603C247.348 128.011 215.269 95.915 175.698 95.915C136.126 95.915 104.047 128.011 104.047 167.603C104.047 207.196 136.126 239.291 175.698 239.291Z" fill="#FFE600"/>
<path d="M175.646 219.868C204.467 219.868 227.831 196.492 227.831 167.655C227.831 138.819 204.467 115.443 175.646 115.443C146.824 115.443 123.46 138.819 123.46 167.655C123.46 196.492 146.824 219.868 175.646 219.868Z" fill="white"/>
<path d="M273.285 206.815H129.357C123.826 206.815 119.338 210.731 119.338 215.535V236.472C116.154 236.629 113.597 238.926 113.597 241.746C113.597 244.565 116.311 247.019 119.651 247.019L273.285 246.862V206.763V206.815Z" fill="#E92B40"/>
<path d="M141.151 194.702V231.198C141.151 228.275 138.385 225.925 135.045 225.925H93.0359L29.7349 226.029V185.982H131.079C136.663 185.982 141.151 189.898 141.151 194.702Z" fill="#FF3D3D"/>
<path d="M135.045 225.925H113.597V241.746C113.597 238.822 116.311 236.472 119.651 236.472H135.045C138.385 236.472 141.151 234.122 141.151 231.199C141.151 228.275 138.437 225.925 135.098 225.925H135.045Z" fill="#D40000"/>
<path d="M283.983 208.956C283.722 208.799 283.461 208.695 283.2 208.538C269.058 200.288 255.437 219.085 239.416 244.147C224.387 248.533 205.339 262.474 184.204 275.527C150.492 296.412 123.669 307.377 133.01 328.21C133.532 329.411 134.158 330.611 134.941 331.917C149.344 355.256 200.695 382.093 236.39 360.007C245.313 354.473 252.463 346.38 257.838 337.034C270.884 332.021 283.2 323.458 291.811 310.301C314.824 275.214 302.404 221.069 283.983 208.956Z" fill="#1379DA"/>
<path d="M278.451 196.477C278.19 196.32 277.929 196.216 277.668 196.059C291.758 215.326 298.438 259.968 278.503 290.355C256.22 324.294 209.044 327.949 189.318 317.193C190.466 319.542 192.292 321.683 195.11 323.563C213.532 335.676 263.265 332.909 286.279 297.822C309.292 262.735 296.872 208.538 278.451 196.477Z" fill="#FFE21F"/>
<path d="M278.451 290.408C298.386 260.02 291.706 215.378 277.616 196.111C259.455 185.512 242.182 219.503 219.481 254.068C200.016 283.777 182.899 304.348 189.266 317.297C208.992 328.053 256.168 324.398 278.451 290.46V290.408Z" fill="#FFC51E"/>
<path d="M258.568 239.5C257.055 237.046 255.333 235.219 253.454 233.757C264.152 260.176 256.22 315.783 223.03 336.355C191.093 356.091 146.735 336.72 127.374 315.731C127.896 316.932 128.522 318.133 129.305 319.438C143.708 342.777 195.059 369.614 230.754 347.528C266.449 325.442 272.972 262.839 258.516 239.5H258.568Z" fill="#FFEF81"/>
<path d="M223.03 336.407C256.22 315.887 264.152 260.229 253.454 233.809C237.746 221.487 210.505 243.364 178.568 263.1C144.856 283.985 118.033 294.95 127.374 315.783C146.735 336.773 191.092 356.144 223.03 336.407Z" fill="#FFE21F"/>
<path d="M227.988 290.512C231.302 290.512 233.989 287.824 233.989 284.508C233.989 281.191 231.302 278.503 227.988 278.503C224.673 278.503 221.986 281.191 221.986 284.508C221.986 287.824 224.673 290.512 227.988 290.512Z" fill="#FFC51E"/>
<path d="M167.713 300.902C172.238 300.902 175.906 297.232 175.906 292.705C175.906 288.178 172.238 284.508 167.713 284.508C163.188 284.508 159.52 288.178 159.52 292.705C159.52 297.232 163.188 300.902 167.713 300.902Z" fill="#FFC51E"/>
<path d="M224.282 256.73C224.282 259.968 221.673 262.578 218.438 262.578C215.202 262.578 212.593 259.968 212.593 256.73C212.593 253.493 215.202 250.883 218.438 250.883C221.673 250.883 224.282 253.493 224.282 256.73Z" fill="#FFC51E"/>
<path d="M182.273 324.242C182.273 327.479 179.664 330.089 176.428 330.089C173.193 330.089 170.583 327.479 170.583 324.242C170.583 321.004 173.193 318.394 176.428 318.394C179.664 318.394 182.273 321.004 182.273 324.242Z" fill="#FFC51E"/>
<path d="M218.438 312.494C218.438 318.133 213.898 322.675 208.262 322.675C202.626 322.675 198.085 318.133 198.085 312.494C198.085 306.855 202.626 302.312 208.262 302.312C213.898 302.312 218.438 306.855 218.438 312.494Z" fill="#FFC51E"/>
</g>
<defs>
<clipPath id="clip0_7_8737">
<rect width="351" height="420" fill="white" transform="translate(0.145508)"/>
</clipPath>
</defs>
</svg>
