<svg width="351" height="358" viewBox="0 0 351 358" fill="none" xmlns="http://www.w3.org/2000/svg">
<g clip-path="url(#clip0_30_2517)">
<path d="M106.14 128.77C106.26 132.015 107.773 242.424 106.14 283.569C104.508 324.714 89.0976 356.342 100.547 357.928C111.997 359.514 147.139 342.09 152.684 262.227C154.94 229.854 145.243 188.109 145.243 188.109C145.243 188.109 154.916 231.321 203.62 263.02C247.355 291.476 319.679 300.128 319.991 277.993C320.231 259.944 263.102 259.632 216.606 209.979C178.008 168.762 140.418 108.775 140.418 108.775C140.418 108.775 104.988 99.7622 106.116 128.794L106.14 128.77Z" fill="#FFE48A"/>
<path d="M216.606 209.955C178.008 168.738 140.418 108.751 140.418 108.751C140.418 108.751 128.128 105.626 118.238 108.991C118.31 109.087 118.382 109.183 118.43 109.327C120.975 116.537 143.37 181.499 145.219 188.061C146.323 192.05 148.363 196.737 149.803 201.087C156.428 216.324 171.575 242.135 203.596 262.972C247.331 291.428 319.655 300.056 319.967 277.945C320.207 259.896 263.077 259.584 216.582 209.931L216.606 209.955Z" fill="#FFEFCF"/>
<path d="M146.611 194.501C147.667 202.432 147.931 236.416 147.883 244.611C147.859 252.35 147.907 260.16 146.995 267.875C145.363 281.742 141.138 295.297 134.393 307.53C131.128 313.466 127.24 319.018 122.895 324.185C119.414 328.319 116.318 332.885 111.781 335.961C107.628 338.773 102.372 339.23 98.267 336.25C95.7466 349.084 94.8824 357.135 100.523 357.904C111.973 359.49 147.115 342.066 152.66 262.203C154.916 229.854 146.155 191.281 146.587 194.501H146.611Z" fill="#FFEFCF"/>
<path d="M282.113 254.2C279.904 257.709 276.904 260.569 273.111 262.636C261.757 268.813 247.979 266.746 235.881 264.342C221.767 261.506 207.773 257.277 194.739 251.1C188.306 248.048 182.041 244.323 176.136 240.213C183.529 247.976 192.554 255.762 203.644 262.972C247.379 291.428 319.703 300.056 320.015 277.945C320.159 268.38 304.148 263.79 282.137 254.176L282.113 254.2Z" fill="#FFEFCF"/>
<path d="M106.885 232.474C107.005 232.21 107.149 231.945 107.269 231.705C113.366 219.4 120.375 202.168 123.543 188.805C131.081 157.033 123.447 118.388 124.168 119.181C130.985 126.848 164.398 144.945 173.375 149.872C184.777 156.12 186.65 175.539 199.276 178.711C168.503 141.147 140.442 108.751 140.442 108.751C140.442 108.751 105.012 99.7381 106.141 128.77C106.237 131.029 107.005 185.729 106.885 232.474Z" fill="#FFEFCF"/>
<path d="M88.3058 180.322C88.3058 180.322 80.9366 215.531 61.5895 240.549C38.1378 270.903 1.3879 279.988 0.187711 292.653C-0.5084 300.08 18.1666 314.884 55.4926 290.274C102.9 259.031 112.382 216.732 116.726 187.652C121.071 158.572 126.208 113.077 126.208 113.077L95.795 136.798L88.2818 180.298L88.3058 180.322Z" fill="#FFE48A"/>
<path d="M85.5934 260.881C77.144 268.668 66.9664 274.749 56.6447 279.339C46.3951 283.905 17.1104 297.1 7.6529 286.237C7.05281 285.54 6.62074 284.795 6.30869 284.002C2.73212 286.91 0.475757 289.697 0.187711 292.653C-0.5084 300.08 18.1666 314.884 55.4926 290.274C77.096 276.022 90.8262 259.488 99.7796 242.953C96.1071 249.73 91.2343 255.69 85.5694 260.881H85.5934Z" fill="#FFEFCF"/>
<path d="M350.188 159.197C350.188 174.626 307.389 197.049 277.384 199.404C248.483 201.664 226.52 198.491 209.525 192.843C177.36 182.148 163.15 162.561 153.908 154.03C153.668 153.813 153.452 153.621 153.236 153.429C140.658 142.229 127.12 123.363 124.576 119.758C124.287 119.349 124.143 119.133 124.143 119.133C124.143 119.133 118.262 148.382 100.212 187.628C91.4982 206.566 70.3988 231.633 61.5654 240.501C62.4056 239.252 91.5462 197.313 87.9216 152.491C84.2491 106.996 80.3364 90.5335 82.6648 76.3058C84.057 67.774 88.5698 57.8482 91.5942 53.9068C93.7306 51.1189 94.5227 47.5139 93.5145 44.1252C91.0662 35.5453 86.3614 19.8276 83.649 14.5162C80.9365 9.15678 93.8986 0.432696 96.251 0.0481631C98.5794 -0.33637 107.509 2.37939 109.045 7.42639C110.605 12.4734 110.605 40.8327 117.206 44.702C123.807 48.5954 138.498 49.3405 153.668 78.8774C164.398 99.7623 198.315 157.394 236.289 163.931C247.715 165.902 258.181 166.839 267.662 167.056C319.823 168.257 344.019 147.733 348.771 154.63C349.227 155.327 349.587 155.976 349.804 156.673C349.852 156.817 349.9 156.938 349.924 157.058C349.996 157.274 350.044 157.466 350.068 157.707C350.14 158.019 350.164 158.355 350.188 158.668C350.188 158.836 350.188 159.004 350.188 159.197Z" fill="#FFD400"/>
<path d="M350.188 159.197C350.188 174.626 307.389 197.049 277.384 199.404C248.483 201.663 226.52 198.491 209.525 192.843C180.48 179.409 162.117 161.408 153.908 154.029C153.668 153.813 153.452 153.621 153.236 153.429C140.658 142.229 127.12 123.363 124.575 119.758C123.543 117.571 122.583 115.336 121.647 113.077C159.357 161.287 206.621 190.392 246.707 182.725C255.852 180.971 266.126 176.669 267.518 167.272C267.566 167.2 267.614 167.128 267.662 167.055C319.823 168.257 344.019 147.733 348.771 154.63C349.227 155.327 349.587 155.976 349.803 156.673C349.851 156.817 349.899 156.937 349.923 157.058C349.995 157.274 350.044 157.466 350.068 157.707C350.14 158.019 350.164 158.355 350.188 158.668C350.212 158.86 350.212 159.004 350.212 159.197H350.188Z" fill="#FFC700"/>
<path d="M103.86 54.3874C101.892 21.9905 95.3868 18.9142 91.1141 9.97384C90.586 10.094 89.9619 9.87771 89.7699 9.20477C89.3378 7.66664 89.1458 6.08045 89.1698 4.47021C85.4972 7.52244 82.1606 11.56 83.6969 14.5642C86.4093 19.8756 91.0901 35.5933 93.5625 44.1732C94.5466 47.5619 93.7785 51.1909 91.6182 53.9788C88.5937 57.8962 84.105 67.822 82.7127 76.3778C80.3844 90.6056 84.297 107.044 87.9696 152.539C91.6422 198.034 61.5894 240.573 61.5894 240.573C70.3748 231.729 91.5221 206.638 100.236 187.676C114.734 156.12 121.383 131.078 123.423 122.45C123.303 121.921 124.263 119.71 124.167 119.181C124.071 118.676 105.084 74.7195 103.86 54.4114V54.3874Z" fill="#FFDC15"/>
<path d="M104.484 167.368C102.036 171.622 99.5394 175.876 96.683 179.889C92.9864 185.08 88.6417 189.791 83.3848 193.372C75.6796 220.578 61.5894 240.573 61.5894 240.573C70.3748 231.729 91.5221 206.638 100.236 187.676C114.734 156.12 121.383 131.078 123.423 122.45C123.303 121.921 106.909 163.138 104.46 167.368H104.484Z" fill="#FFEFCF"/>
<path d="M84.0089 15.2131C86.3853 13.5307 88.7857 12.1368 92.0022 13.0741C95.1707 13.9874 97.5951 16.3667 101.076 16.1744C103.764 16.0302 105.972 14.3479 107.725 12.4012C108.373 11.6561 108.973 10.8871 109.549 10.094C109.405 8.91635 109.237 7.97905 109.045 7.40225C107.485 2.37929 98.5553 -0.360505 96.2269 0.0480612C93.8985 0.432594 80.9125 9.13265 83.6969 14.5642C83.7929 14.7564 83.9129 15.0208 84.0089 15.2371V15.2131Z" fill="#AA582F"/>
<path d="M107.965 5.43164C107.605 5.84021 101.7 9.70957 98.4114 9.78167C96.9232 9.8057 87.6817 7.4985 87.1056 6.34491C84.3932 9.06067 82.4489 12.1369 83.6971 14.5643C83.7931 14.7566 83.9131 14.9969 84.0091 15.2372C86.3855 13.5549 88.7859 12.161 92.0024 13.0983C95.1709 14.0115 97.5953 16.3908 101.076 16.1986C103.764 16.0544 105.973 14.372 107.725 12.4253C108.373 11.6803 108.973 10.9112 109.549 10.1181C109.405 8.9405 109.237 8.0032 109.045 7.4264C108.829 6.70541 108.445 6.05651 107.965 5.43164Z" fill="#94461C"/>
</g>
<defs>
<clipPath id="clip0_30_2517">
<rect width="350" height="358" fill="white" transform="translate(0.1875)"/>
</clipPath>
</defs>
</svg>
