<svg width="166" height="500" viewBox="0 0 166 500" fill="none" xmlns="http://www.w3.org/2000/svg">
<path d="M157.416 215.281C162.458 206.086 165.188 195.803 165.188 185.315V105.117C165.188 98.0976 162.589 91.3273 157.889 86.1112L125.449 50.1025C120.749 44.8865 118.15 38.1162 118.15 31.0972V29.916H65.6787V31.0972C65.6787 38.1162 63.08 44.8865 58.38 50.1025L25.9398 86.1112C21.2398 91.3273 18.6411 98.0976 18.6411 105.117V185.315C18.6411 195.803 21.3704 206.086 26.4123 215.281C29.297 220.541 32.3309 227.659 34.2208 236.574C38.753 257.936 33.5743 313.596 30.9818 340.13C28.7872 362.648 25.6601 386.559 24.7586 393.292C24.5908 394.535 24.5099 395.791 24.5099 397.047V467.777C24.5099 472.776 25.8279 477.681 28.3334 482.008L30.5466 485.831C35.6259 494.597 44.9886 500 55.1223 500H128.7C138.834 500 148.197 494.597 153.276 485.831L155.489 482.008C157.995 477.681 159.313 472.776 159.313 467.777V397.047C159.313 395.791 159.232 394.535 159.064 393.292C158.169 386.559 155.035 362.648 152.841 340.13C150.254 313.59 145.076 257.93 149.608 236.574C151.498 227.653 154.525 220.541 157.416 215.281Z" fill="#E3C802"/>
<mask id="mask0_7_8855" style="mask-type:luminance" maskUnits="userSpaceOnUse" x="18" y="29" width="148" height="471">
<path d="M157.416 215.281C162.458 206.086 165.188 195.803 165.188 185.315V105.117C165.188 98.0976 162.589 91.3273 157.889 86.1112L125.449 50.1025C120.749 44.8865 118.15 38.1162 118.15 31.0972V29.916H65.6787V31.0972C65.6787 38.1162 63.08 44.8865 58.38 50.1025L25.9398 86.1112C21.2398 91.3273 18.6411 98.0976 18.6411 105.117V185.315C18.6411 195.803 21.3704 206.086 26.4123 215.281C29.297 220.541 32.3309 227.659 34.2208 236.574C38.753 257.936 33.5743 313.596 30.9818 340.13C28.7872 362.648 25.6601 386.559 24.7586 393.292C24.5908 394.535 24.5099 395.791 24.5099 397.047V467.777C24.5099 472.776 25.8279 477.681 28.3334 482.008L30.5466 485.831C35.6259 494.597 44.9886 500 55.1223 500H128.7C138.834 500 148.197 494.597 153.276 485.831L155.489 482.008C157.995 477.681 159.313 472.776 159.313 467.777V397.047C159.313 395.791 159.232 394.535 159.064 393.292C158.169 386.559 155.035 362.648 152.841 340.13C150.254 313.59 145.076 257.93 149.608 236.574C151.498 227.653 154.525 220.541 157.416 215.281Z" fill="white"/>
</mask>
<g mask="url(#mask0_7_8855)">
<path d="M51.1183 268.847C47.9227 268.847 45.2992 266.298 45.2184 263.096L44.8143 247.597C44.4848 242.418 43.9563 238.098 43.2289 234.672C41.4198 226.149 38.4792 218.135 34.4879 210.861C30.1422 202.947 27.8481 194.113 27.8481 185.322V105.123C27.8481 100.367 29.6013 95.8036 32.7844 92.2723L42.1285 81.9024C43.7449 80.1057 46.2939 79.4778 48.5631 80.3171C50.8323 81.1564 52.3554 83.2888 52.4238 85.7072L56.6203 246.957C56.9187 251.663 57.0493 256.985 57.0368 262.966C57.0244 266.192 54.4257 268.816 51.1991 268.853C51.1742 268.853 51.1494 268.853 51.1307 268.853L51.1183 268.847ZM40.9908 100.877C40.1204 102.114 39.6542 103.587 39.6542 105.117V185.316C39.6542 191.278 41.0281 197.283 43.6455 202.835L40.9908 100.883V100.877Z" fill="#FCE537"/>
</g>
<mask id="mask1_7_8855" style="mask-type:luminance" maskUnits="userSpaceOnUse" x="18" y="29" width="148" height="471">
<path d="M157.416 215.281C162.458 206.086 165.188 195.803 165.188 185.315V105.117C165.188 98.0976 162.589 91.3273 157.889 86.1112L125.449 50.1025C120.749 44.8865 118.15 38.1162 118.15 31.0972V29.916H65.6787V31.0972C65.6787 38.1162 63.08 44.8865 58.38 50.1025L25.9398 86.1112C21.2398 91.3273 18.6411 98.0976 18.6411 105.117V185.315C18.6411 195.803 21.3704 206.086 26.4123 215.281C29.297 220.541 32.3309 227.659 34.2208 236.574C38.753 257.936 33.5743 313.596 30.9818 340.13C28.7872 362.648 25.6601 386.559 24.7586 393.292C24.5908 394.535 24.5099 395.791 24.5099 397.047V467.777C24.5099 472.776 25.8279 477.681 28.3334 482.008L30.5466 485.831C35.6259 494.597 44.9886 500 55.1223 500H128.7C138.834 500 148.197 494.597 153.276 485.831L155.489 482.008C157.995 477.681 159.313 472.776 159.313 467.777V397.047C159.313 395.791 159.232 394.535 159.064 393.292C158.169 386.559 155.035 362.648 152.841 340.13C150.254 313.59 145.076 257.93 149.608 236.574C151.498 227.653 154.525 220.541 157.416 215.281Z" fill="white"/>
</mask>
<g mask="url(#mask1_7_8855)">
<path d="M216.975 92.8879H0.145508V203.569H216.975V92.8879Z" fill="#DB5E0B"/>
</g>
<mask id="mask2_7_8855" style="mask-type:luminance" maskUnits="userSpaceOnUse" x="18" y="29" width="148" height="471">
<path d="M157.416 215.281C162.458 206.086 165.188 195.803 165.188 185.315V105.117C165.188 98.0976 162.589 91.3273 157.889 86.1112L125.449 50.1025C120.749 44.8865 118.15 38.1162 118.15 31.0972V29.916H65.6787V31.0972C65.6787 38.1162 63.08 44.8865 58.38 50.1025L25.9398 86.1112C21.2398 91.3273 18.6411 98.0976 18.6411 105.117V185.315C18.6411 195.803 21.3704 206.086 26.4123 215.281C29.297 220.541 32.3309 227.659 34.2208 236.574C38.753 257.936 33.5743 313.596 30.9818 340.13C28.7872 362.648 25.6601 386.559 24.7586 393.292C24.5908 394.535 24.5099 395.791 24.5099 397.047V467.777C24.5099 472.776 25.8279 477.681 28.3334 482.008L30.5466 485.831C35.6259 494.597 44.9886 500 55.1223 500H128.7C138.834 500 148.197 494.597 153.276 485.831L155.489 482.008C157.995 477.681 159.313 472.776 159.313 467.777V397.047C159.313 395.791 159.232 394.535 159.064 393.292C158.169 386.559 155.035 362.648 152.841 340.13C150.254 313.59 145.076 257.93 149.608 236.574C151.498 227.653 154.525 220.541 157.416 215.281Z" fill="white"/>
</mask>
<g mask="url(#mask2_7_8855)">
<path d="M157.416 215.281C162.458 206.086 165.187 195.803 165.187 185.315V105.117C165.187 98.0976 162.588 91.3273 157.888 86.1112L125.448 50.1025C120.748 44.8865 118.15 38.1162 118.15 31.0972V29.916H103.266V31.0972C103.266 38.1162 105.865 44.8865 110.565 50.1025L143.005 86.1112C147.705 91.3273 150.304 98.0976 150.304 105.117V185.315C150.304 195.803 147.574 206.086 142.533 215.281C139.648 220.541 136.614 227.659 134.724 236.574C130.192 257.936 135.371 313.596 137.957 340.13C140.151 362.648 143.279 386.559 144.18 393.292C144.348 394.535 144.429 395.791 144.429 397.047V467.777C144.429 472.776 143.111 477.681 140.605 482.008L138.392 485.831C133.313 494.597 123.95 500 113.816 500H128.7C138.833 500 148.196 494.597 153.275 485.831L155.489 482.008C157.994 477.681 159.312 472.776 159.312 467.777V397.047C159.312 395.791 159.231 394.535 159.063 393.292C158.168 386.559 155.035 362.648 152.84 340.13C150.254 313.59 145.075 257.93 149.607 236.574C151.504 227.653 154.531 220.541 157.416 215.281Z" fill="#F5DA11"/>
</g>
<mask id="mask3_7_8855" style="mask-type:luminance" maskUnits="userSpaceOnUse" x="18" y="29" width="148" height="471">
<path d="M157.416 215.281C162.458 206.086 165.188 195.803 165.188 185.315V105.117C165.188 98.0976 162.589 91.3273 157.889 86.1112L125.449 50.1025C120.749 44.8865 118.15 38.1162 118.15 31.0972V29.916H65.6787V31.0972C65.6787 38.1162 63.08 44.8865 58.38 50.1025L25.9398 86.1112C21.2398 91.3273 18.6411 98.0976 18.6411 105.117V185.315C18.6411 195.803 21.3704 206.086 26.4123 215.281C29.297 220.541 32.3309 227.659 34.2208 236.574C38.753 257.936 33.5743 313.596 30.9818 340.13C28.7872 362.648 25.6601 386.559 24.7586 393.292C24.5908 394.535 24.5099 395.791 24.5099 397.047V467.777C24.5099 472.776 25.8279 477.681 28.3334 482.008L30.5466 485.831C35.6259 494.597 44.9886 500 55.1223 500H128.7C138.834 500 148.197 494.597 153.276 485.831L155.489 482.008C157.995 477.681 159.313 472.776 159.313 467.777V397.047C159.313 395.791 159.232 394.535 159.064 393.292C158.169 386.559 155.035 362.648 152.841 340.13C150.254 313.59 145.076 257.93 149.608 236.574C151.498 227.653 154.525 220.541 157.416 215.281Z" fill="white"/>
</mask>
<g mask="url(#mask3_7_8855)">
<path d="M153.425 17.2583H25.6973V79.111H153.425V17.2583Z" fill="#AEDDFC"/>
</g>
<mask id="mask4_7_8855" style="mask-type:luminance" maskUnits="userSpaceOnUse" x="25" y="17" width="129" height="63">
<path d="M153.425 17.2583H25.6973V79.111H153.425V17.2583Z" fill="white"/>
</mask>
<g mask="url(#mask4_7_8855)">
<path d="M157.416 215.281C162.458 206.086 165.187 195.803 165.187 185.315V105.117C165.187 98.0976 162.588 91.3273 157.888 86.1112L125.448 50.1025C120.748 44.8865 118.15 38.1162 118.15 31.0972V29.916H103.266V31.0972C103.266 38.1162 105.865 44.8865 110.565 50.1025L143.005 86.1112C147.705 91.3273 150.304 98.0976 150.304 105.117V185.315C150.304 195.803 147.574 206.086 142.533 215.281C139.648 220.541 136.614 227.659 134.724 236.574C130.192 257.936 135.371 313.596 137.957 340.13C140.151 362.648 143.279 386.559 144.18 393.292C144.348 394.535 144.429 395.791 144.429 397.047V467.777C144.429 472.776 143.111 477.681 140.605 482.008L138.392 485.831C133.313 494.597 123.95 500 113.816 500H128.7C138.833 500 148.196 494.597 153.275 485.831L155.489 482.008C157.994 477.681 159.312 472.776 159.312 467.777V397.047C159.312 395.791 159.231 394.535 159.063 393.292C158.168 386.559 155.035 362.648 152.84 340.13C150.254 313.59 145.075 257.93 149.607 236.574C151.504 227.653 154.531 220.541 157.416 215.281Z" fill="#AEDDFC"/>
</g>
<path d="M120.631 19.9937H62.5205V35.0947H120.631V19.9937Z" fill="#E8F4FC"/>
<path d="M120.059 0H62.5205V19.9938H120.059V0Z" fill="#FFC20D"/>
<path d="M57.1367 79.9566C55.7255 79.9566 54.3142 79.453 53.1889 78.4396C51.8958 77.2708 51.2368 75.6669 51.2368 74.0505C51.2368 72.6392 51.7404 71.228 52.7538 70.1027L65.225 56.2637C67.4072 53.8391 71.1436 53.6464 73.5682 55.8285C74.8613 56.9973 75.5203 58.6013 75.5203 60.2177C75.5203 61.6289 75.0167 63.0402 74.0034 64.1655L61.5321 78.0044C60.3633 79.2976 58.7594 79.9566 57.1429 79.9566H57.1367Z" fill="#DBEFFC"/>
<path d="M39.9097 399.981C39.6796 399.981 39.4496 399.969 39.2134 399.938C36.0054 399.559 33.6989 396.68 34.0284 393.466L43.702 299.484C44.0315 296.276 46.8727 293.926 50.0806 294.206C53.2948 294.479 55.6883 297.283 55.4707 300.497C54.6501 312.446 53.5124 325.688 51.9084 342.17C49.8195 363.618 46.91 386.155 45.7598 394.846C45.3682 397.812 42.8316 399.975 39.9097 399.975V399.981Z" fill="#FCE537"/>
<path d="M39.6234 452.241C36.3595 452.241 33.7173 449.599 33.7173 446.335V426.913C33.7173 423.649 36.3595 421.007 39.6234 421.007C42.8873 421.007 45.5295 423.649 45.5295 426.913V446.335C45.5295 449.599 42.8873 452.241 39.6234 452.241Z" fill="#FCE537"/>
</svg>
