<svg width="226" height="450" viewBox="0 0 226 450" fill="none" xmlns="http://www.w3.org/2000/svg">
<g clip-path="url(#clip0_7_8769)">
<path d="M141.891 86.6218H0L42.0339 34.1162H183.966L141.891 86.6218Z" fill="#DBF1FD"/>
<path d="M226.042 86.6216H141.932V450H226.042V86.6216Z" fill="#299AEA"/>
<path d="M183.966 34.1162L167.677 54.4611L226 86.6218L183.966 34.1162Z" fill="#1379DA"/>
<path d="M226 86.6219L167.677 54.4612L141.891 86.6219H226Z" fill="#61B6F2"/>
<path d="M166.928 0H59.0308C49.6159 0 41.9923 7.61372 41.9923 16.9749V34.1161H183.924V16.9749C183.924 7.57211 176.301 0 166.928 0Z" fill="#299AEA"/>
<path d="M141.932 86.6632V450H0V86.6216L141.932 86.6632Z" fill="#B0E2FC"/>
<path d="M70.9869 336.127C98.596 336.127 120.978 313.774 120.978 286.201C120.978 258.628 98.596 236.275 70.9869 236.275C43.3777 236.275 20.9961 258.628 20.9961 286.201C20.9961 313.774 43.3777 336.127 70.9869 336.127Z" fill="white"/>
<path d="M92.3996 35.4473C87.3589 35.8217 81.8599 38.3596 77.3607 42.853C72.8616 47.3463 70.3204 52.8382 69.9454 57.8724L64.863 59.9527L73.1948 68.2321C73.1948 68.2321 73.3615 68.3985 73.4448 68.5233C79.4437 74.5144 90.9416 72.767 99.1067 64.6124C107.272 56.4578 109.022 44.9748 103.023 38.9837L94.4409 30.4131L92.358 35.4889L92.3996 35.4473Z" fill="#D32144"/>
<path d="M94.4825 30.3716C100.481 36.3627 98.7318 47.8457 90.5666 56.0003C82.4014 64.1549 70.9036 65.9023 64.9047 59.9112C58.9058 53.92 60.6554 42.4371 68.8206 34.2825C76.9858 26.1279 88.4836 24.3805 94.4825 30.3716Z" fill="#FF3D3D"/>
<path d="M90.0667 212.352H51.8654C47.9078 212.352 44.6584 209.107 44.6584 205.196C44.6584 201.285 47.9078 198.04 51.8654 198.04H90.0667C94.0243 198.04 97.2737 201.285 97.2737 205.196C97.2737 209.107 94.0243 212.352 90.0667 212.352Z" fill="#61B6F2"/>
<path d="M110.521 183.645H31.4109C27.4533 183.645 24.2039 180.399 24.2039 176.489C24.2039 172.578 27.4533 169.333 31.4109 169.333H110.521C114.479 169.333 117.728 172.578 117.728 176.489C117.728 180.399 114.479 183.645 110.521 183.645Z" fill="#61B6F2"/>
<path d="M45.8249 431.278H20.9961C18.4133 431.278 16.3303 429.156 16.3303 426.618C16.3303 424.08 18.4549 421.958 20.9961 421.958H45.8249C48.4077 421.958 50.4907 424.08 50.4907 426.618C50.4907 429.156 48.4077 431.278 45.8249 431.278Z" fill="#B0E2FC"/>
<path d="M120.936 431.278H69.4872C66.9044 431.278 64.8214 429.156 64.8214 426.618C64.8214 424.08 66.946 421.958 69.4872 421.958H120.936C123.519 421.958 125.602 424.08 125.602 426.618C125.602 429.197 123.519 431.278 120.936 431.278Z" fill="#B0E2FC"/>
<path d="M200.255 192.673H168.344C162.97 192.673 158.554 188.263 158.554 182.896V134.675C158.554 129.308 162.97 124.898 168.344 124.898H200.255C205.629 124.898 210.045 129.308 210.045 134.675V182.896C210.045 188.263 205.629 192.673 200.255 192.673Z" fill="#61B6F2"/>
<path d="M200.255 431.278H168.344C162.97 431.278 158.554 426.867 158.554 421.5V412.43C158.554 407.063 162.97 402.653 168.344 402.653H200.255C205.629 402.653 210.045 407.063 210.045 412.43V421.5C210.045 426.867 205.629 431.278 200.255 431.278Z" fill="#61B6F2"/>
<path d="M200.255 361.631H168.344C162.97 361.631 158.554 357.221 158.554 351.854V222.004C158.554 216.637 162.97 212.227 168.344 212.227H200.255C205.629 212.227 210.045 216.637 210.045 222.004V351.854C210.045 357.221 205.629 361.631 200.255 361.631Z" fill="#61B6F2"/>
<path d="M70.9869 387.717C80.9262 387.717 88.9836 379.67 88.9836 369.744C88.9836 359.817 80.9262 351.771 70.9869 351.771C61.0476 351.771 52.9902 359.817 52.9902 369.744C52.9902 379.67 61.0476 387.717 70.9869 387.717Z" fill="white"/>
</g>
<defs>
<clipPath id="clip0_7_8769">
<rect width="226" height="450" fill="white"/>
</clipPath>
</defs>
</svg>
