<svg width="401" height="236" viewBox="0 0 401 236" fill="none" xmlns="http://www.w3.org/2000/svg">
<path d="M372.466 0.720749H328.324V0.306641H149.596V235.62H210.724C211.272 235.667 211.819 235.694 212.38 235.694H366.115C376.808 235.694 385.477 227.024 385.477 216.331V52.2238C385.477 52.2238 385.477 52.2104 385.491 52.2037C394.394 47.5751 400.332 38.2109 400.185 27.6177C399.978 12.6297 387.461 0.720749 372.466 0.720749Z" fill="#B55D24"/>
<mask id="mask0_9_9013" style="mask-type:luminance" maskUnits="userSpaceOnUse" x="149" y="0" width="252" height="236">
<path d="M372.466 0.720749H328.324V0.306641H149.596V235.62H210.724C211.272 235.667 211.819 235.694 212.38 235.694H366.115C376.808 235.694 385.477 227.024 385.477 216.331V52.2238C385.477 52.2238 385.477 52.2104 385.491 52.2037C394.394 47.5751 400.332 38.2109 400.185 27.6177C399.978 12.6297 387.461 0.720749 372.466 0.720749Z" fill="white"/>
</mask>
<g mask="url(#mask0_9_9013)">
<path d="M507.76 53.3391H191.314V320.038H507.76V53.3391Z" fill="#CF773E"/>
</g>
<path d="M14.8974 216.945V52.2237C14.8974 52.2237 14.8974 52.2104 14.8841 52.2037C5.98077 47.5817 0.0496727 38.2175 0.189935 27.6177C0.396989 12.6296 12.9204 0.720703 27.9085 0.720703H193.739C208.727 0.720703 221.25 12.6296 221.457 27.6177C221.604 38.2108 215.666 47.5817 206.763 52.2037C206.756 52.2037 206.75 52.217 206.75 52.2237V216.331C206.75 227.024 198.08 235.694 187.387 235.694H33.6525C23.2932 235.694 14.9041 227.298 14.9041 216.945H14.8974Z" fill="#F29B63"/>
<path d="M194.18 11.3206H27.4677C18.2572 11.3206 10.7832 18.7879 10.7832 28.0051C10.7832 36.5477 17.2086 43.5876 25.4907 44.5694V208.89C25.4907 217.847 32.751 225.107 41.7077 225.107H178.397C188.202 225.107 196.15 217.159 196.15 207.354V44.5627C204.432 43.5876 210.857 36.5477 210.857 27.9984C210.857 18.7879 203.39 11.3206 194.173 11.3206H194.18Z" fill="#FCE4A4"/>
<path d="M78.5166 95.8253C82.2497 95.8253 85.2759 92.799 85.2759 89.066C85.2759 85.3329 82.2497 82.3066 78.5166 82.3066C74.7836 82.3066 71.7573 85.3329 71.7573 89.066C71.7573 92.799 74.7836 95.8253 78.5166 95.8253Z" fill="#FCE4A4"/>
<path d="M149.449 64.4933C155.045 64.4933 159.581 59.957 159.581 54.361C159.581 48.7651 155.045 44.2288 149.449 44.2288C143.853 44.2288 139.317 48.7651 139.317 54.361C139.317 59.957 143.853 64.4933 149.449 64.4933Z" fill="#EDC65F"/>
<path d="M65.0197 92.8187C65.7391 91.0964 64.926 89.1169 63.2037 88.3975C61.4814 87.6781 59.502 88.4912 58.7826 90.2135C58.0632 91.9358 58.8762 93.9152 60.5985 94.6346C62.3208 95.354 64.3003 94.541 65.0197 92.8187Z" fill="#EDC65F"/>
<path d="M110.135 99.8063C110.135 102.177 108.212 104.108 105.834 104.108C103.456 104.108 101.533 102.184 101.533 99.8063C101.533 97.4285 103.456 95.5049 105.834 95.5049C108.212 95.5049 110.135 97.4285 110.135 99.8063Z" fill="#EDC65F"/>
<path d="M84.9556 148.631C89.194 148.631 92.63 145.195 92.63 140.957C92.63 136.718 89.194 133.282 84.9556 133.282C80.7172 133.282 77.2812 136.718 77.2812 140.957C77.2812 145.195 80.7172 148.631 84.9556 148.631Z" fill="#EDC65F"/>
<path d="M168.177 120.078C171.401 120.078 174.015 117.464 174.015 114.24C174.015 111.016 171.401 108.402 168.177 108.402C164.953 108.402 162.34 111.016 162.34 114.24C162.34 117.464 164.953 120.078 168.177 120.078Z" fill="#EDC65F"/>
<path d="M159.17 145.044C161.925 143.063 162.553 139.223 160.572 136.468C158.59 133.713 154.75 133.085 151.995 135.067C149.24 137.048 148.613 140.888 150.594 143.643C152.575 146.398 156.415 147.026 159.17 145.044Z" fill="#EDC65F"/>
<path d="M85.2693 41.1629C88.663 41.1629 91.4142 38.4118 91.4142 35.0181C91.4142 31.6244 88.663 28.8733 85.2693 28.8733C81.8756 28.8733 79.1245 31.6244 79.1245 35.0181C79.1245 38.4118 81.8756 41.1629 85.2693 41.1629Z" fill="#EDC65F"/>
<path d="M47.7984 176.891C50.8527 176.891 53.3288 174.415 53.3288 171.36C53.3288 168.306 50.8527 165.83 47.7984 165.83C44.7441 165.83 42.2681 168.306 42.2681 171.36C42.2681 174.415 44.7441 176.891 47.7984 176.891Z" fill="#EDC65F"/>
<path d="M71.1358 189.474C71.1358 192.867 68.384 195.619 64.991 195.619C61.598 195.619 58.8462 192.867 58.8462 189.474C58.8462 186.081 61.598 183.329 64.991 183.329C68.384 183.329 71.1358 186.081 71.1358 189.474Z" fill="#EDC65F"/>
<path d="M171.249 176.276C174.813 176.276 177.701 173.387 177.701 169.824C177.701 166.261 174.813 163.372 171.249 163.372C167.686 163.372 164.797 166.261 164.797 169.824C164.797 173.387 167.686 176.276 171.249 176.276Z" fill="#EDC65F"/>
<path d="M373.929 16.891H228.363C224.803 16.891 221.918 14.0056 221.918 10.4456C221.918 6.88564 224.803 4.00024 228.363 4.00024H373.929C377.489 4.00024 380.381 6.88564 380.381 10.4456C380.381 14.0056 377.496 16.891 373.936 16.891H373.929Z" fill="#CF773E"/>
</svg>
