<svg width="428" height="180" viewBox="0 0 428 180" fill="none" xmlns="http://www.w3.org/2000/svg">
<g clip-path="url(#clip0_7_5436)">
<path d="M418.93 3.65503H6.92993V173.765H418.93V3.65503Z" fill="#9FB7D6"/>
<mask id="mask0_7_5436" style="mask-type:luminance" maskUnits="userSpaceOnUse" x="6" y="3" width="413" height="171">
<path d="M418.93 3.65503H6.92993V173.765H418.93V3.65503Z" fill="white"/>
</mask>
<g mask="url(#mask0_7_5436)">
<path d="M425.35 25.5151H2.68994V153.955H425.35V25.5151Z" fill="#2491D4"/>
</g>
<path d="M169.71 55.555C177.66 51.695 187.32 49.735 198.44 49.735C209.56 49.735 221.86 51.805 233.1 55.565C240.13 57.915 246.46 60.825 251.66 64.045C247.84 60.365 242.1 55.855 233.58 51.075C212.48 39.235 178.61 37.375 178.61 37.375L169.16 55.835C169.35 55.745 169.53 55.645 169.72 55.555H169.71Z" fill="white"/>
<path d="M302.79 70.3651L276.55 89.9351C276.55 89.9351 273.75 86.0451 257.64 71.2451C241.29 56.2151 197.33 44.5951 170.68 57.5551C167.64 59.0351 164.72 60.6951 161.94 62.4851C163.99 65.6451 167.27 71.6151 169.04 79.6351C171.13 89.1251 171.32 103.105 162.1 118.795C178.26 125.555 198.58 130.295 220.06 126.035C266.71 116.785 277.44 99.2051 277.44 99.2051L303.33 121.805C306.39 124.485 311.18 122.325 311.21 118.255L311.46 74.7651C311.49 70.2851 306.37 67.7051 302.78 70.3851L302.79 70.3651Z" fill="white"/>
<path d="M166.18 80.395C164.53 72.825 161.38 67.105 159.46 64.125C139.3 77.945 126.82 97.535 126.82 97.535C126.82 97.535 139.67 108.855 159.37 117.615C166.63 105.495 168.92 93.015 166.18 80.395ZM151.22 92.845C148.36 92.845 146.04 90.525 146.04 87.665C146.04 84.805 148.36 82.485 151.22 82.485C154.08 82.485 156.4 84.805 156.4 87.665C156.4 90.525 154.08 92.845 151.22 92.845Z" fill="white"/>
<path d="M50.0399 116.145C59.3459 116.145 66.8899 108.601 66.8899 99.2951C66.8899 89.9891 59.3459 82.4451 50.0399 82.4451C40.7339 82.4451 33.1899 89.9891 33.1899 99.2951C33.1899 108.601 40.7339 116.145 50.0399 116.145Z" fill="white"/>
<path d="M84.6698 58.3051C89.447 58.3051 93.3198 54.4324 93.3198 49.6551C93.3198 44.8779 89.447 41.0051 84.6698 41.0051C79.8925 41.0051 76.0198 44.8779 76.0198 49.6551C76.0198 54.4324 79.8925 58.3051 84.6698 58.3051Z" fill="white"/>
<path d="M117.47 136.645C121.745 136.645 125.21 133.18 125.21 128.905C125.21 124.63 121.745 121.165 117.47 121.165C113.195 121.165 109.73 124.63 109.73 128.905C109.73 133.18 113.195 136.645 117.47 136.645Z" fill="white"/>
<path d="M338.82 136.645C342.089 136.645 344.74 133.995 344.74 130.725C344.74 127.456 342.089 124.805 338.82 124.805C335.55 124.805 332.9 127.456 332.9 130.725C332.9 133.995 335.55 136.645 338.82 136.645Z" fill="white"/>
<path d="M339.27 69.2352C345.052 69.2352 349.74 64.5476 349.74 58.7652C349.74 52.9827 345.052 48.2952 339.27 48.2952C333.487 48.2952 328.8 52.9827 328.8 58.7652C328.8 64.5476 333.487 69.2352 339.27 69.2352Z" fill="white"/>
<path d="M391.19 124.805C400.247 124.805 407.59 117.463 407.59 108.405C407.59 99.3477 400.247 92.0051 391.19 92.0051C382.132 92.0051 374.79 99.3477 374.79 108.405C374.79 117.463 382.132 124.805 391.19 124.805Z" fill="white"/>
<path d="M418.93 3.65503H362.93V173.765H418.93V3.65503Z" fill="#B8D2F7"/>
<path d="M420.34 15.2651H8.38987C4.22987 15.2651 0.869873 11.9051 0.869873 7.75511C0.869873 3.59511 4.22987 0.235107 8.38987 0.235107H420.35C424.5 0.235107 427.87 3.59511 427.87 7.75511C427.87 11.9051 424.51 15.2751 420.35 15.2751L420.34 15.2651Z" fill="#D1DFF2"/>
<path d="M420.34 179.225H8.38987C4.23987 179.225 0.869873 175.865 0.869873 171.705C0.869873 167.555 4.22987 164.185 8.38987 164.185H420.35C424.5 164.185 427.87 167.545 427.87 171.705C427.87 175.855 424.51 179.225 420.35 179.225H420.34Z" fill="#D1DFF2"/>
</g>
<defs>
<clipPath id="clip0_7_5436">
<rect width="426.99" height="179.53" fill="white" transform="translate(0.869873 0.235107)"/>
</clipPath>
</defs>
</svg>
