<svg width="177" height="380" viewBox="0 0 177 380" fill="none" xmlns="http://www.w3.org/2000/svg">
<path d="M173.831 18.6183L162.531 4.03247H14.325L3.02432 18.6183C1.06451 21.1491 0 24.2581 0 27.4586V355.122C0 358.95 1.52274 362.623 4.22982 365.33L16.4117 377.511H160.458L172.64 365.33C175.347 362.623 176.87 358.95 176.87 355.122V27.4586C176.87 24.2581 175.805 21.1491 173.846 18.6183H173.831Z" fill="#E32922"/>
<mask id="mask0_7_5336" style="mask-type:luminance" maskUnits="userSpaceOnUse" x="0" y="4" width="177" height="374">
<path d="M173.831 18.6183L162.531 4.03247H14.325L3.02432 18.6183C1.06451 21.1491 0 24.2581 0 27.4586V355.122C0 358.95 1.52274 362.623 4.22982 365.33L16.4117 377.511H160.458L172.64 365.33C175.347 362.623 176.87 358.95 176.87 355.122V27.4586C176.87 24.2581 175.805 21.1491 173.846 18.6183H173.831Z" fill="white"/>
</mask>
<g mask="url(#mask0_7_5336)">
<path d="M190.955 1.6709H137.561V427.43H190.955V1.6709Z" fill="#DE1D16"/>
</g>
<mask id="mask1_7_5336" style="mask-type:luminance" maskUnits="userSpaceOnUse" x="0" y="4" width="177" height="374">
<path d="M173.831 18.6183L162.531 4.03247H14.325L3.02432 18.6183C1.06451 21.1491 0 24.2581 0 27.4586V355.122C0 358.95 1.52274 362.623 4.22982 365.33L16.4117 377.511H160.458L172.64 365.33C175.347 362.623 176.87 358.95 176.87 355.122V27.4586C176.87 24.2581 175.805 21.1491 173.846 18.6183H173.831Z" fill="white"/>
</mask>
<g mask="url(#mask1_7_5336)">
<path d="M-12.647 320.55C-12.647 320.55 -3.63746 276.179 51.1387 256.073C105.908 235.968 166.232 235.622 189.108 181.889C211.985 128.157 205.4 123.306 205.4 123.306C205.4 123.306 174.931 205.104 99.3587 221.05C23.7859 236.997 1.21979 258.499 -12.647 320.55Z" fill="#EAE6FF"/>
</g>
<mask id="mask2_7_5336" style="mask-type:luminance" maskUnits="userSpaceOnUse" x="0" y="4" width="177" height="374">
<path d="M173.831 18.6183L162.531 4.03247H14.325L3.02432 18.6183C1.06451 21.1491 0 24.2581 0 27.4586V355.122C0 358.95 1.52274 362.623 4.22982 365.33L16.4117 377.511H160.458L172.64 365.33C175.347 362.623 176.87 358.95 176.87 355.122V27.4586C176.87 24.2581 175.805 21.1491 173.846 18.6183H173.831Z" fill="white"/>
</mask>
<g mask="url(#mask2_7_5336)">
<path d="M-8.0508 351.385C-8.0508 351.385 3.04543 289.672 77.2365 269.559C151.428 249.447 178.477 257.074 201.361 189.813C224.244 122.552 237.42 180.797 237.42 180.797C237.42 180.797 231.752 238.033 170.046 265.767C108.34 293.5 49.0588 285.872 5.73136 361.445C-37.5961 437.018 -8.0508 351.378 -8.0508 351.378V351.385Z" fill="#EAE6FF"/>
</g>
<path d="M146.507 87.4587H20.7757C18.2237 87.4587 16.1511 85.3861 16.1511 82.8341C16.1511 80.2821 18.2237 78.2095 20.7757 78.2095H146.507C149.059 78.2095 151.132 80.275 151.132 82.8341C151.132 85.3861 149.059 87.4587 146.507 87.4587Z" fill="#EAE6FF"/>
<path d="M67.6984 114.043H22.397C19.7182 114.043 17.5398 111.872 17.5398 109.186C17.5398 106.507 19.7111 104.329 22.397 104.329H67.6984C70.3773 104.329 72.5557 106.5 72.5557 109.186C72.5557 111.865 70.3844 114.043 67.6984 114.043Z" fill="#EAE6FF"/>
<mask id="mask3_7_5336" style="mask-type:luminance" maskUnits="userSpaceOnUse" x="0" y="4" width="177" height="374">
<path d="M173.831 18.6183L162.531 4.03247H14.325L3.02432 18.6183C1.06451 21.1491 0 24.2581 0 27.4586V355.122C0 358.95 1.52274 362.623 4.22982 365.33L16.4117 377.511H160.458L172.64 365.33C175.347 362.623 176.87 358.95 176.87 355.122V27.4586C176.87 24.2581 175.805 21.1491 173.846 18.6183H173.831Z" fill="white"/>
</mask>
<g mask="url(#mask3_7_5336)">
<path d="M57.7582 14.8889H27.2471V400.395H57.7582V14.8889Z" fill="#E32922"/>
</g>
<mask id="mask4_7_5336" style="mask-type:luminance" maskUnits="userSpaceOnUse" x="0" y="4" width="177" height="374">
<path d="M173.831 18.6183L162.531 4.03247H14.325L3.02432 18.6183C1.06451 21.1491 0 24.2581 0 27.4586V355.122C0 358.95 1.52274 362.623 4.22982 365.33L16.4117 377.511H160.458L172.64 365.33C175.347 362.623 176.87 358.95 176.87 355.122V27.4586C176.87 24.2581 175.805 21.1491 173.846 18.6183H173.831Z" fill="white"/>
</mask>
<g mask="url(#mask4_7_5336)">
<path d="M198.59 365.02H0.268066V417.025H198.59V365.02Z" fill="#C8C1E8"/>
</g>
<path d="M163.454 380H13.6977C11.9776 380 10.5747 378.604 10.5747 376.877C10.5747 375.157 11.9705 373.754 13.6977 373.754H163.454C165.175 373.754 166.578 375.15 166.578 376.877C166.578 378.597 165.182 380 163.454 380Z" fill="#E0DAFA"/>
<mask id="mask5_7_5336" style="mask-type:luminance" maskUnits="userSpaceOnUse" x="0" y="4" width="177" height="374">
<path d="M173.831 18.6183L162.531 4.03247H14.325L3.02432 18.6183C1.06451 21.1491 0 24.2581 0 27.4586V355.122C0 358.95 1.52274 362.623 4.22982 365.33L16.4117 377.511H160.458L172.64 365.33C175.347 362.623 176.87 358.95 176.87 355.122V27.4586C176.87 24.2581 175.805 21.1491 173.846 18.6183H173.831Z" fill="white"/>
</mask>
<g mask="url(#mask5_7_5336)">
<path d="M193.655 4.25806H-8.3396V23.2076H193.655V4.25806Z" fill="#FF514A"/>
</g>
<path d="M163.454 6.24604H13.6977C11.9776 6.24604 10.5747 4.85019 10.5747 3.12302C10.5747 1.40289 11.9705 0 13.6977 0H163.454C165.175 0 166.578 1.39584 166.578 3.12302C166.578 4.84314 165.182 6.24604 163.454 6.24604Z" fill="#DDD7F7"/>
<mask id="mask6_7_5336" style="mask-type:luminance" maskUnits="userSpaceOnUse" x="0" y="4" width="177" height="374">
<path d="M173.831 18.6183L162.531 4.03247H14.325L3.02432 18.6183C1.06451 21.1491 0 24.2581 0 27.4586V355.122C0 358.95 1.52274 362.623 4.22982 365.33L16.4117 377.511H160.458L172.64 365.33C175.347 362.623 176.87 358.95 176.87 355.122V27.4586C176.87 24.2581 175.805 21.1491 173.846 18.6183H173.831Z" fill="white"/>
</mask>
<g mask="url(#mask6_7_5336)">
<mask id="mask7_7_5336" style="mask-type:luminance" maskUnits="userSpaceOnUse" x="-13" y="123" width="220" height="198">
<path d="M-12.647 320.55C-12.647 320.55 -3.63746 276.179 51.1387 256.073C105.908 235.968 166.232 235.622 189.108 181.889C211.985 128.157 205.4 123.306 205.4 123.306C205.4 123.306 174.931 205.104 99.3587 221.05C23.7859 236.997 1.21979 258.499 -12.647 320.55Z" fill="white"/>
</mask>
<g mask="url(#mask7_7_5336)">
<path d="M190.955 1.6709H137.561V427.43H190.955V1.6709Z" fill="#D4CDFC"/>
</g>
</g>
<mask id="mask8_7_5336" style="mask-type:luminance" maskUnits="userSpaceOnUse" x="0" y="4" width="177" height="374">
<path d="M173.831 18.6183L162.531 4.03247H14.325L3.02432 18.6183C1.06451 21.1491 0 24.2581 0 27.4586V355.122C0 358.95 1.52274 362.623 4.22982 365.33L16.4117 377.511H160.458L172.64 365.33C175.347 362.623 176.87 358.95 176.87 355.122V27.4586C176.87 24.2581 175.805 21.1491 173.846 18.6183H173.831Z" fill="white"/>
</mask>
<g mask="url(#mask8_7_5336)">
<mask id="mask9_7_5336" style="mask-type:luminance" maskUnits="userSpaceOnUse" x="-18" y="157" width="256" height="236">
<path d="M-8.0508 351.385C-8.0508 351.385 3.04543 289.672 77.2365 269.559C151.428 249.447 178.477 257.074 201.361 189.813C224.244 122.552 237.42 180.797 237.42 180.797C237.42 180.797 231.752 238.033 170.046 265.767C108.34 293.5 49.0588 285.872 5.73136 361.445C-37.5961 437.018 -8.0508 351.378 -8.0508 351.378V351.385Z" fill="white"/>
</mask>
<g mask="url(#mask9_7_5336)">
<path d="M190.955 1.67065H137.561V427.43H190.955V1.67065Z" fill="#D4CDFC"/>
</g>
</g>
</svg>
