<svg width="234" height="320" viewBox="0 0 234 320" fill="none" xmlns="http://www.w3.org/2000/svg">
<g clip-path="url(#clip0_7_8714)">
<path d="M222.802 13.1184H10.4893V306.882H222.802V13.1184Z" fill="#E53613"/>
<path d="M219.966 13.1183H13.292C6.01806 13.1183 0.145508 7.25835 0.145508 0H233.146C233.146 7.25835 227.273 13.1183 219.999 13.1183H219.966Z" fill="#A0ABBA"/>
<path d="M13.292 306.882H219.966C227.24 306.882 233.112 312.742 233.112 320H0.145508C0.145508 312.742 6.01805 306.882 13.292 306.882Z" fill="#A0ABBA"/>
<path d="M221.834 36.1252H11.6903C8.28685 36.1252 5.55078 33.3617 5.55078 29.9989C5.55078 26.6028 8.32022 23.8726 11.6903 23.8726H221.834C225.237 23.8726 227.973 26.6361 227.973 29.9989C227.973 33.395 225.204 36.1252 221.834 36.1252Z" fill="#E53613"/>
<path d="M221.834 55.8027H11.6903C8.28685 55.8027 5.55078 53.0392 5.55078 49.6764C5.55078 46.2803 8.32022 43.55 11.6903 43.55H221.834C225.237 43.55 227.973 46.3135 227.973 49.6764C227.973 53.0725 225.204 55.8027 221.834 55.8027Z" fill="#E53613"/>
<path d="M221.834 274.985H11.6903C8.28685 274.985 5.55078 272.222 5.55078 268.859C5.55078 265.463 8.32022 262.732 11.6903 262.732H221.834C225.237 262.732 227.973 265.496 227.973 268.859C227.973 272.255 225.204 274.985 221.834 274.985Z" fill="#E53613"/>
<path d="M221.834 294.663H11.6903C8.28685 294.663 5.55078 291.899 5.55078 288.536C5.55078 285.14 8.32022 282.41 11.6903 282.41H221.834C225.237 282.41 227.973 285.173 227.973 288.536C227.973 291.932 225.204 294.663 221.834 294.663Z" fill="#E53613"/>
<path d="M32.6115 129.119C28.4073 129.119 25.0039 125.723 25.0039 121.527V37.5903C25.0039 33.3951 28.4073 29.999 32.6115 29.999C36.8157 29.999 40.2191 33.3951 40.2191 37.5903V121.561C40.2191 125.756 36.8157 129.152 32.6115 129.152V129.119Z" fill="white"/>
<path d="M222.802 137.542H10.4893V177.796H222.802V137.542Z" fill="#EFBB2B"/>
<path d="M119.866 254.608C154.16 254.608 181.961 208.725 181.961 152.126C181.961 95.5261 154.16 49.6431 119.866 49.6431C85.5711 49.6431 57.77 95.5261 57.77 152.126C57.77 208.725 85.5711 254.608 119.866 254.608Z" fill="#EFBB2B"/>
<path d="M119.865 244.753C149.571 244.753 173.653 203.282 173.653 152.126C173.653 100.969 149.571 59.4985 119.865 59.4985C90.1595 59.4985 66.0781 100.969 66.0781 152.126C66.0781 203.282 90.1595 244.753 119.865 244.753Z" fill="white"/>
<path d="M133.313 124.99C138.217 122.226 139.786 115.734 139.786 115.734C139.786 115.734 127.173 117.199 122.268 119.962C117.33 122.726 121.968 125.722 121.968 125.722C121.968 125.722 128.408 127.72 133.313 124.957V124.99Z" fill="#288941"/>
<path d="M120.199 105.346C120.299 106.744 120.333 108.043 120.333 109.208C120.333 110.973 120.232 112.471 120.132 113.503C120.066 114.003 120.032 114.402 119.999 114.669C119.965 114.935 119.932 115.101 119.932 115.101L122.935 115.701C122.935 115.701 122.969 115.534 123.035 115.268C123.102 114.968 123.202 114.535 123.336 113.969C123.569 112.871 123.836 111.306 124.07 109.408C124.236 107.976 124.37 106.345 124.437 104.58C123.002 104.813 121.6 105.046 120.166 105.313L120.199 105.346Z" fill="#1F7732"/>
<path d="M163.042 154.257C163.042 177.264 143.756 197.207 119.966 197.207C96.1751 197.207 76.8892 177.264 76.8892 154.257C76.8892 131.25 94.7737 115.967 119.966 123.958C146.425 114.336 163.042 131.25 163.042 154.257Z" fill="#E53613"/>
<path d="M120.266 115.567C124.737 111.872 135.014 111.206 135.014 111.206C135.014 111.206 132.478 121.194 128.007 124.89C123.536 128.586 118.831 124.624 118.831 124.624C118.831 124.624 115.761 119.297 120.232 115.601L120.266 115.567Z" fill="#319B51"/>
<path d="M112.024 123.625C108.688 118.897 108.854 108.609 108.854 108.609C108.854 108.609 118.597 111.938 121.968 116.666C125.304 121.394 120.967 125.756 120.967 125.756C120.967 125.756 115.394 128.353 112.058 123.625H112.024Z" fill="#288941"/>
<path d="M106.819 125.09C102.048 122.093 100.847 115.534 100.847 115.534C100.847 115.534 113.359 117.632 118.131 120.662C122.902 123.658 118.131 126.455 118.131 126.455C118.131 126.455 111.591 128.12 106.819 125.09Z" fill="#1F7732"/>
</g>
<defs>
<clipPath id="clip0_7_8714">
<rect width="233" height="320" fill="white" transform="translate(0.145508)"/>
</clipPath>
</defs>
</svg>
