<svg width="351" height="450" viewBox="0 0 351 450" fill="none" xmlns="http://www.w3.org/2000/svg">
<path d="M3.93036 15.1572L285.159 0.185791L349.388 18.2715L350.016 449.786L63.2446 445.872L0.1875 417.357L3.93036 15.1572Z" fill="#FFAE61"/>
<path d="M269.388 448.7L272.502 448.757C271.188 439.671 269.788 430.585 268.388 421.528C268.331 430.014 268.388 438.5 268.445 446.985C268.759 447.557 269.074 448.128 269.388 448.728V448.7Z" fill="#FFAE61"/>
<path d="M349.673 211.614C331.216 291.3 308.673 370.043 287.645 448.957L350.016 449.814L349.673 211.614Z" fill="#FFAE61"/>
<path d="M269.388 448.7C269.074 448.129 268.76 447.529 268.445 446.958C268.445 447.529 268.445 448.1 268.445 448.7H269.388Z" fill="#FFAE61"/>
<path d="M1.01607 329.758L0.1875 417.358L63.2446 445.872L155.016 447.129C103.159 408.872 51.4446 370.186 0.9875 329.758H1.01607Z" fill="#FFAE61"/>
<path d="M3.93036 15.1572L61.2161 29.2715L349.388 18.2715L350.016 449.786L63.2446 445.872L0.1875 417.357L3.93036 15.1572Z" fill="#FF9027"/>
<mask id="mask0_35_2672" style="mask-type:luminance" maskUnits="userSpaceOnUse" x="0" y="15" width="351" height="435">
<path d="M3.93036 15.1572L61.2161 29.2715L349.388 18.2715L350.016 449.786L63.2446 445.872L0.1875 417.357L3.93036 15.1572Z" fill="white"/>
</mask>
<g mask="url(#mask0_35_2672)">
<path d="M182.102 24.6431L61.2158 29.2431L61.7301 136.443C151.502 242.872 254.102 336.443 337.13 449.586L347.959 449.729C309.302 335.957 266.673 223.214 214.759 114.215C202.816 85.5859 190.902 55.3574 182.073 24.6145L182.102 24.6431Z" fill="#E38326"/>
</g>
<mask id="mask1_35_2672" style="mask-type:luminance" maskUnits="userSpaceOnUse" x="0" y="15" width="351" height="435">
<path d="M3.93036 15.1572L61.2161 29.2715L349.388 18.2715L350.016 449.786L63.2446 445.872L0.1875 417.357L3.93036 15.1572Z" fill="white"/>
</mask>
<g mask="url(#mask1_35_2672)">
<path d="M309.016 19.814L240.702 22.414C278.302 147.471 311.645 275.271 349.931 401.185L349.731 273.385C335.645 189.128 322.302 104.471 308.988 19.814H309.016Z" fill="#E38326"/>
</g>
<mask id="mask2_35_2672" style="mask-type:luminance" maskUnits="userSpaceOnUse" x="0" y="15" width="351" height="435">
<path d="M3.93036 15.1572L61.2161 29.2715L349.388 18.2715L350.016 449.786L63.2446 445.872L0.1875 417.357L3.93036 15.1572Z" fill="white"/>
</mask>
<g mask="url(#mask2_35_2672)">
<path d="M62.7015 334.272C141.816 373.643 222.244 412.415 304.559 445.986C223.073 372.472 139.187 301.329 62.1587 223.329L62.7015 334.272Z" fill="#E38326"/>
</g>
<mask id="mask3_35_2672" style="mask-type:luminance" maskUnits="userSpaceOnUse" x="0" y="15" width="351" height="435">
<path d="M3.93036 15.1572L61.2161 29.2715L349.388 18.2715L350.016 449.786L63.2446 445.872L0.1875 417.357L3.93036 15.1572Z" fill="white"/>
</mask>
<g mask="url(#mask3_35_2672)">
<path d="M240.388 306.786C194.502 312.358 150.445 332.272 115.959 363.1C84.2162 391.472 59.9019 431.9 62.6448 474.386C64.9305 510.129 86.6733 543.129 116.416 563.072C146.159 583.015 183.073 590.643 218.845 588.672C257.159 586.558 294.816 573.729 326.445 552.015C360.759 528.443 388.188 493.786 399.216 453.643C408.816 418.758 405.188 380.129 387.473 348.415C372.216 321.072 334.588 313.272 305.73 308.386C284.188 304.729 262.102 304.158 240.388 306.786Z" fill="#DCEDEC"/>
</g>
<mask id="mask4_35_2672" style="mask-type:luminance" maskUnits="userSpaceOnUse" x="0" y="15" width="351" height="435">
<path d="M3.93036 15.1572L61.2161 29.2715L349.388 18.2715L350.016 449.786L63.2446 445.872L0.1875 417.357L3.93036 15.1572Z" fill="white"/>
</mask>
<g mask="url(#mask4_35_2672)">
<path d="M257.302 335.9C216.13 340.9 176.645 358.757 145.73 386.385C117.273 411.843 95.4731 448.071 97.9016 486.185C99.9588 518.243 119.445 547.843 146.13 565.728C172.816 583.614 205.902 590.471 237.987 588.7C272.33 586.814 306.102 575.3 334.473 555.843C365.245 534.7 389.816 503.614 399.73 467.614C408.33 436.328 405.073 401.7 389.216 373.243C375.53 348.7 341.787 341.728 315.93 337.357C296.587 334.1 276.787 333.557 257.33 335.928L257.302 335.9Z" fill="white"/>
</g>
<mask id="mask5_35_2672" style="mask-type:luminance" maskUnits="userSpaceOnUse" x="0" y="15" width="351" height="435">
<path d="M3.93036 15.1572L61.2161 29.2715L349.388 18.2715L350.016 449.786L63.2446 445.872L0.1875 417.357L3.93036 15.1572Z" fill="white"/>
</mask>
<g mask="url(#mask5_35_2672)">
<path d="M304.101 335.071C304.444 334.243 304.816 333.386 305.53 332.843C306.159 332.357 306.987 332.186 307.787 332.043C320.044 329.843 333.644 330.214 343.759 337.471C344.216 337.786 344.673 338.157 344.873 338.671C345.101 339.271 344.93 339.928 344.759 340.557C342.416 349.014 339.273 357.243 335.416 365.128C335.101 365.786 334.759 366.443 334.216 366.9C333.559 367.471 332.673 367.7 331.844 367.9C327.444 368.928 322.987 369.614 318.473 369.986C314.559 370.3 310.559 370.357 306.816 369.214C301.301 367.528 296.873 363.414 297.644 357.5C298.644 349.871 301.159 342.186 304.073 335.1L304.101 335.071Z" fill="#D49051"/>
</g>
<mask id="mask6_35_2672" style="mask-type:luminance" maskUnits="userSpaceOnUse" x="0" y="15" width="351" height="435">
<path d="M3.93036 15.1572L61.2161 29.2715L349.388 18.2715L350.016 449.786L63.2446 445.872L0.1875 417.357L3.93036 15.1572Z" fill="white"/>
</mask>
<g mask="url(#mask6_35_2672)">
<path d="M293.474 441.7C297.302 435.728 301.102 429.757 304.931 423.785C305.302 423.214 305.674 422.614 306.245 422.214C306.902 421.728 307.731 421.585 308.531 421.471C319.674 419.928 331.445 424.643 338.445 433.471C339.874 435.271 341.159 437.357 341.188 439.643C341.216 441.671 340.274 443.585 339.331 445.385C335.359 452.728 330.445 459.585 324.788 465.728C324.274 466.3 323.731 466.843 323.074 467.214C322.245 467.643 321.302 467.757 320.359 467.814C311.102 468.471 301.674 466.557 293.331 462.443C290.045 460.814 285.102 459.214 285.874 455.157C286.731 450.643 291.045 445.528 293.502 441.7H293.474Z" fill="#D49051"/>
</g>
<mask id="mask7_35_2672" style="mask-type:luminance" maskUnits="userSpaceOnUse" x="0" y="15" width="351" height="435">
<path d="M3.93036 15.1572L61.2161 29.2715L349.388 18.2715L350.016 449.786L63.2446 445.872L0.1875 417.357L3.93036 15.1572Z" fill="white"/>
</mask>
<g mask="url(#mask7_35_2672)">
<path d="M253.445 331.472C253.559 330.843 253.674 330.186 254.045 329.672C254.702 328.729 255.959 328.443 257.102 328.243C267.131 326.529 277.502 326.757 287.445 328.957C288.502 329.186 289.617 329.5 290.331 330.329C291.045 331.186 291.074 332.415 291.102 333.557C291.188 342.843 291.274 352.157 291.359 361.443C291.359 364.329 291.302 367.529 289.388 369.672C287.931 371.3 285.759 371.986 283.674 372.529C277.959 374.043 272.074 375.157 266.188 374.786C262.017 374.529 257.845 373.5 254.159 371.5C249.588 369.015 250.017 367.1 250.188 362.215C250.559 351.9 251.674 341.615 253.502 331.472H253.445Z" fill="#D49051"/>
</g>
<mask id="mask8_35_2672" style="mask-type:luminance" maskUnits="userSpaceOnUse" x="0" y="15" width="351" height="435">
<path d="M3.93036 15.1572L61.2161 29.2715L349.388 18.2715L350.016 449.786L63.2446 445.872L0.1875 417.357L3.93036 15.1572Z" fill="white"/>
</mask>
<g mask="url(#mask8_35_2672)">
<path d="M272.102 355.7C272.273 355.186 272.444 354.614 272.816 354.214C273.416 353.586 274.33 353.443 275.187 353.357C287.073 352.157 299.159 352.786 310.873 355.186C311.33 370.929 310.673 386.672 308.902 402.3C308.816 403.1 308.673 403.986 308.102 404.529C307.616 404.986 306.959 405.129 306.302 405.272C296.844 407.157 287.13 407.7 277.53 406.9C273.587 406.557 269.216 405.729 266.959 402.5C263.53 397.557 266.33 385.357 267.016 379.7C268.016 371.557 269.702 363.5 272.102 355.672V355.7Z" fill="#C27F40"/>
</g>
<mask id="mask9_35_2672" style="mask-type:luminance" maskUnits="userSpaceOnUse" x="0" y="15" width="351" height="435">
<path d="M3.93036 15.1572L61.2161 29.2715L349.388 18.2715L350.016 449.786L63.2446 445.872L0.1875 417.357L3.93036 15.1572Z" fill="white"/>
</mask>
<g mask="url(#mask9_35_2672)">
<path d="M212.388 343.643C212.959 342.843 213.588 342.015 214.445 341.558C215.273 341.129 216.245 341.043 217.188 341.015C229.445 340.558 241.359 345.243 252.045 351.272C252.788 351.672 253.53 352.129 253.93 352.872C254.33 353.586 254.302 354.443 254.245 355.272C253.673 363.672 250.445 371.643 246.902 379.3C243.902 385.758 240.673 392.072 237.445 398.415C237.188 398.9 236.93 399.415 236.445 399.672C235.873 399.986 235.188 399.815 234.559 399.672C225.788 397.5 217.245 394.3 209.188 390.186C206.673 388.9 204.159 387.5 202.33 385.329C197.559 379.672 200.645 372.072 202.216 365.786C204.188 357.872 207.645 350.329 212.359 343.672L212.388 343.643Z" fill="#C27F40"/>
</g>
<mask id="mask10_35_2672" style="mask-type:luminance" maskUnits="userSpaceOnUse" x="0" y="15" width="351" height="435">
<path d="M3.93036 15.1572L61.2161 29.2715L349.388 18.2715L350.016 449.786L63.2446 445.872L0.1875 417.357L3.93036 15.1572Z" fill="white"/>
</mask>
<g mask="url(#mask10_35_2672)">
<path d="M170.159 362.7C171.759 359.757 173.816 356.7 177.016 355.786C178.987 355.214 181.073 355.557 183.073 355.9C192.245 357.529 201.359 359.443 210.416 361.672C211.216 361.872 212.073 362.1 212.53 362.786C212.987 363.443 212.93 364.3 212.845 365.1C211.645 376.586 209.645 387.957 206.873 399.157C206.73 399.786 206.559 400.414 206.13 400.929C205.759 401.386 205.187 401.672 204.616 401.9C200.53 403.557 195.902 402.843 191.53 402.1C185.787 401.129 180.045 400.186 174.302 399.214C166.759 397.957 160.016 396.586 161.445 387.957C162.902 379.129 165.845 370.557 170.13 362.7H170.159Z" fill="#D49051"/>
</g>
<mask id="mask11_35_2672" style="mask-type:luminance" maskUnits="userSpaceOnUse" x="0" y="15" width="351" height="435">
<path d="M3.93036 15.1572L61.2161 29.2715L349.388 18.2715L350.016 449.786L63.2446 445.872L0.1875 417.357L3.93036 15.1572Z" fill="white"/>
</mask>
<g mask="url(#mask11_35_2672)">
<path d="M339.073 253.357C337.902 250.157 335.245 247.043 331.845 246.986C330.073 246.957 328.359 247.757 326.816 248.643C318.073 253.814 312.416 262.786 307.13 271.471C287.016 304.414 267.387 337.643 248.816 371.471C245.616 377.3 242.387 383.214 238.187 388.386C237.987 388.328 237.816 388.243 237.616 388.186C235.845 387.757 233.987 387.843 232.159 388.043C228.102 388.443 224.102 389.157 220.13 390.071C211.445 392.071 202.987 395.043 194.93 398.871C188.416 401.986 182.016 405.786 177.359 411.328C175.673 413.357 174.245 415.614 173.187 418.014C171.502 421.843 170.359 426.871 171.587 431.014C172.645 434.614 176.473 437.528 179.759 438.928C182.987 440.328 186.502 440.9 189.987 441.414C194.302 442.043 198.645 442.643 203.016 442.414C211.616 441.986 219.902 438.443 226.616 433.071C233.33 427.7 238.53 420.586 242.359 412.871C244.502 408.528 246.245 403.814 245.845 398.986C245.816 398.614 245.73 398.243 245.673 397.871C247.987 395.9 250.016 393.528 251.959 391.157C260.216 381.071 266.387 368.586 274.645 358.5C295.987 332.357 320.245 296.157 333.416 272.7C337.673 265.157 342.13 261.471 339.159 253.357H339.073Z" fill="#AED4D2"/>
</g>
<mask id="mask12_35_2672" style="mask-type:luminance" maskUnits="userSpaceOnUse" x="0" y="15" width="351" height="435">
<path d="M3.93036 15.1572L61.2161 29.2715L349.388 18.2715L350.016 449.786L63.2446 445.872L0.1875 417.357L3.93036 15.1572Z" fill="white"/>
</mask>
<g mask="url(#mask12_35_2672)">
<path d="M180.558 410.757C177.73 413.072 174.93 415.614 173.158 418.986C171.387 422.357 170.816 426.729 172.501 430.129C175.473 436.1 183.158 436.186 189.244 434.929C204.273 431.786 218.73 425.186 231.387 415.672C234.644 413.214 237.873 410.472 239.987 406.757C243.501 400.557 242.558 393.072 236.33 389.929C231.073 387.272 224.644 389.643 219.33 391.014C205.416 394.643 192.13 401.386 180.616 410.757H180.558Z" fill="#95B5B3"/>
</g>
<mask id="mask13_35_2672" style="mask-type:luminance" maskUnits="userSpaceOnUse" x="0" y="15" width="351" height="435">
<path d="M3.93036 15.1572L61.2161 29.2715L349.388 18.2715L350.016 449.786L63.2446 445.872L0.1875 417.357L3.93036 15.1572Z" fill="white"/>
</mask>
<g mask="url(#mask13_35_2672)">
<path d="M298.073 449.072H149.673V417.929C149.673 417.929 211.159 425.1 231.759 424.872C248.416 424.7 298.073 417.929 298.073 417.929V449.072Z" fill="white"/>
</g>
<mask id="mask14_35_2672" style="mask-type:luminance" maskUnits="userSpaceOnUse" x="0" y="15" width="351" height="435">
<path d="M3.93036 15.1572L61.2161 29.2715L349.388 18.2715L350.016 449.786L63.2446 445.872L0.1875 417.357L3.93036 15.1572Z" fill="white"/>
</mask>
<g mask="url(#mask14_35_2672)">
<path d="M247.188 390.215C254.273 378.5 262.073 367.215 269.873 356.015L293.616 322.586C301.616 311.529 309.445 300.329 316.931 288.929C320.673 283.215 324.302 277.443 327.416 271.415C328.988 268.415 330.473 265.357 331.502 262.129C331.988 260.529 332.359 258.843 332.273 257.186C332.273 255.529 331.302 253.872 329.616 253.329C330.445 253.557 331.216 254.015 331.759 254.7C332.331 255.386 332.559 256.272 332.702 257.129C332.902 258.872 332.616 260.643 332.216 262.3C331.388 265.672 330.073 268.872 328.673 272.015C325.759 278.243 322.302 284.215 318.788 290.072C311.645 301.786 303.759 313.015 295.931 324.215C287.873 335.3 279.845 346.329 271.616 357.272L259.359 373.7C255.216 379.157 251.216 384.672 247.159 390.186L247.188 390.215Z" fill="#CCF7FF"/>
</g>
<mask id="mask15_35_2672" style="mask-type:luminance" maskUnits="userSpaceOnUse" x="0" y="15" width="351" height="435">
<path d="M3.93036 15.1572L61.2161 29.2715L349.388 18.2715L350.016 449.786L63.2446 445.872L0.1875 417.357L3.93036 15.1572Z" fill="white"/>
</mask>
<g mask="url(#mask15_35_2672)">
<path d="M186.188 420.386C186.845 418.786 187.588 417.1 188.959 416.043C190.216 415.1 191.845 414.786 193.388 414.558C201.359 413.443 209.53 413.872 217.33 415.815C217.93 415.958 218.588 416.158 218.959 416.672C219.273 417.129 219.273 417.729 219.245 418.272C218.788 429.843 216.302 441.329 211.93 452.043C204.702 454.672 196.988 455.9 189.302 455.643C186.616 455.558 182.102 455.358 180.073 453.215C177.93 450.929 179.33 446.815 179.788 443.872C181.016 435.815 183.188 427.9 186.216 420.358L186.188 420.386Z" fill="#D49051"/>
</g>
<mask id="mask16_35_2672" style="mask-type:luminance" maskUnits="userSpaceOnUse" x="0" y="15" width="351" height="435">
<path d="M3.93036 15.1572L61.2161 29.2715L349.388 18.2715L350.016 449.786L63.2446 445.872L0.1875 417.357L3.93036 15.1572Z" fill="white"/>
</mask>
<g mask="url(#mask16_35_2672)">
<path d="M142.273 382.186C142.673 381.443 143.101 380.7 143.758 380.215C144.501 379.7 145.444 379.586 146.33 379.5C155.044 378.643 163.873 379.015 172.473 380.643C174.958 393.043 175.415 405.872 173.844 418.443C173.558 420.729 160.615 423.5 158.587 423.9C153.187 424.957 147.501 425.1 142.158 423.757C131.644 421.1 134.101 409.643 135.701 401.043C136.93 394.472 139.101 388.1 142.244 382.215L142.273 382.186Z" fill="#C27F40"/>
</g>
<mask id="mask17_35_2672" style="mask-type:luminance" maskUnits="userSpaceOnUse" x="0" y="15" width="351" height="431">
<path d="M3.93036 15.1572L61.2161 29.2715L349.388 18.2715L350.188 445.872H63.2446L0.1875 417.357L3.93036 15.1572Z" fill="white"/>
</mask>
<g mask="url(#mask17_35_2672)">
<path d="M106.93 431.186C111.187 425.157 115.616 419.271 120.187 413.471C121.187 412.186 122.359 410.843 123.93 410.557C124.959 410.386 125.987 410.671 126.987 411.014C135.416 414.043 141.816 420.871 147.873 427.471C148.759 428.443 149.702 429.529 149.787 430.843C149.844 431.843 149.416 432.786 148.959 433.671C143.644 443.786 134.359 451.129 125.359 458.157C124.159 459.1 122.873 460.071 121.387 460.329C120.244 460.529 119.102 460.3 117.987 460.043C112.844 458.843 101.244 455.843 98.2731 450.957C95.2159 445.9 104.13 435.1 106.93 431.129V431.186Z" fill="#D49051"/>
</g>
<mask id="mask18_35_2672" style="mask-type:luminance" maskUnits="userSpaceOnUse" x="0" y="15" width="350" height="431">
<path d="M3.93036 15.1572L61.2161 29.2715L349.388 18.2715V445.872H63.2446L0.1875 417.357L3.93036 15.1572Z" fill="white"/>
</mask>
<g mask="url(#mask18_35_2672)">
<path d="M245.731 434.1C246.016 434.814 246.359 435.557 246.959 436.043C247.531 436.472 248.245 436.614 248.931 436.729C261.874 438.872 275.359 437.443 287.559 432.643C287.874 432.529 288.188 432.386 288.388 432.157C288.702 431.786 288.731 431.243 288.759 430.757C289.045 418.957 287.502 407.129 284.188 395.786C283.816 394.529 283.388 393.186 282.416 392.329C281.845 391.815 281.131 391.5 280.388 391.215C273.874 388.729 266.502 389.243 259.816 391.243C254.959 392.7 250.359 394.872 245.845 397.157C241.131 399.529 240.559 400.072 240.216 405.157C239.531 415.157 241.902 424.9 245.674 434.1H245.731Z" fill="#D49051"/>
</g>
<path d="M3.93036 15.1572L61.2161 29.2715L63.2446 445.872L0.1875 417.357L3.93036 15.1572Z" fill="#D47012"/>
<path d="M99.4734 116.615C131.073 108.843 167.159 101.872 207.159 97.2717C250.531 92.3003 290.102 91.0717 324.788 91.8431C313.073 102.157 301.359 112.472 289.645 122.786L337.759 151.815C301.873 151.957 257.873 150.329 204.931 155.529C158.845 160.043 125.445 167.015 93.3306 179.272C103.016 164.7 112.673 150.129 122.359 135.557L99.4449 116.586L99.4734 116.615Z" fill="#F5C971"/>
<path d="M63.2441 26.0429C73.9013 24.3 84.5584 22.8143 95.2727 21.3572C105.958 19.9857 116.701 18.7572 127.444 17.6714C148.93 15.5 170.501 14.2429 192.073 13.5C213.644 12.9 235.273 13.0143 256.816 13.7857C278.358 14.4714 299.901 15.1286 321.473 14.2429C310.73 15.3 299.93 15.7286 289.158 15.9857C278.358 16.1572 267.587 16.0714 256.787 15.9857C246.016 15.9572 235.244 15.6714 224.473 15.7286C213.701 15.7857 202.93 15.9857 192.158 16.3572C170.616 16.8714 149.13 18.1572 127.644 19.8714C106.158 21.5572 84.7299 23.8429 63.2727 26.0714L63.2441 26.0429Z" fill="#FF9E42"/>
<path d="M45.7021 22.5853C51.045 21.9853 56.3307 21.0711 61.645 20.1282C66.9593 19.1853 72.3307 18.6139 77.6736 18.0425L109.759 14.8139C131.159 12.7282 152.616 11.0139 174.074 9.47106C195.559 8.18534 217.045 7.09963 238.559 6.75677C249.302 6.58534 260.074 6.61391 270.845 6.75677C281.588 6.98534 292.359 7.35677 303.102 7.98534C292.359 7.98534 281.588 7.89963 270.845 8.15677C260.102 8.29963 249.359 8.5282 238.616 8.95677C217.159 9.7282 195.702 10.8139 174.245 12.2996C152.788 13.5853 131.359 15.3568 109.931 16.9568L77.7593 19.4139C72.3879 19.7853 67.045 20.1282 61.7307 20.8711C56.4164 21.6425 51.045 22.2996 45.7021 22.5853Z" fill="#FF9E42"/>
</svg>
