<svg width="232" height="400" viewBox="0 0 232 400" fill="none" xmlns="http://www.w3.org/2000/svg">
<g clip-path="url(#clip0_16_1782)">
<path d="M115.706 0H0.1875V88.052H115.706V0Z" fill="#6C4036"/>
<path d="M115.707 88.052L59.8115 45.4195L97.9663 13.3321L115.707 0V88.052Z" fill="#8E6C65"/>
<path d="M115.706 88.052H0.1875V0L115.706 88.052Z" fill="#542115"/>
<path d="M100.791 76.7536V11.2983L14.8016 11.2983V76.7536H100.791Z" fill="#7D564D"/>
<path d="M231.225 0H115.707V88.052H231.225V0Z" fill="#6C4036"/>
<path d="M231.187 88.052L175.292 45.4195L213.447 13.3321L231.187 0V88.052Z" fill="#8E6C65"/>
<path d="M231.188 88.052H115.707V0L231.188 88.052Z" fill="#542115"/>
<path d="M216.31 76.7536V11.2983L130.321 11.2983V76.7536H216.31Z" fill="#7D564D"/>
<path d="M115.706 88.052H0.1875V176.104H115.706V88.052Z" fill="#6C4036"/>
<path d="M115.707 176.066L59.8115 133.471L97.9663 101.384L115.707 88.052V176.066Z" fill="#8E6C65"/>
<path d="M115.706 176.066H0.1875V88.052L115.706 176.066Z" fill="#542115"/>
<path d="M100.791 164.768V99.3127H14.8016V164.768H100.791Z" fill="#7D564D"/>
<path d="M231.225 88.052H115.707V176.104H231.225V88.052Z" fill="#6C4036"/>
<path d="M231.187 176.066L175.292 133.471L213.447 101.384L231.187 88.052V176.066Z" fill="#8E6C65"/>
<path d="M231.188 176.066H115.707V88.052L231.188 176.066Z" fill="#542115"/>
<path d="M216.272 164.806V99.3503H130.283V164.806H216.272Z" fill="#7D564D"/>
<path d="M115.706 176.066H0.1875V264.118H115.706V176.066Z" fill="#6C4036"/>
<path d="M115.707 264.118L59.8115 221.524L97.9663 189.398L115.707 176.066V264.118Z" fill="#8E6C65"/>
<path d="M115.706 264.118H0.1875V176.066L115.706 264.118Z" fill="#542115"/>
<path d="M100.791 252.82V187.365H14.8016V252.82H100.791Z" fill="#7D564D"/>
<path d="M231.225 176.066H115.707V264.118H231.225V176.066Z" fill="#6C4036"/>
<path d="M231.187 264.118L175.292 221.524L213.447 189.398L231.187 176.066V264.118Z" fill="#8E6C65"/>
<path d="M231.188 264.118H115.707V176.066L231.188 264.118Z" fill="#542115"/>
<path d="M216.31 252.82V187.365H130.321V252.82H216.31Z" fill="#7D564D"/>
<path d="M231.188 222.39H0.1875V400H231.188V222.39Z" fill="#BBC4D1"/>
<path d="M216.272 222.39H130.283V400H216.272V222.39Z" fill="#98A8B9"/>
<path d="M44.1048 222.39H14.7637V400H44.1048V222.39Z" fill="#98A8B9"/>
<path d="M231.188 201.036L0.1875 222.39V385.576H231.188V201.036Z" fill="#44A2EA"/>
<path d="M229.188 201.036L74.5347 215.309L162.972 385.576H229.188V201.036Z" fill="#0984E3"/>
<path d="M141.921 385.576L55.7437 217.23L63.8416 216.514L150.358 385.576H141.921Z" fill="#0984E3"/>
<path opacity="0.59" d="M24.7452 294.737C24.7829 295.038 24.8205 295.34 24.8205 295.641L25.2348 370.361C25.2348 373.487 22.7489 376.01 19.6227 376.048C16.4965 376.048 13.973 373.562 13.9353 370.436L13.521 295.716C13.521 292.59 16.0069 290.067 19.1331 290.029C21.958 290.029 24.2932 292.063 24.7452 294.737Z" fill="white"/>
<path opacity="0.59" d="M24.4063 230.75C24.444 231.052 24.4817 231.353 24.4817 231.654L24.67 267.395C24.67 270.521 22.1841 273.044 19.0579 273.082C15.9317 273.082 13.4081 270.596 13.3705 267.47L13.1821 231.73C13.1821 228.604 15.668 226.08 18.7942 226.043C21.6191 226.043 23.9543 228.076 24.4063 230.75Z" fill="white"/>
</g>
<defs>
<clipPath id="clip0_16_1782">
<rect width="231" height="400" fill="white" transform="translate(0.1875)"/>
</clipPath>
</defs>
</svg>
