<svg width="201" height="500" viewBox="0 0 201 500" fill="none" xmlns="http://www.w3.org/2000/svg">
<g clip-path="url(#clip0_7_8636)">
<path d="M164.112 0.00940772L125.86 26.5676L132.751 36.4491L171.002 9.89092L164.112 0.00940772Z" fill="#EF4538"/>
<path d="M179.699 129.237C150.69 90.4319 119.082 105.366 113.022 97.0674C95.0008 72.3874 153.936 29.7909 153.936 29.7909L136.653 7.79688C136.653 7.79688 5.43169 79.5244 17.5571 118.176C31.9025 163.919 80.9322 138.758 75.8975 150.643C74.8926 153.012 73.3032 155.314 71.5446 157.499L40.8235 163.167C24.4427 166.191 12.3327 180.127 11.661 196.739L0.161117 480.477C-0.269553 491.129 8.26694 500 18.9517 500H180.653C191.312 500 199.838 491.17 199.443 480.538C196.644 405.373 191.825 145.455 179.699 129.237Z" fill="#68AE44"/>
<path d="M199.136 471.667C197.51 480.339 189.881 486.959 180.658 486.959H18.9517C9.79479 486.959 2.21705 480.436 0.509754 471.867L0.161117 480.482C-0.269553 491.134 8.26694 500.005 18.9517 500.005H180.653C191.312 500.005 199.838 491.175 199.443 480.543C199.341 477.822 199.238 474.854 199.131 471.672L199.136 471.667Z" fill="#5B933B"/>
<path d="M200.13 480.538C197.331 405.368 192.506 145.455 180.386 129.237C151.377 90.4319 119.769 105.366 113.709 97.0674C95.6877 72.3874 154.623 29.7909 154.623 29.7909L137.34 7.79688C137.34 7.79688 131.859 10.7949 123.24 15.8905L134.161 29.7909C134.161 29.7909 75.2258 72.3874 93.2472 97.0674C99.3074 105.371 130.915 90.437 159.924 129.237C172.05 145.455 166.292 407.01 169.086 482.181C169.481 492.812 150.952 500 140.293 500H181.329C191.989 500 200.52 491.17 200.12 480.538H200.13Z" fill="#5B933B"/>
<path d="M72.5188 151.006C71.5703 153.513 70.0629 155.948 68.4069 158.261L58.0708 160.399C60.6292 160.302 63.1825 160.159 65.7357 159.97C71.3139 159.555 77.1792 158.824 81.6961 155.145C86.213 151.467 88.6484 143.874 85.403 138.789C82.378 134.052 76.2871 133.642 71.0935 134.046C62.7467 134.701 54.4358 136.287 46.0736 135.96C37.9985 135.648 30.0465 133.32 23.6839 127.58C22.356 126.383 21.0794 125.047 19.7925 123.722C35.7016 162.343 77.0305 139.101 72.5239 151.006H72.5188Z" fill="#5B933B"/>
<path d="M40.844 91.9975C37.2756 96.515 33.8046 101.411 32.8254 107.08C31.8461 112.748 34.0763 119.363 39.3264 121.742C45.0636 124.341 52.0158 120.919 55.7739 115.874C59.532 110.83 61.024 104.522 63.1158 98.587C66.5714 88.7897 71.8471 79.7598 77.8714 71.3285C80.8502 67.1538 84.0392 63.1325 87.3 59.1778C89.1047 56.9881 96.7439 50.5879 96.8619 47.8917C97.0721 43.0365 89.5917 46.8583 86.4335 48.3061C78.1841 52.092 71.9394 59.0141 65.505 65.225C56.7737 73.6614 48.3756 82.4713 40.844 92.0026V91.9975Z" fill="#8CBF51"/>
<path d="M26.3703 187.699C22.9762 193.373 21.9867 200.136 21.4176 206.72C20.6896 215.157 20.5409 223.644 20.9716 232.101C21.4073 240.691 22.6071 249.685 27.6982 256.623C32.1638 262.716 40.9464 266.599 47.4372 262.726C52.5438 259.682 54.3023 253.251 55.4251 247.424C57.2299 238.036 58.527 228.546 59.296 219.014C59.7985 212.788 60.0959 206.465 61.9877 200.504C63.8796 194.544 67.6275 188.87 73.2877 186.19C76.2152 184.803 79.5324 184.266 82.26 182.526C84.9876 180.787 86.982 177.114 85.3464 174.325C84.762 173.333 83.8135 172.606 82.8291 171.998C67.4993 162.466 35.2401 172.847 26.3652 187.689L26.3703 187.699Z" fill="#8CBF51"/>
<path d="M106.608 17.103L135.376 57.7145L157.54 41.2714L162.938 24.2604L147.875 3.27934L131.684 1.57568L106.608 17.103Z" fill="#EF4538"/>
<path d="M147.45 3.39205L147.25 3.37158L155.54 14.6372L150.342 31.7096L128.552 48.2806L135.586 57.9704L157.555 41.2664L162.754 24.194L147.45 3.39205Z" fill="#CE3932"/>
<path d="M155.541 14.6371L167.984 5.64307L170.952 9.89453L158.366 18.2286L155.541 14.6371Z" fill="#CE3932"/>
<path d="M118.564 17.3845C117.652 18.285 116.729 19.3133 116.565 20.5821C116.283 22.7718 118.513 24.634 120.718 24.8131C122.922 24.9921 125.035 23.9894 127.019 23.0122C130.182 21.4569 133.351 19.8965 136.514 18.3412C141.913 15.686 143.953 8.1193 136.314 6.80447C130.408 5.78636 122.256 13.7265 118.564 17.3794V17.3845Z" fill="#FC675B"/>
<path d="M130.464 50.9153L123.62 57.7146L107.823 24.8386L110.787 23.002L130.464 50.9153Z" fill="#43682B"/>
</g>
<defs>
<clipPath id="clip0_7_8636">
<rect width="200" height="500" fill="white" transform="translate(0.145508)"/>
</clipPath>
</defs>
</svg>
