<svg width="321" height="130" viewBox="0 0 321 130" fill="none" xmlns="http://www.w3.org/2000/svg">
<path d="M320.146 7.04468H30.1494V130.002H320.146V7.04468Z" fill="#450404"/>
<path d="M290.142 7.04468H0.145508V130.002H290.142V7.04468Z" fill="#D62929"/>
<mask id="mask0_7_8635" style="mask-type:luminance" maskUnits="userSpaceOnUse" x="0" y="7" width="291" height="124">
<path d="M290.142 7.04468H0.145508V130.002H290.142V7.04468Z" fill="white"/>
</mask>
<g mask="url(#mask0_7_8635)">
<path d="M26.3818 -19.9354C110.409 3.77905 176.907 3.77905 155.77 59.45C134.637 115.125 144.943 156.878 263.508 157.395C382.073 157.912 375.887 106.875 375.887 106.875L272.787 -63.2358L148.037 -54.9864L26.3818 -19.9354Z" fill="#FFC131"/>
</g>
<mask id="mask1_7_8635" style="mask-type:luminance" maskUnits="userSpaceOnUse" x="0" y="7" width="291" height="124">
<path d="M290.142 7.04468H0.145508V130.002H290.142V7.04468Z" fill="white"/>
</mask>
<g mask="url(#mask1_7_8635)">
<path d="M107.348 40.6117H-12.1133V21.6692H107.348L91.2915 30.8857L107.348 40.6117Z" fill="#FFC131"/>
</g>
<mask id="mask2_7_8635" style="mask-type:luminance" maskUnits="userSpaceOnUse" x="0" y="7" width="291" height="124">
<path d="M290.142 7.04468H0.145508V130.002H290.142V7.04468Z" fill="white"/>
</mask>
<g mask="url(#mask2_7_8635)">
<path d="M36.8184 -20.3221C120.845 3.39233 187.343 3.39233 166.206 59.0633C145.073 114.738 155.379 156.491 273.944 157.008C392.509 157.525 386.324 106.488 386.324 106.488L283.228 -63.6226L158.478 -55.3731L36.8184 -20.3221Z" fill="#701515"/>
</g>
<path d="M63.5417 64.9065H25.2214C23.2762 64.9065 21.6992 63.3295 21.6992 61.3843C21.6992 59.4391 23.2762 57.8621 25.2214 57.8621H63.538C65.4832 57.8621 67.0602 59.4391 67.0602 61.3843C67.0602 63.3295 65.4832 64.9065 63.538 64.9065H63.5417Z" fill="white"/>
<path d="M93.6084 64.9065H75.7371C73.7918 64.9065 72.2148 63.3295 72.2148 61.3843C72.2148 59.4391 73.7918 57.8621 75.7371 57.8621H93.6084C95.5536 57.8621 97.1306 59.4391 97.1306 61.3843C97.1306 63.3295 95.5536 64.9065 93.6084 64.9065Z" fill="white"/>
<path d="M93.9545 79.341H55.6379C53.6927 79.341 52.1157 77.764 52.1157 75.8188C52.1157 73.8736 53.6927 72.2966 55.6379 72.2966H93.9545C95.8997 72.2966 97.4767 73.8736 97.4767 75.8188C97.4767 77.764 95.8997 79.341 93.9545 79.341Z" fill="white"/>
<path d="M44.6399 79.341H26.7685C24.8233 79.341 23.2463 77.764 23.2463 75.8188C23.2463 73.8736 24.8233 72.2966 26.7685 72.2966H44.6399C46.5851 72.2966 48.1621 73.8736 48.1621 75.8188C48.1621 77.764 46.5851 79.341 44.6399 79.341Z" fill="white"/>
<path d="M227.892 54.3985C237.907 44.3836 237.907 28.1462 227.892 18.1313C217.878 8.11639 201.64 8.1164 191.625 18.1313C181.61 28.1462 181.61 44.3836 191.625 54.3985C201.64 64.4134 217.878 64.4134 227.892 54.3985Z" fill="#FFC78C"/>
<path d="M200.201 22.956C200.201 24.0123 199.345 24.8714 198.285 24.8714C197.225 24.8714 196.37 24.016 196.37 22.956C196.37 21.896 197.225 21.0405 198.285 21.0405C199.341 21.0405 200.201 21.896 200.201 22.956Z" fill="#E08B31"/>
<path d="M213.021 17.4033C213.021 18.4595 212.166 19.3187 211.106 19.3187C210.046 19.3187 209.19 18.4633 209.19 17.4033C209.19 16.3432 210.046 15.4878 211.106 15.4878C212.166 15.4878 213.021 16.3432 213.021 17.4033Z" fill="#E08B31"/>
<path d="M222.305 26.3034C222.305 27.3597 221.449 28.2188 220.389 28.2188C219.329 28.2188 218.474 27.3634 218.474 26.3034C218.474 25.2434 219.329 24.3879 220.389 24.3879C221.449 24.3879 222.305 25.2434 222.305 26.3034Z" fill="#E08B31"/>
<path d="M207.855 30.4208C207.855 31.4771 207 32.3363 205.94 32.3363C204.88 32.3363 204.024 31.4808 204.024 30.4208C204.024 29.3608 204.88 28.5054 205.94 28.5054C207 28.5054 207.855 29.3608 207.855 30.4208Z" fill="#E08B31"/>
<path d="M212.352 41.0395C212.352 42.0958 211.496 42.9549 210.436 42.9549C209.376 42.9549 208.521 42.0995 208.521 41.0395C208.521 39.9795 209.376 39.124 210.436 39.124C211.496 39.124 212.352 39.9795 212.352 41.0395Z" fill="#E08B31"/>
<path d="M192.45 35.0141C192.45 36.0704 191.594 36.9295 190.534 36.9295C189.474 36.9295 188.619 36.0741 188.619 35.0141C188.619 33.9541 189.474 33.0986 190.534 33.0986C191.594 33.0986 192.45 33.9541 192.45 35.0141Z" fill="#E08B31"/>
<path d="M200.677 47.2619C200.677 48.3182 199.822 49.1773 198.762 49.1773C197.702 49.1773 196.846 48.3219 196.846 47.2619C196.846 46.2019 197.702 45.3464 198.762 45.3464C199.822 45.3464 200.677 46.2019 200.677 47.2619Z" fill="#E08B31"/>
<path d="M224.22 45.2534C224.22 46.3096 223.365 47.1688 222.305 47.1688C221.245 47.1688 220.389 46.3134 220.389 45.2534C220.389 44.1933 221.245 43.3379 222.305 43.3379C223.365 43.3379 224.22 44.1933 224.22 45.2534Z" fill="#E08B31"/>
<path d="M212.259 54.1501C212.259 55.2064 211.404 56.0655 210.344 56.0655C209.284 56.0655 208.428 55.2101 208.428 54.1501C208.428 53.0901 209.284 52.2346 210.344 52.2346C211.404 52.2346 212.259 53.0901 212.259 54.1501Z" fill="#E08B31"/>
<path d="M230.346 34.341C230.346 35.3973 229.491 36.2565 228.431 36.2565C227.371 36.2565 226.515 35.401 226.515 34.341C226.515 33.281 227.371 32.4255 228.431 32.4255C229.491 32.4255 230.346 33.281 230.346 34.341Z" fill="#E08B31"/>
<path d="M273.717 98.2932C284.488 87.523 284.488 70.061 273.717 59.2908C262.947 48.5206 245.485 48.5206 234.715 59.2908C223.945 70.061 223.945 87.523 234.715 98.2932C245.485 109.063 262.947 109.063 273.717 98.2932Z" fill="#FFC78C"/>
<path d="M241.88 66.5355C243.015 66.5355 243.936 65.6146 243.936 64.4787C243.936 63.3427 243.015 62.4219 241.88 62.4219C240.744 62.4219 239.823 63.3427 239.823 64.4787C239.823 65.6146 240.744 66.5355 241.88 66.5355Z" fill="#E08B31"/>
<path d="M255.671 60.566C256.807 60.566 257.728 59.6451 257.728 58.5092C257.728 57.3732 256.807 56.4524 255.671 56.4524C254.535 56.4524 253.614 57.3732 253.614 58.5092C253.614 59.6451 254.535 60.566 255.671 60.566Z" fill="#E08B31"/>
<path d="M267.71 68.079C267.71 69.2171 266.788 70.1358 265.653 70.1358C264.519 70.1358 263.597 69.2134 263.597 68.079C263.597 66.9446 264.519 66.0222 265.653 66.0222C266.788 66.0222 267.71 66.9446 267.71 68.079Z" fill="#E08B31"/>
<path d="M250.111 74.5618C251.246 74.5618 252.167 73.641 252.167 72.505C252.167 71.3691 251.246 70.4482 250.111 70.4482C248.975 70.4482 248.054 71.3691 248.054 72.505C248.054 73.641 248.975 74.5618 250.111 74.5618Z" fill="#E08B31"/>
<path d="M254.949 85.9839C256.085 85.9839 257.006 85.0631 257.006 83.9272C257.006 82.7912 256.085 81.8704 254.949 81.8704C253.813 81.8704 252.893 82.7912 252.893 83.9272C252.893 85.0631 253.813 85.9839 254.949 85.9839Z" fill="#E08B31"/>
<path d="M235.555 77.7202C235.734 76.5985 234.97 75.5439 233.848 75.3646C232.726 75.1853 231.672 75.9493 231.493 77.071C231.313 78.1927 232.077 79.2474 233.199 79.4266C234.321 79.6059 235.375 78.8419 235.555 77.7202Z" fill="#E08B31"/>
<path d="M242.393 92.6749C243.529 92.6749 244.45 91.754 244.45 90.6181C244.45 89.4821 243.529 88.5613 242.393 88.5613C241.257 88.5613 240.336 89.4821 240.336 90.6181C240.336 91.754 241.257 92.6749 242.393 92.6749Z" fill="#E08B31"/>
<path d="M267.711 90.514C268.847 90.514 269.767 89.5931 269.767 88.4572C269.767 87.3213 268.847 86.4004 267.711 86.4004C266.575 86.4004 265.654 87.3213 265.654 88.4572C265.654 89.5931 266.575 90.514 267.711 90.514Z" fill="#E08B31"/>
<path d="M256.906 98.027C256.906 99.1651 255.983 100.084 254.849 100.084C253.714 100.084 252.792 99.1614 252.792 98.027C252.792 96.8926 253.714 95.9702 254.849 95.9702C255.983 95.9702 256.906 96.8926 256.906 98.027Z" fill="#E08B31"/>
<path d="M276.354 76.7265C276.354 77.8646 275.432 78.7833 274.298 78.7833C273.163 78.7833 272.241 77.8609 272.241 76.7265C272.241 75.5921 273.163 74.6697 274.298 74.6697C275.432 74.6697 276.354 75.5921 276.354 76.7265Z" fill="#E08B31"/>
<path d="M195.853 125.691C211.084 125.691 223.432 113.344 223.432 98.1125C223.432 82.8812 211.084 70.5337 195.853 70.5337C180.621 70.5337 168.274 82.8812 168.274 98.1125C168.274 113.344 180.621 125.691 195.853 125.691Z" fill="#FFC78C"/>
<path d="M185.561 83.808C185.561 84.9461 184.639 85.8648 183.505 85.8648C182.37 85.8648 181.448 84.9424 181.448 83.808C181.448 82.6736 182.37 81.7512 183.505 81.7512C184.639 81.7512 185.561 82.6736 185.561 83.808Z" fill="#E08B31"/>
<path d="M199.349 77.8385C199.349 78.9766 198.427 79.8953 197.293 79.8953C196.158 79.8953 195.236 78.9729 195.236 77.8385C195.236 76.7041 196.158 75.7817 197.293 75.7817C198.427 75.7817 199.349 76.7041 199.349 77.8385Z" fill="#E08B31"/>
<path d="M207.275 89.4688C208.411 89.4688 209.332 88.5479 209.332 87.412C209.332 86.2761 208.411 85.3552 207.275 85.3552C206.139 85.3552 205.218 86.2761 205.218 87.412C205.218 88.5479 206.139 89.4688 207.275 89.4688Z" fill="#E08B31"/>
<path d="M193.792 91.8344C193.792 92.9725 192.87 93.8912 191.736 93.8912C190.601 93.8912 189.679 92.9688 189.679 91.8344C189.679 90.7 190.601 89.7776 191.736 89.7776C192.87 89.7776 193.792 90.7 193.792 91.8344Z" fill="#E08B31"/>
<path d="M196.571 105.313C197.707 105.313 198.628 104.392 198.628 103.256C198.628 102.121 197.707 101.2 196.571 101.2C195.435 101.2 194.514 102.121 194.514 103.256C194.514 104.392 195.435 105.313 196.571 105.313Z" fill="#E08B31"/>
<path d="M175.166 98.8304C176.302 98.8304 177.223 97.9095 177.223 96.7736C177.223 95.6377 176.302 94.7168 175.166 94.7168C174.03 94.7168 173.109 95.6377 173.109 96.7736C173.109 97.9095 174.03 98.8304 175.166 98.8304Z" fill="#E08B31"/>
<path d="M184.018 112.004C185.154 112.004 186.075 111.083 186.075 109.947C186.075 108.811 185.154 107.891 184.018 107.891C182.882 107.891 181.961 108.811 181.961 109.947C181.961 111.083 182.882 112.004 184.018 112.004Z" fill="#E08B31"/>
<path d="M209.332 109.843C210.468 109.843 211.388 108.922 211.388 107.787C211.388 106.651 210.468 105.73 209.332 105.73C208.196 105.73 207.275 106.651 207.275 107.787C207.275 108.922 208.196 109.843 209.332 109.843Z" fill="#E08B31"/>
<path d="M196.47 119.413C197.606 119.413 198.527 118.492 198.527 117.356C198.527 116.22 197.606 115.3 196.47 115.3C195.334 115.3 194.414 116.22 194.414 117.356C194.414 118.492 195.334 119.413 196.47 119.413Z" fill="#E08B31"/>
<path d="M215.919 98.1126C217.055 98.1126 217.975 97.1917 217.975 96.0558C217.975 94.9199 217.055 93.999 215.919 93.999C214.783 93.999 213.862 94.9199 213.862 96.0558C213.862 97.1917 214.783 98.1126 215.919 98.1126Z" fill="#E08B31"/>
<path d="M254.254 18.2437H196.366C194.414 18.2437 192.833 16.663 192.833 14.7104C192.833 12.7577 194.414 11.177 196.366 11.177H254.258C256.21 11.177 257.791 12.7577 257.791 14.7104C257.791 16.663 256.21 18.2437 254.258 18.2437H254.254Z" fill="#701515"/>
<path d="M162.859 18.2437H18.7756C16.8229 18.2437 15.2422 16.663 15.2422 14.7104C15.2422 12.7577 16.8229 11.177 18.7756 11.177H162.859C164.811 11.177 166.392 12.7577 166.392 14.7104C166.392 16.663 164.811 18.2437 162.859 18.2437Z" fill="#FC6358"/>
<path d="M9.15006 82.9601C7.19741 82.9601 5.6167 81.3794 5.6167 79.4268V24.7824C5.6167 22.8297 7.19741 21.249 9.15006 21.249C11.1027 21.249 12.6834 22.8297 12.6834 24.7824V79.4268C12.6834 81.3794 11.1027 82.9601 9.15006 82.9601Z" fill="#FC6358"/>
<path d="M9.15006 117.602C7.19741 117.602 5.6167 116.021 5.6167 114.069V99.2731C5.6167 97.3205 7.19741 95.7397 9.15006 95.7397C11.1027 95.7397 12.6834 97.3205 12.6834 99.2731V114.069C12.6834 116.021 11.1027 117.602 9.15006 117.602Z" fill="#FC6358"/>
</svg>
