<svg width="289" height="500" viewBox="0 0 289 500" fill="none" xmlns="http://www.w3.org/2000/svg">
<g clip-path="url(#clip0_7_8650)">
<path d="M284.628 249.061C292.88 231.822 293.014 190.184 252.781 146.405C227.552 118.954 190.449 107.819 190.449 107.819L188.964 78.8465L141.84 76.7356L100.911 78.8465C100.911 81.5966 100.419 107.819 100.419 107.819C100.419 107.819 41.5498 145.454 30.6643 177.667C19.7788 209.881 51.4417 237.511 52.4303 260.205C53.419 282.9 33.6502 287.761 25.7159 319.409C16.8127 354.933 -8.5901 461.508 2.96116 481.24C6.01168 486.453 15.824 499.99 15.824 499.99H261.689C261.689 499.99 281.776 475.814 284.444 467.92C287.117 460.027 270.096 364.308 255.752 312.997C247.629 283.945 275.044 269.085 284.633 249.056L284.628 249.061ZM208.762 207.081C191.989 181.631 193.331 147.847 199.72 142.991C211.152 134.3 231.86 149.398 248.722 170.621C263.463 189.173 270.573 221.59 257.193 233.026C243.814 244.463 225.525 232.531 208.757 207.081H208.762Z" fill="#CDEDEA"/>
<path d="M199.72 142.991C200.699 142.248 201.747 141.678 202.855 141.272C197.872 139.879 193.395 140.276 189.823 142.991C183.434 147.847 182.093 181.631 198.865 207.081C213.07 228.636 228.362 240.494 240.838 236.673C230.628 233.908 219.389 223.21 208.762 207.081C191.989 181.631 193.331 147.847 199.72 142.991Z" fill="#B3CECB"/>
<path d="M284.628 249.061C292.88 231.822 293.014 190.184 252.781 146.405C227.552 118.954 190.449 107.819 190.449 107.819L188.964 78.8465L141.839 76.7356L137.239 76.9734L179.072 78.8465L180.557 107.819C180.557 107.819 217.66 118.954 242.889 146.405C283.122 190.179 282.988 231.822 274.736 249.061C265.147 269.09 237.732 283.95 245.855 313.002C260.204 364.318 261.361 448.912 260.855 457.227C259.21 484.208 218.977 487.909 218.977 487.909L261.684 500C261.684 500 281.771 475.824 284.439 467.93C287.107 460.037 270.091 364.318 255.747 313.007C247.624 283.955 275.039 269.095 284.628 249.066V249.061Z" fill="#B3CECB"/>
<path d="M199.501 96.5463L198.249 61.5679C198.046 55.8992 193.276 51.4693 187.592 51.6724L182.609 51.8508L181.69 16.2777C181.581 12.0807 178.923 8.36932 174.973 6.9125C174.973 6.9125 157.395 -0.614381 142.555 0.133847C125.787 0.981179 110.907 7.78956 110.907 7.78956C106.957 9.36035 104.379 13.1907 104.423 17.4323L104.776 52.936H99.7879C94.1042 52.936 89.4937 57.5344 89.4937 63.2031V98.2063L199.496 96.5513L199.501 96.5463Z" fill="#EF4538"/>
<path d="M198.249 61.4885C198.046 55.8198 193.276 51.3899 187.592 51.5931L182.609 51.7715L181.69 16.1984C181.581 12.0014 178.923 8.28997 174.973 6.83316C174.973 6.83316 157.395 -0.693727 142.555 0.0545017C139.956 0.188291 137.408 0.460824 134.948 0.827506C146.072 2.64605 155.845 6.8282 155.845 6.8282C159.795 8.28502 162.458 11.9964 162.562 16.1934L163.481 51.7665L168.464 51.5881C174.148 51.385 178.918 55.8149 179.121 61.4836L180.373 96.462L89.4985 97.8296V98.117L199.506 96.462L198.254 61.4836L198.249 61.4885Z" fill="#CE3932"/>
<path d="M112.705 19.0526C112.442 25.0781 112.705 31.1234 113.51 37.1042C113.913 40.1219 114.569 43.3477 116.784 45.4388C119 47.5299 123.278 47.6191 124.649 44.8987C125.146 43.9126 125.181 42.763 125.201 41.6531C125.335 35.0875 128.599 19.89 125.792 14.1371C121.718 5.79757 113.028 11.7338 112.705 19.0526Z" fill="#FC675B"/>
<path d="M103.981 57.7128C103.017 58.6295 102.476 59.9029 102.148 61.1863C101.641 63.1783 101.591 65.2545 101.547 67.3109C101.413 73.5445 101.278 79.7979 101.984 85.9918C102.262 88.4446 102.739 91.0263 104.384 92.8745C106.028 94.7228 109.203 95.4066 110.967 93.6723C111.871 92.7804 112.219 91.4772 112.422 90.2285C113.207 85.5013 112.556 80.6651 112.705 75.8784C112.855 71.0917 113.992 65.9829 117.535 62.7472C118.97 61.439 120.903 60.2102 120.983 58.2727C121.072 56.0776 118.588 54.6009 116.387 54.5316C113.083 54.4275 106.505 55.3145 103.981 57.7177V57.7128Z" fill="#FC675B"/>
<path d="M100.483 98.0775V104.019L190.449 107.824L189.873 96.6157L100.483 98.0775Z" fill="#9DB2AF"/>
<path d="M1.05823 475.824C1.52525 478.029 2.15622 479.857 2.97102 481.25C6.02154 486.462 15.8339 500 15.8339 500H261.699C261.699 500 273.335 485.997 280.072 475.824H1.05823Z" fill="#B3CECB"/>
<path d="M70.7732 201.303C70.7136 219.682 85.4793 235.86 84.6546 254.219C83.9342 270.19 71.8215 282.915 63.291 296.447C43.6762 327.561 42.0516 366.513 44.1979 403.201C44.4066 406.749 44.7245 410.525 46.9056 413.329C48.9923 416.02 52.3955 417.298 55.6597 418.289C71.3794 423.051 175.44 420.38 213.124 419.736C226.246 419.513 229.003 403.602 229.117 400.173C229.902 376.78 225.376 288.236 210.402 270.214C202.045 260.156 177.994 247.416 168.479 238.437C137.239 208.934 142.923 155.978 134.924 156.608C102.729 159.14 70.8527 178.088 70.7782 201.303H70.7732Z" fill="#93D850"/>
</g>
<defs>
<clipPath id="clip0_7_8650">
<rect width="289" height="500" fill="white"/>
</clipPath>
</defs>
</svg>
