<svg width="471" height="300" viewBox="0 0 471 300" fill="none" xmlns="http://www.w3.org/2000/svg">
<path d="M438.63 281.182H40.6269L11.0179 211.643H461.358L438.63 281.182Z" fill="#4987C9"/>
<path d="M90.4126 280.909C126.747 280.909 156.201 242.464 156.201 195.04C156.201 147.615 126.747 109.17 90.4126 109.17C54.0786 109.17 24.624 147.615 24.624 195.04C24.624 242.464 54.0786 280.909 90.4126 280.909Z" fill="#E0F3FF"/>
<path d="M47.8264 159.855C46.9242 159.855 46.0037 159.646 45.138 159.208C42.2217 157.723 41.0644 154.151 42.5498 151.235C44.7552 146.906 47.316 142.833 50.1594 139.115C57.3862 129.683 66.2989 122.913 75.9225 119.55C79.0119 118.465 82.3929 120.097 83.4774 123.186C84.5619 126.275 82.9306 129.656 79.8412 130.74C72.4048 133.347 65.3967 138.732 59.5734 146.332C57.1675 149.476 54.9985 152.93 53.1212 156.62C52.0732 158.68 49.9953 159.855 47.8355 159.855H47.8264Z" fill="white"/>
<path d="M47.8264 162.134C46.5414 162.134 45.2564 161.824 44.1082 161.241C42.1579 160.247 40.7089 158.552 40.0254 156.466C39.3419 154.379 39.5242 152.155 40.5176 150.205C42.7868 145.749 45.4205 141.557 48.3458 137.739C55.846 127.952 65.1142 120.917 75.1661 117.408C77.2348 116.689 79.4585 116.807 81.436 117.764C83.4136 118.712 84.8991 120.379 85.619 122.448C86.339 124.516 86.2205 126.74 85.2636 128.717C84.3067 130.695 82.6481 132.18 80.5794 132.9C73.5622 135.361 66.9186 140.482 61.3687 147.726C59.0448 150.761 56.9487 154.096 55.1352 157.668C53.7227 160.43 50.9249 162.152 47.8173 162.152L47.8264 162.134ZM77.8819 121.5C77.4809 121.5 77.0708 121.573 76.6789 121.71C67.4745 124.926 58.9263 131.433 51.9729 140.509C49.2116 144.109 46.7237 148.073 44.5821 152.274C44.1446 153.139 44.0626 154.133 44.3633 155.053C44.6641 155.983 45.3111 156.73 46.1769 157.176C46.6963 157.441 47.2522 157.577 47.8264 157.577C49.2116 157.577 50.4601 156.812 51.0798 155.582C53.0209 151.773 55.2628 148.191 57.7598 144.938C63.8475 136.992 71.2201 131.333 79.0848 128.581C80.0053 128.262 80.7434 127.596 81.1718 126.722C81.591 125.847 81.6548 124.854 81.3267 123.933C81.0077 123.013 80.3424 122.275 79.4676 121.846C78.9663 121.6 78.4287 121.482 77.8819 121.482V121.5Z" fill="white"/>
<path d="M90.4125 109.17C86.9495 109.17 83.5411 109.526 80.2239 110.2C111.719 116.597 135.824 152.146 135.824 195.049C135.824 237.951 111.719 273.5 80.2239 279.897C83.5502 280.572 86.9495 280.927 90.4125 280.927C126.747 280.927 156.201 242.48 156.201 195.058C156.201 147.635 126.747 109.189 90.4125 109.189V109.17Z" fill="#C5DDED"/>
<path d="M237.291 280.909C273.63 280.909 303.088 242.464 303.088 195.04C303.088 147.615 273.63 109.17 237.291 109.17C200.952 109.17 171.493 147.615 171.493 195.04C171.493 242.464 200.952 280.909 237.291 280.909Z" fill="#E0F3FF"/>
<path d="M237.291 109.17C233.828 109.17 230.419 109.526 227.102 110.2C258.597 116.597 282.702 152.146 282.702 195.049C282.702 237.951 258.597 273.5 227.102 279.897C230.428 280.572 233.828 280.927 237.291 280.927C273.625 280.927 303.079 242.48 303.079 195.058C303.079 147.635 273.625 109.189 237.282 109.189L237.291 109.17Z" fill="#C5DDED"/>
<path d="M384.151 280.909C420.49 280.909 449.948 242.464 449.948 195.04C449.948 147.615 420.49 109.17 384.151 109.17C347.812 109.17 318.353 147.615 318.353 195.04C318.353 242.464 347.812 280.909 384.151 280.909Z" fill="#E0F3FF"/>
<path d="M384.151 109.17C380.688 109.17 377.279 109.526 373.962 110.2C405.458 116.597 429.562 152.146 429.562 195.049C429.562 237.951 405.458 273.5 373.962 279.897C377.288 280.572 380.688 280.927 384.151 280.927C420.485 280.927 449.948 242.48 449.948 195.058C449.948 147.635 420.494 109.189 384.151 109.189V109.17Z" fill="#C5DDED"/>
<path d="M314.772 212.035C314.061 212.035 313.523 212.664 313.632 213.365H313.095C313.204 212.664 312.666 212.035 311.956 212.035H162.608C161.897 212.035 161.359 212.664 161.469 213.365H160.913C161.022 212.664 160.484 212.035 159.773 212.035H10.4347C9.72386 212.035 9.18618 212.664 9.29553 213.365L17.7344 267.258C20.6871 286.103 36.9178 299.991 55.9918 299.991H115.447C133.819 299.991 149.448 286.613 152.292 268.47L155.745 246.399C156.146 243.829 158.361 241.934 160.958 241.934C163.829 241.934 166.271 244.021 166.709 246.855L169.898 267.249C172.851 286.094 189.082 299.982 208.156 299.982H267.611C285.983 299.982 301.612 286.604 304.455 268.461L307.8 247.119C308.265 244.13 310.844 241.934 313.86 241.934C316.294 241.934 318.371 243.711 318.745 246.117L322.053 267.258C325.006 286.103 341.236 299.991 360.311 299.991H419.765C438.138 299.991 453.767 286.613 456.61 268.47L465.24 213.365C465.35 212.664 464.812 212.035 464.101 212.035H314.753H314.772Z" fill="#7FB3E9"/>
<path d="M465.277 219.225H5.71401C2.56082 219.225 0 216.664 0 213.511V212.554C0 209.392 2.56082 206.841 5.71401 206.841H465.277C468.439 206.841 470.991 209.401 470.991 212.554V213.511C470.991 216.673 468.43 219.225 465.277 219.225Z" fill="#A8D3FF"/>
<path d="M193.529 159.855C192.627 159.855 191.706 159.646 190.84 159.208C187.924 157.723 186.767 154.151 188.252 151.235C190.458 146.906 193.019 142.833 195.862 139.115C203.089 129.683 212.001 122.913 221.625 119.55C224.714 118.465 228.095 120.097 229.18 123.186C230.264 126.275 228.633 129.656 225.544 130.74C218.107 133.347 211.099 138.732 205.276 146.332C202.87 149.476 200.701 152.93 198.824 156.62C197.776 158.68 195.698 159.855 193.538 159.855H193.529Z" fill="white"/>
<path d="M193.529 162.134C192.244 162.134 190.959 161.824 189.811 161.241C185.783 159.19 184.17 154.242 186.22 150.205C188.489 145.749 191.123 141.557 194.048 137.739C201.549 127.952 210.826 120.917 220.869 117.408C222.937 116.689 225.161 116.807 227.139 117.764C229.116 118.712 230.602 120.379 231.322 122.448C232.042 124.516 231.923 126.74 230.966 128.717C230.009 130.695 228.351 132.18 226.282 132.9C219.265 135.351 212.621 140.482 207.071 147.726C204.747 150.761 202.651 154.096 200.838 157.668C199.434 160.43 196.627 162.152 193.52 162.152L193.529 162.134ZM223.584 121.5C223.183 121.5 222.773 121.573 222.381 121.71C213.177 124.926 204.629 131.433 197.675 140.509C194.914 144.109 192.426 148.064 190.285 152.274C189.373 154.069 190.084 156.265 191.879 157.176C192.399 157.441 192.955 157.577 193.529 157.577C194.914 157.577 196.163 156.812 196.782 155.582C198.723 151.773 200.965 148.191 203.462 144.938C209.55 136.992 216.923 131.333 224.787 128.581C225.708 128.262 226.446 127.596 226.874 126.722C227.294 125.847 227.357 124.854 227.029 123.933C226.71 123.013 226.045 122.275 225.17 121.846C224.669 121.609 224.131 121.482 223.594 121.482L223.584 121.5Z" fill="white"/>
<path d="M340.708 159.855C339.806 159.855 338.885 159.646 338.019 159.208C335.103 157.723 333.946 154.151 335.431 151.235C337.637 146.906 340.198 142.833 343.041 139.115C350.268 129.683 359.18 122.913 368.804 119.55C371.893 118.465 375.274 120.097 376.359 123.186C377.443 126.275 375.812 129.656 372.723 130.74C365.286 133.347 358.278 138.732 352.455 146.332C350.049 149.476 347.88 152.93 346.003 156.62C344.955 158.68 342.877 159.855 340.717 159.855H340.708Z" fill="white"/>
<path d="M340.708 162.134C339.423 162.134 338.138 161.824 336.99 161.241C332.962 159.19 331.349 154.242 333.399 150.205C335.668 145.749 338.302 141.557 341.227 137.739C348.728 127.952 358.005 120.917 368.048 117.408C372.313 115.914 377.006 118.174 378.501 122.448C379.995 126.722 377.735 131.406 373.47 132.9C366.453 135.351 359.809 140.482 354.259 147.726C351.935 150.761 349.839 154.096 348.026 157.668C346.622 160.43 343.815 162.152 340.708 162.152V162.134ZM370.763 121.5C370.362 121.5 369.961 121.564 369.56 121.701C360.356 124.917 351.808 131.424 344.854 140.5C342.093 144.1 339.614 148.055 337.464 152.265C336.552 154.06 337.263 156.256 339.058 157.167C339.578 157.432 340.134 157.568 340.708 157.568C342.093 157.568 343.342 156.803 343.961 155.573C345.902 151.763 348.144 148.182 350.641 144.929C356.729 136.983 364.102 131.324 371.966 128.572C373.862 127.906 374.873 125.82 374.208 123.924C373.68 122.42 372.267 121.482 370.763 121.482V121.5Z" fill="white"/>
</svg>
