<svg width="301" height="302" viewBox="0 0 301 302" fill="none" xmlns="http://www.w3.org/2000/svg">
<g clip-path="url(#clip0_25_2426)">
<path d="M138.436 282.629H9.37061V301.5H138.436V282.629Z" fill="#D7D7D7"/>
<path d="M59.6119 287.34H20.104V296.775H59.6119V287.34Z" fill="#BDBDBD"/>
<path d="M127.289 287.34H87.7812V296.775H127.289V287.34Z" fill="#BDBDBD"/>
<path d="M147.619 276.073C147.619 280.607 143.957 284.268 139.425 284.268H8.3814C3.86368 284.268 0.1875 280.592 0.1875 276.073V10.0092C0.1875 5.49088 3.86368 1.81421 8.3814 1.81421H139.425C143.957 1.81421 147.619 5.47612 147.619 10.0092V276.059V276.073Z" fill="#D7D7D7"/>
<path d="M147.619 89.449H0.1875V98.9434H147.619V89.449Z" fill="#BDBDBD"/>
<path d="M152.742 276.073C152.742 280.606 156.403 284.268 160.936 284.268H291.979C296.511 284.268 300.173 280.606 300.173 276.073V194.729H152.742V276.073Z" fill="#D7D7D7"/>
<path d="M291.994 105.189H160.95C156.418 105.189 152.756 108.851 152.756 113.384V194.729H300.187V113.384C300.187 108.851 296.511 105.189 291.994 105.189Z" fill="#D7D7D7"/>
<path d="M291.004 113.517H161.939V272.5H291.004V113.517Z" fill="white"/>
<path d="M160.005 113.517H138.436V120.487H160.005V113.517Z" fill="#D7D7D7"/>
<path d="M160.005 265.501H138.436V272.47H160.005V265.501Z" fill="#D7D7D7"/>
<path d="M20.1038 80.3237V4.59012C20.1038 2.33095 21.9345 0.5 24.1934 0.5H8.3814C3.84892 0.5 0.1875 4.16191 0.1875 8.695V84.4138H24.1934C21.9345 84.4138 20.1038 82.5829 20.1038 80.3237Z" fill="#E3E3E3"/>
<path d="M147.619 8.695C147.619 4.17667 143.957 0.5 139.425 0.5H123.613C125.872 0.5 127.702 2.33095 127.702 4.59012V80.3089C127.702 82.5681 125.872 84.399 123.613 84.399H147.619V8.695Z" fill="#BDBDBD"/>
<path d="M127.717 80.3237V4.59012C127.717 2.33095 125.886 0.5 123.628 0.5H24.1936C21.9347 0.5 20.104 2.33095 20.104 4.59012V80.3089C20.104 82.5681 21.9347 84.399 24.1936 84.399H123.613C125.872 84.399 127.702 82.5681 127.702 80.3089L127.717 80.3237Z" fill="#D7D7D7"/>
<path d="M65.709 69.6629C65.709 71.863 63.9226 73.6644 61.708 73.6644H28.5191C26.3192 73.6644 24.5181 71.8778 24.5181 69.6629C24.5181 67.4628 26.3045 65.6614 28.5191 65.6614H61.708C63.9078 65.6614 65.709 67.448 65.709 69.6629Z" fill="white"/>
<path d="M104.42 66.7836C108.489 66.7836 111.787 63.4848 111.787 59.4155C111.787 55.3462 108.489 52.0474 104.42 52.0474C100.351 52.0474 97.0527 55.3462 97.0527 59.4155C97.0527 63.4848 100.351 66.7836 104.42 66.7836Z" fill="#F6C885"/>
<path d="M104.42 65.307C107.673 65.307 110.31 62.6693 110.31 59.4155C110.31 56.1617 107.673 53.5239 104.42 53.5239C101.166 53.5239 98.5288 56.1617 98.5288 59.4155C98.5288 62.6693 101.166 65.307 104.42 65.307Z" fill="#146986"/>
<path d="M88.1797 42.9958L96.2998 28.9241L104.42 42.9958H88.1797Z" fill="#F6C885"/>
<path d="M90.3647 41.6079L96.285 31.3457L102.205 41.6079H90.3647Z" fill="#68DECA"/>
<path d="M142.747 108.777H4.67578V278.421H142.747V108.777Z" fill="#BDBDBD"/>
<path d="M138.436 113.517H9.37061V272.5H138.436V113.517Z" fill="white"/>
<g opacity="0.5">
<path d="M165.542 148.113V157.534C165.542 159.793 167.372 161.624 169.631 161.624H283.12C285.379 161.624 287.21 159.793 287.21 157.534V148.113H165.527H165.542Z" fill="#D1D1D1"/>
</g>
<g opacity="0.5">
<path d="M165.542 196.205V205.626C165.542 207.885 167.372 209.716 169.631 209.716H283.12C285.379 209.716 287.21 207.885 287.21 205.626V196.205H165.527H165.542Z" fill="#D1D1D1"/>
</g>
<g opacity="0.5">
<path d="M166.236 246.32V255.741C166.236 258 168.067 259.831 170.326 259.831H283.815C286.074 259.831 287.904 258 287.904 255.741V246.32H166.221H166.236Z" fill="#D1D1D1"/>
</g>
<path d="M147.619 96.6694H0.1875V103.166H147.619V96.6694Z" fill="white"/>
<path d="M147.619 84.4138H0.1875V90.9107H147.619V84.4138Z" fill="white"/>
<path d="M131.999 214.781H15.8076V217.985H131.999V214.781Z" fill="#BDBDBD"/>
<path d="M131.999 174.972H15.8076V178.176H131.999V174.972Z" fill="#BDBDBD"/>
<path d="M131.999 135.164H15.8076V138.368H131.999V135.164Z" fill="#BDBDBD"/>
<path d="M76.1622 236.649V263.419C76.1622 265.486 77.8453 267.17 79.9122 267.17H128.647C130.714 267.17 132.397 265.486 132.397 263.419V236.649H76.1475H76.1622Z" fill="#D1D1D1"/>
<path d="M15.4092 263.404C15.4092 265.472 17.0923 267.155 19.1592 267.155H67.9092C69.9761 267.155 71.6592 265.472 71.6592 263.404V236.634H15.4092V263.404Z" fill="#D1D1D1"/>
<path d="M66.6836 36.4841H52.5547V50.615H66.6836V36.4841Z" fill="#F6C885"/>
<path d="M65.4142 37.7539H53.8394V49.3303H65.4142V37.7539Z" fill="#FF4153"/>
</g>
<defs>
<clipPath id="clip0_25_2426">
<rect width="300" height="301" fill="white" transform="translate(0.1875 0.5)"/>
</clipPath>
</defs>
</svg>
