<svg width="185" height="496" viewBox="0 0 185 496" fill="none" xmlns="http://www.w3.org/2000/svg">
<g clip-path="url(#clip0_7_5479)">
<path d="M166.553 441.321L166.436 441.093C164.796 437.81 163.938 434.194 163.938 430.524V217.79C163.938 208.099 162.88 198.442 160.784 188.986L127.703 39.7967C127.329 38.117 127.143 36.4028 127.143 34.6816V25.0112H50.1612V34.6816C50.1612 36.4028 49.9744 38.117 49.6009 39.7967L16.5199 188.986C14.4238 198.442 13.3654 208.105 13.3654 217.79V430.524C13.3654 434.194 12.5076 437.81 10.868 441.093L10.7504 441.321C8.7581 445.303 7.93488 449.768 8.36378 454.192L10.3215 474.175C11.5114 486.272 21.6875 495.5 33.8559 495.5H143.441C155.609 495.5 165.792 486.279 166.975 474.175L168.933 454.192C169.369 449.761 168.539 445.303 166.546 441.321H166.553Z" fill="#C92C2C"/>
<mask id="mask0_7_5479" style="mask-type:luminance" maskUnits="userSpaceOnUse" x="8" y="25" width="162" height="471">
<path d="M166.553 441.321L166.436 441.093C164.796 437.81 163.938 434.194 163.938 430.524V217.79C163.938 208.099 162.88 198.442 160.784 188.986L127.703 39.7967C127.329 38.117 127.143 36.4028 127.143 34.6816V25.0112H50.1612V34.6816C50.1612 36.4028 49.9744 38.117 49.6009 39.7967L16.5199 188.986C14.4238 198.442 13.3654 208.105 13.3654 217.79V430.524C13.3654 434.194 12.5076 437.81 10.868 441.093L10.7504 441.321C8.7581 445.303 7.93488 449.768 8.36378 454.192L10.3215 474.175C11.5114 486.272 21.6875 495.5 33.8559 495.5H143.441C155.609 495.5 165.792 486.279 166.975 474.175L168.933 454.192C169.369 449.761 168.539 445.303 166.546 441.321H166.553Z" fill="white"/>
</mask>
<g mask="url(#mask0_7_5479)">
<path d="M177.899 433.033H9.11084V444.701H177.899V433.033Z" fill="#BF0C0C"/>
</g>
<mask id="mask1_7_5479" style="mask-type:luminance" maskUnits="userSpaceOnUse" x="8" y="25" width="162" height="471">
<path d="M166.553 441.321L166.436 441.093C164.796 437.81 163.938 434.194 163.938 430.524V217.79C163.938 208.099 162.88 198.442 160.784 188.986L127.703 39.7967C127.329 38.117 127.143 36.4028 127.143 34.6816V25.0112H50.1612V34.6816C50.1612 36.4028 49.9744 38.117 49.6009 39.7967L16.5199 188.986C14.4238 198.442 13.3654 208.105 13.3654 217.79V430.524C13.3654 434.194 12.5076 437.81 10.868 441.093L10.7504 441.321C8.7581 445.303 7.93488 449.768 8.36378 454.192L10.3215 474.175C11.5114 486.272 21.6875 495.5 33.8559 495.5H143.441C155.609 495.5 165.792 486.279 166.975 474.175L168.933 454.192C169.369 449.761 168.539 445.303 166.546 441.321H166.553Z" fill="white"/>
</mask>
<g mask="url(#mask1_7_5479)">
<path d="M166.553 441.321L166.436 441.093C164.796 437.81 163.938 434.194 163.938 430.524V217.79C163.938 208.099 162.88 198.442 160.784 188.986L127.703 39.7967C127.329 38.117 127.143 36.4028 127.143 34.6816V25.0112H108.036V34.6816C108.036 36.4028 108.222 38.117 108.596 39.7967L141.677 188.986C143.773 198.442 144.831 208.105 144.831 217.79V430.524C144.831 434.194 145.689 437.81 147.329 441.093L147.446 441.321C149.439 445.303 150.262 449.768 149.833 454.192L147.875 474.175C146.685 486.272 136.509 495.5 124.341 495.5H143.448C155.616 495.5 165.799 486.279 166.982 474.175L168.94 454.192C169.376 449.761 168.546 445.303 166.553 441.321Z" fill="#E62020"/>
</g>
<mask id="mask2_7_5479" style="mask-type:luminance" maskUnits="userSpaceOnUse" x="8" y="25" width="162" height="471">
<path d="M166.553 441.321L166.436 441.093C164.796 437.81 163.938 434.194 163.938 430.524V217.79C163.938 208.099 162.88 198.442 160.784 188.986L127.703 39.7967C127.329 38.117 127.143 36.4028 127.143 34.6816V25.0112H50.1612V34.6816C50.1612 36.4028 49.9744 38.117 49.6009 39.7967L16.5199 188.986C14.4238 198.442 13.3654 208.105 13.3654 217.79V430.524C13.3654 434.194 12.5076 437.81 10.868 441.093L10.7504 441.321C8.7581 445.303 7.93488 449.768 8.36378 454.192L10.3215 474.175C11.5114 486.272 21.6875 495.5 33.8559 495.5H143.441C155.609 495.5 165.792 486.279 166.975 474.175L168.933 454.192C169.369 449.761 168.539 445.303 166.546 441.321H166.553Z" fill="white"/>
</mask>
<g mask="url(#mask2_7_5479)">
<path d="M51.8332 84.2642L44.8987 115.545L57.7315 118.385L64.6659 87.1046L51.8332 84.2642Z" fill="#F54A4A"/>
</g>
<mask id="mask3_7_5479" style="mask-type:luminance" maskUnits="userSpaceOnUse" x="8" y="25" width="162" height="471">
<path d="M166.553 441.321L166.436 441.093C164.796 437.81 163.938 434.194 163.938 430.524V217.79C163.938 208.099 162.88 198.442 160.784 188.986L127.703 39.7967C127.329 38.117 127.143 36.4028 127.143 34.6816V25.0112H50.1612V34.6816C50.1612 36.4028 49.9744 38.117 49.6009 39.7967L16.5199 188.986C14.4238 198.442 13.3654 208.105 13.3654 217.79V430.524C13.3654 434.194 12.5076 437.81 10.868 441.093L10.7504 441.321C8.7581 445.303 7.93488 449.768 8.36378 454.192L10.3215 474.175C11.5114 486.272 21.6875 495.5 33.8559 495.5H143.441C155.609 495.5 165.792 486.279 166.975 474.175L168.933 454.192C169.369 449.761 168.539 445.303 166.546 441.321H166.553Z" fill="white"/>
</mask>
<g mask="url(#mask3_7_5479)">
<path d="M38.3249 422.229L25.188 421.946V217.797C25.188 208.983 26.1565 200.156 28.0658 191.543L37.1281 150.664L50.1129 152.371L38.3249 422.229Z" fill="#F54A4A"/>
</g>
<mask id="mask4_7_5479" style="mask-type:luminance" maskUnits="userSpaceOnUse" x="8" y="25" width="162" height="471">
<path d="M166.553 441.321L166.436 441.093C164.796 437.81 163.938 434.194 163.938 430.524V217.79C163.938 208.099 162.88 198.442 160.784 188.986L127.703 39.7967C127.329 38.117 127.143 36.4028 127.143 34.6816V25.0112H50.1612V34.6816C50.1612 36.4028 49.9744 38.117 49.6009 39.7967L16.5199 188.986C14.4238 198.442 13.3654 208.105 13.3654 217.79V430.524C13.3654 434.194 12.5076 437.81 10.868 441.093L10.7504 441.321C8.7581 445.303 7.93488 449.768 8.36378 454.192L10.3215 474.175C11.5114 486.272 21.6875 495.5 33.8559 495.5H143.441C155.609 495.5 165.792 486.279 166.975 474.175L168.933 454.192C169.369 449.761 168.539 445.303 166.546 441.321H166.553Z" fill="white"/>
</mask>
<g mask="url(#mask4_7_5479)">
<path d="M184.146 216.414H0.145508V404.983H184.146V216.414Z" fill="#FFDED4"/>
</g>
<mask id="mask5_7_5479" style="mask-type:luminance" maskUnits="userSpaceOnUse" x="8" y="25" width="162" height="471">
<path d="M166.553 441.321L166.436 441.093C164.796 437.81 163.938 434.194 163.938 430.524V217.79C163.938 208.099 162.88 198.442 160.784 188.986L127.703 39.7967C127.329 38.117 127.143 36.4028 127.143 34.6816V25.0112H50.1612V34.6816C50.1612 36.4028 49.9744 38.117 49.6009 39.7967L16.5199 188.986C14.4238 198.442 13.3654 208.105 13.3654 217.79V430.524C13.3654 434.194 12.5076 437.81 10.868 441.093L10.7504 441.321C8.7581 445.303 7.93488 449.768 8.36378 454.192L10.3215 474.175C11.5114 486.272 21.6875 495.5 33.8559 495.5H143.441C155.609 495.5 165.792 486.279 166.975 474.175L168.933 454.192C169.369 449.761 168.539 445.303 166.546 441.321H166.553Z" fill="white"/>
</mask>
<g mask="url(#mask5_7_5479)">
<path d="M171.527 389.548H6.28149V399.094H171.527V389.548Z" fill="#F2A200"/>
</g>
<mask id="mask6_7_5479" style="mask-type:luminance" maskUnits="userSpaceOnUse" x="8" y="25" width="162" height="471">
<path d="M166.553 441.321L166.436 441.093C164.796 437.81 163.938 434.194 163.938 430.524V217.79C163.938 208.099 162.88 198.442 160.784 188.986L127.703 39.7967C127.329 38.117 127.143 36.4028 127.143 34.6816V25.0112H50.1612V34.6816C50.1612 36.4028 49.9744 38.117 49.6009 39.7967L16.5199 188.986C14.4238 198.442 13.3654 208.105 13.3654 217.79V430.524C13.3654 434.194 12.5076 437.81 10.868 441.093L10.7504 441.321C8.7581 445.303 7.93488 449.768 8.36378 454.192L10.3215 474.175C11.5114 486.272 21.6875 495.5 33.8559 495.5H143.441C155.609 495.5 165.792 486.279 166.975 474.175L168.933 454.192C169.369 449.761 168.539 445.303 166.546 441.321H166.553Z" fill="white"/>
</mask>
<g mask="url(#mask6_7_5479)">
<path d="M159.144 10.8687H16.1877V80.1718H159.144V10.8687Z" fill="#AEDDFC"/>
</g>
<mask id="mask7_7_5479" style="mask-type:luminance" maskUnits="userSpaceOnUse" x="16" y="10" width="144" height="71">
<path d="M159.145 10.8684H16.188V80.1716H159.145V10.8684Z" fill="white"/>
</mask>
<g mask="url(#mask7_7_5479)">
<path d="M166.554 441.321L166.436 441.093C164.797 437.809 163.939 434.194 163.939 430.524V217.789C163.939 208.098 162.88 198.442 160.784 188.986L127.703 39.7965C127.33 38.1168 127.143 36.4025 127.143 34.6814V25.011H108.036V34.6814C108.036 36.4025 108.223 38.1168 108.596 39.7965L141.677 188.986C143.773 198.442 144.832 208.105 144.832 217.789V430.524C144.832 434.194 145.69 437.809 147.329 441.093L147.447 441.321C149.439 445.302 150.262 449.768 149.833 454.192L147.876 474.175C146.686 486.272 136.51 495.5 124.341 495.5H143.448C155.617 495.5 165.8 486.279 166.983 474.175L168.94 454.192C169.376 449.761 168.546 445.302 166.554 441.321Z" fill="#80C2ED"/>
</g>
<path d="M130.837 30.6724H44.9661V6.94922C44.9661 3.38245 47.8577 0.5 51.4204 0.5H125.178C128.298 0.5 130.83 3.02992 130.83 6.14739V30.6724H130.837Z" fill="#C92C2C"/>
<path d="M113.605 277.464C113.542 264.178 102.744 253.423 89.4338 253.423C76.124 253.423 65.3253 264.178 65.263 277.464H17.959V303.98H160.916V277.464H113.612H113.605Z" fill="#F2A200"/>
<path d="M160.916 308.576H17.959V313.996H160.916V308.576Z" fill="#F2A200"/>
<path d="M149.107 330.143H29.4009C28.1626 330.143 27.1526 329.134 27.1526 327.896V323.196C27.1526 321.959 28.1626 320.949 29.4009 320.949H149.107C150.345 320.949 151.355 321.959 151.355 323.196V327.896C151.355 329.141 150.345 330.143 149.107 330.143Z" fill="#61412A"/>
<path d="M120.446 348.882H58.0615C56.8232 348.882 55.8132 347.873 55.8132 346.636V340.878C55.8132 339.641 56.8232 338.631 58.0615 338.631H120.446C121.685 338.631 122.695 339.641 122.695 340.878V346.636C122.695 347.873 121.692 348.882 120.446 348.882Z" fill="#61412A"/>
<mask id="mask8_7_5479" style="mask-type:luminance" maskUnits="userSpaceOnUse" x="0" y="216" width="185" height="189">
<path d="M184.146 216.414H0.145508V404.983H184.146V216.414Z" fill="white"/>
</mask>
<g mask="url(#mask8_7_5479)">
<path d="M166.553 441.321L166.436 441.093C164.796 437.81 163.938 434.194 163.938 430.524V217.79C163.938 208.099 162.88 198.442 160.784 188.986L127.703 39.7967C127.329 38.117 127.143 36.4028 127.143 34.6816V25.0112H108.036V34.6816C108.036 36.4028 108.222 38.117 108.596 39.7967L141.677 188.986C143.773 198.442 144.831 208.105 144.831 217.79V430.524C144.831 434.194 145.689 437.81 147.329 441.093L147.446 441.321C149.439 445.303 150.262 449.768 149.833 454.192L147.875 474.175C146.685 486.272 136.509 495.5 124.341 495.5H143.448C155.616 495.5 165.799 486.279 166.982 474.175L168.94 454.192C169.376 449.761 168.546 445.303 166.553 441.321Z" fill="#F0D1C7"/>
</g>
</g>
<defs>
<clipPath id="clip0_7_5479">
<rect width="184" height="495" fill="white" transform="translate(0.145508 0.5)"/>
</clipPath>
</defs>
</svg>
