<svg width="351" height="168" viewBox="0 0 351 168" fill="none" xmlns="http://www.w3.org/2000/svg">
<g clip-path="url(#clip0_35_2958)">
<path d="M325.758 104.67C315.607 104.67 307.373 96.4312 307.373 86.2755C307.373 85.3695 307.457 84.4845 307.583 83.5996H244.192V95.5041H307.583C307.457 96.389 307.373 97.274 307.373 98.18C307.373 108.336 315.607 116.574 325.758 116.574C335.909 116.574 344.144 108.336 344.144 98.18C344.144 96.0941 343.786 94.0924 343.154 92.2172C340.69 99.4442 333.845 104.67 325.779 104.67H325.758Z" fill="#D5C8AB"/>
<path d="M337.426 83.9999C339.384 82.3775 341.006 80.3548 342.164 78.0371C343.407 75.5509 344.123 72.7697 344.123 69.7988C344.123 67.7129 343.765 65.7323 343.133 63.8571C340.669 56.6301 333.824 51.4048 325.758 51.4048C315.607 51.4048 307.373 59.6431 307.373 69.7988C307.373 70.9576 307.499 72.0744 307.688 73.17H244.192V83.5996H307.583C307.457 84.4635 307.373 85.3695 307.373 86.2755C307.373 96.4312 315.607 104.669 325.758 104.669C333.824 104.669 340.669 99.4652 343.133 92.2172C342.017 88.9724 340.016 86.128 337.426 83.9788V83.9999Z" fill="#E8E1D1"/>
<path d="M72.256 132.44L56.0186 167.5H176.82C208.263 167.5 235.599 150.096 249.836 124.412C239.053 129.511 227.028 132.44 214.307 132.44H72.256Z" fill="#9B2F2F"/>
<path d="M260.303 84C260.303 37.878 222.921 0.5 176.841 0.5H63.137L54.376 132.44H214.307C227.028 132.44 239.053 129.511 249.836 124.412C256.47 112.444 260.282 98.6646 260.282 84H260.303Z" fill="#C53E33"/>
<path d="M204.198 26.0158C203.63 26.0158 203.061 25.9104 202.513 25.6576C194.405 22.0757 185.75 20.2426 176.82 20.2426H73.667C71.3714 20.2426 69.4971 18.3674 69.4971 16.0708C69.4971 13.7741 71.3714 11.8989 73.667 11.8989H176.82C186.929 11.8989 196.701 13.9638 205.862 18.0092C207.968 18.9363 208.916 21.4014 207.989 23.5084C207.294 25.0676 205.778 25.9947 204.177 25.9947L204.198 26.0158Z" fill="#DD4C45"/>
<path d="M239.369 61.7292C237.747 61.7292 236.21 60.7811 235.536 59.1798C232.524 52.0792 228.27 45.6318 222.921 40.0062C221.32 38.3417 221.383 35.7079 223.047 34.1066C224.711 32.5053 227.343 32.5685 228.944 34.233C235.009 40.5751 239.79 47.8652 243.202 55.9139C244.107 58.042 243.118 60.4861 240.99 61.371C240.464 61.6028 239.916 61.7082 239.369 61.7082V61.7292Z" fill="#DD4C45"/>
<path d="M56.0185 167.5C54.6917 167.5 53.3228 167.458 51.9538 167.395C25.4811 165.983 3.34684 143.817 0.461586 115.837C-1.01263 101.614 2.73609 87.4555 10.9917 75.9513C17.5836 66.7859 20.89 55.2817 20.5741 42.6819C20.553 41.7549 20.5741 40.7856 20.5952 39.8375C21.5429 17.7773 40.2233 0.5 63.1368 0.5C68.2545 0.5 73.33 1.38494 78.1738 3.11267C93.6531 8.63298 106.205 21.9702 114.503 41.6706C120.484 55.8717 124.064 73.0647 124.064 87.6662C124.064 104.838 118.673 123.548 109.617 137.686C97.1491 157.197 78.595 167.5 55.9974 167.5H56.0185Z" fill="#9C302B"/>
<path d="M75.4991 10.6347C53.6807 2.83883 29.5457 17.0399 28.577 40.1747C28.5348 40.9543 28.5348 41.7128 28.5559 42.4713C28.8929 56.1035 25.4179 69.525 17.4782 80.5867C10.6547 90.0893 7.07445 102.099 8.40125 114.994C10.7811 138.065 29.2298 158.166 52.375 159.409C100.14 161.959 116.103 114.467 116.103 87.6452C116.103 65.1636 105.805 21.4435 75.4991 10.6136V10.6347Z" fill="#F5F2EB"/>
<path d="M56.0186 151.529C54.9656 151.529 53.8915 151.508 52.7964 151.445C34.3898 150.475 18.384 134.104 16.3201 114.193C15.246 103.869 17.9628 93.5868 23.9439 85.2642C32.5786 73.2543 36.917 58.379 36.5169 42.2816C36.5169 41.6916 36.5169 41.1017 36.5169 40.5328C37.1487 25.4678 50.543 16.4709 63.1159 16.4709C66.4013 16.4709 69.6657 17.0398 72.8036 18.1565C99.4869 27.6801 108.101 69.1035 108.101 87.6661C108.101 98.6646 104.963 115.331 96.1805 129.09C86.6402 143.986 73.1406 151.529 56.0186 151.529Z" fill="#DD363E"/>
<path d="M56.8822 122.705C65.4428 122.705 72.3825 115.762 72.3825 107.198C72.3825 98.6334 65.4428 91.6904 56.8822 91.6904C48.3216 91.6904 41.3818 98.6334 41.3818 107.198C41.3818 115.762 48.3216 122.705 56.8822 122.705Z" fill="#F5F2EB"/>
<path d="M32.5783 84.5689C29.356 84.5689 26.0285 84.4425 22.5957 84.2107L22.9537 78.9011C47.531 80.6077 65.8534 76.0145 77.4155 65.2267C86.4924 56.7566 91.2731 44.2411 91.2731 29.0076H96.6013C96.6013 45.7581 91.231 59.6221 81.0378 69.1247C70.0444 79.4068 53.7648 84.59 32.5783 84.59V84.5689Z" fill="#F5F2EB"/>
<path d="M102.793 117.311C86.1137 102.162 57.8509 109.684 57.5561 109.768L56.145 104.627C57.4086 104.29 87.5248 96.2837 106.353 113.371L102.772 117.311H102.793Z" fill="#F5F2EB"/>
<path d="M45.1091 110.843C34.8106 110.843 20.5529 108.315 12.1709 95.9465L16.5725 92.9546C28.4715 110.485 55.9972 104.501 56.271 104.438L57.4504 109.621C56.945 109.747 51.8905 110.843 45.1091 110.843Z" fill="#F5F2EB"/>
<path d="M66.8858 107.198C66.8858 112.739 62.3999 117.227 56.8611 117.227C51.3223 117.227 46.8364 112.739 46.8364 107.198C46.8364 101.657 51.3223 97.1687 56.8611 97.1687C62.3999 97.1687 66.8858 101.657 66.8858 107.198Z" fill="#9C302B"/>
<path d="M346.102 153.109L331.781 149.148V142.574L346.102 138.613C348.145 138.044 350.146 139.582 350.146 141.689V150.012C350.146 152.119 348.124 153.657 346.102 153.088V153.109Z" fill="#8E1F3F"/>
<path d="M69.56 156.881L66.8433 167.458H324.199C332.581 167.458 339.847 162.359 343.048 155.111C340.521 156.228 337.72 156.86 334.793 156.86H69.56V156.881Z" fill="#801B3A"/>
<path d="M324.199 126.245H77.4365L69.5811 156.881H334.793C337.72 156.881 340.521 156.249 343.048 155.132C344.164 152.604 344.796 149.801 344.796 146.873C344.796 135.537 335.53 126.266 324.199 126.266V126.245Z" fill="#8E1F3F"/>
<path d="M103.341 141.142H78.5739C77.2261 141.142 76.1099 140.025 76.1099 138.676C76.1099 137.328 77.2261 136.211 78.5739 136.211H103.341C104.689 136.211 105.805 137.328 105.805 138.676C105.805 140.025 104.689 141.142 103.341 141.142Z" fill="#B22F5B"/>
<path d="M147.63 141.142H113.66C112.312 141.142 111.196 140.025 111.196 138.676C111.196 137.328 112.312 136.211 113.66 136.211H147.63C148.978 136.211 150.095 137.328 150.095 138.676C150.095 140.025 148.978 141.142 147.63 141.142Z" fill="#B22F5B"/>
<path d="M85.3131 152.266C80.7431 163.265 71.2238 169.776 64.0634 166.784C56.9029 163.813 54.7969 152.477 59.3669 141.479C63.937 130.48 73.4562 123.97 80.6167 126.962C87.7772 129.932 89.8832 141.268 85.3131 152.266Z" fill="#F45671"/>
<path d="M304.36 133.156L285.09 127.847V118.976L304.36 113.666C307.098 112.908 309.815 114.973 309.815 117.817V129.005C309.815 131.85 307.098 133.915 304.36 133.156Z" fill="#F44E38"/>
<path d="M256.954 79.3646L170.67 79.4489L153.19 145.988L273.718 145.735C282.752 145.735 291.156 142.975 298.169 138.234C299.874 133.556 300.864 128.542 300.864 123.274C300.864 99.1071 281.11 79.3435 256.954 79.3435V79.3646Z" fill="#F44E38"/>
<path d="M273.718 145.735L153.19 145.988L147.546 167.458L256.954 167.205C275.845 167.205 292.019 155.069 298.169 138.234C291.177 142.954 282.753 145.735 273.718 145.735Z" fill="#C53E33"/>
<path d="M231.724 100.055H181.6C179.6 100.055 177.957 98.4119 177.957 96.4102C177.957 94.4086 179.6 92.7651 181.6 92.7651H231.724C233.725 92.7651 235.367 94.4086 235.367 96.4102C235.367 98.4119 233.725 100.055 231.724 100.055Z" fill="#F78171"/>
<path d="M185.181 134.315C175.388 157.871 155.76 172.114 141.354 166.109C126.928 160.104 123.179 136.148 132.972 112.592C142.765 89.0355 162.394 74.7923 176.799 80.7972C191.225 86.8021 194.974 110.759 185.181 134.315Z" fill="#FFA1A1"/>
<path d="M173.745 135.916C173.387 139.667 170.059 142.427 166.311 142.069C162.562 141.71 159.803 138.381 160.161 134.631C160.519 130.881 163.847 128.12 167.595 128.479C171.344 128.837 174.103 132.166 173.745 135.916Z" fill="#FFC9BF"/>
<path d="M183.075 112.107C182.822 114.909 180.316 116.995 177.515 116.721C174.714 116.448 172.629 113.961 172.903 111.159C173.176 108.357 175.661 106.271 178.462 106.545C181.285 106.798 183.348 109.305 183.075 112.107Z" fill="#FFC9BF"/>
<path d="M144.282 131.913C144.029 134.715 141.523 136.801 138.722 136.527C135.921 136.253 133.836 133.767 134.11 130.965C134.383 128.162 136.869 126.076 139.67 126.35C142.492 126.624 144.555 129.111 144.282 131.913Z" fill="#FFC9BF"/>
<path d="M162.457 94.7035C162.288 96.5787 160.624 97.9483 158.75 97.7797C156.876 97.6112 155.507 95.9467 155.675 94.0714C155.844 92.1962 157.507 90.8267 159.382 90.9952C161.256 91.1638 162.625 92.8283 162.457 94.7035Z" fill="#FFC9BF"/>
<path d="M145.145 149.717C144.977 151.592 143.313 152.962 141.438 152.793C139.564 152.625 138.195 150.96 138.364 149.085C138.532 147.21 140.196 145.84 142.07 146.009C143.945 146.177 145.314 147.842 145.145 149.717Z" fill="#FFC9BF"/>
<path d="M79.1424 132.861C78.9739 134.547 77.4997 135.769 75.8149 135.6C74.1301 135.431 72.9086 133.957 73.056 132.271C73.2245 130.585 74.6987 129.363 76.3835 129.532C78.0683 129.679 79.2898 131.175 79.1424 132.861Z" fill="#FFD7D2"/>
<path d="M72.5926 161.158C72.4241 162.843 70.9499 164.065 69.2651 163.897C67.5803 163.728 66.3588 162.253 66.5062 160.568C66.6747 158.882 68.1489 157.66 69.8337 157.829C71.5185 157.976 72.74 159.472 72.5926 161.158Z" fill="#FFD7D2"/>
<path d="M83.4808 143.291C83.3755 144.492 82.3225 145.355 81.1221 145.25C79.9216 145.145 79.0582 144.091 79.1635 142.89C79.2688 141.689 80.3218 140.825 81.5222 140.931C82.7227 141.036 83.5861 142.09 83.4808 143.291Z" fill="#FFD7D2"/>
<path d="M77.5211 151.508C77.4368 152.287 76.7418 152.877 75.9626 152.793C75.1834 152.709 74.5937 152.014 74.6779 151.234C74.7622 150.454 75.4572 149.864 76.2364 149.949C77.0156 150.033 77.6053 150.728 77.5211 151.508Z" fill="#FFD7D2"/>
<path d="M67.9176 139.625C67.8333 140.404 67.1383 140.994 66.3591 140.91C65.5799 140.826 64.9902 140.13 65.0744 139.351C65.1587 138.571 65.8537 137.981 66.6329 138.065C67.4121 138.15 68.0018 138.845 67.9176 139.625Z" fill="#FFD7D2"/>
<path d="M65.6009 150.623C65.4956 151.824 64.4426 152.688 63.2422 152.582C62.0418 152.477 61.1783 151.424 61.2836 150.223C61.3889 149.022 62.4419 148.158 63.6423 148.263C64.8428 148.368 65.7062 149.422 65.6009 150.623Z" fill="#FFD7D2"/>
</g>
<defs>
<clipPath id="clip0_35_2958">
<rect width="350" height="167" fill="white" transform="translate(0.145508 0.5)"/>
</clipPath>
</defs>
</svg>
