<svg width="350" height="276" viewBox="0 0 350 276" fill="none" xmlns="http://www.w3.org/2000/svg">
<g clip-path="url(#clip0_32_2547)">
<path d="M0 150.023C6.50098 152.321 10.9534 160.301 13.7694 166.23C15.4311 169.702 18.0188 174.914 17.3655 178.837C20.5241 182.24 31.7121 199.716 32.8981 203.861C34.7311 204.915 36.97 205.925 38.5556 207.315C32.4795 215.904 42.3166 231.222 36.6592 238.44C31.3252 233.126 24.9891 229.089 19.7566 223.471C-0.526421 201.633 3.62152 177.523 0.126848 150.848L0 150.023Z" fill="#676666"/>
<path d="M205.399 239.163C219.67 239.513 248.623 223.941 263.838 219.243C276.187 215.428 289.1 213.308 301.576 209.784C309.161 207.639 318.389 203.57 326.172 203.633C325.905 209.277 320.096 215.091 316.011 218.799C308.844 225.28 300.922 231.457 292.557 236.288C280.62 243.194 267.517 247.956 254.832 253.294C234.473 261.864 208.894 275.786 186.245 275.475C189.651 262.893 205.361 258.297 204.683 239.519L205.399 239.17V239.163Z" fill="#3A3536"/>
<path d="M259.798 30.99C269.889 35.6876 309.408 65.8665 307.296 77.839C310.265 79.5467 311.184 80.9242 312.668 84.0221C320.33 100.032 325.106 117.496 332 133.861C337.283 146.392 345.82 159.203 349.556 172.14C350.019 173.759 350.082 174.921 349.911 176.577C349.962 182.43 342.744 189.921 338.818 193.914C335.171 197.621 331.22 202.021 326.165 203.633C318.383 203.57 309.161 207.639 301.569 209.784C289.094 213.308 276.181 215.434 263.832 219.243C248.616 223.941 219.663 239.506 205.393 239.163C213.2 220.621 210.46 201.957 214.773 182.938C217.665 170.115 224.572 158.422 228.143 145.745C231.701 133.137 236.731 107.701 230.242 96.1724C241.088 95.9184 265.341 88.6943 272.673 80.848C273.212 79.5403 273.542 78.3215 273.314 76.8995C272.648 72.6971 270.155 67.7455 268.671 63.6954C264.859 53.3861 261.492 43.6037 259.83 32.6722L259.792 30.9963L259.798 30.99Z" fill="#534D4D"/>
<path d="M78.8616 45.1525C87.1385 40.7405 94.3942 37.0142 103.572 34.6527C110.599 32.8435 118.032 31.8976 124.8 29.2187C148.292 19.9124 166.831 -1.96318 194.034 0.728421C208.786 2.18849 250.208 19.3347 259.792 30.9898L259.83 32.6657C261.492 43.5972 264.859 53.3796 268.671 63.6889C270.155 67.739 272.648 72.6906 273.314 76.893C273.542 78.3213 273.212 79.5402 272.673 80.8415C265.335 88.6941 241.094 95.9119 230.242 96.1659L230.407 94.344C229.037 92.2618 227.769 92.2808 225.467 91.5L224.725 92.2173C213.974 93.3854 198.981 85.9137 188.218 83.4569C177.968 76.5248 140.18 74.595 128.358 76.8803C114.011 79.6481 108.151 90.497 100.654 101.879C94.9079 110.582 87.8298 120.447 84.1702 130.249C81.4303 137.568 80.498 145.745 76.6354 152.594C70.8385 162.859 58.8386 167.893 51.7478 176.984C45.824 184.589 43.3314 197.748 35.5112 203.36L32.8854 203.868C31.6931 199.723 20.5114 182.246 17.3529 178.844C18.0061 174.914 15.4184 169.709 13.7567 166.236C10.9534 160.307 6.50098 152.321 0 150.023C4.96611 144.373 8.80328 137.733 13.947 132.045C25.0399 119.787 37.4393 108.862 46.9339 95.22C58.439 78.7149 64.7434 60.007 78.8616 45.1525Z" fill="#BFBEBD"/>
<path d="M259.836 32.6658C261.498 43.5972 264.866 53.3796 268.677 63.689C270.162 67.7391 272.654 72.6906 273.32 76.893C273.548 78.3214 273.219 79.5402 272.68 80.8416C265.341 88.6942 241.101 95.912 230.249 96.1659L230.414 94.344C229.044 92.2618 227.775 92.2808 225.473 91.5C221.534 85.463 204.169 79.6608 197.141 77.4199C203.129 73.6365 208.532 67.5867 214.482 63.3271C226.5 54.7254 239.318 47.2982 251.604 39.1091C254.559 37.1475 257.413 35.3002 259.83 32.6658H259.836Z" fill="#676666"/>
<path d="M0 150.023C4.96611 144.374 8.80328 137.733 13.947 132.045C25.0399 119.787 37.4393 108.862 46.9339 95.2201C58.439 78.715 64.7434 60.0072 78.8616 45.1462C89.2378 50.9611 100.014 61.664 103.134 73.5286C103.635 75.4204 103.622 77.001 102.995 78.861C107.46 92.446 67.4072 131.157 58.1092 142.577C49.7816 152.366 42.1263 163.513 32.3907 171.937C28.1603 175.67 22.7249 177.441 17.3655 178.837C18.0188 174.908 15.4311 169.702 13.7694 166.23C10.9534 160.301 6.50098 152.321 0 150.023Z" fill="#9E9D9B"/>
<path d="M32.8982 203.862L35.524 203.354C43.3442 197.742 45.8367 184.582 51.7605 176.977C58.8514 167.887 70.8512 162.853 76.6482 152.588C80.5107 145.738 81.4494 137.568 84.183 130.243C87.8426 120.441 94.9207 110.583 100.667 101.873C108.164 90.4908 114.024 79.6419 128.371 76.8741C140.193 74.5951 177.981 76.5249 188.23 83.4507C198.993 85.9011 213.987 93.3792 224.737 92.2111L225.479 91.4938C227.782 92.2746 229.05 92.2555 230.42 94.3377L230.255 96.1596C236.744 107.688 231.714 133.125 228.156 145.732C224.585 158.409 217.678 170.102 214.786 182.926C210.473 201.944 213.213 220.608 205.406 239.151L204.689 239.5C205.368 258.278 189.651 262.874 186.252 275.456C165.753 276.128 144.95 265.483 125.307 260.557C95.8974 253.002 62.752 256.259 36.6719 238.421C42.3294 231.203 32.4859 215.885 38.5683 207.296C36.9827 205.912 34.7438 204.903 32.9109 203.843L32.8982 203.862Z" fill="#8A8885"/>
<path d="M32.8982 203.862L35.524 203.354C43.3442 197.742 45.8367 184.582 51.7605 176.977C58.8514 167.887 70.8512 162.853 76.6482 152.588C80.5107 145.738 81.4494 137.568 84.183 130.243C87.8426 120.441 94.9207 110.583 100.667 101.873C108.164 90.4908 114.024 79.6419 128.371 76.8741C140.193 74.5951 177.981 76.5249 188.23 83.4507L186.848 84.5235L187.26 86.3708C177.841 100.47 151.064 125.386 137.123 135.988C125.992 144.443 110.548 150.982 102.487 162.669C96.259 171.696 92.7009 186.284 89.1301 196.606C87.1068 202.414 81.2845 213.39 81.9124 219.218C83.5614 221.186 84.2528 221.674 86.9039 221.852C100.851 222.804 112.071 212.508 127.007 215.866C151.78 221.433 176.129 246.8 204.689 239.513C205.368 258.29 189.651 262.886 186.252 275.468C165.753 276.141 144.95 265.495 125.307 260.569C95.8974 253.015 62.752 256.272 36.6719 238.433C42.3294 231.216 32.4859 215.898 38.5683 207.309C36.9827 205.925 34.7438 204.915 32.9109 203.862H32.8982Z" fill="#534D4D"/>
<path d="M32.8982 203.862L35.5239 203.354C43.3441 197.742 45.8367 184.582 51.7605 176.977C58.8514 167.887 70.8512 162.853 76.6482 152.588C80.5107 145.738 81.4494 137.568 84.183 130.243C87.8426 120.441 94.9207 110.583 100.667 101.873C108.164 90.4908 114.024 79.6419 128.371 76.8741C140.193 74.5951 177.981 76.5249 188.23 83.4507L186.848 84.5235C170.763 94.8646 160.387 110.24 145.501 121.679C129.969 133.613 109.305 140.584 96.1067 155.254C90.0307 162.002 87.7664 171.416 85.8701 180.082C83.8215 189.394 81.3543 215.555 75.107 221.332C62.4792 218.151 50.4984 209.581 38.5493 207.309C36.9637 205.925 34.7248 204.915 32.8918 203.855L32.8982 203.862Z" fill="#9E9D9B"/>
</g>
<defs>
<clipPath id="clip0_32_2547">
<rect width="350" height="275" fill="white" transform="translate(0 0.5)"/>
</clipPath>
</defs>
</svg>
