<svg width="199" height="492" viewBox="0 0 199 492" fill="none" xmlns="http://www.w3.org/2000/svg">
<path d="M156.229 383.575C159.06 342.535 170.736 266.122 160.119 208.106C154.821 179.158 122.265 116.831 122.265 85.7035V47.6254C122.265 45.3151 123.351 43.1429 125.194 41.7607L125.615 41.4447C128.722 39.1146 130.111 35.1324 129.124 31.3739L122.969 7.8689H66.8494L60.2936 32.8944C59.5498 35.7314 60.5963 38.7329 62.9462 40.4903L64.3548 41.5435C66.3689 43.0574 67.5603 45.4335 67.5603 47.9545V85.6903C67.5603 116.824 35.0047 179.144 29.7061 208.093C19.0955 266.115 30.7658 342.528 33.5961 383.561C35.5971 412.569 30.6144 440.517 26.6387 464.404C24.2494 478.753 35.3207 491.812 49.8673 491.812H139.951C154.498 491.812 165.569 478.753 163.18 464.404C159.204 440.517 154.222 412.569 156.223 383.561L156.229 383.575Z" fill="#AEDDFC"/>
<mask id="mask0_7_8894" style="mask-type:luminance" maskUnits="userSpaceOnUse" x="25" y="7" width="140" height="485">
<path d="M156.229 383.575C159.06 342.535 170.736 266.122 160.119 208.106C154.821 179.158 122.265 116.831 122.265 85.7035V47.6254C122.265 45.3151 123.351 43.1429 125.194 41.7607L125.615 41.4447C128.722 39.1146 130.111 35.1324 129.124 31.3739L122.969 7.8689H66.8494L60.2936 32.8944C59.5498 35.7314 60.5963 38.7329 62.9462 40.4903L64.3548 41.5435C66.3689 43.0574 67.5603 45.4335 67.5603 47.9545V85.6903C67.5603 116.824 35.0047 179.144 29.7061 208.093C19.0955 266.115 30.7658 342.528 33.5961 383.561C35.5971 412.569 30.6144 440.517 26.6387 464.404C24.2494 478.753 35.3207 491.812 49.8673 491.812H139.951C154.498 491.812 165.569 478.753 163.18 464.404C159.204 440.517 154.222 412.569 156.223 383.561L156.229 383.575Z" fill="white"/>
</mask>
<g mask="url(#mask0_7_8894)">
<path d="M138.214 35.7708H57.5552V44.6831H138.214V35.7708Z" fill="#8BC7F0"/>
</g>
<mask id="mask1_7_8894" style="mask-type:luminance" maskUnits="userSpaceOnUse" x="25" y="7" width="140" height="485">
<path d="M156.229 383.575C159.06 342.535 170.736 266.122 160.119 208.106C154.821 179.158 122.265 116.831 122.265 85.7035V47.6254C122.265 45.3151 123.351 43.1429 125.194 41.7607L125.615 41.4447C128.722 39.1146 130.111 35.1324 129.124 31.3739L122.969 7.8689H66.8494L60.2936 32.8944C59.5498 35.7314 60.5963 38.7329 62.9462 40.4903L64.3548 41.5435C66.3689 43.0574 67.5603 45.4335 67.5603 47.9545V85.6903C67.5603 116.824 35.0047 179.144 29.7061 208.093C19.0955 266.115 30.7658 342.528 33.5961 383.561C35.5971 412.569 30.6144 440.517 26.6387 464.404C24.2494 478.753 35.3207 491.812 49.8673 491.812H139.951C154.498 491.812 165.569 478.753 163.18 464.404C159.204 440.517 154.222 412.569 156.223 383.561L156.229 383.575Z" fill="white"/>
</mask>
<g mask="url(#mask1_7_8894)">
<path d="M156.229 383.575C159.06 342.535 170.736 266.122 160.119 208.106C154.821 179.158 122.265 116.831 122.265 85.7035V47.6254C122.265 45.3151 123.351 43.1429 125.194 41.7607L125.615 41.4447C128.722 39.1146 130.111 35.1324 129.124 31.3739L122.969 7.8689H105.033L111.187 31.3739C112.168 35.1324 110.786 39.1146 107.679 41.4447L107.258 41.7607C105.415 43.1429 104.329 45.3216 104.329 47.6254V85.7035C104.329 116.837 136.884 179.158 142.183 208.106C152.793 266.128 141.123 342.541 138.293 383.575C136.292 412.582 141.275 440.53 145.25 464.417C147.64 478.766 136.568 491.826 122.022 491.826H139.958C154.505 491.826 165.576 478.766 163.187 464.417C159.211 440.53 154.228 412.582 156.229 383.575Z" fill="#AEDDFC"/>
</g>
<mask id="mask2_7_8894" style="mask-type:luminance" maskUnits="userSpaceOnUse" x="25" y="7" width="140" height="485">
<path d="M156.229 383.575C159.06 342.535 170.736 266.122 160.119 208.106C154.821 179.158 122.265 116.831 122.265 85.7035V47.6254C122.265 45.3151 123.351 43.1429 125.194 41.7607L125.615 41.4447C128.722 39.1146 130.111 35.1324 129.124 31.3739L122.969 7.8689H66.8494L60.2936 32.8944C59.5498 35.7314 60.5963 38.7329 62.9462 40.4903L64.3548 41.5435C66.3689 43.0574 67.5603 45.4335 67.5603 47.9545V85.6903C67.5603 116.824 35.0047 179.144 29.7061 208.093C19.0955 266.115 30.7658 342.528 33.5961 383.561C35.5971 412.569 30.6144 440.517 26.6387 464.404C24.2494 478.753 35.3207 491.812 49.8673 491.812H139.951C154.498 491.812 165.569 478.753 163.18 464.404C159.204 440.517 154.222 412.569 156.223 383.561L156.229 383.575Z" fill="white"/>
</mask>
<g mask="url(#mask2_7_8894)">
<path d="M40.6128 383.087C42.5808 411.648 38.0786 438.608 34.103 462.403L33.5764 465.569C33.5698 465.609 33.5632 465.655 33.5566 465.694C32.5693 471.927 37.552 477.522 43.8644 477.522H145.961C152.273 477.522 157.256 471.927 156.269 465.694C156.262 465.655 156.256 465.609 156.249 465.569L155.722 462.403C151.747 438.615 147.244 411.648 149.213 383.087C149.812 374.405 150.819 363.999 151.878 352.987C155.907 311.335 161.416 254.28 153.201 209.363C151.141 198.095 144.427 180.757 137.325 162.399C136.601 160.523 135.87 158.641 135.146 156.758H54.6921C53.9681 158.641 53.2374 160.523 52.5134 162.399C45.4112 180.757 38.6973 198.101 36.6371 209.363C28.4225 254.28 33.9318 311.328 37.9601 352.987C39.0264 363.999 40.0269 374.405 40.6259 383.087H40.6128Z" fill="#8F1C04"/>
</g>
<mask id="mask3_7_8894" style="mask-type:luminance" maskUnits="userSpaceOnUse" x="25" y="7" width="140" height="485">
<path d="M156.229 383.575C159.06 342.535 170.736 266.122 160.119 208.106C154.821 179.158 122.265 116.831 122.265 85.7035V47.6254C122.265 45.3151 123.351 43.1429 125.194 41.7607L125.615 41.4447C128.722 39.1146 130.111 35.1324 129.124 31.3739L122.969 7.8689H66.8494L60.2936 32.8944C59.5498 35.7314 60.5963 38.7329 62.9462 40.4903L64.3548 41.5435C66.3689 43.0574 67.5603 45.4335 67.5603 47.9545V85.6903C67.5603 116.824 35.0047 179.144 29.7061 208.093C19.0955 266.115 30.7658 342.528 33.5961 383.561C35.5971 412.569 30.6144 440.517 26.6387 464.404C24.2494 478.753 35.3207 491.812 49.8673 491.812H139.951C154.498 491.812 165.569 478.753 163.18 464.404C159.204 440.517 154.222 412.569 156.223 383.561L156.229 383.575Z" fill="white"/>
</mask>
<g mask="url(#mask3_7_8894)">
<mask id="mask4_7_8894" style="mask-type:luminance" maskUnits="userSpaceOnUse" x="32" y="156" width="126" height="322">
<path d="M40.6128 383.087C42.5808 411.648 38.0786 438.608 34.103 462.403L33.5764 465.569C33.5698 465.609 33.5632 465.655 33.5566 465.694C32.5693 471.927 37.552 477.522 43.8644 477.522H145.961C152.273 477.522 157.256 471.927 156.269 465.694C156.262 465.655 156.256 465.609 156.249 465.569L155.722 462.403C151.747 438.615 147.244 411.648 149.213 383.087C149.812 374.405 150.819 363.999 151.878 352.987C155.907 311.335 161.416 254.28 153.201 209.363C151.141 198.095 144.427 180.757 137.325 162.399C136.601 160.523 135.87 158.641 135.146 156.758H54.6921C53.9681 158.641 53.2374 160.523 52.5134 162.399C45.4112 180.757 38.6973 198.101 36.6371 209.363C28.4225 254.28 33.9318 311.328 37.9601 352.987C39.0264 363.999 40.0269 374.405 40.6259 383.087H40.6128Z" fill="white"/>
</mask>
<g mask="url(#mask4_7_8894)">
<path d="M156.229 383.575C159.06 342.535 170.736 266.122 160.119 208.106C154.821 179.158 122.265 116.831 122.265 85.7035V47.6254C122.265 45.3151 123.351 43.1429 125.194 41.7607L125.615 41.4447C128.722 39.1146 130.111 35.1324 129.124 31.3739L122.969 7.8689H105.033L111.187 31.3739C112.168 35.1324 110.786 39.1146 107.679 41.4447L107.258 41.7607C105.415 43.1429 104.329 45.3216 104.329 47.6254V85.7035C104.329 116.837 136.884 179.158 142.183 208.106C152.793 266.128 141.123 342.541 138.293 383.575C136.292 412.582 141.275 440.53 145.25 464.417C147.64 478.766 136.568 491.826 122.022 491.826H139.958C154.505 491.826 165.576 478.766 163.187 464.417C159.211 440.53 154.228 412.582 156.229 383.575Z" fill="#7D1600"/>
</g>
</g>
<mask id="mask5_7_8894" style="mask-type:luminance" maskUnits="userSpaceOnUse" x="25" y="7" width="140" height="485">
<path d="M156.229 383.575C159.06 342.535 170.736 266.122 160.119 208.106C154.821 179.158 122.265 116.831 122.265 85.7035V47.6254C122.265 45.3151 123.351 43.1429 125.194 41.7607L125.615 41.4447C128.722 39.1146 130.111 35.1324 129.124 31.3739L122.969 7.8689H66.8494L60.2936 32.8944C59.5498 35.7314 60.5963 38.7329 62.9462 40.4903L64.3548 41.5435C66.3689 43.0574 67.5603 45.4335 67.5603 47.9545V85.6903C67.5603 116.824 35.0047 179.144 29.7061 208.093C19.0955 266.115 30.7658 342.528 33.5961 383.561C35.5971 412.569 30.6144 440.517 26.6387 464.404C24.2494 478.753 35.3207 491.812 49.8673 491.812H139.951C154.498 491.812 165.569 478.753 163.18 464.404C159.204 440.517 154.222 412.569 156.223 383.561L156.229 383.575Z" fill="white"/>
</mask>
<g mask="url(#mask5_7_8894)">
<path d="M198.5 207.639H0.145508V300.026H198.5V207.639Z" fill="#EB291F"/>
</g>
<mask id="mask6_7_8894" style="mask-type:luminance" maskUnits="userSpaceOnUse" x="0" y="207" width="199" height="94">
<path d="M198.146 207.639H0.145508V300.027H198.146V207.639Z" fill="white"/>
</mask>
<g mask="url(#mask6_7_8894)">
<path d="M155.95 383.575C158.776 342.535 170.432 266.122 159.834 208.106C154.544 179.158 122.047 116.831 122.047 85.7037V47.6257C122.047 45.3153 123.131 43.1432 124.971 41.7609L125.391 41.445C128.493 39.1149 129.879 35.1326 128.893 31.3742L122.75 7.86914H104.846L110.989 31.3742C111.968 35.1326 110.588 39.1149 107.487 41.445L107.066 41.7609C105.227 43.1432 104.143 45.3219 104.143 47.6257V85.7037C104.143 116.838 136.64 179.158 141.929 208.106C152.521 266.129 140.871 342.541 138.046 383.575C136.049 412.583 141.022 440.531 144.991 464.417C147.376 478.767 136.325 491.826 121.804 491.826H139.708C154.229 491.826 165.28 478.767 162.895 464.417C158.927 440.531 153.953 412.583 155.95 383.575Z" fill="#BD0A00"/>
</g>
<path d="M128.367 13.1413H61.189L62.0578 8.22437C62.8872 3.53126 66.2178 0.1875 70.0684 0.1875H120.021C123.562 0.1875 126.623 3.26139 127.386 7.57932L128.367 13.1479V13.1413Z" fill="#D10B00"/>
<path d="M75.762 129.383C75.1433 129.383 74.5114 129.291 73.8861 129.093C70.5884 128.06 68.7585 124.552 69.7919 121.254C74.4982 106.253 76.7822 94.6224 76.7822 85.6903C76.7822 82.2347 79.5797 79.4373 83.0353 79.4373C86.491 79.4373 89.2884 82.2347 89.2884 85.6903C89.2884 96.0507 86.8859 108.537 81.7255 124.993C80.8895 127.665 78.4212 129.376 75.762 129.376V129.383Z" fill="#6CC3FC"/>
<path d="M46.695 362.064C43.5092 362.064 40.7908 359.642 40.4814 356.41L40.1325 352.777C36.1174 311.249 30.6213 254.379 38.7832 209.758C40.8105 198.694 47.4849 181.448 54.5476 163.189C55.4296 160.918 56.3116 158.641 57.187 156.357C58.4311 153.132 62.0447 151.526 65.27 152.77C68.4953 154.014 70.1013 157.627 68.8573 160.853C67.9753 163.137 67.0933 165.427 66.2112 167.705C59.3657 185.398 52.8954 202.11 51.0853 212.01C43.2393 254.912 48.6367 310.782 52.5795 351.572L52.9283 355.205C53.2575 358.641 50.7431 361.695 47.3071 362.031C47.1031 362.051 46.899 362.064 46.7016 362.064H46.695Z" fill="#8F1C04"/>
<path d="M44.0752 460.172C43.7395 460.172 43.4039 460.145 43.0682 460.093C39.6586 459.54 37.3416 456.328 37.8945 452.918C41.3699 431.48 44.378 408.337 42.8904 384.305C42.6798 380.856 45.2995 377.887 48.742 377.677C52.1845 377.453 55.1531 380.086 55.3703 383.528C56.9369 408.784 53.8301 432.763 50.2362 454.912C49.7359 457.98 47.0833 460.165 44.0687 460.165L44.0752 460.172Z" fill="#8F1C04"/>
</svg>
