<svg width="50" height="494" viewBox="0 0 50 494" fill="none" xmlns="http://www.w3.org/2000/svg">
<g clip-path="url(#clip0_9_9182)">
<path d="M33.9349 68.4888C24.1617 70.837 14.4109 73.1853 4.63776 75.5335C-1.28876 50.8434 -1.28876 25.1022 4.63776 0.412109L33.9349 7.43447C29.1266 27.4952 29.1266 48.4057 33.9349 68.4888Z" fill="#FFBD76"/>
<path d="M33.2865 65.7379C23.4686 67.8625 13.6731 70.0095 3.85521 72.1341C3.54211 70.7251 3.27374 69.3385 3.00537 67.9296C12.868 66.051 22.7306 64.1948 32.5932 62.3162C32.8169 63.4567 33.0405 64.5973 33.2865 65.7379Z" fill="#FFA348"/>
<path d="M31.4079 21.0319C21.4558 19.7348 11.5037 18.4377 1.5293 17.1406C1.70821 15.7316 1.90949 14.3003 2.13313 12.8914C12.0405 14.4569 21.9702 16.0223 31.8999 17.5878C31.721 18.7284 31.5644 19.8914 31.4079 21.0319Z" fill="#FFA348"/>
<path d="M32.3027 60.7284C22.4177 62.4728 12.5328 64.2172 2.64777 65.984C2.51358 65.2236 2.3794 64.4632 2.26758 63.7028C12.1749 62.0926 22.1046 60.4824 32.012 58.8945C32.1014 59.5207 32.2133 60.1246 32.3251 60.7508L32.3027 60.7284Z" fill="#FFD199"/>
<path d="M32.2354 15.5975C22.3504 13.8755 12.4431 12.1534 2.55811 10.4538C2.69229 9.69337 2.82648 8.93299 2.96066 8.17261C12.8233 10.0288 22.6859 11.8851 32.5709 13.7637C32.4591 14.3675 32.3472 14.9937 32.2354 15.6199V15.5975Z" fill="#FFD199"/>
<path d="M33.3088 10.1404C23.4909 8.01584 13.673 5.86887 3.87744 3.74427C4.01163 3.09571 4.16818 2.44715 4.30236 1.79858C14.0979 4.05737 23.8711 6.31616 33.6442 8.57494C33.5324 9.08932 33.3982 9.62606 33.2864 10.1404H33.3088Z" fill="#FFA348"/>
<path d="M31.5645 56.0991C21.6124 57.4857 11.6827 58.8723 1.73059 60.2812C1.52931 58.8723 1.3504 57.441 1.19385 56.032C11.1683 54.9138 21.1427 53.7732 31.1172 52.655C31.2514 53.7956 31.3855 54.9585 31.5645 56.0991Z" fill="#FFA348"/>
<path d="M30.8043 49.3226C20.8075 50.1948 10.7883 51.067 0.791523 51.9392C0.590245 49.7475 0.456059 47.5558 0.344238 45.3641C10.3858 44.8945 20.4049 44.4472 30.4465 43.9775C30.5359 45.7667 30.6478 47.5335 30.8043 49.3226Z" fill="#FFD199"/>
<path d="M30.4017 42.904C20.3602 43.2842 10.341 43.6644 0.299515 44.0446C0.299515 43.4408 0.254786 42.8369 0.232422 42.2331C10.274 41.9647 20.3155 41.6963 30.3347 41.428C30.3347 41.92 30.357 42.412 30.3794 42.904H30.4017Z" fill="#FFA348"/>
<path d="M30.3121 38.0958C20.2706 38.0958 10.229 38.0958 0.1875 38.1181C0.1875 37.5143 0.1875 36.9105 0.1875 36.3066C10.229 36.4185 20.2706 36.5079 30.3121 36.6197C30.3121 37.1118 30.3121 37.6038 30.3121 38.0958Z" fill="#FFB266"/>
<path d="M30.357 34.8977C20.3155 34.674 10.274 34.428 0.232422 34.182C0.232422 33.2203 0.27715 32.2363 0.321879 31.2747C10.3634 31.6996 20.3826 32.1021 30.4241 32.5271C30.4018 33.3098 30.357 34.0925 30.357 34.8977Z" fill="#FFB266"/>
<path d="M31.8327 57.7762C21.903 59.297 11.9733 60.8177 2.04356 62.3385C1.97647 61.9136 1.90938 61.4663 1.84229 61.0414C11.772 59.6101 21.7241 58.1564 31.6538 56.7251C31.6985 57.0829 31.7656 57.4184 31.8103 57.7762H31.8327Z" fill="#FFB266"/>
<path d="M33.6668 67.3482C23.8712 69.607 14.0981 71.8658 4.32491 74.1246C4.23546 73.6997 4.12364 73.2748 4.03418 72.8275C13.8297 70.6581 23.6476 68.4664 33.4431 66.2971C33.5102 66.6549 33.5997 66.9904 33.6891 67.3482H33.6668Z" fill="#FFB266"/>
<path d="M32.7946 12.6006C22.9543 10.6549 13.0917 8.70924 3.25146 6.76356C3.38565 6.115 3.51984 5.46643 3.65402 4.81787C13.4719 6.87538 23.3122 8.95525 33.1301 11.0128C33.0182 11.5495 32.9064 12.0639 32.817 12.6006H32.7946Z" fill="#FFB266"/>
<path d="M31.0276 24.2077C21.0532 23.1566 11.0564 22.1054 1.05957 21.032C1.12666 20.4281 1.19376 19.8243 1.26085 19.2205C11.2353 20.3834 21.2097 21.5463 31.1842 22.7316C31.1171 23.2237 31.0723 23.7157 31.0276 24.1853V24.2077Z" fill="#FFA348"/>
<path d="M30.8264 26.3546C20.8296 25.46 10.8104 24.5655 0.813592 23.6709C0.634678 25.6837 0.500493 27.7188 0.388672 29.754C10.4078 30.2683 20.4494 30.7827 30.4685 31.2971C30.558 29.6421 30.6698 28.0096 30.804 26.3546H30.8264Z" fill="#FFD199"/>
<path d="M27.0248 493.588H19.3091C13.5615 493.588 8.93214 488.847 9.06632 483.099L16.8043 154.569C16.8043 152.869 18.1909 151.482 19.8906 151.482H26.4433C28.143 151.482 29.5296 152.869 29.5296 154.569L37.2676 483.099C37.4018 488.847 32.7724 493.588 27.0248 493.588Z" fill="#659DD1"/>
<path d="M25.4816 493.588H20.8299C17.3634 493.588 14.5232 490.725 14.5455 487.192L16.8267 156.559C16.8267 153.763 18.1685 151.46 19.8906 151.46H26.4433C28.143 151.46 29.5072 153.741 29.5072 156.559L31.7884 487.192C31.8107 490.725 28.9705 493.588 25.504 493.588H25.4816Z" fill="#92D3FF"/>
<path d="M42.2771 75.3993H33.7787C29.9768 75.3993 26.8682 72.313 26.8682 68.4887V11.1469C26.8682 7.34495 29.9544 4.23633 33.7787 4.23633H42.2771C46.079 4.23633 49.1877 7.32259 49.1877 11.1469V68.4887C49.1877 72.2906 46.1014 75.3993 42.2771 75.3993Z" fill="#92D3FF"/>
<path d="M22.3507 160.518L21.389 160.294C18.2357 159.578 16.2229 156.447 16.9385 153.294L36.5296 67.6167C37.2452 64.4409 40.3762 62.4505 43.5296 63.1662L44.4912 63.3898C47.6446 64.0831 49.6574 67.2365 48.9417 70.3898L29.3507 156.067C28.635 159.243 25.504 161.233 22.3507 160.518Z" fill="#92D3FF"/>
</g>
<defs>
<clipPath id="clip0_9_9182">
<rect width="49" height="493.176" fill="white" transform="translate(0.1875 0.412109)"/>
</clipPath>
</defs>
</svg>
