<svg width="142" height="500" viewBox="0 0 142 500" fill="none" xmlns="http://www.w3.org/2000/svg">
<g clip-path="url(#clip0_9_9172)">
<path d="M130.447 100.716L92.1986 61.8687H49.1764L10.9583 100.716L0.1875 465.346V500H141.188V465.346L130.447 100.716Z" fill="#659DD1"/>
<path d="M118.024 100.716L87.7313 61.8687H53.644L23.3511 100.716L14.814 465.346V500H126.561V465.346L118.024 100.716Z" fill="#70B3E5"/>
<path d="M130.447 100.716L92.1987 61.8687H49.1766L10.9585 100.716H130.447Z" fill="#92D3FF"/>
<path d="M49.1764 61.8687L41.2207 69.9198H100.154L92.1986 61.8687H49.1764Z" fill="#659DD1"/>
<path d="M96.2684 65.4503H45.1069L49.7886 2.66332C49.911 1.16329 51.1961 0 52.6955 0H88.6798C90.1792 0 91.4644 1.16329 91.5868 2.66332L96.2684 65.4503Z" fill="#FFCD2C"/>
<path d="M70.6877 135.982C43.883 135.982 22.1577 203.545 22.1577 286.904C22.1577 370.263 43.883 437.825 70.6877 437.825C97.4924 437.825 119.218 370.263 119.218 286.904C119.218 203.545 97.4924 135.982 70.6877 135.982ZM36.2026 321.343C22.9227 304.996 26.9924 273.434 45.2905 250.903C63.5887 228.372 89.2 223.352 102.48 239.699C115.76 256.046 111.69 287.577 93.3921 310.139C75.0939 332.67 49.4826 337.691 36.2026 321.343Z" fill="#92D3FF"/>
<path d="M80.5097 312.159L72.6458 289.138C71.6054 286.996 68.5149 287.118 67.6581 289.353L61.1405 312.159C59.9778 314.486 56.4895 313.874 56.2141 311.272L52.2057 284.302L49.5741 273.587C47.83 266.454 50.3085 258.679 56.3977 254.577C59.2434 252.648 62.6705 251.546 66.3424 251.546H75.7669C78.2148 251.546 80.5709 252.036 82.7128 252.954C90.8521 256.383 94.6464 265.842 92.1067 274.291L89.6588 282.434L85.3137 311.302C85.0077 313.751 81.7948 314.302 80.5097 312.19V312.159Z" fill="#FFF9EE"/>
<path d="M0.1875 465.346V500H6.1543V482.275C6.1543 480.285 7.77604 478.693 9.73437 478.693C11.6927 478.693 13.3145 480.285 13.3145 482.275V500H21.3314V482.275C21.3314 480.285 22.9225 478.693 24.9115 478.693C26.9004 478.693 28.4915 480.285 28.4915 482.275V500H36.5085V482.275C36.5085 480.285 38.0996 478.693 40.0885 478.693C42.0775 478.693 43.6686 480.285 43.6686 482.275V500H51.6855V482.275C51.6855 480.285 53.2767 478.693 55.2656 478.693C57.2546 478.693 58.8457 480.285 58.8457 482.275V500H66.8626V482.275C66.8626 480.285 68.4538 478.693 70.4427 478.693C72.4316 478.693 74.0228 480.285 74.0228 482.275V500H82.0397V482.275C82.0397 480.285 83.6309 478.693 85.6198 478.693C87.6087 478.693 89.1999 480.285 89.1999 482.275V500H97.2168V482.275C97.2168 480.285 98.8079 478.693 100.797 478.693C102.786 478.693 104.377 480.285 104.377 482.275V500H112.394V482.275C112.394 480.285 113.985 478.693 115.974 478.693C117.963 478.693 119.554 480.285 119.554 482.275V500H127.571V482.275C127.571 480.285 129.162 478.693 131.151 478.693C133.14 478.693 134.731 480.285 134.731 482.275V500H141.157V465.346H0.1875Z" fill="#43719E"/>
</g>
<defs>
<clipPath id="clip0_9_9172">
<rect width="141" height="500" fill="white" transform="translate(0.1875)"/>
</clipPath>
</defs>
</svg>
