<svg width="351" height="212" viewBox="0 0 351 212" fill="none" xmlns="http://www.w3.org/2000/svg">
<path d="M238.344 40.4669C241.565 36.7966 243.738 32.1338 244.243 26.8531C245.442 14.4565 236.659 2.88381 224.394 0.711599C210.817 -1.70405 198.065 7.64022 196.155 21.1791C195.481 26.0479 196.305 30.7668 198.271 34.8865C199.113 36.6468 198.814 38.8003 197.522 40.2609C194.488 43.6878 192.409 47.9947 191.717 52.8635C191.042 57.7322 191.866 62.4512 193.833 66.5709C194.675 68.3499 194.357 70.5034 193.046 71.9827C189.825 75.653 187.653 80.3158 187.147 85.5965C185.949 97.9931 194.732 109.566 206.997 111.738C220.573 114.154 233.326 104.809 235.236 91.2705C235.91 86.4017 235.086 81.6828 233.12 77.5631C232.277 75.8028 232.577 73.6493 233.869 72.1887C236.903 68.7619 238.981 64.4549 239.674 59.5861C240.348 54.7174 239.524 49.9984 237.558 45.8787C236.715 44.0997 237.034 41.9462 238.344 40.4669Z" fill="#56A953"/>
<path d="M277.164 57.6198C282.763 56.0093 287.95 52.7136 291.864 47.7325C301.039 36.0662 299.672 18.7634 288.774 8.68877C276.677 -2.47192 257.857 -1.31091 247.24 11.0857C243.419 15.5425 241.21 20.8045 240.536 26.2163C240.236 28.5383 238.551 30.5046 236.304 31.1412C231.06 32.6393 226.191 35.6167 222.371 40.0735C218.551 44.5303 216.342 49.7923 215.667 55.2041C215.368 57.5262 213.664 59.4924 211.398 60.1291C205.799 61.7395 200.612 65.0353 196.698 70.0164C187.522 81.6827 188.889 98.9855 199.806 109.06C211.903 120.221 230.723 119.041 241.341 106.663C245.161 102.206 247.371 96.9444 248.045 91.5326C248.344 89.2105 250.03 87.2443 252.277 86.6076C257.52 85.1096 262.389 82.1321 266.209 77.6753C270.029 73.2185 272.239 67.9565 272.913 62.5447C273.213 60.204 274.917 58.2565 277.182 57.6198H277.164Z" fill="#8FD86E"/>
<path d="M252.484 53.2002L273.176 52.2639C274.581 52.2077 275.667 51.0093 275.611 49.6048C275.554 48.2004 274.356 47.1142 272.951 47.1704L257.053 47.9007L262.465 41.6088L283.157 40.6725C284.562 40.6163 285.648 39.4179 285.592 38.0134C285.535 36.609 284.337 35.5229 282.932 35.579L267.034 36.3093L279.262 22.0589C280.18 20.9915 280.049 19.381 278.981 18.4635C277.914 17.5459 276.303 17.677 275.386 18.7444L242.653 56.8892L240.949 41.0657C240.799 39.6613 239.544 38.6501 238.14 38.7999C236.735 38.9497 235.724 40.2044 235.874 41.6088L238.084 62.2074L213.29 91.1016L211.081 69.136C210.931 67.7316 209.695 66.7204 208.29 66.8514C206.886 66.9825 205.875 68.2372 206.006 69.6416L208.702 96.4385L185.37 123.629C184.452 124.696 184.583 126.306 185.651 127.224C186.718 128.142 188.328 128.011 189.246 126.943L252.484 53.2564V53.2002Z" fill="#56A953"/>
<path d="M315.57 99.491C322.33 99.7532 329.222 97.9742 335.345 93.9107C349.689 84.3604 354.427 64.7918 346.056 49.7548C336.768 33.0699 315.589 27.5645 299.391 37.3582C293.567 40.8787 289.223 45.8972 286.526 51.6087C285.365 54.0618 282.8 55.616 280.084 55.5037C273.755 55.2602 267.313 56.777 261.49 60.2975C255.666 63.818 251.321 68.8366 248.625 74.5667C247.464 77.0386 244.861 78.5554 242.146 78.4617C235.385 78.1996 228.494 79.9785 222.371 84.0421C208.027 93.5923 203.289 113.161 211.678 128.198C220.966 144.883 242.146 150.388 258.344 140.595C264.167 137.074 268.512 132.056 271.208 126.344C272.369 123.891 274.935 122.337 277.65 122.449C283.979 122.693 290.421 121.176 296.245 117.655C302.069 114.135 306.413 109.116 309.11 103.386C310.271 100.933 312.874 99.3974 315.589 99.491H315.57Z" fill="#56A953"/>
<path d="M295.928 111.57C296.377 109.997 295.441 108.367 293.868 107.918L266.041 100.184L289.973 85.6903L313.118 92.132C314.691 92.5627 316.32 91.6451 316.77 90.0721C317.219 88.4992 316.283 86.87 314.71 86.4206L296.92 81.4769L330.758 60.9907C332.163 60.148 332.612 58.3316 331.751 56.9271C330.889 55.5227 329.091 55.092 327.687 55.9347L277.82 86.1397L281.677 68.0878C282.014 66.4961 281.003 64.9231 279.411 64.5861C277.82 64.249 276.247 65.2602 275.91 66.8519L270.891 90.353L233.12 113.236L238.626 88.237C238.982 86.6453 237.971 85.0723 236.379 84.7165C234.787 84.3607 233.214 85.3719 232.858 86.9636L226.136 117.468L190.594 139.003C189.189 139.846 188.74 141.662 189.601 143.067C190.463 144.471 192.26 144.902 193.665 144.059L259.15 104.398L292.332 113.629C293.905 114.06 295.534 113.143 295.965 111.57H295.928Z" fill="#459B45"/>
<path d="M30.2793 69.8663L29.2119 70.3719L30.6725 66.2896C31.0283 65.2784 30.504 64.1549 29.4928 63.7991C28.4816 63.4433 27.358 63.9676 27.0022 64.9788L25.5416 69.0611L25.036 67.9937C24.5678 67.0199 23.4255 66.608 22.4331 67.0574C21.4593 67.5068 21.0473 68.6866 21.4967 69.6416L23.1634 73.1995L23.6502 74.2295L22.1147 78.499L18.0699 69.9225L18.7066 68.1622L20.8975 62.0763C21.4967 60.4097 20.6353 58.5745 18.9687 57.9753C17.3021 57.3761 15.467 58.2375 14.8677 59.9041L14.2123 61.7205L11.1787 55.26C10.4297 53.6683 8.5196 52.9754 6.90916 53.7245C5.31745 54.4735 4.62458 56.3836 5.37363 57.994L8.40724 64.4545L6.59081 63.7991C4.9242 63.1998 3.08905 64.0612 2.48981 65.7278C1.89058 67.3945 2.75198 69.2296 4.41859 69.8288L10.5046 72.0198L12.2648 72.6565L16.3096 81.233L12.0401 79.6974L11.5532 78.6675L9.8866 75.1096C9.43718 74.1358 8.25743 73.7238 7.30241 74.1733C6.32865 74.6227 5.91668 75.8024 6.3661 76.7575L6.87171 77.8248L2.78943 76.3642C1.77822 76.0084 0.654658 76.5327 0.298863 77.544C-0.0569314 78.5552 0.4674 79.6787 1.47861 80.0345L5.56088 81.4951L4.4935 82.0007C3.51975 82.4502 3.10777 83.6299 3.5572 84.5849C4.00662 85.5587 5.18637 85.9706 6.14139 85.5212L9.69934 83.8546L10.7293 83.3677L18.6691 86.2141L19.0624 87.0193L16.3845 94.491L20.0548 95.8018L21.4218 92.0004L27.4142 104.697L33.2192 101.963L27.2269 89.2664L31.0283 90.6334L32.3391 86.9631L24.8674 84.2853L24.4742 83.4801L27.3205 75.5403L28.3505 75.0534L31.9084 73.3868C32.8822 72.9374 33.2941 71.7576 32.8447 70.8026C32.3766 69.8288 31.2156 69.4169 30.2418 69.8663H30.2793Z" fill="#8FD853"/>
<path d="M50.2592 94.023C51.6824 97.0192 55.2216 108.517 59.6223 123.498C60.0155 124.865 60.4275 126.269 60.8582 127.692C64.2289 139.302 68.0115 152.617 71.6444 165.594C72.0376 167.017 72.4309 168.421 72.8241 169.826C74.9963 177.616 77.1124 185.181 79.0224 192.091C80.764 198.402 72.356 202.372 68.592 196.997C68.1239 196.342 67.6557 195.668 67.1876 194.994C69.21 193.739 70.5208 191.361 69.7156 188.514C68.3861 183.702 66.9629 178.59 65.4835 173.309C65.0903 171.923 64.7157 170.5 64.3225 169.077C64.0791 168.253 63.8543 167.429 63.6296 166.605C62.9742 164.264 62.3001 161.905 61.6447 159.508C60.4837 155.444 59.3226 151.306 58.1803 147.261C57.6186 145.295 57.0755 143.347 56.5137 141.419C55.5025 137.917 54.5288 134.49 53.5737 131.157C53.1805 129.715 52.7685 128.31 52.3753 126.943C50.7648 121.382 49.2293 116.157 47.8249 111.494C47.6563 110.895 47.4691 110.296 47.3005 109.734C46.4204 106.832 45.6152 104.154 44.8849 101.776C44.7538 101.345 44.6227 100.933 44.4916 100.54C44.2669 99.8281 44.0609 99.154 43.8549 98.4986C43.78 98.2177 43.6864 97.9555 43.5928 97.7121C43.0872 96.1391 42.6377 94.7908 42.2258 93.6485C41.7202 92.2066 41.3082 91.1205 40.9899 90.4651C40.8588 90.1842 40.7277 89.9033 40.5779 89.6412C40.3719 89.2479 40.1472 88.8359 39.9037 88.4614C39.679 88.0682 39.4356 87.6937 39.1734 87.3379C38.9862 87.0383 38.7614 86.7386 38.5367 86.4577C38.4431 86.3267 38.3307 86.1956 38.2184 86.0645C38.0124 85.7836 37.7877 85.5214 37.5443 85.278C37.2821 84.9597 36.9825 84.6413 36.6829 84.3604C35.7466 83.4429 34.7354 82.6002 33.668 81.8699C38.0124 82.4691 42.1321 84.3604 45.4092 87.3566C46.514 88.3491 47.5065 89.4914 48.3866 90.746C49.1169 91.7572 49.7536 92.862 50.3154 94.0418L50.2592 94.023Z" fill="#FC5E15"/>
<path d="M40.953 90.4463C41.2713 91.1204 41.6833 92.1878 42.1889 93.6297C44.3237 99.6782 48.0689 112.112 52.3571 126.925C52.7504 128.292 53.1624 129.696 53.5556 131.138C57.0387 143.16 60.7839 156.474 64.3044 169.058C64.6976 170.481 65.0721 171.904 65.4654 173.29C66.9447 178.59 68.3679 183.702 69.6975 188.496C70.5027 191.361 69.1919 193.739 67.1694 194.975C59.679 184.282 51.0651 171.923 42.863 160.032C42.0204 158.815 41.1964 157.635 40.3912 156.437C34.0243 147.242 28.0507 138.46 23.1258 131.138C22.2831 129.883 21.4779 128.666 20.7101 127.505C18.8188 124.64 17.1335 122.074 15.729 119.884C14.8489 118.498 14.0811 117.262 13.4257 116.195C12.377 114.49 11.628 113.198 11.2535 112.393C6.79669 102.955 9.81158 91.8882 17.8825 85.8959C19.0248 85.0532 20.242 84.3229 21.5528 83.6862C22.6389 83.1806 23.7438 82.7686 24.8673 82.469C27.7699 81.6263 30.7473 81.4391 33.6311 81.8511C36.44 83.7798 38.8557 86.4015 40.541 89.6036C40.6908 89.8658 40.8219 90.1467 40.953 90.4276V90.4463Z" fill="#FE8431"/>
<path d="M33.1258 109.303C33.6314 110.371 33.1632 111.681 32.0958 112.187L15.7105 119.902C14.8304 118.516 14.0626 117.281 13.4072 116.213L30.2419 108.273C31.3093 107.768 32.6201 108.236 33.1258 109.303Z" fill="#FC5E15"/>
<path d="M32.4689 124.359C32.9745 125.426 32.5251 126.718 31.4577 127.224L23.1246 131.156C22.282 129.902 21.4768 128.685 20.709 127.524L29.6226 123.329C30.69 122.823 31.9821 123.292 32.4877 124.359H32.4689Z" fill="#FC5E15"/>
<path d="M59.6238 123.498C60.017 124.865 60.429 126.269 60.8597 127.692L46.5155 134.452C45.4481 134.958 44.1373 134.49 43.6317 133.423C43.1261 132.355 43.5943 131.044 44.6617 130.539L59.6238 123.479V123.498Z" fill="#FC5E15"/>
<path d="M50.2602 154.171C50.7658 155.238 50.2977 156.549 49.2303 157.055L42.8634 160.051C42.0208 158.834 41.1968 157.654 40.3916 156.455L47.4139 153.141C48.4813 152.635 49.7734 153.085 50.279 154.171H50.2602Z" fill="#FC5E15"/>
<path d="M71.6462 165.612C72.0394 167.035 72.4326 168.44 72.8259 169.844L60.4667 175.668C59.3993 176.174 58.0885 175.706 57.5829 174.638C57.0773 173.571 57.5455 172.26 58.6128 171.754L71.6462 165.612Z" fill="#FC5E15"/>
<path d="M48.332 90.7459L31.4599 98.7045C30.3925 99.2101 29.0817 98.7419 28.5761 97.6745C28.0705 96.6072 28.5386 95.2963 29.606 94.7907L45.3546 87.3752C46.4594 88.3677 47.4519 89.51 48.332 90.7646V90.7459Z" fill="#FC5E15"/>
<path d="M94.8272 31.1225H93.6475L96.7186 28.0515C97.4863 27.2837 97.4863 26.0478 96.7186 25.2987C95.9508 24.531 94.7149 24.531 93.9658 25.2987L90.8948 28.3698V27.1901C90.8948 26.1227 90.0146 25.2426 88.9472 25.2426C87.8799 25.2426 86.9997 26.1227 86.9997 27.1901V32.2648L83.7976 35.467V25.9729L85.1271 24.6433L89.6963 20.0742C90.9509 18.8196 90.9509 16.7971 89.6963 15.5425C88.4416 14.2879 86.4192 14.2879 85.1646 15.5425L83.7976 16.9095V9.7749C83.7976 7.99593 82.3557 6.57275 80.5954 6.57275C78.8352 6.57275 77.3933 8.01466 77.3933 9.7749V16.9095L76.0263 15.5425C74.7716 14.2879 72.7492 14.2879 71.4946 15.5425C70.2399 16.7971 70.2399 18.8196 71.4946 20.0742L76.0637 24.6433L77.3933 25.9729V35.467L74.1911 32.2648V27.1901C74.1911 26.1227 73.311 25.2426 72.2436 25.2426C71.1762 25.2426 70.2961 26.1227 70.2961 27.1901V28.3698L67.225 25.2987C66.4573 24.531 65.2214 24.531 64.4723 25.2987C63.7045 26.0665 63.7045 27.3024 64.4723 28.0515L67.5434 31.1225H66.3636C65.2963 31.1225 64.4161 32.0027 64.4161 33.07C64.4161 34.1374 65.2963 35.0175 66.3636 35.0175H71.4384L77.412 40.9911V41.89L71.7942 47.5078L74.5469 50.2605L77.412 47.3954V61.4399H83.8163V47.3954L86.6814 50.2605L89.4341 47.5078L83.8163 41.89V40.9911L89.7899 35.0175H94.8647C95.9321 35.0175 96.8122 34.1374 96.8122 33.07C96.8122 32.0027 95.9508 31.1225 94.8647 31.1225H94.8272Z" fill="#8FD853"/>
<path d="M102.598 61.4396C102.598 68.1061 101.1 74.9785 100.127 81.5513C98.7409 90.8207 97.2616 100.071 95.7448 109.303C94.1905 118.816 92.5988 128.31 90.9884 137.823C90.1831 142.542 89.3966 147.28 88.5914 151.999C88.2169 154.152 87.8611 156.324 87.4866 158.478C87.1682 160.294 87.0933 162.429 86.2881 164.114C85.1271 166.549 82.3182 167.728 79.734 167.167C76.0824 166.38 75.4457 163.234 74.8652 160.051C78.8164 159.583 79.734 156.343 80.3145 152.972C81.0261 148.759 81.7564 144.546 82.468 140.314C83.9848 131.4 84.7339 122.299 86.2132 113.386C88.9098 97.0752 92.4677 80.9334 94.6587 64.5294C95.1455 60.8029 95.9133 56.9267 95.6886 53.144C95.4826 49.6984 94.4901 46.4027 92.7673 43.4065C98.8158 47.339 102.636 54.2114 102.636 61.4396H102.598Z" fill="#FC5E15"/>
<path d="M95.6888 54.2677C95.6888 60.672 94.2469 67.2823 93.3293 73.5929C92.2432 81.0084 84.8651 125.876 82.3371 140.894C81.6443 144.995 80.9327 149.096 80.2398 153.216C79.678 156.512 78.6481 159.564 74.8467 160.013C70.9704 137.336 61.8696 81.308 61.1205 75.9711C60.4651 71.2522 59.5288 66.3834 59.4539 61.6083C59.3415 53.0692 64.6597 45.0732 72.4498 41.6838C77.7867 39.3618 83.985 39.3431 89.3407 41.5902C90.5766 42.1145 92.7113 43.3879 92.7113 43.3879C93.4417 44.3991 94.1345 46.1968 94.5278 47.3578C95.2768 49.5675 95.6888 51.9082 95.6888 54.249V54.2677Z" fill="#FE8431"/>
<path d="M71.9638 70.8589C71.9638 72.0574 70.99 73.0311 69.7916 73.0311H60.7094C60.5596 72.0199 60.4285 71.0649 60.3162 70.1848C60.2413 69.6792 60.1851 69.1923 60.1289 68.7241H69.7916C70.99 68.7241 71.9638 69.6979 71.9638 70.8776V70.8589Z" fill="#FC5E15"/>
<path d="M81.3448 84.1921C81.3448 85.3905 80.3898 86.3643 79.21 86.3643H62.6749C62.5064 85.3905 62.3566 84.4168 62.2255 83.4992C62.1506 83.0123 62.0757 82.5254 62.0195 82.0386H79.21C80.3898 82.0386 81.3448 82.9936 81.3448 84.1921Z" fill="#FC5E15"/>
<path d="M91.419 135.351C91.1569 136.793 90.9322 138.254 90.6887 139.677H77.0187C75.839 139.677 74.8652 138.703 74.8652 137.524C74.8652 136.344 75.839 135.37 77.0187 135.37H91.419V135.351Z" fill="#FC5E15"/>
<path d="M102.243 57.6758H87.4681C86.2696 57.6758 85.2959 56.7208 85.2959 55.5223C85.2959 54.3238 86.2696 53.3501 87.4681 53.3501H101.007C101.569 54.7171 102 56.1777 102.243 57.6758Z" fill="#FC5E15"/>
<path d="M102.599 61.4399V61.4961C102.599 62.3575 102.486 63.8181 102.28 65.7656H91.307C90.1085 65.7656 89.1348 64.7919 89.1348 63.5934C89.1348 62.395 90.1085 61.4399 91.307 61.4399H102.599Z" fill="#FC5E15"/>
<path d="M178.571 106.717C199.131 98.3304 209 74.865 200.613 54.3051C192.227 33.7451 168.762 23.8764 148.202 32.2625C127.642 40.6487 117.773 64.1141 126.159 84.674C134.545 105.234 158.011 115.103 178.571 106.717Z" fill="#56A929"/>
<path d="M236.828 93.7423C245.199 138.235 218.907 182.897 175.912 197.091C159.902 202.39 143.629 203.027 128.442 199.844C119.547 197.99 117.3 186.38 124.978 181.53C128.648 179.208 130.408 174.807 129.341 170.612L125.989 157.411C124.921 153.216 126.682 148.797 130.333 146.493L141.775 139.246C145.445 136.924 147.187 132.524 146.119 128.31L142.749 115.09C141.681 110.895 143.441 106.476 147.093 104.154L158.535 96.907C162.205 94.585 163.946 90.1843 162.879 85.971L159.527 72.7504C158.46 68.5558 160.22 64.1365 163.872 61.8145L175.313 54.5675C178.983 52.2455 180.725 47.8449 179.658 43.6315V43.5566C177.429 34.9052 186.867 27.8268 194.489 32.4708C215.724 45.3918 231.735 66.9454 236.772 93.6861L236.828 93.7423Z" fill="#368916"/>
<path d="M89.9594 93.7423C81.5889 138.235 107.88 182.897 150.875 197.091C166.886 202.39 183.159 203.027 198.346 199.844C207.241 197.99 209.488 186.38 201.81 181.53C198.14 179.208 196.379 174.807 197.447 170.612L200.799 157.411C201.866 153.216 200.106 148.797 196.454 146.493L184.994 139.246C181.324 136.924 179.582 132.524 180.65 128.31L184.02 115.09C185.088 110.895 183.327 106.476 179.676 104.154L168.234 96.907C164.564 94.585 162.822 90.1843 163.89 85.971L167.242 72.7504C168.309 68.5558 166.549 64.1365 162.897 61.8145L151.456 54.5675C147.785 52.2455 146.044 47.8449 147.111 43.6315V43.5566C149.34 34.9052 139.902 27.8268 132.28 32.4708C111.045 45.3918 95.0342 66.9454 89.9969 93.6861L89.9594 93.7423Z" fill="#459B1E"/>
<path d="M254.655 130.333C249.861 174.489 213.084 209.075 169.002 211.416C168.141 211.491 167.261 211.51 166.4 211.547C166.175 211.547 165.913 211.585 165.669 211.547C164.115 211.585 162.561 211.585 161.006 211.547C159.415 211.472 157.842 211.379 156.287 211.248C143.235 210.18 130.97 206.36 120.165 200.405C112.824 196.398 113.255 186.099 120.202 182.653C120.802 182.297 121.457 182.054 122.15 181.867C122.356 181.829 122.506 181.773 122.674 181.661C123.498 181.436 124.228 181.061 124.921 180.631C127.599 178.908 129.322 175.968 129.472 172.672L129.509 171.848V171.717L130.127 159.096C130.333 154.77 133.273 151.062 137.468 149.92L150.52 146.287C154.677 145.126 157.654 141.437 157.86 137.093L158.46 123.479C158.628 120.071 160.501 117.037 163.31 115.352C164.077 114.865 164.901 114.49 165.782 114.266L178.834 110.67C180.556 110.202 182.036 109.322 183.159 108.124C184.714 106.644 185.744 104.715 186.043 102.581C186.118 102.225 186.137 101.85 186.174 101.495L186.811 87.8808C187.017 83.5551 189.957 79.8286 194.152 78.6676L202.934 76.252L207.204 75.0722C211.361 73.9112 214.338 70.2222 214.544 65.8778V65.7841C214.75 61.421 217.522 58.2188 220.986 56.8706C224.563 55.4848 228.926 56.1028 231.959 59.5109C248.551 78.0122 257.595 103.292 254.655 130.351V130.333Z" fill="#68BB35"/>
<path d="M248.495 141.812C244.356 140.183 239.824 140.239 235.723 141.98C235.386 142.13 235.068 142.299 234.768 142.449C234.974 141.625 235.162 140.782 235.33 139.958C235.33 139.939 235.349 139.921 235.349 139.883C235.349 139.827 235.349 139.752 235.368 139.696C237.109 131.325 237.69 122.168 236.604 112.206V112.15C235.761 105.727 240.461 99.7908 246.959 98.9481C248.401 98.7609 249.431 97.4313 249.225 95.9894C249.038 94.5475 247.689 93.5176 246.266 93.7236C241.397 94.3603 237.296 96.9819 234.6 100.633C233.102 94.1543 230.892 87.3567 227.84 80.297C227.259 78.9675 225.705 78.3495 224.357 78.9113C223.027 79.4918 222.409 81.0461 222.971 82.3943C229.169 96.7385 231.772 109.772 231.96 121.475C228.477 116.026 223.177 112.356 216.997 111.157C215.556 110.877 214.17 111.813 213.908 113.255C213.627 114.697 214.563 116.082 216.005 116.345C220.818 117.281 224.937 120.165 227.634 124.453C230.237 128.629 231.323 133.928 230.405 138.834C229.338 144.078 227.821 148.984 225.948 153.534C224.413 148.909 221.716 144.733 217.99 141.362C212.297 136.232 204.957 133.61 197.298 134.003C195.837 134.078 194.713 135.314 194.788 136.775C194.863 138.235 196.155 139.396 197.56 139.284C203.814 138.984 209.807 141.1 214.432 145.276C219.076 149.452 221.791 155.201 222.11 161.455C222.11 161.474 222.11 161.493 222.11 161.53C209.47 184.994 188.965 197.334 187.429 198.233C186.174 198.964 185.744 200.593 186.474 201.847C186.961 202.69 187.841 203.158 188.759 203.158C189.208 203.158 189.676 203.046 190.088 202.802C190.538 202.54 218.964 185.481 231.398 153.085C231.398 153.085 231.398 153.048 231.416 153.048C232.54 150.22 234.825 147.973 237.671 146.756C240.517 145.538 243.663 145.501 246.528 146.643C247.858 147.168 249.356 146.512 249.88 145.183C250.405 143.853 249.749 142.355 248.42 141.831L248.495 141.812Z" fill="#68BB35"/>
<path d="M207.26 200.536C195.987 206.716 182.541 210.555 168.928 211.435C167.86 211.529 166.812 211.603 165.725 211.641C164.171 211.678 162.617 211.678 161.063 211.641C160.838 211.678 160.576 211.641 160.332 211.641C159.078 211.603 157.823 211.547 156.568 211.472C112.974 208.57 76.7955 174.17 72.0391 130.408C69.0991 103.348 78.1812 78.0684 94.735 59.5671C97.7686 56.159 102.132 55.541 105.746 56.9642C109.21 58.2938 111.963 61.4959 112.188 65.8591V65.9527C112.394 70.2784 115.334 73.9861 119.528 75.1472L123.798 76.3269L132.58 78.7426C136.738 79.9036 139.715 83.63 139.921 87.9557L140.52 101.57C140.558 101.925 140.595 102.3 140.651 102.656C140.988 104.809 142 106.757 143.535 108.236C144.696 109.397 146.175 110.277 147.861 110.745L160.913 114.341C161.812 114.565 162.636 114.94 163.385 115.427C166.231 117.112 168.085 120.146 168.235 123.554L168.871 137.168C169.077 141.493 172.017 145.201 176.212 146.362L189.264 149.995C193.421 151.156 196.399 154.845 196.605 159.189L197.204 172.167L197.241 172.766C197.447 176.904 200.144 180.5 204.039 181.754C204.207 181.848 204.395 181.923 204.563 181.96C205.256 182.166 205.912 182.391 206.511 182.728C208.102 183.514 209.395 184.675 210.237 186.061C213.252 190.612 212.915 197.465 207.26 200.536Z" fill="#8FD853"/>
<path d="M168.946 211.435C168.815 211.341 168.684 211.266 168.515 211.21C167.523 210.854 159.733 207.896 149.883 201.697C146.606 199.675 143.142 197.278 139.565 194.488L139.528 194.45C139.509 194.263 139.528 194.076 139.453 193.889C138.217 190.293 138.441 186.436 140.108 183.028C141.775 179.619 144.658 177.054 148.254 175.818C149.64 175.331 150.37 173.833 149.902 172.447C149.434 171.062 147.936 170.331 146.531 170.799C138.441 173.59 133.385 181.192 133.404 189.301H133.385V189.245C133.254 189.113 133.086 188.982 132.917 188.814C131.213 187.26 127.524 183.196 125.277 180.668C123.723 178.927 122.786 176.698 122.693 174.357C122.468 168.74 124.322 160.875 127.786 155.65C132.243 148.909 139.153 144.283 147.205 142.617C148.628 142.317 149.546 140.931 149.265 139.49C148.984 138.048 147.561 137.13 146.138 137.43C129.415 140.875 118.086 154.807 117.543 170.931C117.318 170.593 117.075 170.256 116.85 169.901C116.083 168.683 115.333 167.447 114.566 166.174C114.229 165.575 113.91 164.957 113.536 164.32C111.083 159.789 108.948 154.901 107.263 149.62V149.545C107.169 149.283 107.094 148.984 107.019 148.721C106.401 143.74 107.899 138.853 110.895 134.864C113.892 130.857 118.255 128.31 123.161 127.692C124.603 127.505 125.633 126.194 125.446 124.733C125.258 123.292 123.947 122.262 122.487 122.449C116.157 123.254 110.521 126.531 106.663 131.7C105.69 132.992 104.866 134.377 104.173 135.819C102.693 125.52 102.881 113.966 105.484 101.12C105.746 99.6968 104.828 98.3111 103.405 98.0115C101.982 97.7119 100.596 98.6482 100.296 100.053C96.4389 119.228 97.6936 135.632 101.944 149.583C102.075 150.088 102.244 150.538 102.375 151.006C103.199 153.515 104.098 155.968 105.109 158.347C105.109 158.365 105.128 158.403 105.147 158.422C104.416 158.141 103.667 157.878 102.881 157.673C98.0306 156.437 93.1244 157.148 89.3979 159.62C88.1807 160.425 87.8437 162.073 88.6489 163.29C89.4541 164.507 91.102 164.845 92.3192 164.039C94.8098 162.391 98.1992 161.942 101.57 162.803C104.978 163.665 108.517 165.987 110.296 168.646C110.895 169.713 111.513 170.762 112.188 171.754C113.798 174.339 115.521 176.754 117.318 179.058C117.712 179.563 118.086 180.05 118.479 180.518C119.079 181.286 119.678 181.998 120.296 182.728C120.82 183.346 121.363 183.983 121.906 184.582C127.955 191.398 134.49 197.016 140.632 201.473C146.456 205.705 151.943 208.982 156.362 211.322C156.437 211.36 156.531 211.397 156.587 211.454C157.842 211.528 159.096 211.585 160.351 211.622C160.576 211.622 160.838 211.66 161.081 211.622C162.635 211.66 164.19 211.66 165.744 211.622C165.969 211.66 166.231 211.622 166.474 211.622C167.336 211.585 168.216 211.547 169.077 211.491C169.04 211.454 168.984 211.435 168.946 211.435Z" fill="#68BB35"/>
<path d="M240.191 115.446L236.67 111.682C236.258 111.232 235.678 110.989 235.078 110.989C234.479 110.989 233.899 111.232 233.487 111.682C231.577 113.704 222.12 124.546 223.749 139.396C223.88 140.501 224.817 141.344 225.921 141.344H228.075C228.655 141.306 229.217 141.063 229.61 140.651C230.022 140.239 230.247 139.677 230.228 139.096C230.172 135.22 231.015 131.325 232.663 127.823C234.329 124.266 236.839 121.101 239.929 118.666C240.415 118.292 240.715 117.711 240.752 117.112C240.79 116.494 240.584 115.895 240.172 115.446H240.191Z" fill="#007136"/>
<path d="M234.331 158.515H220.642C213.957 158.515 208.508 153.047 208.508 146.381C208.508 139.714 213.976 134.246 220.642 134.246H234.331C241.016 134.246 246.465 139.714 246.465 146.381C246.465 153.047 240.997 158.515 234.331 158.515Z" fill="#007136"/>
<path d="M214.275 207.166C223.263 206.024 230.154 198.627 230.66 189.582L232.139 163.609C232.982 148.834 220.192 136.925 205.511 138.816C190.83 140.707 181.467 155.445 185.998 169.527L193.976 194.282C196.766 202.896 205.286 208.308 214.275 207.166Z" fill="#D40000"/>
<path d="M240.716 207.166C231.727 206.024 224.836 198.627 224.33 189.582L222.851 163.609C222.008 148.834 234.798 136.925 249.479 138.816C264.161 140.707 273.524 155.445 268.992 169.527L261.015 194.282C258.224 202.896 249.704 208.308 240.716 207.166Z" fill="#D40000"/>
<path d="M227.495 210.892C217.908 210.892 209.668 204.057 207.908 194.619L202.852 167.541C199.987 152.13 211.803 137.898 227.477 137.898C243.15 137.898 254.966 152.13 252.101 167.541L247.045 194.619C245.285 204.057 237.064 210.892 227.477 210.892H227.495Z" fill="#EE1E1D"/>
<path d="M210.847 160.164C210.548 160.164 210.248 160.126 209.949 160.014C208.469 159.527 207.683 157.916 208.188 156.456C208.994 154.078 210.211 151.887 211.84 149.939C213.75 147.636 216.091 145.819 218.787 144.546C220.192 143.872 221.858 144.471 222.533 145.876C223.188 147.28 222.607 148.947 221.203 149.621C219.255 150.538 217.551 151.868 216.166 153.535C214.986 154.939 214.106 156.531 213.525 158.254C213.132 159.415 212.046 160.164 210.866 160.164H210.847Z" fill="#F46B62"/>
</svg>
