<svg width="270" height="300" viewBox="0 0 270 300" fill="none" xmlns="http://www.w3.org/2000/svg">
<path d="M220.084 64.2775H49.9128C33.6516 64.2775 21.3985 49.4776 24.4352 33.502L26.7944 21.0857C29.121 8.84898 39.823 0 52.272 0H217.725C230.182 0 240.876 8.84898 243.203 21.0857L245.562 33.502C248.599 49.4776 236.354 64.2775 220.084 64.2775Z" fill="#ED6486"/>
<path d="M193.864 300H76.1332C63.3985 300 52.6067 290.612 50.8516 278L18.5903 46.2693H251.415L219.145 277.992C217.39 290.604 206.607 299.992 193.864 299.992V300Z" fill="#D6E5FF"/>
<mask id="mask0_7_5460" style="mask-type:luminance" maskUnits="userSpaceOnUse" x="18" y="46" width="234" height="254">
<path d="M193.864 300H76.1332C63.3985 300 52.6067 290.612 50.8516 278L18.5903 46.2693H251.415L219.145 277.992C217.39 290.604 206.607 299.992 193.864 299.992V300Z" fill="white"/>
</mask>
<g mask="url(#mask0_7_5460)">
<path d="M271.072 51.4447H250.697L251.415 46.2773H220.541L219.823 51.4447H2.78638V79.7304H184.337C201.007 79.7304 213.831 94.4651 211.529 110.971L188.272 278C186.517 290.612 175.725 300 162.99 300H193.864C206.599 300 217.39 290.612 219.146 278L246.754 79.7304H271.072V51.4447Z" fill="#C4D6F5"/>
</g>
<path d="M269.146 62.3592H0.859863V52.4653C0.859863 42.3102 9.0966 34.0735 19.2517 34.0735H254.182C262.444 34.0735 269.146 40.7674 269.146 49.0368V62.3592Z" fill="#FF91AC"/>
<path d="M132.215 171.045C176.024 171.045 211.537 155.11 211.537 135.453C211.537 115.796 176.024 99.8613 132.215 99.8613C88.4064 99.8613 52.8926 115.796 52.8926 135.453C52.8926 155.11 88.4064 171.045 132.215 171.045Z" fill="#FF91AC"/>
<path d="M198.566 135.265C197.121 135.265 195.684 134.62 194.737 133.38C189.072 126.008 165.929 115.625 132.215 115.625C129.554 115.625 127.39 113.461 127.39 110.8C127.39 108.139 129.554 105.976 132.215 105.976C167.431 105.976 194.174 116.8 202.386 127.494C204.011 129.608 203.611 132.637 201.497 134.261C200.623 134.931 199.586 135.257 198.566 135.257V135.265Z" fill="white"/>
<path d="M68.4761 132.506C67.1455 132.506 65.8231 131.959 64.868 130.882C63.0965 128.89 63.2761 125.837 65.2761 124.074C73.3822 116.882 88.0924 111.061 105.643 108.114C108.28 107.674 110.762 109.445 111.203 112.074C111.643 114.702 109.872 117.192 107.243 117.633C88.9006 120.71 76.8435 126.71 71.6843 131.29C70.77 132.106 69.619 132.506 68.4843 132.506H68.4761Z" fill="white"/>
<mask id="mask1_7_5460" style="mask-type:luminance" maskUnits="userSpaceOnUse" x="18" y="46" width="234" height="254">
<path d="M193.864 300H76.1332C63.3985 300 52.6067 290.612 50.8516 278L18.5903 46.2693H251.415L219.145 277.992C217.39 290.604 206.607 299.992 193.864 299.992V300Z" fill="white"/>
</mask>
<g mask="url(#mask1_7_5460)">
<path d="M14.7293 251.224C14.7293 251.224 28.4517 229.355 67.0395 241.363C105.627 253.371 123.211 246.506 132.639 238.359C140.223 231.804 135.888 217.494 121.856 211.91C117.954 210.359 118.011 204.873 121.97 203.461C134.142 199.11 153.603 197.208 171.227 217.779C199.529 250.792 243.26 239.216 295.146 223.779C347.023 208.343 274.991 339.118 223.97 352.408C172.95 365.698 50.7456 354.979 49.4558 353.265C48.166 351.551 5.71704 320.253 5.71704 320.253L14.7211 251.216L14.7293 251.224Z" fill="#FF91AC"/>
</g>
</svg>
