<svg width="156" height="350" viewBox="0 0 156 350" fill="none" xmlns="http://www.w3.org/2000/svg">
<path d="M37.6098 124.078L34.1799 264.57C34.1799 264.57 87.6768 267.549 126.843 260.011L114.336 119.611L37.6098 124.078Z" fill="black"/>
<path d="M155.643 147.094C156.429 139.399 123.606 113.328 109.472 107.675C95.3377 102.021 86.4972 102.315 76.4582 102.963C62.6218 103.856 54.9366 105.909 42.8057 112.15C30.6729 118.394 8.52941 134.058 0.755616 142.658C-7.01817 151.257 47.7527 179.406 47.7527 179.406L52.3076 332.251L32.5198 349.998H73.0377L70.682 207.824L83.8871 207.362L90.7827 350H134.127L112.299 332.097L108.53 179.919C108.53 179.917 154.858 154.79 155.643 147.094ZM42.687 162.564L18.1877 145.72C31.8508 135.001 45.5138 129.111 45.5138 129.111C46.9272 136.768 47.7527 162.562 47.7527 162.562L42.687 162.564ZM113.477 159.502L109.001 158.676L107.823 129.111C122.899 133.235 137.033 144.306 137.033 144.306L113.477 159.502Z" fill="#FBC30C"/>
<path d="M108.685 163.977L109 158.676L107.822 129.111C114.186 130.851 120.367 133.828 125.403 136.689L133.668 123.022C124.905 116.2 115.492 110.083 109.471 107.674C95.3366 102.021 86.4961 102.315 76.4571 102.963C62.6207 103.856 54.9355 105.908 42.8046 112.15C36.9927 115.141 28.8853 120.299 21.1567 125.802L28.6667 138.319C38.0612 132.328 45.5127 129.109 45.5127 129.109C46.9261 136.766 47.7516 162.56 47.7516 162.56L45.9895 178.481C47.0976 179.065 47.7516 179.402 47.7516 179.402L47.8816 183.797L108.598 182.774L108.527 179.913C108.527 179.913 111.468 178.317 115.876 175.81L108.685 163.977Z" fill="#6768E6"/>
<path d="M108.6 182.778L47.8833 183.801L48.166 193.246L108.811 191.239L108.6 182.778Z" fill="#539DCE"/>
<path d="M78.5323 115.215C88.119 115.531 93.0282 108.297 95.2294 103.493C88.4092 102.304 82.6594 102.564 76.4574 102.965C70.5493 103.346 65.7644 103.943 61.2754 104.983C63.9043 109.06 69.2584 114.908 78.5323 115.215Z" fill="black"/>
<path d="M69.4248 131.39C69.4248 131.39 77.9053 128.092 86.8569 132.332L77.828 154.79L69.4248 131.39Z" fill="#3BC493"/>
<path d="M90.7828 349.998H134.128L112.299 332.095L111.545 301.064L88.4893 301.921L90.7828 349.998Z" fill="#539DCE"/>
<path d="M72.2612 302.524L51.4633 303.297L52.3056 332.251L32.5178 349.998H73.0358L72.2612 302.524Z" fill="#539DCE"/>
<path d="M52.228 177.718C53.1703 175.598 47.0455 173.163 47.0455 173.163C47.0455 173.163 53.7206 175.204 54.0334 173.163C54.2558 171.721 51.233 170.556 49.4332 169.995C51.2933 170.457 54.5385 170.979 54.8193 169.081C55.2113 166.41 48.1442 165.783 48.1442 165.783L47.7522 162.564H42.6865L36.4599 158.284C34.8637 161.637 32.4044 166.812 30.8835 170.078C40.0783 175.464 47.7503 179.408 47.7503 179.408C47.7503 179.408 51.2857 179.838 52.228 177.718Z" fill="#539DCE"/>
<path d="M113.477 159.502L109.001 158.676L108.687 163.977C108.687 163.977 100.834 168.768 101.934 170.494C103.033 172.222 109.393 169.081 109.393 169.081C109.393 169.081 102.247 174.028 103.033 175.677C103.819 177.326 110.257 173.636 110.257 173.636C110.257 173.636 103.975 177.87 104.682 179.444C105.389 181.018 108.53 179.919 108.53 179.919C108.53 179.919 117.05 175.296 126.843 169.411L118.664 156.156L113.477 159.502Z" fill="#539DCE"/>
<path d="M77.8942 107.933C75.0749 107.933 72.7908 105.647 72.7908 102.83V94.074C72.7908 91.2547 75.0768 88.9706 77.8942 88.9706C80.7135 88.9706 82.9975 91.2565 82.9975 94.074V102.83C82.9975 105.647 80.7116 107.933 77.8942 107.933Z" fill="#F8B79B"/>
<path d="M37.5327 60.3496C37.5327 60.3496 29.2086 44.1726 38.7897 30.9807C48.3689 17.7888 58.4211 19.6734 58.4211 19.6734C58.4211 19.6734 61.4043 -2.31374 92.8142 0.200252C124.224 2.71236 119.354 44.6437 116.999 56.3449C114.643 68.0442 92.1848 91.4447 92.1848 91.4447C92.1848 91.4447 62.8178 91.13 61.7172 90.5025C60.6185 89.873 37.5327 60.3496 37.5327 60.3496Z" fill="#784E28"/>
<path d="M117.758 55.5193C116.253 55.5193 114.824 55.8416 113.531 56.4145C111.5 38.4358 96.2574 24.46 77.736 24.46C59.3446 24.46 44.2022 38.2436 41.9992 56.0376C40.9759 55.704 39.8866 55.5193 38.7521 55.5193C32.9627 55.5193 28.2683 60.2119 28.2683 66.0012C28.2683 71.7906 32.9627 76.485 38.7521 76.485C40.9212 76.485 42.9358 75.8254 44.6074 74.6984C50.1197 87.5435 62.8744 96.5442 77.736 96.5442C92.8275 96.5442 105.733 87.2609 111.104 74.101C112.915 75.5898 115.231 76.485 117.758 76.485C123.548 76.485 128.242 71.7906 128.242 66.0012C128.24 60.2119 123.548 55.5193 117.758 55.5193Z" fill="#F8B79B"/>
<path d="M45.8163 49.1594H109.184L109.772 61.1735H44.6384L45.8163 49.1594Z" fill="#6768E6"/>
<path d="M60.5391 60.1122C62.6207 60.1122 64.3082 58.4247 64.3082 56.3431C64.3082 54.2615 62.6207 52.574 60.5391 52.574C58.4575 52.574 56.77 54.2615 56.77 56.3431C56.77 58.4247 58.4575 60.1122 60.5391 60.1122Z" fill="black"/>
<path d="M96.1102 60.1122C98.1918 60.1122 99.8793 58.4247 99.8793 56.3431C99.8793 54.2615 98.1918 52.574 96.1102 52.574C94.0286 52.574 92.3411 54.2615 92.3411 56.3431C92.3411 58.4247 94.0286 60.1122 96.1102 60.1122Z" fill="black"/>
<path d="M113.529 56.4131L112.443 37.4187L102.549 22.657L73.0239 21.0872L54.0219 27.5267L40.9355 45.43L41.9984 56.04C41.9984 56.04 45.0721 61.7634 44.4446 66.4748C43.817 71.1862 40.9374 76.2537 40.9374 76.2537C40.9374 76.2537 48.6848 99.2981 79.1524 99.6128C109.62 99.9275 113.389 75.5338 113.389 75.5338C113.389 75.5338 111.631 66.7707 113.529 56.4131ZM106.946 67.1004C105.847 72.283 99.4076 73.54 90.7707 70.7131C82.1338 67.8863 70.3553 70.3984 64.3869 71.8118C58.4186 73.2253 50.5675 71.6554 47.426 67.2569C44.2844 62.8602 47.426 52.3368 47.426 52.3368C58.8897 49.6664 67.6849 29.4075 67.6849 29.4075C76.9513 45.7409 104.434 40.5584 104.434 40.5584C107.888 50.6106 108.046 61.9179 106.946 67.1004Z" fill="#784E28"/>
<path d="M79.7996 74.5967C79.7996 74.5967 87.3359 74.5967 92.754 74.7814" stroke="#DE7651" stroke-width="3" stroke-miterlimit="10" stroke-linecap="round" stroke-linejoin="round"/>
<path d="M54.9658 46.0569C56.8014 42.9568 69.8859 46.4489 68.8644 49.7469C67.843 53.0448 52.6893 49.9033 54.9658 46.0569Z" fill="#784E28"/>
<path d="M88.2586 48.7255C88.3962 52.1648 103.256 51.0266 102.864 47.9924C102.47 44.9564 88.1003 44.8 88.2586 48.7255Z" fill="#784E28"/>
</svg>
