<svg width="229" height="350" viewBox="0 0 229 350" fill="none" xmlns="http://www.w3.org/2000/svg">
<path d="M73.7243 69.8537C73.7243 69.8537 71.4507 96.7992 58.3157 136.512C44.3957 178.599 73.1638 207.527 107.5 210.001C141.836 212.475 176.79 181.643 168.748 145.659C160.706 109.674 144.304 103.176 143.998 66.4182L73.7243 69.8537Z" fill="#3BC493"/>
<path d="M77.7627 112.87L56.1514 201.341C56.1514 201.341 106.189 238.856 163.306 202.269L145.447 112.87H77.7627Z" fill="#070904"/>
<path d="M24.1712 27.6947L82.4033 102.406C82.4033 102.406 122.092 98.8782 140.528 102.406L202.58 30.5344C202.58 30.5344 197.012 19.8624 200.724 18.6244C204.436 17.3865 207.606 25.6624 207.606 25.6624C207.606 25.6624 215.88 9.34435 217.814 11.4324C219.748 13.5204 213.56 25.5845 213.56 25.5845C213.56 25.5845 220.752 12.0504 223.382 13.9064C226.012 15.7624 217.118 28.5225 217.118 28.5225C217.118 28.5225 225.316 16.5364 227.79 18.7005C230.264 20.8665 214.952 38.1886 214.952 38.1886L143.418 132.459L140.324 170.353L163.834 335.384L181.002 350H142.722L113.953 196.415L104.905 197.575L76.3694 350H33.9133L56.1854 336.08L79.8494 172.189L77.7614 130.295L9.32125 34.8497C9.32125 34.8497 -1.11876 23.3424 0.0987784 21.8335C1.31632 20.3245 11.0604 28.5615 11.0604 28.5615C11.0604 28.5615 1.31633 14.699 3.17233 13.1919C5.02834 11.6848 14.5404 24.3279 14.5404 24.3279C14.5404 24.3279 9.08742 12.2063 12.2204 11.6848C15.3533 11.1632 19.5868 22.4719 19.5868 22.4719C19.5868 22.4719 22.7198 14.8159 24.9228 16.4399C27.1259 18.0639 24.1712 27.6947 24.1712 27.6947Z" fill="#F8B79B"/>
<path d="M38.1931 45.6833L24.171 27.6931C24.171 27.6931 27.1295 18.0622 24.9245 16.4382C22.7196 14.8142 19.5885 22.4703 19.5885 22.4703C19.5885 22.4703 15.355 11.1598 12.2221 11.6831C9.08913 12.2047 14.5421 24.3263 14.5421 24.3263C14.5421 24.3263 5.03005 11.6831 3.17404 13.1902C1.31804 14.6973 11.0621 28.5598 11.0621 28.5598C11.0621 28.5598 1.31803 20.3229 0.100487 21.8318C-1.11705 23.3407 9.32296 34.848 9.32296 34.848L24.9171 56.5967C28.6403 54.234 33.1039 50.7595 38.1931 45.6833Z" fill="#DD2D54"/>
<path d="M227.79 18.7017C225.316 16.5357 217.118 28.5237 217.118 28.5237C217.118 28.5237 226.012 15.7637 223.382 13.9077C220.752 12.0516 213.56 25.5857 213.56 25.5857C213.56 25.5857 219.746 13.5216 217.814 11.4336C215.88 9.34557 207.606 25.6636 207.606 25.6636C207.606 25.6636 204.436 17.3895 200.724 18.6256C197.012 19.8636 202.58 30.5356 202.58 30.5356L186.039 49.6952C188.836 53.2587 192.648 57.1619 197.771 60.8349L214.954 38.1917C214.954 38.1917 230.264 20.8658 227.79 18.7017Z" fill="#DD2D54"/>
<path d="M77.7634 130.295L79.8514 172.189H140.587L140.326 170.353L143.42 132.459C143.42 132.459 139.218 114.829 140.528 102.404C122.092 98.8762 82.4034 102.404 82.4034 102.404C82.4034 102.404 85.4529 112.763 77.7634 130.295Z" fill="#DD2D54"/>
<path d="M131.976 101.333C118.256 100.26 99.982 101.166 89.8909 101.84C92.3928 108.384 98.9426 121.157 112.263 122.304C124.251 123.336 129.684 110.201 131.976 101.333Z" fill="#070904"/>
<path d="M89.0606 282.217L67.1858 259.904L56.1871 336.08L33.915 350H76.3711L89.0606 282.217Z" fill="#412B40"/>
<path d="M152.867 258.387L130.417 284.297L142.724 349.999H181.004L163.836 335.383L152.867 258.387Z" fill="#412B40"/>
<path d="M79.852 172.188L71.1863 232.2C71.1863 232.2 102.974 244.355 149.821 237L140.588 172.188H79.852Z" fill="#DD2D54"/>
<path d="M140.587 172.188H79.8508L78.8894 178.836H141.533L140.587 172.188Z" fill="#F6F8F7"/>
<path d="M45.1703 76.2617C45.1703 76.2617 43.8934 79.8865 47.1433 80.6994" stroke="#DE7651" stroke-width="3" stroke-miterlimit="10" stroke-linecap="round" stroke-linejoin="round"/>
<path d="M173.234 84.4121C173.234 84.4121 178.492 83.9481 179.112 79.3081" stroke="#DE7651" stroke-width="3" stroke-miterlimit="10" stroke-linecap="round" stroke-linejoin="round"/>
<path d="M74.1698 246.349C74.1698 246.349 71.3858 250.757 75.3298 254.237" stroke="#DE7651" stroke-width="3" stroke-miterlimit="10" stroke-linecap="round" stroke-linejoin="round"/>
<path d="M111.971 108.346C110.334 108.346 109.007 107.019 109.007 105.382V93.0579C109.007 91.4209 110.334 90.0939 111.971 90.0939C113.608 90.0939 114.935 91.4209 114.935 93.0579V105.382C114.935 107.021 113.608 108.346 111.971 108.346Z" fill="#F8B79B"/>
<path d="M152.942 55.0239C151.739 55.0239 150.591 55.2392 149.516 55.616C148.263 35.8402 131.871 29.8899 111.778 29.8899C91.7311 29.8899 75.3667 35.7679 74.0471 55.4805C73.0838 55.1836 72.0593 55.0221 70.9995 55.0221C65.2756 55.0221 60.6375 59.6621 60.6375 65.3842C60.6375 71.1063 65.2775 75.7462 70.9995 75.7462C73.3715 75.7462 75.5486 74.9408 77.2951 73.6007C83.2362 86.7357 96.4249 95.8914 111.78 95.8914C127.216 95.8914 140.472 86.6392 146.364 73.3891C148.154 74.861 150.444 75.7444 152.942 75.7444C158.664 75.7444 163.304 71.1044 163.304 65.3823C163.304 59.664 158.666 55.0239 152.942 55.0239Z" fill="#F8B79B"/>
<path d="M74.0501 55.4821C74.0501 55.4821 73.0126 67.7077 76.9566 68.1141C80.9006 68.5206 82.5246 54.6006 82.5246 54.6006L74.0501 55.4821Z" fill="#3BC493"/>
<path d="M138.368 58.5076C138.368 58.5076 139.593 68.4614 145.161 68.7509C150.729 69.0405 149.516 55.616 149.516 55.616L144.465 54.5989L138.368 58.5076Z" fill="#3BC493"/>
<path d="M144.466 247.973C144.466 247.973 148.874 251.221 144.466 256.325" stroke="#DE7651" stroke-width="3" stroke-miterlimit="10" stroke-linecap="round" stroke-linejoin="round"/>
<path d="M74.0492 55.4829C74.0492 55.4829 119.536 66.1457 149.518 55.6165C149.518 55.6165 152.588 26.3331 147.367 10.557C147.367 10.557 135.071 13.573 127.994 23.0851C127.994 23.0851 123.842 10.44 112.231 0C112.231 0 97.8339 8.12007 93.8899 24.9411C93.8899 24.9411 81.8259 19.1411 76.0259 19.1411C76.0259 19.1411 71.0258 39.4284 74.0492 55.4829Z" fill="#070904"/>
<path d="M85.5374 54.0778C85.5374 54.0778 91.5118 55.5867 104.736 56.1082C104.736 56.1082 103.691 43.9866 95.5709 43.5802C87.4509 43.1737 85.5374 54.0778 85.5374 54.0778Z" fill="#F8B79B"/>
<path d="M120.745 56.1084C120.745 56.1084 132.866 56.5724 140.465 54.4844C140.465 54.4844 139.015 43.4634 128.807 43.9868C118.599 44.5084 120.745 56.1084 120.745 56.1084Z" fill="#F8B79B"/>
<path d="M98.7155 51.1988C98.7155 49.1483 97.054 47.4868 95.0035 47.4868C92.953 47.4868 91.2915 49.1483 91.2915 51.1988C91.2915 53.2494 92.953 54.9109 95.0035 54.9109C97.054 54.9109 98.7155 53.2494 98.7155 51.1988Z" fill="#DF3F47"/>
<path d="M134.675 50.8128C134.675 48.7623 133.014 47.1008 130.963 47.1008C128.913 47.1008 127.251 48.7623 127.251 50.8128C127.251 52.8634 128.913 54.5249 130.963 54.5249C133.014 54.5249 134.675 52.8634 134.675 50.8128Z" fill="#DF3F47"/>
<path d="M68.3695 71.4199C69.5227 71.4199 70.4575 70.4851 70.4575 69.3319C70.4575 68.1787 69.5227 67.2439 68.3695 67.2439C67.2163 67.2439 66.2815 68.1787 66.2815 69.3319C66.2815 70.4851 67.2163 71.4199 68.3695 71.4199Z" fill="#F6F8F7"/>
<path d="M154.52 71.4199C155.673 71.4199 156.608 70.4851 156.608 69.3319C156.608 68.1787 155.673 67.2439 154.52 67.2439C153.366 67.2439 152.432 68.1787 152.432 69.3319C152.432 70.4851 153.366 71.4199 154.52 71.4199Z" fill="#F6F8F7"/>
<path d="M115.264 64.4601C115.264 64.4601 118.714 62.1697 114.829 60.748" stroke="#DE7651" stroke-width="3" stroke-miterlimit="10" stroke-linecap="round" stroke-linejoin="round"/>
<path d="M104.969 69.854L119.556 70.1732C119.556 70.1732 118.889 76.235 112.653 76.2628C106.419 76.2925 104.969 69.854 104.969 69.854Z" fill="#F6F8F7"/>
<path d="M122.154 146.165L126.785 143.594L121.159 139.918L124.378 134.3H118.914L118.979 129.532L114.652 131.931L112.967 128.732L110.537 132.973L106.298 130.202L106.243 134.3H100.56L102.783 138.52L98.1523 141.091L103.778 144.769L100.56 150.386H106.024L105.959 155.156L110.283 152.754L111.97 155.954L114.4 151.713L118.639 154.486L118.695 150.386H124.378L122.154 146.165Z" fill="#FBC30C"/>
</svg>
