<svg width="166" height="350" viewBox="0 0 166 350" fill="none" xmlns="http://www.w3.org/2000/svg">
<path d="M0.962612 4.93452C-1.27225 8.82271 0.866516 12.5447 2.50882 14.9584C4.15112 17.374 23.4683 16.2029 25.1537 12.4404C26.8372 8.67778 26.225 4.20983 24.0176 1.79421C21.8102 -0.621421 4.64161 -1.46786 0.962612 4.93452Z" fill="#F8B79B"/>
<path d="M84.271 114.885C73.6421 109.411 54.0208 107.478 54.0208 107.478C26.551 88.1531 21.8085 24.8637 21.8085 24.8637C25.4051 19.5493 25.2423 9.72644 25.2423 9.72644L2.51489 12.4648C2.35203 17.9396 5.13042 22.6104 5.13042 22.6104C2.18722 82.1953 41.4298 133.111 41.4298 133.111L44.373 186.228L47.3162 332.775L28.0226 349.999H67.2652L69.555 219.401L78.3846 219.724L82.3088 349.999H123.514L106.182 335.996L105.077 211.994L111.998 203.62C111.998 203.62 113.05 201.848 129.218 194.28C145.387 186.711 150.656 173.023 150.656 173.023C139.538 148.221 94.8998 120.36 84.271 114.885ZM112.559 184.173C110.473 183.327 108.144 182.966 108.144 182.966L110.23 159.776C119.428 162.916 125.682 172.095 125.682 172.095L112.559 184.173Z" fill="#F8B79B"/>
<path d="M40.5582 92.1769C35.4037 95.5008 28.2302 100.156 23.6447 103.264C32.6096 121.651 41.4294 133.109 41.4294 133.109C52.384 121.702 54.0204 107.476 54.0204 107.476C48.7305 103.756 44.2921 98.3937 40.5582 92.1769Z" fill="#053460"/>
<path d="M108.576 130.253C107.699 136.833 106.846 148.95 110.231 159.774C113.368 160.844 116.152 162.622 118.471 164.495C122.046 161.355 127.668 156.046 132.63 149.802C125.125 142.644 116.533 135.915 108.576 130.253Z" fill="#053460"/>
<path d="M84.2714 114.886C73.6425 109.411 54.0212 107.478 54.0212 107.478C52.7047 106.553 51.4568 105.498 50.2442 104.383L37.6846 127.801C39.9881 131.233 41.4322 133.111 41.4322 133.111L44.3754 186.208L107.268 187.536L110.007 183.362C108.939 183.093 108.147 182.968 108.147 182.968L110.232 159.778C111.877 160.34 113.423 161.1 114.861 161.96L112.734 142.263L113.611 133.923C101.028 124.535 89.1159 117.381 84.2714 114.886Z" fill="#053460"/>
<path d="M109.371 189.005L107.266 187.534L44.374 186.206V186.226L44.5054 192.723C63.4792 192.945 107.79 193.472 107.79 193.472L109.371 189.005Z" fill="#784E28"/>
<path d="M105.077 211.994L107.789 193.475L44.5042 192.725L45.4971 242.155C50.3043 242.914 58.5079 243.987 69.1132 244.528L69.5528 219.402L78.3823 219.724L79.1398 244.849C87.055 244.949 95.8924 244.702 105.36 243.863L105.077 211.994Z" fill="#F05525"/>
<path d="M50.097 264.573C50.097 264.573 49.0336 270.371 54.7571 267.955" stroke="#DE7651" stroke-width="3" stroke-miterlimit="10" stroke-linecap="round" stroke-linejoin="round"/>
<path d="M94.6552 268.922C94.6552 268.922 101.605 270.694 100.704 265.217" stroke="#DE7651" stroke-width="3" stroke-miterlimit="10" stroke-linecap="round" stroke-linejoin="round"/>
<path d="M150.656 173.021C146.38 163.484 137.142 153.499 126.792 144.503L117.445 163.701C122.536 167.502 125.68 172.095 125.68 172.095L112.557 184.174C110.471 183.327 108.142 182.966 108.142 182.966L106.098 189.84C106.098 189.84 92.1997 197.177 94.3247 200.237C96.4497 203.296 105.116 197.015 105.116 197.015C105.116 197.015 93.1808 206.517 95.3882 208.529C97.5956 210.543 106.663 201.154 106.663 201.154C106.663 201.154 99.3949 211.509 101.765 212.796C104.135 214.085 105.077 211.99 105.077 211.99L111.998 203.617C111.998 203.617 113.049 201.844 129.217 194.277C145.387 186.709 150.656 173.021 150.656 173.021Z" fill="#F8B79B"/>
<path d="M82.3083 350H123.513L106.181 335.995L105.779 290.759L80.5679 292.237L82.3083 350Z" fill="#BF340A"/>
<path d="M68.2663 292.96L46.5435 294.233L47.3185 332.775L28.0229 350H67.2656L68.2663 292.96Z" fill="#BF340A"/>
<path d="M68.2653 292.96L46.5425 294.235L46.7466 304.366C54.5912 307.747 62.6457 311.199 67.9062 313.394L68.2653 292.96Z" fill="#F05525"/>
<path d="M105.779 290.759L80.5699 292.237L81.2487 314.788C86.7564 311.713 98.1937 305.56 105.875 301.444L105.779 290.759Z" fill="#F05525"/>
<path d="M125.68 172.096L149.514 175.398C150.303 173.932 150.656 173.022 150.656 173.022C150.236 172.084 149.744 171.139 149.23 170.194L121.154 166.874C124.018 169.663 125.68 172.096 125.68 172.096Z" fill="#F6F8F7"/>
<path d="M30.1977 68.0684C29.7268 66.5591 29.2814 65.0537 28.8615 63.5541L11.3299 71.5141C11.7518 72.9673 12.1834 74.407 12.6328 75.8255L30.1977 68.0684Z" fill="#F6F8F7"/>
<path d="M6.78845 62.9687C13.962 59.4651 24.5712 81.8705 16.1693 86.0988C7.76947 90.3252 3.8688 64.3949 6.78845 62.9687Z" fill="black"/>
<path d="M143.953 161.024C138.175 161.697 138.23 181.234 148.696 181.155C159.16 181.074 157.115 159.493 143.953 161.024Z" fill="black"/>
<path d="M82.3755 120.573C79.9346 119.374 78.9418 116.456 80.1583 114.054L86.0369 102.432C87.2514 100.028 90.2162 99.0503 92.6552 100.248C95.096 101.445 96.0889 104.365 94.8724 106.767L88.9938 118.389C87.7793 120.791 84.8145 121.769 82.3755 120.573Z" fill="#F8B79B"/>
<path d="M150.687 83.8188C150.377 83.8188 150.072 83.844 149.766 83.8652C150.359 81.1307 150.687 78.2996 150.687 75.3912C150.687 53.0901 132.331 35.0116 109.688 35.0116C99.6065 35.0116 90.3884 38.6099 83.2482 44.5543C80.7464 41.1917 76.7182 38.9983 72.1621 38.9983C64.5687 38.9983 58.4135 45.0606 58.4135 52.5394C58.4135 59.251 63.3757 64.8069 69.8821 65.8794C69.1306 68.9347 68.6911 72.1079 68.6911 75.3912C68.6911 97.6923 87.0469 115.771 109.69 115.771C121.011 115.771 131.26 111.251 138.678 103.946C141.029 108.093 145.522 110.903 150.689 110.903C158.282 110.903 164.437 104.841 164.437 97.3618C164.437 89.8831 158.28 83.8188 150.687 83.8188Z" fill="#F8B79B"/>
<path d="M144.191 92.2886L149.768 83.8648L89.9227 40.0608C87.5525 41.3536 85.3059 42.8436 83.2515 44.5558L79.7687 48.4865C100.697 83.4319 144.191 92.2886 144.191 92.2886Z" fill="#DD2D54"/>
<path d="M97.428 62.7998C99.5953 62.7998 101.352 61.0694 101.352 58.9348C101.352 56.8002 99.5953 55.0698 97.428 55.0698C95.2607 55.0698 93.5037 56.8002 93.5037 58.9348C93.5037 61.0694 95.2607 62.7998 97.428 62.7998Z" fill="white"/>
<path d="M129.046 85.0036C131.214 85.0036 132.971 83.2731 132.971 81.1386C132.971 79.004 131.214 77.2736 129.046 77.2736C126.879 77.2736 125.122 79.004 125.122 81.1386C125.122 83.2731 126.879 85.0036 129.046 85.0036Z" fill="white"/>
<path d="M97.3934 47.4168C95.6804 50.016 108.864 58.0552 110.147 55.599C111.43 53.1408 99.3496 44.4485 97.3934 47.4168Z" fill="#FBAE46"/>
<path d="M124.619 70.4747C123.997 73.5126 139.261 76.2065 139.535 73.4566C139.812 70.7085 125.329 67.0059 124.619 70.4747Z" fill="#FBAE46"/>
<path d="M76.5797 40.061C76.5797 40.061 100.125 63.7032 133.972 49.6926C133.972 49.6926 140.425 77.9361 149.769 83.8631C159.113 89.792 161.803 89.4016 161.803 89.4016C161.803 89.4016 177.508 47.505 144.887 35.0114C144.887 35.0114 102.578 -5.08026 76.5797 40.061Z" fill="#FBC30C"/>
<path d="M107.115 77.051L103.742 76.5079C103.742 76.5079 103.926 78.6221 104.968 79.2869" stroke="#DE7651" stroke-width="3" stroke-miterlimit="10" stroke-linecap="round" stroke-linejoin="round"/>
<path d="M92.6434 83.9966L101.351 90.0356" stroke="#DE7651" stroke-width="3" stroke-miterlimit="10" stroke-linecap="round" stroke-linejoin="round"/>
<path d="M78.1403 182.201H69.1478V198.95H78.1403V182.201Z" fill="#BF340A"/>
</svg>
