<svg width="187" height="350" viewBox="0 0 187 350" fill="none" xmlns="http://www.w3.org/2000/svg">
<path d="M118.196 144.157L114.175 129.307L57.269 137.569L60.7556 146.307C60.7556 146.307 61.7162 163.738 62.0833 185.265L116.836 183.558C116.069 163.059 116.689 151.135 118.196 144.157Z" fill="#AF1414"/>
<path d="M92.9228 112.386C83.0356 111.961 68.0507 112.147 60.4422 117.391C52.8338 122.634 6.70735 205.733 6.70735 205.733C6.70735 205.733 -1.85221 217.331 0.367565 218.761C2.58734 220.191 9.87817 210.34 9.87817 210.34C9.87817 210.34 4.32972 224.163 6.86715 225.116C9.40268 226.07 14.7933 212.246 14.7933 212.246C14.7933 212.246 11.3067 224.417 15.1109 225.164C18.9151 225.911 20.0241 208.593 20.0241 208.593C20.0241 208.593 25.4128 215.901 27.7905 214.313C30.1681 212.725 23.3528 204.303 23.3528 204.303L60.7618 146.307C60.7618 146.307 65.5171 232.585 57.9086 258.325C50.3001 284.065 26.8413 328.554 26.8413 328.554L50.6178 349.996L48.0823 324.422C48.0823 324.422 75.3454 285.017 80.4183 260.548C85.4913 236.08 89.9289 203.666 89.9289 203.666C89.9289 203.666 98.4618 261.488 92.9267 349.996H131.458L112.754 331.343C112.754 331.343 119.729 242.833 117.192 191.631C114.656 140.429 119.53 135.264 125.949 134.072C132.369 132.881 167.796 135.146 173.027 126.564C178.258 117.982 179.804 91.5285 176.951 78.5383C176.951 78.5383 183.667 67.3956 181.944 66.204C180.221 65.0123 173.86 74.0099 173.86 74.0099C173.86 74.0099 174.455 64.5947 171.186 64.8331C167.916 65.0714 168.749 75.0815 168.749 74.9023C168.749 74.723 160.248 64.059 157.871 65.8455C155.493 67.634 162.567 77.0473 162.567 77.0473C162.567 77.0473 156.564 74.4847 155.731 76.6888C154.898 78.8929 162.151 84.0772 162.151 84.0772L161.258 115.24C161.255 115.246 137.174 114.292 92.9228 112.386Z" fill="#F8B79B"/>
<path d="M119.415 139.979H54.6501V155.78L60.7579 146.309C60.7579 146.309 61.7983 165.201 62.1274 187.942H117.017C115.758 159.576 116.937 146.311 119.415 139.979Z" fill="#AF1414"/>
<path d="M140.396 114.395C128.983 113.922 113.047 113.253 92.923 112.385C83.0358 111.96 68.0509 112.147 60.4424 117.39C57.4789 119.432 48.6702 133.288 39.0208 149.443C43.0418 152.549 48.986 157.299 52.0731 159.774L60.7582 146.309C60.7582 146.309 74.3507 151.116 94.5608 150.877C105.595 150.748 113.38 147.279 118.196 144.156C119.899 136.268 122.727 134.67 125.946 134.074C128.141 133.666 133.733 133.662 140.349 133.492C140.333 128.277 140.364 120.481 140.396 114.395Z" fill="#DD2D54"/>
<path d="M57.9041 258.326C54.2254 270.771 46.8452 287.59 40.1973 301.652C45.4852 305.156 52.0874 309.603 55.9944 312.238C64.4607 298.634 77.1155 276.446 80.4119 260.55C85.4848 236.081 89.9225 203.668 89.9225 203.668C89.9225 203.668 96.1196 245.727 94.5161 312.983H114.045C115.928 284.305 119.004 228.369 117.186 191.633C117.094 189.774 117.014 187.995 116.94 186.254L62.1211 187.695C62.5034 213.603 61.9652 244.587 57.9041 258.326Z" fill="#F26868"/>
<path d="M112.275 255.308H107.44C105.644 255.308 104.191 253.85 104.191 252.052V227.9C104.191 226.102 105.646 224.643 107.44 224.643H112.275C114.068 224.643 115.524 226.102 115.524 227.9V252.052C115.524 253.85 114.068 255.308 112.275 255.308Z" fill="#AF1414"/>
<path d="M75.5475 257.566L70.7959 256.67C69.0327 256.338 67.8724 254.633 68.2033 252.866L72.6581 229.131C72.9891 227.364 74.6896 226.201 76.4528 226.533L81.2044 227.429C82.9676 227.76 84.1298 229.465 83.7969 231.233L79.3403 254.967C79.0093 256.734 77.3107 257.897 75.5475 257.566Z" fill="#AF1414"/>
<path d="M48.0779 324.426C48.0779 324.426 51.827 319.005 56.7991 310.947C51.5017 307.224 45.3522 303.155 40.8004 300.384C33.4544 316.01 26.8389 328.557 26.8389 328.557L50.6154 350L48.0779 324.426Z" fill="#AF1414"/>
<path d="M112.751 331.345C112.751 331.345 113.369 323.497 114.17 311.127C107.168 310.478 99.3223 310.911 94.5613 311.313C94.295 323.413 93.7776 336.339 92.9216 350H131.453L112.751 331.345Z" fill="#AF1414"/>
<path d="M39.2871 303.58L54.584 314.494C55.2878 313.378 56.0277 312.198 56.7999 310.945C51.5025 307.222 45.353 303.153 40.8012 300.382C40.2915 301.465 39.7874 302.529 39.2871 303.58Z" fill="#FAC13E"/>
<path d="M94.4768 314.456L113.903 315.174C113.989 313.886 114.078 312.539 114.169 311.127C107.168 310.478 99.3215 310.911 94.5605 311.313C94.5396 312.343 94.5034 313.413 94.4768 314.456Z" fill="#FAC13E"/>
<path d="M172.507 57.5689C158.274 55.9673 161.888 38.2637 169.812 31.2719C177.738 24.2801 178.371 13.1184 178.371 13.1184C178.371 13.1184 189.151 30.9573 186.613 42.5557C184.08 54.154 180.275 58.444 172.507 57.5689Z" fill="#FBC30C"/>
<path d="M170.409 49.823C167.548 48.8182 165.533 42.2421 169.695 38.526C173.857 34.8079 175.164 31.8297 178.612 32.3064C182.061 32.783 181.941 53.8747 170.409 49.823Z" fill="#DD2D54"/>
<path d="M167.323 21.5795C164.693 21.4937 159.114 8.82764 164.465 8.58931C169.815 8.35097 174.582 21.8179 167.323 21.5795Z" fill="#FBC30C"/>
<path d="M176.591 7.39994C173.618 7.04149 172.309 0.370011 174.926 0.0115547C177.544 -0.346901 179.564 7.75649 176.591 7.39994Z" fill="#EFC150"/>
<path d="M92.4901 118.867C89.0986 118.867 86.3481 116.11 86.3481 112.711V104.527C86.3481 101.126 89.0986 98.3704 92.4901 98.3704C95.8835 98.3704 98.632 101.127 98.632 104.527V112.711C98.632 116.112 95.8816 118.867 92.4901 118.867Z" fill="#F8B79B"/>
<path d="M142.952 74.6944C142.952 68.0248 137.56 62.6194 130.906 62.6194C124.253 62.6194 118.86 68.0267 118.86 74.6944C118.86 81.364 124.255 86.7694 130.906 86.7694C137.558 86.7694 142.952 81.364 142.952 74.6944Z" fill="#F8B79B"/>
<path d="M92.7636 30.6831C69.6529 30.6831 50.917 40.6169 50.917 63.785C50.917 63.9738 50.9284 64.1587 50.9303 64.3475C50.0839 64.1587 49.207 64.0519 48.3054 64.0519C41.6517 64.0519 36.2593 69.4574 36.2593 76.1269C36.2593 82.7965 41.6536 88.202 48.3054 88.202C51.5199 88.202 54.4359 86.9321 56.5948 84.8729C63.8476 97.3445 77.3241 105.732 92.7636 105.732C115.874 105.732 134.61 86.9512 134.61 63.785C134.61 40.6188 115.874 30.6831 92.7636 30.6831Z" fill="#F8B79B"/>
<path d="M45.9444 64.2835L50.9299 64.3464C50.9299 64.3464 53.9314 69.8891 65.5819 69.2924C77.2324 68.6956 92.9249 57.7341 106.36 57.8523C119.794 57.9705 122.765 62.6152 136.793 64.1653C136.793 64.1653 142.855 24.8397 134.058 1.48288C134.058 1.48288 127.33 6.01124 123.977 11.3747C123.977 11.3747 97.4424 9.22972 70.4551 11.6131C70.4551 11.6131 65.58 3.50968 61.538 0.649658C61.538 0.649658 40.0973 31.1492 45.9444 64.2835Z" fill="black"/>
<path d="M76.8905 58.1726C79.1956 58.1726 81.0642 56.2995 81.0642 53.9889C81.0642 51.6783 79.1956 49.8052 76.8905 49.8052C74.5854 49.8052 72.7168 51.6783 72.7168 53.9889C72.7168 56.2995 74.5854 58.1726 76.8905 58.1726Z" fill="#F6F8F7"/>
<path d="M125.262 58.1726C127.567 58.1726 129.435 56.2995 129.435 53.9889C129.435 51.6783 127.567 49.8052 125.262 49.8052C122.957 49.8052 121.088 51.6783 121.088 53.9889C121.088 56.2995 122.957 58.1726 125.262 58.1726Z" fill="#F6F8F7"/>
<path d="M71.4239 42.2121C70.8552 44.5516 85.4311 48.1858 85.6708 46.0426C85.9105 43.8957 72.0726 39.5409 71.4239 42.2121Z" fill="#F6F8F7"/>
<path d="M116.797 44.0881C117.403 46.4181 131.955 42.6924 131.152 40.6904C130.347 38.6884 116.104 41.4283 116.797 44.0881Z" fill="#F6F8F7"/>
<path d="M105.765 59.0452L111.233 62.0253C111.233 62.0253 107.785 65.9569 104.813 65.8387" stroke="#DE7651" stroke-width="3" stroke-miterlimit="10" stroke-linecap="round" stroke-linejoin="round"/>
<path d="M81.156 72.9883C81.156 72.9883 86.149 77.3984 98.6327 74.7767" stroke="#DE7651" stroke-width="3" stroke-miterlimit="10" stroke-linecap="round" stroke-linejoin="round"/>
<path d="M116.839 183.558L62.0864 185.264C62.1264 187.575 62.1587 189.934 62.1815 192.323C74.8858 191.854 103.853 190.763 117.124 190.262C117.014 187.933 116.919 185.697 116.839 183.558Z" fill="black"/>
<path d="M85.8826 184.525L86.5084 191.416L93.8867 191.137L93.4112 184.288L85.8826 184.525Z" fill="#FAC13E"/>
</svg>
