<svg width="154" height="350" viewBox="0 0 154 350" fill="none" xmlns="http://www.w3.org/2000/svg">
<path d="M36.105 116.451L20.3096 286.597C20.3096 286.597 75.7598 303.197 129.554 286.597L111.418 119.496L36.105 116.451Z" fill="#3D4347"/>
<path d="M31.9771 58.8819C31.9771 58.8819 32.3552 11.2355 74.9333 10.4664C74.9333 10.4664 86.9256 -0.446889 90.7675 0.0142105C94.6094 0.47531 91.568 12.0028 91.568 12.0028C91.568 12.0028 98.1451 2.28098 100.106 3.31937C102.066 4.35777 98.4919 13.0025 98.4919 13.0025C98.4919 13.0025 118.666 24.4156 118.205 58.8819C117.744 93.3482 120.049 115.022 120.049 115.022L30.1345 113.869L31.9771 58.8819Z" fill="#6768E6"/>
<path d="M148.461 134.434C139.853 126.903 112.495 104.923 103.734 100.927C94.9728 96.9298 86.2119 95.0854 76.6819 95.0098C55.3514 94.8383 15.9309 116.106 7.51675 121.754C-0.897424 127.401 -2.74367 134.895 4.51959 140.659C11.7829 146.422 35.299 163.369 44.8659 167.633L34.4912 333.168L17.1999 349.998C17.1999 349.998 54.7796 349.768 54.3185 349.998C53.8574 350.229 67.6904 209.593 67.6904 209.593L75.5291 210.285L90.5149 349.998H131.4L111.726 336.396L100.045 175.011C100.045 175.011 133.552 164.558 144.464 156.259C155.377 147.959 157.067 141.965 148.461 134.434ZM42.6766 152.301C42.3298 152.301 24.808 138.698 17.1999 133.971L44.9821 119.33L45.6738 150.915C45.6738 150.915 43.0215 152.301 42.6766 152.301ZM108.19 156.72L104.348 154.261L105.676 121.54L136.45 145.039C129.205 146.884 108.19 156.72 108.19 156.72Z" fill="#F8B79B"/>
<path d="M76.6805 95.0103C63.292 94.9015 42.7822 103.24 27.28 110.861L33.5639 125.349L44.9789 119.334L45.6706 150.92L40.8124 157.233C40.8124 157.233 44.5012 166.473 44.8646 167.635C44.8885 167.709 44.8812 167.777 44.8517 167.844L44.5934 171.972L102.041 170.057L105.983 168.772L103.963 158.568L104.347 154.265L105.675 121.544L113.849 127.785C116.595 122.787 120.044 116.402 121.837 113.076C114.367 107.46 107.41 102.609 103.732 100.933C94.9715 96.9304 86.2106 95.086 76.6805 95.0103Z" fill="#070904"/>
<path d="M45.7879 155.028L45.6717 150.917C45.6717 150.917 43.0195 152.3 42.6746 152.3C42.5141 152.3 38.6003 149.331 33.7144 145.694L28.7493 158.035C35.059 162.234 41.0644 165.938 44.8657 167.633C44.8657 167.633 50.86 169.708 51.5516 168.247C52.2433 166.786 44.174 163.328 44.174 163.328C44.174 163.328 53.7041 166.017 53.9346 163.406C54.1652 160.792 45.7123 159.409 45.7123 159.409C45.7123 159.409 55.4729 159.256 55.4729 156.95C55.4729 154.645 45.7879 155.028 45.7879 155.028Z" fill="#F8931F"/>
<path d="M102.042 170.053L44.5946 171.967L44.3069 176.545L100.045 175.011L102.042 170.053Z" fill="#F8931F"/>
<path d="M44.1507 176.803L40.3889 233.229C47.6555 236.349 65.5285 240.753 65.5285 240.753L67.5022 219.403L75.3976 220.3L77.6396 240.753L105.091 234.514L100.091 174.546L44.1507 176.803Z" fill="#070904"/>
<path d="M76.6817 95.0098C67.9521 94.9397 56.194 98.4607 44.7698 103.033C46.0775 117.119 50.8618 143.008 75.1453 143.964C96.7082 144.812 105.759 115.979 108.629 103.721C106.683 102.48 105.008 101.509 103.734 100.929C94.9726 96.9299 86.2117 95.0854 76.6817 95.0098Z" fill="#3D4347"/>
<path d="M44.3026 176.625L44.0112 181.29C52.3848 195.515 67.6915 209.594 67.6915 209.594L75.5302 210.285C86.3661 197.028 100.046 175.011 100.046 175.011L44.3026 176.625Z" fill="#070904"/>
<path d="M54.3176 349.998C54.1867 350.065 55.2084 338.764 56.7393 322.557L35.4402 318.005L34.4903 333.17L17.199 350C17.199 350 54.7787 349.768 54.3176 349.998Z" fill="#F8931F"/>
<path d="M110.608 320.947L87.5601 322.45L90.5148 349.998H131.4L111.725 336.395L110.608 320.947Z" fill="#F8931F"/>
<path d="M35.2087 321.72L34.9836 325.296L56.067 329.713C56.1795 328.514 56.2939 327.284 56.4138 326.01L35.2087 321.72Z" fill="#070904"/>
<path d="M88.4741 330.986L111.168 328.709L110.902 325.031L88.0627 327.137L88.4741 330.986Z" fill="#070904"/>
<path d="M75.9349 99.6747C74.3653 99.6747 73.0908 98.4021 73.0908 96.8306V84.6502C73.0908 83.0806 74.3634 81.8062 75.9349 81.8062C77.5045 81.8062 78.7789 83.0788 78.7789 84.6502V96.8306C78.7789 98.4021 77.5063 99.6747 75.9349 99.6747Z" fill="#F8B79B"/>
<path d="M81.6595 110.064H69.6709V124.475H81.6595V110.064Z" fill="#3BC493"/>
<path d="M76.9683 167.241H67.252V179.69H76.9683V167.241Z" fill="#F8931F"/>
<path d="M44.0098 252.314C44.0098 252.314 41.1989 256.925 46.5015 259" stroke="#DE7651" stroke-width="3" stroke-miterlimit="10" stroke-linecap="round" stroke-linejoin="round"/>
<path d="M117.004 52.0062C115.753 52.0062 114.552 52.2128 113.425 52.5816C112.529 32.8337 96.2816 17.0862 76.3123 17.0862C55.9888 17.0862 39.4998 33.3907 39.1475 53.6293C37.4286 52.6056 35.4292 52.0062 33.2824 52.0062C26.9394 52.0062 21.7954 57.1484 21.7954 63.4931C21.7954 69.836 26.9376 74.98 33.2824 74.98C37.1685 74.98 40.5972 73.0453 42.6759 70.0905C48.6222 82.721 61.4279 91.4837 76.3123 91.4837C90.5123 91.4837 102.844 83.5233 109.113 71.8261C111.172 73.7756 113.944 74.98 117.004 74.98C123.346 74.98 128.49 69.8378 128.49 63.4931C128.49 57.1484 123.346 52.0062 117.004 52.0062Z" fill="#F8B79B"/>
<path d="M64.6305 54.2838C64.6305 52.2461 62.9794 50.595 60.9417 50.595C58.904 50.595 57.2529 52.2461 57.2529 54.2838C57.2529 56.3215 58.904 57.9726 60.9417 57.9726C62.9794 57.9726 64.6305 56.3215 64.6305 54.2838Z" fill="#563E4C"/>
<path d="M97.1381 54.2838C97.1381 52.2461 95.487 50.595 93.4493 50.595C91.4116 50.595 89.7605 52.2461 89.7605 54.2838C89.7605 56.3215 91.4116 57.9726 93.4493 57.9726C95.487 57.9726 97.1381 56.3215 97.1381 54.2838Z" fill="#563E4C"/>
<path d="M118.204 72.0238C119.222 72.0238 120.048 71.198 120.048 70.1794C120.048 69.1607 119.222 68.335 118.204 68.335C117.185 68.335 116.359 69.1607 116.359 70.1794C116.359 71.198 117.185 72.0238 118.204 72.0238Z" fill="#F6F8F7"/>
<path d="M74.9332 54.2837L73.0925 56.1668C73.0925 56.1668 73.9373 57.729 75.8591 57.6516" stroke="#DE7651" stroke-width="3" stroke-miterlimit="10" stroke-linecap="round" stroke-linejoin="round"/>
<path d="M76.2434 65.0299C76.2434 65.0299 82.852 65.1829 87.6179 61.4941" stroke="#DE7651" stroke-width="3" stroke-miterlimit="10" stroke-linecap="round" stroke-linejoin="round"/>
<path d="M39.1483 53.6292C39.1483 53.6292 35.4355 75.1736 42.044 76.3264C48.6525 77.4791 48.3463 52.4008 48.3463 52.4008C48.3463 52.4008 66.0987 49.8887 85.2344 33.0586C85.2344 33.0586 95.0337 49.9662 100.912 54.7119C100.912 54.7119 102.28 76.6325 108.627 77.0936C114.975 77.5547 113.426 52.5797 113.426 52.5797C113.426 52.5797 113.314 18.1872 76.9678 16.1123C40.622 14.0392 37.4422 45.8421 39.1483 53.6292Z" fill="#6768E6"/>
<path d="M100.044 253.927C100.044 253.927 103.558 256.464 100.044 259" stroke="#DE7651" stroke-width="3" stroke-miterlimit="10" stroke-linecap="round" stroke-linejoin="round"/>
<path d="M108.19 156.72L104.348 154.261L103.965 158.564C103.965 158.564 93.8203 158.642 94.0508 161.715C94.2205 163.985 99.123 163.572 101.677 163.201C98.8408 163.718 93.0475 164.964 93.5141 166.479C94.1283 168.476 102.889 167.631 102.889 167.631C102.889 167.631 94.6669 173.626 96.5113 174.778C98.3557 175.931 100.047 175.009 100.047 175.009C100.047 175.009 111.825 171.335 123.689 166.613L117.742 152.387C112.423 154.739 108.19 156.72 108.19 156.72Z" fill="#F8931F"/>
</svg>
