<svg width="191" height="350" viewBox="0 0 191 350" fill="none" xmlns="http://www.w3.org/2000/svg">
<path d="M72.9516 112.632C68.1654 112.632 63.9986 115.902 62.8608 120.551L42.0533 205.573C40.8969 210.298 43.1767 215.15 47.7357 216.847C63.5106 222.718 101.678 233.454 143.629 219.871C148.547 218.278 151.205 213.071 149.982 208.049L128.667 120.562C127.533 115.908 123.364 112.632 118.573 112.632H72.9516Z" fill="#6768E6"/>
<path d="M166.38 92.4378C166.38 92.4378 157.99 78.5614 162.406 75.4777C166.822 72.3941 169.804 74.2654 169.804 74.2654L166.38 92.4378Z" fill="#F8B79B"/>
<path d="M24.6176 92.4378C24.6176 92.4378 33.0086 78.5614 28.5923 75.4777C24.176 72.3941 21.1941 74.2654 21.1941 74.2654L24.6176 92.4378Z" fill="#F8B79B"/>
<path d="M66.1309 121.003C66.1309 121.003 80.7558 116.964 97.2922 116.524C113.827 116.083 124.868 121.003 124.868 121.003L121.455 182.602L137.675 334.141L158.652 350H118.022L99.9155 204.848H92.4078L80.0422 350H35.6584L56.415 336.344L71.6512 182.382L66.1309 121.003Z" fill="#F8B79B"/>
<path d="M121.725 140.423C121.725 140.423 162.957 140.863 168.477 137.228C173.998 133.593 182.279 98.1291 182.5 87.7222C182.721 77.3171 166.49 85.7962 166.49 85.7962L158.65 118.615L124.866 121.001L121.725 140.423Z" fill="#F8B79B"/>
<path d="M166.05 72.031C164.335 77.0336 162.256 83.3119 164.946 86.0114C167.638 88.7092 182.723 94.0571 186.697 89.6519C190.672 85.2467 192.329 76.4363 189.789 72.8011C187.248 69.1659 168.921 63.6611 166.05 72.031Z" fill="#F8B79B"/>
<path d="M69.2735 140.423C69.2735 140.423 28.0413 140.863 22.5209 137.228C17.0005 133.593 8.71914 98.1291 8.49833 87.7222C8.27751 77.3171 24.5082 85.7962 24.5082 85.7962L32.3481 118.615L66.1327 121.001L69.2735 140.423Z" fill="#F8B79B"/>
<path d="M24.9497 72.031C26.665 77.0336 28.746 83.3119 26.0538 86.0114C23.3634 88.7092 8.27735 94.0571 4.30269 89.6519C0.32803 85.2467 -1.32896 76.4363 1.21129 72.8011C3.75154 69.1659 22.0791 63.6611 24.9497 72.031Z" fill="#F8B79B"/>
<path d="M71.6513 182.381L121.455 182.602L121.792 176.508H71.123L71.6513 182.381Z" fill="#FBAE46"/>
<path d="M121.455 182.602L108.711 182.545L110.956 182.556V176.508H106.54V182.536L86.8132 182.448V176.508H82.4711V182.429L71.6512 182.381L66.5901 233.521L89.7986 235.471L92.4078 204.848H99.9155L103.609 234.453L126.733 231.926L121.455 182.602Z" fill="#56284D"/>
<path d="M72.0927 262.227C72.0927 262.227 67.0139 266.192 72.0927 268.505" stroke="#DE7651" stroke-width="3" stroke-miterlimit="10" stroke-linecap="round" stroke-linejoin="round"/>
<path d="M124.647 265.365C124.647 265.365 128.621 269.164 124.647 271.587" stroke="#DE7651" stroke-width="3" stroke-miterlimit="10" stroke-linecap="round" stroke-linejoin="round"/>
<path d="M80.0422 350L82.3121 323.361L57.8918 321.421L56.415 336.344L35.6584 350H80.0422Z" fill="#56284D"/>
<path d="M121.792 176.509L124.868 121.003C124.868 121.003 113.827 116.083 97.2922 116.524C80.7576 116.964 66.1309 121.003 66.1309 121.003L71.123 176.509H121.792Z" fill="#3BC493"/>
<path d="M118.022 350H158.652L137.675 334.141L136.329 321.567L114.745 323.734L118.022 350Z" fill="#56284D"/>
<path d="M82.4853 141.299C84.9125 145.447 88.177 150.948 90.8303 155.401C93.0455 159.119 98.3398 159.381 100.917 155.903L111.732 141.302C113.313 139.166 111.834 136.137 109.172 136.065L85.9865 135.434C82.9146 135.352 80.9378 138.652 82.4853 141.299Z" fill="black"/>
<path d="M64.9542 119.021C64.313 122.564 65.5425 125.775 70.9162 124.673C76.2899 123.572 80.4854 122.545 79.8954 117.331C79.3072 112.118 65.7633 114.541 64.9542 119.021Z" fill="#6768E6"/>
<path d="M113.313 116.495C112.767 121.07 124.869 125.406 126.415 121.81C127.961 118.212 126.341 116.377 122.219 114.836C118.096 113.294 113.754 112.797 113.313 116.495Z" fill="#6768E6"/>
<path d="M96.7181 121.821C93.98 121.821 91.7612 119.606 91.7612 116.876V100.628C91.7612 97.8968 93.9817 95.6836 96.7181 95.6836C99.4562 95.6836 101.675 97.8968 101.675 100.628V116.876C101.677 119.607 99.4562 121.821 96.7181 121.821Z" fill="#F8B79B"/>
<path d="M56.4307 87.1711C56.4307 87.1711 46.1266 104.397 57.0189 110.395C67.913 116.393 87.9329 106.995 87.9329 106.408C87.9329 105.821 62.9067 83.9412 62.9067 83.9412L56.4307 87.1711Z" fill="#784E28"/>
<path d="M105.598 105.378C105.598 105.378 120.172 119.181 130.918 113.013C141.664 106.846 133.863 95.6869 135.334 88.3443C136.806 81.0017 127.238 81.7365 127.238 81.7365L105.598 105.378Z" fill="#784E28"/>
<path d="M138.91 73.0743C137.505 73.0743 136.168 73.3562 134.947 73.8602C134.968 73.3351 135.027 72.8205 135.027 72.2901C135.027 51.2456 117.923 34.1851 96.8258 34.1851C75.7283 34.1851 58.6249 51.2456 58.6249 72.2901C58.6249 72.7377 58.6761 73.1712 58.692 73.6152C57.6568 73.2699 56.5528 73.0743 55.401 73.0743C49.6686 73.0743 45.0227 77.7086 45.0227 83.4265C45.0227 89.1445 49.6686 93.7788 55.401 93.7788C58.4906 93.7788 61.2552 92.4255 63.156 90.2881C69.5984 102.254 82.2556 110.393 96.8258 110.393C111.592 110.393 124.378 102.022 130.736 89.7894C132.635 92.214 135.587 93.7788 138.91 93.7788C144.642 93.7788 149.288 89.1445 149.288 83.4265C149.288 77.7086 144.642 73.0743 138.91 73.0743Z" fill="#F8B79B"/>
<path d="M58.6922 73.6151L55.4012 73.0742L54.7388 57.5449L136.219 56.7749L137.074 73.2416L134.947 73.8601L58.6922 73.6151Z" fill="#3BC493"/>
<path d="M79.9115 68.0452C79.9115 66.0984 78.3301 64.521 76.3785 64.521C74.4268 64.521 72.8455 66.0984 72.8455 68.0452C72.8455 69.9919 74.4268 71.5694 76.3785 71.5694C78.3301 71.5694 79.9115 69.9919 79.9115 68.0452Z" fill="#070904"/>
<path d="M122.61 68.8787C122.61 66.9319 121.029 65.3545 119.077 65.3545C117.126 65.3545 115.544 66.9319 115.544 68.8787C115.544 70.8254 117.126 72.4029 119.077 72.4029C121.029 72.4029 122.61 70.8254 122.61 68.8787Z" fill="#070904"/>
<path d="M54.7384 57.545C54.7384 57.545 44.8018 38.2713 53.781 20.5042C62.7602 2.73707 102.66 -8.1297 125.254 7.58281C147.848 23.2953 141.077 50.4596 136.219 56.7749L54.7384 57.545Z" fill="#784E28"/>
<path d="M70.1763 60.611C69.7488 65.2241 83.8668 65.1272 84.0328 62.4841C84.1971 59.8409 70.5066 57.0322 70.1763 60.611Z" fill="#784E28"/>
<path d="M125.308 59.753C125.735 64.3679 111.617 64.2692 111.451 61.6261C111.287 58.9812 124.977 56.1742 125.308 59.753Z" fill="#784E28"/>
<path d="M97.741 74.616C98.1278 74.5614 101.385 75.3314 101.661 76.8732C101.936 78.415 98.3487 79.2415 98.3487 79.2415" stroke="#DE7651" stroke-width="3" stroke-miterlimit="10" stroke-linecap="round" stroke-linejoin="round"/>
<path d="M78.1818 79.2415L91.0633 85.74C91.0633 85.74 86.7565 90.2562 81.0153 87.8334C75.2742 85.4105 78.1818 79.2415 78.1818 79.2415Z" fill="#F6F8F7"/>
</svg>
