<svg width="199" height="350" viewBox="0 0 199 350" fill="none" xmlns="http://www.w3.org/2000/svg">
<path d="M67.2725 120.067L41.6045 225.214C41.6045 225.214 97.2596 252.848 157.921 228.485L131.573 120.067H67.2725Z" fill="#FBC30C"/>
<path d="M88.6196 93.5887C88.6196 93.5887 47.2172 110.552 39.0834 63.8043C30.9495 17.0567 66.697 1.67134 88.6196 0.0933638C110.542 -1.48462 143.722 17.0582 145.302 46.7432C146.882 76.4282 138.982 98.1254 111.925 90.8273C84.8671 83.5291 88.6196 93.5887 88.6196 93.5887Z" fill="#DD2D54"/>
<path d="M134.595 63.9145C133.082 63.9145 131.643 64.2189 130.329 64.7673C128.026 48.3992 114.004 35.7925 96.9991 35.7925C79.7728 35.7925 65.589 48.7275 63.5716 65.4092C61.9394 64.4629 60.0504 63.9126 58.0275 63.9126C51.9076 63.9126 46.9468 68.8735 46.9468 74.9934C46.9468 81.1134 51.9076 86.0743 58.0275 86.0743C61.1544 86.0743 63.9732 84.774 65.9869 82.6906C71.122 94.7416 83.0721 103.191 96.9991 103.191C110.578 103.191 122.249 95.1432 127.586 83.5727C129.495 85.1353 131.936 86.0743 134.595 86.0743C140.715 86.0743 145.676 81.1134 145.676 74.9934C145.674 68.8753 140.713 63.9145 134.595 63.9145Z" fill="#BA7948"/>
<path d="M71.5524 67.6597C72.9994 76.1913 83.0916 75.5311 88.5935 72.7801C94.0954 70.0292 102.959 69.2644 108.461 72.5509C113.963 75.8373 121.834 72.3216 121.451 65.6735C121.069 59.0254 110.676 52.6836 96.8445 52.6836C83.0146 52.6818 70.0999 59.1006 71.5524 67.6597Z" fill="#070904"/>
<path d="M84.1925 66.5759C84.1925 64.5497 82.5507 62.908 80.5246 62.908C78.4984 62.908 76.8567 64.5497 76.8567 66.5759C76.8567 68.602 78.4984 70.2438 80.5246 70.2438C82.5507 70.2438 84.1925 68.602 84.1925 66.5759Z" fill="white"/>
<path d="M118.275 66.5759C118.275 64.5497 116.634 62.908 114.607 62.908C112.581 62.908 110.939 64.5497 110.939 66.5759C110.939 68.602 112.581 70.2438 114.607 70.2438C116.63 70.2438 118.275 68.602 118.275 66.5759Z" fill="white"/>
<path d="M68.6548 111.661C68.6548 111.661 83.8381 107.458 101.006 107C118.173 106.541 129.634 111.661 129.634 111.661L126.091 175.773L142.93 333.494L164.708 350H122.527L103.729 198.927H95.9349L83.0972 350H37.019L58.568 335.786L74.3859 175.544L68.6548 111.661Z" fill="#BA7948"/>
<path d="M126.373 131.872C126.373 131.872 169.179 132.33 174.91 128.547C180.641 124.763 189.239 87.8531 189.468 77.0235C189.698 66.1921 172.847 75.019 172.847 75.019L164.708 109.177L129.634 111.66L126.373 131.872Z" fill="#BA7948"/>
<path d="M172.731 81.9313C172.731 81.9313 164.02 67.4888 168.605 64.2794C173.19 61.0699 176.285 63.0176 176.285 63.0176L172.731 81.9313Z" fill="#6768E6"/>
<path d="M172.389 60.6928C170.609 65.8994 168.448 72.4357 171.243 75.2435C174.036 78.0513 189.698 83.6173 193.825 79.0324C197.951 74.4475 199.671 65.2777 197.034 61.4942C194.397 57.7108 175.369 51.9815 172.389 60.6928Z" fill="#6768E6"/>
<path d="M71.9164 131.872C71.9164 131.872 29.11 132.331 23.3789 128.547C17.6478 124.764 9.05017 87.8536 8.82092 77.024C8.59168 66.1926 25.4421 75.0195 25.4421 75.0195L33.5793 109.177L68.6538 111.66L71.9164 131.872Z" fill="#BA7948"/>
<path d="M140.173 106.97C140.173 106.97 111.746 102.734 58.7136 107.777C58.7136 107.777 69.4368 120.377 70.4693 131.89L73.8365 169.432H126.44L128.404 133.902C128.404 133.902 134.212 114.501 140.173 106.97Z" fill="black"/>
<path d="M25.5565 81.9313C25.5565 81.9313 34.2678 67.4888 29.6829 64.2794C25.098 61.0699 22.0042 63.0176 22.0042 63.0176L25.5565 81.9313Z" fill="#6768E6"/>
<path d="M25.9014 60.6923C27.6822 65.8989 29.8408 72.4352 27.0477 75.243C24.2527 78.0508 8.59255 83.6168 4.46614 79.0319C0.339739 74.447 -1.37868 65.2772 1.25672 61.4937C3.89395 57.7121 22.9212 51.981 25.9014 60.6923Z" fill="#6768E6"/>
<path d="M74.3865 175.544L126.091 175.774L126.442 169.432H73.8381L74.3865 175.544Z" fill="#070904"/>
<path d="M116.331 154.714C113.643 150.502 110.026 144.915 107.088 140.395C104.636 136.62 99.1325 136.567 96.6035 140.29L85.9922 155.923C84.4388 158.21 86.1004 161.298 88.8642 161.263L112.942 160.959C116.133 160.919 118.048 157.403 116.331 154.714Z" fill="#FBC30C"/>
<path d="M76.9365 106.329L96.5947 125.061C98.9367 127.144 102.537 126.878 104.547 124.474L120.616 105.529C110.113 105.159 95.4815 105.148 76.9365 106.329Z" fill="#FBC30C"/>
<path d="M59.5391 64.0225C59.5391 64.0225 60.9292 73.8489 63.0694 74.0012C65.2097 74.1534 64.6741 65.2128 73.7669 48.3257C73.7669 48.3257 92.3357 54.5923 104.486 42.059C104.486 42.059 109.071 50.0056 122.367 49.9304C122.367 49.9304 126.722 73.4657 128.556 73.4657C130.39 73.4657 132.208 67.5658 132.598 64.0978C132.989 60.6279 128.175 34.8772 94.7052 33.5017C61.2355 32.1263 59.5391 64.0225 59.5391 64.0225Z" fill="#DD2D54"/>
<path d="M98.3745 71.0979L102.616 72.2441C102.616 72.2441 100.839 74.5934 98.7193 74.9951" stroke="#84583A" stroke-width="3" stroke-miterlimit="10" stroke-linecap="round" stroke-linejoin="round"/>
<path d="M81.1812 81.2419L94.1913 80.0957C94.1913 80.0957 93.2743 85.77 88.6325 86.4577C83.9889 87.1454 81.1812 81.2419 81.1812 81.2419Z" fill="#F6F8F7"/>
<path d="M99.3484 113.888C97.5438 113.888 96.0803 112.425 96.0803 110.62V99.0074C96.0803 97.2028 97.5438 95.7393 99.3484 95.7393C101.153 95.7393 102.617 97.2028 102.617 99.0074V110.62C102.615 112.425 101.151 113.888 99.3484 113.888Z" fill="#BA7948"/>
<path d="M61.6298 80.0954C61.6298 78.4852 60.324 77.1794 58.7138 77.1794C57.1036 77.1794 55.7979 78.4852 55.7979 80.0954C55.7979 81.7057 57.1036 83.0114 58.7138 83.0114C60.324 83.0114 61.6298 81.7057 61.6298 80.0954Z" fill="#070904"/>
<path d="M135.969 80.0954C135.969 78.4852 134.664 77.1794 133.053 77.1794C131.443 77.1794 130.137 78.4852 130.137 80.0954C130.137 81.7057 131.443 83.0114 133.053 83.0114C134.664 83.0114 135.969 81.7057 135.969 80.0954Z" fill="#070904"/>
<path d="M83.0972 350L88.5973 285.279C78.5765 282.615 70.1733 282.127 63.8333 282.45L58.568 335.787L37.019 350H83.0972Z" fill="#050A04"/>
<path d="M122.528 350H164.709L142.931 333.494L137.412 281.802C128.989 281.823 120.933 282.928 114.345 284.234L122.528 350Z" fill="#050A04"/>
<path d="M25.4421 75.0195C25.4421 75.0195 8.59168 66.1926 8.82092 77.024C8.95113 83.2118 11.8158 97.9128 15.315 110.085C19.8228 108.882 25.6952 107.178 32.5597 104.9L25.4421 75.0195Z" fill="#6768E6"/>
<path d="M172.847 75.0192L165.249 106.906C169.434 109.608 175.081 112.885 181.311 115.513C185.522 102.666 189.316 84.1707 189.466 77.0237C189.696 66.1942 172.847 75.0192 172.847 75.0192Z" fill="#6768E6"/>
<path d="M74.3859 175.544L69.8726 221.269C69.8726 221.269 103.487 227.64 130.846 220.321L126.091 175.774L74.3859 175.544Z" fill="#0B5594"/>
<path d="M70.636 259.69C70.636 259.69 66.5096 262.899 70.636 265.192" stroke="#84583A" stroke-width="3" stroke-miterlimit="10" stroke-linecap="round" stroke-linejoin="round"/>
<path d="M130.849 259.69C130.849 259.69 134.366 262.135 131.309 265.192" stroke="#84583A" stroke-width="3" stroke-miterlimit="10" stroke-linecap="round" stroke-linejoin="round"/>
<path d="M25.8551 121.836C25.8551 121.836 24.1129 126.049 29.6459 126.463" stroke="#84583A" stroke-width="3" stroke-miterlimit="10" stroke-linecap="round" stroke-linejoin="round"/>
<path d="M174.1 121.836C174.1 121.836 175.175 126.507 169.901 126.463" stroke="#84583A" stroke-width="3" stroke-miterlimit="10" stroke-linecap="round" stroke-linejoin="round"/>
</svg>
