<svg width="152" height="350" viewBox="0 0 152 350" fill="none" xmlns="http://www.w3.org/2000/svg">
<path d="M35.6528 119.791L20.0562 287.503C20.0562 287.503 74.8084 303.866 127.925 287.503L110.017 122.793L35.6528 119.791Z" fill="#070904"/>
<path d="M146.593 137.517C138.093 130.094 111.079 108.429 102.429 104.489C93.778 100.549 85.1274 98.7313 75.7173 98.6568C54.6553 98.4877 15.7328 119.451 7.4227 125.018C-0.887385 130.585 -2.70857 137.971 4.46327 143.653C11.6351 149.334 34.8535 166.038 44.3018 170.241L34.0576 333.409L16.9839 349.998C16.9839 349.998 54.0907 349.771 53.6354 349.998C53.1801 350.225 66.839 211.601 66.839 211.601L74.5791 212.283L89.3762 349.998H129.747L110.32 336.59L98.7863 177.513C98.7863 177.513 131.872 167.211 142.646 159.03C153.42 150.849 155.092 144.942 146.593 137.517ZM42.14 155.13C41.7976 155.13 24.4982 141.722 16.9858 137.062L44.4165 122.631L45.0995 153.765C45.0995 153.765 42.4824 155.13 42.14 155.13ZM106.831 159.486L103.037 157.063L104.348 124.809L134.735 147.972C127.579 149.789 106.831 159.486 106.831 159.486Z" fill="#AF1414"/>
<path d="M75.7192 98.6568C67.0995 98.5877 55.4894 102.058 44.209 106.565C45.5002 120.449 50.2244 145.969 74.2022 146.911C95.4937 147.747 104.43 119.326 107.264 107.243C105.343 106.02 103.689 105.064 102.431 104.491C93.7781 100.551 85.1275 98.7331 75.7192 98.6568Z" fill="#DD2D54"/>
<path d="M142.648 146.929C143.2 149.468 145.11 152.634 147.062 155.293C153.362 149.236 153.697 144.243 147.519 138.38C144.656 140.853 142.027 144.073 142.648 146.929Z" fill="black"/>
<path d="M10.6116 136.003C10.4294 131.352 7.50097 128.358 5.19716 126.703C-1.13511 132.017 -2.00382 138.526 4.46504 143.653C4.63441 143.787 4.85296 143.955 5.03872 144.1C7.85428 142.589 10.77 140.049 10.6116 136.003Z" fill="black"/>
<path d="M89.378 350H129.746L110.322 336.59L105.792 274.132L81.0825 272.803L89.378 350Z" fill="#4D494A"/>
<path d="M53.6373 349.998C53.3896 350.122 57.3215 309.122 60.9585 271.721L38.0097 270.487L34.0595 333.409L16.9858 349.998C16.9858 349.998 54.0926 349.771 53.6373 349.998Z" fill="#4D494A"/>
<path d="M44.759 238.872C42.7211 238.232 41.1658 238.548 39.9656 239.339L38.8201 257.595C40.0312 258.043 41.561 258.266 43.5078 258.075C51.5884 257.279 50.9055 240.804 44.759 238.872Z" fill="black"/>
<path d="M98.597 252.621C100.436 253.429 102.485 253.594 104.297 253.505L102.937 234.73C101.207 234.274 98.9211 234.287 96.6629 236.146C92.1099 239.895 93.9311 250.576 98.597 252.621Z" fill="black"/>
<path d="M100.76 172.628L44.034 174.516L43.7517 179.026L98.7862 177.513L100.76 172.628Z" fill="#4D494A"/>
<path d="M43.7463 179.104L43.4568 183.702C51.725 197.724 66.839 211.601 66.839 211.601L74.5791 212.283C85.2786 199.215 98.7863 177.513 98.7863 177.513L43.7463 179.104Z" fill="#FC332C"/>
<path d="M70.8802 180.295C73.3515 180.295 75.3548 178.295 75.3548 175.828C75.3548 173.361 73.3515 171.361 70.8802 171.361C68.4089 171.361 66.4055 173.361 66.4055 175.828C66.4055 178.295 68.4089 180.295 70.8802 180.295Z" fill="#FC332C"/>
<path d="M75.7192 106.338C72.7015 106.338 70.2556 103.896 70.2556 100.884V88.9157C70.2556 85.9033 72.7015 83.4617 75.7192 83.4617C78.7369 83.4617 81.1827 85.9033 81.1827 88.9157V100.884C81.1827 103.896 78.7351 106.338 75.7192 106.338Z" fill="#F8B79B"/>
<path d="M122.442 50.2247C121.435 50.2247 120.46 50.3592 119.524 50.5865C119.752 48.7539 119.883 46.8904 119.883 44.996C119.883 20.1455 99.7023 0 74.8085 0C49.9147 0 29.7341 20.1455 29.7341 44.996C29.7341 47.9267 30.0236 50.7882 30.5609 53.5625C24.622 54.4297 20.0581 59.5202 20.0581 65.6906C20.0581 72.4681 25.5617 77.9622 32.3511 77.9622C35.6456 77.9622 38.6324 76.6605 40.8397 74.5534C49.1024 84.0089 61.2516 89.9921 74.8103 89.9921C90.5709 89.9921 104.436 81.9109 112.493 69.6793C114.725 72.7572 118.346 74.768 122.444 74.768C129.233 74.768 134.737 69.2739 134.737 62.4963C134.735 55.7187 129.231 50.2247 122.442 50.2247Z" fill="#F8B79B"/>
<path d="M42.1779 64.9779C42.1779 64.3725 76.7805 51.1536 76.7805 51.1536L108.196 64.9779L110.777 38.9202H39.5991L42.1779 64.9779Z" fill="#DD2D54"/>
<path d="M45.2143 157.819L45.0995 153.766C45.0995 153.766 42.4807 155.13 42.1401 155.13C41.9817 155.13 38.1171 152.203 33.2928 148.618L28.3901 160.782C34.6204 164.922 40.5502 168.572 44.3037 170.243C44.3037 170.243 50.2226 172.288 50.9055 170.848C51.5884 169.409 43.6207 166 43.6207 166C43.6207 166 53.0308 168.65 53.2585 166.076C53.4861 163.5 45.1396 162.136 45.1396 162.136C45.1396 162.136 54.7774 161.986 54.7774 159.713C54.7774 157.441 45.2143 157.819 45.2143 157.819Z" fill="#FC332C"/>
<path d="M74.8086 0C49.9147 0 29.7341 20.1455 29.7341 44.996C29.7341 47.9267 30.0237 50.7883 30.5609 53.5626C30.5609 53.5626 33.2636 54.4861 38.3848 54.4861C38.3848 54.4861 38.3848 66.7577 41.9143 67.3268C45.4437 67.8958 45.4437 53.5644 45.4437 53.5644C45.4437 53.5644 69.2339 43.6925 83.6887 29.6028C83.6887 29.6028 100.877 45.7378 106.454 50.0556C106.454 50.0556 103.266 66.4178 108.275 66.5323C113.283 66.6469 113.511 53.3517 113.511 53.3517L119.526 50.5882C119.754 48.7557 119.885 46.8922 119.885 44.9979C119.883 20.1455 99.7024 0 74.8086 0Z" fill="#6768E6"/>
<path d="M68.585 49.2974C68.585 47.2889 66.9547 45.6614 64.9427 45.6614C62.9306 45.6614 61.3003 47.2889 61.3003 49.2974C61.3003 51.306 62.9306 52.9335 64.9427 52.9335C66.9547 52.9335 68.585 51.306 68.585 49.2974Z" fill="#070904"/>
<path d="M100.608 49.2974C100.608 47.2889 98.9774 45.6614 96.9654 45.6614C94.9533 45.6614 93.323 47.2889 93.323 49.2974C93.323 51.306 94.9533 52.9335 96.9654 52.9335C98.9774 52.9335 100.608 51.306 100.608 49.2974Z" fill="#070904"/>
<path d="M49.6835 38.8673C50.4918 43.5786 64.5248 39.7214 63.9832 37.0431C63.4415 34.3647 49.0569 35.2123 49.6835 38.8673Z" fill="#070904"/>
<path d="M105.471 37.8859C105.911 42.6455 91.3563 42.5455 91.1851 39.8185C91.0139 37.0896 105.128 34.1917 105.471 37.8859Z" fill="#070904"/>
<path d="M76.8574 52.8572L80.1192 55.6606L76.8574 57.175" stroke="#DE7651" stroke-width="3" stroke-miterlimit="10" stroke-linecap="round" stroke-linejoin="round"/>
<path d="M67.979 66.7576L76.1743 67.343" stroke="#DE7651" stroke-width="3" stroke-miterlimit="10" stroke-linecap="round" stroke-linejoin="round"/>
<path d="M106.83 159.486L103.037 157.062L102.658 161.304C102.658 161.304 92.6416 161.38 92.8692 164.409C93.0368 166.647 97.8775 166.24 100.4 165.874C97.597 166.383 91.8785 167.612 92.3392 169.105C92.9457 171.074 101.596 170.241 101.596 170.241C101.596 170.241 93.4775 176.15 95.2987 177.286C97.1199 178.422 98.7899 177.513 98.7899 177.513C98.7899 177.513 110.42 173.892 122.134 169.238L116.261 155.217C111.008 157.533 106.83 159.486 106.83 159.486Z" fill="#FC332C"/>
</svg>
