<svg width="155" height="350" viewBox="0 0 155 350" fill="none" xmlns="http://www.w3.org/2000/svg">
<path d="M84.965 93.6376C84.965 93.6376 64.8778 110.607 50.0599 94.5108C50.0599 94.5108 34.2909 91.3064 39.6397 75.1729L38.4742 60.3291C38.4742 60.3291 23.8856 36.0494 45.1828 29.1834C45.1828 29.1834 47.6065 7.74 68.9796 12.4431C68.9796 12.4431 72.7392 2.26166 82.2879 4.406C82.2879 4.406 105.678 -10.9578 110.877 15.6939C110.877 15.6939 127.234 21.7476 121.682 36.8486C121.682 36.8486 140.638 41.1318 132.466 54.8803C132.466 54.8803 147.432 64.825 135.182 71.9703C135.182 71.9703 147.61 93.0603 124.312 98.2463C124.312 98.2463 116.368 112.117 103.661 100.159C103.661 100.159 79.8549 110.652 77.3738 93.4544" fill="black"/>
<path d="M107.833 185.84C107.833 185.84 132.503 176.107 154.07 156.869C154.07 156.869 123.652 116.295 106.397 108.67C89.1425 101.046 87.8585 101.062 76.0063 101.26C53.1845 101.641 19.7336 123.44 0.00341797 138.108C0.00341797 138.108 10.6585 160.497 50.5518 182.543L50.598 186.092C50.598 186.092 24.4977 212.287 9.88145 241.301C9.88145 241.301 40.3425 274.163 71.8305 293.64C71.8305 293.64 82.5929 315.417 83.8029 318.146C83.1757 314.782 85.9139 282.04 85.9139 282.04L38.1445 240.161L67.4252 210.825L84.6614 212.124L88.0324 348.818L126.56 349.998L109.757 334.549C109.757 334.549 110.072 223.547 107.833 185.84ZM131.469 154.48C125.807 158.008 115.106 164.932 115.106 164.932L110.541 162.895L109.901 133.46L131.469 154.48ZM44.622 164.623C44.1742 164.145 31.0695 148.782 23.4135 141.916L48.8089 129.908L49.8987 163.551C49.8987 163.551 45.0697 165.1 44.622 164.623Z" fill="#DD2D54"/>
<path d="M38.3669 175.239L44.2781 170.786C44.2781 170.786 44.3096 168.011 44.3521 164.319C42.4169 162.099 30.5518 148.319 23.412 141.916L48.8073 129.908C48.8073 129.908 49.6436 126.804 48.5502 108.593C31.0088 116.332 12.6755 128.689 0 138.11C0.00370033 138.108 8.44971 155.814 38.3669 175.239Z" fill="#F8B79B"/>
<path d="M108.41 109.684C108.793 116.433 109.501 128.646 109.899 133.456L131.468 154.478C127.335 157.053 120.534 161.427 117.154 163.607L118.234 168.571L122.432 178.798C131.35 173.96 143.108 166.645 154.07 156.866C154.07 156.87 125.909 119.314 108.41 109.684Z" fill="#F8B79B"/>
<path d="M50.5322 172.478L50.2903 180.38L109.357 182.189L109.599 174.287L50.5322 172.478Z" fill="#3F2E41"/>
<path d="M39.0427 134.526L48.8115 129.908C48.8115 129.908 49.6478 126.804 48.5544 108.593C40.8891 111.975 33.0722 116.239 25.6438 120.754L39.0427 134.526Z" fill="#6768E6"/>
<path d="M108.41 109.684C108.793 116.433 109.501 128.646 109.899 133.456L114.821 138.252L133 131.499C124.823 122.539 115.694 113.693 108.41 109.684Z" fill="#6768E6"/>
<path d="M88.0323 348.819L126.56 349.999L109.757 334.551C109.757 334.551 109.94 269.799 109.03 222.405L84.8962 221.665L88.0323 348.819Z" fill="#F8B79B"/>
<path d="M71.8292 293.64C71.8292 293.64 82.5916 315.417 83.8016 318.146C83.1744 314.782 85.9126 282.04 85.9126 282.04L38.1432 240.161L57.4441 220.823L22.8757 219.765C18.2096 226.487 13.66 233.797 9.88013 241.301C9.88013 241.301 40.3412 274.165 71.8292 293.64Z" fill="#F8B79B"/>
<path d="M109.373 182.186L51.3519 180.408L48.8024 181.552C49.3871 181.883 49.9569 182.212 50.5545 182.543L50.6008 186.092C50.6008 186.092 33.8827 202.88 19.7104 224.457C52.9227 242.159 100.812 246.446 109.395 246.62C109.118 222.588 108.642 199.443 107.836 185.838C107.836 185.838 109.24 185.283 111.651 184.188C110.224 182.91 109.373 182.186 109.373 182.186Z" fill="#6768E6"/>
<path d="M83.8014 318.146C83.1742 314.782 85.9125 282.04 85.9125 282.04L68.2971 266.597C65.3461 271.302 61.6439 277.696 58.5042 284.617C62.8687 287.807 67.3369 290.861 71.8291 293.64C71.8291 293.64 82.5914 315.417 83.8014 318.146Z" fill="#F26868"/>
<path d="M87.335 320.549L88.0325 348.819L126.56 350L109.757 334.551C109.757 334.551 109.772 329.211 109.772 320.481C98.5655 319.172 90.3766 320.083 87.335 320.549Z" fill="#F26868"/>
<path d="M105.036 262.974C105.036 262.974 109.221 266.11 105.647 269.471" stroke="#DE7651" stroke-width="3" stroke-miterlimit="10" stroke-linecap="round" stroke-linejoin="round"/>
<path d="M148.206 156.706L148.33 152.661L128.996 152.069L131.471 154.482C130.692 154.967 129.803 155.529 128.874 156.116L148.206 156.706Z" fill="#3F2E41"/>
<path d="M8.44528 136.029L7.5979 140.419L25.5112 143.879C24.7841 143.178 24.0736 142.506 23.4149 141.916L27.9127 139.788L8.44528 136.029Z" fill="#3F2E41"/>
<path d="M15.3243 238.245C15.3243 238.245 12.1864 242.495 16.427 243.806" stroke="#DE7651" stroke-width="3" stroke-miterlimit="10" stroke-linecap="round" stroke-linejoin="round"/>
<path d="M4.24584 144.724C8.38836 143.784 11.3505 141.373 11.4393 138.458C11.5077 136.23 9.8796 134.198 7.29122 132.829C4.70839 134.654 2.26247 136.428 0.00341797 138.108C0.00341797 138.108 1.18937 140.594 4.24584 144.724Z" fill="#F26868"/>
<path d="M57.011 183.204C58.604 181.556 50.8129 176.536 50.8129 176.536C50.8129 176.536 59.9583 180.133 60.5892 177.145C60.9167 175.594 58.2747 174.166 55.6548 173.145C58.9611 174.005 62.8002 174.543 63.1221 172.518C63.6956 168.91 50.5595 167.196 50.5595 167.196L49.899 163.552C49.899 163.552 45.0701 165.1 44.6223 164.625C44.4354 164.425 42.0321 161.622 38.7536 157.938L30.4648 169.809C36.1504 173.957 42.7907 178.257 50.5521 182.545C50.5521 182.545 55.418 184.853 57.011 183.204Z" fill="#6768E6"/>
<path d="M115.106 164.932L110.542 162.895L110.403 167.411C110.403 167.411 98.2862 170.203 99.2113 172.699C100.138 175.195 109.844 173.024 109.844 173.024C109.844 173.024 97.9439 177.441 98.9337 179.785C99.9236 182.129 109.459 178.025 109.459 178.025C109.459 178.025 100.499 183.524 102.066 185.235C103.633 186.947 107.831 185.842 107.831 185.842C107.831 185.842 115.585 182.782 126.198 176.704L118.851 162.517C116.642 163.938 115.106 164.932 115.106 164.932Z" fill="#6768E6"/>
<path d="M147.252 148.173C143.483 149.598 140.88 152.417 140.778 155.746C140.682 158.887 142.838 161.714 146.17 163.413C148.816 161.368 151.465 159.195 154.07 156.871C154.07 156.871 151.421 153.337 147.252 148.173Z" fill="#F26868"/>
<path d="M86.3669 177.528C86.502 173.145 83.057 169.481 78.6721 169.346C74.2872 169.211 70.6257 172.656 70.4907 177.041C70.3556 181.424 73.8006 185.087 78.1855 185.223C82.5704 185.358 86.2337 181.911 86.3669 177.528Z" fill="#EBBD72"/>
<path d="M105.607 138.208C105.607 131.416 93.9753 125.91 79.6273 125.912C65.2793 125.912 53.6473 131.42 53.6492 138.212C53.6492 145.004 65.2812 150.51 79.6292 150.508C93.9772 150.506 105.607 145 105.607 138.208Z" fill="#FBC30C"/>
<path d="M76.0067 101.262C70.6153 101.353 64.6282 102.648 58.3728 104.751C61.0204 110.914 66.7874 118.555 79.1409 118.842C90.2012 119.099 96.5528 112.328 100.076 105.926C88.6063 101.068 86.2104 101.092 76.0067 101.262Z" fill="#FBC30C"/>
<path d="M78.2046 106.627C76.2897 106.568 74.7855 104.97 74.8429 103.053L75.126 93.8058C75.1852 91.8909 76.7856 90.3867 78.7005 90.4441C80.6154 90.5033 82.1196 92.1037 82.0622 94.0186L81.7791 103.266C81.7199 105.181 80.1196 106.685 78.2046 106.627Z" fill="#F8B79B"/>
<path d="M41.1406 78.1919C46.5051 78.1919 50.854 73.843 50.854 68.4785C50.854 63.114 46.5051 58.7651 41.1406 58.7651C35.7761 58.7651 31.4272 63.114 31.4272 68.4785C31.4272 73.843 35.7761 78.1919 41.1406 78.1919Z" fill="#F8B79B"/>
<path d="M119.615 61.1653C117.977 61.1154 116.445 61.5131 115.071 62.1866C115.095 61.7981 115.152 61.4206 115.165 61.0284C115.765 41.4537 100.382 25.0982 80.8057 24.4969C61.2292 23.8975 44.8756 39.2797 44.2743 58.8563C43.6748 78.4329 59.0571 94.7865 78.6337 95.3878C92.7356 95.8189 105.13 87.9353 111.204 76.1886C112.884 78.7474 115.729 80.4829 119.021 80.5828C124.383 80.7474 128.864 76.5328 129.027 71.171C129.189 65.8092 124.977 61.3281 119.615 61.1653Z" fill="#F8B79B"/>
<path d="M45.6243 50.3215L114.82 55.1449L116.421 45.0171C116.421 45.0171 103.222 22.7078 79.5748 21.6754C55.9279 20.643 44.5993 38.9448 45.6243 50.3215Z" fill="black"/>
<path d="M115.07 62.1844C115.094 61.7959 115.152 61.4185 115.165 61.0262C115.226 59.0225 115.079 57.065 114.819 55.1427C97.0736 51.7884 58.8548 50.6283 45.6225 50.3193C44.8546 53.0465 44.3643 55.8939 44.2737 58.8541C72.9346 66.4121 115.07 62.1844 115.07 62.1844Z" fill="#6768E6"/>
<path d="M62.1621 56.3328C62.2237 54.2887 60.6182 52.5853 58.5777 52.52C56.5336 52.4584 54.8301 54.064 54.7649 56.1045C54.7033 58.1486 56.3089 59.852 58.3493 59.9173C60.3935 59.9789 62.1005 58.3769 62.1621 56.3328Z" fill="white"/>
<path d="M91.6712 57.2376C91.7328 55.1935 90.1272 53.49 88.0867 53.4248C86.0462 53.3632 84.3392 54.9688 84.2739 57.0093C84.2123 59.0534 85.8179 60.7568 87.8584 60.822C89.9025 60.8836 91.6095 59.2781 91.6712 57.2376Z" fill="white"/>
<path d="M72.1751 63.0137C72.1751 63.0137 68.2879 63.3837 68.2342 65.1747C68.1787 66.9656 72.0437 67.3153 72.0437 67.3153" stroke="#DE7651" stroke-width="3" stroke-miterlimit="10" stroke-linecap="round" stroke-linejoin="round"/>
<path d="M77.9973 73.1099L92.2454 68.7454C92.2454 68.7454 93.6034 75.3819 87.3425 77.7353C81.0797 80.0869 77.9973 73.1099 77.9973 73.1099Z" fill="#F6F8F7"/>
</svg>
