<svg width="204" height="350" viewBox="0 0 204 350" fill="none" xmlns="http://www.w3.org/2000/svg">
<path d="M56.1359 109.17L39.3447 233.952C39.3447 233.952 88.7305 260.29 143.385 231.318C143.385 231.318 176.967 227.038 193.594 208.601L125.661 107.524L56.1359 109.17Z" fill="#3BC493"/>
<path d="M122.971 124.068C122.971 124.068 183.221 51.0133 193.592 38.8961L182.727 32.3811L120.007 97.9692C120.007 97.9692 102.774 95.8357 87.1916 95.8357C87.1916 95.8357 67.3286 97.4813 56.1358 102.256C44.941 107.03 19.0965 126.785 18.1088 138.307C17.1211 149.83 38.6869 169.75 65.5191 179.627L28.8907 331.982L0 350H43.5958L85.6843 205.061L98.5246 206.542L103.71 350H148.898L123.958 330.253L122.971 124.068ZM59.5098 161.477C59.5098 161.477 42.4718 148.266 34.817 140.303L60.1775 118.281L63.8321 160.487L59.5098 161.477Z" fill="#070904"/>
<path d="M53.546 315.74L34.3606 309.233L28.8907 331.982L0 350H43.5958L53.546 315.74Z" fill="#FCF080"/>
<path d="M33.1023 314.47C39.3249 316.382 48.2163 319.104 52.2264 320.286L53.546 315.74L34.3606 309.233L33.1023 314.47Z" fill="#5EB5AD"/>
<path d="M123.958 330.253L123.867 311.349C117.109 312.285 108.302 313.512 102.421 314.353L103.709 350H148.897L123.958 330.253Z" fill="#FCF080"/>
<path d="M123.867 311.349C117.109 312.285 108.302 313.512 102.421 314.353L102.613 319.653L123.89 316.107L123.867 311.349Z" fill="#5EB5AD"/>
<path d="M123.168 165.306H59.2628L56.1357 172.714L123.21 173.962L123.168 165.306Z" fill="#43827A"/>
<path d="M123.209 173.962L105.928 173.64L105.316 165.306H100.249V173.533L87.1696 173.291L85.6841 165.306H80.7455L81.2453 173.18L64.2112 172.864L65.5189 179.628L85.6841 205.061L98.5244 206.543L123.209 179.134V173.962Z" fill="#FCF080"/>
<path d="M91.6935 141.107C97.4213 141.107 102.065 136.463 102.065 130.736C102.065 125.008 97.4213 120.365 91.6935 120.365C85.9658 120.365 81.3225 125.008 81.3225 130.736C81.3225 136.463 85.9658 141.107 91.6935 141.107Z" fill="#FBC30C"/>
<path d="M64.2015 167.199C64.2015 167.199 72.4331 167.609 72.5141 165.553C72.5971 163.495 64.2015 163.331 64.2015 163.331L63.8301 160.49L59.5079 161.478C59.5079 161.478 58.212 160.472 56.2109 158.878C52.5741 162.851 49.4964 167.438 47.3293 171.019C52.9297 174.296 59.0693 177.253 65.5171 179.628C65.5171 179.628 69.551 179.711 70.2918 178.393C71.0326 177.076 64.2114 172.864 64.2114 172.864C64.2114 172.864 72.2672 174.278 73.008 172.22C73.7507 170.162 64.2015 167.199 64.2015 167.199Z" fill="#5EB5AD"/>
<path d="M182.727 32.3811L171.536 44.0835L181.84 52.9157C187.215 46.456 191.465 41.3811 193.592 38.8941L182.727 32.3811Z" fill="#3BC493"/>
<path d="M46.8016 63.3777C46.8016 63.3777 41.5726 77.824 56.7578 77.9464C56.7578 77.9464 59.1046 92.6396 71.0796 85.2318C71.0796 85.2318 77.7467 93.7518 85.0321 88.1949L97.9968 86.9603C97.9968 86.9603 111.825 92.8865 117.504 80.5401C117.504 80.5401 126.854 81.9565 127.381 72.7609C127.381 72.7609 136.903 72.3896 132.697 60.1676L98.3682 55.7229L47.3764 59.3043L46.8016 63.3777Z" fill="black"/>
<path d="M90.4651 103.874C86.2377 103.874 82.8103 100.447 82.8103 96.2192V66.8347C82.8103 62.6073 86.2377 59.1799 90.4651 59.1799C94.6925 59.1799 98.1199 62.6073 98.1199 66.8347V96.2192C98.1199 100.447 94.6925 103.874 90.4651 103.874Z" fill="#BA7948"/>
<path d="M132.696 37.5943C129.978 16.3901 111.875 0 89.9316 0C66.1119 0 46.802 19.3098 46.802 43.1295C46.802 43.1828 46.806 43.2361 46.806 43.2895C45.5891 42.8727 44.2893 42.6356 42.9302 42.6356C36.3164 42.6356 30.9531 47.9969 30.9531 54.6126C30.9531 61.2263 36.3145 66.5896 42.9302 66.5896C46.3398 66.5896 49.4076 65.1594 51.5885 62.8718C58.7534 76.7591 73.2274 86.2609 89.9316 86.2609C107.294 86.2609 122.25 75.9966 129.089 61.2105C129.916 61.3922 130.774 61.493 131.657 61.493C138.27 61.493 143.634 56.1317 143.634 49.516C143.632 43.2539 138.822 38.1218 132.696 37.5943Z" fill="#BA7948"/>
<path d="M180.752 26.5318C177.915 30.6979 179.084 35.4824 186.617 40.421C194.149 45.3595 197.42 44.5575 199.951 41.8413C202.481 39.1251 205.136 34.0621 202.42 28.6929C199.704 23.3217 194.827 19.6178 188.715 20.6055C183.742 21.4095 182.727 23.6299 180.752 26.5318Z" fill="#5EB5AD"/>
<path d="M132.696 37.5943C129.978 16.3901 111.875 0 89.9321 0C66.1123 0 46.8025 19.3098 46.8025 43.1295C46.8025 43.1828 46.8064 43.2361 46.8064 43.2895C46.8064 43.2895 100.356 67.3699 132.696 37.5943Z" fill="#3BC493"/>
<path d="M70.4491 47.8387C72.6311 47.8387 74.4 46.0698 74.4 43.8878C74.4 41.7059 72.6311 39.937 70.4491 39.937C68.2671 39.937 66.4983 41.7059 66.4983 43.8878C66.4983 46.0698 68.2671 47.8387 70.4491 47.8387Z" fill="black"/>
<path d="M109.213 45.6165C111.395 45.6165 113.164 43.8477 113.164 41.6657C113.164 39.4837 111.395 37.7148 109.213 37.7148C107.031 37.7148 105.262 39.4837 105.262 41.6657C105.262 43.8477 107.031 45.6165 109.213 45.6165Z" fill="black"/>
<path d="M62.7911 36.0558C62.9353 39.6609 78.5116 38.4678 78.1007 35.2873C77.6898 32.1049 62.6272 31.939 62.7911 36.0558Z" fill="black"/>
<path d="M101.557 34.329C101.701 37.9341 117.278 36.741 116.867 33.5605C116.454 30.3781 101.391 30.2122 101.557 34.329Z" fill="black"/>
<path d="M91.3291 66.5876L108.614 59.3022C108.614 59.3022 111.455 69.7977 104.786 72.7608C98.1167 75.7239 92.5637 69.9221 91.3291 66.5876Z" fill="#F6F8F7"/>
<path d="M88.4895 53.3364C88.4895 53.3364 83.304 55.4759 88.9833 58.1111" stroke="#84583A" stroke-width="3" stroke-miterlimit="10" stroke-linecap="round" stroke-linejoin="round"/>
<path d="M183.035 26.5318C182.788 26.3461 179.7 22.3953 177.602 24.8646C175.504 27.3339 175.133 33.0744 177.602 37.5823C180.072 42.0883 185.751 33.3233 185.751 33.1376C185.751 32.952 183.035 26.5318 183.035 26.5318Z" fill="#5EB5AD"/>
</svg>
