
<svg width="140" height="140" viewBox="0 0 140 140" fill="none" xmlns="http://www.w3.org/2000/svg">
<mask id="mask0_57268_1904" style="mask-type:alpha" maskUnits="userSpaceOnUse" x="14" y="14" width="112" height="112">
<path d="M14 70C14 84.8521 19.9 99.0959 30.402 109.598C40.9041 120.1 55.1479 126 70 126C84.8521 126 99.0959 120.1 109.598 109.598C120.1 99.0959 126 84.8521 126 70C126 55.1479 120.1 40.9041 109.598 30.402C99.0959 19.9 84.8521 14 70 14C55.1479 14 40.9041 19.9 30.402 30.402C19.9 40.9041 14 55.1479 14 70Z" fill="#E8F4FA"/>
</mask>
<g mask="url(#mask0_57268_1904)">
<path d="M196.968 73.2236C265.958 110.827 135.3 133.661 118.329 134.5C101.358 135.339 90.2066 118.907 73.2485 104.161C73.2485 104.161 56.8739 103.258 56.5028 99.732C56.1318 96.2058 67.8089 97.1805 67.8089 97.1805C67.8089 97.1805 55.5349 90.7758 58.5386 86.1063C61.5423 81.4369 78.1167 94.7036 75.8587 93.4729C75.5929 93.328 64.2284 76.7157 68.8058 74.6246C73.386 72.5351 82.6157 86.647 82.6157 86.647C82.6157 86.647 82.4215 74.434 86.3664 74.9773C90.3114 75.5206 92.1753 94.0619 92.1753 94.0619L118.329 108.504C213.156 100.046 160.609 73.4496 196.968 73.2236Z" fill="#EAA78A"/>
<path d="M50.5 46.5C50.8372 50.941 55.7547 63.6119 53.1161 64.4263C50.4775 65.2407 38.1695 52.398 40.1828 39.0489C38.5541 33.7717 44.3614 42.8144 47 42C49.6386 41.1856 52.5043 39.8869 50.5 46.5Z" fill="#6768E6"/>
<path d="M54.4883 72.4048C52.2617 70.2998 51 67.2927 51 64.1353V63.7594C51 58.497 54.7109 53.9863 59.832 53.1593C63.2461 52.5579 66.6602 53.6856 69.1094 56.0913L70 56.9934L70.8906 56.0913C73.2656 53.6856 76.7539 52.5579 80.0938 53.1593C85.2148 53.9863 89 58.497 89 63.7594V64.1353C89 67.2927 87.6641 70.2998 85.4375 72.4048L72.0039 87.2482C71.4844 87.7745 70.7422 88 70 88C69.1836 88 68.4414 87.7745 67.9219 87.2482L54.4883 72.4048Z" fill="#DD2D54"/>
<path d="M36.4999 8.5C36.4999 8.5 36.9652 17.9511 54.9825 31.3825C54.9825 31.3825 76.3787 32.0536 77.0135 35.542C77.6482 39.0303 65.9308 39.9351 65.9308 39.9351C65.9308 39.9351 79.3775 43.5318 76.7328 48.4136C74.0882 53.2954 58.2846 44.9568 58.5606 45.0813C58.8366 45.2059 66.9413 57.9087 63.5 61.4999C59.6635 63.0216 48.528 47.6423 48.528 47.6423C43.3938 40.0907 43.0889 53.892 41.8674 44.8742L14.703 32.436L36.4999 8.5Z" fill="#6768E6"/>
</g>
</svg>
