<svg width="140" height="140" viewBox="0 0 140 140" fill="none" xmlns="http://www.w3.org/2000/svg">
<g clip-path="url(#clip0_48758_514294)">
<mask id="mask0_48758_514294" style="mask-type:alpha" maskUnits="userSpaceOnUse" x="0" y="0" width="140" height="140">
<circle cx="70" cy="70" r="70" transform="matrix(-1 0 0 1 140 0)" fill="#D9D9D9"/>
</mask>
<g mask="url(#mask0_48758_514294)">
<circle cx="70" cy="70" r="70" transform="matrix(-1 0 0 1 140 0)" fill="#6FF6F7"/>
<path d="M89.6094 11C95.0108 11 99.7452 13.8526 102.391 18.1328C103.915 17.2917 105.667 16.8125 107.531 16.8125C113.417 16.8125 118.188 21.5835 118.188 27.4688C118.188 28.132 118.123 28.7804 118.007 29.4102C118.067 29.4087 118.127 29.4062 118.188 29.4062C121.797 29.4062 124.747 31.9767 124.956 35.2188H140.469V42H62V35.2188H62.1465C62.0522 34.8023 62 34.3747 62 33.9375C62 29.83 66.3372 26.5 71.6875 26.5C72.7083 26.5 73.6923 26.621 74.6162 26.8457C74.6012 26.5709 74.5938 26.2942 74.5938 26.0156C74.5938 17.7227 81.3165 11 89.6094 11Z" fill="white"/>
<path d="M102.812 103C106.297 103 109.351 104.841 111.058 107.603C112.041 107.06 113.172 106.75 114.375 106.75C118.172 106.75 121.25 109.828 121.25 113.625C121.25 114.053 121.209 114.471 121.134 114.877C121.172 114.876 121.211 114.875 121.25 114.875C123.579 114.875 125.481 116.533 125.616 118.625H135.625V123H85V118.625H85.0947C85.0339 118.356 85 118.08 85 117.798C85.0003 115.148 87.7984 113 91.25 113C91.9087 113 92.5435 113.079 93.1396 113.224C93.13 113.046 93.125 112.867 93.125 112.688C93.125 107.337 97.4622 103 102.812 103Z" fill="white"/>
<path d="M40.6415 140.438V195.792" stroke="#003737" stroke-width="5" stroke-linecap="round"/>
<path d="M67.0698 140.438V195.792" stroke="#003737" stroke-width="5" stroke-linecap="round"/>
<path d="M33.4581 19.1436C47.4639 18.8641 59.1604 23.0526 67.3624 31.0723C75.565 39.0926 80.0068 50.6845 80.007 64.6963C80.007 74.5383 76.9273 80.572 71.17 82.9004C65.8328 85.0588 59.1926 83.5214 53.2911 81.1348C47.2387 78.687 41.2542 75.0486 36.8282 72.0654C34.6043 70.5665 32.7506 69.2168 31.4503 68.2402C30.7998 67.7517 30.2864 67.3558 29.9337 67.0801C29.7574 66.9422 29.6209 66.8341 29.5275 66.7598L29.3907 66.6504C29.3874 66.6477 29.3849 66.6452 29.3829 66.6436C29.3819 66.6427 29.3805 66.642 29.38 66.6416L30.9513 64.6963L29.379 66.6406L28.4679 65.9043L28.4513 64.7334L27.8253 21.7432L27.7892 19.2568L30.2755 19.207L33.4581 19.1436Z" fill="#003737" stroke="#003737" stroke-width="5"/>
<path d="M79.1431 101.223C79.1431 101.223 82.6286 103.921 91.3888 94.507C100.149 85.0932 95.7689 67.5208 95.7689 67.5208" stroke="#003737" stroke-width="5" stroke-linecap="round"/>
<path d="M54.1561 33.7275C68.391 33.7275 79.9313 45.2671 79.9315 59.502V155.967H28.3817V59.502C28.3819 45.2672 39.9214 33.7278 54.1561 33.7275Z" fill="white" stroke="#003737" stroke-width="5"/>
<path d="M47.2748 66.5009C49.152 64.932 53.2192 64.932 54.7836 66.5009" stroke="#003737" stroke-width="3" stroke-linecap="round" stroke-linejoin="round"/>
<path d="M55.0964 66.2657C54.575 64.1738 52.5935 62.1864 48.5262 62.814" stroke="#003737" stroke-width="3" stroke-linecap="round" stroke-linejoin="round"/>
<ellipse cx="66.0919" cy="65.3645" rx="3.17384" ry="3.17818" fill="#003737"/>
<ellipse cx="43.9906" cy="75.8009" rx="5.44121" ry="5.45687" fill="#E26952" fill-opacity="0.5"/>
<ellipse cx="71.1579" cy="75.8009" rx="5.44121" ry="5.45687" fill="#E26952" fill-opacity="0.5"/>
<path d="M54.1134 84.2471C54.1134 84.2471 63.1505 85.8062 65.2995 80.7559" stroke="#003737" stroke-width="5" stroke-linecap="round"/>
<path fill-rule="evenodd" clip-rule="evenodd" d="M32.4802 86.3721L55.7997 101.747L77.5645 91.8289V134.704H32.4802V86.3721Z" fill="#60DD9B"/>
<path d="M31.3142 92.9976L52.9055 106.93C53.7358 107.466 54.8021 107.469 55.636 106.939L77.5645 92.9976" stroke="#003737" stroke-width="5" stroke-linecap="square"/>
<path d="M82.3154 69.717H68.5498L68.3242 69.7122C66.01 69.5945 64.17 67.6748 64.1699 65.3245C64.1699 62.8982 66.1307 60.9309 68.5498 60.9309H82.3154V69.717Z" fill="#A39117"/>
<path d="M82.3154 69.717V70.717H83.3154V69.717H82.3154ZM68.5498 69.717L68.5282 70.7168L68.539 70.717H68.5498V69.717ZM68.3242 69.7122L68.2734 70.7109L68.288 70.7116L68.3026 70.7119L68.3242 69.7122ZM64.1699 65.3245H63.1699V65.3245L64.1699 65.3245ZM82.3154 60.9309H83.3154V59.9309H82.3154V60.9309ZM82.3154 69.717V68.717H68.5498V69.717V70.717H82.3154V69.717ZM68.5498 69.717L68.5714 68.7173L68.3459 68.7124L68.3242 69.7122L68.3026 70.7119L68.5282 70.7168L68.5498 69.717ZM68.3242 69.7122L68.375 68.7134C66.5927 68.6228 65.17 67.1424 65.1699 65.3244L64.1699 65.3245L63.1699 65.3245C63.17 68.2073 65.4272 70.5661 68.2734 70.7109L68.3242 69.7122ZM64.1699 65.3245H65.1699C65.1699 63.4475 66.686 61.9309 68.5498 61.9309V60.9309V59.9309C65.5755 59.9309 63.1699 62.3489 63.1699 65.3245H64.1699ZM68.5498 60.9309V61.9309H82.3154V60.9309V59.9309H68.5498V60.9309ZM82.3154 60.9309H81.3154V69.717H82.3154H83.3154V60.9309H82.3154Z" fill="#877700"/>
<path d="M99.8359 71.5999H79.8125V71.5686C76.6507 71.2535 74.1817 68.5785 74.1816 65.3245C74.1816 62.0703 76.6506 59.3944 79.8125 59.0793V59.0481H99.8359V71.5999Z" fill="#BFAC34"/>
<path d="M99.8359 71.5999V72.5999H100.836V71.5999H99.8359ZM79.8125 71.5999H78.8125V72.5999H79.8125V71.5999ZM79.8125 71.5686H80.8125V70.6633L79.9117 70.5735L79.8125 71.5686ZM74.1816 65.3245H73.1816V65.3245L74.1816 65.3245ZM79.8125 59.0793L79.9116 60.0744L80.8125 59.9847V59.0793H79.8125ZM79.8125 59.0481V58.0481H78.8125V59.0481H79.8125ZM99.8359 59.0481H100.836V58.0481H99.8359V59.0481ZM99.8359 71.5999V70.5999H79.8125V71.5999V72.5999H99.8359V71.5999ZM79.8125 71.5999H80.8125V71.5686H79.8125H78.8125V71.5999H79.8125ZM79.8125 71.5686L79.9117 70.5735C77.2584 70.3091 75.1817 68.0618 75.1816 65.3245L74.1816 65.3245L73.1816 65.3245C73.1817 69.0952 76.043 72.1979 79.7133 72.5637L79.8125 71.5686ZM74.1816 65.3245H75.1816C75.1816 62.5868 77.2586 60.3388 79.9116 60.0744L79.8125 59.0793L79.7134 58.0843C76.0427 58.45 73.1816 61.5538 73.1816 65.3245H74.1816ZM79.8125 59.0793H80.8125V59.0481H79.8125H78.8125V59.0793H79.8125ZM79.8125 59.0481V60.0481H99.8359V59.0481V58.0481H79.8125V59.0481ZM99.8359 59.0481H98.8359V71.5999H99.8359H100.836V59.0481H99.8359Z" fill="#877700"/>
<mask id="path-22-inside-1_48758_514294" fill="white">
<path d="M124.24 73.4827H96.708V73.4299C92.4844 72.9618 89.1994 69.3719 89.1992 65.011C89.1992 60.6499 92.4842 57.0592 96.708 56.5911V56.5383H124.24V73.4827Z"/>
</mask>
<path d="M124.24 73.4827H96.708V73.4299C92.4844 72.9618 89.1994 69.3719 89.1992 65.011C89.1992 60.6499 92.4842 57.0592 96.708 56.5911V56.5383H124.24V73.4827Z" fill="#DCC74D"/>
<path d="M124.24 73.4827V75.4827H126.24V73.4827H124.24ZM96.708 73.4827H94.708V75.4827H96.708V73.4827ZM96.708 73.4299H98.708V71.6394L96.9283 71.4421L96.708 73.4299ZM89.1992 65.011H87.1992V65.0111L89.1992 65.011ZM96.708 56.5911L96.9283 58.5789L98.708 58.3816V56.5911H96.708ZM96.708 56.5383V54.5383H94.708V56.5383H96.708ZM124.24 56.5383H126.24V54.5383H124.24V56.5383ZM124.24 73.4827V71.4827H96.708V73.4827V75.4827H124.24V73.4827ZM96.708 73.4827H98.708V73.4299H96.708H94.708V73.4827H96.708ZM96.708 73.4299L96.9283 71.4421C93.7109 71.0855 91.1994 68.3456 91.1992 65.0109L89.1992 65.011L87.1992 65.0111C87.1995 70.3982 91.2579 74.8381 96.4877 75.4178L96.708 73.4299ZM89.1992 65.011H91.1992C91.1992 61.676 93.7109 58.9355 96.9283 58.5789L96.708 56.5911L96.4877 54.6032C91.2575 55.1829 87.1992 59.6239 87.1992 65.011H89.1992ZM96.708 56.5911H98.708V56.5383H96.708H94.708V56.5911H96.708ZM96.708 56.5383V58.5383H124.24V56.5383V54.5383H96.708V56.5383ZM124.24 56.5383H122.24V73.4827H124.24H126.24V56.5383H124.24Z" fill="#877700" mask="url(#path-22-inside-1_48758_514294)"/>
<path d="M124.552 57.5381C128.663 57.5381 132 60.881 132 65.0107C132 69.1403 128.663 72.4834 124.552 72.4834C120.442 72.4833 117.105 69.1403 117.105 65.0107C117.105 60.8811 120.442 57.5381 124.552 57.5381Z" fill="#DCC74D" stroke="#877700" stroke-width="2"/>
<ellipse cx="124.553" cy="65.0106" rx="6.57018" ry="6.58966" fill="#55E1E2" stroke="#877700" stroke-width="2"/>
<path d="M123.465 61.1917C122.054 61.1917 121.384 61.7158 121.035 62.05C120.474 62.5879 120.115 63.6289 120.115 64.4246" stroke="#E2FFFE" stroke-width="2" stroke-linecap="round"/>
<path d="M30.5365 138.602H77.959" stroke="#003737" stroke-width="5" stroke-linecap="square"/>
<path d="M29.4415 93.2518C29.4415 93.2518 47.2748 102.352 62.2924 93.2518C77.3099 84.1518 73.8684 66.2656 73.8684 66.2656" stroke="#003737" stroke-width="5" stroke-linecap="round"/>
</g>
</g>
<defs>
<clipPath id="clip0_48758_514294">
<rect width="140" height="140" fill="white" transform="matrix(-1 0 0 1 140 0)"/>
</clipPath>
</defs>
</svg>
