<svg width="140" height="140" viewBox="0 0 140 140" fill="none" xmlns="http://www.w3.org/2000/svg">
<g clip-path="url(#clip0_48758_515026)">
<mask id="mask0_48758_515026" style="mask-type:alpha" maskUnits="userSpaceOnUse" x="0" y="0" width="140" height="140">
<circle cx="70" cy="70" r="70" transform="matrix(-1 0 0 1 140 0)" fill="#D9D9D9"/>
</mask>
<g mask="url(#mask0_48758_515026)">
<circle cx="70" cy="70" r="70" transform="matrix(-1 0 0 1 140 0)" fill="#AEFFFF"/>
<path d="M49.8376 18.3259C66.6604 17.9913 80.7456 23.0199 90.6355 32.6902C100.527 42.3617 105.861 56.3231 105.861 73.1541C105.861 84.9876 102.14 92.4009 95.0291 95.2683C88.488 97.9058 80.409 96.0161 73.323 93.1589C66.0334 90.2196 58.8357 85.8544 53.5212 82.283C50.8492 80.4873 48.622 78.8711 47.0593 77.7009C46.2776 77.1155 45.6605 76.6412 45.2361 76.3103C45.0238 76.1449 44.8597 76.0151 44.7468 75.9255C44.6904 75.8808 44.6463 75.8463 44.616 75.822C44.6009 75.81 44.5892 75.8005 44.5808 75.7937C44.5766 75.7903 44.5736 75.787 44.571 75.7849C44.5698 75.7839 44.5678 75.7835 44.5671 75.783C44.5664 75.7817 44.5921 75.7485 46.6843 73.1541L44.5662 75.781L43.3328 74.7869L43.3093 73.2029L42.5593 21.8279L42.5105 18.4714L45.8669 18.405L49.8376 18.3259Z" fill="#003737" stroke="#003737" stroke-width="6.75"/>
<path d="M43.7585 127.047C43.7585 127.047 29.4337 128.654 26.4337 112.529C23.4338 96.404 28.6838 89.654 28.6838 89.654" stroke="#003737" stroke-width="7" stroke-linecap="round"/>
<path d="M104.447 116.805C104.447 116.805 120.953 118.825 123.797 139.947C126.642 161.069 112.526 171.852 112.526 171.852" stroke="#003737" stroke-width="7" stroke-linecap="round"/>
<path d="M74.4987 35.7568C91.7697 35.757 105.77 49.7582 105.77 67.0293V182.614H43.2262V67.0293C43.2262 49.7581 57.2275 35.7568 74.4987 35.7568Z" fill="white" stroke="#003737" stroke-width="6.75"/>
<ellipse cx="54.8136" cy="86.4241" rx="6.52182" ry="6.52126" fill="#E26952" fill-opacity="0.5"/>
<ellipse cx="94.8762" cy="86.4241" rx="6.52182" ry="6.52126" fill="#E26952" fill-opacity="0.5"/>
<ellipse cx="62.8602" cy="74.1587" rx="3.80416" ry="3.79811" fill="#003737"/>
<path d="M66.9468 96.5179C66.9468 96.5179 77.7786 98.3811 80.3544 92.3457" stroke="#003737" stroke-width="4" stroke-linecap="round"/>
<path fill-rule="evenodd" clip-rule="evenodd" d="M48.5172 99.0574L76.4679 117.431L102.555 105.579V156.817H48.5172V99.0574Z" fill="#60DD9B"/>
<path d="M47.1196 106.975L72.8191 123.509C73.9245 124.221 75.3421 124.225 76.4522 123.522L102.555 106.975" stroke="#003737" stroke-width="6.75" stroke-linecap="square"/>
<path fill-rule="evenodd" clip-rule="evenodd" d="M31.128 67.3289L47.6533 64.9808C50.8538 64.526 53.8416 66.7553 54.2935 69.9357L60.4873 113.526C60.939 116.705 58.6906 119.679 55.4901 120.134L38.9648 122.482C35.7643 122.937 32.7758 120.707 32.324 117.528L26.1303 73.9375C25.6783 70.757 27.9275 67.7836 31.128 67.3289Z" fill="#006D42"/>
<path fill-rule="evenodd" clip-rule="evenodd" d="M51.6633 69.2253C51.7096 69.2187 51.751 69.2505 51.7572 69.2942L58.1881 114.553C58.1943 114.597 58.1634 114.639 58.1171 114.645L34.9118 117.943C34.8675 117.949 34.8248 117.917 34.8186 117.874L28.3877 72.6148C28.3815 72.5711 28.4137 72.5289 28.4579 72.5226L51.6633 69.2253Z" fill="white"/>
<path d="M36.7295 68.9402L42.7217 68.0888" stroke="#003737" stroke-width="0.5" stroke-linecap="square"/>
<path fill-rule="evenodd" clip-rule="evenodd" d="M32.9242 86.9307L50.4642 84.4384L50.778 86.6467L33.238 89.139L32.9242 86.9307Z" fill="#60DD9B"/>
<path fill-rule="evenodd" clip-rule="evenodd" d="M44.1788 100.87L37.8043 89.5386L41.4 89.0277L45.2357 96.1878L47.1005 88.2177L50.5208 87.7317L47.5552 100.391L44.1788 100.87Z" fill="#003737"/>
<path d="M78.9337 74.6541C81.1837 72.779 86.0587 72.7791 87.9337 74.6541" stroke="#003737" stroke-width="4" stroke-linecap="round" stroke-linejoin="round"/>
</g>
</g>
<defs>
<clipPath id="clip0_48758_515026">
<rect width="140" height="140" fill="white" transform="matrix(-1 0 0 1 140 0)"/>
</clipPath>
</defs>
</svg>
