<svg width="140" height="140" viewBox="0 0 140 140" fill="none" xmlns="http://www.w3.org/2000/svg">
<g clip-path="url(#clip0_48757_309031)">
<mask id="mask0_48757_309031" style="mask-type:alpha" maskUnits="userSpaceOnUse" x="0" y="0" width="140" height="140">
<circle cx="70" cy="70" r="70" transform="matrix(-1 0 0 1 140 0)" fill="#D9D9D9"/>
</mask>
<g mask="url(#mask0_48757_309031)">
<circle cx="70" cy="70" r="70" transform="matrix(-1 0 0 1 140 0)" fill="#C0FFD6"/>
<path d="M44.1695 18.7771C60.5452 18.4513 74.1806 23.3386 83.7281 32.6667C93.2767 41.9961 98.4654 55.5024 98.4586 71.8865C98.4584 72.1822 98.4586 72.4798 98.4586 72.7791C98.4586 84.4667 94.796 91.4332 88.1548 94.1111C81.9412 96.6165 74.138 94.8477 67.0797 92.0017C59.8687 89.0941 52.7268 84.7652 47.4332 81.2078C44.7754 79.4217 42.5598 77.8144 41.0064 76.6511C40.2293 76.0692 39.6164 75.5971 39.1959 75.2693C38.9857 75.1055 38.8234 74.9774 38.7125 74.8894C38.657 74.8454 38.614 74.8114 38.5845 74.7878L38.5406 74.7527C38.5398 74.752 38.5392 74.7512 38.5386 74.7507C38.5377 74.75 38.5366 74.7494 40.1255 72.7791L38.5367 74.7498L37.6119 74.0037L37.5943 72.8162L36.8443 21.4412L36.8082 18.9236L39.3248 18.8738L44.1695 18.7771Z" fill="#003737" stroke="#003737" stroke-width="5.0625"/>
<path d="M99.75 115.529C99.75 115.529 109.875 124.551 118.875 112.904C127.875 101.257 118.875 82.904 118.875 82.904" stroke="#003737" stroke-width="7.5" stroke-linecap="round"/>
<path d="M38.5644 116.792C38.5644 116.792 22.0586 118.812 19.2142 139.935C16.3698 161.057 30.4854 171.839 30.4854 171.839" stroke="#003737" stroke-width="7.5" stroke-linecap="round"/>
<path d="M67.9399 36.2256C84.7449 36.2257 98.3676 49.8492 98.3676 66.6543V181.396H37.5112V66.6543C37.5112 49.8491 51.1347 36.2256 67.9399 36.2256Z" fill="white" stroke="#003737" stroke-width="5.0625"/>
<ellipse cx="48.2548" cy="86.0491" rx="6.52182" ry="6.52126" fill="#E26952" fill-opacity="0.5"/>
<ellipse cx="88.3174" cy="86.0491" rx="6.52182" ry="6.52126" fill="#E26952" fill-opacity="0.5"/>
<ellipse cx="56.3015" cy="73.7837" rx="3.80416" ry="3.79811" fill="#003737"/>
<ellipse cx="79.1264" cy="73.7837" rx="3.80416" ry="3.79811" fill="#003737"/>
<path d="M60.3879 96.1429C60.3879 96.1429 71.2197 98.0061 73.7955 91.9707" stroke="#003737" stroke-width="5.0625" stroke-linecap="round"/>
<path fill-rule="evenodd" clip-rule="evenodd" d="M41.9584 98.6824L69.9091 117.056L95.9964 105.204V156.442H41.9584V98.6824Z" fill="#60DD9B"/>
<path d="M40.5609 106.6L66.7136 123.426C67.5426 123.959 68.6058 123.963 69.4383 123.435L95.9964 106.6" stroke="#003737" stroke-width="5.0625" stroke-linecap="square"/>
<path d="M111.75 64.1541C111.75 68.2791 113.793 70.3985 116.837 72.4041C120.285 69.4246 121.5 67.4541 121.5 64.1541" stroke="#DC3A26" stroke-width="10.5" stroke-linecap="round" stroke-linejoin="round"/>
</g>
</g>
<defs>
<clipPath id="clip0_48757_309031">
<rect width="140" height="140" fill="white" transform="matrix(-1 0 0 1 140 0)"/>
</clipPath>
</defs>
</svg>
