<svg width="140" height="140" viewBox="0 0 140 140" fill="none" xmlns="http://www.w3.org/2000/svg">
<g clip-path="url(#clip0_48758_3559)">
<mask id="mask0_48758_3559" style="mask-type:alpha" maskUnits="userSpaceOnUse" x="0" y="0" width="140" height="140">
<circle cx="70" cy="70" r="70" transform="matrix(-1 0 0 1 140 0)" fill="#D9D9D9"/>
</mask>
<g mask="url(#mask0_48758_3559)">
<path d="M0 70C0 108.66 31.3401 140 70 140C108.66 140 140 108.66 140 70C140 31.3401 108.66 0 70 0C31.3401 0 0 31.3401 0 70Z" fill="#FAE366"/>
<path d="M44.1696 18.7771C60.5452 18.4513 74.1807 23.3386 83.7281 32.6667C93.2768 41.9961 98.4655 55.5024 98.4586 71.8865C98.4585 72.1822 98.4586 72.4798 98.4586 72.7791C98.4587 84.4667 94.7961 91.4332 88.1549 94.1111C81.9412 96.6165 74.138 94.8477 67.0797 92.0017C59.8687 89.0941 52.7269 84.7652 47.4332 81.2078C44.7755 79.4217 42.5599 77.8144 41.0065 76.6511C40.2294 76.0692 39.6164 75.5971 39.1959 75.2693C38.9858 75.1055 38.8235 74.9774 38.7125 74.8894C38.657 74.8454 38.614 74.8114 38.5846 74.7878L38.5406 74.7527C38.5398 74.752 38.5392 74.7512 38.5387 74.7507C38.5378 74.75 38.5366 74.7494 40.1256 72.7791L38.5367 74.7498L37.6119 74.0037L37.5944 72.8162L36.8444 21.4412L36.8082 18.9236L39.3248 18.8738L44.1696 18.7771Z" fill="#003737" stroke="#003737" stroke-width="5.0625"/>
<path d="M99.3886 119.201C99.3886 119.201 118.656 117.526 121.5 96.404C124.344 75.2817 104.625 69.404 104.625 69.404" stroke="#003737" stroke-width="7.5" stroke-linecap="round"/>
<path d="M38.5644 116.792C38.5644 116.792 22.0586 118.812 19.2142 139.935C16.3698 161.057 30.4854 171.839 30.4854 171.839" stroke="#003737" stroke-width="7.5" stroke-linecap="round"/>
<path d="M67.9399 36.2256C84.745 36.2257 98.3677 49.8492 98.3677 66.6543V181.396H37.5112V66.6543C37.5112 49.8491 51.1348 36.2256 67.9399 36.2256Z" fill="white" stroke="#003737" stroke-width="5.0625"/>
<ellipse cx="48.2549" cy="86.0491" rx="6.52182" ry="6.52126" fill="#E26952" fill-opacity="0.5"/>
<ellipse cx="88.3175" cy="86.0491" rx="6.52182" ry="6.52126" fill="#E26952" fill-opacity="0.5"/>
<ellipse cx="56.3015" cy="73.7837" rx="3.80416" ry="3.79811" fill="#003737"/>
<ellipse cx="79.1265" cy="73.7837" rx="3.80416" ry="3.79811" fill="#003737"/>
<path d="M74.155 90.6752C74.155 90.6752 63.2458 89.3377 60.9648 95.4906" stroke="#003737" stroke-width="5.0625" stroke-linecap="round"/>
<path fill-rule="evenodd" clip-rule="evenodd" d="M41.9585 98.6824L69.9092 117.056L95.9965 105.204V156.442H41.9585V98.6824Z" fill="#60DD9B"/>
<path d="M40.5609 106.6L66.7136 123.426C67.5426 123.959 68.6058 123.963 69.4383 123.435L95.9964 106.6" stroke="#003737" stroke-width="5.0625" stroke-linecap="square"/>
</g>
</g>
<defs>
<clipPath id="clip0_48758_3559">
<rect width="140" height="140" fill="white" transform="matrix(-1 0 0 1 140 0)"/>
</clipPath>
</defs>
</svg>
