<svg width="140" height="140" viewBox="0 0 140 140" fill="none" xmlns="http://www.w3.org/2000/svg">
<g clip-path="url(#clip0_48757_308280)">
<mask id="mask0_48757_308280" style="mask-type:alpha" maskUnits="userSpaceOnUse" x="0" y="0" width="140" height="140">
<circle cx="70" cy="70" r="70" transform="matrix(-1 0 0 1 140 0)" fill="#D9D9D9"/>
</mask>
<g mask="url(#mask0_48757_308280)">
<circle cx="70" cy="70" r="70" transform="matrix(-1 0 0 1 140 0)" fill="#FAE366"/>
<path d="M50.7282 19.1521C67.1039 18.8263 80.7394 23.7136 90.2868 33.0417C99.8355 42.3711 105.024 55.8774 105.017 72.2615C105.017 72.5572 105.017 72.8548 105.017 73.1541C105.017 84.8417 101.355 91.8082 94.7136 94.4861C88.4999 96.9915 80.6967 95.2227 73.6384 92.3767C66.4274 89.4691 59.2856 85.1402 53.9919 81.5828C51.3342 79.7967 49.1186 78.1894 47.5652 77.0261C46.7881 76.4442 46.1751 75.9721 45.7546 75.6443C45.5445 75.4805 45.3822 75.3524 45.2712 75.2644C45.2157 75.2204 45.1727 75.1864 45.1433 75.1628L45.0993 75.1277C45.0985 75.127 45.0979 75.1262 45.0974 75.1257C45.0965 75.125 45.0953 75.1244 46.6843 73.1541L45.0954 75.1248L44.1706 74.3787L44.153 73.1912L43.403 21.8162L43.3669 19.2986L45.8835 19.2488L50.7282 19.1521Z" fill="#003737" stroke="#003737" stroke-width="5.0625"/>
<path d="M43.7585 127.047C43.7585 127.047 29.4337 128.654 26.4337 112.529C23.4338 96.404 28.6838 89.654 28.6838 89.654" stroke="#003737" stroke-width="6.5" stroke-linecap="round"/>
<path d="M104.447 116.805C104.447 116.805 120.953 118.825 123.797 139.947C126.642 161.069 112.526 171.852 112.526 171.852" stroke="#003737" stroke-width="6.5" stroke-linecap="round"/>
<path d="M74.4986 36.6006C91.3037 36.6007 104.926 50.2242 104.926 67.0293V181.771H44.0699V67.0293C44.0699 50.2241 57.6934 36.6006 74.4986 36.6006Z" fill="white" stroke="#003737" stroke-width="5.0625"/>
<ellipse cx="54.8136" cy="86.4241" rx="6.52182" ry="6.52126" fill="#E26952" fill-opacity="0.5"/>
<ellipse cx="94.8761" cy="86.4241" rx="6.52182" ry="6.52126" fill="#E26952" fill-opacity="0.5"/>
<ellipse cx="62.8602" cy="74.1587" rx="3.80416" ry="3.79811" fill="#003737"/>
<ellipse cx="84.3042" cy="73.9522" rx="3.80416" ry="3.79811" fill="#003737"/>
<path d="M66.9467 96.5179C66.9467 96.5179 77.7785 98.3811 80.3543 92.3457" stroke="#003737" stroke-width="5.0625" stroke-linecap="round"/>
<path fill-rule="evenodd" clip-rule="evenodd" d="M48.5172 99.0574L76.4679 117.431L102.555 105.579V156.817H48.5172V99.0574Z" fill="#60DD9B"/>
<path d="M47.1196 106.975L73.2723 123.801C74.1013 124.334 75.1645 124.338 75.9971 123.81L102.555 106.975" stroke="#003737" stroke-width="5.0625" stroke-linecap="square"/>
<path fill-rule="evenodd" clip-rule="evenodd" d="M31.128 67.3289L47.6533 64.9808C50.8538 64.526 53.8416 66.7553 54.2935 69.9357L60.4873 113.526C60.939 116.705 58.6906 119.679 55.4901 120.134L38.9648 122.482C35.7643 122.937 32.7758 120.707 32.324 117.528L26.1303 73.9375C25.6783 70.757 27.9275 67.7836 31.128 67.3289Z" fill="#006D42"/>
<path fill-rule="evenodd" clip-rule="evenodd" d="M51.6633 69.2253C51.7096 69.2187 51.7509 69.2505 51.7571 69.2942L58.188 114.553C58.1942 114.597 58.1634 114.639 58.1171 114.645L34.9117 117.943C34.8674 117.949 34.8247 117.917 34.8185 117.874L28.3876 72.6148C28.3814 72.5711 28.4136 72.5289 28.4579 72.5226L51.6633 69.2253Z" fill="white"/>
<path d="M36.7296 68.94L42.7217 68.0885" stroke="#003737" stroke-width="0.375" stroke-linecap="square"/>
<path d="M40.9718 82.0748C41.318 81.8383 41.7887 81.8213 42.1519 82.0555L49.2295 86.766C49.5399 86.9602 49.7237 87.2662 49.7681 87.5913C49.766 87.9228 49.6648 88.2205 49.4643 88.4844L44.7597 93.5269L50.6506 97.1694C50.9082 97.3235 51.0919 97.6295 51.1828 97.9483C51.2272 98.2734 51.1323 98.6175 50.879 98.8414L45.3239 105.277C45.0432 105.647 44.5851 105.757 44.1882 105.622C43.7448 105.493 43.4619 105.153 43.3984 104.689L42.2502 96.2825L38.2526 100.613C37.8389 101.048 37.0895 101.103 36.6545 100.69C36.2132 100.23 36.1645 99.5266 36.5781 99.0916L41.2764 94.0027L35.3918 90.4067C34.8766 90.0985 34.7287 89.3618 35.0368 88.8466C35.3913 88.3251 36.0753 88.137 36.5968 88.4916L41.6094 91.5917L40.4548 83.1389C40.3977 82.721 40.5728 82.2712 40.9718 82.0748ZM44.4794 95.978L45.2915 101.923L48.3561 98.3817L44.4794 95.978ZM43.8387 91.2872L46.9287 87.9319L43.0267 85.3424L43.8387 91.2872Z" fill="#003920"/>
</g>
</g>
<defs>
<clipPath id="clip0_48757_308280">
<rect width="140" height="140" fill="white" transform="matrix(-1 0 0 1 140 0)"/>
</clipPath>
</defs>
</svg>
