<svg width="141" height="140" viewBox="0 0 141 140" fill="none" xmlns="http://www.w3.org/2000/svg">
<path d="M14.5 70C14.5 84.8521 20.4 99.0959 30.902 109.598C41.4041 120.1 55.6479 126 70.5 126C85.3521 126 99.5959 120.1 110.098 109.598C120.6 99.0959 126.5 84.8521 126.5 70C126.5 55.1479 120.6 40.9041 110.098 30.402C99.5959 19.9 85.3521 14 70.5 14C55.6479 14 41.4041 19.9 30.902 30.402C20.4 40.9041 14.5 55.1479 14.5 70Z" fill="#C0FFD6"/>
<path d="M52.5 49C52.5 47.4062 53.8125 46 55.5 46C57.0938 46 58.5 47.4062 58.5 49V52H70.5V49C70.5 47.4062 71.8125 46 73.5 46C75.0938 46 76.5 47.4062 76.5 49V52H81C83.4375 52 85.5 54.0625 85.5 56.5V61H43.5V56.5C43.5 54.0625 45.4688 52 48 52H52.5V49ZM85.5 64V64.0938C84.9375 64.0938 84.4688 64 84 64C74.8125 64 67.5 71.4062 67.5 80.5C67.5 86.125 70.2188 91.0938 74.4375 94H48C45.4688 94 43.5 92.0312 43.5 89.5V64H84H85.5ZM97.5 80.5C97.5 85.375 94.875 89.7812 90.75 92.2188C86.5312 94.6562 81.375 94.6562 77.25 92.2188C73.0312 89.7812 70.5 85.375 70.5 80.5C70.5 75.7188 73.0312 71.3125 77.25 68.875C81.375 66.4375 86.5312 66.4375 90.75 68.875C94.875 71.3125 97.5 75.7188 97.5 80.5ZM84 73C83.1562 73 82.5 73.75 82.5 74.5V80.5C82.5 81.3438 83.1562 82 84 82H88.5C89.25 82 90 81.3438 90 80.5C90 79.75 89.25 79 88.5 79H85.5V74.5C85.5 73.75 84.75 73 84 73Z" fill="#003920"/>
<path opacity="0.4" d="M52.5 49C52.5 47.4062 53.8125 46 55.5 46C57.0938 46 58.5 47.4062 58.5 49V52H70.5V49C70.5 47.4062 71.8125 46 73.5 46C75.0938 46 76.5 47.4062 76.5 49V52H81C83.4375 52 85.5 54.0625 85.5 56.5V61H43.5V56.5C43.5 54.0625 45.4688 52 48 52H52.5V49ZM85.5 64V64.0938C84.9375 64.0938 84.4688 64 84 64C74.8125 64 67.5 71.4062 67.5 80.5C67.5 86.125 70.2188 91.0938 74.4375 94H48C45.4688 94 43.5 92.0312 43.5 89.5V64H84H85.5ZM97.5 80.5C97.5 85.375 94.875 89.7812 90.75 92.2188C86.5312 94.6562 81.375 94.6562 77.25 92.2188C73.0312 89.7812 70.5 85.375 70.5 80.5C70.5 75.7188 73.0312 71.3125 77.25 68.875C81.375 66.4375 86.5312 66.4375 90.75 68.875C94.875 71.3125 97.5 75.7188 97.5 80.5ZM84 73C83.1562 73 82.5 73.75 82.5 74.5V80.5C82.5 81.3438 83.1562 82 84 82H88.5C89.25 82 90 81.3438 90 80.5C90 79.75 89.25 79 88.5 79H85.5V74.5C85.5 73.75 84.75 73 84 73Z" fill="#003920"/>
</svg>
