<svg width="45" height="41" viewBox="0 0 45 41" fill="none" xmlns="http://www.w3.org/2000/svg">
<path d="M10 0C11.0156 0 11.875 0.859375 11.875 1.875V5H23.125V1.875C23.125 0.859375 23.9062 0 25 0C26.0156 0 26.875 0.859375 26.875 1.875V5H30C32.7344 5 35 7.26562 35 10V11.25V15H33.75H31.25H22.5H3.75V35C3.75 35.7031 4.29688 36.25 5 36.25H22.1875C23.125 37.7344 24.375 39.0625 25.7812 40H5C2.1875 40 0 37.8125 0 35V15V11.25V10C0 7.26562 2.1875 5 5 5H8.125V1.875C8.125 0.859375 8.90625 0 10 0ZM22.5 28.75C22.5 24.7656 24.6094 21.0938 28.125 19.0625C31.5625 17.0312 35.8594 17.0312 39.375 19.0625C42.8125 21.0938 45 24.7656 45 28.75C45 32.8125 42.8125 36.4844 39.375 38.5156C35.8594 40.5469 31.5625 40.5469 28.125 38.5156C24.6094 36.4844 22.5 32.8125 22.5 28.75ZM33.75 22.5C33.0469 22.5 32.5 23.125 32.5 23.75V28.75C32.5 29.4531 33.0469 30 33.75 30H37.5C38.125 30 38.75 29.4531 38.75 28.75C38.75 28.125 38.125 27.5 37.5 27.5H35V23.75C35 23.125 34.375 22.5 33.75 22.5Z" fill="#41C98E"/>
</svg>
