<svg width="15" height="20" viewBox="0 0 15 20" fill="none" xmlns="http://www.w3.org/2000/svg">
<path d="M13.3594 6.39844L9.25781 10.5L13.3594 14.6406C13.8672 15.1094 13.8672 15.9297 13.3594 16.3984C12.8906 16.9062 12.0703 16.9062 11.6016 16.3984L7.5 12.2969L3.35938 16.3984C2.89062 16.9062 2.07031 16.9062 1.60156 16.3984C1.09375 15.9297 1.09375 15.1094 1.60156 14.6406L5.70312 10.5L1.60156 6.39844C1.09375 5.92969 1.09375 5.10938 1.60156 4.64062C2.07031 4.13281 2.89062 4.13281 3.35938 4.64062L7.5 8.74219L11.6016 4.64062C12.0703 4.13281 12.8906 4.13281 13.3594 4.64062C13.8672 5.10938 13.8672 5.92969 13.3594 6.39844Z" fill="#355070"/>
</svg>
