<svg width="24" height="24" viewBox="0 0 24 24" fill="none" xmlns="http://www.w3.org/2000/svg">
<circle cx="12" cy="12" r="12" fill="#F2DF7F"/>
<path fill-rule="evenodd" clip-rule="evenodd" d="M14.7139 11.925H17.6376V16.6711C16.9658 17.4293 16.1311 18.0256 15.1961 18.4155C14.2611 18.8053 13.25 18.9786 12.2386 18.9223C11.2773 18.9159 10.3275 18.7129 9.44763 18.3257C8.56774 17.9386 7.77638 17.3755 7.12224 16.6711C5.97819 15.3579 5.36336 13.6663 5.3973 11.925C5.3902 11.0354 5.55871 10.153 5.89317 9.32859C6.22763 8.50415 6.72146 7.7538 7.34639 7.12053C7.97826 6.46798 8.73579 5.95021 9.57326 5.59847C10.4107 5.24673 11.3108 5.06832 12.2191 5.07398C14.2171 5.08648 16.1426 5.82412 17.6376 7.14976L15.6885 9.37173C15.2862 8.87584 14.7759 8.47844 14.1966 8.20989C13.6172 7.94134 12.9842 7.80873 12.3458 7.8222C11.3196 7.84197 10.3426 8.2657 9.62682 9.0014C9.22424 9.37514 8.90242 9.82734 8.68119 10.3301C8.45995 10.8329 8.34398 11.3757 8.34042 11.925C8.32887 12.4856 8.43181 13.0427 8.64295 13.5622C8.85408 14.0816 9.16897 14.5525 9.56835 14.9461C10.268 15.646 11.1937 16.0743 12.1801 16.1546C13.0583 16.2018 13.9331 16.0134 14.7139 15.6088V11.925Z" fill="#A77F2C"/>
<ellipse cx="11.9597" cy="1.24831" rx="0.442953" ry="0.442953" fill="#A77F2C"/>
<ellipse cx="11.9598" cy="22.7517" rx="0.442953" ry="0.442953" fill="#A77F2C"/>
<circle cx="22.7114" cy="12" r="0.442953" transform="rotate(90 22.7114 12)" fill="#A77F2C"/>
<ellipse cx="1.20808" cy="12" rx="0.442953" ry="0.442953" transform="rotate(90 1.20808 12)" fill="#A77F2C"/>
<circle cx="19.5623" cy="4.39743" r="0.442953" transform="rotate(45 19.5623 4.39743)" fill="#A77F2C"/>
<circle cx="4.35718" cy="19.6026" r="0.442953" transform="rotate(45 4.35718 19.6026)" fill="#A77F2C"/>
<circle cx="19.5623" cy="19.6026" r="0.442953" transform="rotate(135 19.5623 19.6026)" fill="#A77F2C"/>
<circle cx="4.35714" cy="4.39746" r="0.442953" transform="rotate(135 4.35714 4.39746)" fill="#A77F2C"/>
<ellipse cx="21.2709" cy="6.62413" rx="0.442953" ry="0.442953" transform="rotate(60 21.2709 6.62413)" fill="#A77F2C"/>
<ellipse cx="2.64855" cy="17.3758" rx="0.442953" ry="0.442953" transform="rotate(60 2.64855 17.3758)" fill="#A77F2C"/>
<ellipse cx="17.3356" cy="21.3112" rx="0.442953" ry="0.442953" transform="rotate(150 17.3356 21.3112)" fill="#A77F2C"/>
<ellipse cx="6.58388" cy="2.68876" rx="0.442953" ry="0.442953" transform="rotate(150 6.58388 2.68876)" fill="#A77F2C"/>
<circle cx="22.345" cy="9.21725" r="0.442953" transform="rotate(75 22.345 9.21725)" fill="#A77F2C"/>
<ellipse cx="1.57439" cy="14.7827" rx="0.442953" ry="0.442953" transform="rotate(75 1.57439 14.7827)" fill="#A77F2C"/>
<ellipse cx="14.7425" cy="22.3853" rx="0.442953" ry="0.442953" transform="rotate(165 14.7425 22.3853)" fill="#A77F2C"/>
<ellipse cx="9.17702" cy="1.6147" rx="0.442953" ry="0.442953" transform="rotate(165 9.17702 1.6147)" fill="#A77F2C"/>
<ellipse cx="22.3451" cy="14.7827" rx="0.442953" ry="0.442953" transform="rotate(105 22.3451 14.7827)" fill="#A77F2C"/>
<ellipse cx="1.57439" cy="9.21721" rx="0.442953" ry="0.442953" transform="rotate(105 1.57439 9.21721)" fill="#A77F2C"/>
<circle cx="9.17699" cy="22.3853" r="0.442953" transform="rotate(-165 9.17699 22.3853)" fill="#A77F2C"/>
<ellipse cx="14.7425" cy="1.61466" rx="0.442953" ry="0.442953" transform="rotate(-165 14.7425 1.61466)" fill="#A77F2C"/>
<circle cx="21.271" cy="17.3758" r="0.442953" transform="rotate(120 21.271 17.3758)" fill="#A77F2C"/>
<ellipse cx="2.64852" cy="6.62411" rx="0.442953" ry="0.442953" transform="rotate(120 2.64852 6.62411)" fill="#A77F2C"/>
<ellipse cx="6.5839" cy="21.3112" rx="0.442953" ry="0.442953" transform="rotate(-150 6.5839 21.3112)" fill="#A77F2C"/>
<ellipse cx="17.3356" cy="2.68874" rx="0.442953" ry="0.442953" transform="rotate(-150 17.3356 2.68874)" fill="#A77F2C"/>
</svg>
