<svg width="205" height="109" viewBox="0 0 205 109" fill="none" xmlns="http://www.w3.org/2000/svg">
<path d="M176.35 68.8061C167.346 72.4743 160.292 77.8914 160.188 84.3756C160.166 85.7243 161.507 88.77 162.018 90.0298C164.99 97.3217 176.217 99.6338 187.095 95.2023C197.981 90.7708 204.391 81.2706 201.427 73.9787C200.997 72.919 199.834 69.8658 199.078 69.021C194.647 64.0634 185.643 65.0194 176.343 68.8135L176.35 68.8061Z" fill="#FAE366"/>
<g opacity="0.2">
<path d="M187.733 89.9188L191.275 87.6216C191.327 89.2445 191.912 90.8377 192.89 92.1272C191.712 92.9349 190.437 93.6834 189.074 94.3503C188.251 93.0238 187.784 91.4825 187.725 89.9188H187.733Z" fill="white"/>
</g>
<g opacity="0.2">
<path d="M171.407 93.0831L173.549 93.3128C173.467 94.743 173.475 95.9806 173.415 97.3441C172.445 97.233 171.511 97.0625 170.614 96.8254C170.822 95.4915 171.089 94.4466 171.407 93.0757V93.0831Z" fill="white"/>
</g>
<g opacity="0.2">
<path d="M169.318 96.4327C166.598 95.4915 164.382 93.9501 162.967 91.8604C163.278 91.0452 163.619 90.2449 164.012 89.4668L170.088 92.8608C169.799 94.0613 169.451 95.2766 169.318 96.4327Z" fill="white"/>
</g>
<path opacity="0.4" d="M176.342 68.8359C167.339 72.5041 160.284 77.9212 160.18 84.4054C160.158 85.7541 161.499 88.7998 162.011 90.0596C164.982 97.3441 176.209 99.6636 187.088 95.2321C197.974 90.8006 204.384 81.3004 201.42 74.0084C200.99 72.9487 199.826 69.8956 199.07 69.0508C194.639 64.0932 185.635 65.0492 176.335 68.8433L176.342 68.8359Z" fill="#877700"/>
<path d="M185.402 91.0304C196.209 86.6292 202.562 77.1525 199.594 69.8636C196.625 62.5746 185.458 60.2337 174.652 64.6349C163.846 69.0361 157.492 78.5128 160.46 85.8018C163.429 93.0907 174.596 95.4316 185.402 91.0304Z" fill="#FAE366"/>
<path d="M183.555 86.9073C191.067 83.8476 195.513 77.3297 193.485 72.3491C191.456 67.3685 183.722 65.8113 176.209 68.8711C168.697 71.9308 164.251 78.4487 166.279 83.4293C168.308 88.4098 176.042 89.967 183.555 86.9073Z" fill="#FAE366"/>
<path opacity="0.2" d="M183.555 86.9073C191.067 83.8476 195.513 77.3297 193.485 72.3491C191.456 67.3685 183.722 65.8113 176.209 68.8711C168.697 71.9308 164.251 78.4487 166.279 83.4293C168.308 88.4098 176.042 89.967 183.555 86.9073Z" fill="#877700"/>
<path opacity="0.2" d="M182.923 86.1618C190.437 83.1013 194.884 76.5801 192.853 71.6002C192.631 71.0518 192.334 70.5479 191.979 70.0811C192.646 70.7332 193.179 71.4965 193.535 72.3635C195.565 77.3433 191.119 83.8646 183.605 86.9251C176.92 89.6448 170.066 88.711 167.205 84.9687C170.377 88.0663 176.728 88.6888 182.93 86.1618H182.923Z" fill="#877700"/>
<path opacity="0.2" d="M174.601 88.4219C174.497 88.6368 171.422 93.0386 171.422 93.0386L173.482 93.298L176.624 88.533L174.594 88.4219H174.601Z" fill="white"/>
<path opacity="0.2" d="M200.108 71.6001C200.152 71.8298 200.197 72.0595 200.227 72.2967L200.264 74.6755C200.264 74.6755 200.264 74.6977 200.264 74.7051L191.378 87.7846C191.378 87.7846 191.356 87.7994 191.349 87.8068L187.621 90.0226C187.621 90.0226 187.607 90.0226 187.599 90.03C187.644 89.9707 198.937 73.6676 200.108 71.6075V71.6001Z" fill="white"/>
<path opacity="0.2" d="M170.429 66.7314C168.265 70.0291 162.099 78.8847 159.728 82.2713C159.587 76.7653 163.73 70.7331 170.429 66.7314Z" fill="white"/>
<path opacity="0.2" d="M172.748 88.1553L170.103 92.8165C170.103 92.8165 165.427 91.6012 163.811 90.0968L167.235 85.0503C167.235 85.0503 167.242 85.0577 167.25 85.0651C168.487 86.6139 170.429 87.6662 172.756 88.1553H172.748Z" fill="white"/>
<path opacity="0.2" d="M178.64 68.043L182.604 62.5815C185.502 62.2554 188.266 62.4185 190.711 63.0187L186.584 67.5391C184.205 67.1167 181.456 67.2649 178.64 68.0505V68.043Z" fill="white"/>
<path d="M162.982 89.7783C165.56 92.0311 168.947 93.1056 172.319 93.4242C176.432 93.8096 180.633 93.0982 184.494 91.6754C190.764 89.3633 196.974 84.8948 199.575 78.5366C200.716 75.7576 200.99 72.6156 199.849 69.7922C199.715 69.4661 199.182 69.6069 199.315 69.9404C201.479 75.3352 198.389 81.0487 194.558 84.7984C189.215 90.0376 181.419 93.1501 173.934 92.9648C170.192 92.8759 166.25 91.9051 163.374 89.3929C163.108 89.1558 162.715 89.5486 162.982 89.7857V89.7783Z" fill="#A39117"/>
<g clip-path="url(#clip0_323_16354)">
<path fill-rule="evenodd" clip-rule="evenodd" d="M181.468 79.2077L183.074 81.4072L178.471 84.7612C176.341 84.733 174.817 83.938 173.705 82.1266C172.814 80.6705 172.802 78.7421 173.455 77.0439C174.095 75.381 175.404 73.9289 176.809 72.9023C178.215 71.8756 180.105 71.0662 181.97 71.0605C183.882 71.0521 185.357 71.5865 186.449 72.8602C187.54 74.1339 187.98 75.7987 187.688 78.0521L184.428 78.195C184.571 77.8549 185.161 76.2185 184.009 74.7855C183.476 74.1207 182.62 73.683 181.5 73.681C180.397 73.6752 179.319 73.9619 178.183 74.7969C177.046 75.6318 176.339 76.6385 176.048 77.5997C175.754 78.5697 175.79 79.6434 176.185 80.2461C176.725 81.0652 177.307 81.5315 177.981 81.7544L181.464 79.2165L181.468 79.2077Z" fill="#A39117"/>
</g>
<g clip-path="url(#clip1_323_16354)">
<path d="M80.5401 46.2198C94.1101 28.8498 110.28 16.8198 124.48 20.6098C127.44 21.3998 133.25 26.2098 135.68 28.0998C149.74 39.0798 147.84 64.9898 131.45 85.9798C115.06 106.97 90.3701 115.08 76.3201 104.11C74.2801 102.51 68.3301 98.0998 66.9601 95.9298C58.8901 83.1998 66.5501 64.1698 80.5601 46.2298L80.5401 46.2198Z" fill="#FAE366"/>
<g opacity="0.2">
<path d="M119.53 84.0898L112.33 90.3998C115.83 91.5198 118.95 93.7698 121.16 96.7098C123.65 94.6298 126.07 92.3198 128.36 89.7698C125.97 87.1598 122.9 85.1798 119.53 84.0898Z" fill="white"/>
</g>
<g opacity="0.2">
<path d="M136.52 50.4497L135.69 55.2597C138.86 55.9597 141.56 56.7397 144.57 57.4697C144.93 55.2797 145.13 53.1397 145.17 51.0497C142.13 50.6897 139.7 50.6197 136.51 50.4597L136.52 50.4497Z" fill="white"/>
</g>
<g opacity="0.2">
<path d="M145.12 47.9698C144.76 41.4698 142.76 35.6798 139.07 31.2998C137.1 31.4698 135.14 31.7198 133.21 32.1098L136.85 47.4498C139.65 47.5598 142.51 47.5598 145.12 47.9698Z" fill="white"/>
</g>
<path opacity="0.2" d="M80.6101 46.2201C94.1701 28.8501 110.34 16.8101 124.54 20.6001C127.5 21.3901 133.31 26.2001 135.74 28.0901C149.8 39.0701 147.9 64.9801 131.51 85.9701C115.12 106.96 90.4301 115.07 76.3801 104.1C74.3401 102.5 68.3901 98.0901 67.0201 95.9201C58.9501 83.1901 66.6101 64.1601 80.6201 46.2201H80.6101Z" fill="#A39117"/>
<path d="M123.38 79.6781C139.653 58.8419 141.452 33.0524 127.397 22.0756C113.342 11.0988 88.7566 19.0914 72.4834 39.9276C56.2103 60.7637 54.4119 86.5532 68.4666 97.5301C82.5214 108.507 107.107 100.514 123.38 79.6781Z" fill="#FAE366"/>
<path d="M115.542 73.1154C126.859 58.6254 128.245 40.7969 118.639 33.2943C109.033 25.7917 92.0712 31.4562 80.7545 45.9462C69.4377 60.4362 68.0511 78.2647 77.6574 85.7672C87.2638 93.2698 104.225 87.6054 115.542 73.1154Z" fill="#FAE366"/>
<path opacity="0.2" d="M115.542 73.1154C126.859 58.6254 128.245 40.7969 118.639 33.2943C109.033 25.7917 92.0712 31.4562 80.7545 45.9462C69.4377 60.4362 68.0511 78.2647 77.6574 85.7672C87.2638 93.2698 104.225 87.6054 115.542 73.1154Z" fill="#A39117"/>
<path opacity="0.2" d="M114.32 71.2798C103 85.7698 86.0399 91.4298 76.4399 83.9298C75.3799 83.0998 74.4599 82.1398 73.6699 81.0798C74.6799 82.9498 76.0199 84.5698 77.6899 85.8798C87.2899 93.3798 104.26 87.7198 115.57 73.2298C125.64 60.3398 127.84 44.8098 121.44 36.2598C126.23 45.0798 123.66 59.3098 114.32 71.2798Z" fill="#A39117"/>
<path opacity="0.2" d="M124.38 54.54C124.9 54.45 136.42 50.46 136.42 50.46L135.71 55.12L123.37 59.03L124.38 54.54Z" fill="white"/>
<path opacity="0.2" d="M71.95 99.7499C72.42 99.9899 72.91 100.22 73.4 100.43L78.56 101.99C78.56 101.99 78.6 101.99 78.62 102L112.62 90.7099C112.62 90.7099 112.66 90.6799 112.68 90.6599L119.81 83.8999C119.81 83.8999 119.83 83.8699 119.85 83.8599C119.69 83.9199 77.17 98.4699 71.95 99.7499Z" fill="white"/>
<path opacity="0.2" d="M79.6799 32.0398C88.1999 29.3598 111.32 21.3798 120.18 18.3198C108.26 14.6098 92.5499 19.9098 79.6799 32.0398Z" fill="white"/>
<path opacity="0.2" d="M124.95 50.33L136.75 47.45C136.75 47.45 136.99 36.5 134.71 32.04L121.6 36.39C121.6 36.39 121.61 36.41 121.62 36.42C124.24 40.08 125.33 44.95 124.96 50.33H124.95Z" fill="white"/>
<path opacity="0.2" d="M77.45 50.74L63.09 56.01C60.59 62.13 59.23 68.24 59.03 73.95L71.43 67.73C71.98 62.28 74.01 56.38 77.45 50.73V50.74Z" fill="white"/>
<path d="M133.65 30.5301C136.74 37.0401 137.04 44.5901 135.86 51.6001C134.42 60.1401 130.84 68.25 126.02 75.4001C121.2 82.5501 115.14 88.8401 108.03 93.6601C102.1 97.6801 95.3401 100.76 88.2001 101.76C82.1601 102.6 75.8001 101.81 70.5601 98.5401C69.9301 98.1501 69.3101 97.7201 68.7201 97.2601C68.3401 96.9701 67.8101 97.4901 68.1901 97.7901C73.1301 101.63 79.3501 103.13 85.5401 102.77C92.7401 102.35 99.6901 99.6701 105.82 95.9601C113.1 91.5601 119.4 85.59 124.5 78.8101C129.91 71.6201 134.06 63.3301 136.04 54.5201C137.66 47.2901 137.87 39.4301 135.24 32.4001C134.95 31.6401 134.63 30.8801 134.28 30.1501C134.07 29.7101 133.43 30.0901 133.63 30.5301H133.65Z" fill="#A39117"/>
<path d="M136.7 45.3999L138.14 51.4199L144.19 52.7699L138.16 54.2099L136.82 60.2599L135.38 54.2299L129.33 52.8899L135.35 51.4499L136.7 45.3999Z" fill="#F0F0F0"/>
<g clip-path="url(#clip2_323_16354)">
<path fill-rule="evenodd" clip-rule="evenodd" d="M101.48 61.7297L106.3 64.8897L99.68 74.9597C95.44 76.4897 91.83 76.0497 88.28 73.2897C85.43 71.0697 83.97 67.2597 84 63.4097C84.03 59.6397 85.54 55.7897 87.56 52.7097C89.58 49.6297 92.72 46.6197 96.41 45.2197C100.19 43.7797 103.51 43.7397 106.62 45.4497C109.73 47.1597 111.84 50.1297 112.94 54.8097L106.59 57.5197C106.62 56.7397 106.57 53.0597 103.22 51.0797C101.67 50.1597 99.65 49.9297 97.43 50.7597C95.24 51.5697 93.32 52.9397 91.69 55.4397C90.06 57.9397 89.41 60.4597 89.55 62.5797C89.69 64.7197 90.56 66.8197 91.79 67.7197C93.47 68.9397 94.97 69.4297 96.47 69.3697L101.48 61.7497V61.7297Z" fill="#A39117"/>
</g>
</g>
<path d="M38.6035 21.8405C29.5661 14.1678 19.7335 9.58583 12.6663 13.1285C11.1932 13.8695 8.65369 17.0326 7.57824 18.2888C1.36055 25.6 5.18335 39.0566 16.1005 48.3289C27.0266 57.6103 40.917 59.2009 47.1257 51.8806C48.0294 50.8142 50.6864 47.8409 51.1744 46.5486C54.0483 38.9572 47.939 29.7662 38.6035 21.8405Z" fill="#FAE366"/>
<g opacity="0.2">
<path d="M22.1735 46.0425L26.656 48.582C24.9299 49.549 23.5291 51.0853 22.6886 52.8747C21.1523 52.0523 19.6249 51.0944 18.1428 50.0008C19.1189 48.3651 20.5196 46.9914 22.1825 46.0425H22.1735Z" fill="white"/>
</g>
<g opacity="0.2">
<path d="M9.56627 30.1641L10.5242 32.6132C8.93366 33.3271 7.59613 34.032 6.08689 34.746C5.66214 33.6344 5.31872 32.5228 5.06567 31.4293C6.62913 30.9051 7.9034 30.6069 9.56627 30.1731V30.1641Z" fill="white"/>
</g>
<g opacity="0.2">
<path d="M4.75857 29.7845C4.24344 26.3141 4.6682 23.0516 6.13225 20.3404C7.18962 20.2139 8.24699 20.1326 9.3134 20.1235L9.06939 28.6006C7.60534 28.9621 6.0961 29.2784 4.76761 29.7754L4.75857 29.7845Z" fill="white"/>
</g>
<path opacity="0.4" d="M38.5674 21.8496C29.53 14.1678 19.6974 9.59493 12.6302 13.1285C11.1571 13.8696 8.61762 17.0327 7.54218 18.2889C1.33352 25.6091 5.14728 39.0567 16.0734 48.338C26.9996 57.6194 40.89 59.21 47.0987 51.8897C48.0024 50.8233 50.6594 47.85 51.1474 46.5577C54.0213 38.9663 47.912 29.7753 38.5764 21.8496H38.5674Z" fill="#877700"/>
<path d="M50.5587 47.5775C56.7717 40.2617 53.0158 26.8638 42.1695 17.6525C31.3233 8.44119 17.494 6.90457 11.2809 14.2204C5.06791 21.5362 8.82387 34.934 19.6701 44.1454C30.5164 53.3567 44.3457 54.8933 50.5587 47.5775Z" fill="#FAE366"/>
<path d="M44.4246 42.3619C48.67 37.363 45.999 28.1194 38.4587 21.7157C30.9185 15.3121 21.3643 14.1733 17.1189 19.1723C12.8735 24.1712 15.5445 33.4148 23.0847 39.8185C30.625 46.2221 40.1792 47.3609 44.4246 42.3619Z" fill="#FAE366"/>
<path opacity="0.2" d="M44.4246 42.3619C48.67 37.363 45.999 28.1194 38.4587 21.7157C30.9185 15.3121 21.3643 14.1733 17.1189 19.1723C12.8735 24.1712 15.5445 33.4148 23.0847 39.8185C30.625 46.2221 40.1792 47.3609 44.4246 42.3619Z" fill="#877700"/>
<path opacity="0.2" d="M23.5293 38.7225C31.0665 45.1299 40.628 46.2686 44.8665 41.271C45.3364 40.7197 45.716 40.1142 46.0142 39.4635C45.6798 40.557 45.1557 41.5602 44.4146 42.4368C40.1671 47.4345 30.6146 46.2958 23.0774 39.8883C16.3717 34.1948 13.5159 26.2509 15.956 21.0454C14.3926 26.2148 17.2935 33.4356 23.5203 38.7225H23.5293Z" fill="#877700"/>
<path opacity="0.2" d="M16.4079 30.9953C16.1187 30.9953 9.62085 30.1548 9.62085 30.1548L10.4975 32.5316L17.4291 33.2456L16.4079 30.9862V30.9953Z" fill="white"/>
<path opacity="0.2" d="M48.9604 49.115C48.7344 49.2957 48.5085 49.4674 48.2735 49.6301L45.725 51.0128C45.725 51.0128 45.7069 51.0218 45.6888 51.0309L26.5387 48.7806C26.5387 48.7806 26.5116 48.7716 26.5026 48.7625L22.011 45.979C22.011 45.979 21.9929 45.97 21.9839 45.9609C22.0743 45.97 46.0684 49.0156 48.9604 49.124V49.115Z" fill="white"/>
<path opacity="0.2" d="M37.519 14.2763C32.7383 13.7883 19.6793 12.1073 14.6816 11.4566C20.5559 8.20319 29.4125 9.28767 37.519 14.2763Z" fill="white"/>
<path opacity="0.2" d="M15.6487 28.8352L9.11473 28.6003C9.11473 28.6003 7.79527 22.8525 8.51826 20.2588L15.9018 21.1264C15.9018 21.1264 15.9018 21.1354 15.9018 21.1444C14.9257 23.3586 14.8715 26.0427 15.6578 28.8352H15.6487Z" fill="white"/>
<path opacity="0.2" d="M40.7273 23.8831L48.8699 25.0941C50.8491 28.0493 52.2318 31.122 52.9639 34.1043L45.7521 32.1793C44.8664 29.3687 43.1583 26.4768 40.7273 23.874V23.8831Z" fill="white"/>
<path d="M8.39164 19.2017C6.41246 27.3624 11.0486 35.9117 16.5253 41.6414C19.86 45.1389 23.8817 48.0489 28.3009 50.01C32.0966 51.6909 36.2899 52.7393 40.4652 52.5043C44.3693 52.2784 48.2012 50.8324 50.7949 47.8139C51.075 47.4886 50.5961 47.0006 50.3159 47.3349C45.3002 53.1821 36.5249 52.5133 29.9909 49.9829C21.5952 46.7294 14.1304 39.8972 10.5425 31.5828C8.90677 27.7872 8.05726 23.4583 9.04233 19.3824C9.14174 18.9577 8.49105 18.7769 8.39164 19.2017Z" fill="#A39117"/>
<g clip-path="url(#clip3_323_16354)">
<path fill-rule="evenodd" clip-rule="evenodd" d="M32.9379 29.551L35.3317 27.2478L40.1414 32.2592C40.4574 34.838 39.7472 36.8101 37.741 38.451C36.128 39.7678 33.7998 40.0996 31.6402 39.589C29.5256 39.0887 27.5558 37.7464 26.0841 36.2163C24.6124 34.6862 23.3237 32.5358 23.0102 30.2827C22.6858 27.9739 23.0891 26.1032 24.4488 24.5749C25.8086 23.0465 27.7481 22.2418 30.519 22.2238L31.2275 26.1396C30.793 26.0227 28.7187 25.5789 27.1765 27.2074C26.4607 27.9605 26.0724 29.0661 26.2541 30.42C26.4284 31.7545 26.952 33.0091 28.1478 34.2457C29.3436 35.4822 30.6763 36.1707 31.8856 36.3639C33.1061 36.5596 34.3977 36.3401 35.0612 35.7643C35.9622 34.9767 36.4299 34.1967 36.5885 33.3461L32.9491 29.5536L32.9379 29.551Z" fill="#A39117"/>
</g>
<defs>
<clipPath id="clip0_323_16354">
<rect width="13.6777" height="14.9774" fill="white" transform="translate(176.658 68.5229) rotate(20.6019)"/>
</clipPath>
<clipPath id="clip1_323_16354">
<rect width="86.17" height="91.85" fill="white" transform="translate(59 17.1499)"/>
</clipPath>
<clipPath id="clip2_323_16354">
<rect width="28.94" height="31.69" fill="white" transform="translate(84 44.1499)"/>
</clipPath>
<clipPath id="clip3_323_16354">
<rect width="16.6804" height="18.2655" fill="white" transform="translate(20.8171 37.1187) rotate(-77.144)"/>
</clipPath>
</defs>
</svg>
