<svg width="90" height="90" viewBox="0 0 90 90" fill="none" xmlns="http://www.w3.org/2000/svg">
<path fill-rule="evenodd" clip-rule="evenodd" d="M44.5614 89.1228C69.172 89.1228 89.1228 69.172 89.1228 44.5614C89.1228 19.9508 69.172 0 44.5614 0C19.9508 0 0 19.9508 0 44.5614C0 69.172 19.9508 89.1228 44.5614 89.1228Z" fill="#F4A4A4"/>
<path d="M45.0234 20C46.3359 20 47.5547 20.75 48.2109 21.875L68.4609 56.375C69.1172 57.5938 69.1172 59 68.4609 60.125C67.8047 61.3438 66.5859 62 65.2734 62H24.7734C23.3672 62 22.1484 61.3438 21.4922 60.125C20.8359 59 20.8359 57.5938 21.4922 56.375L41.7422 21.875C42.3984 20.75 43.6172 20 45.0234 20ZM45.0234 32C43.7109 32 42.7734 33.0312 42.7734 34.25V44.75C42.7734 46.0625 43.7109 47 45.0234 47C46.2422 47 47.2734 46.0625 47.2734 44.75V34.25C47.2734 33.0312 46.2422 32 45.0234 32ZM48.0234 53C48.0234 51.4062 46.6172 50 45.0234 50C43.3359 50 42.0234 51.4062 42.0234 53C42.0234 54.6875 43.3359 56 45.0234 56C46.6172 56 48.0234 54.6875 48.0234 53Z" fill="#9A3F3F"/>
</svg>
