<svg width="160" height="160" viewBox="0 0 160 160" fill="none" xmlns="http://www.w3.org/2000/svg">
<path d="M80 130C61.875 130 45.625 120.625 36.5625 105C27.5 89.6875 27.5 70.625 36.5625 55C45.625 39.6875 61.875 30 80 30C97.8125 30 114.062 39.6875 123.125 55C132.188 70.625 132.188 89.6875 123.125 105C114.062 120.625 97.8125 130 80 130ZM62.5 60C58.125 60 55 63.4375 55 67.5C55 71.875 58.125 75 62.5 75C66.5625 75 70 71.875 70 67.5C70 63.4375 66.5625 60 62.5 60ZM90 67.5C90 71.875 93.125 75 97.5 75C101.562 75 105 71.875 105 67.5C105 63.4375 101.562 60 97.5 60C93.125 60 90 63.4375 90 67.5ZM60 91.5625C58.125 89.6875 55 89.6875 52.8125 91.5625C50.9375 93.4375 50.9375 96.5625 52.8125 98.75C59.6875 105.625 69.375 110 80 110C90.625 110 100 105.625 106.875 98.4375C108.75 96.5625 108.75 93.4375 106.875 91.5625C104.688 89.6875 101.562 89.6875 99.6875 91.5625C94.6875 96.875 87.8125 100 80 100C72.1875 100 65 96.875 60 91.5625Z" fill="#2E2957"/>
<path opacity="0.4" d="M0 17.5C0 8.125 7.8125 0 17.5 0H42.5C46.5625 0 50 3.4375 50 7.5C50 11.875 46.5625 15 42.5 15H17.5C15.9375 15 15 16.25 15 17.5V42.5C15 46.875 11.5625 50 7.5 50C3.125 50 0 46.875 0 42.5V17.5ZM110 7.5C110 3.4375 113.125 0 117.5 0H142.5C151.875 0 160 8.125 160 17.5V42.5C160 46.875 156.562 50 152.5 50C148.125 50 145 46.875 145 42.5V17.5C145 16.25 143.75 15 142.5 15H117.5C113.125 15 110 11.875 110 7.5ZM7.5 110C11.5625 110 15 113.438 15 117.5V142.5C15 144.062 15.9375 145 17.5 145H42.5C46.5625 145 50 148.438 50 152.5C50 156.875 46.5625 160 42.5 160H17.5C7.8125 160 0 152.188 0 142.5V117.5C0 113.438 3.125 110 7.5 110ZM152.5 110C156.562 110 160 113.438 160 117.5V142.5C160 152.188 151.875 160 142.5 160H117.5C113.125 160 110 156.875 110 152.5C110 148.438 113.125 145 117.5 145H142.5C143.75 145 145 144.062 145 142.5V117.5C145 113.438 148.125 110 152.5 110Z" fill="#2E2957"/>
</svg>
