<svg width="240" height="240" viewBox="0 0 240 240" fill="none" xmlns="http://www.w3.org/2000/svg">
<circle cx="120" cy="119" r="105" fill="#F9EDFF"/>
<path d="M109.648 77.3719C104.004 77.3719 99.0915 81.2295 97.753 86.7122L86.2902 133.668C84.9323 139.231 87.644 144.952 93.0985 146.695C104.251 150.258 124.406 154.475 146.709 148.569C152.592 147.011 155.704 140.842 154.266 134.928L142.552 86.7244C141.218 81.2358 136.302 77.3719 130.654 77.3719H109.648Z" fill="#6768E6"/>
<path d="M166.04 60.2166C166.04 60.2166 160.588 51.1771 163.458 49.1683C166.327 47.1595 168.265 48.3786 168.265 48.3786L166.04 60.2166Z" fill="#F8B79B"/>
<path d="M73.9237 60.2166C73.9237 60.2166 79.3761 51.1771 76.5064 49.1683C73.6367 47.1595 71.6991 48.3786 71.6991 48.3786L73.9237 60.2166Z" fill="#F8B79B"/>
<path d="M100.899 82.8247C100.899 82.8247 110.402 80.1938 121.147 79.9069C131.891 79.6199 139.066 82.8247 139.066 82.8247L136.848 122.952L147.388 221.669L161.019 232H134.618L122.852 137.444H117.973L109.938 232H81.098L94.5855 223.104L104.486 122.809L100.899 82.8247Z" fill="#F8B79B"/>
<path d="M137 95.9873C137 95.9873 164.137 96.322 167.77 93.5595C171.403 90.797 176.853 63.847 176.999 55.9385C177.144 48.0313 166.462 54.4749 166.462 54.4749L161.302 79.415L139.067 81.2281L137 95.9873Z" fill="#F8B79B"/>
<path d="M165.826 46.923C164.711 50.1818 163.36 54.2717 165.108 56.0303C166.858 57.7877 176.659 61.2714 179.242 58.4018C181.825 55.5321 182.902 49.7927 181.251 47.4247C179.6 45.0566 167.691 41.4706 165.826 46.923Z" fill="#F8B79B"/>
<path d="M103 95.9873C103 95.9873 75.8634 96.322 72.2303 93.5595C68.5971 90.797 63.1468 63.847 63.0015 55.9385C62.8561 48.0313 73.5382 54.4749 73.5382 54.4749L78.6979 79.415L100.933 81.2281L103 95.9873Z" fill="#F8B79B"/>
<path d="M74.1394 46.923C75.254 50.1818 76.6062 54.2717 74.8569 56.0303C73.1086 57.7877 63.3058 61.2714 60.7231 58.4018C58.1404 55.5321 57.0637 49.7927 58.7143 47.4247C60.365 45.0566 72.2741 41.4706 74.1394 46.923Z" fill="#F8B79B"/>
<path d="M104.486 122.809L136.848 122.952L137.067 118.983H104.143L104.486 122.809Z" fill="#FBAE46"/>
<path d="M136.848 122.952L128.567 122.915L130.026 122.922V118.983H127.156V122.91L114.338 122.852V118.983H111.517V122.84L104.486 122.809L101.197 156.122L116.278 157.393L117.973 137.444H122.852L125.252 156.729L140.278 155.083L136.848 122.952Z" fill="#2A0053"/>
<path d="M104.773 174.822C104.773 174.822 101.473 177.405 104.773 178.912" stroke="#DE7651" stroke-width="1.1388" stroke-miterlimit="10" stroke-linecap="round" stroke-linejoin="round"/>
<path d="M138.922 176.866C138.922 176.866 141.505 179.341 138.922 180.92" stroke="#DE7651" stroke-width="1.1388" stroke-miterlimit="10" stroke-linecap="round" stroke-linejoin="round"/>
<path d="M109.938 232L111.413 214.646L95.5451 213.383L94.5855 223.104L81.098 232H109.938Z" fill="#2A0053"/>
<path d="M137.067 118.983L139.065 82.8247C139.065 82.8247 131.891 79.6199 121.147 79.9069C110.403 80.1938 100.899 82.8247 100.899 82.8247L104.143 118.983H137.067Z" fill="#3BC493"/>
<path d="M134.618 232H161.019L147.388 221.669L146.513 213.478L132.488 214.89L134.618 232Z" fill="#2A0053"/>
<path d="M111.526 96.0459C113.103 98.748 115.224 102.332 116.948 105.232C118.388 107.654 121.828 107.825 123.503 105.559L130.53 96.0482C131.557 94.657 130.597 92.6838 128.867 92.6367L113.801 92.2258C111.805 92.1718 110.52 94.3218 111.526 96.0459Z" fill="black"/>
<path d="M100.134 81.5334C99.7175 83.8417 100.516 85.9332 104.008 85.2157C107.5 84.4983 110.226 83.8291 109.843 80.4326C109.461 77.0372 100.66 78.6155 100.134 81.5334Z" fill="#6768E6"/>
<path d="M131.557 79.8885C131.203 82.8683 139.067 85.6932 140.071 83.3504C141.076 81.0065 140.023 79.8115 137.345 78.8072C134.666 77.8028 131.844 77.4791 131.557 79.8885Z" fill="#6768E6"/>
<path d="M120.774 83.3574C118.995 83.3574 117.553 81.9145 117.553 80.1365V69.5519C117.553 67.7727 118.996 66.331 120.774 66.331C122.553 66.331 123.995 67.7727 123.995 69.5519V80.1365C123.996 81.9157 122.553 83.3574 120.774 83.3574Z" fill="#F8B79B"/>
<path d="M94.5958 60.7856C94.5958 60.7856 87.9002 72.0072 94.978 75.9146C102.057 79.8219 115.066 73.6992 115.066 73.317C115.066 72.9347 98.8038 58.6816 98.8038 58.6816L94.5958 60.7856Z" fill="#784E28"/>
<path d="M126.545 72.6466C126.545 72.6466 136.015 81.6378 142.997 77.6203C149.98 73.6027 144.911 66.3333 145.867 61.5501C146.823 56.7669 140.606 57.2456 140.606 57.2456L126.545 72.6466Z" fill="#784E28"/>
<path d="M148.19 51.6027C147.277 51.6027 146.409 51.7864 145.615 52.1147C145.629 51.7726 145.667 51.4374 145.667 51.0919C145.667 37.3829 134.553 26.2692 120.844 26.2692C107.135 26.2692 96.0215 37.3829 96.0215 51.0919C96.0215 51.3835 96.0548 51.6658 96.0651 51.9551C95.3925 51.7301 94.675 51.6027 93.9266 51.6027C90.2018 51.6027 87.1829 54.6216 87.1829 58.3465C87.1829 62.0713 90.2018 65.0902 93.9266 65.0902C95.9342 65.0902 97.7306 64.2086 98.9658 62.8163C103.152 70.6115 111.377 75.9135 120.844 75.9135C130.439 75.9135 138.748 70.46 142.879 62.4914C144.113 64.0709 146.031 65.0902 148.19 65.0902C151.915 65.0902 154.934 62.0713 154.934 58.3465C154.934 54.6216 151.915 51.6027 148.19 51.6027Z" fill="#F8B79B"/>
<path d="M96.0651 51.955L93.9266 51.6026L93.4962 41.4864L146.442 40.9847L146.997 51.7116L145.615 52.1145L96.0651 51.955Z" fill="#3BC493"/>
<path d="M109.853 48.3266C109.853 47.0584 108.826 46.0308 107.558 46.0308C106.289 46.0308 105.262 47.0584 105.262 48.3266C105.262 49.5948 106.289 50.6223 107.558 50.6223C108.826 50.6223 109.853 49.5948 109.853 48.3266Z" fill="#070904"/>
<path d="M137.599 48.8696C137.599 47.6014 136.571 46.5739 135.303 46.5739C134.035 46.5739 133.007 47.6014 133.007 48.8696C133.007 50.1378 134.035 51.1654 135.303 51.1654C136.571 51.1654 137.599 50.1378 137.599 48.8696Z" fill="#070904"/>
<path d="M93.496 41.4864C93.496 41.4864 87.0392 28.931 92.8738 17.357C98.7085 5.78301 124.635 -1.29592 139.317 8.93966C153.998 19.1752 149.598 36.8708 146.442 40.9848L93.496 41.4864Z" fill="#784E28"/>
<path d="M103.527 43.4837C103.25 46.4888 112.423 46.4257 112.531 44.7039C112.638 42.9821 103.742 41.1524 103.527 43.4837Z" fill="#784E28"/>
<path d="M139.351 42.9247C139.629 45.931 130.455 45.8667 130.347 44.1449C130.241 42.422 139.137 40.5934 139.351 42.9247Z" fill="#784E28"/>
<path d="M121.439 52.607C121.69 52.5714 123.807 53.073 123.986 54.0774C124.165 55.0818 121.834 55.6202 121.834 55.6202" stroke="#DE7651" stroke-width="1.1388" stroke-miterlimit="10" stroke-linecap="round" stroke-linejoin="round"/>
<path d="M108.729 55.6202L117.1 59.8535C117.1 59.8535 114.301 62.7955 110.571 61.2172C106.84 59.6389 108.729 55.6202 108.729 55.6202Z" fill="#F6F8F7"/>
<path d="M84.9668 138.03L94.046 205.501C94.046 205.501 67.3425 219.742 37.7903 204.077C37.7903 204.077 19.6319 201.762 10.6413 191.793L47.3736 137.14L84.9668 138.03Z" fill="#6768E6"/>
<path d="M48.8284 146.085C48.8284 146.085 16.2502 106.584 10.6424 100.032L16.5172 96.5089L50.4306 131.973C50.4306 131.973 59.7491 130.82 68.1746 130.82C68.1746 130.82 78.9148 131.709 84.9668 134.291C91.02 136.873 104.994 147.554 105.529 153.785C106.063 160.015 94.4017 170.786 79.8932 176.127L99.6986 230.023L115.32 239.766H91.7474L68.9896 189.879L62.0467 190.68L59.2428 239.766H34.8091L48.2944 229.089L48.8284 146.085ZM83.1425 166.313C83.1425 166.313 92.3552 159.169 96.4942 154.863L82.7814 142.956L80.8054 165.778L83.1425 166.313Z" fill="#070904"/>
<path d="M83.7726 222.486L95.5221 217.858L99.6986 230.023L115.32 239.766H91.7474L83.7726 222.486Z" fill="#FBC30C"/>
<path d="M48.2948 229.089L48.3439 218.866C51.998 219.373 57.4498 219.895 60.6296 220.35L59.2432 239.766H34.8095L48.2948 229.089Z" fill="#FBC30C"/>
<path d="M48.7216 168.383H83.276L84.9669 172.388L48.6992 173.063L48.7216 168.383Z" fill="#3BC493"/>
<path d="M48.6991 173.063L58.0432 172.889L58.3744 168.383H61.1141V172.832L68.1863 172.7L68.9895 168.383H71.6599L71.3896 172.64L80.6002 172.47L79.8931 176.127L68.9895 189.879L62.0466 190.68L48.6991 175.86V173.063Z" fill="#FBC30C"/>
<path d="M65.7403 155.298C62.6432 155.298 60.1325 152.787 60.1325 149.69C60.1325 146.593 62.6432 144.083 65.7403 144.083C68.8374 144.083 71.348 146.593 71.348 149.69C71.348 152.787 68.8374 155.298 65.7403 155.298Z" fill="#FBC30C"/>
<path d="M80.6056 169.406C80.6056 169.406 76.1547 169.629 76.1109 168.517C76.066 167.404 80.6056 167.315 80.6056 167.315L80.8065 165.779L83.1435 166.313C83.1435 166.313 83.8442 165.769 84.9263 164.907C86.8927 167.055 88.5569 169.536 89.7286 171.472C86.7005 173.244 83.3807 174.843 79.8943 176.127C79.8943 176.127 77.7131 176.172 77.3126 175.459C76.912 174.747 80.6003 172.47 80.6003 172.47C80.6003 172.47 76.2444 173.235 75.8439 172.122C75.4422 171.009 80.6056 169.406 80.6056 169.406Z" fill="#3BC493"/>
<path d="M16.5172 96.5089L22.5682 102.837L16.9968 107.612C14.0904 104.119 11.7928 101.375 10.6425 100.031L16.5172 96.5089Z" fill="#3BC493"/>
<path d="M90.0138 113.269C90.0138 113.269 92.8411 121.08 84.6303 121.147C84.6303 121.147 83.3614 129.091 76.8863 125.086C76.8863 125.086 73.2813 129.693 69.342 126.688L62.3318 126.02C62.3318 126.02 54.8548 129.225 51.7839 122.549C51.7839 122.549 46.7284 123.315 46.4432 118.343C46.4432 118.343 41.2948 118.142 43.5689 111.533L62.131 109.13L89.7029 111.067L90.0138 113.269Z" fill="black"/>
<path d="M66.4047 135.166C68.6905 135.166 70.5437 133.313 70.5437 131.027V115.138C70.5437 112.852 68.6905 110.999 66.4047 110.999C64.1188 110.999 62.2656 112.852 62.2656 115.138V131.027C62.2656 133.313 64.1188 135.166 66.4047 135.166Z" fill="#BA7948"/>
<path d="M43.57 99.3277C45.0397 87.8623 54.8282 79 66.6931 79C79.5727 79 90.0138 89.4411 90.0138 102.321C90.0138 102.349 90.0117 102.378 90.0117 102.407C90.6696 102.182 91.3725 102.054 92.1074 102.054C95.6835 102.054 98.5835 104.953 98.5835 108.53C98.5835 112.106 95.6846 115.006 92.1074 115.006C90.2637 115.006 88.6049 114.233 87.4257 112.996C83.5515 120.505 75.7253 125.642 66.6931 125.642C57.3052 125.642 49.2183 120.092 45.5204 112.097C45.0729 112.196 44.6093 112.25 44.1318 112.25C40.5557 112.25 37.6557 109.351 37.6557 105.774C37.6568 102.388 40.2577 99.6129 43.57 99.3277Z" fill="#BA7948"/>
<path d="M17.5856 93.346C19.1194 95.5988 18.4871 98.1858 14.4143 100.856C10.3415 103.526 8.57262 103.093 7.20433 101.624C5.83604 100.155 4.40046 97.4178 5.86915 94.5146C7.33785 91.6103 9.97507 89.6076 13.2799 90.1416C15.9684 90.5764 16.5174 91.777 17.5856 93.346Z" fill="#3BC493"/>
<path d="M43.5695 99.3277C45.0393 87.8623 54.8277 79 66.6926 79C79.5723 79 90.0134 89.4411 90.0134 102.321C90.0134 102.349 90.0112 102.378 90.0112 102.407C90.0112 102.407 61.0561 115.428 43.5695 99.3277Z" fill="#3BC493"/>
<path d="M77.2271 104.867C76.0473 104.867 75.0909 103.911 75.0909 102.731C75.0909 101.551 76.0473 100.595 77.2271 100.595C78.407 100.595 79.3634 101.551 79.3634 102.731C79.3634 103.911 78.407 104.867 77.2271 104.867Z" fill="black"/>
<path d="M56.2669 103.665C55.0871 103.665 54.1307 102.709 54.1307 101.529C54.1307 100.349 55.0871 99.3929 56.2669 99.3929C57.4468 99.3929 58.4032 100.349 58.4032 101.529C58.4032 102.709 57.4468 103.665 56.2669 103.665Z" fill="black"/>
<path d="M81.3682 98.4956C81.2903 100.445 72.868 99.7998 73.0901 98.0801C73.3123 96.3593 81.4569 96.2696 81.3682 98.4956Z" fill="black"/>
<path d="M60.407 97.5621C60.3291 99.5115 51.9068 98.8663 52.129 97.1466C52.3522 95.4259 60.4968 95.3361 60.407 97.5621Z" fill="black"/>
<path d="M65.9374 115.005L56.5912 111.065C56.5912 111.065 55.0552 116.74 58.6613 118.343C62.2673 119.945 65.2699 116.808 65.9374 115.005Z" fill="#F6F8F7"/>
<path d="M67.4728 107.84C67.4728 107.84 70.2766 108.996 67.2057 110.421" stroke="#84583A" stroke-width="1.14" stroke-miterlimit="10" stroke-linecap="round" stroke-linejoin="round"/>
<path d="M16.351 93.3461C16.4845 93.2457 18.154 91.1094 19.2884 92.4446C20.4228 93.7798 20.6236 96.8838 19.2884 99.3213C17.9532 101.758 14.8823 97.0184 14.8823 96.918C14.8823 96.8176 16.351 93.3461 16.351 93.3461Z" fill="#3BC493"/>
<path d="M165.154 124.861L155.285 220.422C155.285 220.422 189.932 229.745 223.544 220.422L212.212 126.571L165.154 124.861Z" fill="#3D4347"/>
<path d="M162.946 88.7273C162.946 88.7273 163.182 59.0081 189.739 58.5284C189.739 58.5284 197.22 51.7213 199.616 52.0089C202.012 52.2965 200.115 59.4867 200.115 59.4867C200.115 59.4867 204.218 53.4227 205.441 54.0704C206.663 54.7181 204.434 60.1102 204.434 60.1102C204.434 60.1102 217.017 67.2291 216.73 88.7273C216.442 110.226 217.88 123.744 217.88 123.744L161.796 123.025L162.946 88.7273Z" fill="#6768E6"/>
<path d="M235.602 135.853C230.232 131.155 213.168 117.446 207.703 114.953C202.239 112.46 196.774 111.309 190.83 111.262C177.525 111.155 152.937 124.421 147.689 127.943C142.44 131.466 141.289 136.14 145.819 139.735C150.349 143.33 165.018 153.901 170.985 156.56L164.514 229.134L153.728 239.631C153.728 239.631 177.169 239.488 176.881 239.631C176.593 239.775 185.222 182.733 185.222 182.733L190.111 183.164L199.458 239.631H224.96L212.688 231.147L205.403 161.162C205.403 161.162 226.303 154.643 233.109 149.466C239.916 144.289 240.97 140.55 235.602 135.853ZM169.619 146.997C169.403 146.997 158.474 138.512 153.728 135.564L171.057 126.432L171.489 146.133C171.489 146.133 169.834 146.997 169.619 146.997ZM210.483 149.753L208.087 148.22L208.915 127.81L228.11 142.468C223.591 143.618 210.483 149.753 210.483 149.753Z" fill="#F5AE8F"/>
<path d="M190.829 111.262C182.478 111.194 169.685 116.396 160.016 121.149L163.935 130.186L171.055 126.434L171.487 146.135L168.457 150.073C168.457 150.073 170.758 155.837 170.984 156.562C170.999 156.608 170.995 156.65 170.976 156.692L170.815 159.267L206.648 158.072L209.106 157.271L207.846 150.906L208.086 148.222L208.914 127.812L214.013 131.706C215.726 128.588 217.877 124.605 218.995 122.531C214.336 119.028 209.997 116.002 207.703 114.956C202.238 112.46 196.774 111.309 190.829 111.262Z" fill="#070904"/>
<path d="M171.56 148.698L171.488 146.134C171.488 146.134 169.833 146.997 169.618 146.997C169.518 146.997 167.077 145.145 164.029 142.876L160.932 150.574C164.868 153.193 168.614 155.503 170.985 156.56C170.985 156.56 174.724 157.855 175.155 156.944C175.587 156.032 170.553 153.875 170.553 153.875C170.553 153.875 176.498 155.553 176.642 153.924C176.785 152.294 171.513 151.431 171.513 151.431C171.513 151.431 177.601 151.335 177.601 149.897C177.601 148.459 171.56 148.698 171.56 148.698Z" fill="#F8931F"/>
<path d="M206.649 158.07L170.816 159.264L170.636 162.119L205.403 161.162L206.649 158.07Z" fill="#F8931F"/>
<path d="M210.483 149.753L208.087 148.22L207.847 150.904C207.847 150.904 201.52 150.952 201.664 152.869C201.77 154.285 204.827 154.027 206.421 153.796C204.651 154.118 201.038 154.896 201.329 155.84C201.712 157.086 207.177 156.559 207.177 156.559C207.177 156.559 202.048 160.298 203.198 161.017C204.349 161.736 205.404 161.161 205.404 161.161C205.404 161.161 212.75 158.869 220.15 155.924L216.441 147.051C213.123 148.518 210.483 149.753 210.483 149.753Z" fill="#F8931F"/>
<path d="M190.83 111.262C185.385 111.218 178.051 113.414 170.925 116.266C171.741 125.052 174.725 141.201 189.872 141.797C203.321 142.326 208.967 124.341 210.757 116.696C209.543 115.921 208.498 115.316 207.703 114.954C202.239 112.46 196.774 111.309 190.83 111.262Z" fill="#3D4347"/>
<path d="M170.5 162L167.5 188.5C172 190 184 193 184 193L185.222 182.733L190.112 183.164L191.5 193L208.5 190L205.403 161.162L170.5 162Z" fill="#070904"/>
<path d="M176.88 239.631C176.799 239.673 178.436 232.624 179.391 222.515L165.106 219.676L164.513 229.135L153.728 239.633C153.728 239.633 177.168 239.488 176.88 239.631Z" fill="#F8931F"/>
<path d="M211.991 221.511L196.615 222.448L199.458 239.631H224.96L212.688 231.147L211.991 221.511Z" fill="#F8931F"/>
<path d="M164.961 221.993L164.821 224.224L177.972 226.979C178.042 226.231 178.113 225.464 178.188 224.669L164.961 221.993Z" fill="#070904"/>
<path d="M198.185 227.773L212.34 226.352L212.175 224.058L197.929 225.372L198.185 227.773Z" fill="#070904"/>
<path d="M190.364 114.172C189.385 114.172 188.59 113.378 188.59 112.398V104.8C188.59 103.821 189.384 103.026 190.364 103.026C191.343 103.026 192.138 103.82 192.138 104.8V112.398C192.138 113.378 191.344 114.172 190.364 114.172Z" fill="#F8B79B"/>
<path d="M193.935 120.652H186.457V129.641H193.935V120.652Z" fill="#3BC493"/>
<path d="M191.009 156.316H184.948V164.081H191.009V156.316Z" fill="#F8931F"/>
<path d="M215.98 84.4387C215.2 84.4387 214.452 84.5675 213.749 84.7976C213.189 72.4799 203.055 62.6575 190.599 62.6575C177.923 62.6575 167.638 72.8273 167.418 85.4511C166.346 84.8126 165.099 84.4387 163.76 84.4387C159.803 84.4387 156.595 87.6461 156.595 91.6036C156.595 95.5599 159.802 98.7685 163.76 98.7685C166.184 98.7685 168.322 97.5617 169.619 95.7187C173.328 103.597 181.315 109.063 190.599 109.063C199.457 109.063 207.149 104.097 211.059 96.8012C212.343 98.0173 214.072 98.7685 215.98 98.7685C219.937 98.7685 223.145 95.5611 223.145 91.6036C223.145 87.6461 219.937 84.4387 215.98 84.4387Z" fill="#F5AE8F"/>
<path d="M183.313 85.8592C183.313 84.5882 182.283 83.5583 181.012 83.5583C179.741 83.5583 178.711 84.5882 178.711 85.8592C178.711 87.1302 179.741 88.1601 181.012 88.1601C182.283 88.1601 183.313 87.1302 183.313 85.8592Z" fill="#563E4C"/>
<path d="M203.59 85.8592C203.59 84.5882 202.56 83.5583 201.289 83.5583C200.018 83.5583 198.988 84.5882 198.988 85.8592C198.988 87.1302 200.018 88.1601 201.289 88.1601C202.56 88.1601 203.59 87.1302 203.59 85.8592Z" fill="#563E4C"/>
<path d="M216.729 96.9245C217.364 96.9245 217.879 96.4095 217.879 95.7741C217.879 95.1387 217.364 94.6237 216.729 94.6237C216.094 94.6237 215.578 95.1387 215.578 95.7741C215.578 96.4095 216.094 96.9245 216.729 96.9245Z" fill="#F6F8F7"/>
<path d="M189.739 85.8593L188.591 87.0338C188.591 87.0338 189.118 88.0083 190.317 87.9599" stroke="#DE7651" stroke-width="1.14135" stroke-miterlimit="10" stroke-linecap="round" stroke-linejoin="round"/>
<path d="M190.556 92.5621C190.556 92.5621 194.679 92.6576 197.651 90.3567" stroke="#DE7651" stroke-width="1.14135" stroke-miterlimit="10" stroke-linecap="round" stroke-linejoin="round"/>
<path d="M167.419 85.4509C167.419 85.4509 165.103 98.8891 169.225 99.6081C173.347 100.327 173.156 84.6847 173.156 84.6847C173.156 84.6847 184.229 83.1178 196.165 72.6201C196.165 72.6201 202.277 83.1661 205.943 86.1262C205.943 86.1262 206.797 99.7991 210.756 100.087C214.715 100.374 213.749 84.7963 213.749 84.7963C213.749 84.7963 213.679 63.3441 191.008 62.0499C168.338 60.7568 166.354 80.5937 167.419 85.4509Z" fill="#6768E6"/>
</svg>
