<svg width="54" height="54" viewBox="0 0 54 54" fill="none" xmlns="http://www.w3.org/2000/svg">
<g clip-path="url(#clip0_13722_10512)">
<mask id="mask0_13722_10512" style="mask-type:alpha" maskUnits="userSpaceOnUse" x="0" y="0" width="54" height="54">
<circle cx="27" cy="27" r="27" fill="#D9D9D9"/>
</mask>
<g mask="url(#mask0_13722_10512)">
<circle cx="27" cy="27" r="27" fill="#FFEDE3"/>
<path d="M24.2953 26.5621C21.9377 26.5621 19.8855 28.1737 19.3263 30.464L14.5377 50.0799C13.9705 52.4038 15.1033 54.7939 17.3819 55.5219C22.0408 57.0103 30.4606 58.7721 39.7775 56.3049C42.2352 55.654 43.5352 53.0769 42.9348 50.6064L38.041 30.4692C37.4837 28.1763 35.4303 26.5621 33.0707 26.5621H24.2953Z" fill="#6768E6"/>
<path d="M47.8534 19.3955C47.8534 19.3955 45.5756 15.6193 46.7745 14.7801C47.9733 13.9409 48.7827 14.4502 48.7827 14.4502L47.8534 19.3955Z" fill="#F8B79B"/>
<path d="M9.37165 19.3955C9.37165 19.3955 11.6494 15.6193 10.4506 14.7801C9.25177 13.9409 8.44232 14.4502 8.44232 14.4502L9.37165 19.3955Z" fill="#F8B79B"/>
<path d="M20.6404 28.84C20.6404 28.84 24.6104 27.741 29.0992 27.6211C33.5876 27.5012 36.5846 28.84 36.5846 28.84L35.6582 45.6032L40.0612 86.8423L45.7555 91.158H34.7265L29.8113 51.6572H27.7734L24.4167 91.158H12.3687L18.0031 87.4417L22.139 45.5433L20.6404 28.84Z" fill="#F8B79B"/>
<path d="M35.7217 34.3387C35.7217 34.3387 47.058 34.4785 48.5758 33.3245C50.0935 32.1704 52.3704 20.9121 52.4311 17.6083C52.4918 14.305 48.0294 16.9969 48.0294 16.9969L45.8739 27.4156L36.5853 28.173L35.7217 34.3387Z" fill="#F8B79B"/>
<path d="M47.7637 13.8421C47.2981 15.2035 46.7337 16.912 47.464 17.6466C48.1948 18.3808 52.2895 19.8361 53.3684 18.6373C54.4473 17.4385 54.8971 15.0409 54.2076 14.0516C53.518 13.0624 48.5429 11.5644 47.7637 13.8421Z" fill="#F8B79B"/>
<path d="M21.5182 34.3387C21.5182 34.3387 10.1819 34.4785 8.66418 33.3245C7.14642 32.1704 4.86955 20.9121 4.80884 17.6083C4.74813 14.305 9.21057 16.9969 9.21057 16.9969L11.366 27.4156L20.6547 28.173L21.5182 34.3387Z" fill="#F8B79B"/>
<path d="M9.46173 13.8421C9.92735 15.2035 10.4922 16.912 9.76143 17.6466C9.03112 18.3808 4.93599 19.8361 3.85706 18.6373C2.77813 17.4385 2.32834 15.0409 3.01789 14.0516C3.70745 13.0624 8.6825 11.5644 9.46173 13.8421Z" fill="#F8B79B"/>
<path d="M22.1389 45.5433L35.6581 45.6032L35.7497 43.945H21.9955L22.1389 45.5433Z" fill="#FBAE46"/>
<path d="M35.6581 45.6032L32.1989 45.5879L32.8083 45.5908V43.945H31.6095V45.5855L26.2547 45.5615V43.945H25.076V45.5562L22.1389 45.5433L20.7651 59.46L27.0651 59.9909L27.7733 51.6572H29.8113L30.814 59.7137L37.091 59.0261L35.6581 45.6032Z" fill="#2A0053"/>
<path d="M35.7498 43.945L36.5846 28.84C36.5846 28.84 33.5876 27.5012 29.0992 27.6211C24.6109 27.741 20.6404 28.84 20.6404 28.84L21.9956 43.945H35.7498Z" fill="#3BC493"/>
<path d="M25.0798 34.3632C25.7387 35.492 26.6249 36.9891 27.3451 38.2009C27.9464 39.2126 29.3836 39.2841 30.0832 38.3375L33.0188 34.3642C33.448 33.783 33.0467 32.9587 32.324 32.939L26.0303 32.7674C25.1964 32.7448 24.6598 33.643 25.0798 34.3632Z" fill="black"/>
<path d="M20.321 28.3006C20.147 29.2649 20.4807 30.1386 21.9394 29.8389C23.3981 29.5392 24.537 29.2596 24.3769 27.8407C24.2172 26.4223 20.5407 27.0816 20.321 28.3006Z" fill="#6768E6"/>
<path d="M33.448 27.6134C33.2999 28.8583 36.5851 30.0384 37.0047 29.0597C37.4243 28.0805 36.9845 27.5813 35.8658 27.1617C34.7466 26.7421 33.5679 26.6069 33.448 27.6134Z" fill="#6768E6"/>
<path d="M28.9434 29.0626C28.2001 29.0626 27.5978 28.4598 27.5978 27.717V23.2954C27.5978 22.5521 28.2006 21.9498 28.9434 21.9498C29.6866 21.9498 30.2889 22.5521 30.2889 23.2954V27.717C30.2894 28.4603 29.6866 29.0626 28.9434 29.0626Z" fill="#F8B79B"/>
<path d="M18.0073 19.6332C18.0073 19.6332 15.2103 24.3211 18.167 25.9534C21.1242 27.5857 26.5587 25.0279 26.5587 24.8682C26.5587 24.7085 19.7653 18.7543 19.7653 18.7543L18.0073 19.6332Z" fill="#784E28"/>
<path d="M31.354 24.5881C31.354 24.5881 35.3101 28.3442 38.227 26.6659C41.144 24.9876 39.0264 21.9507 39.4258 19.9526C39.8253 17.9544 37.2282 18.1543 37.2282 18.1543L31.354 24.5881Z" fill="#784E28"/>
<path d="M40.3963 15.797C40.0151 15.797 39.6521 15.8738 39.3207 16.0109C39.3265 15.868 39.3423 15.728 39.3423 15.5837C39.3423 9.85671 34.6996 5.21396 28.9726 5.21396C23.2457 5.21396 18.6029 9.85671 18.6029 15.5837C18.6029 15.7055 18.6168 15.8234 18.6211 15.9443C18.3401 15.8503 18.0404 15.797 17.7278 15.797C16.1717 15.797 14.9106 17.0582 14.9106 18.6143C14.9106 20.1703 16.1717 21.4315 17.7278 21.4315C18.5665 21.4315 19.3169 21.0632 19.8329 20.4815C21.5817 23.738 25.0175 25.9529 28.9726 25.9529C32.981 25.9529 36.4518 23.6747 38.1776 20.3458C38.693 21.0056 39.4943 21.4315 40.3963 21.4315C41.9524 21.4315 43.2135 20.1703 43.2135 18.6143C43.2135 17.0582 41.9524 15.797 40.3963 15.797Z" fill="#F8B79B"/>
<path d="M18.6212 15.9442L17.7278 15.797L17.548 11.571L39.666 11.3614L39.8981 15.8426L39.3208 16.0109L18.6212 15.9442Z" fill="#3BC493"/>
<path d="M24.3812 14.4285C24.3812 13.8987 23.9519 13.4694 23.4221 13.4694C22.8923 13.4694 22.4631 13.8987 22.4631 14.4285C22.4631 14.9583 22.8923 15.3875 23.4221 15.3875C23.9519 15.3875 24.3812 14.9583 24.3812 14.4285Z" fill="#070904"/>
<path d="M35.9718 14.6553C35.9718 14.1255 35.5425 13.6962 35.0128 13.6962C34.483 13.6962 34.0537 14.1255 34.0537 14.6553C34.0537 15.1851 34.483 15.6143 35.0128 15.6143C35.5425 15.6143 35.9718 15.1851 35.9718 14.6553Z" fill="#070904"/>
<path d="M17.5479 11.571C17.5479 11.571 14.8506 6.32594 17.288 1.4909C19.7255 -3.34414 30.5565 -6.30136 36.6896 -2.02545C42.8227 2.25047 40.9847 9.64281 39.666 11.3614L17.5479 11.571Z" fill="#784E28"/>
<path d="M21.7385 12.4053C21.6225 13.6607 25.4549 13.6343 25.4999 12.9151C25.5445 12.1958 21.8282 11.4314 21.7385 12.4053Z" fill="#784E28"/>
<path d="M36.704 12.1718C36.82 13.4277 32.9877 13.4008 32.9426 12.6816C32.898 11.9618 36.6143 11.1979 36.704 12.1718Z" fill="#784E28"/>
<path d="M29.221 16.2166C29.326 16.2017 30.2103 16.4112 30.2851 16.8308C30.3599 17.2504 29.386 17.4753 29.386 17.4753" stroke="#DE7651" stroke-width="0.475736" stroke-miterlimit="10" stroke-linecap="round" stroke-linejoin="round"/>
<path d="M23.9117 17.4754L27.4084 19.2438C27.4084 19.2438 26.2393 20.4729 24.6809 19.8135C23.1224 19.1542 23.9117 17.4754 23.9117 17.4754Z" fill="#F6F8F7"/>
<path d="M21.9611 43.5596L25.754 71.7456C25.754 71.7456 14.5986 77.695 2.25312 71.1508C2.25312 71.1508 -5.33255 70.1839 -9.08834 66.0193L6.25657 43.1879L21.9611 43.5596Z" fill="#6768E6"/>
<path d="M6.8643 46.9249C6.8643 46.9249 -6.74527 30.423 -9.08791 27.686L-6.63372 26.2143L7.53363 41.0296C7.53363 41.0296 11.4264 40.5476 14.9462 40.5476C14.9462 40.5476 19.4329 40.9193 21.9611 41.9978C24.4898 43.0763 30.3277 47.5385 30.5508 50.1413C30.7739 52.744 25.9025 57.2436 19.8416 59.4747L28.1153 81.99L34.6412 86.0599H24.7937L15.2866 65.2197L12.3862 65.5544L11.2149 86.0599H1.00772L6.6412 81.5995L6.8643 46.9249ZM21.199 55.3749C21.199 55.3749 25.0476 52.3906 26.7767 50.5919L21.0482 45.6175L20.2227 55.1514L21.199 55.3749Z" fill="#070904"/>
<path d="M13.9292 50.7735C12.6354 50.7735 11.5866 49.7247 11.5866 48.4309C11.5866 47.1371 12.6354 46.0883 13.9292 46.0883C15.223 46.0883 16.2719 47.1371 16.2719 48.4309C16.2719 49.7247 15.223 50.7735 13.9292 50.7735Z" fill="#FBC30C"/>
<path d="M24.0695 33.2159C24.0695 33.2159 25.2506 36.479 21.8206 36.5067C21.8206 36.5067 21.2905 39.8256 18.5855 38.1523C18.5855 38.1523 17.0795 40.0768 15.4339 38.8216L12.5054 38.5428C12.5054 38.5428 9.38184 39.8814 8.09897 37.0926C8.09897 37.0926 5.98703 37.4125 5.8679 35.3354C5.8679 35.3354 3.71714 35.2515 4.66713 32.4908L12.4215 31.4868L23.9396 32.2958L24.0695 33.2159Z" fill="black"/>
<path d="M14.2068 42.3633C15.1617 42.3633 15.9359 41.5891 15.9359 40.6342V33.9968C15.9359 33.0419 15.1617 32.2677 14.2068 32.2677C13.2519 32.2677 12.4777 33.0419 12.4777 33.9968V40.6342C12.4777 41.5891 13.2519 42.3633 14.2068 42.3633Z" fill="#BA7948"/>
<path d="M4.66764 27.3919C5.28163 22.6022 9.37075 18.9 14.3273 18.9C19.7078 18.9 24.0695 23.2617 24.0695 28.6422C24.0695 28.6542 24.0687 28.6663 24.0687 28.6783C24.3435 28.5842 24.6371 28.5306 24.9441 28.5306C26.4381 28.5306 27.6495 29.7417 27.6495 31.236C27.6495 32.73 26.4385 33.9414 24.9441 33.9414C24.174 33.9414 23.481 33.6184 22.9884 33.1017C21.3699 36.2385 18.1005 38.3849 14.3273 38.3849C10.4055 38.3849 7.02723 36.0663 5.48243 32.7264C5.29547 32.7674 5.10181 32.7902 4.90235 32.7902C3.40842 32.7902 2.19694 31.5792 2.19694 30.0848C2.19739 28.6703 3.28392 27.511 4.66764 27.3919Z" fill="#BA7948"/>
<path d="M4.66749 27.3919C5.28148 22.6022 9.3706 18.9 14.3272 18.9C19.7076 18.9 24.0694 23.2617 24.0694 28.6422C24.0694 28.6542 24.0685 28.6663 24.0685 28.6783C24.0685 28.6783 11.9725 34.1177 4.66749 27.3919Z" fill="#3BC493"/>
<path d="M18.7279 29.706C18.2351 29.706 17.8355 29.3064 17.8355 28.8136C17.8355 28.3207 18.2351 27.9211 18.7279 27.9211C19.2208 27.9211 19.6204 28.3207 19.6204 28.8136C19.6204 29.3064 19.2208 29.706 18.7279 29.706Z" fill="black"/>
<path d="M9.97177 29.204C9.47889 29.204 9.07934 28.8045 9.07934 28.3116C9.07934 27.8187 9.47889 27.4192 9.97177 27.4192C10.4646 27.4192 10.8642 27.8187 10.8642 28.3116C10.8642 28.8045 10.4646 29.204 9.97177 29.204Z" fill="black"/>
<path d="M20.4578 27.0443C20.4253 27.8586 16.9068 27.5891 16.9997 26.8707C17.0925 26.1518 20.4949 26.1144 20.4578 27.0443Z" fill="black"/>
<path d="M11.7013 26.6543C11.6687 27.4686 8.15031 27.1991 8.24312 26.4807C8.33638 25.7619 11.7388 25.7244 11.7013 26.6543Z" fill="black"/>
<path d="M14.0117 33.941L10.1073 32.2953C10.1073 32.2953 9.46561 34.6661 10.972 35.3354C12.4785 36.0047 13.7328 34.6942 14.0117 33.941Z" fill="#F6F8F7"/>
<path d="M14.653 30.9477C14.653 30.9477 15.8243 31.431 14.5414 32.0262" stroke="#84583A" stroke-width="0.476235" stroke-miterlimit="10" stroke-linecap="round" stroke-linejoin="round"/>
<path d="M26.535 52.5777L22.412 92.4983C22.412 92.4983 36.8858 96.393 50.9273 92.4983L46.1934 53.2922L26.535 52.5777Z" fill="#3D4347"/>
<path d="M25.6123 37.4828C25.6123 37.4828 25.7108 25.0676 36.8054 24.8672C36.8054 24.8672 39.9302 22.0235 40.9313 22.1437C41.9324 22.2638 41.1399 25.2676 41.1399 25.2676C41.1399 25.2676 42.8537 22.7343 43.3646 23.0049C43.8754 23.2755 42.944 25.528 42.944 25.528C42.944 25.528 48.2008 28.502 48.0806 37.4828C47.9605 46.4637 48.5612 52.1112 48.5612 52.1112L25.1322 51.8108L25.6123 37.4828Z" fill="#6768E6"/>
<path d="M55.9643 57.1694C53.7214 55.2072 46.5927 49.4799 44.3099 48.4385C42.0271 47.397 39.7442 46.9164 37.261 46.8967C31.7029 46.852 21.4311 52.3938 19.2387 53.8653C17.0462 55.3369 16.5651 57.2896 18.4577 58.7914C20.3503 60.2933 26.4779 64.709 28.9707 65.8201L26.2674 96.1376L21.7618 100.523C21.7618 100.523 31.5539 100.463 31.4338 100.523C31.3136 100.583 34.9181 76.7537 34.9181 76.7537L36.9606 76.9339L40.8655 100.523H51.5188L46.3923 96.9787L43.3487 67.7425C43.3487 67.7425 52.0797 65.019 54.9229 62.8563C57.7666 60.6936 58.2068 59.1317 55.9643 57.1694ZM28.4003 61.825C28.3099 61.825 23.7442 58.2806 21.7618 57.0488L29.001 53.2338L29.1812 61.464C29.1812 61.464 28.4901 61.825 28.4003 61.825ZM45.471 62.9765L44.4699 62.3358L44.816 53.8096L52.8347 59.9329C50.9469 60.4134 45.471 62.9765 45.471 62.9765Z" fill="#F5AE8F"/>
<path d="M37.2606 46.8968C33.772 46.8685 28.4278 49.0412 24.3884 51.0271L26.0258 54.8021L29.0002 53.2349L29.1804 61.4651L27.9145 63.1102C27.9145 63.1102 28.8757 65.518 28.9704 65.8207C28.9766 65.84 28.9747 65.8577 28.967 65.875L28.8997 66.9506L43.8688 66.4517L44.8959 66.1168L44.3696 63.4581L44.4696 62.3369L44.8156 53.8107L46.9456 55.437C47.6612 54.1346 48.5599 52.4708 49.0271 51.6043C47.0806 50.1409 45.2678 48.8769 44.3095 48.44C42.0267 47.3971 39.7439 46.9165 37.2606 46.8968Z" fill="#070904"/>
<path d="M37.261 46.8967C34.9863 46.8785 31.9225 47.7959 28.9457 48.9873C29.2865 52.6576 30.5331 59.4037 36.8607 59.6527C42.4793 59.8737 44.8376 52.3606 45.5854 49.1666C45.0784 48.8431 44.642 48.5903 44.3099 48.439C42.0271 47.397 39.7442 46.9164 37.261 46.8967Z" fill="#3D4347"/>
<path d="M37.0664 48.1122C36.6574 48.1122 36.3253 47.7806 36.3253 47.3711V44.1972C36.3253 43.7883 36.6569 43.4562 37.0664 43.4562C37.4754 43.4562 37.8075 43.7878 37.8075 44.1972V47.3711C37.8075 47.7806 37.4759 48.1122 37.0664 48.1122Z" fill="#F8B79B"/>
<path d="M38.558 50.8195H35.4341V54.5743H38.558V50.8195Z" fill="#3BC493"/>
<path d="M47.7676 35.6912C47.4418 35.6912 47.1289 35.745 46.8353 35.8412C46.6017 30.6954 42.3681 26.5921 37.1647 26.5921C31.869 26.5921 27.5725 30.8406 27.4807 36.1141C27.0328 35.8474 26.5119 35.6912 25.9524 35.6912C24.2997 35.6912 22.9593 37.0311 22.9593 38.6844C22.9593 40.3371 24.2992 41.6775 25.9524 41.6775C26.9651 41.6775 27.8585 41.1734 28.4001 40.4034C29.9495 43.6946 33.2863 45.9779 37.1647 45.9779C40.8648 45.9779 44.0781 43.9036 45.7116 40.8557C46.248 41.3637 46.9703 41.6775 47.7676 41.6775C49.4204 41.6775 50.7608 40.3376 50.7608 38.6844C50.7608 37.0311 49.4204 35.6912 47.7676 35.6912Z" fill="#F5AE8F"/>
<path d="M34.1207 36.2847C34.1207 35.7537 33.6905 35.3235 33.1596 35.3235C32.6286 35.3235 32.1984 35.7537 32.1984 36.2847C32.1984 36.8156 32.6286 37.2459 33.1596 37.2459C33.6905 37.2459 34.1207 36.8156 34.1207 36.2847Z" fill="#563E4C"/>
<path d="M42.5913 36.2847C42.5913 35.7537 42.161 35.3235 41.6301 35.3235C41.0991 35.3235 40.6689 35.7537 40.6689 36.2847C40.6689 36.8156 41.0991 37.2459 41.6301 37.2459C42.161 37.2459 42.5913 36.8156 42.5913 36.2847Z" fill="#563E4C"/>
<path d="M48.0803 40.9072C48.3457 40.9072 48.5609 40.6921 48.5609 40.4266C48.5609 40.1612 48.3457 39.946 48.0803 39.946C47.8148 39.946 47.5997 40.1612 47.5997 40.4266C47.5997 40.6921 47.8148 40.9072 48.0803 40.9072Z" fill="#F6F8F7"/>
<path d="M36.8054 36.2847L36.3257 36.7754C36.3257 36.7754 36.5459 37.1825 37.0466 37.1623" stroke="#DE7651" stroke-width="0.476798" stroke-miterlimit="10" stroke-linecap="round" stroke-linejoin="round"/>
<path d="M37.1467 39.0848C37.1467 39.0848 38.8687 39.1247 40.1106 38.1635" stroke="#DE7651" stroke-width="0.476798" stroke-miterlimit="10" stroke-linecap="round" stroke-linejoin="round"/>
<path d="M27.4809 36.1141C27.4809 36.1141 26.5134 41.7279 28.2354 42.0283C29.9574 42.3287 29.8776 35.794 29.8776 35.794C29.8776 35.794 34.5033 35.1395 39.4895 30.754C39.4895 30.754 42.0429 35.1597 43.5746 36.3962C43.5746 36.3962 43.9312 42.1081 45.5849 42.2282C47.2391 42.3484 46.8354 35.8407 46.8354 35.8407C46.8354 35.8407 46.8061 26.879 37.3355 26.3383C27.8649 25.7982 27.0363 34.085 27.4809 36.1141Z" fill="#6768E6"/>
</g>
</g>
<defs>
<clipPath id="clip0_13722_10512">
<rect width="54" height="54" fill="white"/>
</clipPath>
</defs>
</svg>
