<svg width="141" height="140" viewBox="0 0 141 140" fill="none" xmlns="http://www.w3.org/2000/svg">
<path d="M14.5 70C14.5 84.8521 20.4 99.0959 30.902 109.598C41.4041 120.1 55.6479 126 70.5 126C85.3521 126 99.5959 120.1 110.098 109.598C120.6 99.0959 126.5 84.8521 126.5 70C126.5 55.1479 120.6 40.9041 110.098 30.402C99.5959 19.9 85.3521 14 70.5 14C55.6479 14 41.4041 19.9 30.902 30.402C20.4 40.9041 14.5 55.1479 14.5 70Z" fill="#AEFFFF"/>
<path d="M70.5 70C63.375 70 57.75 64.6562 57.75 58C57.75 51.4375 63.375 49 70.5 49C77.5312 49 83.25 51.4375 83.25 58C83.25 64.6562 77.5312 70 70.5 70ZM66 58C66.75 58 67.5 57.3438 67.5 56.5C67.5 55.75 66.75 55 66 55C65.1562 55 64.5 55.75 64.5 56.5C64.5 57.3438 65.1562 58 66 58ZM76.5 56.5C76.5 55.75 75.75 55 75 55C74.1562 55 73.5 55.75 73.5 56.5C73.5 57.3438 74.1562 58 75 58C75.75 58 76.5 57.3438 76.5 56.5ZM76.5 62.5C76.5 60.0625 73.7812 58 70.5 58C67.125 58 64.5 60.0625 64.5 62.5C64.5 65.0312 67.125 67 70.5 67C73.7812 67 76.5 65.0312 76.5 62.5ZM73.5 61.75C73.5 63.0625 72.0938 64 70.5 64C68.8125 64 67.5 63.0625 67.5 61.75C67.5 60.5312 68.8125 59.5 70.5 59.5C72.0938 59.5 73.5 60.5312 73.5 61.75ZM48.1875 62.7812C50.1562 61.1875 52.9688 61.5625 54.4688 63.5312L56.9062 66.5312C63.8438 75.3438 77.0625 75.3438 84 66.5312L86.4375 63.5312C87.9375 61.5625 90.8438 61.1875 92.7188 62.7812C94.6875 64.2812 95.0625 67.0938 93.4688 69.0625L91.125 72.1562C89.4375 74.2188 87.5625 76 85.5 77.5V83.5H87C87.375 80.9688 89.5312 79 92.25 79C95.1562 79 97.5 81.4375 97.5 84.25C97.5 84.5312 97.4062 84.8125 97.4062 85L96.1875 90.0625C95.625 92.3125 93.75 93.9062 91.5 94H91.125H88.5H52.5H49.875H49.5C47.1562 93.9062 45.2812 92.3125 44.7188 90.0625L43.5 85C43.5 84.8125 43.5 84.5312 43.5 84.25C43.5 81.4375 45.8438 79 48.75 79C51.375 79 53.5312 80.9688 53.9062 83.5H55.5V77.5C53.4375 76 51.4688 74.2188 49.875 72.1562L47.4375 69.0625C45.8438 67.0938 46.2188 64.2812 48.1875 62.7812ZM67.5 79C64.125 79 61.5 81.7188 61.5 85H79.5C79.5 81.7188 76.7812 79 73.5 79H67.5Z" fill="#003737"/>
<path opacity="0.4" d="M65.625 49.4688C61.7812 50.3125 58.7812 52.1875 57.9375 55.75C56.4375 54.8125 55.5 53.2188 55.5 51.25C55.5 48.4375 57.8438 46 60.75 46C63 46 64.875 47.5 65.625 49.4688ZM85.5 51.25C85.5 53.2188 84.4688 54.8125 82.9688 55.75C82.125 52.1875 79.125 50.3125 75.2812 49.4688C76.0312 47.5 77.9062 46 80.25 46C83.0625 46 85.5 48.4375 85.5 51.25ZM70.5 67C67.125 67 64.5 65.0312 64.5 62.5C64.5 60.0625 67.125 58 70.5 58C73.7812 58 76.5 60.0625 76.5 62.5C76.5 65.0312 73.7812 67 70.5 67ZM70.5 64C72.0938 64 73.5 63.0625 73.5 61.75C73.5 60.5312 72.0938 59.5 70.5 59.5C68.8125 59.5 67.5 60.5312 67.5 61.75C67.5 63.0625 68.8125 64 70.5 64ZM61.5 85C61.5 81.7188 64.125 79 67.5 79H73.5C76.7812 79 79.5 81.7188 79.5 85H61.5Z" fill="#003737"/>
</svg>
