<svg width="141" height="140" viewBox="0 0 141 140" fill="none" xmlns="http://www.w3.org/2000/svg">
<path d="M14.5 70C14.5 84.8521 20.4 99.0959 30.902 109.598C41.4041 120.1 55.6479 126 70.5 126C85.3521 126 99.5959 120.1 110.098 109.598C120.6 99.0959 126.5 84.8521 126.5 70C126.5 55.1479 120.6 40.9041 110.098 30.402C99.5959 19.9 85.3521 14 70.5 14C55.6479 14 41.4041 19.9 30.902 30.402C20.4 40.9041 14.5 55.1479 14.5 70Z" fill="#C0FFD6"/>
<path d="M71.3438 54.8125C73.0312 53.6875 75.75 52 78.75 52C80.625 52 82.6875 52.9375 84.4688 53.875C86.3438 54.8125 88.3125 56.125 90.0938 57.5312C91.875 58.9375 93.5625 60.4375 94.875 61.9375C95.5312 62.5938 96.0938 63.3438 96.5625 64.0938C96.9375 64.8438 97.5 65.875 97.5 67H91.5C91.5 66.3438 87.0938 64.0938 78.4688 64C78.0938 64 77.8125 64.0938 77.5312 64.1875C76.3125 64.5625 72.8438 65.5 70.5 65.5C68.0625 65.5 64.6875 64.5625 63.375 64.1875C63.0938 64.0938 62.8125 64 62.4375 64C53.8125 64.0938 49.5 66.3438 49.5 67H43.5C43.5 65.875 43.9688 64.8438 44.3438 64.0938C44.8125 63.3438 45.375 62.5938 46.0312 61.9375C47.3438 60.4375 49.0312 58.9375 50.8125 57.5312C52.5938 56.125 54.5625 54.8125 56.4375 53.875C58.2188 52.9375 60.2812 52 62.25 52C65.1562 52 67.875 53.6875 69.5625 54.8125C69.8438 55.0938 70.2188 55.2812 70.5 55.5625C70.7812 55.2812 71.0625 55.0938 71.3438 54.8125Z" fill="#003920"/>
<path opacity="0.4" d="M43.5 67H49.5C49.5 67.75 57 76 70.5 76C84 76 91.5 67.75 91.5 67H97.5C97.5 67.9375 97.2188 68.875 96.9375 69.625C96.6562 70.4688 96.2812 71.4062 95.7188 72.4375C94.7812 74.5 93.2812 76.8438 91.3125 79.0938C87.375 83.5938 81.375 88 73.5 88H67.5C59.5312 88 53.5312 83.5938 49.5938 79.0938C47.625 76.8438 46.125 74.5 45.1875 72.4375C44.625 71.4062 44.25 70.4688 43.9688 69.625C43.6875 68.875 43.5 67.9375 43.5 67Z" fill="#003920"/>
</svg>
