<svg width="141" height="140" viewBox="0 0 141 140" fill="none" xmlns="http://www.w3.org/2000/svg">
<path d="M14.5 70C14.5 84.8521 20.4 99.0959 30.902 109.598C41.4041 120.1 55.6479 126 70.5 126C85.3521 126 99.5959 120.1 110.098 109.598C120.6 99.0959 126.5 84.8521 126.5 70C126.5 55.1479 120.6 40.9041 110.098 30.402C99.5959 19.9 85.3521 14 70.5 14C55.6479 14 41.4041 19.9 30.902 30.402C20.4 40.9041 14.5 55.1479 14.5 70Z" fill="#F9EDFF"/>
<path d="M88.5 61H76.5C74.8125 61 73.5 59.6875 73.5 58V46L88.5 61ZM61.5 67H79.5C81.0938 67 82.5 68.4062 82.5 70V76C82.5 77.6875 81.0938 79 79.5 79H61.5C59.8125 79 58.5 77.6875 58.5 76V70C58.5 68.4062 59.8125 67 61.5 67ZM61.5 70V76H79.5V70H61.5ZM75 85H81C81.75 85 82.5 85.75 82.5 86.5C82.5 87.3438 81.75 88 81 88H75C74.1562 88 73.5 87.3438 73.5 86.5C73.5 85.75 74.1562 85 75 85Z" fill="#431573"/>
<path opacity="0.4" d="M58.5 46H73.5V58C73.5 59.6875 74.8125 61 76.5 61H88.5V88C88.5 91.375 85.7812 94 82.5 94H58.5C55.125 94 52.5 91.375 52.5 88V52C52.5 48.7188 55.125 46 58.5 46ZM58.5 53.5C58.5 54.3438 59.1562 55 60 55H66C66.75 55 67.5 54.3438 67.5 53.5C67.5 52.75 66.75 52 66 52H60C59.1562 52 58.5 52.75 58.5 53.5ZM58.5 59.5C58.5 60.3438 59.1562 61 60 61H66C66.75 61 67.5 60.3438 67.5 59.5C67.5 58.75 66.75 58 66 58H60C59.1562 58 58.5 58.75 58.5 59.5ZM58.5 70V76C58.5 77.6875 59.8125 79 61.5 79H79.5C81.0938 79 82.5 77.6875 82.5 76V70C82.5 68.4062 81.0938 67 79.5 67H61.5C59.8125 67 58.5 68.4062 58.5 70ZM73.5 86.5C73.5 87.3438 74.1562 88 75 88H81C81.75 88 82.5 87.3438 82.5 86.5C82.5 85.75 81.75 85 81 85H75C74.1562 85 73.5 85.75 73.5 86.5Z" fill="#431573"/>
</svg>
