<svg width="141" height="140" viewBox="0 0 141 140" fill="none" xmlns="http://www.w3.org/2000/svg">
<path d="M14.5 70C14.5 84.8521 20.4 99.0959 30.902 109.598C41.4041 120.1 55.6479 126 70.5 126C85.3521 126 99.5959 120.1 110.098 109.598C120.6 99.0959 126.5 84.8521 126.5 70C126.5 55.1479 120.6 40.9041 110.098 30.402C99.5959 19.9 85.3521 14 70.5 14C55.6479 14 41.4041 19.9 30.902 30.402C20.4 40.9041 14.5 55.1479 14.5 70Z" fill="#AEFFFF"/>
<path d="M46.5 70C46.5 74.4062 47.8125 78.25 49.7812 80.9688C51.8438 83.6875 54.375 85 57 85C59.5312 85 62.0625 83.6875 64.125 80.9688C66.0938 78.25 67.5 74.4062 67.5 70C67.5 65.6875 66.0938 61.8438 64.125 59.125C62.0625 56.4062 59.5312 55 57 55C54.375 55 51.8438 56.4062 49.7812 59.125C47.8125 61.8438 46.5 65.6875 46.5 70ZM70.5 57.9062C70.9688 57.0625 71.4375 56.2188 72 55.4688C74.9062 51.7188 79.0312 49 84 49C88.875 49 93 51.7188 95.9062 55.4688C98.8125 59.3125 100.5 64.4688 100.5 70C100.5 75.625 98.8125 80.7812 95.9062 84.5312C93 88.375 88.875 91 84 91C79.0312 91 74.9062 88.375 72 84.5312C71.4375 83.7812 70.9688 83.0312 70.5 82.1875C70.0312 83.0312 69.4688 83.7812 68.9062 84.5312C66 88.375 61.875 91 57 91C52.0312 91 47.9062 88.375 45 84.5312C42.1875 80.7812 40.5 75.625 40.5 70C40.5 64.4688 42.1875 59.3125 45 55.4688C47.9062 51.7188 52.0312 49 57 49C61.875 49 66 51.7188 68.9062 55.4688C69.4688 56.3125 70.0312 57.0625 70.5 57.9062ZM73.5 70C73.5 74.4062 74.8125 78.25 76.7812 80.9688C78.8438 83.6875 81.375 85 84 85C86.5312 85 89.0625 83.6875 91.125 80.9688C93.0938 78.25 94.5 74.4062 94.5 70C94.5 65.6875 93.0938 61.8438 91.125 59.125C89.0625 56.4062 86.5312 55 84 55C81.375 55 78.8438 56.4062 76.7812 59.125C74.8125 61.8438 73.5 65.6875 73.5 70Z" fill="#003737"/>
<path opacity="0.4" d="M46.5938 67.75C47.4375 67.2812 48.375 67 49.5 67C52.7812 67 55.5 69.7188 55.5 73C55.5 76.375 52.7812 79 49.5 79C49.125 79 48.8438 79 48.5625 79C47.25 76.4688 46.5 73.4688 46.5 70C46.5 69.25 46.5 68.5 46.5938 67.75ZM75.5625 79C74.25 76.4688 73.5 73.4688 73.5 70C73.5 69.25 73.5 68.5 73.5938 67.75C74.4375 67.2812 75.375 67 76.5 67C79.7812 67 82.5 69.7188 82.5 73C82.5 76.375 79.7812 79 76.5 79C76.125 79 75.8438 79 75.5625 79Z" fill="#003737"/>
</svg>
