<svg width="141" height="140" viewBox="0 0 141 140" fill="none" xmlns="http://www.w3.org/2000/svg">
<path d="M14.5 70C14.5 84.8521 20.4 99.0959 30.902 109.598C41.4041 120.1 55.6479 126 70.5 126C85.3521 126 99.5959 120.1 110.098 109.598C120.6 99.0959 126.5 84.8521 126.5 70C126.5 55.1479 120.6 40.9041 110.098 30.402C99.5959 19.9 85.3521 14 70.5 14C55.6479 14 41.4041 19.9 30.902 30.402C20.4 40.9041 14.5 55.1479 14.5 70Z" fill="#C0FFD6"/>
<path d="M69 82V91C69 92.6875 67.5938 94 66 94C64.3125 94 63 92.6875 63 91V73L61.0312 76.0938C60.0938 77.5 58.2188 77.9688 56.9062 77.0312C55.5 76.1875 55.0312 74.3125 55.875 72.9062L59.625 67C61.9688 63.25 66.0938 61 70.5 61C74.8125 61 78.9375 63.25 81.2812 67L85.0312 72.9062C85.875 74.3125 85.5 76.1875 84.0938 77.125C82.6875 77.9688 80.8125 77.5 79.9688 76.1875L78 73V91C78 92.6875 76.5938 94 75 94C73.3125 94 72 92.6875 72 91V82H69Z" fill="#003920"/>
<path opacity="0.4" d="M64.5 52C64.5 49.9375 65.625 47.9688 67.5 46.8438C69.2812 45.8125 71.625 45.8125 73.5 46.8438C75.2812 47.9688 76.5 49.9375 76.5 52C76.5 54.1562 75.2812 56.125 73.5 57.25C71.625 58.2812 69.2812 58.2812 67.5 57.25C65.625 56.125 64.5 54.1562 64.5 52Z" fill="#003920"/>
</svg>
