<svg width="141" height="141" viewBox="0 0 141 141" fill="none" xmlns="http://www.w3.org/2000/svg">
<path d="M14.5 70.5C14.5 85.3521 20.4 99.5959 30.902 110.098C41.4041 120.6 55.6479 126.5 70.5 126.5C85.3521 126.5 99.5959 120.6 110.098 110.098C120.6 99.5959 126.5 85.3521 126.5 70.5C126.5 55.6479 120.6 41.4041 110.098 30.902C99.5959 20.4 85.3521 14.5 70.5 14.5C55.6479 14.5 41.4041 20.4 30.902 30.902C20.4 41.4041 14.5 55.6479 14.5 70.5Z" fill="#C0FFD6"/>
<path d="M65.7188 61.5C67.2188 61.5 68.625 62.1562 69.75 63.1875L70.4062 63.9375L71.1562 63.1875C72.1875 62.1562 73.6875 61.5 75.1875 61.5C78.375 61.5 80.9062 64.125 80.9062 67.3125C80.9062 68.8125 80.3438 70.3125 79.2188 71.3438L71.5312 79.125C70.9688 79.6875 69.9375 79.6875 69.375 79.125L61.5938 71.3438C60.5625 70.3125 60 68.8125 60 67.3125C60 64.125 62.5312 61.5 65.7188 61.5Z" fill="#003920"/>
<path opacity="0.4" d="M71.7188 46.7812L89.3438 54.2812C91.4062 55.2188 93 57.1875 93 59.625C92.9062 69 89.0625 85.9688 72.9375 93.75C71.3438 94.5 69.5625 94.5 67.9688 93.75C51.8438 85.9688 48 69 48 59.625C47.9062 57.1875 49.5 55.2188 51.5625 54.2812L69.1875 46.7812C69.5625 46.5938 70.0312 46.5 70.5 46.5C70.875 46.5 71.3438 46.5938 71.7188 46.7812ZM60 67.3125C60 68.8125 60.5625 70.3125 61.6875 71.3438L69.375 79.125C70.0312 79.6875 70.9688 79.6875 71.5312 79.125L79.3125 71.3438C80.3438 70.3125 81 68.8125 81 67.3125C81 64.125 78.375 61.5 75.1875 61.5C73.6875 61.5 72.1875 62.1562 71.1562 63.1875L70.5 63.9375L69.75 63.1875C68.7188 62.1562 67.2188 61.5 65.7188 61.5C62.5312 61.5 60 64.125 60 67.3125Z" fill="#003920"/>
</svg>
