<svg width="141" height="140" viewBox="0 0 141 140" fill="none" xmlns="http://www.w3.org/2000/svg">
<path d="M14.5 70C14.5 84.8521 20.4 99.0959 30.902 109.598C41.4041 120.1 55.6479 126 70.5 126C85.3521 126 99.5959 120.1 110.098 109.598C120.6 99.0959 126.5 84.8521 126.5 70C126.5 55.1479 120.6 40.9041 110.098 30.402C99.5959 19.9 85.3521 14 70.5 14C55.6479 14 41.4041 19.9 30.902 30.402C20.4 40.9041 14.5 55.1479 14.5 70Z" fill="#C0FFD6"/>
<path d="M63 49C63 47.4062 64.3125 46 66 46H70.5H75C76.5938 46 78 47.4062 78 49C78 50.6875 76.5938 52 75 52H73.5V55.2812C72.4688 55.0938 71.4375 55 70.5 55C69.4688 55 68.4375 55.0938 67.5 55.2812V52H66C64.3125 52 63 50.6875 63 49ZM82.7812 59.4062L84.8438 57.4375C85.9688 56.2188 87.9375 56.2188 89.0625 57.4375C90.2812 58.5625 90.2812 60.5312 89.0625 61.6562L86.8125 63.9062C85.6875 62.2188 84.375 60.7188 82.7812 59.5V59.4062ZM72.75 64V76C72.75 77.3125 71.7188 78.25 70.5 78.25C69.1875 78.25 68.25 77.3125 68.25 76V64C68.25 62.7812 69.1875 61.75 70.5 61.75C71.7188 61.75 72.75 62.7812 72.75 64Z" fill="#383000"/>
<path opacity="0.4" d="M70.5 94C63.4688 94 57.0938 90.3438 53.5312 84.25C50.0625 78.25 50.0625 70.8438 53.5312 64.75C57.0938 58.75 63.4688 55 70.5 55C77.4375 55 83.8125 58.75 87.375 64.75C90.8438 70.8438 90.8438 78.25 87.375 84.25C83.8125 90.3438 77.4375 94 70.5 94ZM72.75 64C72.75 62.7812 71.7188 61.75 70.5 61.75C69.1875 61.75 68.25 62.7812 68.25 64V76C68.25 77.3125 69.1875 78.25 70.5 78.25C71.7188 78.25 72.75 77.3125 72.75 76V64Z" fill="#383000"/>
</svg>
