<svg width="141" height="140" viewBox="0 0 141 140" fill="none" xmlns="http://www.w3.org/2000/svg">
<path d="M14.5 70C14.5 84.8521 20.4 99.0959 30.902 109.598C41.4041 120.1 55.6479 126 70.5 126C85.3521 126 99.5959 120.1 110.098 109.598C120.6 99.0959 126.5 84.8521 126.5 70C126.5 55.1479 120.6 40.9041 110.098 30.402C99.5959 19.9 85.3521 14 70.5 14C55.6479 14 41.4041 19.9 30.902 30.402C20.4 40.9041 14.5 55.1479 14.5 70Z" fill="#FEAD1D" fill-opacity="0.2"/>
<path opacity="0.4" d="M50.9062 74.2188C48.0938 71.5938 46.5 67.8438 46.5 63.9062V63.4375C46.5 56.875 51.1875 51.25 57.6562 50.2188C61.9688 49.4688 66.2812 50.875 69.375 53.875L70.5 55L71.625 53.875C74.625 50.875 79.0312 49.4688 83.25 50.2188C89.7188 51.25 94.5 56.875 94.5 63.4375V63.9062C94.5 67.8438 92.8125 71.5938 90 74.2188L73.0312 90.0625C72.375 90.7188 71.4375 91 70.5 91C69.4688 91 68.5312 90.7188 67.875 90.0625L50.9062 74.2188Z" fill="#431573"/>
</svg>
