<svg width="240" height="240" viewBox="0 0 240 240" fill="none" xmlns="http://www.w3.org/2000/svg">
<path d="M24 120C24 145.461 34.1143 169.879 52.1178 187.882C70.1212 205.886 94.5392 216 120 216C145.461 216 169.879 205.886 187.882 187.882C205.886 169.879 216 145.461 216 120C216 94.5392 205.886 70.1212 187.882 52.1178C169.879 34.1143 145.461 24 120 24C94.5392 24 70.1212 34.1143 52.1178 52.1178C34.1143 70.1212 24 94.5392 24 120Z" fill="#E9FFED"/>
<path d="M175.774 68.3151L71.6115 88.0384C67.998 88.7227 65.6209 92.194 66.3022 95.7919L80.6685 171.663C81.3498 175.261 84.8314 177.623 88.445 176.939L192.608 157.216C196.221 156.531 198.598 153.06 197.917 149.462L183.551 73.5908C182.869 69.9929 179.388 67.6309 175.774 68.3151Z" fill="#662A00"/>
<ellipse cx="19.6984" cy="19.6984" rx="19.6984" ry="19.6984" transform="matrix(0.866026 0.5 -0.500001 0.866025 141.913 34.8213)" fill="#FFE500"/>
<path d="M165.069 70.9361C159.985 79.7427 148.723 82.7601 139.917 77.6755C131.11 72.591 128.093 61.33 133.177 52.5234C138.262 43.7168 149.523 40.6994 158.33 45.7839C167.136 50.8684 170.154 62.1294 165.069 70.9361Z" stroke="black" stroke-opacity="0.1" stroke-width="2.57143"/>
<path fill-rule="evenodd" clip-rule="evenodd" d="M153.264 64.3516L157.553 66.8277L153.533 73.7896C151.905 74.3328 150.176 74.5007 148.474 74.2807C146.773 74.0608 145.143 73.4586 143.707 72.5194C142.302 71.6959 141.081 70.5937 140.118 69.2806C139.155 67.9675 138.471 66.4713 138.108 64.884C137.542 61.9889 138.073 58.9867 139.597 56.4612C140.34 55.1502 141.335 53.9986 142.524 53.0725C143.713 52.1464 145.072 51.4639 146.525 51.0642C148.005 50.6422 149.555 50.5242 151.081 50.7175C152.607 50.9108 154.079 51.4114 155.406 52.1889C158.327 53.8994 160.527 56.6122 161.597 59.8228L156.856 61.4315C156.686 60.3634 156.274 59.3483 155.651 58.4637C155.029 57.5791 154.213 56.8485 153.265 56.3276C151.743 55.4875 149.951 55.2816 148.278 55.7546C147.371 55.9619 146.516 56.3527 145.765 56.9029C145.015 57.4531 144.385 58.151 143.915 58.9538C143.423 59.7664 143.102 60.6707 142.972 61.6115C142.842 62.5523 142.905 63.5098 143.157 64.4254C143.591 66.0446 144.586 67.4569 145.965 68.4099C147.213 69.223 148.656 69.6875 150.144 69.7553L153.264 64.3516Z" fill="#A89414"/>
<ellipse cx="19.6984" cy="19.6984" rx="19.6984" ry="19.6984" transform="matrix(0.707107 -0.707106 0.707108 0.707106 105.795 83.1514)" fill="#FFE500"/>
<path d="M146.673 70.1317C153.863 77.3222 153.863 88.9805 146.673 96.1711C139.482 103.362 127.824 103.362 120.633 96.1711C113.443 88.9805 113.443 77.3222 120.633 70.1317C127.824 62.9411 139.482 62.9411 146.673 70.1317Z" stroke="black" stroke-opacity="0.1" stroke-width="2.57143"/>
<path fill-rule="evenodd" clip-rule="evenodd" d="M137.258 79.8306L140.759 76.329L146.444 82.0134C146.547 83.7261 146.262 85.44 145.609 87.0268C144.956 88.6136 143.952 90.0321 142.674 91.1761C141.515 92.3198 140.134 93.2142 138.616 93.8044C137.099 94.3945 135.476 94.6679 133.849 94.6077C130.906 94.4052 128.144 93.1155 126.099 90.9893C125.025 89.9322 124.17 88.6736 123.583 87.2856C122.996 85.8976 122.689 84.4074 122.679 82.9004C122.654 81.3621 122.941 79.8346 123.523 78.4103C124.105 76.986 124.969 75.6943 126.064 74.6131C128.472 72.2351 131.662 70.8124 135.04 70.6096L135.367 75.6053C134.291 75.4932 133.204 75.6284 132.188 76.0006C131.173 76.3729 130.256 76.9722 129.507 77.753C128.302 79.0058 127.639 80.6835 127.663 82.4219C127.628 83.3517 127.785 84.2787 128.122 85.1459C128.459 86.0131 128.97 86.8021 129.624 87.4643C130.282 88.1496 131.072 88.6935 131.947 89.0628C132.822 89.432 133.763 89.6189 134.713 89.612C136.389 89.6123 138.011 89.0165 139.289 87.9312C140.397 86.936 141.219 85.6626 141.67 84.2427L137.258 79.8306Z" fill="#A89414"/>
<ellipse cx="19.6984" cy="19.6984" rx="19.6984" ry="19.6984" transform="matrix(0.866026 0.5 -0.500001 0.866025 101.453 45.5312)" fill="#FFE500"/>
<path d="M124.609 81.646C119.524 90.4526 108.263 93.47 99.4564 88.3855C90.6498 83.301 87.6324 72.04 92.7169 63.2334C97.8014 54.4267 109.062 51.4094 117.869 56.4939C126.676 61.5784 129.693 72.8394 124.609 81.646Z" stroke="black" stroke-opacity="0.1" stroke-width="2.57143"/>
<path fill-rule="evenodd" clip-rule="evenodd" d="M112.803 75.0616L117.092 77.5376L113.073 84.4995C111.445 85.0428 109.716 85.2107 108.014 84.9907C106.312 84.7707 104.682 84.1686 103.246 83.2294C101.842 82.4059 100.62 81.3037 99.6574 79.9906C98.6946 78.6775 98.0107 77.1813 97.6477 75.594C97.0816 72.6989 97.6124 69.6967 99.1369 67.1712C99.8799 65.8601 100.874 64.7086 102.063 63.7825C103.252 62.8563 104.612 62.1739 106.065 61.7742C107.545 61.3521 109.094 61.2342 110.621 61.4275C112.147 61.6208 113.618 62.1213 114.946 62.8989C117.866 64.6094 120.066 67.3221 121.136 70.5328L116.395 72.1415C116.225 71.0734 115.813 70.0583 115.191 69.1737C114.568 68.2891 113.752 67.5585 112.804 67.0375C111.282 66.1974 109.49 65.9915 107.817 66.4646C106.91 66.6718 106.055 67.0626 105.305 67.6128C104.554 68.163 103.925 68.861 103.454 69.6638C102.962 70.4763 102.642 71.3807 102.511 72.3215C102.381 73.2623 102.444 74.2197 102.697 75.1353C103.13 76.7545 104.126 78.1669 105.505 79.1199C106.753 79.933 108.196 80.3975 109.684 80.4653L112.803 75.0616Z" fill="#A89414"/>
<ellipse cx="19.6984" cy="19.6984" rx="19.6984" ry="19.6984" transform="matrix(0.866026 0.5 -0.500001 0.866025 72.8916 62.1924)" fill="#FFE500"/>
<path d="M96.0475 98.3071C90.963 107.114 79.702 110.131 70.8954 105.047C62.0887 99.9621 59.0714 88.7011 64.1559 79.8945C69.2404 71.0879 80.5014 68.0705 89.308 73.155C98.1147 78.2395 101.132 89.5005 96.0475 98.3071Z" stroke="black" stroke-opacity="0.1" stroke-width="2.57143"/>
<path fill-rule="evenodd" clip-rule="evenodd" d="M84.2426 91.7227L88.5313 94.1987L84.5118 101.161C82.8842 101.704 81.1548 101.872 79.4531 101.652C77.7514 101.432 76.1215 100.83 74.6855 99.8905C73.2808 99.067 72.0595 97.9648 71.0967 96.6517C70.1338 95.3386 69.4499 93.8424 69.0869 92.2551C68.5208 89.36 69.0516 86.3578 70.5761 83.8323C71.3191 82.5213 72.3136 81.3697 73.5024 80.4436C74.6913 79.5175 76.0512 78.835 77.5042 78.4353C78.9837 78.0133 80.5334 77.8953 82.0598 78.0886C83.5862 78.2819 85.0576 78.7825 86.3852 79.56C89.3055 81.2705 91.5053 83.9833 92.5755 87.1939L87.8346 88.8026C87.6644 87.7345 87.2525 86.7194 86.6301 85.8348C86.0077 84.9502 85.1914 84.2196 84.2435 83.6987C82.7214 82.8586 80.9294 82.6527 79.2564 83.1257C78.3493 83.333 77.4943 83.7238 76.7439 84.274C75.9936 84.8241 75.3638 85.5221 74.8933 86.3249C74.4016 87.1375 74.0808 88.0418 73.9506 88.9826C73.8204 89.9234 73.8834 90.8809 74.136 91.7964C74.5696 93.4157 75.5647 94.828 76.9437 95.781C78.1919 96.5941 79.6347 97.0586 81.1228 97.1264L84.2426 91.7227Z" fill="#A89414"/>
<ellipse cx="163.049" cy="42.007" rx="19.6984" ry="19.6983" transform="rotate(-15 163.049 42.007)" fill="#FFE500"/>
<path d="M180.834 37.2414C183.466 47.0639 177.637 57.1603 167.815 59.7922C157.992 62.4241 147.896 56.595 145.264 46.7725C142.632 36.95 148.461 26.8537 158.284 24.2217C168.106 21.5898 178.202 27.4189 180.834 37.2414Z" stroke="black" stroke-opacity="0.1" stroke-width="2.57143"/>
<path fill-rule="evenodd" clip-rule="evenodd" d="M167.831 40.9329L172.614 39.6512L174.695 47.4162C173.928 48.9512 172.824 50.2929 171.465 51.3406C170.106 52.3883 168.528 53.1151 166.849 53.4663C165.273 53.8773 163.63 53.9615 162.021 53.7138C160.411 53.4662 158.87 52.8918 157.491 52.0261C155.043 50.3792 153.296 47.881 152.588 45.0173C152.186 43.5648 152.075 42.0473 152.261 40.5518C152.447 39.0563 152.926 37.6122 153.671 36.3021C154.418 34.9575 155.431 33.7783 156.647 32.8356C157.863 31.893 159.257 31.2065 160.746 30.8176C164.02 29.9621 167.494 30.3249 170.521 31.8384L168.306 36.3282C167.431 35.6932 166.421 35.2668 165.356 35.0814C164.29 34.896 163.196 34.9565 162.158 35.2584C160.487 35.7407 159.075 36.8622 158.226 38.3797C157.731 39.1677 157.403 40.0486 157.262 40.9682C157.12 41.8879 157.168 42.8267 157.403 43.727C157.63 44.6493 158.043 45.5156 158.616 46.2729C159.189 47.0302 159.911 47.6627 160.737 48.1315C162.188 48.9699 163.891 49.2649 165.54 48.9637C166.997 48.656 168.346 47.9642 169.446 46.96L167.831 40.9329Z" fill="#A89414"/>
<path d="M173.656 75.4635L188.022 151.334C188.703 154.932 186.326 158.403 182.712 159.088L78.549 178.811C74.9355 179.495 71.4545 177.133 70.7732 173.535L56.407 97.6647C55.8848 94.9068 57.1591 92.2238 59.4098 90.8119C60.0951 90.382 60.8713 90.0705 61.7156 89.9106L165.878 70.1873C166.392 70.0901 166.901 70.0542 167.402 70.0758C167.826 70.0932 168.243 70.1506 168.648 70.2453C170.502 70.6811 172.103 71.8998 173.003 73.5971C173.306 74.1681 173.529 74.7943 173.655 75.4629L173.656 75.4635Z" fill="#843B00"/>
<path d="M186.842 98.3348L147.28 105.826C145.095 106.24 143.657 108.339 144.069 110.515L147.669 129.527C148.081 131.703 150.187 133.132 152.372 132.718L191.934 125.227C194.12 124.813 195.557 122.714 195.145 120.538L191.545 101.525C191.133 99.3494 189.028 97.921 186.842 98.3348Z" fill="#662A00"/>
<path d="M166.841 121.959C169.408 118.209 168.441 113.101 164.68 110.549C160.919 107.998 155.789 108.969 153.221 112.719C150.654 116.469 151.621 121.577 155.382 124.129C159.143 126.68 164.273 125.709 166.841 121.959Z" fill="#CCCCCC"/>
</svg>
