<svg width="141" height="140" viewBox="0 0 141 140" fill="none" xmlns="http://www.w3.org/2000/svg">
<path d="M14.5 70C14.5 84.8521 20.4 99.0959 30.902 109.598C41.4041 120.1 55.6479 126 70.5 126C85.3521 126 99.5959 120.1 110.098 109.598C120.6 99.0959 126.5 84.8521 126.5 70C126.5 55.1479 120.6 40.9041 110.098 30.402C99.5959 19.9 85.3521 14 70.5 14C55.6479 14 41.4041 19.9 30.902 30.402C20.4 40.9041 14.5 55.1479 14.5 70Z" fill="#AEFFFF"/>
<path d="M58.7812 48.7188C61.5938 46 66 46 68.8125 48.7188L70.5 50.4062L72.0938 48.7188C74.9062 46 79.3125 46 82.125 48.7188C84.8438 51.5312 84.8438 56.125 82.125 58.8438L72.5625 68.5938C72 69.1562 71.25 69.4375 70.5 69.4375C69.6562 69.4375 68.9062 69.1562 68.3438 68.5938L58.7812 58.8438C56.0625 56.125 56.0625 51.5312 58.7812 48.7188Z" fill="#003737"/>
<path opacity="0.4" d="M95.9062 82.8438L84.0938 91.5625C81.8438 93.1562 79.2188 94 76.5 94H61.5H46.5C44.8125 94 43.5 92.6875 43.5 91V85C43.5 83.4062 44.8125 82 46.5 82H49.875L54.0938 78.625C56.25 76.9375 58.875 76 61.5938 76H69H70.5H76.5C78.0938 76 79.5 77.4062 79.5 79C79.5 80.6875 78.0938 82 76.5 82H70.5H69C68.1562 82 67.5 82.75 67.5 83.5C67.5 84.3438 68.1562 85 69 85H80.25L91.5 76.75C93.1875 75.5312 95.5312 75.9062 96.75 77.5938C97.9688 79.2812 97.5938 81.625 95.9062 82.8438ZM61.5938 82H61.5C61.5 82 61.5 82 61.5 82.0938C61.5938 82.0938 61.5938 82.0938 61.5938 82.0938C61.5938 82.0938 61.5938 82.0938 61.5938 82Z" fill="#003737"/>
</svg>
