<svg width="512" height="512" viewBox="0 0 512 512" fill="none" xmlns="http://www.w3.org/2000/svg">
<defs>
<clipPath id="clip0_5241_12552">
<rect width="512" height="512" fill="white"/>
</clipPath>
</defs>
<g clip-path="url(#clip0_5241_12552)">
<rect width="512" height="512" rx="91" fill="#54A1EE"/>
<path fill-rule="evenodd" clip-rule="evenodd" d="M162.129 212.21H191.663V260.154C184.877 267.813 176.445 273.837 167 277.776C157.555 281.714 147.341 283.464 137.124 282.895C127.413 282.831 117.818 280.78 108.929 276.869C100.041 272.958 92.0467 267.27 85.4387 260.154C73.8816 246.889 67.6706 229.8 68.0135 212.21C67.9418 203.222 69.644 194.309 73.0227 185.981C76.4014 177.652 81.39 170.073 87.7029 163.675C94.086 157.083 101.739 151.853 110.199 148.3C118.659 144.746 127.751 142.944 136.927 143.001C157.11 143.128 176.561 150.579 191.663 163.971L171.974 186.417C167.91 181.407 162.755 177.393 156.903 174.68C151.05 171.967 144.656 170.627 138.206 170.763C127.84 170.963 117.97 175.244 110.74 182.676C106.673 186.451 103.422 191.019 101.187 196.098C98.952 201.178 97.7805 206.661 97.7446 212.21C97.6279 217.873 98.6678 223.5 100.801 228.748C102.933 233.995 106.114 238.753 110.149 242.729C117.217 249.799 126.569 254.126 136.533 254.936C145.404 255.414 154.241 253.51 162.129 249.423V212.21Z" fill="#EEEDE4"/>
<path d="M233.11 176.67H203.675V282.796H233.11V176.67Z" fill="#EEEDE4"/>
<path fill-rule="evenodd" clip-rule="evenodd" d="M287.942 282.796L246.102 176.67H278.294L303.005 243.516L329.389 176.67H360.006L318.166 282.796H287.942Z" fill="#EEEDE4"/>
<path fill-rule="evenodd" clip-rule="evenodd" d="M400.073 198.329V243.516C400.472 247.203 402.183 250.623 404.893 253.154C407.604 255.684 411.135 257.155 414.84 257.299C417.289 257.227 419.69 256.595 421.857 255.452C424.024 254.308 425.901 252.684 427.343 250.703C432.339 255.709 437.632 260.41 443.193 264.781C438.918 270.024 433.609 274.33 427.595 277.43C421.582 280.53 414.995 282.357 408.244 282.797C403.324 283.011 398.413 282.202 393.822 280.423C389.23 278.644 385.056 275.933 381.565 272.46C377.792 268.693 374.872 264.159 373.004 259.165C371.135 254.172 370.362 248.835 370.736 243.516V143.297H400.27V176.67H425.866V198.329H400.073Z" fill="#EEEDE4"/>
<path d="M358.926 143.297H203.675V164.955H358.926V143.297Z" fill="#F2DF7F"/>
<rect x="110" y="325.023" width="278.821" height="115" rx="20" transform="rotate(-7.63048 110 325.023)" fill="#E28D4D"/>
<path d="M176.777 415.434L175.095 402.881L150.495 406.177L149.152 396.152L172.521 356.144L180.188 355.117L185.03 391.259L192.444 390.266L193.798 400.376L186.384 401.369L188.066 413.922L176.777 415.434ZM160.43 394.555L175.004 392.602L172.454 373.562L160.43 394.555Z" fill="#F2DF7F"/>
<path d="M203.422 400.973L195.42 341.242L207.046 339.684L210.85 368.075L232.14 336.236L244.946 334.521L225.586 364.129L254.392 394.145L241.333 395.894L219.25 372.524L212.656 381.555L215.048 399.415L203.422 400.973ZM258.684 393.57L252.77 349.424L264.059 347.912L269.973 392.057L258.684 393.57ZM251.946 343.274L250.445 332.069L261.734 330.557L263.235 341.762L251.946 343.274ZM298.552 389.086C295.519 389.492 292.631 389.279 289.89 388.446C287.148 387.612 284.711 386.281 282.58 384.451C280.448 382.621 278.664 380.402 277.228 377.793C275.841 375.12 274.933 372.183 274.504 368.981C274.075 365.78 274.154 362.739 274.74 359.859C275.382 356.972 276.435 354.372 277.897 352.061C279.36 349.749 281.22 347.842 283.477 346.339C285.734 344.836 288.295 343.893 291.159 343.509C294.417 343.073 297.443 343.468 300.237 344.694C303.087 345.913 305.412 347.689 307.211 350.02L303.847 324.915L315.137 323.402L321.638 371.929C321.796 373.108 322.105 373.924 322.566 374.377C323.027 374.83 323.739 375.02 324.701 374.949L325.988 384.553C324.074 385.209 322.5 385.62 321.264 385.786C319.242 386.057 317.518 385.773 316.091 384.935C314.663 384.098 313.756 382.875 313.37 381.269L312.745 378.523C311.492 381.549 309.559 383.981 306.947 385.817C304.383 387.59 301.584 388.68 298.552 389.086ZM300.213 379.087C301.281 378.944 302.353 378.629 303.431 378.141C304.502 377.598 305.47 376.925 306.334 376.123C307.199 375.321 307.936 374.422 308.546 373.425C309.211 372.421 309.669 371.36 309.92 370.24L308.509 359.709C307.894 358.533 307.098 357.497 306.12 356.599C305.19 355.637 304.143 354.862 302.978 354.275C301.862 353.624 300.684 353.153 299.444 352.862C298.261 352.563 297.108 352.489 295.984 352.639C294.299 352.865 292.776 353.441 291.413 354.367C290.107 355.285 289.035 356.458 288.197 357.885C287.351 359.256 286.757 360.793 286.413 362.497C286.07 364.201 286.015 365.924 286.248 367.665C286.497 369.519 287.035 371.19 287.863 372.68C288.692 374.17 289.719 375.433 290.944 376.47C292.169 377.506 293.557 378.263 295.107 378.742C296.714 379.213 298.416 379.328 300.213 379.087ZM351.251 382.026C347.544 382.523 343.842 382.418 340.146 381.713C336.45 381.007 333.191 379.729 330.37 377.877L333.634 370.236C336.586 371.784 339.393 372.895 342.056 373.567C344.768 374.176 347.387 374.311 349.915 373.972C352.161 373.671 353.874 373.013 355.053 371.997C356.232 370.982 356.716 369.688 356.505 368.115C356.295 366.542 355.382 365.493 353.768 364.966C352.154 364.439 349.569 363.927 346.015 363.432C343.046 363.029 340.501 362.598 338.381 362.139C336.261 361.679 334.524 361.083 333.168 360.35C331.804 359.561 330.762 358.614 330.043 357.51C329.316 356.35 328.839 354.927 328.613 353.242C328.312 350.995 328.463 348.917 329.064 347.007C329.722 345.089 330.755 343.407 332.162 341.961C333.561 340.458 335.255 339.231 337.243 338.279C339.287 337.319 341.544 336.673 344.016 336.342C347.329 335.898 350.482 335.962 353.475 336.533C356.523 337.096 359.398 338.283 362.099 340.094L358.464 347.528C355.992 346.144 353.636 345.202 351.396 344.701C349.213 344.193 347.082 344.079 345.004 344.357C343.094 344.613 341.546 345.22 340.36 346.18C339.173 347.139 338.697 348.489 338.93 350.23C339.035 351.017 339.262 351.644 339.611 352.112C340.015 352.572 340.581 352.954 341.308 353.257C342.034 353.559 342.958 353.836 344.077 354.086C345.246 354.273 346.671 354.453 348.352 354.628C351.49 355.008 354.179 355.448 356.419 355.949C358.715 356.442 360.604 357.103 362.088 357.934C363.627 358.757 364.796 359.801 365.595 361.066C366.442 362.267 366.989 363.795 367.238 365.648C367.817 369.973 366.675 373.613 363.813 376.57C360.942 379.47 356.755 381.289 351.251 382.026Z" fill="white"/>
</g>
</svg>
