<svg width="220" height="180" viewBox="0 0 220 180" fill="none" xmlns="http://www.w3.org/2000/svg">
<path d="M34.6426 105.195C34.6426 125.034 42.5238 144.061 56.5525 158.09C70.5812 172.119 89.6082 180 109.448 180C129.287 180 148.314 172.119 162.343 158.09C176.372 144.061 184.253 125.034 184.253 105.195C184.253 85.3553 176.372 66.3283 162.343 52.2996C148.314 38.2709 129.287 30.3896 109.448 30.3896C89.6082 30.3896 70.5812 38.2709 56.5525 52.2996C42.5238 66.3283 34.6426 85.3553 34.6426 105.195Z" fill="#AEFFFF"/>
<mask id="mask0_45280_53468" style="mask-type:alpha" maskUnits="userSpaceOnUse" x="34" y="30" width="151" height="150">
<path d="M34.6426 105.195C34.6426 125.034 42.5238 144.061 56.5525 158.09C70.5812 172.119 89.6082 180 109.448 180C129.287 180 148.314 172.119 162.343 158.09C176.372 144.061 184.253 125.034 184.253 105.195C184.253 85.3553 176.372 66.3283 162.343 52.2996C148.314 38.2709 129.287 30.3896 109.448 30.3896C89.6082 30.3896 70.5812 38.2709 56.5525 52.2996C42.5238 66.3283 34.6426 85.3553 34.6426 105.195Z" fill="#E2FFFE"/>
</mask>
<g mask="url(#mask0_45280_53468)">
<mask id="mask1_45280_53468" style="mask-type:luminance" maskUnits="userSpaceOnUse" x="40" y="47" width="153" height="154">
<path fill-rule="evenodd" clip-rule="evenodd" d="M116.549 200.26C158.675 200.26 192.824 165.977 192.824 123.686C192.824 81.3972 158.675 47.1145 116.549 47.1145C74.4244 47.1145 40.2754 81.3972 40.2754 123.686C40.2754 165.977 74.4244 200.26 116.549 200.26Z" fill="white"/>
</mask>
<g mask="url(#mask1_45280_53468)">
<path d="M105.484 141.912C105.484 141.912 85.8229 155.278 69.1349 140.145C52.4469 125.011 59.5987 99.3927 59.5987 99.3927" stroke="#2E2957" stroke-width="8.21132" stroke-linecap="round"/>
<path d="M118.956 141.912C118.956 141.912 138.618 155.278 155.306 140.145C171.994 125.011 164.842 99.3927 164.842 99.3927" stroke="#2E2957" stroke-width="8.21132" stroke-linecap="round"/>
<path fill-rule="evenodd" clip-rule="evenodd" d="M82.8311 48.7765L92.7072 50.2247C122.822 54.6406 145.142 80.4728 145.142 110.909H82.8311V48.7765Z" fill="#2E2957"/>
<path d="M113.987 64.7052C130.465 64.7052 143.823 78.0631 143.823 94.5411V206.454H84.1514V94.5411C84.1514 78.063 97.5092 64.7052 113.987 64.7052Z" fill="white" stroke="#2E2957" stroke-width="4.69218"/>
<path fill-rule="evenodd" clip-rule="evenodd" d="M88.3301 125.529L115.82 143.55L141.478 131.925V182.179H88.3301V125.529Z" fill="#41C98E"/>
<ellipse cx="102.991" cy="99.031" rx="3.66535" ry="3.65487" fill="#2E2957"/>
<ellipse cx="125.9" cy="99.031" rx="3.66535" ry="3.65487" fill="#2E2957"/>
<path d="M86.4971 133.752L112.298 150.306C113.066 150.798 114.048 150.802 114.819 150.315L141.019 133.752" stroke="#2E2957" stroke-width="4.69218" stroke-linecap="square"/>
<ellipse cx="94.7444" cy="111.823" rx="6.41437" ry="6.39602" fill="#E26952" fill-opacity="0.5"/>
<ellipse cx="134.146" cy="112.737" rx="6.41437" ry="6.39602" fill="#E26952" fill-opacity="0.5"/>
</g>
<path fill-rule="evenodd" clip-rule="evenodd" d="M82.832 48.7765L106.722 52.2797C128.788 55.5154 145.143 74.4435 145.143 96.7453C145.143 96.7453 133.347 61.9916 115.097 64.6038C111.679 65.0929 104.327 56.2596 102.124 57.0675C94.3903 59.9042 107.82 57.9137 113.53 64.6038C119.239 71.2939 92.9309 57.9137 87.9692 57.9137C83.0075 57.9137 82.832 110.909 82.832 110.909V48.7765Z" fill="#2E2957"/>
<path d="M109.749 120.003C110.214 120.364 114.288 124.01 116.038 123.424C118.802 122.5 120.83 116.889 121.768 113.139C121.977 112.304 121.469 111.458 120.634 111.249C120.212 111.144 117.271 114.328 114.429 115.963C111.651 117.561 108.968 117.605 108.822 118.004C108.526 118.812 109.094 119.494 109.749 120.003Z" fill="#2E2957"/>
</g>
<path d="M38.5735 116.208C23.9228 117.804 37.3026 121.824 38.1412 128.81" stroke="#E16B55" stroke-width="4.43857" stroke-linecap="round"/>
<path d="M60.5468 76.252C46.2145 78.2054 81.6801 82.9156 55.7422 84.7077" stroke="#EDA52E" stroke-width="4.43857" stroke-linecap="round"/>
<path d="M214.926 99.4354C215.566 100.877 216.207 102.318 216.848 103.759" stroke="#F4BF63" stroke-width="4.43857" stroke-linecap="round"/>
<circle cx="208.44" cy="80.8454" r="3.0263" fill="#D1333F"/>
<circle cx="174.719" cy="71.3341" r="2.16164" fill="#1CA96C"/>
<path d="M54.852 168.702C75.0411 169.003 48.0952 164.958 60.408 158.247" stroke="#1CA96C" stroke-width="4.43857" stroke-linecap="round"/>
<path d="M173.039 15.5432C169.693 16.3972 166.112 16.6055 163.001 18.1051C152.468 23.1826 178.29 27.3233 167.804 35.7191" stroke="#2F81C8" stroke-width="4.43857" stroke-linecap="round"/>
<path d="M14.8379 108.947C11.4919 109.801 7.91049 110.009 4.79978 111.509C-5.73302 116.586 20.0892 120.727 9.60267 129.123" stroke="#1CA96C" stroke-width="4.43857" stroke-linecap="round"/>
<path d="M213.709 134.886C210.363 135.74 206.782 135.949 203.671 137.448C193.138 142.526 218.96 146.666 208.474 155.062" stroke="#EDA52E" stroke-width="4.43857" stroke-linecap="round"/>
<path d="M107.781 26.9364C130.903 25.9346 116.643 31.8657 112.361 37.52C107.748 43.6111 123.611 36.2217 119.647 44.2785C118.913 45.7685 117.298 46.627 116.124 47.8013" stroke="#F26448" stroke-width="4.43857" stroke-linecap="round"/>
<path d="M24.7021 100.215C25.3428 101.32 25.9834 102.425 26.624 103.53" stroke="#408CCB" stroke-width="4.43857" stroke-linecap="round"/>
<circle cx="10.4247" cy="62.6978" r="3.0263" fill="#D1333F"/>
<circle cx="105.547" cy="2.16164" r="2.16164" fill="#408CCB"/>
<path d="M181.335 130.712C204.958 137.873 174.673 123.977 191.434 120.135" stroke="#D1333F" stroke-width="5.32628" stroke-linecap="round"/>
</svg>
