<svg width="169" height="168" viewBox="0 0 169 168" fill="none" xmlns="http://www.w3.org/2000/svg">
<circle cx="84.5" cy="84" r="84" fill="#F3F3F3"/>
<mask id="mask0_42655_30418" style="mask-type:luminance" maskUnits="userSpaceOnUse" x="0" y="0" width="169" height="168">
<circle cx="84.5" cy="84" r="84" fill="white"/>
</mask>
<g mask="url(#mask0_42655_30418)">
<path d="M58.6 131.6C58.6 131.6 42.6859 159.496 23.7941 151.304C4.90232 143.112 18.2105 95.8426 18.2105 95.8426" stroke="#2E2957" stroke-width="8.4" stroke-linecap="round"/>
<path d="M111.8 129.5C111.8 129.5 139.189 130.83 144.057 156.239C148.925 181.649 124.553 200.2 124.553 200.2" stroke="#2E2957" stroke-width="8.4" stroke-linecap="round"/>
<path fill-rule="evenodd" clip-rule="evenodd" d="M53 22.4L62.7738 23.8661C97.3908 29.0586 123 58.7957 123 93.8H53V22.4Z" fill="#2E2957"/>
<path d="M88 41.65C106.363 41.65 121.25 56.5365 121.25 74.9V202.65H54.75V74.9C54.75 56.5365 69.6365 41.65 88 41.65Z" fill="white" stroke="#2E2957" stroke-width="3.5"/>
<path fill-rule="evenodd" clip-rule="evenodd" d="M56.5 112L88 132.709L117.4 119.35V177.1H56.5V112Z" fill="#41C98E"/>
<circle cx="71.8999" cy="81.9" r="4.2" fill="#2E2957"/>
<circle cx="97.1" cy="81.9" r="4.2" fill="#2E2957"/>
<path d="M56.5 120.4L86.3029 139.293C86.985 139.725 87.8547 139.728 88.5397 139.3L118.8 120.4" stroke="#2E2957" stroke-width="3.5" stroke-linecap="square"/>
<circle cx="62.1" cy="93.8" r="6.3" fill="#E26952" fill-opacity="0.5"/>
<circle cx="106.9" cy="92.4" r="6.3" fill="#E26952" fill-opacity="0.5"/>
</g>
<path d="M78.1056 105.715C78.6654 106.15 83.5676 110.537 85.6741 109.833C89 108.721 91.4404 101.968 92.569 97.4549C92.8202 96.4503 92.2095 95.4323 91.2049 95.181C90.6969 95.054 87.1577 98.8859 83.7372 100.854C80.3945 102.776 77.1652 102.829 76.9892 103.31C76.6333 104.282 77.3169 105.103 78.1056 105.715Z" fill="#2E2957"/>
<path fill-rule="evenodd" clip-rule="evenodd" d="M8.2901 71.9282L21.8927 68.2834C24.5271 67.5775 27.2559 69.1412 27.9574 71.7592L37.5716 107.64C38.2728 110.257 36.6916 112.976 34.0572 113.682L20.4546 117.327C17.8202 118.033 15.0906 116.468 14.3894 113.852L4.77522 77.9708C4.07373 75.3529 5.65566 72.6341 8.2901 71.9282Z" fill="#31C381"/>
<path fill-rule="evenodd" clip-rule="evenodd" d="M25.6823 71.4312C25.7204 71.421 25.7583 71.4434 25.7679 71.4794L35.7501 108.734C35.7598 108.77 35.7382 108.808 35.7001 108.818L16.5989 113.936C16.5624 113.946 16.5235 113.924 16.5138 113.888L6.53157 76.6337C6.52194 76.5978 6.54463 76.5591 6.58106 76.5494L25.6823 71.4312Z" fill="white"/>
<path d="M13.1453 72.7088L18.0777 71.3872" stroke="#1DA96C" stroke-width="0.5" stroke-linecap="square"/>
<path fill-rule="evenodd" clip-rule="evenodd" d="M11.7852 88.1636L26.223 84.295L26.71 86.1127L12.2722 89.9813L11.7852 88.1636Z" fill="#41C98E"/>
<path fill-rule="evenodd" clip-rule="evenodd" d="M22.6272 98.6961L16.1374 89.8522L19.0971 89.0592L23.0369 94.6668L23.7894 87.8019L26.6048 87.0475L25.4064 97.9514L22.6272 98.6961Z" fill="#2E2957"/>
</svg>
