<svg width="24" height="21" viewBox="0 0 24 21" fill="none" xmlns="http://www.w3.org/2000/svg">
<path d="M23.2109 10C23.2109 10.7031 22.625 11.25 21.9609 11.25H20.7109L20.75 17.5C20.75 18.9062 19.6562 20.0391 18.25 20.0391H5.75C4.34375 20.0391 3.25 18.9062 3.25 17.5391V11.25H2C1.29688 11.25 0.75 10.7031 0.75 10C0.75 9.64844 0.867188 9.33594 1.14062 9.0625L11.1406 0.3125C11.4141 0.0390625 11.7266 0 12 0C12.2734 0 12.5859 0.078125 12.8203 0.273438L17 3.94531V2.5C17 1.83594 17.5469 1.25 18.25 1.25H19.5C20.1641 1.25 20.75 1.83594 20.75 2.5V7.22656L22.7812 9.0625C23.0938 9.33594 23.25 9.64844 23.2109 10ZM10.0078 8.125C8.67969 8.125 7.625 9.21875 7.625 10.5469C7.625 11.1719 7.85938 11.7969 8.28906 12.2266L11.5312 15.4688C11.7656 15.7031 12.1953 15.7031 12.4297 15.4688L15.6328 12.2266C16.1016 11.7969 16.3359 11.1719 16.3359 10.5469C16.3359 9.21875 15.2812 8.125 13.9531 8.125C13.3281 8.125 12.7031 8.39844 12.2734 8.82812L11.9609 9.14062L11.6875 8.82812C11.2188 8.39844 10.6328 8.125 10.0078 8.125Z" fill="#2E2957"/>
</svg>
