<svg width="140" height="140" viewBox="0 0 140 140" fill="none" xmlns="http://www.w3.org/2000/svg">
<path d="M14 70C14 84.8521 19.9 99.0959 30.402 109.598C40.9041 120.1 55.1479 126 70 126C84.8521 126 99.0959 120.1 109.598 109.598C120.1 99.0959 126 84.8521 126 70C126 55.1479 120.1 40.9041 109.598 30.402C99.0959 19.9 84.8521 14 70 14C55.1479 14 40.9041 19.9 30.402 30.402C19.9 40.9041 14 55.1479 14 70Z" fill="#FFF1B2"/>
<path d="M46 55C46 51.7188 48.625 49 52 49H88C91.2812 49 94 51.7188 94 55V85C94 88.375 91.2812 91 88 91H52C48.625 91 46 88.375 46 85V55ZM76.2812 65.0312C75.9062 64.375 75.1562 64 74.5 64C73.75 64 73 64.375 72.625 65.0312L64.4688 77.0312L61.9375 73.8438C61.5625 73.375 60.9062 73 60.25 73C59.5 73 58.8438 73.375 58.4688 73.8438L52.4688 81.3438C51.9062 82.0938 51.8125 83.0312 52.1875 83.7812C52.5625 84.5312 53.3125 85 54.25 85H63.25H66.25H85.75C86.5 85 87.3438 84.625 87.7188 83.875C88.0938 83.125 88 82.1875 87.5312 81.5312L76.2812 65.0312ZM56.5 64C58.0938 64 59.5 63.1562 60.3438 61.75C61.1875 60.4375 61.1875 58.6562 60.3438 57.25C59.5 55.9375 58.0938 55 56.5 55C54.8125 55 53.4062 55.9375 52.5625 57.25C51.7188 58.6562 51.7188 60.4375 52.5625 61.75C53.4062 63.1562 54.8125 64 56.5 64Z" fill="#383000"/>
<path opacity="0.4" d="M70 82C66.7188 82 63.8125 80.3125 62.125 77.5C60.5312 74.7812 60.5312 71.3125 62.125 68.5C63.8125 65.7812 66.7188 64 70 64C73.1875 64 76.0938 65.7812 77.7812 68.5C79.375 71.3125 79.375 74.7812 77.7812 77.5C76.0938 80.3125 73.1875 82 70 82Z" fill="#383000"/>
</svg>
