<svg width="68" height="26" viewBox="0 0 68 26" fill="none" xmlns="http://www.w3.org/2000/svg">
<path fill-rule="evenodd" clip-rule="evenodd" d="M16.869 12.4032H22.1619V20.9953C20.9457 22.3679 19.4346 23.4476 17.7419 24.1533C16.0493 24.8591 14.2188 25.1728 12.3877 25.0708C10.6475 25.0593 8.92797 24.6917 7.33504 23.9909C5.74211 23.29 4.30945 22.2705 3.12521 20.9953C1.05405 18.6181 -0.059029 15.5555 0.00241465 12.4032C-0.0104322 10.7926 0.294632 9.19522 0.900127 7.70267C1.50562 6.21012 2.39965 4.85171 3.531 3.70525C4.67492 2.52389 6.04633 1.58654 7.56247 0.949759C9.07861 0.31298 10.708 -0.0100243 12.3524 0.000237035C15.9696 0.022861 19.4555 1.35827 22.1619 3.75818L18.6333 7.78076C17.905 6.88302 16.9812 6.16359 15.9324 5.67741C14.8836 5.19123 13.7376 4.95116 12.5818 4.97554C10.724 5.01134 8.95518 5.77844 7.65944 7.11033C6.93061 7.78694 6.348 8.60559 5.94748 9.51585C5.54696 10.4261 5.33702 11.4087 5.33057 12.4032C5.30966 13.4181 5.49602 14.4266 5.87825 15.367C6.26048 16.3074 6.83055 17.16 7.55358 17.8725C8.82024 19.1396 10.4962 19.915 12.2819 20.0602C13.8717 20.1458 15.4554 19.8047 16.869 19.0722V12.4032Z" fill="white"/>
<path d="M29.5897 6.03418H24.3145V25.0532H29.5897V6.03418Z" fill="white"/>
<path fill-rule="evenodd" clip-rule="evenodd" d="M39.4162 25.0532L31.918 6.03418H37.6872L42.1156 18.0137L46.8439 6.03418H52.3308L44.8326 25.0532H39.4162Z" fill="white"/>
<path fill-rule="evenodd" clip-rule="evenodd" d="M59.5113 9.91561V18.0137C59.5828 18.6744 59.8894 19.2874 60.3752 19.7408C60.861 20.1943 61.4937 20.4579 62.1577 20.4837C62.5967 20.4708 63.0268 20.3576 63.4152 20.1527C63.8036 19.9478 64.1399 19.6567 64.3984 19.3016C65.2938 20.1988 66.2424 21.0413 67.2389 21.8246C66.4728 22.7642 65.5213 23.5359 64.4436 24.0914C63.366 24.6469 62.1855 24.9743 60.9757 25.0532C60.094 25.0915 59.2139 24.9467 58.391 24.6279C57.5681 24.309 56.8201 23.8231 56.1944 23.2007C55.5182 22.5256 54.995 21.7131 54.6602 20.8182C54.3254 19.9233 54.1867 18.9669 54.2537 18.0137V0.0532227H59.5466V6.03417H64.1337V9.91561H59.5113Z" fill="white"/>
<path d="M52.1373 0.0532227H24.3145V3.93466H52.1373V0.0532227Z" fill="white"/>
</svg>
