<svg width="150" height="150" viewBox="0 0 150 150" fill="none" xmlns="http://www.w3.org/2000/svg">
<g clip-path="url(#clip0_15067_49996)">
<mask id="mask0_15067_49996" style="mask-type:alpha" maskUnits="userSpaceOnUse" x="0" y="0" width="150" height="150">
<circle cx="75" cy="75" r="75" fill="#D9D9D9"/>
</mask>
<g mask="url(#mask0_15067_49996)">
<circle cx="75" cy="75" r="75" fill="#FFEDE3"/>
<path d="M43.7319 176.277L49.3422 171.775C49.3422 171.775 49.2901 169.077 49.2217 165.49C47.2761 163.392 35.3381 150.358 28.2137 144.349L52.5267 131.927C52.5267 131.927 53.2479 128.887 51.6421 111.227C34.831 119.268 17.3887 131.816 5.35718 141.346C5.35898 141.35 14.0891 158.299 43.7319 176.277Z" fill="#3D4347"/>
<path d="M110.551 111.066C111.123 117.611 111.449 128.903 111.98 133.564L133.558 153.344C129.62 155.969 123.143 160.419 119.922 162.638L121.12 167.429L125.504 177.24C134.023 172.275 145.228 164.816 155.585 154.993C155.585 154.993 127.837 119.898 110.551 111.066Z" fill="#3D4347"/>
<path d="M110.551 111.151C93.8694 102.581 87.9895 102.558 76.6898 103.236C69.3015 103.679 59.0166 106.851 50.3127 111.965L47.8009 128.079L53.9091 175.789L109.652 173.99L114.518 132.564C114.518 132.564 110.603 111.178 110.551 111.151Z" fill="#3D4347"/>
<path d="M107.838 109.587C91.6706 101.495 93.0192 101.495 78.0949 101.495C70.5714 101.851 66.2715 101.495 53.0662 110.558L83.2089 132.814L107.998 109.659C107.945 109.637 107.891 109.608 107.838 109.587Z" fill="#F6F8F7"/>
<path d="M81.2417 113.84C78.0032 113.84 75.3796 111.215 75.3796 107.978V87.3368C75.3796 84.0983 78.005 81.4748 81.2417 81.4748C84.4802 81.4748 87.1037 84.1001 87.1037 87.3368V107.978C87.1037 111.215 84.4784 113.84 81.2417 113.84Z" fill="url(#paint0_linear_15067_49996)"/>
<mask id="mask1_15067_49996" style="mask-type:alpha" maskUnits="userSpaceOnUse" x="53" y="101" width="55" height="32">
<path d="M107.838 109.587C91.6706 101.495 93.0192 101.495 78.0949 101.495C70.5714 101.851 66.2715 101.495 53.0662 110.558L83.2089 132.814L107.998 109.659C107.945 109.637 107.891 109.608 107.838 109.587Z" fill="#F6F8F7"/>
</mask>
<g mask="url(#mask1_15067_49996)">
<circle cx="80.8791" cy="117.427" r="5.60648" fill="#DD2D54"/>
<path d="M77.5152 117.427H84.5633L89.8494 134.246H75.2726L77.5152 117.427Z" fill="#DD2D54"/>
</g>
<path d="M119.471 62.8096C118.775 62.8096 118.099 62.8815 117.439 63.0038C117.516 62.0238 117.588 61.042 117.588 60.0404C117.588 39.3075 100.78 22.5 80.0476 22.5C59.7714 22.5 43.293 38.5864 42.5755 58.6882C41.4966 58.3375 40.3476 58.1433 39.1518 58.1433C33.0272 58.1433 28.0625 63.1081 28.0625 69.2326C28.0625 75.3572 33.0272 80.322 39.1518 80.322C42.0882 80.322 44.7513 79.1711 46.7347 77.3082C52.9869 89.3451 65.5453 97.5826 80.0458 97.5826C92.9512 97.5826 104.332 91.066 111.088 81.1473C113.121 83.4957 116.117 84.9882 119.467 84.9882C125.592 84.9882 130.556 80.0234 130.556 73.8989C130.56 67.7743 125.595 62.8096 119.471 62.8096Z" fill="#F8B79B"/>
<path d="M45.8215 62.3223C47.0586 69.4035 47.5082 72.9998 51.216 73.3361C54.9238 73.6723 63.4094 65.9186 72.7095 65.4691C82.0096 65.0195 100.666 73.3468 100.666 73.3468C100.666 73.3468 105.835 68.1483 106.285 63.6619L110.78 65.0195C110.78 65.0195 112.803 102.536 104.149 109.054C95.4941 115.573 62.4168 121.305 51.7015 109.054C40.988 96.8033 43.4604 61.1984 43.4604 61.1984L45.8215 62.3223Z" fill="#784E28"/>
<path d="M62.9144 54.5855C62.9144 53.0371 61.6597 51.7823 60.1112 51.7823C58.5627 51.7823 57.308 53.0371 57.308 54.5855C57.308 56.134 58.5627 57.3888 60.1112 57.3888C61.6597 57.3861 62.9144 56.1313 62.9144 54.5855Z" fill="#070904"/>
<path d="M96.3193 55.2985C96.3193 53.75 95.0645 52.4952 93.516 52.4952C91.9675 52.4952 90.7128 53.75 90.7128 55.2985C90.7128 56.847 91.9675 58.1017 93.516 58.1017C95.0645 58.1017 96.3193 56.847 96.3193 55.2985Z" fill="#070904"/>
<path d="M99.0177 49.9821C97.4753 54.459 82.5642 47.372 83.5319 44.8473C84.4995 42.3226 100.215 46.5101 99.0177 49.9821Z" fill="#784E28"/>
<path d="M50.643 50.1815C48.3721 46.0263 63.6491 39.7717 64.8647 42.1876C66.0803 44.6034 52.404 53.4048 50.643 50.1815Z" fill="#784E28"/>
<path d="M73.8961 57.6522C73.8961 57.6522 69.0842 58.839 70.2081 61.9858C71.332 65.1326 75.3778 62.8849 75.3778 62.8849" stroke="#EF997B" stroke-width="1.78396" stroke-miterlimit="10" stroke-linecap="round" stroke-linejoin="round"/>
<path d="M69.4984 76.1416C69.4984 76.1416 76.5437 79.1301 83.3785 77.0407" stroke="#070904" stroke-width="2.67595" stroke-miterlimit="10" stroke-linecap="round" stroke-linejoin="round"/>
<circle cx="59.5744" cy="55.7555" r="6.24193" stroke="#6768E6" stroke-width="3.21429"/>
<circle cx="93.2133" cy="56.8766" r="6.24193" stroke="#6768E6" stroke-width="3.21429"/>
<path d="M65.1809 52.3914C65.1809 52.3914 72.2656 49.0275 76.9545 49.0275C81.6435 49.0275 88.7281 52.3914 88.7281 52.3914" stroke="#6768E6" stroke-width="3.21429"/>
<path d="M42.9412 115.163L51.9296 109.974C51.9296 109.974 66.5981 125.342 76.0715 135.536C79.793 139.54 113.571 151.607 113.571 151.607L113.571 166.071C113.571 166.071 79.7515 163.292 63.3127 144.401C54.1772 133.903 42.9412 115.163 42.9412 115.163Z" fill="#FBC30C"/>
</g>
</g>
<defs>
<linearGradient id="paint0_linear_15067_49996" x1="81.2409" y1="113.84" x2="81.2409" y2="81.4732" gradientUnits="userSpaceOnUse">
<stop stop-color="#F8B79B"/>
<stop offset="0.4447" stop-color="#EF997B"/>
</linearGradient>
<clipPath id="clip0_15067_49996">
<rect width="150" height="150" fill="white"/>
</clipPath>
</defs>
</svg>
