<svg width="40" height="40" viewBox="0 0 40 40" fill="none" xmlns="http://www.w3.org/2000/svg">
<g id="Microphone Arslan Haider Lineal 1" clip-path="url(#clip0_2_3656)">
<g id="Group">
<g id="Group_2">
<path id="Vector" d="M20.5875 15.7937C19.9875 15.1937 18.9312 15.1937 18.325 15.7937L17.0625 17.0625L15.7937 18.325C15.4937 18.6312 15.325 19.0312 15.325 19.4562C15.325 19.8875 15.4937 20.2875 15.7937 20.5875C16.1 20.8875 16.5 21.0562 16.925 21.0562C17.3562 21.0562 17.7562 20.8875 18.0562 20.5875L20.5875 18.0562C21.2125 17.4312 21.2125 16.4187 20.5875 15.7937ZM17.1937 19.7312C17.05 19.875 16.7937 19.875 16.6437 19.7312C16.4937 19.5812 16.4937 19.3375 16.6437 19.1875L17.4812 18.35L18.0312 18.8937L17.1937 19.7312ZM19.7312 17.2L18.8937 18.0375L18.35 17.4875L19.1875 16.65C19.2562 16.5812 19.3562 16.5375 19.4562 16.5375C19.5625 16.5375 19.6562 16.5812 19.7312 16.65C19.8812 16.8062 19.8812 17.05 19.7312 17.2Z" fill="black"/>
<path id="Vector_2" d="M34.3937 3.05001C34.2375 2.86251 34.0688 2.67501 33.8875 2.50001C30.7 -0.69374 25.5625 -0.84374 22.1937 2.14376C22.0625 2.25626 21.9375 2.38751 21.8187 2.50626C21.6437 2.67501 21.4813 2.85626 21.3312 3.03751C19.8687 4.76876 19.225 6.95626 19.3625 9.09376L7.55 22.8688C6.2625 24.3813 6.225 26.5938 7.38125 28.15L5.31875 30.2063C3.08125 32.4438 3.08125 36.0813 5.31875 38.3188C6.4 39.4063 7.84375 40 9.38125 40C10.1437 40 10.8937 39.85 11.5813 39.5688C12.2688 39.2813 12.8937 38.8625 13.4375 38.3188C14.2375 37.525 15.3 37.0813 16.4312 37.0813C17.5688 37.0813 18.6312 37.5188 19.4312 38.3188C19.95 38.8375 20.6437 39.125 21.375 39.125C22.1125 39.125 22.8062 38.8375 23.325 38.3188L27.1 34.5438C27.3375 34.3125 27.3375 33.925 27.1 33.6875C26.8625 33.45 26.4813 33.45 26.2438 33.6875L22.4688 37.4625C21.8875 38.0438 20.8687 38.0438 20.2875 37.4625C19.2625 36.4375 17.8875 35.8688 16.4312 35.8688C14.975 35.8688 13.6062 36.4375 12.5812 37.4625C11.725 38.3188 10.5875 38.7875 9.38125 38.7875C8.16875 38.7875 7.03125 38.3188 6.175 37.4625C4.4125 35.7 4.4125 32.825 6.175 31.0625L8.2375 29.0063C8.98125 29.5625 9.875 29.85 10.775 29.85C11.75 29.85 12.7312 29.5125 13.5125 28.8313L27.25 17.05C27.45 17.0688 27.6437 17.075 27.8438 17.075C29.7937 17.075 31.75 16.4063 33.3375 15.0563C33.5187 14.9063 33.7 14.7375 33.875 14.5688V14.5625C34.0063 14.4375 34.1313 14.3063 34.2188 14.1938C34.225 14.1875 34.225 14.1813 34.2313 14.175L34.2375 14.1688C37.0125 11.0313 37.0812 6.26251 34.3937 3.05001ZM12.7188 27.9125C11.5375 28.9375 9.7375 28.8625 8.625 27.7563C7.51875 26.65 7.45 24.85 8.46875 23.6563L19.6062 10.6625C19.9688 12.1 20.7063 13.4625 21.8125 14.5688C21.9937 14.7438 22.175 14.9188 22.3625 15.075C23.3625 15.9125 24.5 16.4875 25.6875 16.8L12.7188 27.9125ZM32.5625 14.1313C31.0062 15.4438 29.05 16.0125 27.1437 15.825C27.125 15.825 27.1062 15.8188 27.0875 15.8188C25.6812 15.6688 24.3062 15.1188 23.15 14.15C22.9875 14.0125 22.8312 13.8625 22.675 13.7125C20.0062 11.0438 19.825 6.70001 22.2563 3.81251C22.2875 3.78126 22.3187 3.75001 22.35 3.71251C24.1437 8.35626 27.6187 11.8125 32.7 14C32.65 14.0438 32.6062 14.0875 32.5625 14.1313ZM33.5875 13.0563C28.425 10.9375 24.9688 7.48751 23.3062 2.80001C24.6375 1.74376 26.2437 1.21251 27.85 1.21251C29.725 1.21251 31.6062 1.93126 33.0312 3.35626C33.1812 3.50626 33.3312 3.66876 33.4688 3.83126C35.675 6.46876 35.7 10.3438 33.5875 13.0563Z" fill="black"/>
<path id="Vector_3" d="M33.5875 13.0563C28.425 10.9375 24.9688 7.48752 23.3063 2.80002C24.6375 1.74377 26.2438 1.21252 27.85 1.21252C29.725 1.21252 31.6063 1.93127 33.0313 3.35627C33.1813 3.50627 33.3313 3.66877 33.4688 3.83127C35.675 6.46877 35.7 10.3438 33.5875 13.0563Z" fill="#8A8BC4"/>
<path id="Vector_4" d="M32.6938 14C32.65 14.0438 32.6063 14.0875 32.5563 14.1313C31 15.4438 29.0438 16.0125 27.1375 15.825C27.1188 15.825 27.1 15.8188 27.0813 15.8188C25.675 15.6688 24.3 15.1188 23.1438 14.15C22.9813 14.0125 22.825 13.8625 22.6688 13.7125C20 11.0438 19.8188 6.70002 22.25 3.81252C22.2813 3.78127 22.3125 3.75002 22.3438 3.71252C24.1375 8.35627 27.6188 11.8125 32.6938 14Z" fill="#8A8BC4"/>
<path id="Vector_5" d="M22.3625 15.075C22.175 14.9188 21.9938 14.7438 21.8125 14.5688C20.7063 13.4625 19.9688 12.1 19.6063 10.6625L8.47501 23.6563C7.45626 24.85 7.52501 26.65 8.63126 27.7563C9.74376 28.8625 11.5438 28.9375 12.725 27.9125L25.6875 16.8C24.5063 16.4875 23.3625 15.9125 22.3625 15.075ZM20.5875 18.0563L18.0563 20.5875C17.7563 20.8875 17.3563 21.0563 16.925 21.0563C16.5 21.0563 16.1 20.8875 15.7938 20.5875C15.4938 20.2875 15.325 19.8875 15.325 19.4563C15.325 19.0313 15.4938 18.6313 15.7938 18.325L17.0625 17.0625L18.325 15.7938C18.9313 15.1938 19.9875 15.1938 20.5875 15.7938C21.2125 16.4188 21.2125 17.4313 20.5875 18.0563Z" fill="#617586"/>
<g id="Group_3">
<path id="Vector_6" d="M18.0313 18.8938L17.1938 19.7313C17.05 19.875 16.7937 19.875 16.6437 19.7313C16.4937 19.5813 16.4937 19.3375 16.6437 19.1875L17.4813 18.35L18.0313 18.8938Z" fill="#4BC8F1"/>
<path id="Vector_7" d="M19.7312 17.2L18.8937 18.0375L18.35 17.4875L19.1875 16.65C19.2562 16.5813 19.3562 16.5375 19.4562 16.5375C19.5625 16.5375 19.6562 16.5813 19.7312 16.65C19.8812 16.8063 19.8812 17.05 19.7312 17.2Z" fill="#4BC8F1"/>
</g>
</g>
</g>
</g>
<defs>
<clipPath id="clip0_2_3656">
<rect width="40" height="40" fill="white"/>
</clipPath>
</defs>
</svg>
