<svg width="240" height="240" viewBox="0 0 240 240" fill="none" xmlns="http://www.w3.org/2000/svg">
<circle cx="120" cy="108" r="105" fill="#FEAD1D" fill-opacity="0.2"/>
<rect x="27" y="50" width="5" height="127" fill="#2E2957"/>
<path d="M40.4353 44.9074L104.672 33.1318C104.672 33.1318 135.477 47.5978 127.583 77.0586C119.689 106.519 85.7781 103.644 85.7781 103.644L35.5177 63.26L40.4353 44.9074Z" fill="url(#paint0_linear_5130_10748)" fill-opacity="0.3"/>
<path d="M18.9692 51.4574C19.8032 46.9169 23.7976 43.6449 28.4134 43.7212L44.7423 43.991L40.4062 67.596L25.0475 62.045C20.7059 60.4758 18.1351 55.9978 18.9692 51.4574Z" fill="#2E2957"/>
<path d="M174.896 120.08C145.959 136.787 119.703 145.483 116.251 139.505C112.799 133.526 133.459 115.136 162.396 98.4294C191.332 81.7228 221.418 76.3921 224.87 82.3708C228.322 88.3494 203.832 103.373 174.896 120.08Z" fill="#A7CB42"/>
<path fill-rule="evenodd" clip-rule="evenodd" d="M138.834 124.762C138.834 124.762 138.834 124.762 138.571 124.336C138.309 123.911 138.309 123.911 138.31 123.911L138.568 123.752C138.737 123.648 138.988 123.493 139.313 123.294C139.964 122.896 140.91 122.317 142.095 121.594C144.466 120.149 147.793 118.131 151.618 115.836C159.266 111.247 168.91 105.549 176.881 101.124C184.863 96.6936 191.248 93.6952 199.541 89.9199C204.206 87.7967 210.466 85.9711 215.54 84.6789C218.082 84.0317 220.333 83.5165 221.949 83.163C222.757 82.9862 223.407 82.8499 223.855 82.7576C224.079 82.7115 224.252 82.6764 224.37 82.6528L224.504 82.6261L224.55 82.6171C224.55 82.6171 224.551 82.6169 224.647 83.1076C224.742 83.5984 224.742 83.5984 224.742 83.5984L224.698 83.607L224.567 83.6333C224.451 83.6566 224.279 83.6913 224.057 83.7371C223.612 83.8286 222.967 83.9641 222.163 84.1399C220.555 84.4916 218.315 85.0042 215.787 85.6479C210.723 86.9375 204.535 88.7455 199.956 90.83C191.669 94.6021 185.313 97.5875 177.367 101.999C169.411 106.415 159.778 112.106 152.132 116.693C148.31 118.987 144.985 121.004 142.616 122.448C141.431 123.17 140.485 123.749 139.836 124.147C139.511 124.346 139.261 124.5 139.091 124.604L138.834 124.762ZM225.137 83.0117C225.19 83.2828 225.013 83.5454 224.742 83.5984L224.647 83.1076L224.55 82.6171C224.821 82.5641 225.084 82.7407 225.137 83.0117Z" fill="#577D00"/>
<g filter="url(#filter0_d_5130_10748)">
<path d="M165.484 82.5214C146.777 110.207 136.25 135.784 141.97 139.649C147.69 143.514 167.492 124.204 186.199 96.518C204.906 68.8323 212.346 39.1973 206.626 35.3322C200.906 31.4672 184.191 54.8357 165.484 82.5214Z" fill="#A7CB42"/>
</g>
<path fill-rule="evenodd" clip-rule="evenodd" d="M158.269 118.163C158.269 118.163 158.269 118.163 158.675 118.455C159.081 118.746 159.081 118.746 159.082 118.746L159.258 118.5C159.374 118.338 159.545 118.098 159.767 117.788C160.21 117.168 160.855 116.264 161.659 115.133C163.268 112.87 165.516 109.694 168.075 106.041C173.193 98.7352 179.556 89.5173 184.533 81.8781C189.516 74.2294 192.957 68.0719 197.308 60.0654C199.755 55.5624 202.018 49.4464 203.665 44.4759C204.49 41.9866 205.163 39.7773 205.63 38.19C205.863 37.3963 206.045 36.7579 206.168 36.3177C206.23 36.0975 206.277 35.9269 206.309 35.8111L206.345 35.6793L206.358 35.6345C206.358 35.6344 206.358 35.6337 205.875 35.5034C205.392 35.3731 205.392 35.3731 205.392 35.3732L205.381 35.4164L205.345 35.5459C205.314 35.66 205.267 35.829 205.206 36.0473C205.083 36.4841 204.902 37.1185 204.67 37.908C204.206 39.487 203.536 41.6852 202.716 44.1613C201.072 49.1215 198.832 55.1671 196.43 59.5879C192.082 67.5875 188.656 73.7173 183.695 81.3323C178.728 88.9569 172.372 98.1637 167.256 105.467C164.698 109.118 162.452 112.292 160.844 114.554C160.04 115.684 159.396 116.587 158.954 117.207C158.732 117.516 158.561 117.756 158.445 117.917L158.269 118.163ZM206.005 35.0207C205.739 34.9487 205.464 35.1066 205.392 35.3732L205.875 35.5034L206.358 35.6345C206.43 35.3679 206.272 35.0926 206.005 35.0207Z" fill="#577D00"/>
<g filter="url(#filter1_d_5130_10748)">
<path d="M166.62 110.605C157.972 142.879 145.556 167.595 138.888 165.808C132.22 164.021 133.824 136.409 142.472 104.134C151.12 71.8594 168.625 46.8159 175.293 48.6027C181.962 50.3895 175.268 78.3299 166.62 110.605Z" fill="#A7CB42"/>
</g>
<path fill-rule="evenodd" clip-rule="evenodd" d="M144.432 139.415C144.432 139.415 144.432 139.415 143.945 139.299C143.459 139.184 143.459 139.184 143.459 139.183L143.529 138.889C143.575 138.695 143.644 138.408 143.733 138.038C143.911 137.296 144.171 136.218 144.498 134.869C145.153 132.171 146.078 128.391 147.159 124.064C149.323 115.41 152.113 104.562 154.621 95.7967C157.132 87.0201 159.526 80.385 162.721 71.851C164.518 67.0515 167.654 61.3337 170.328 56.8319C171.668 54.5774 172.895 52.6211 173.788 51.2283C174.235 50.5319 174.598 49.9761 174.849 49.5942C174.975 49.4032 175.073 49.2557 175.139 49.1557L175.215 49.042L175.241 49.0035C175.241 49.0034 175.241 49.0028 175.656 49.2819C176.071 49.5611 176.071 49.5611 176.071 49.5612L176.046 49.5984L175.971 49.71C175.906 49.8086 175.809 49.9546 175.684 50.1441C175.435 50.523 175.074 51.0753 174.63 51.768C173.742 53.1536 172.52 55.1 171.188 57.3427C168.519 61.8352 165.422 67.4896 163.658 72.2017C160.465 80.7283 158.082 87.3339 155.582 96.0718C153.08 104.821 150.292 115.655 148.13 124.306C147.049 128.631 146.124 132.408 145.47 135.104C145.143 136.453 144.883 137.53 144.705 138.271C144.616 138.641 144.548 138.927 144.502 139.121L144.432 139.415ZM175.935 48.8671C176.164 49.0213 176.225 49.3321 176.071 49.5612L175.656 49.2819L175.241 49.0035C175.395 48.7744 175.706 48.713 175.935 48.8671Z" fill="#577D00"/>
<rect y="158" width="240" height="30" rx="10" fill="#AD81E1"/>
<path d="M10 150.2C10 132.969 23.9687 119 41.2 119H198.8C216.031 119 230 132.969 230 150.2C230 154.508 226.508 158 222.2 158H17.8C13.4922 158 10 154.508 10 150.2Z" fill="#8F51D6"/>
<path opacity="0.4" d="M79.1688 136.429H72.8313C66.8506 136.429 62 141.279 62 147.26C62 148.457 62.97 149.427 64.1662 149.427H87.835C89.0312 149.429 90 148.46 90 147.26C90 141.279 85.15 136.429 79.1688 136.429Z" fill="white"/>
<path d="M73.5953 85.9228C80.3249 84.5953 96.217 90.3626 96.217 90.3626L92.3347 104.851C92.3347 104.851 75.956 110.519 75.1828 113.104C70.7278 127.997 66.5449 141.808 66.7999 146.057C66.9175 148.016 67.6653 150.455 67.7565 154.078C67.8618 158.26 67.4895 161.557 67.1073 163.76C66.9393 164.728 65.7636 164.746 65.4886 163.803L63.6941 157.648L62.2292 164.875C61.9795 166.107 59.9396 165.829 59.9984 164.574C60.2076 160.107 60.2474 156.527 59.8304 156.613C59.3175 156.718 58.562 159.422 57.9036 162.269C57.6442 163.39 55.902 163.315 55.7731 162.171L55.0007 155.319C54.7488 155.251 53.5481 157.673 52.4571 160.005C52.0015 160.979 50.5057 160.668 50.4927 159.592L50.3955 151.541C50.3785 150.131 50.5104 148.723 50.7921 147.341C52.2509 140.182 57.1026 116.565 59.179 108.816C61.6378 99.6393 66.9536 87.233 73.5953 85.9228Z" fill="#662A00"/>
<path d="M164.5 88.9176C158.343 85.8936 141.5 87.3512 141.5 87.3512V102.351C165.185 113.021 171.694 131.436 193.5 141.5C205.82 147.186 208.841 149.18 211.552 133.297C211.837 131.63 211.01 129.968 209.534 129.144C203.931 126.018 190.429 118.215 186.5 113.5C181.5 107.5 170.576 91.9021 164.5 88.9176Z" fill="#662A00"/>
<path fill-rule="evenodd" clip-rule="evenodd" d="M109.249 30.7163C109.139 27.3182 112.777 25.0982 115.749 26.7493C117.138 27.5212 118 28.9858 118 30.5752V40.3848L124.483 33.9014C126.086 32.299 128.684 32.299 130.286 33.9014C131.83 35.4457 131.895 37.9289 130.432 39.5507L119.271 51.9271C118.41 52.8823 117.227 53.3907 116.024 53.4229C115.414 53.7893 114.699 54 113.936 54C113.225 54 112.556 53.8173 111.973 53.4958C109.841 54.1515 107.458 53.4249 106.072 51.5593L97.2106 39.6322C95.9408 37.923 96.1154 35.5414 97.621 34.0358C99.2977 32.3592 102.016 32.3592 103.693 34.0358L109.545 39.8879L109.249 30.7163Z" fill="#FE9300"/>
<path fill-rule="evenodd" clip-rule="evenodd" d="M87.3709 35C81.3372 39.2806 79.445 47.5319 83.2181 54.067C86.659 60.027 93.6922 62.62 100.004 60.6902C95.8535 58.8199 92.2301 55.6764 89.7802 51.433C86.7924 46.258 86.094 40.3894 87.3709 35Z" fill="#843B00"/>
<path fill-rule="evenodd" clip-rule="evenodd" d="M87.3709 35C81.3372 39.2806 79.445 47.5319 83.2181 54.067C86.659 60.027 93.6922 62.62 100.004 60.6902C95.8535 58.8199 92.2301 55.6764 89.7802 51.433C86.7924 46.258 86.094 40.3894 87.3709 35Z" fill="#843B00"/>
<path fill-rule="evenodd" clip-rule="evenodd" d="M142.282 35C148.316 39.2806 150.208 47.5319 146.435 54.067C142.994 60.027 135.961 62.62 129.649 60.6902C133.8 58.8199 137.423 55.6764 139.873 51.433C142.861 46.258 143.559 40.3894 142.282 35Z" fill="#843B00"/>
<path fill-rule="evenodd" clip-rule="evenodd" d="M142.282 35C148.316 39.2806 150.208 47.5319 146.435 54.067C142.994 60.027 135.961 62.62 129.649 60.6902C133.8 58.8199 137.423 55.6764 139.873 51.433C142.861 46.258 143.559 40.3894 142.282 35Z" fill="#843B00"/>
<path d="M73.0134 85.5772C71.3823 60.9073 90.9529 40 115.677 40C140.269 40 159.793 60.6955 158.361 85.2464L154.46 152.122C154.201 156.561 150.555 160.045 146.109 160.104L86.0412 160.894C81.5331 160.954 77.7669 157.474 77.4695 152.976L73.0134 85.5772Z" fill="#FEAD1D"/>
<path d="M146 160C146 160 122.118 147.5 114.502 156.76C110.192 162 111.419 166.797 112.573 174.26C114.949 189.622 118.183 206.557 117.349 210.732C116.965 212.656 115.891 214.97 115.305 218.546C114.817 221.52 114.302 224.187 113.849 226.361C113.617 227.468 115.206 228.15 115.829 227.206L118.841 222.638L119.071 226.768C119.138 227.977 121.082 228.074 121.315 226.885C121.849 224.161 122.406 221.999 122.81 222.141C123.287 222.31 123.587 224.362 123.772 226.557C123.866 227.666 125.516 227.913 125.886 226.863L127.771 221.52C128.008 221.49 128.533 224.019 129.016 226.668C129.219 227.779 130.864 227.786 131.059 226.673L133.71 211.519C134.047 209.596 134.102 207.651 133.869 205.713C132.835 197.111 129.808 172.029 129 166.5C127.75 162.04 146 160 146 160Z" fill="#662A00"/>
<path d="M117.108 159.484C117.108 159.484 93.2259 146.984 85.6099 156.244C81.3 161.484 82.5276 166.282 83.6817 173.744C86.0576 189.107 89.2917 206.042 88.4578 210.216C88.0733 212.141 86.9989 214.454 86.413 218.031C85.7519 222.066 85.5551 225.794 85.5215 228.487C85.5083 229.543 86.8198 229.777 87.2195 228.799L89.9489 222.123L90.1793 226.252C90.2467 227.462 92.1907 227.558 92.4237 226.37C92.9578 223.645 93.5147 221.484 93.9179 221.626C94.3956 221.794 94.6955 223.847 94.8806 226.041C94.9742 227.15 96.6244 227.398 96.9947 226.348L98.8792 221.005C99.0674 220.981 99.149 223.002 99.1777 225.52C99.1914 226.721 101.002 226.934 101.27 225.764L104.547 211.498C105.062 209.252 105.187 206.941 104.912 204.653C103.821 195.584 100.9 171.401 100.108 165.984C98.8581 161.524 117.108 159.484 117.108 159.484Z" fill="#662A00"/>
<g clip-path="url(#clip0_5130_10748)">
<path d="M135.319 75.6805C138.257 75.6805 140.638 73.2896 140.638 70.3402C140.638 67.3909 138.257 65 135.319 65C132.381 65 130 67.3909 130 70.3402C130 73.2896 132.381 75.6805 135.319 75.6805Z" fill="#FE9300"/>
<path d="M111.5 79.753C115.192 79.753 118.186 76.7485 118.186 73.0421C118.186 69.3358 115.192 66.3312 111.5 66.3312C107.808 66.3312 104.814 69.3358 104.814 73.0421C104.814 76.7485 107.808 79.753 111.5 79.753Z" fill="#FE9300"/>
<path d="M88.3192 76.6805C91.2569 76.6805 93.6384 74.2896 93.6384 71.3402C93.6384 68.3909 91.2569 66 88.3192 66C85.3815 66 83 68.3909 83 71.3402C83 74.2896 85.3815 76.6805 88.3192 76.6805Z" fill="#FE9300"/>
<path d="M133.671 81.6728C133.94 81.6728 134.196 81.7378 134.432 81.8924C136.144 83.0109 135.794 86.2972 135.371 87.9159C134.111 92.7437 130.121 96.5262 125.563 98.5232C121.345 100.37 116.677 100.866 112.065 100.866C111.878 100.866 111.691 100.866 111.504 100.866C111.317 100.866 111.13 100.866 110.943 100.866C106.331 100.866 101.659 100.37 97.4456 98.5232C92.8869 96.5262 88.8975 92.7478 87.6368 87.9159C87.2139 86.2972 86.8641 83.0109 88.5762 81.8924C88.8121 81.7378 89.0683 81.6728 89.3367 81.6728C90.6502 81.6728 92.2931 83.2224 93.2569 83.7755C98.6127 86.8381 104.729 88.6358 110.886 88.6358C110.955 88.6358 111.028 88.6358 111.097 88.6358C111.232 88.6277 111.37 88.6277 111.504 88.6318C111.642 88.6318 111.777 88.6318 111.911 88.6277C111.98 88.6399 112.053 88.6399 112.122 88.6399C118.279 88.6399 124.399 86.8422 129.751 83.7796C130.715 83.2264 132.358 81.6768 133.671 81.6768V81.6728ZM133.671 79.932C132.163 79.932 130.784 80.9244 129.678 81.7216C129.369 81.9453 129.076 82.1568 128.885 82.2666C124.066 85.0241 118.832 86.5981 113.651 86.8585C113.651 86.8381 111.85 86.8869 111.85 86.8869C111.785 86.8869 111.72 86.8869 111.659 86.8869C111.606 86.8869 111.553 86.8869 111.5 86.8869C111.447 86.8869 111.394 86.8869 111.341 86.8869C111.276 86.8869 111.211 86.8869 111.15 86.8869L109.349 86.8259V86.8585C104.168 86.5981 98.934 85.0241 94.115 82.2666C93.9239 82.1568 93.6311 81.9453 93.322 81.7216C92.2159 80.9244 90.8373 79.932 89.3285 79.932C88.7023 79.932 88.1248 80.1028 87.6165 80.4323C84.5746 82.4171 85.6929 87.3791 85.9451 88.3552C87.2464 93.3294 91.2805 97.726 96.7421 100.118C100.618 101.814 105.132 102.607 110.939 102.607C111.126 102.607 111.313 102.607 111.5 102.607C111.687 102.607 111.874 102.607 112.061 102.607C117.868 102.607 122.382 101.818 126.258 100.118C131.719 97.726 135.754 93.3294 137.055 88.3552C137.311 87.3791 138.425 82.4211 135.384 80.4323C134.875 80.0987 134.298 79.932 133.671 79.932Z" fill="#FE9300"/>
<path d="M134.432 81.8883C133.057 80.9895 130.914 83.1085 129.751 83.7714C124.334 86.8706 118.137 88.6724 111.911 88.6318C111.777 88.6236 111.638 88.6236 111.504 88.6277C111.37 88.6277 111.232 88.6277 111.097 88.6236C104.867 88.6765 98.6737 86.8747 93.2569 83.7755C92.0939 83.1085 89.9467 80.9935 88.5762 81.8924C86.8641 83.0109 87.2139 86.2972 87.6368 87.9159C88.8975 92.7437 92.8869 96.5262 97.4456 98.5232C101.834 100.443 106.714 100.903 111.508 100.862C116.303 100.903 121.183 100.443 125.571 98.5232C130.129 96.5262 134.119 92.7478 135.379 87.9159C135.802 86.2972 136.152 83.0109 134.44 81.8924L134.432 81.8883Z" fill="#843B00"/>
<path d="M128.751 85.7888C127.706 85.2031 126.071 86.5859 125.184 87.0211C121.061 89.0466 116.246 89.7462 111.5 89.7218C111.394 89.7177 111.293 89.7177 111.187 89.7218C111.081 89.7218 110.979 89.7218 110.874 89.7218C106.128 89.7502 101.504 89.0547 97.3765 87.0293C96.4899 86.5941 94.8551 85.2112 93.81 85.7969C92.5087 86.529 92.773 88.6765 93.0943 89.734C94.054 92.8942 97.0918 95.367 100.565 96.6726C103.908 97.9294 107.624 98.2304 111.276 98.2019C114.928 98.2304 118.645 97.9294 121.988 96.6726C125.461 95.367 128.499 92.8942 129.458 89.734C129.78 88.6765 130.048 86.5249 128.743 85.7969L128.751 85.7888Z" fill="#662A00"/>
<path d="M111.243 78.5898C116.467 78.5898 120.701 74.3383 120.701 69.0937C120.701 63.8491 116.467 59.5976 111.243 59.5976C106.02 59.5976 101.786 63.8491 101.786 69.0937C101.786 74.3383 106.02 78.5898 111.243 78.5898Z" fill="#FFFCFB"/>
<path d="M111.243 59.5976C115.834 59.5976 119.551 63.481 119.551 68.269C119.551 73.0571 115.834 76.9405 111.243 76.9405C106.653 76.9405 102.936 73.0571 102.936 68.269C102.936 63.481 106.653 59.5976 111.243 59.5976C106.019 59.5976 101.786 63.8502 101.786 69.0937C101.786 74.3372 106.019 78.5898 111.243 78.5898C116.468 78.5898 120.701 74.3372 120.701 69.0937C120.701 63.8502 116.468 59.5976 111.243 59.5976Z" fill="#FFEAE3"/>
<path d="M111.243 75.1188C114.56 75.1188 117.249 72.4213 117.249 69.0937C117.249 65.7661 114.56 63.0686 111.243 63.0686C107.927 63.0686 105.238 65.7661 105.238 69.0937C105.238 72.4213 107.927 75.1188 111.243 75.1188Z" fill="#7C5230"/>
<path d="M111.243 73.1925C113.5 73.1925 115.329 71.3574 115.329 69.0937C115.329 66.83 113.5 64.9949 111.243 64.9949C108.987 64.9949 107.158 66.83 107.158 69.0937C107.158 71.3574 108.987 73.1925 111.243 73.1925Z" fill="#523520"/>
<path d="M107.379 63.8256C104.542 63.8256 104.536 68.2506 107.379 68.2506C110.223 68.2506 110.223 63.8256 107.379 63.8256Z" fill="white"/>
<path d="M102.117 57.4854C101.142 58.5377 101.045 60.1568 102.639 60.8969C105.648 62.2846 110.47 62.9091 114.412 62.3772C117.476 62.3309 121.625 61.9608 122.422 59.6826C124.606 53.4262 105.126 54.2357 102.117 57.4854Z" fill="#843B00"/>
<path d="M102.948 90.9907C104.302 90.9989 105.116 89.5021 105.462 88.1803C104.062 87.9485 102.68 87.6231 101.313 87.2245C100.996 88.766 100.853 90.9826 102.948 90.9948V90.9907Z" fill="white"/>
<path d="M94.5706 84.4913C94.3428 85.3088 93.9401 86.0694 94.0377 86.9561C94.1394 87.8631 94.9163 88.709 95.8639 88.709C97.1166 88.709 98.0073 87.4563 98.5564 86.289C97.1939 85.7684 95.868 85.1665 94.5746 84.4913H94.5706Z" fill="white"/>
<path d="M113.078 88.6196C112.688 88.6318 112.298 88.6358 111.907 88.6318C111.773 88.6236 111.635 88.6236 111.5 88.6277C111.366 88.6277 111.228 88.6277 111.094 88.6236C110.272 88.6399 109.451 88.6114 108.629 88.5545C108.609 90.1326 109.17 91.9913 110.886 91.975C112.635 91.9587 113.005 90.2017 113.083 88.6236L113.078 88.6196Z" fill="white"/>
<path d="M127.434 88.8636C128.967 88.1234 128.808 86.0898 128.088 84.6662C126.775 85.3333 125.424 85.9271 124.046 86.4355C124.359 87.0171 124.448 87.741 124.863 88.286C125.473 89.0913 126.531 89.2988 127.434 88.8636Z" fill="white"/>
<path d="M119.333 91.2876C120.512 90.6044 120.724 88.9897 120.447 87.5621C118.898 87.9607 117.324 88.2494 115.737 88.4284C116.075 90.2708 117.503 92.3492 119.333 91.2876Z" fill="white"/>
<path d="M111.094 89.7136C111.228 89.7177 111.366 89.7136 111.5 89.7177C111.639 89.7177 111.773 89.7177 111.907 89.7136C112.261 89.7258 112.611 89.7218 112.965 89.7136C113.026 89.3557 113.062 88.9856 113.078 88.6196C112.688 88.6318 112.298 88.6358 111.907 88.6318C111.773 88.6236 111.635 88.6236 111.5 88.6277C111.366 88.6277 111.228 88.6277 111.094 88.6236C110.272 88.6399 109.451 88.6114 108.629 88.5545C108.625 88.9165 108.653 89.2906 108.714 89.6526C109.507 89.7055 110.301 89.7299 111.094 89.7258V89.7136Z" fill="#FFF0B8"/>
<path d="M120.447 87.5621C118.898 87.9607 117.324 88.2494 115.737 88.4284C115.803 88.7782 115.904 89.1402 116.047 89.4818C117.564 89.2988 119.073 89.01 120.557 88.6236C120.557 88.2698 120.516 87.9078 120.451 87.558L120.447 87.5621Z" fill="#FFF0B8"/>
<path d="M105.462 88.1762C104.062 87.9444 102.68 87.619 101.313 87.2204C101.244 87.5458 101.187 87.9037 101.154 88.2657C102.452 88.6521 103.766 88.9693 105.096 89.2052C105.246 88.8717 105.368 88.5179 105.458 88.1762H105.462Z" fill="#FFF0B8"/>
<path d="M128.088 84.6662C126.775 85.3333 125.424 85.9271 124.046 86.4355C124.204 86.7324 124.306 87.0618 124.42 87.3913C125.795 86.8666 127.137 86.2565 128.438 85.5773C128.349 85.26 128.231 84.9509 128.084 84.6662H128.088Z" fill="#FFF0B8"/>
<path d="M98.5523 86.289C97.1898 85.7684 95.8639 85.1665 94.5705 84.4913C94.481 84.8086 94.3672 85.1177 94.2655 85.4268C95.4938 86.0816 96.7627 86.6673 98.0602 87.1838C98.2473 86.8951 98.41 86.59 98.5523 86.289Z" fill="#FFF0B8"/>
<path d="M106.669 81.5223C106.844 81.0301 106.677 80.4811 106.12 80.3224C105.502 80.1476 104.811 80.1638 104.253 80.5177C103.753 80.8349 103.411 81.4043 103.432 82.0063C103.456 82.714 103.928 83.2346 104.562 83.4786C104.843 83.5843 105.168 83.6169 105.465 83.6006C105.921 83.5762 106.226 83.3932 106.433 82.9865C106.555 82.7465 106.669 82.4984 106.755 82.2381C106.832 82.0022 106.787 81.7378 106.669 81.5182V81.5223Z" fill="#FEBE4C"/>
<path d="M108.536 83.7592C108.194 83.4176 107.572 83.3932 107.238 83.7592C106.913 84.1131 106.86 84.715 107.238 85.0607C107.324 85.138 107.425 85.2031 107.535 85.2478C107.771 85.439 108.109 85.4105 108.369 85.2926C108.69 85.1502 108.796 84.8411 108.78 84.532C108.82 84.2554 108.751 83.9707 108.536 83.7552V83.7592Z" fill="#FEBE4C"/>
<path d="M117.836 80.961C117.743 80.782 117.568 80.6194 117.373 80.5217C117.194 80.2208 116.881 80.0174 116.498 80.0133C115.612 80.0052 114.892 80.5136 114.578 81.3352C114.371 81.8761 114.477 82.4903 115.022 82.7831C115.355 82.9621 115.758 83.0434 116.136 83.0312C116.795 83.0109 117.507 82.714 117.84 82.112C118.036 81.7582 118.019 81.3108 117.84 80.9569L117.836 80.961Z" fill="#FEBE4C"/>
<path d="M115.575 83.4501C115.364 83.3525 115.168 83.2874 114.945 83.2427C114.676 83.1898 114.335 83.0922 114.078 83.198C113.712 83.3444 113.448 83.5843 113.391 83.9951C113.338 84.3978 113.525 84.7232 113.847 84.9509C114.034 85.0851 114.274 85.0973 114.501 85.1136C114.526 85.1136 114.55 85.1217 114.575 85.1258C114.668 85.1421 114.758 85.1502 114.851 85.1624C114.932 85.1746 115.018 85.1909 115.099 85.195C115.49 85.2275 115.917 84.8818 116.002 84.5035C116.088 84.1253 115.953 83.6169 115.571 83.442L115.575 83.4501Z" fill="#FEBE4C"/>
<path d="M133.05 71.4153C132.855 70.6872 132.188 70.187 131.447 70.1504C131.264 70.1422 131.11 70.1829 130.947 70.248C130.862 70.2805 130.78 70.3171 130.707 70.3659C130.703 70.3659 130.361 70.671 130.471 70.5815C130.435 70.6099 130.402 70.6425 130.365 70.671C129.67 70.5774 129.166 71.0899 129.113 71.7528C129.084 72.1311 129.174 72.5093 129.243 72.8795C129.324 73.3146 129.812 73.6441 130.235 73.64C130.915 73.6278 131.618 73.7132 132.249 73.4082C133.005 73.0421 133.265 72.2043 133.054 71.4193L133.05 71.4153Z" fill="#FEBE4C"/>
<path d="M132.704 74.9903C132.293 74.9009 131.874 74.8805 131.484 75.0717C131.158 75.2344 130.914 75.4865 130.748 75.8119C130.508 76.2878 130.662 76.8572 131.171 77.0727C131.345 77.146 131.537 77.1582 131.716 77.1175C131.996 77.1907 132.334 77.1419 132.562 77.0158C133.041 76.7514 133.216 76.2146 133.241 75.698C133.257 75.393 133.001 75.0513 132.7 74.9863L132.704 74.9903Z" fill="#FEBE4C"/>
<path d="M135.795 74.6934C135.721 74.4372 135.559 74.2582 135.367 74.0833C134.977 73.7336 134.395 73.7417 134.062 74.1728C133.785 74.5307 133.842 74.9659 134.111 75.275C134.143 75.4215 134.208 75.5557 134.31 75.6533C134.578 75.8973 134.961 75.9583 135.282 75.7794C135.66 75.5679 135.921 75.1327 135.795 74.6934Z" fill="#FEBE4C"/>
<path d="M93.8307 71.3176C93.2084 70.8621 92.3096 70.7157 91.6222 71.1102C91.2277 71.338 91 71.7772 91.004 72.2246C91.0122 72.7818 91.3945 73.2292 91.8378 73.518C92.0249 73.64 92.2445 73.6685 92.4519 73.6278C92.6675 73.6807 92.9115 73.6522 93.1068 73.5668C93.5501 73.3757 93.9365 72.9364 94.1439 72.5053C94.3635 72.0497 94.2375 71.6146 93.8348 71.3176H93.8307Z" fill="#FEBE4C"/>
<path d="M90.3333 72.7615C90.1869 72.6639 90.016 72.5825 89.8493 72.5337C89.4832 72.428 89.1416 72.611 88.8894 72.8713C88.5681 73.2048 88.3566 73.6278 88.3485 74.0915C88.3485 74.1932 88.3647 74.2908 88.4014 74.3843C88.3566 74.7178 88.5071 75.0269 88.8772 75.149C89.0968 75.2181 89.3327 75.2425 89.5605 75.2547C89.6541 75.2588 89.7476 75.2588 89.8411 75.2547C89.8493 75.2547 89.89 75.2506 89.9266 75.2466C89.9347 75.2506 89.951 75.2547 89.9713 75.2628C90.2763 75.3564 90.7278 75.21 90.8702 74.8968C91.2077 74.1403 91.045 73.2374 90.3333 72.7574V72.7615Z" fill="#FEBE4C"/>
<path d="M91.4069 76.5196C91.0693 76.4342 90.7114 76.3895 90.3657 76.4179C89.959 76.4545 89.6498 76.6701 89.5197 77.0646C89.418 77.3737 89.4384 77.7154 89.5929 78.0041C89.6458 78.1017 89.6987 78.1953 89.7841 78.2766C89.8451 78.3376 90.1989 78.6142 89.9712 78.4271C90.085 78.5207 90.2071 78.5857 90.3372 78.6305C90.4023 78.7769 90.4918 78.9071 90.5975 79.0291C90.9025 79.3748 91.4516 79.2406 91.6753 78.8908C91.9519 78.4556 91.9844 77.8008 91.9966 77.3005C92.0048 76.9548 91.7404 76.605 91.4069 76.5237V76.5196Z" fill="#FEBE4C"/>
</g>
<path d="M145.985 103.258C145.838 103.161 145.668 103.079 145.501 103.03C145.135 102.925 144.793 103.108 144.541 103.368C144.22 103.702 144.008 104.125 144 104.588C144 104.69 144.016 104.788 144.053 104.881C144.008 105.215 144.159 105.524 144.529 105.646C144.748 105.715 144.984 105.739 145.212 105.751C145.306 105.756 145.399 105.756 145.493 105.751C145.501 105.751 145.541 105.747 145.578 105.743C145.586 105.747 145.602 105.751 145.623 105.76C145.928 105.853 146.379 105.707 146.522 105.394C146.859 104.637 146.697 103.734 145.985 103.254V103.258Z" fill="#FEBE4C"/>
<path d="M90.5617 138.265C90.22 137.924 89.5977 137.899 89.2642 138.265C88.9389 138.619 88.886 139.221 89.2642 139.567C89.3496 139.644 89.4513 139.709 89.5611 139.754C89.797 139.945 90.1346 139.917 90.3949 139.799C90.7162 139.656 90.822 139.347 90.8057 139.038C90.8464 138.762 90.7772 138.477 90.5617 138.261V138.265Z" fill="#FEBE4C"/>
<path d="M88.9425 144.266C88.7473 143.538 88.0802 143.038 87.34 143.001C87.157 142.993 87.0024 143.034 86.8397 143.099C86.7543 143.131 86.673 143.168 86.5998 143.217C86.5957 143.217 86.2541 143.522 86.3639 143.432C86.3273 143.461 86.2947 143.493 86.2581 143.522C85.5626 143.428 85.0583 143.941 85.0054 144.604C84.977 144.982 85.0664 145.36 85.1356 145.73C85.2169 146.165 85.705 146.495 86.128 146.491C86.8072 146.478 87.5108 146.564 88.1412 146.259C88.8977 145.893 89.158 145.055 88.9466 144.27L88.9425 144.266Z" fill="#FEBE4C"/>
<path d="M130.95 135.11C130.612 135.025 130.254 134.98 129.909 135.009C129.502 135.045 129.193 135.261 129.063 135.655C128.961 135.964 128.981 136.306 129.136 136.595C129.189 136.692 129.242 136.786 129.327 136.867C129.388 136.928 129.742 137.205 129.514 137.018C129.628 137.111 129.75 137.176 129.88 137.221C129.945 137.368 130.035 137.498 130.141 137.62C130.446 137.965 130.995 137.831 131.218 137.481C131.495 137.046 131.527 136.391 131.54 135.891C131.548 135.545 131.283 135.196 130.95 135.114V135.11Z" fill="#FEBE4C"/>
<path d="M87.2384 117.309C87.4132 116.816 87.2465 116.267 86.6893 116.109C86.0711 115.934 85.3796 115.95 84.8224 116.304C84.3222 116.621 83.9805 117.191 84.0009 117.793C84.0253 118.5 84.4971 119.021 85.1315 119.265C85.4122 119.371 85.7376 119.403 86.0345 119.387C86.49 119.363 86.795 119.179 87.0025 118.773C87.1245 118.533 87.2384 118.285 87.3238 118.024C87.401 117.789 87.3563 117.524 87.2384 117.305V117.309Z" fill="#FEBE4C"/>
<path d="M25.1255 142.09C29.0122 140.083 39.7703 140.796 39.7703 140.796L39.9627 150.36C39.9627 150.36 30.5842 151.36 30.5692 153.081C30.4824 162.994 29.5429 166.628 30.453 169.186C30.8726 170.365 31.7634 171.726 32.462 173.929C33.2684 176.472 33.6252 178.558 33.7819 179.975C33.8508 180.598 33.1339 180.818 32.7981 180.289L30.6069 176.837L30.9917 181.524C31.0572 182.323 29.7584 182.515 29.5717 181.735C28.9075 178.962 28.2968 176.762 28.0565 176.888C27.7609 177.044 27.7779 178.834 27.8796 180.695C27.9197 181.428 26.8392 181.691 26.5573 181.013L24.8684 176.952C24.7021 176.956 24.3963 178.652 24.1417 180.275C24.0354 180.952 23.0638 181.026 22.8651 180.37L21.4312 175.634C21.1348 174.655 20.9572 173.645 20.9055 172.624C20.7578 169.703 20.4477 163.231 20.356 158.671C20.2342 152.614 21.2894 144.071 25.1255 142.09Z" fill="#843B00"/>
<path d="M81.7753 141.399C77.8885 139.391 67.1304 140.105 67.1304 140.105L66.938 149.669C66.938 149.669 76.3165 150.669 76.3316 152.39C76.4183 162.303 77.3578 165.937 76.4477 168.494C76.0281 169.674 75.1374 171.035 74.4387 173.238C73.6323 175.781 73.2755 177.866 73.1188 179.284C73.0499 179.907 73.7668 180.127 74.1026 179.598L76.2938 176.146L75.9091 180.832C75.8435 181.631 77.1423 181.823 77.329 181.044C77.9932 178.271 78.604 176.071 78.8443 176.197C79.1398 176.352 79.1228 178.143 79.0211 180.003C78.981 180.736 80.0615 181 80.3435 180.322L82.0323 176.261C82.1986 176.264 82.5044 177.961 82.759 179.583C82.8653 180.261 83.8369 180.335 84.0356 179.679L85.4696 174.942C85.7659 173.963 85.9435 172.954 85.9952 171.933C86.1429 169.011 86.453 162.539 86.5447 157.979C86.6665 151.922 85.6113 143.379 81.7753 141.399Z" fill="#843B00"/>
<path fill-rule="evenodd" clip-rule="evenodd" d="M48.0219 102.202C47.7722 99.9158 50.1104 98.2305 52.2001 99.1903C53.177 99.639 53.8339 100.582 53.9161 101.654L54.4235 108.269L58.4604 103.562C59.4581 102.398 61.2102 102.264 62.3737 103.261C63.4949 104.223 63.6666 105.894 62.7642 107.064L55.8778 115.987C55.3463 116.676 54.5748 117.08 53.7656 117.164C53.3729 117.443 52.9019 117.622 52.3868 117.661C51.9076 117.698 51.4469 117.609 51.0376 117.423C49.6337 117.975 47.989 117.609 46.9577 116.422L40.3647 108.837C39.42 107.75 39.4146 106.135 40.352 105.042C41.396 103.824 43.2292 103.684 44.4466 104.728L48.6958 108.372L48.0219 102.202Z" fill="#FE9300"/>
<g filter="url(#filter2_i_5130_10748)">
<path d="M27.4381 136.917C26.1788 121.825 38.088 108.881 53.232 108.881C68.2785 108.881 80.154 121.666 79.0451 136.672L77.5208 157.3C77.1077 162.89 72.4951 167.24 66.8906 167.324L40.1438 167.728C34.4454 167.814 29.654 163.472 29.1801 157.793L27.4381 136.917Z" fill="#FEAD1D"/>
</g>
<path d="M34.0988 129.881C35.7556 129.881 37.0988 128.538 37.0988 126.881C37.0988 125.224 35.7556 123.881 34.0988 123.881C32.4419 123.881 31.0988 125.224 31.0988 126.881C31.0988 128.538 32.4419 129.881 34.0988 129.881Z" fill="#FE9300"/>
<path d="M71.0988 129.881C72.7556 129.881 74.0988 128.538 74.0988 126.881C74.0988 125.224 72.7556 123.881 71.0988 123.881C69.4419 123.881 68.0988 125.224 68.0988 126.881C68.0988 128.538 69.4419 129.881 71.0988 129.881Z" fill="#FE9300"/>
<path d="M66.8822 129.934C67.0538 129.934 67.2176 129.976 67.3684 130.074C68.463 130.79 68.2394 132.891 67.969 133.926C67.163 137.012 64.6124 139.43 61.6978 140.707C59.0016 141.888 56.0168 142.205 53.0684 142.205C52.9488 142.205 52.8292 142.205 52.7096 142.205C52.59 142.205 52.4704 142.205 52.3508 142.205C49.4024 142.205 46.415 141.888 43.7214 140.707C40.8068 139.43 38.2562 137.015 37.4502 133.926C37.1798 132.891 36.9562 130.79 38.0508 130.074C38.2016 129.976 38.3654 129.934 38.537 129.934C39.3768 129.934 40.4272 130.925 41.0434 131.278C44.4676 133.236 48.378 134.386 52.3144 134.386C52.3586 134.386 52.4054 134.386 52.4496 134.386C52.5354 134.381 52.6238 134.381 52.7096 134.383C52.798 134.383 52.8838 134.383 52.9696 134.381C53.0138 134.388 53.0606 134.388 53.1048 134.388C57.0412 134.388 60.9542 133.239 64.3758 131.281C64.992 130.927 66.0424 129.937 66.8822 129.937V129.934ZM66.8822 128.821C65.9176 128.821 65.0362 129.456 64.329 129.965C64.1314 130.108 63.9442 130.243 63.822 130.314C60.741 132.077 57.3948 133.083 54.0824 133.249C54.0824 133.236 52.9306 133.268 52.9306 133.268C52.889 133.268 52.8474 133.268 52.8084 133.268C52.7746 133.268 52.7408 133.268 52.707 133.268C52.6732 133.268 52.6394 133.268 52.6056 133.268C52.564 133.268 52.5224 133.268 52.4834 133.268L51.3316 133.229V133.249C48.0192 133.083 44.673 132.077 41.592 130.314C41.4698 130.243 41.2826 130.108 41.085 129.965C40.3778 129.456 39.4964 128.821 38.5318 128.821C38.1314 128.821 37.7622 128.93 37.4372 129.141C35.4924 130.41 36.2074 133.582 36.3686 134.206C37.2006 137.387 39.7798 140.198 43.2716 141.727C45.7494 142.811 48.6354 143.318 52.3482 143.318C52.4678 143.318 52.5874 143.318 52.707 143.318C52.8266 143.318 52.9462 143.318 53.0658 143.318C56.7786 143.318 59.6646 142.814 62.1424 141.727C65.6342 140.198 68.2134 137.387 69.0454 134.206C69.2092 133.582 69.9216 130.412 67.9768 129.141C67.6518 128.928 67.2826 128.821 66.8822 128.821Z" fill="#FE9300"/>
<path d="M67.3684 130.072C66.4896 129.497 65.1194 130.852 64.3758 131.276C60.9126 133.257 56.9502 134.409 52.9696 134.383C52.8838 134.378 52.7954 134.378 52.7096 134.381C52.6238 134.381 52.5354 134.381 52.4496 134.378C48.4664 134.412 44.5066 133.26 41.0434 131.278C40.2998 130.852 38.927 129.5 38.0508 130.074C36.9562 130.79 37.1798 132.891 37.4502 133.926C38.2562 137.012 40.8068 139.43 43.7214 140.707C46.5268 141.935 49.6468 142.228 52.7122 142.202C55.7776 142.228 58.8976 141.935 61.703 140.707C64.6176 139.43 67.1682 137.015 67.9742 133.926C68.2446 132.891 68.4682 130.79 67.3736 130.074L67.3684 130.072Z" fill="#843B00"/>
<path d="M63.7362 132.566C63.068 132.191 62.0228 133.075 61.456 133.353C58.8196 134.648 55.7412 135.096 52.707 135.08C52.6394 135.077 52.5744 135.077 52.5068 135.08C52.4392 135.08 52.3742 135.08 52.3066 135.08C49.2724 135.098 46.3162 134.654 43.6772 133.359C43.1104 133.08 42.0652 132.196 41.397 132.571C40.565 133.039 40.734 134.412 40.9394 135.088C41.553 137.108 43.4952 138.689 45.7156 139.524C47.8528 140.328 50.2292 140.52 52.564 140.502C54.8988 140.52 57.2752 140.328 59.4124 139.524C61.6328 138.689 63.575 137.108 64.1886 135.088C64.394 134.412 64.5656 133.036 63.731 132.571L63.7362 132.566Z" fill="#662A00"/>
<path d="M52.7106 127.627C55.3911 127.627 57.5641 125.445 57.5641 122.754C57.5641 120.063 55.3911 117.881 52.7106 117.881C50.0301 117.881 47.8571 120.063 47.8571 122.754C47.8571 125.445 50.0301 127.627 52.7106 127.627Z" fill="#FFFCFB"/>
<path d="M52.7106 117.881C55.0663 117.881 56.9736 119.874 56.9736 122.331C56.9736 124.788 55.0663 126.781 52.7106 126.781C50.3549 126.781 48.4476 124.788 48.4476 122.331C48.4476 119.874 50.3549 117.881 52.7106 117.881C50.0297 117.881 47.8571 120.063 47.8571 122.754C47.8571 125.445 50.0297 127.627 52.7106 127.627C55.3916 127.627 57.5641 125.445 57.5641 122.754C57.5641 120.063 55.3916 117.881 52.7106 117.881Z" fill="#FFEAE3"/>
<path d="M52.7106 125.846C54.4128 125.846 55.7926 124.462 55.7926 122.754C55.7926 121.046 54.4128 119.662 52.7106 119.662C51.0085 119.662 49.6286 121.046 49.6286 122.754C49.6286 124.462 51.0085 125.846 52.7106 125.846Z" fill="#7C5230"/>
<path d="M52.7107 124.857C53.8687 124.857 54.8074 123.916 54.8074 122.754C54.8074 121.592 53.8687 120.651 52.7107 120.651C51.5526 120.651 50.6139 121.592 50.6139 122.754C50.6139 123.916 51.5526 124.857 52.7107 124.857Z" fill="#523520"/>
<path d="M50.7277 120.051C49.2718 120.051 49.2686 122.321 50.7277 122.321C52.1868 122.321 52.1868 120.051 50.7277 120.051Z" fill="white"/>
<path d="M62.9261 129.528C65.0206 129.528 66.7186 127.823 66.7186 125.72C66.7186 123.616 65.0206 121.911 62.9261 121.911C60.8315 121.911 59.1336 123.616 59.1336 125.72C59.1336 127.823 60.8315 129.528 62.9261 129.528Z" fill="#FFFCFB"/>
<path d="M62.926 128.136C64.2567 128.136 65.3354 127.054 65.3354 125.72C65.3354 124.385 64.2567 123.304 62.926 123.304C61.5953 123.304 60.5166 124.385 60.5166 125.72C60.5166 127.054 61.5953 128.136 62.926 128.136Z" fill="#7C5230"/>
<path d="M64.4295 125.72C64.4295 126.553 63.7569 127.229 62.9231 127.229C62.0893 127.229 61.4166 126.553 61.4166 125.72C61.4166 124.886 62.0893 124.21 62.9231 124.21C63.7569 124.21 64.4295 124.886 64.4295 125.72Z" fill="#523520"/>
<path d="M61.3757 123.607C60.2387 123.607 60.2356 125.382 61.3757 125.382C62.5158 125.382 62.5158 123.607 61.3757 123.607Z" fill="white"/>
<path d="M62.926 121.942C64.7575 121.942 66.2449 123.493 66.2449 125.404C66.2449 127.314 64.7607 128.865 62.926 128.865C61.0914 128.865 59.6072 127.314 59.6072 125.404C59.6072 123.493 61.0914 121.942 62.926 121.942C60.8387 121.942 59.1493 123.641 59.1493 125.735C59.1493 127.829 60.8419 129.528 62.926 129.528C65.0102 129.528 66.7027 127.829 66.7027 125.735C66.7027 123.641 65.0102 121.942 62.926 121.942Z" fill="#FFEAE3"/>
<path d="M42.4541 129.528C44.5487 129.528 46.2466 127.823 46.2466 125.72C46.2466 123.616 44.5487 121.911 42.4541 121.911C40.3596 121.911 38.6617 123.616 38.6617 125.72C38.6617 127.823 40.3596 129.528 42.4541 129.528Z" fill="#FFFCFB"/>
<path d="M42.4541 128.136C43.7848 128.136 44.8635 127.054 44.8635 125.72C44.8635 124.385 43.7848 123.304 42.4541 123.304C41.1235 123.304 40.0447 124.385 40.0447 125.72C40.0447 127.054 41.1235 128.136 42.4541 128.136Z" fill="#7C5230"/>
<path d="M43.9608 125.72C43.9608 126.553 43.2881 127.229 42.4544 127.229C41.6206 127.229 40.9479 126.553 40.9479 125.72C40.9479 124.886 41.6206 124.21 42.4544 124.21C43.2881 124.21 43.9608 124.886 43.9608 125.72Z" fill="#523520"/>
<path d="M40.9038 123.607C39.7668 123.607 39.7637 125.382 40.9038 125.382C42.0439 125.382 42.0439 123.607 40.9038 123.607Z" fill="white"/>
<path d="M42.4541 121.942C44.2856 121.942 45.773 123.493 45.773 125.404C45.773 127.314 44.2888 128.865 42.4541 128.865C40.6195 128.865 39.1353 127.314 39.1353 125.404C39.1353 123.493 40.6195 121.942 42.4541 121.942C40.3668 121.942 38.6774 123.641 38.6774 125.735C38.6774 127.829 40.37 129.528 42.4541 129.528C44.5383 129.528 46.2308 127.829 46.2308 125.735C46.2308 123.641 44.5383 121.942 42.4541 121.942Z" fill="#FFEAE3"/>
<path d="M47.2394 135.891C48.1053 135.897 48.6254 134.94 48.8464 134.095C47.9519 133.946 47.0677 133.738 46.194 133.483C45.9912 134.469 45.9002 135.886 47.2394 135.894V135.891Z" fill="white"/>
<path d="M53.7162 134.375C53.4665 134.383 53.2169 134.386 52.9673 134.383C52.8815 134.378 52.7931 134.378 52.7072 134.381C52.6214 134.381 52.533 134.381 52.4472 134.378C51.9219 134.388 51.3967 134.37 50.8714 134.334C50.8584 135.343 51.2172 136.531 52.3146 136.521C53.4327 136.51 53.6694 135.387 53.7188 134.378L53.7162 134.375Z" fill="white"/>
<path d="M57.7149 136.081C58.469 135.644 58.6042 134.612 58.4274 133.699C57.4367 133.954 56.4303 134.139 55.4162 134.253C55.632 135.431 56.5448 136.76 57.7149 136.081Z" fill="white"/>
<path d="M52.4472 135.075C52.533 135.078 52.6214 135.075 52.7072 135.078C52.7957 135.078 52.8815 135.078 52.9673 135.075C53.1935 135.083 53.4171 135.08 53.6434 135.075C53.6824 134.846 53.7058 134.609 53.7162 134.375C53.4665 134.383 53.2169 134.386 52.9673 134.383C52.8815 134.378 52.7931 134.378 52.7072 134.381C52.6214 134.381 52.533 134.381 52.4472 134.378C51.9219 134.388 51.3967 134.37 50.8714 134.334C50.8688 134.565 50.887 134.804 50.926 135.036C51.4331 135.07 51.9401 135.085 52.4472 135.083V135.075Z" fill="#FFF0B8"/>
<path d="M58.4274 133.699C57.4367 133.954 56.4303 134.139 55.4162 134.253C55.4578 134.477 55.5228 134.708 55.6138 134.927C56.5838 134.81 57.5485 134.625 58.4976 134.378C58.4976 134.152 58.4716 133.92 58.43 133.697L58.4274 133.699Z" fill="#FFF0B8"/>
<path d="M48.8464 134.092C47.9519 133.944 47.0678 133.736 46.194 133.481C46.1498 133.689 46.1134 133.918 46.0926 134.149C46.9221 134.396 47.762 134.599 48.6124 134.75C48.7086 134.537 48.7866 134.31 48.8438 134.092H48.8464Z" fill="#FFF0B8"/>
<path d="M58.6922 142.905C58.609 141.565 57.9746 140.198 56.8124 139.532C55.6502 138.869 53.435 139.501 52.7564 140.658H52.6576C51.979 139.501 49.7638 138.869 48.6016 139.532C47.4394 140.195 46.805 141.563 46.7218 142.905C46.6386 144.246 47.0312 145.567 47.5122 146.821C48.2116 148.646 49.223 150.401 51.2848 150.807C54.514 151.441 56.7838 149.733 57.9018 146.821C58.3828 145.567 58.7754 144.244 58.6922 142.905Z" fill="#EE3F49"/>
<path d="M58.6922 142.905C58.609 141.565 57.9746 140.198 56.8124 139.532C55.6502 138.869 53.435 139.501 52.7564 140.658H52.6576C51.979 139.501 49.7638 138.869 48.6016 139.532C47.4654 140.179 46.8362 141.5 46.7296 142.811C46.9376 142.527 47.1274 142.239 47.286 142.062C47.6708 141.636 48.1284 141.29 48.6432 141.069C48.7446 141.17 48.9344 141.134 48.963 140.949C49.1502 140.892 49.34 140.845 49.5402 140.822C50.1512 140.749 50.8038 140.85 51.2926 141.225C51.8906 141.682 52.1506 142.465 52.226 143.217C52.3898 144.868 51.8438 146.615 52.148 148.196C52.2 148.472 52.6056 148.441 52.6212 148.162C52.6966 146.849 52.6498 144.46 52.7174 143.071C52.7408 142.603 52.7694 142.109 53.019 141.714C53.487 140.978 54.5296 140.866 55.3746 141.069C56.8436 141.425 58.1072 142.538 58.6636 143.947C58.7 143.601 58.713 143.253 58.6896 142.902L58.6922 142.905Z" fill="#DF3842"/>
<path d="M51.8334 143.006C51.5604 143.006 51.5604 143.43 51.8334 143.43C52.1065 143.43 52.1065 143.006 51.8334 143.006Z" fill="#DF3842"/>
<path d="M51.0249 142.101C51.0171 141.828 50.6088 141.828 50.601 142.101C50.601 142.132 50.601 142.163 50.601 142.195C50.5932 142.47 51.0379 142.473 51.0301 142.195C51.0301 142.163 51.0301 142.132 51.0301 142.101H51.0249Z" fill="#DF3842"/>
<path d="M50.5829 143.57C50.4424 143.57 50.3072 143.752 50.406 143.88C50.4138 143.89 50.4216 143.9 50.4294 143.911C50.5152 144.023 50.6505 144.023 50.7363 143.911C50.7441 143.9 50.7519 143.89 50.7597 143.88C50.8585 143.75 50.7233 143.57 50.5829 143.57Z" fill="#DF3842"/>
<path d="M49.7249 141.472C49.548 141.285 49.2074 141.534 49.3608 141.753C49.4128 141.825 49.418 141.906 49.4544 141.987C49.5402 142.176 49.8263 142.109 49.8783 141.932C49.9277 141.758 49.8419 141.597 49.7249 141.472Z" fill="#DF3842"/>
<path d="M49.0957 142.491C49.0905 142.478 49.0879 142.462 49.0827 142.447C49.0047 142.189 48.638 142.189 48.56 142.447C48.5548 142.46 48.5522 142.475 48.547 142.491C48.5132 142.6 48.5652 142.764 48.677 142.814C48.7836 142.86 48.8564 142.86 48.9631 142.814C49.0749 142.764 49.1269 142.603 49.0931 142.491H49.0957Z" fill="#DF3842"/>
<path d="M47.9257 143.622C47.8607 143.409 47.5564 143.406 47.4914 143.622C47.455 143.744 47.481 143.828 47.5616 143.924C47.6292 144.004 47.7904 144.004 47.8555 143.924C47.9361 143.828 47.9621 143.747 47.9257 143.622Z" fill="#DF3842"/>
<path d="M49.6391 144.629C49.5507 144.54 49.4181 144.519 49.3037 144.566C49.1528 144.626 49.1008 144.777 49.1268 144.928C49.1372 144.99 49.1762 145.05 49.2204 145.094C49.2803 145.149 49.3557 145.167 49.4311 145.149C49.5351 145.143 49.6287 145.102 49.6859 145.003C49.7535 144.886 49.7353 144.727 49.6391 144.631V144.629Z" fill="#DF3842"/>
<path d="M50.7544 144.894C50.7596 144.977 50.744 145.078 50.8402 145.12C50.9079 145.149 51.0093 145.159 51.0639 145.091C51.1003 145.045 51.1263 145.003 51.1445 144.946C51.2433 144.67 50.7336 144.595 50.7544 144.894Z" fill="#DF3842"/>
<path d="M48.2429 145.312C48.2246 145.102 47.936 145.102 47.9178 145.312C47.9126 145.377 47.8866 145.432 47.884 145.5C47.884 145.752 48.2767 145.752 48.2741 145.5C48.2741 145.432 48.2481 145.377 48.2402 145.312H48.2429Z" fill="#DF3842"/>
<path d="M47.8945 141.922C47.546 141.922 47.5434 142.468 47.8945 142.468C48.2455 142.468 48.2455 141.922 47.8945 141.922Z" fill="#DF3842"/>
<path d="M51.5084 146.418C51.5084 146.418 51.4954 146.438 51.5084 146.438C51.5214 146.438 51.5214 146.418 51.5084 146.418Z" fill="#DF3842"/>
<path d="M51.4512 146.056C51.4564 146.168 51.4616 146.262 51.5422 146.35C51.5734 146.384 51.6306 146.384 51.6618 146.35C51.7424 146.264 51.745 146.171 51.7528 146.056C51.7632 145.864 51.4434 145.861 51.4538 146.056H51.4512Z" fill="#DF3842"/>
<path d="M50.9703 145.963C50.9287 145.58 50.419 145.58 50.3774 145.963C50.3566 146.15 50.4554 146.379 50.6738 146.379C50.8923 146.379 50.9911 146.152 50.9703 145.963Z" fill="#DF3842"/>
<path d="M49.4414 146.475C49.4414 146.272 49.1294 146.272 49.1294 146.475C49.1294 146.589 49.119 146.701 49.2074 146.787C49.2516 146.828 49.3192 146.828 49.3634 146.787C49.4518 146.701 49.4414 146.592 49.4414 146.475Z" fill="#DF3842"/>
<path d="M48.5159 147.208C48.4769 147.026 48.2142 147.003 48.1284 147.156C48.027 147.338 48.0634 147.585 48.2844 147.653C48.3885 147.684 48.4821 147.614 48.5185 147.52C48.5549 147.421 48.5367 147.31 48.5185 147.208H48.5159Z" fill="#DF3842"/>
<path d="M50.7025 148.287C50.6609 147.952 50.2214 147.952 50.1824 148.287C50.1772 148.334 50.172 148.378 50.172 148.428C50.1746 148.779 50.7103 148.779 50.7155 148.428C50.7155 148.381 50.7103 148.337 50.7051 148.287H50.7025Z" fill="#DF3842"/>
<path d="M51.6151 147.429C51.6125 147.414 51.6099 147.401 51.6047 147.385C51.5917 147.33 51.5501 147.276 51.5007 147.245C51.4356 147.164 51.3004 147.164 51.2354 147.245C51.186 147.278 51.1444 147.33 51.1314 147.385C51.1288 147.401 51.1262 147.414 51.121 147.429C51.03 147.843 51.7061 147.845 51.6125 147.429H51.6151Z" fill="#DF3842"/>
<path d="M49.6183 148.519C49.5845 148.407 49.5845 148.311 49.4753 148.24C49.4025 148.191 49.3167 148.168 49.2334 148.214C49.1814 148.243 49.1476 148.282 49.119 148.334C49.0748 148.412 49.067 148.519 49.119 148.597C49.1528 148.649 49.1918 148.698 49.236 148.742C49.3089 148.813 49.4233 148.831 49.5117 148.779C49.5273 148.768 49.5455 148.755 49.5585 148.742C49.6157 148.685 49.6391 148.597 49.6183 148.519Z" fill="#DF3842"/>
<path d="M51.8361 149.2C51.8309 149.171 51.8257 149.14 51.8205 149.112C51.7763 148.893 51.4226 148.893 51.381 149.112C51.3758 149.14 51.3706 149.171 51.3654 149.2C51.3472 149.312 51.3784 149.413 51.4772 149.478C51.485 149.483 51.4902 149.486 51.498 149.491C51.5579 149.53 51.6463 149.53 51.7061 149.491C51.7139 149.486 51.7191 149.483 51.7269 149.478C51.8283 149.413 51.8569 149.314 51.8387 149.2H51.8361Z" fill="#DF3842"/>
<path d="M50.6036 149.637C50.6036 149.717 50.6036 149.777 50.6504 149.845C50.7102 149.931 50.8194 149.931 50.8818 149.845C50.9286 149.777 50.9286 149.717 50.9286 149.637C50.9338 149.426 50.5984 149.426 50.6036 149.637Z" fill="#DF3842"/>
<path d="M53.8875 142.187C53.8823 142.158 53.8745 142.127 53.8667 142.101C53.8146 141.924 53.5624 141.924 53.5078 142.101C53.4974 142.13 53.4896 142.158 53.487 142.187C53.474 142.257 53.4818 142.343 53.5416 142.39C53.5494 142.397 53.5572 142.403 53.5676 142.41C53.6456 142.475 53.734 142.475 53.812 142.41C53.8198 142.403 53.8276 142.397 53.838 142.39C53.8953 142.34 53.9057 142.254 53.8927 142.187H53.8875Z" fill="#DF3842"/>
<path d="M54.9275 141.552C54.8417 141.383 54.5686 141.383 54.4828 141.552C54.4178 141.68 54.4308 141.755 54.4698 141.888C54.54 142.122 54.8703 142.122 54.9405 141.888C54.9795 141.755 54.9925 141.682 54.9275 141.552Z" fill="#DF3842"/>
<path d="M56.7813 142.111C56.6825 142.018 56.5316 142.018 56.4302 142.111C56.295 142.239 56.2768 142.455 56.373 142.608C56.4822 142.782 56.7267 142.782 56.8359 142.608C56.9321 142.452 56.9139 142.239 56.7787 142.111H56.7813Z" fill="#DF3842"/>
<path d="M55.7777 143.014C55.7205 142.777 55.3564 142.777 55.2992 143.014C55.2706 143.139 55.2836 143.24 55.3798 143.334C55.4682 143.419 55.6087 143.419 55.6971 143.334C55.7933 143.243 55.8063 143.141 55.7777 143.014Z" fill="#DF3842"/>
<path d="M57.27 143.682C57.2778 143.773 57.2778 143.846 57.3506 143.911C57.4026 143.958 57.478 143.96 57.53 143.911C57.6028 143.846 57.6028 143.773 57.6106 143.682C57.6288 143.464 57.2518 143.464 57.2726 143.682H57.27Z" fill="#DF3842"/>
<path d="M56.7137 144.951C56.6123 144.662 56.2326 144.662 56.1286 144.951C56.0714 145.112 56.087 145.255 56.2118 145.38C56.2586 145.427 56.321 145.45 56.3834 145.458C56.386 145.476 56.399 145.492 56.4224 145.492C56.4459 145.492 56.4563 145.476 56.4615 145.458C56.5239 145.45 56.5863 145.427 56.6331 145.38C56.7579 145.255 56.7735 145.112 56.7163 144.951H56.7137Z" fill="#DF3842"/>
<path d="M53.8173 143.375L53.8069 143.331C53.7393 143.076 53.3596 143.076 53.292 143.331C53.2894 143.347 53.2842 143.36 53.2816 143.375C53.2348 143.552 53.37 143.731 53.5521 143.731C53.7341 143.731 53.8693 143.552 53.8225 143.375H53.8173Z" fill="#DF3842"/>
<path d="M53.4013 144.668L53.3909 144.623C53.3233 144.369 52.9436 144.369 52.876 144.623C52.8734 144.639 52.8682 144.652 52.8656 144.668C52.8188 144.844 52.954 145.024 53.1361 145.024C53.3181 145.024 53.4533 144.844 53.4065 144.668H53.4013Z" fill="#DF3842"/>
<path d="M54.1214 144.288C54.1266 144.379 54.1422 144.444 54.2098 144.509C54.28 144.577 54.3918 144.577 54.462 144.509C54.5296 144.444 54.5452 144.382 54.5504 144.288C54.5635 144.01 54.1058 144.01 54.1214 144.288Z" fill="#DF3842"/>
<path d="M55.164 144.288C55.1692 144.379 55.1848 144.444 55.2524 144.509C55.3252 144.577 55.4345 144.577 55.5047 144.509C55.5723 144.444 55.5879 144.382 55.5931 144.288C55.6061 144.01 55.1484 144.01 55.164 144.288Z" fill="#DF3842"/>
<path d="M53.9785 145.775C53.9681 145.518 53.591 145.518 53.5806 145.775C53.578 145.879 53.578 145.96 53.6612 146.033C53.734 146.095 53.8224 146.095 53.8953 146.033C53.9785 145.963 53.9811 145.879 53.9759 145.775H53.9785Z" fill="#DF3842"/>
<path d="M55.1354 145.986C55.047 145.799 54.761 145.859 54.7116 146.041C54.6804 146.155 54.6908 146.264 54.761 146.36C54.8208 146.444 54.9196 146.501 55.0262 146.467C55.2447 146.402 55.2134 146.147 55.1354 145.983V145.986Z" fill="#DF3842"/>
<path d="M54.0097 147.036C53.9213 146.862 53.6352 146.862 53.5494 147.036C53.4896 147.156 53.4818 147.258 53.5052 147.388C53.552 147.661 54.0071 147.661 54.0539 147.388C54.0773 147.258 54.0695 147.156 54.0097 147.036Z" fill="#DF3842"/>
<path d="M56.6175 146.425C56.5889 146.366 56.5447 146.34 56.5083 146.295C56.4458 146.223 56.3054 146.223 56.2404 146.295C56.2014 146.34 56.1598 146.368 56.1312 146.425C56.0402 146.613 56.1494 146.852 56.3756 146.852C56.6019 146.852 56.7111 146.615 56.6201 146.425H56.6175Z" fill="#DF3842"/>
<path d="M57.9149 144.959C57.9149 144.959 57.9019 144.951 57.8941 144.946C57.8187 144.896 57.7068 144.896 57.6314 144.946C57.6236 144.951 57.6184 144.954 57.6106 144.959C57.491 145.034 57.4442 145.162 57.4728 145.299C57.4754 145.315 57.478 145.328 57.4806 145.344C57.5378 145.622 57.9851 145.622 58.0397 145.344C58.0423 145.328 58.0449 145.315 58.0475 145.299C58.0761 145.162 58.0267 145.037 57.9097 144.959H57.9149Z" fill="#DF3842"/>
<path d="M55.6242 147.598C55.541 147.528 55.4448 147.528 55.3616 147.598C55.2706 147.674 55.2472 147.804 55.255 147.915C55.2758 148.222 55.7075 148.222 55.7283 147.915C55.7361 147.801 55.7127 147.674 55.6216 147.598H55.6242Z" fill="#DF3842"/>
<path d="M56.737 147.59C56.737 147.653 56.7448 147.692 56.7812 147.744C56.8358 147.819 56.9294 147.819 56.984 147.744C57.0204 147.692 57.0282 147.655 57.0282 147.59C57.036 147.401 56.7266 147.401 56.7344 147.59H56.737Z" fill="#DF3842"/>
<path d="M53.201 148.474C53.1984 148.55 53.201 148.618 53.2166 148.693C53.2712 148.976 53.7315 148.976 53.7861 148.693C53.8017 148.618 53.8043 148.55 53.8017 148.474C53.7835 148.087 53.2218 148.087 53.201 148.474Z" fill="#DF3842"/>
<path d="M55.0237 148.703C54.9717 148.503 54.6492 148.539 54.6596 148.753C54.6622 148.813 54.6362 148.878 54.6284 148.94C54.618 149.044 54.7454 149.14 54.8416 149.104C55.0185 149.036 55.0679 148.883 55.0211 148.703H55.0237Z" fill="#DF3842"/>
<path d="M52.8761 150.001C52.8656 149.967 52.8474 149.938 52.8214 149.912C52.7668 149.881 52.759 149.871 52.798 149.884C52.7538 149.782 52.5796 149.782 52.5328 149.884C52.5718 149.871 52.564 149.884 52.5094 149.912C52.486 149.938 52.4678 149.967 52.4548 150.001C52.4184 150.079 52.4028 150.146 52.4002 150.232C52.3872 150.576 52.9463 150.576 52.9307 150.232C52.9281 150.146 52.9125 150.079 52.8761 150.001Z" fill="#DF3842"/>
<path d="M53.9108 149.915C53.916 150.011 53.9316 150.087 54.007 150.149C54.0954 150.225 54.2021 150.225 54.2905 150.149C54.3659 150.084 54.3815 150.009 54.3867 149.915C54.4023 149.608 53.8952 149.608 53.9108 149.915Z" fill="#DF3842"/>
<path d="M55.8686 149.078V149.171C55.8686 149.247 55.9102 149.335 55.9804 149.369C56.0662 149.408 56.1234 149.408 56.2118 149.369C56.282 149.335 56.3237 149.247 56.3237 149.171V149.078C56.3237 148.784 55.8686 148.784 55.8686 149.078Z" fill="#DF3842"/>
<path d="M49.6185 129.838C49.7303 129.523 49.6237 129.172 49.2674 129.071C48.8722 128.959 48.4301 128.969 48.0739 129.196C47.754 129.398 47.5356 129.762 47.5486 130.147C47.5642 130.6 47.8658 130.933 48.2715 131.089C48.4509 131.156 48.6589 131.177 48.8488 131.167C49.14 131.151 49.335 131.034 49.4676 130.774C49.5457 130.62 49.6185 130.462 49.6731 130.295C49.7225 130.145 49.6939 129.976 49.6185 129.835V129.838Z" fill="#FEBE4C"/>
<path d="M53.2013 129.791C53.1025 129.521 52.8555 129.357 52.5616 129.427C52.2366 129.505 51.8257 129.552 51.5397 129.736C51.4903 129.749 51.4435 129.77 51.3993 129.796C51.108 129.983 50.991 130.363 51.1704 130.673C51.2302 130.774 51.2953 130.87 51.3577 130.969C51.5189 131.232 51.7789 131.299 52.065 131.258C52.3276 131.219 52.5954 131.174 52.8503 131.102C53.0271 131.052 53.2117 130.894 53.2455 130.704C53.2975 130.407 53.3027 130.077 53.1987 129.791H53.2013Z" fill="#FEBE4C"/>
<path d="M50.8117 131.268C50.5933 131.05 50.1955 131.034 49.9822 131.268C49.7742 131.494 49.7404 131.879 49.9822 132.1C50.0368 132.149 50.1018 132.191 50.1721 132.22C50.3229 132.342 50.5387 132.324 50.7051 132.248C50.9106 132.157 50.9782 131.96 50.9678 131.762C50.9938 131.585 50.9496 131.403 50.8117 131.265V131.268Z" fill="#FEBE4C"/>
<path d="M56.7581 129.479C56.6983 129.365 56.5865 129.261 56.4616 129.198C56.3472 129.006 56.147 128.876 55.9026 128.873C55.3357 128.868 54.8754 129.193 54.6752 129.718C54.5426 130.064 54.6102 130.457 54.9586 130.644C55.1719 130.758 55.4293 130.81 55.6711 130.803C56.0924 130.79 56.5475 130.6 56.7607 130.215C56.8855 129.989 56.8751 129.703 56.7607 129.476L56.7581 129.479Z" fill="#FEBE4C"/>
<path d="M55.3124 131.07C55.1772 131.008 55.0524 130.966 54.9094 130.938C54.7377 130.904 54.5193 130.842 54.3555 130.909C54.1214 131.003 53.9524 131.156 53.916 131.419C53.8822 131.676 54.0018 131.884 54.2073 132.03C54.3269 132.116 54.4803 132.123 54.6259 132.134C54.6415 132.134 54.6571 132.139 54.6727 132.142C54.7325 132.152 54.7897 132.157 54.8495 132.165C54.9016 132.173 54.9562 132.183 55.0082 132.186C55.2578 132.207 55.5308 131.986 55.5854 131.744C55.64 131.502 55.5542 131.177 55.3098 131.065L55.3124 131.07Z" fill="#FEBE4C"/>
<path d="M58.9706 129.742C58.7131 129.661 58.4349 129.661 58.1957 129.799C58.0033 129.908 57.8836 130.09 57.7536 130.264C57.5638 130.519 57.7042 130.951 57.9694 131.091C57.9824 131.096 57.9929 131.102 58.0059 131.107C58.0267 131.141 58.0501 131.172 58.0813 131.206C58.0969 131.224 58.1125 131.237 58.1307 131.252C58.0579 131.185 58.3699 131.445 58.2321 131.33C58.4505 131.512 58.8042 131.572 59.0174 131.33C59.2696 131.042 59.3944 130.686 59.397 130.303C59.3996 130.041 59.215 129.817 58.9706 129.742Z" fill="#FEBE4C"/>
<path d="M69.4847 122.376C69.3599 121.91 68.9335 121.591 68.4602 121.567C68.3432 121.562 68.2444 121.588 68.1404 121.63C68.0858 121.65 68.0338 121.674 67.9869 121.705C67.9843 121.705 67.7659 121.9 67.8361 121.843C67.8127 121.861 67.7919 121.882 67.7685 121.9C67.3239 121.84 67.0014 122.168 66.9676 122.592C66.9494 122.834 67.0066 123.075 67.0508 123.312C67.1028 123.59 67.4149 123.801 67.6853 123.798C68.1196 123.791 68.5694 123.845 68.9725 123.65C69.4561 123.416 69.6226 122.88 69.4873 122.379L69.4847 122.376Z" fill="#FEBE4C"/>
<path d="M69.2636 125.662C69.0009 125.604 68.7331 125.591 68.4835 125.714C68.2754 125.818 68.1194 125.979 68.0128 126.187C67.8594 126.491 67.9582 126.855 68.2833 126.993C68.3951 127.04 68.5173 127.048 68.6317 127.022C68.8111 127.068 69.027 127.037 69.1726 126.957C69.4794 126.788 69.5912 126.444 69.6068 126.114C69.6172 125.919 69.4534 125.701 69.261 125.659L69.2636 125.662Z" fill="#FEBE4C"/>
<path d="M71.2395 124.472C71.1927 124.308 71.0887 124.194 70.9665 124.082C70.7169 123.858 70.345 123.863 70.1318 124.139C69.955 124.368 69.9914 124.646 70.163 124.844C70.1838 124.937 70.2254 125.023 70.2904 125.085C70.462 125.242 70.7065 125.281 70.9119 125.166C71.1537 125.031 71.3201 124.753 71.2395 124.472Z" fill="#FEBE4C"/>
<path d="M37.4102 124.314C37.0124 124.022 36.4377 123.929 35.9983 124.181C35.746 124.327 35.6004 124.607 35.603 124.893C35.6082 125.25 35.8526 125.536 36.1361 125.72C36.2557 125.798 36.3961 125.817 36.5287 125.791C36.6665 125.824 36.8226 125.806 36.9474 125.752C37.2308 125.629 37.4778 125.348 37.6105 125.073C37.7509 124.782 37.6703 124.503 37.4128 124.314H37.4102Z" fill="#FEBE4C"/>
<path d="M35.1742 125.237C35.0806 125.174 34.9714 125.122 34.8647 125.091C34.6307 125.023 34.4123 125.14 34.2511 125.307C34.0456 125.52 33.9104 125.791 33.9052 126.087C33.9052 126.152 33.9156 126.214 33.939 126.274C33.9104 126.487 34.0066 126.685 34.2433 126.763C34.3837 126.807 34.5345 126.823 34.6801 126.831C34.7399 126.833 34.7997 126.833 34.8595 126.831C34.8647 126.831 34.8907 126.828 34.9141 126.825C34.9193 126.828 34.9297 126.831 34.9428 126.836C35.1378 126.896 35.4264 126.802 35.5174 126.602C35.7333 126.118 35.6292 125.541 35.1742 125.234V125.237Z" fill="#FEBE4C"/>
<path d="M35.8606 127.639C35.6447 127.585 35.4159 127.556 35.1949 127.574C34.9348 127.598 34.7372 127.736 34.654 127.988C34.589 128.185 34.602 128.404 34.7008 128.589C34.7346 128.651 34.7684 128.711 34.823 128.763C34.862 128.802 35.0883 128.979 34.9426 128.859C35.0155 128.919 35.0935 128.96 35.1767 128.989C35.2183 129.083 35.2755 129.166 35.3431 129.244C35.5381 129.465 35.8892 129.379 36.0322 129.155C36.209 128.877 36.2298 128.458 36.2376 128.139C36.2428 127.918 36.0738 127.694 35.8606 127.642V127.639Z" fill="#FEBE4C"/>
<path d="M63.7937 156.003C58.2381 156.299 58.5582 162.77 58.6569 168.213C58.8602 179.417 59.359 182.347 58.3575 185.248C57.8958 186.585 56.9034 188.133 56.1372 190.631C55.3414 193.224 54.8519 195.234 54.5561 196.639C54.4079 197.343 55.2188 197.702 55.6686 197.14L58.2648 193.898L58.0279 196.87C57.9584 197.74 59.3376 197.998 59.6196 197.172C60.2659 195.278 60.8739 193.788 61.1481 193.929C61.4729 194.095 61.4876 195.59 61.4064 197.176C61.3654 197.977 62.5201 198.314 62.8867 197.6L64.7522 193.967C64.889 193.969 64.7507 195.421 64.5264 197.222C64.4194 198.081 65.6916 198.409 65.9975 197.599L69.7759 187.592C70.3293 186.127 70.64 184.588 70.6929 183.022C70.8511 178.339 71.1813 167.995 71.1446 164.267C71.0965 159.386 69.3493 155.707 63.7937 156.003Z" fill="#843B00"/>
<path d="M43.5535 155.003C49.1091 155.299 48.789 161.77 48.6903 167.213C48.487 178.417 47.9882 181.347 48.9897 184.248C49.4514 185.585 50.4438 187.133 51.21 189.631C52.1457 192.681 52.3562 194.923 52.3558 196.324C52.3557 196.967 51.6424 197.116 51.309 196.566L49.0824 192.898L49.3193 195.87C49.3887 196.74 48.0096 196.998 47.7276 196.172C47.0813 194.278 46.4733 192.788 46.1991 192.929C45.8743 193.095 45.8596 194.59 45.9408 196.176C45.9818 196.977 44.8271 197.314 44.4605 196.6L42.595 192.967C42.4582 192.969 42.5965 194.421 42.8208 196.222C42.9278 197.081 41.6555 197.409 41.3497 196.599L37.5713 186.592C37.0179 185.127 36.7072 183.588 36.6543 182.022C36.4961 177.339 36.1659 166.995 36.2026 163.267C36.2507 158.386 37.9979 154.707 43.5535 155.003Z" fill="#843B00"/>
<path d="M205.485 139.502C201.193 138.655 191.058 142.333 191.058 142.333L193.534 151.573C193.534 151.573 202.82 149.925 203.313 151.573C206.154 161.071 208.068 164.3 207.905 167.01C207.83 168.259 207.353 169.815 207.295 172.125C207.228 174.792 207.465 176.895 207.709 178.3C207.816 178.917 208.566 178.929 208.741 178.327L209.886 174.402L210.82 179.011C210.979 179.796 212.28 179.619 212.243 178.819C212.109 175.97 212.084 173.687 212.35 173.742C212.677 173.809 213.159 175.533 213.579 177.349C213.744 178.064 214.855 178.016 214.937 177.287L215.43 172.917C215.591 172.873 216.356 174.418 217.052 175.905C217.343 176.527 218.297 176.328 218.305 175.642L218.365 170.694C218.377 169.671 218.267 168.652 218.032 167.657C217.361 164.809 215.859 158.507 214.678 154.101C213.11 148.249 209.72 140.337 205.485 139.502Z" fill="#843B00"/>
<path d="M151.126 141.399C155.012 139.391 165.77 140.105 165.77 140.105L165.963 149.669C165.963 149.669 156.584 150.669 156.569 152.39C156.483 162.303 155.543 165.937 156.453 168.494C156.873 169.674 157.763 171.035 158.462 173.238C159.269 175.781 159.625 177.866 159.782 179.284C159.851 179.907 159.134 180.127 158.798 179.598L156.607 176.146L156.992 180.832C157.057 181.631 155.759 181.823 155.572 181.044C154.908 178.271 154.297 176.071 154.057 176.197C153.761 176.352 153.778 178.143 153.88 180.003C153.92 180.736 152.839 181 152.557 180.322L150.869 176.261C150.702 176.264 150.396 177.961 150.142 179.583C150.036 180.261 149.064 180.335 148.865 179.679L147.431 174.942C147.135 173.963 146.957 172.954 146.906 171.933C146.758 169.011 146.448 162.539 146.356 157.979C146.234 151.922 147.29 143.379 151.126 141.399Z" fill="#843B00"/>
<path fill-rule="evenodd" clip-rule="evenodd" d="M192.605 102.849C193.271 100.648 191.284 98.5611 189.053 99.1196C188.01 99.3806 187.191 100.187 186.913 101.225L185.195 107.634L182.095 102.263C181.328 100.936 179.631 100.481 178.304 101.247C177.024 101.986 176.548 103.597 177.219 104.913L182.344 114.952C182.74 115.727 183.424 116.266 184.204 116.497C184.538 116.844 184.968 117.106 185.467 117.24C185.932 117.365 186.401 117.362 186.837 117.254C188.116 118.056 189.8 117.998 191.032 117.022L198.909 110.781C200.038 109.887 200.341 108.3 199.621 107.053C198.819 105.664 197.043 105.189 195.654 105.99L190.806 108.789L192.605 102.849Z" fill="#FE9300"/>
<g filter="url(#filter3_i_5130_10748)">
<path d="M205.463 136.917C206.722 121.825 194.813 108.881 179.669 108.881C164.622 108.881 152.747 121.666 153.856 136.672L155.38 157.3C155.793 162.89 160.406 167.24 166.01 167.324L192.757 167.728C198.455 167.814 203.247 163.472 203.721 157.793L205.463 136.917Z" fill="#FEAD1D"/>
</g>
<g clip-path="url(#clip1_5130_10748)">
<path d="M196.802 129.881C195.145 129.881 193.802 128.538 193.802 126.881C193.802 125.224 195.145 123.881 196.802 123.881C198.459 123.881 199.802 125.224 199.802 126.881C199.802 128.538 198.459 129.881 196.802 129.881Z" fill="#FE9300"/>
<path d="M159.802 129.881C158.145 129.881 156.802 128.538 156.802 126.881C156.802 125.224 158.145 123.881 159.802 123.881C161.459 123.881 162.802 125.224 162.802 126.881C162.802 128.538 161.459 129.881 159.802 129.881Z" fill="#FE9300"/>
<path d="M164.019 129.934C163.847 129.934 163.683 129.976 163.532 130.074C162.438 130.79 162.661 132.891 162.932 133.926C163.738 137.012 166.288 141.43 169.203 142.707C171.899 143.888 174.884 144.205 177.832 144.205C177.952 144.205 178.072 144.205 178.191 144.205C178.311 144.205 178.43 144.205 178.55 144.205C181.498 144.205 184.486 143.888 187.179 142.707C190.094 141.43 192.645 137.015 193.451 133.926C193.721 132.891 193.945 130.79 192.85 130.074C192.699 129.976 192.535 129.934 192.364 129.934C191.524 129.934 190.474 130.925 189.857 131.278C186.433 133.236 182.523 134.386 178.586 134.386C178.542 134.386 178.495 134.386 178.451 134.386C178.365 134.381 178.277 134.381 178.191 134.383C178.103 134.383 178.017 134.383 177.931 134.381C177.887 134.388 177.84 134.388 177.796 134.388C173.86 134.388 169.947 133.239 166.525 131.281C165.909 130.927 164.858 129.937 164.019 129.937V129.934ZM164.019 128.821C164.983 128.821 165.865 129.456 166.572 129.965C166.769 130.108 166.957 130.243 167.079 130.314C170.16 132.077 173.506 133.083 176.818 133.249C176.818 133.236 177.97 133.268 177.97 133.268C178.012 133.268 178.053 133.268 178.092 133.268C178.126 133.268 178.16 133.268 178.194 133.268C178.228 133.268 178.261 133.268 178.295 133.268C178.337 133.268 178.378 133.268 178.417 133.268L179.569 133.229V133.249C182.882 133.083 186.228 132.077 189.309 130.314C189.431 130.243 189.618 130.108 189.816 129.965C190.523 129.456 191.404 128.821 192.369 128.821C192.769 128.821 193.139 128.93 193.464 129.141C195.408 130.41 194.693 133.582 194.532 134.206C193.7 137.387 191.121 142.198 187.629 143.727C185.151 144.811 182.265 145.318 178.553 145.318C178.433 145.318 178.313 145.318 178.194 145.318C178.074 145.318 177.955 145.318 177.835 145.318C174.122 145.318 171.236 144.814 168.758 143.727C165.267 142.198 162.687 137.387 161.855 134.206C161.692 133.582 160.979 130.412 162.924 129.141C163.249 128.928 163.618 128.821 164.019 128.821Z" fill="#FE9300"/>
<path d="M163.532 130.072C164.411 129.497 165.781 130.852 166.525 131.276C169.988 133.257 173.951 134.409 177.931 134.383C178.017 134.378 178.105 134.378 178.191 134.381C178.277 134.381 178.365 134.381 178.451 134.378C182.434 134.412 186.394 133.26 189.857 131.278C190.601 130.852 191.974 129.5 192.85 130.074C193.945 130.79 193.721 132.891 193.451 133.926C192.645 137.012 190.094 141.43 187.179 142.707C184.374 143.935 181.254 144.228 178.189 144.202C175.123 144.228 172.003 143.935 169.198 142.707C166.283 141.43 163.733 137.015 162.927 133.926C162.656 132.891 162.433 130.79 163.527 130.074L163.532 130.072Z" fill="#843B00"/>
<path d="M167.165 134.566C167.833 134.191 168.878 135.075 169.445 135.353C172.081 136.648 175.16 137.096 178.194 137.08C178.261 137.077 178.326 137.077 178.394 137.08C178.462 137.08 178.527 137.08 178.594 137.08C181.628 137.098 184.585 136.654 187.224 135.359C187.79 135.08 188.836 134.196 189.504 134.571C190.336 135.039 190.167 136.412 189.961 137.088C189.348 139.108 187.406 140.689 185.185 141.524C183.048 142.328 180.672 142.52 178.337 142.502C176.002 142.52 173.626 142.328 171.488 141.524C169.268 140.689 167.326 139.108 166.712 137.088C166.507 136.412 166.335 135.036 167.17 134.571L167.165 134.566Z" fill="#662A00"/>
<path d="M167.975 129.528C165.88 129.528 164.182 127.823 164.182 125.72C164.182 123.616 165.88 121.911 167.975 121.911C170.069 121.911 171.767 123.616 171.767 125.72C171.767 127.823 170.069 129.528 167.975 129.528Z" fill="#FFFCFB"/>
<path d="M167.975 128.136C166.644 128.136 165.565 127.054 165.565 125.72C165.565 124.385 166.644 123.304 167.975 123.304C169.305 123.304 170.384 124.385 170.384 125.72C170.384 127.054 169.305 128.136 167.975 128.136Z" fill="#7C5230"/>
<path d="M166.089 125.72C166.089 126.553 166.762 127.229 167.596 127.229C168.429 127.229 169.102 126.553 169.102 125.72C169.102 124.886 168.429 124.21 167.596 124.21C166.762 124.21 166.089 124.886 166.089 125.72Z" fill="#523520"/>
<path d="M169.948 124.607C171.085 124.607 171.088 126.382 169.948 126.382C168.808 126.382 168.808 124.607 169.948 124.607Z" fill="white"/>
<path d="M167.975 121.942C166.143 121.942 164.656 123.493 164.656 125.404C164.656 127.314 166.14 128.865 167.975 128.865C169.809 128.865 171.294 127.314 171.294 125.404C171.294 123.493 169.809 121.942 167.975 121.942C170.062 121.942 171.751 123.641 171.751 125.735C171.751 127.829 170.059 129.528 167.975 129.528C165.891 129.528 164.198 127.829 164.198 125.735C164.198 123.641 165.891 121.942 167.975 121.942Z" fill="#FFEAE3"/>
<path d="M188.447 129.528C186.352 129.528 184.654 127.823 184.654 125.72C184.654 123.616 186.352 121.911 188.447 121.911C190.541 121.911 192.239 123.616 192.239 125.72C192.239 127.823 190.541 129.528 188.447 129.528Z" fill="#FFFCFB"/>
<path d="M188.447 128.136C187.116 128.136 186.037 127.054 186.037 125.72C186.037 124.385 187.116 123.304 188.447 123.304C189.777 123.304 190.856 124.385 190.856 125.72C190.856 127.054 189.777 128.136 188.447 128.136Z" fill="#7C5230"/>
<path d="M186.139 125.72C186.139 126.553 186.812 127.229 187.646 127.229C188.479 127.229 189.152 126.553 189.152 125.72C189.152 124.886 188.479 124.21 187.646 124.21C186.812 124.21 186.139 124.886 186.139 125.72Z" fill="#523520"/>
<path d="M190.448 124.607C191.585 124.607 191.588 126.382 190.448 126.382C189.308 126.382 189.308 124.607 190.448 124.607Z" fill="white"/>
<path d="M188.447 121.942C186.615 121.942 185.128 123.493 185.128 125.404C185.128 127.314 186.612 128.865 188.447 128.865C190.281 128.865 191.766 127.314 191.766 125.404C191.766 123.493 190.281 121.942 188.447 121.942C190.534 121.942 192.223 123.641 192.223 125.735C192.223 127.829 190.531 129.528 188.447 129.528C186.363 129.528 184.67 127.829 184.67 125.735C184.67 123.641 186.363 121.942 188.447 121.942Z" fill="#FFEAE3"/>
<path d="M183.661 135.891C182.796 135.897 182.275 134.94 182.054 134.095C182.949 133.946 183.833 133.738 184.707 133.483C184.91 134.469 185.001 135.886 183.661 135.894V135.891Z" fill="white"/>
<path d="M177.185 134.375C177.434 134.383 177.684 134.386 177.934 134.383C178.019 134.378 178.108 134.378 178.194 134.381C178.279 134.381 178.368 134.381 178.454 134.378C178.979 134.388 179.504 134.37 180.029 134.334C180.042 135.343 179.684 136.531 178.586 136.521C177.468 136.51 177.231 135.387 177.182 134.378L177.185 134.375Z" fill="white"/>
<path d="M178.454 135.075C178.368 135.077 178.279 135.075 178.194 135.077C178.105 135.077 178.019 135.077 177.934 135.075C177.707 135.083 177.484 135.08 177.257 135.075C177.218 134.846 177.195 134.609 177.185 134.375C177.434 134.383 177.684 134.386 177.934 134.383C178.019 134.378 178.108 134.378 178.194 134.381C178.279 134.381 178.368 134.381 178.454 134.378C178.979 134.388 179.504 134.37 180.029 134.334C180.032 134.565 180.014 134.804 179.975 135.036C179.468 135.07 178.961 135.085 178.454 135.083V135.075Z" fill="#FFF0B8"/>
<path d="M182.054 134.092C182.949 133.944 183.833 133.736 184.707 133.481C184.751 133.689 184.787 133.918 184.808 134.149C183.979 134.396 183.139 134.599 182.288 134.75C182.192 134.537 182.114 134.31 182.057 134.092H182.054Z" fill="#FFF0B8"/>
<path d="M181.282 129.838C181.171 129.523 181.277 129.172 181.633 129.071C182.029 128.959 182.471 128.969 182.827 129.195C183.147 129.398 183.365 129.762 183.352 130.147C183.337 130.6 183.035 130.933 182.629 131.089C182.45 131.156 182.242 131.177 182.052 131.167C181.761 131.151 181.566 131.034 181.433 130.774C181.355 130.62 181.282 130.462 181.228 130.295C181.178 130.145 181.207 129.976 181.282 129.835V129.838Z" fill="#FEBE4C"/>
<path d="M177.7 129.791C177.798 129.521 178.045 129.357 178.339 129.427C178.664 129.505 179.075 129.552 179.361 129.736C179.411 129.749 179.457 129.77 179.502 129.796C179.793 129.983 179.91 130.363 179.73 130.672C179.671 130.774 179.606 130.87 179.543 130.969C179.382 131.232 179.122 131.299 178.836 131.258C178.573 131.219 178.305 131.174 178.051 131.102C177.874 131.052 177.689 130.894 177.655 130.704C177.603 130.407 177.598 130.077 177.702 129.791H177.7Z" fill="#FEBE4C"/>
<path d="M180.089 131.268C180.308 131.05 180.705 131.034 180.919 131.268C181.127 131.494 181.16 131.879 180.919 132.1C180.864 132.149 180.799 132.191 180.729 132.22C180.578 132.342 180.362 132.324 180.196 132.248C179.99 132.157 179.923 131.96 179.933 131.762C179.907 131.585 179.951 131.403 180.089 131.265V131.268Z" fill="#FEBE4C"/>
<path d="M174.143 129.479C174.203 129.365 174.314 129.261 174.439 129.198C174.554 129.006 174.754 128.876 174.998 128.873C175.565 128.868 176.025 129.193 176.226 129.718C176.358 130.064 176.291 130.457 175.942 130.644C175.729 130.758 175.472 130.81 175.23 130.803C174.808 130.79 174.353 130.6 174.14 130.215C174.015 129.989 174.026 129.703 174.14 129.476L174.143 129.479Z" fill="#FEBE4C"/>
<path d="M175.588 131.07C175.724 131.008 175.848 130.966 175.991 130.938C176.163 130.904 176.382 130.842 176.545 130.909C176.779 131.003 176.948 131.156 176.985 131.419C177.019 131.676 176.899 131.884 176.694 132.03C176.574 132.116 176.421 132.123 176.275 132.134C176.259 132.134 176.244 132.139 176.228 132.142C176.168 132.152 176.111 132.157 176.051 132.165C175.999 132.173 175.945 132.183 175.893 132.186C175.643 132.207 175.37 131.986 175.315 131.744C175.261 131.502 175.347 131.177 175.591 131.065L175.588 131.07Z" fill="#FEBE4C"/>
<path d="M171.93 129.742C172.188 129.661 172.466 129.661 172.705 129.799C172.898 129.908 173.017 130.09 173.147 130.264C173.337 130.519 173.197 130.951 172.931 131.091C172.918 131.096 172.908 131.102 172.895 131.107C172.874 131.141 172.851 131.172 172.82 131.206C172.804 131.224 172.788 131.237 172.77 131.252C172.843 131.185 172.531 131.445 172.669 131.33C172.45 131.512 172.097 131.572 171.883 131.33C171.631 131.042 171.506 130.686 171.504 130.303C171.501 130.041 171.686 129.817 171.93 129.742Z" fill="#FEBE4C"/>
<path d="M161.416 122.376C161.541 121.91 161.967 121.591 162.441 121.567C162.558 121.562 162.656 121.588 162.76 121.63C162.815 121.65 162.867 121.674 162.914 121.705C162.916 121.705 163.135 121.9 163.065 121.843C163.088 121.861 163.109 121.882 163.132 121.9C163.577 121.84 163.899 122.168 163.933 122.592C163.951 122.834 163.894 123.075 163.85 123.312C163.798 123.59 163.486 123.801 163.216 123.798C162.781 123.791 162.331 123.845 161.928 123.65C161.445 123.416 161.278 122.88 161.413 122.379L161.416 122.376Z" fill="#FEBE4C"/>
<path d="M161.637 125.662C161.9 125.604 162.168 125.591 162.417 125.714C162.625 125.818 162.781 125.979 162.888 126.187C163.041 126.491 162.943 126.855 162.618 126.993C162.506 127.04 162.384 127.048 162.269 127.022C162.09 127.068 161.874 127.037 161.728 126.957C161.421 126.788 161.31 126.444 161.294 126.114C161.284 125.919 161.447 125.701 161.64 125.659L161.637 125.662Z" fill="#FEBE4C"/>
<path d="M159.661 124.472C159.708 124.308 159.812 124.194 159.934 124.082C160.184 123.858 160.556 123.863 160.769 124.139C160.946 124.368 160.909 124.646 160.738 124.844C160.717 124.937 160.675 125.023 160.61 125.085C160.439 125.242 160.194 125.281 159.989 125.166C159.747 125.031 159.581 124.753 159.661 124.472Z" fill="#FEBE4C"/>
<path d="M193.491 124.314C193.888 124.022 194.463 123.929 194.903 124.181C195.155 124.327 195.3 124.607 195.298 124.893C195.293 125.25 195.048 125.536 194.765 125.72C194.645 125.798 194.505 125.817 194.372 125.791C194.234 125.824 194.078 125.806 193.953 125.752C193.67 125.629 193.423 125.348 193.29 125.073C193.15 124.782 193.231 124.503 193.488 124.314H193.491Z" fill="#FEBE4C"/>
<path d="M195.727 125.237C195.82 125.174 195.929 125.122 196.036 125.091C196.27 125.023 196.489 125.14 196.65 125.307C196.855 125.52 196.99 125.791 196.996 126.087C196.996 126.152 196.985 126.214 196.962 126.274C196.99 126.487 196.894 126.685 196.658 126.763C196.517 126.807 196.366 126.823 196.221 126.831C196.161 126.833 196.101 126.833 196.041 126.831C196.036 126.831 196.01 126.828 195.987 126.825C195.981 126.828 195.971 126.831 195.958 126.836C195.763 126.896 195.474 126.802 195.383 126.602C195.168 126.118 195.272 125.541 195.727 125.234V125.237Z" fill="#FEBE4C"/>
<path d="M195.04 127.639C195.256 127.585 195.485 127.556 195.706 127.574C195.966 127.598 196.164 127.736 196.247 127.988C196.312 128.185 196.299 128.404 196.2 128.588C196.166 128.651 196.132 128.711 196.078 128.763C196.039 128.802 195.813 128.979 195.958 128.859C195.885 128.919 195.807 128.96 195.724 128.989C195.683 129.083 195.625 129.166 195.558 129.244C195.363 129.465 195.012 129.379 194.869 129.155C194.692 128.877 194.671 128.458 194.663 128.139C194.658 127.918 194.827 127.694 195.04 127.642V127.639Z" fill="#FEBE4C"/>
</g>
<path d="M167.107 156.003C172.663 156.299 172.343 162.77 172.244 168.213C172.041 179.417 171.542 182.347 172.543 185.248C173.005 186.585 173.997 188.133 174.764 190.631C175.559 193.224 176.049 195.234 176.345 196.639C176.493 197.343 175.682 197.702 175.232 197.14L172.636 193.898L172.873 196.87C172.942 197.74 171.563 197.998 171.281 197.172C170.635 195.278 170.027 193.788 169.753 193.929C169.428 194.095 169.413 195.59 169.494 197.176C169.535 197.977 168.381 198.314 168.014 197.6L166.149 193.967C166.012 193.969 166.15 195.421 166.374 197.222C166.481 198.081 165.209 198.409 164.903 197.599L161.125 187.592C160.572 186.127 160.261 184.588 160.208 183.022C160.05 178.339 159.72 167.995 159.756 164.267C159.804 159.386 161.552 155.707 167.107 156.003Z" fill="#843B00"/>
<path d="M186.347 155.003C180.792 155.299 181.112 161.77 181.211 167.213C181.414 178.417 181.913 181.347 180.911 184.248C180.449 185.585 179.457 187.133 178.691 189.631C177.755 192.681 177.545 194.923 177.545 196.324C177.545 196.967 178.258 197.116 178.592 196.566L180.818 192.898L180.581 195.87C180.512 196.74 181.891 196.998 182.173 196.172C182.82 194.278 183.428 192.788 183.702 192.929C184.027 193.095 184.041 194.59 183.96 196.176C183.919 196.977 185.074 197.314 185.44 196.6L187.306 192.967C187.443 192.969 187.304 194.421 187.08 196.222C186.973 197.081 188.245 197.409 188.551 196.599L192.33 186.592C192.883 185.127 193.194 183.588 193.247 182.022C193.405 177.339 193.735 166.995 193.698 163.267C193.65 158.386 191.903 154.707 186.347 155.003Z" fill="#843B00"/>
<path d="M205.39 131.61C205.451 137.549 205.707 136.62 201.957 138.466C200.228 139.317 197.773 139.858 194.64 141.541C191.027 143.481 188.407 145.403 186.721 146.803C185.97 147.428 186.533 148.451 187.484 148.227L193.643 146.78L188.468 151.315C187.526 152.14 188.767 153.77 189.83 153.108C193.405 150.881 196.334 149.207 196.472 149.608C196.64 150.101 194.722 152.062 192.632 154.01C191.792 154.793 192.719 156.263 193.774 155.811L200.007 153.144C200.211 153.347 199.113 156.255 198.144 158.689C197.768 159.631 198.872 160.494 199.69 159.895L203.918 156.797C206.192 155.13 208.852 154 211.253 152.521C212.861 151.531 214.803 150.012 216.749 147.715C224.714 133.786 210.421 126.579 205.39 131.61Z" fill="#662A00"/>
<path d="M211 188H220V212.84C220 214.585 218.585 216 216.84 216C215.225 216 213.87 214.782 213.697 213.176L211 188Z" fill="#404A70"/>
<path d="M29 188H20V212.84C20 214.585 21.4149 216 23.1603 216C24.7753 216 26.1305 214.782 26.3025 213.176L29 188Z" fill="#404A70"/>
<defs>
<filter id="filter0_d_5130_10748" x="140.412" y="34.9122" width="68.0984" height="109.229" filterUnits="userSpaceOnUse" color-interpolation-filters="sRGB">
<feFlood flood-opacity="0" result="BackgroundImageFix"/>
<feColorMatrix in="SourceAlpha" type="matrix" values="0 0 0 0 0 0 0 0 0 0 0 0 0 0 0 0 0 0 127 0" result="hardAlpha"/>
<feOffset dy="4"/>
<feComposite in2="hardAlpha" operator="out"/>
<feColorMatrix type="matrix" values="0 0 0 0 0.341176 0 0 0 0 0.490196 0 0 0 0 0 0 0 0 0.5 0"/>
<feBlend mode="normal" in2="BackgroundImageFix" result="effect1_dropShadow_5130_10748"/>
<feBlend mode="normal" in="SourceGraphic" in2="effect1_dropShadow_5130_10748" result="shape"/>
</filter>
<filter id="filter1_d_5130_10748" x="134.772" y="48.5127" width="43.2307" height="121.386" filterUnits="userSpaceOnUse" color-interpolation-filters="sRGB">
<feFlood flood-opacity="0" result="BackgroundImageFix"/>
<feColorMatrix in="SourceAlpha" type="matrix" values="0 0 0 0 0 0 0 0 0 0 0 0 0 0 0 0 0 0 127 0" result="hardAlpha"/>
<feOffset dy="4"/>
<feComposite in2="hardAlpha" operator="out"/>
<feColorMatrix type="matrix" values="0 0 0 0 0.341176 0 0 0 0 0.490196 0 0 0 0 0 0 0 0 0.5 0"/>
<feBlend mode="normal" in2="BackgroundImageFix" result="effect1_dropShadow_5130_10748"/>
<feBlend mode="normal" in="SourceGraphic" in2="effect1_dropShadow_5130_10748" result="shape"/>
</filter>
<filter id="filter2_i_5130_10748" x="27.3467" y="108.881" width="51.7702" height="58.8484" filterUnits="userSpaceOnUse" color-interpolation-filters="sRGB">
<feFlood flood-opacity="0" result="BackgroundImageFix"/>
<feBlend mode="normal" in="SourceGraphic" in2="BackgroundImageFix" result="shape"/>
<feColorMatrix in="SourceAlpha" type="matrix" values="0 0 0 0 0 0 0 0 0 0 0 0 0 0 0 0 0 0 127 0" result="hardAlpha"/>
<feOffset dx="-1"/>
<feComposite in2="hardAlpha" operator="arithmetic" k2="-1" k3="1"/>
<feColorMatrix type="matrix" values="0 0 0 0 0.996078 0 0 0 0 0.576471 0 0 0 0 0 0 0 0 1 0"/>
<feBlend mode="normal" in2="shape" result="effect1_innerShadow_5130_10748"/>
</filter>
<filter id="filter3_i_5130_10748" x="153.784" y="108.881" width="51.7702" height="58.8484" filterUnits="userSpaceOnUse" color-interpolation-filters="sRGB">
<feFlood flood-opacity="0" result="BackgroundImageFix"/>
<feBlend mode="normal" in="SourceGraphic" in2="BackgroundImageFix" result="shape"/>
<feColorMatrix in="SourceAlpha" type="matrix" values="0 0 0 0 0 0 0 0 0 0 0 0 0 0 0 0 0 0 127 0" result="hardAlpha"/>
<feOffset dx="1"/>
<feComposite in2="hardAlpha" operator="arithmetic" k2="-1" k3="1"/>
<feColorMatrix type="matrix" values="0 0 0 0 0.996078 0 0 0 0 0.576471 0 0 0 0 0 0 0 0 1 0"/>
<feBlend mode="normal" in2="shape" result="effect1_innerShadow_5130_10748"/>
</filter>
<linearGradient id="paint0_linear_5130_10748" x1="42" y1="57" x2="78" y2="65" gradientUnits="userSpaceOnUse">
<stop stop-color="#FEAD1D"/>
<stop offset="1" stop-color="#FEAD1D" stop-opacity="0"/>
</linearGradient>
<clipPath id="clip0_5130_10748">
<rect x="81" y="55" width="61" height="61" rx="8" fill="white"/>
</clipPath>
<clipPath id="clip1_5130_10748">
<rect width="46" height="39" rx="5.11475" transform="matrix(-1 0 0 1 202.802 112.881)" fill="white"/>
</clipPath>
</defs>
</svg>
