<svg width="20" height="20" viewBox="0 0 20 20" fill="none" xmlns="http://www.w3.org/2000/svg">
<circle cx="10" cy="10" r="10" fill="#FFE075"/>
<path d="M13.2286 6.02961L9.99995 9.25859L6.77181 6.02887L6.77174 6.02881C6.56649 5.82376 6.23448 5.82369 6.02933 6.02886L6.02928 6.02891C5.82427 6.23418 5.82419 6.5662 6.02933 6.77136L6.02934 6.77136L9.25822 10.0004L6.02885 13.2286L6.02878 13.2287C5.82377 13.434 5.82369 13.766 6.02883 13.9711L6.02888 13.9712C6.23414 14.1762 6.56614 14.1763 6.77129 13.9711L9.99992 10.7422L13.2278 13.9711L13.2279 13.9712C13.433 14.1761 13.7648 14.1763 13.9699 13.9715C14.1767 13.7676 14.1767 13.433 13.97 13.2291C13.9698 13.2289 13.9697 13.2288 13.9696 13.2287L10.7416 10.0004L13.971 6.77213L13.9711 6.77206C14.1761 6.56679 14.1762 6.23477 13.971 6.02961L13.971 6.02956C13.7657 5.82451 13.4337 5.82444 13.2286 6.02961Z" fill="#FFF9E3" stroke="#FFF9E3" stroke-width="0.25"/>
</svg>
