<svg width="16" height="16" viewBox="0 0 16 16" fill="none" xmlns="http://www.w3.org/2000/svg">
<path d="M3.28125 6.34375C3.09375 6.875 2.5 7.15625 2 6.96875C1.46875 6.78125 1.1875 6.21875 1.375 5.6875C1.71875 4.71875 2.28125 3.8125 3.03125 3.0625C5.78125 0.34375 10.1875 0.34375 12.9375 3.0625L13.4688 3.625V2C13.4688 1.46875 13.9375 1 14.4688 1C15.0312 1 15.4688 1.46875 15.4688 2V6C15.4688 6.5625 15.0312 7 14.4688 7H10.5C9.9375 7 9.5 6.5625 9.5 6C9.5 5.46875 9.9375 5 10.5 5H12.0625L11.5312 4.46875C9.5625 2.53125 6.40625 2.53125 4.4375 4.46875C3.90625 5.03125 3.5 5.65625 3.28125 6.34375ZM1.21875 9.0625C1.25 9.03125 1.3125 9.03125 1.34375 9.03125C1.40625 9.03125 1.4375 9 1.5 9H5.5C6.03125 9 6.5 9.46875 6.5 10C6.5 10.5625 6.03125 11 5.5 11H3.90625L4.4375 11.5625C6.40625 13.5 9.5625 13.5 11.5312 11.5625C12.0625 11 12.4688 10.375 12.6875 9.6875C12.875 9.15625 13.4688 8.875 13.9688 9.0625C14.5 9.25 14.7812 9.8125 14.5938 10.3438C14.25 11.3125 13.6875 12.1875 12.9375 12.9688C10.1875 15.6875 5.78125 15.6875 3.03125 12.9688L2.5 12.4062V14C2.5 14.5625 2.03125 15 1.5 15C0.9375 15 0.5 14.5625 0.5 14V10.0312C0.5 9.96875 0.5 9.90625 0.5 9.875C0.5 9.8125 0.5 9.78125 0.53125 9.75C0.5625 9.59375 0.65625 9.4375 0.78125 9.3125C0.90625 9.1875 1.0625 9.09375 1.21875 9.0625Z" fill="#41C98E"/>
</svg>
