<svg width="44" height="36" viewBox="0 0 44 36" fill="none" xmlns="http://www.w3.org/2000/svg">
<path d="M14.6709 34.8731C14.1774 34.6688 13.7292 34.3687 13.3522 33.9902L1.19386 21.8345C0.815383 21.456 0.515154 21.0066 0.310312 20.5121C0.105444 20.0175 0 19.4874 0 18.952C0 18.4167 0.105444 17.8866 0.310312 17.392C0.515183 16.8974 0.815467 16.448 1.19402 16.0694C1.57257 15.6909 2.02198 15.3906 2.51658 15.1857C3.01117 14.9808 3.54128 14.8754 4.07664 14.8754C4.612 14.8754 5.14211 14.9808 5.63671 15.1857C6.13131 15.3906 6.58072 15.6909 6.95927 16.0694L14.826 23.9361C15.201 24.3112 15.7098 24.5219 16.2402 24.5219C16.7707 24.5219 17.2794 24.3111 17.6545 23.936L36.3939 1.19393C37.1584 0.42947 38.1952 0 39.2764 0C40.3576 0 41.3945 0.4295 42.159 1.19402C42.9235 1.95854 43.353 2.99544 43.353 4.07664C43.353 5.15784 42.9235 6.19475 42.159 6.95927L19.1336 33.9846L19.1297 33.9887C18.7515 34.369 18.3014 34.6703 17.8057 34.875C17.3099 35.0797 16.7784 35.1838 16.242 35.1811L16.2278 35.1811C15.6936 35.1822 15.1645 35.0775 14.6709 34.8731Z" fill="#2E2957"/>
</svg>
