<svg width="141" height="140" viewBox="0 0 141 140" fill="none" xmlns="http://www.w3.org/2000/svg">
<path d="M14.5 70C14.5 84.8521 20.4 99.0959 30.902 109.598C41.4041 120.1 55.6479 126 70.5 126C85.3521 126 99.5959 120.1 110.098 109.598C120.6 99.0959 126.5 84.8521 126.5 70C126.5 55.1479 120.6 40.9041 110.098 30.402C99.5959 19.9 85.3521 14 70.5 14C55.6479 14 41.4041 19.9 30.902 30.402C20.4 40.9041 14.5 55.1479 14.5 70Z" fill="#C0FFD6"/>
<path d="M90.5625 55.9375C91.7812 57.0625 91.7812 59.0312 90.5625 60.1562L66.5625 84.1562C65.4375 85.375 63.4688 85.375 62.3438 84.1562L50.3438 72.1562C49.125 71.0312 49.125 69.0625 50.3438 67.9375C51.4688 66.7188 53.4375 66.7188 54.5625 67.9375L64.5 77.7812L86.3438 55.9375C87.4688 54.7188 89.4375 54.7188 90.5625 55.9375Z" fill="#003920"/>
<path opacity="0.4" d="M90.5625 55.9375C91.7812 57.0625 91.7812 59.0312 90.5625 60.1562L66.5625 84.1562C65.4375 85.375 63.4688 85.375 62.3438 84.1562L50.3438 72.1562C49.125 71.0312 49.125 69.0625 50.3438 67.9375C51.4688 66.7188 53.4375 66.7188 54.5625 67.9375L64.5 77.7812L86.3438 55.9375C87.4688 54.7188 89.4375 54.7188 90.5625 55.9375Z" fill="#003920"/>
</svg>
