<svg width="40" height="40" viewBox="0 0 40 40" fill="none" xmlns="http://www.w3.org/2000/svg">
<g id="Business Generic Others 1">
<path id="Vector" d="M26.0438 32.8187L26.0563 32.8312C26.35 33.1125 26.5 33.4938 26.5 33.8875C26.5 34.175 26.425 34.4563 26.25 34.7125C25.8063 35.3688 24.925 35.5688 24.2438 35.1562L21.7813 33.6812L22.5313 34.2563C22.9125 34.5438 23.1188 34.9875 23.1188 35.4437C23.1188 35.7312 23.0375 36.0125 22.8688 36.2687C22.425 36.925 21.5438 37.125 20.8625 36.7125L19.85 36.1C19.95 36.3062 20 36.5187 20 36.75C20 37.0375 19.9188 37.3188 19.75 37.575C19.3063 38.2375 18.425 38.4312 17.7438 38.025L6.27502 30.8313L9.96877 21.8625C11.4313 21.9188 13.6 22.0438 15.4063 22.3375C16.1813 21.3875 17.2125 20.675 18.3875 20.2813C19.925 19.7688 21.6 19.8438 23.0813 20.4938L30.8625 23.9L33.4563 30.1813C32.2 30.7375 30.85 31.3063 29.5375 31.8C29.6 31.9625 29.6313 32.1438 29.6313 32.325C29.6313 32.6063 29.55 32.8937 29.3813 33.1437C28.9375 33.8062 28.0563 34.0125 27.375 33.6L26.0625 32.8187L26.05 32.8063L26.0438 32.8187Z" fill="#FFD0C2"/>
<path id="Vector_2" d="M31.925 26.475L22.1688 22.2C20.1563 21.3188 17.8938 21.2125 15.8063 21.9125C16.525 21.1813 17.4063 20.6313 18.3938 20.3C19.9313 19.7875 21.6 19.8625 23.0875 20.5125L30.8688 23.9188L31.925 26.475Z" fill="#FFC9B9"/>
<path id="Vector_3" d="M19.7938 37.2437C19.8313 37.2625 19.8625 37.2812 19.9 37.3C19.8625 37.4 19.8125 37.5 19.75 37.5938C19.3063 38.2563 18.425 38.45 17.7438 38.0437L6.27502 30.85L6.95627 29.1875L19.7938 37.2437Z" fill="#FFC9B9"/>
<path id="Vector_4" d="M38.75 19.5062V33.5687H34.8438L29.375 20.2875L29.5563 20.225C32.5188 19.2375 35.675 18.9875 38.75 19.5062Z" fill="#E66D67"/>
<path id="Vector_5" d="M1.25 19.5062V33.5687H5.15625L10.625 20.2875L10.4437 20.225C7.48125 19.2375 4.325 18.9875 1.25 19.5062Z" fill="#36B385"/>
<path id="Vector_6" d="M21.05 36.7188L21.4 36.9187C21.3625 36.9125 21.3313 36.9063 21.2938 36.9L21.05 36.7188Z" fill="#FFC9B9"/>
<path id="Vector_7" d="M31.5499 25.5688L22.6 21.8688C20.825 21.1375 18.825 21.05 16.9875 21.6313C16.4562 21.7938 15.9562 22.0125 15.4812 22.275C16.2437 21.3625 17.25 20.6813 18.3937 20.3C19.9312 19.7875 21.5999 19.8625 23.0874 20.5125L30.8687 23.9188L31.5499 25.5688Z" fill="#FFBCA8"/>
<path id="Vector_8" d="M15.4062 22.3563C15.4062 22.3563 15.375 22.3563 15.3562 22.3563C15.3937 22.3313 15.4375 22.3063 15.475 22.2875C15.45 22.3125 15.425 22.3375 15.4062 22.3625V22.3563Z" fill="#FFC9B9"/>
<path id="Vector_9" d="M20 6.875L21.4188 9.75625L24.6 10.2188L22.3 12.4563L22.8438 15.625L20 14.1313L17.1563 15.625L17.7 12.4563L15.4 10.2188L18.5813 9.75625L20 6.875Z" fill="#FFE18F"/>
<path id="Vector_10" d="M1.24995 34.0625H5.1562C5.41245 34.0625 5.63745 33.9125 5.7312 33.675L6.5687 31.6437L17.4187 38.45C17.7562 38.65 18.1312 38.75 18.5 38.75C19.1875 38.75 19.8562 38.4187 20.2625 37.8062C20.4 37.6 20.4937 37.3687 20.55 37.1375C20.8875 37.3375 21.2562 37.4375 21.625 37.4375C22.3062 37.4375 22.9749 37.1062 23.3874 36.5C23.5999 36.1875 23.7125 35.8312 23.7312 35.4625L23.9187 35.575C24.2562 35.7812 24.6374 35.8812 25.0062 35.8812C25.6874 35.8812 26.3562 35.55 26.7687 34.9437C26.95 34.675 27.0625 34.3812 27.1 34.0625C27.425 34.2437 27.7812 34.3375 28.1312 34.3375C28.8187 34.3375 29.4875 34.0062 29.8937 33.3937C30.1562 33 30.2625 32.5437 30.2375 32.1C31.1062 31.7625 32.0562 31.3687 33.1187 30.9125L34.2625 33.6875C34.3562 33.9187 34.5875 34.075 34.8375 34.075H38.7437C39.0875 34.075 39.3687 33.7937 39.3687 33.45V19.375C39.3687 19.0687 39.15 18.8062 38.8437 18.7562C35.6749 18.2312 32.3937 18.4875 29.3499 19.5L29.1687 19.5625C29.0062 19.6187 28.8687 19.7375 28.8 19.8937C28.7312 20.05 28.725 20.2312 28.7875 20.3937L29.6937 22.6L23.325 19.8125C21.6937 19.1 19.8625 19.0187 18.1812 19.5812C17.0125 19.9687 15.9687 20.6562 15.1437 21.5625C13.7437 21.3562 12.175 21.2375 10.8687 21.1687L11.1875 20.4C11.2562 20.2375 11.25 20.0625 11.175 19.9C11.1 19.7375 10.9687 19.625 10.8062 19.5687L10.625 19.5062C7.5812 18.4937 4.2937 18.2312 1.1312 18.7625C0.831201 18.8125 0.606201 19.075 0.606201 19.3812V33.4437C0.606201 33.7875 0.887451 34.0687 1.2312 34.0687L1.24995 34.0625ZM38.125 19.9125V32.8125H35.2625L30.2125 20.5437C32.7687 19.7687 35.4812 19.55 38.125 19.9125ZM14.8812 24.1812L15.3812 23.3375C16.1062 22.125 17.25 21.2125 18.5875 20.7625C19.975 20.2937 21.4874 20.3625 22.8312 20.9562L30.3874 24.2625L32.6437 29.7437C31.6 30.2 30.6624 30.5875 29.8062 30.9125C29.6999 30.775 29.575 30.6375 29.4312 30.525L22.4312 25.1437C21 24.0312 19.025 23.8437 17.4125 24.6562L15.975 25.375C15.675 25.5312 15.2625 25.4687 15.0062 25.2125C14.7312 24.9375 14.6812 24.5125 14.8812 24.175V24.1812ZM14.3 22.7062L13.8062 23.5375C13.3062 24.3625 13.4312 25.4187 14.1187 26.1C14.75 26.7312 15.7875 26.8812 16.5312 26.4937L17.9625 25.7812C19.1562 25.1812 20.6062 25.325 21.6625 26.1375L28.6687 31.5187C29.0312 31.7937 29.1125 32.3062 28.8624 32.6875C28.6062 33.075 28.0937 33.1875 27.6937 32.95L21.0999 28.9937L20.4562 30.0625L25.6437 33.175C25.7937 33.325 25.875 33.525 25.875 33.75C25.875 33.925 25.8249 34.0875 25.7312 34.225C25.4687 34.6125 24.9562 34.725 24.5625 34.4875L17.9687 30.5312L17.325 31.6062L21.4312 34.0687L22.15 34.625C22.3624 34.7875 22.4874 35.0375 22.4874 35.3125C22.4874 35.4875 22.4375 35.65 22.3437 35.7875C22.0812 36.175 21.5687 36.2875 21.175 36.05L14.5812 32.0937L13.9375 33.1687L19.3312 36.4C19.35 36.4687 19.3625 36.5437 19.3625 36.625C19.3625 36.8 19.3125 36.9625 19.2187 37.1062C18.9625 37.4937 18.45 37.6062 18.0625 37.3812L7.0437 30.4687L10.3687 22.3937C11.5187 22.4437 12.9562 22.5375 14.2937 22.7L14.3 22.7062ZM1.87495 19.9125C4.5187 19.55 7.23745 19.7687 9.78745 20.5437L4.73745 32.8125H1.87495V19.9125Z" fill="black"/>
<path id="Vector_11" d="M20.625 1.875C20.625 1.52982 20.3452 1.25 20 1.25C19.6548 1.25 19.375 1.52982 19.375 1.875V3.75C19.375 4.09518 19.6548 4.375 20 4.375C20.3452 4.375 20.625 4.09518 20.625 3.75V1.875Z" fill="black"/>
<path id="Vector_12" d="M13.8846 4.47227C13.6688 4.20269 13.2754 4.15903 13.0058 4.37477C12.7362 4.59051 12.6926 4.98394 12.9083 5.25352L14.1271 6.77647C14.3428 7.04606 14.7362 7.08971 15.0058 6.87397C15.2754 6.65824 15.3191 6.26481 15.1033 5.99522L13.8846 4.47227Z" fill="black"/>
<path id="Vector_13" d="M26.1332 4.47002L24.9144 5.99297C24.6987 6.26255 24.7423 6.65598 25.0119 6.87172C25.2815 7.08746 25.6749 7.0438 25.8907 6.77422L27.1094 5.25127C27.3252 4.98169 27.2815 4.58826 27.0119 4.37252C26.7423 4.15678 26.3489 4.20044 26.1332 4.47002Z" fill="black"/>
<path id="Vector_14" d="M14.8062 10.025C14.7312 10.25 14.7937 10.5 14.9625 10.6687L17.025 12.6813L16.5375 15.525C16.5 15.7625 16.5937 15.9937 16.7875 16.1375C16.9812 16.275 17.2375 16.2937 17.4437 16.1875L19.9937 14.8438L22.5437 16.1875C22.6375 16.2375 22.7375 16.2563 22.8375 16.2563C22.9688 16.2563 23.0938 16.2188 23.2063 16.1375C23.4 16 23.4937 15.7625 23.4562 15.525L22.9687 12.6813L25.0312 10.6687C25.2 10.5 25.2625 10.2563 25.1875 10.025C25.1125 9.8 24.9188 9.63125 24.6813 9.6L21.825 9.1875L20.55 6.6C20.3375 6.175 19.6375 6.175 19.4312 6.6L18.1562 9.1875L15.3 9.6C15.0625 9.63125 14.8687 9.8 14.7937 10.025H14.8062ZM18.6687 10.375C18.875 10.3438 19.05 10.2187 19.1375 10.0312L20 8.2875L20.8625 10.0312C20.9563 10.2187 21.1312 10.3438 21.3313 10.375L23.2562 10.6562L21.8625 12.0125C21.7125 12.1562 21.65 12.3625 21.6812 12.5688L22.0125 14.4875L20.2875 13.5812C20.1937 13.5312 20.0937 13.5125 19.9937 13.5125C19.8937 13.5125 19.7937 13.5375 19.7 13.5812L17.975 14.4875L18.3062 12.5688C18.3437 12.3688 18.275 12.1562 18.125 12.0125L16.7312 10.6562L18.6562 10.375H18.6687Z" fill="black"/>
</g>
</svg>
