<svg width="18" height="21" viewBox="0 0 18 21" fill="none" xmlns="http://www.w3.org/2000/svg">
<path d="M2.75 1.75H16.8125C17.3203 1.75 17.75 2.17969 17.75 2.6875C17.75 2.92188 17.6719 3.11719 17.5547 3.27344L14 8L17.5547 12.7656C17.6719 12.9219 17.75 13.1172 17.75 13.3125C17.75 13.8594 17.3203 14.25 16.8125 14.25H2.75V19.25C2.75 19.9531 2.16406 20.5 1.5 20.5C0.796875 20.5 0.25 19.9531 0.25 19.25V1.75C0.25 1.08594 0.796875 0.5 1.5 0.5C2.16406 0.5 2.75 1.08594 2.75 1.75Z" fill="#9694AB"/>
</svg>
