<svg width="76" height="68" viewBox="0 0 76 68" fill="none" xmlns="http://www.w3.org/2000/svg">
<g id="Object" filter="url(#filter0_d_1_5401)">
<path id="Rectangle 1" d="M4.27864 20.3958C4.43955 19.8948 4.96127 19.6042 5.47198 19.7311L17.5572 22.7352C18.1872 22.8918 18.5033 23.5979 18.2005 24.1721L16.1852 27.9936C15.9829 28.3771 15.5567 28.5866 15.1295 28.5124L3.51542 26.4954C2.91708 26.3915 2.54874 25.7826 2.73442 25.2044L4.27864 20.3958Z" fill="#DD2D54"/>
<path id="Rectangle 2" d="M70.5051 48.2603C70.2605 48.637 69.7947 48.8044 69.3663 48.6696L61.8759 46.3125C61.2805 46.1252 61.0004 45.4442 61.2915 44.8922L63.337 41.0134C63.5421 40.6245 63.9771 40.4152 64.409 40.4976L72.8566 42.1096C73.5544 42.2427 73.8947 43.0407 73.5078 43.6365L70.5051 48.2603Z" fill="#DD2D54"/>
<g id="Vector">
<path d="M64.1516 34.693C59.8221 27.4214 44.9108 30.149 41.5537 29.1181C37.9523 27.4202 29.4513 15.2861 21.4212 17.5953C13.3911 19.9044 14.5171 29.5237 15.3493 32.0665C16.3705 35.0838 18.2495 37.7377 20.7562 39.7032C23.2629 41.6687 26.2884 42.8603 29.4622 43.1323L29.4692 43.1375C34.1661 42.5334 38.3264 45.0512 39.7543 47.387L39.7622 47.3929C42.2005 49.4417 45.1834 50.735 48.3455 51.1145C51.5076 51.494 54.7118 50.9432 57.5657 49.5295C59.9527 48.3173 68.4811 41.9646 64.1516 34.693Z" fill="#DD2D54"/>
<path d="M41.0373 30.2135L41.1155 30.2504L41.1982 30.2758C41.7704 30.4515 42.4983 30.5258 43.2482 30.5648C44.0203 30.6048 44.9238 30.6111 45.8903 30.6125C46.0717 30.6128 46.2558 30.6129 46.4424 30.613C48.2649 30.614 50.3196 30.6151 52.3964 30.7728C54.6889 30.9468 56.9325 31.3074 58.8359 32.0311C60.732 32.752 62.2117 33.802 63.1111 35.3125C64.9416 38.3869 64.1184 41.2592 62.3914 43.6803C60.6382 46.1382 58.0784 47.9093 57.0227 48.4471C54.3812 49.7542 51.4161 50.2633 48.4898 49.9122C45.6184 49.5676 42.9066 48.4093 40.6733 46.5755C39.7848 45.2246 38.2338 43.945 36.3513 43.0632C34.4054 42.1515 32.0181 41.6227 29.471 41.9173C26.5665 41.6501 23.7998 40.5508 21.5034 38.7502C19.1837 36.9314 17.4445 34.476 16.4984 31.6843C16.1385 30.5798 15.679 27.7589 16.2481 24.9868C16.8051 22.2738 18.2981 19.7534 21.7559 18.7591C23.4169 18.2815 25.1601 18.5291 26.976 19.2979C28.802 20.0711 30.6253 21.3405 32.3769 22.7876C33.8227 23.9822 35.1732 25.2575 36.4159 26.431C36.6786 26.6791 36.9365 26.9226 37.1894 27.1599C37.9054 27.8315 38.5881 28.4584 39.2127 28.9744C39.8245 29.4799 40.4458 29.9346 41.0373 30.2135Z" stroke="black" stroke-opacity="0.25" stroke-width="2.42197"/>
</g>
<path id="Ellipse 22" d="M34.0163 35.223C34.0163 35.223 28.5993 36.4552 25.0142 33.7974C21.4291 31.1397 21.0337 25.5983 21.0337 25.5983C21.0337 25.5983 26.4507 24.3661 30.0358 27.0239C33.6208 29.6816 34.0163 35.223 34.0163 35.223Z" fill="#FFF7FF"/>
<path id="Ellipse 23" d="M59.1756 41.9141C59.1756 41.9141 54.7328 45.2494 50.3753 44.2857C46.0178 43.3221 43.3957 38.4244 43.3957 38.4244C43.3957 38.4244 47.8385 35.0891 52.196 36.0527C56.5535 37.0164 59.1756 41.9141 59.1756 41.9141Z" fill="#FFF7FF"/>
</g>
<defs>
<filter id="filter0_d_1_5401" x="2.68616" y="17.3042" width="70.9838" height="37.927" filterUnits="userSpaceOnUse" color-interpolation-filters="sRGB">
<feFlood flood-opacity="0" result="BackgroundImageFix"/>
<feColorMatrix in="SourceAlpha" type="matrix" values="0 0 0 0 0 0 0 0 0 0 0 0 0 0 0 0 0 0 127 0" result="hardAlpha"/>
<feOffset dy="4"/>
<feColorMatrix type="matrix" values="0 0 0 0 0 0 0 0 0 0 0 0 0 0 0 0 0 0 0.15 0"/>
<feBlend mode="normal" in2="BackgroundImageFix" result="effect1_dropShadow_1_5401"/>
<feBlend mode="normal" in="SourceGraphic" in2="effect1_dropShadow_1_5401" result="shape"/>
</filter>
</defs>
</svg>
