<svg width="160" height="160" viewBox="0 0 160 160" fill="none" xmlns="http://www.w3.org/2000/svg">
<path d="M15 80V92.5C15 96.875 11.5625 100 7.5 100C3.125 100 0 96.875 0 92.5V80C0 35.9375 35.625 0 80 0C104.062 0 125.938 10.9375 140.625 28.125C143.125 31.25 142.812 35.9375 139.688 38.75C136.562 41.25 131.875 40.9375 129.062 37.8125C117.188 24.0625 99.6875 15 80 15C44.0625 15 15 44.375 15 80ZM158.125 63.75C159.375 69.0625 160 74.375 160 80V92.8125C160 96.875 156.562 100.312 152.5 100.312C148.125 100.312 145 96.875 145 92.8125V80.3125C145 75.625 144.375 70.9375 143.438 66.5625C142.5 62.8125 145.312 58.75 149.375 57.8125C153.438 56.875 157.188 59.6875 158.125 63.75ZM110 80V87.8125C110 100.312 108.75 112.812 106.25 124.688C105.625 127.812 102.812 130 99.6875 130C95.3125 130 91.875 125.938 92.8125 121.562C95 110.625 96.25 99.375 96.25 87.8125V80C96.25 71.25 88.75 63.75 80 63.75C70.9375 63.75 63.75 71.25 63.75 80V87.8125C63.75 100.625 61.875 113.125 58.75 125.312C57.8125 128.125 55.3125 130 52.1875 130C47.5 130 44.375 125.625 45.625 120.938C48.4375 110.312 50 99.0625 50 87.8125V80C50 63.4375 63.4375 50 80 50C96.5625 50 110 63.4375 110 80Z" fill="#2E2957"/>
<path opacity="0.4" d="M80 25C110.312 25 135 49.6875 135 80V87.8125C135 96.5625 134.375 105.312 133.438 113.75C132.812 117.5 129.688 120 125.938 120C121.562 120 117.812 115.938 118.438 111.562C119.375 103.75 119.688 95.625 119.688 87.8125V80C119.688 58.125 101.875 40 79.6875 40C76.25 40 72.8125 40.625 69.375 41.5625C65.9375 42.5 62.5 41.5625 60.3125 39.0625C56.875 35.3125 58.125 29.375 62.8125 27.8125C68.125 25.9375 74.0625 25 80 25ZM46.875 46.5625C49.375 49.6875 49.375 54.0625 46.875 57.1875C42.5 63.75 40 71.5625 40 80V87.8125C40 96.875 38.75 105.938 36.875 114.688C35.9375 117.812 33.125 120 30 120C25 120 21.25 115.312 22.5 110.312C24.0625 103.125 25 95.625 25 87.8125V80C25 67.5 29.0625 55.625 36.25 46.5625C39.0625 43.125 44.0625 43.4375 46.875 46.5625ZM87.5 80V87.8125C87.5 108.438 83.4375 128.75 76.25 148.125L74.375 152.812C72.8125 156.562 68.4375 158.75 64.6875 157.188C60.9375 155.625 58.75 151.25 60.3125 147.5L62.1875 142.812C69.0625 125.312 72.5 106.562 72.5 87.8125V80C72.5 75.9375 75.625 72.5 80 72.5C84.0625 72.5 87.5 75.9375 87.5 80Z" fill="#2E2957"/>
</svg>
