<svg width="141" height="140" viewBox="0 0 141 140" fill="none" xmlns="http://www.w3.org/2000/svg">
<path d="M14.5 70C14.5 84.8521 20.4 99.0959 30.902 109.598C41.4041 120.1 55.6479 126 70.5 126C85.3521 126 99.5959 120.1 110.098 109.598C120.6 99.0959 126.5 84.8521 126.5 70C126.5 55.1479 120.6 40.9041 110.098 30.402C99.5959 19.9 85.3521 14 70.5 14C55.6479 14 41.4041 19.9 30.902 30.402C20.4 40.9041 14.5 55.1479 14.5 70Z" fill="#FFB4A7"/>
<path d="M64.7812 46H76.125C77.25 46 78.2812 46.6562 78.75 47.6875L79.5 49H88.5C90.0938 49 91.5 50.4062 91.5 52C91.5 53.6875 90.0938 55 88.5 55H52.5C50.8125 55 49.5 53.6875 49.5 52C49.5 50.4062 50.8125 49 52.5 49H61.5L62.1562 47.6875C62.625 46.6562 63.6562 46 64.7812 46ZM52.5 58H88.5V88C88.5 91.375 85.7812 94 82.5 94H58.5C55.125 94 52.5 91.375 52.5 88V58ZM62.9062 68.4062C61.9688 69.3438 61.9688 70.75 62.9062 71.5938L67.3125 76L62.9062 80.4062C61.9688 81.3438 61.9688 82.75 62.9062 83.5938C63.75 84.5312 65.1562 84.5312 66 83.5938L70.4062 79.1875L74.8125 83.5938C75.75 84.5312 77.1562 84.5312 78 83.5938C78.9375 82.75 78.9375 81.3438 78 80.4062L73.5938 76L78 71.5938C78.9375 70.75 78.9375 69.3438 78 68.4062C77.1562 67.5625 75.75 67.5625 74.8125 68.4062L70.4062 72.8125L66 68.4062C65.1562 67.5625 63.75 67.5625 62.9062 68.4062Z" fill="#222222"/>
<path d="M64.7812 46H76.125C77.25 46 78.2812 46.6562 78.75 47.6875L79.5 49H88.5C90.0938 49 91.5 50.4062 91.5 52C91.5 53.6875 90.0938 55 88.5 55H52.5C50.8125 55 49.5 53.6875 49.5 52C49.5 50.4062 50.8125 49 52.5 49H61.5L62.1562 47.6875C62.625 46.6562 63.6562 46 64.7812 46ZM52.5 58H88.5V88C88.5 91.375 85.7812 94 82.5 94H58.5C55.125 94 52.5 91.375 52.5 88V58ZM62.9062 68.4062C61.9688 69.3438 61.9688 70.75 62.9062 71.5938L67.3125 76L62.9062 80.4062C61.9688 81.3438 61.9688 82.75 62.9062 83.5938C63.75 84.5312 65.1562 84.5312 66 83.5938L70.4062 79.1875L74.8125 83.5938C75.75 84.5312 77.1562 84.5312 78 83.5938C78.9375 82.75 78.9375 81.3438 78 80.4062L73.5938 76L78 71.5938C78.9375 70.75 78.9375 69.3438 78 68.4062C77.1562 67.5625 75.75 67.5625 74.8125 68.4062L70.4062 72.8125L66 68.4062C65.1562 67.5625 63.75 67.5625 62.9062 68.4062Z" fill="#920700"/>
</svg>
