<svg width="237" height="237" viewBox="0 0 237 237" fill="none" xmlns="http://www.w3.org/2000/svg">
<circle cx="118.5" cy="118.5" r="118.5" fill="#FAE79C"/>
<mask id="mask0_2878_861" style="mask-type:alpha" maskUnits="userSpaceOnUse" x="0" y="0" width="237" height="237">
<circle cx="118.5" cy="118.5" r="118.5" fill="#F0B4A8"/>
</mask>
<g mask="url(#mask0_2878_861)">
<path d="M162.88 187.329C162.88 187.329 191.114 191.758 197.421 222.515C203.728 253.272 185.029 272.23 185.029 272.23" stroke="#2E2957" stroke-width="10.5" stroke-linecap="round"/>
<path d="M101.752 188.893C101.752 188.893 71.8468 200.678 48.9821 174.143C26.1174 147.608 45.3824 113.543 45.3824 113.543" stroke="#2E2957" stroke-width="10.5" stroke-linecap="round"/>
<path fill-rule="evenodd" clip-rule="evenodd" d="M79.5001 37.5L118.589 43.3533C153.028 48.5103 177.983 78.8857 176.358 113.671L79.4999 115L79.5001 37.5Z" fill="#2E2957"/>
<path d="M170.683 284.818H173.683V281.818V111.247C173.683 86.0834 153.284 65.6843 128.121 65.6843C102.957 65.6843 82.5585 86.0834 82.5585 111.247V281.818V284.818H85.5585H170.683Z" fill="white" stroke="#2E2957" stroke-width="6"/>
<mask id="mask1_2878_861" style="mask-type:luminance" maskUnits="userSpaceOnUse" x="79" y="62" width="98" height="226">
<path d="M170.683 284.818H173.683V281.818V111.247C173.683 86.0834 153.284 65.6843 128.121 65.6843C102.957 65.6843 82.5585 86.0834 82.5585 111.247V281.818V284.818H85.5585H170.683Z" fill="white" stroke="white" stroke-width="6"/>
</mask>
<g mask="url(#mask1_2878_861)">
<ellipse cx="98.3271" cy="136.887" rx="9.93125" ry="9.94623" fill="#E26952" fill-opacity="0.5"/>
<ellipse cx="159.333" cy="136.887" rx="9.93125" ry="9.94623" fill="#E26952" fill-opacity="0.5"/>
<path fill-rule="evenodd" clip-rule="evenodd" d="M88.3959 159.621L130.958 187.645L170.683 169.567V247.716H88.3959V159.621Z" fill="#41C98E"/>
<ellipse cx="111.096" cy="118.415" rx="5.675" ry="5.68356" fill="#2E2957"/>
<ellipse cx="145.146" cy="118.415" rx="5.675" ry="5.68356" fill="#2E2957"/>
<path d="M86.2681 171.698L126.55 197.656C127.533 198.29 128.795 198.294 129.783 197.667L170.684 171.698" stroke="#2E2957" stroke-width="6" stroke-linecap="square"/>
<path d="M116.804 152.281C116.804 152.281 133.299 155.123 137.221 145.917" stroke="#2E2957" stroke-width="6" stroke-linecap="round"/>
</g>
</g>
</svg>
