<svg width="240" height="240" viewBox="0 0 240 240" fill="none" xmlns="http://www.w3.org/2000/svg">
<path d="M24 120C24 145.461 34.1143 169.879 52.1178 187.882C70.1212 205.886 94.5392 216 120 216C145.461 216 169.879 205.886 187.882 187.882C205.886 169.879 216 145.461 216 120C216 94.5392 205.886 70.1212 187.882 52.1178C169.879 34.1143 145.461 24 120 24C94.5392 24 70.1212 34.1143 52.1178 52.1178C34.1143 70.1212 24 94.5392 24 120Z" fill="#E9FFED"/>
<path d="M185.443 161.52C185.136 162.426 184.653 163.263 184.022 163.983C183.391 164.703 182.625 165.291 181.767 165.715C180.908 166.138 179.975 166.388 179.02 166.451C178.065 166.514 177.107 166.388 176.201 166.08L115.481 145.44C114.574 145.133 113.737 144.65 113.017 144.019C112.297 143.388 111.709 142.621 111.285 141.763C110.862 140.904 110.612 139.97 110.549 139.015C110.486 138.06 110.613 137.102 110.921 136.195L123.11 100.308C123.733 98.478 125.057 96.9699 126.791 96.1149C128.524 95.2599 130.527 95.128 132.358 95.748L193.09 116.388C194.92 117.01 196.429 118.334 197.284 120.068C198.139 121.802 198.27 123.804 197.65 125.635L185.443 161.52Z" fill="#C0FFD6"/>
<path d="M119.819 109.963L122.632 101.682L197.165 127.004L194.352 135.285L119.819 109.963Z" fill="#2E2957"/>
<path d="M122.474 129.34L125.288 121.057L183.258 140.751L180.444 149.034L122.474 129.34Z" fill="#00A1A2"/>
<path d="M190.08 124.034C190.08 125.967 189.312 127.821 187.946 129.187C186.58 130.554 184.726 131.323 182.794 131.323H118.651C117.694 131.324 116.746 131.136 115.861 130.771C114.976 130.405 114.172 129.868 113.495 129.191C112.818 128.515 112.281 127.711 111.914 126.827C111.548 125.942 111.36 124.994 111.36 124.037V86.136C111.361 84.2031 112.129 82.3495 113.496 80.9827C114.862 79.6159 116.716 78.8478 118.649 78.8472H182.791C184.723 78.8484 186.576 79.6164 187.943 80.9826C189.309 82.3487 190.078 84.2013 190.08 86.1336V124.034Z" fill="#AEFFFF"/>
<path d="M111.362 87.5928H190.08V96.3384H111.362V87.5928Z" fill="#2E2957"/>
<path d="M120.11 105.084H181.334V113.832H120.11V105.084Z" fill="#00A1A2"/>
<path d="M87.0025 71.1011L148.018 36.6283C150.285 35.3474 152.968 35.0195 155.477 35.7169C157.986 36.4143 160.115 38.0798 161.396 40.3469L180.875 74.8246C182.156 77.0917 182.484 79.7749 181.787 82.2838C181.089 84.7927 179.424 86.9217 177.157 88.2027L116.142 122.676C115.019 123.31 113.783 123.716 112.503 123.873C111.224 124.029 109.926 123.932 108.684 123.587C107.442 123.241 106.28 122.655 105.265 121.861C104.25 121.067 103.401 120.08 102.767 118.958L83.2872 84.4801C82.6531 83.3578 82.2462 82.1216 82.0899 80.8421C81.9336 79.5625 82.0308 78.2647 82.376 77.0228C82.7212 75.7808 83.3077 74.619 84.1019 73.6037C84.8961 72.5884 85.8826 71.7394 87.0049 71.1053L87.0025 71.1011Z" fill="#FAE366"/>
<path d="M99.3617 88.1334L114.532 79.5624L120.532 90.1815L105.361 98.7525L99.3617 88.1334Z" fill="white" fill-opacity="0.5"/>
<path d="M138.511 82.1208C138.511 83.4937 138.782 84.8531 139.307 86.1215C139.832 87.3899 140.602 88.5424 141.573 89.5132C142.544 90.4839 143.697 91.254 144.965 91.7794C146.233 92.3048 147.593 92.5752 148.966 92.5752C150.339 92.5752 151.698 92.3048 152.966 91.7794C154.235 91.254 155.387 90.4839 156.358 89.5132C157.329 88.5424 158.099 87.3899 158.624 86.1215C159.15 84.8531 159.42 83.4937 159.42 82.1208C159.42 80.7479 159.15 79.3884 158.624 78.1201C158.099 76.8517 157.329 75.6992 156.358 74.7284C155.387 73.7576 154.235 72.9876 152.966 72.4622C151.698 71.9368 150.339 71.6664 148.966 71.6664C147.593 71.6664 146.233 71.9368 144.965 72.4622C143.697 72.9876 142.544 73.7576 141.573 74.7284C140.602 75.6992 139.832 76.8517 139.307 78.1201C138.782 79.3884 138.511 80.7479 138.511 82.1208Z" fill="#FF6242"/>
<path d="M149.129 76.1208C149.129 77.4937 149.399 78.8531 149.925 80.1215C150.45 81.3899 151.22 82.5424 152.191 83.5132C153.162 84.4839 154.314 85.254 155.582 85.7794C156.851 86.3048 158.21 86.5752 159.583 86.5752C160.956 86.5752 162.316 86.3048 163.584 85.7794C164.852 85.254 166.005 84.4839 166.976 83.5132C167.946 82.5424 168.716 81.3899 169.242 80.1215C169.767 78.8531 170.038 77.4937 170.038 76.1208C170.038 74.7479 169.767 73.3884 169.242 72.1201C168.716 70.8517 167.946 69.6992 166.976 68.7284C166.005 67.7576 164.852 66.9876 163.584 66.4622C162.316 65.9368 160.956 65.6664 159.583 65.6664C158.21 65.6664 156.851 65.9368 155.582 66.4622C154.314 66.9876 153.162 67.7576 152.191 68.7284C151.22 69.6992 150.45 70.8517 149.925 72.1201C149.399 73.3884 149.129 74.7479 149.129 76.1208Z" fill="#FFEF9E"/>
<path d="M150.48 81.264C151.295 82.7089 152.444 83.9386 153.829 84.851C155.215 85.7634 156.798 86.3323 158.448 86.5104C159.145 85.0049 159.474 83.3551 159.407 81.6975C159.34 80.0398 158.879 78.4219 158.063 76.9775C157.247 75.5331 156.099 74.3038 154.713 73.3911C153.328 72.4784 151.745 71.9086 150.096 71.7288C149.397 73.2342 149.068 74.8845 149.134 76.5428C149.201 78.2011 149.662 79.8196 150.48 81.264Z" fill="#FFAA54"/>
<path d="M69.2616 140.026V128.666C69.2616 124.362 70.9714 120.234 74.0149 117.191C77.0584 114.147 81.1863 112.438 85.4904 112.438C89.7946 112.438 93.9224 114.147 96.9659 117.191C100.009 120.234 101.719 124.362 101.719 128.666V140.026H113.081V128.666C113.178 124.982 112.536 121.315 111.193 117.883C109.851 114.45 107.834 111.322 105.262 108.681C102.691 106.041 99.6162 103.943 96.2204 102.51C92.8246 101.077 89.1762 100.339 85.4904 100.339C81.8047 100.339 78.1563 101.077 74.7604 102.51C71.3646 103.943 68.2902 106.041 65.7186 108.681C63.147 111.322 61.1302 114.45 59.7874 117.883C58.4446 121.315 57.8028 124.982 57.9 128.666V140.026H69.2616Z" fill="#2E2957"/>
<path d="M51.408 148.026C51.408 143.607 54.9897 140.026 59.408 140.026H111.573C115.991 140.026 119.573 143.607 119.573 148.026V181.78C119.573 186.198 115.991 189.78 111.573 189.78H59.408C54.9897 189.78 51.408 186.198 51.408 181.78V148.026Z" fill="#60DD9B"/>
<path d="M91.9824 159.502C91.9876 158.361 91.6921 157.239 91.1257 156.249C90.5592 155.258 89.7419 154.435 88.7559 153.861C87.77 153.287 86.6502 152.983 85.5095 152.98C84.3687 152.977 83.2472 153.274 82.2579 153.842C81.2686 154.41 80.4464 155.229 79.8742 156.216C79.302 157.203 79 158.323 78.9985 159.464C78.997 160.604 79.2961 161.725 79.8657 162.714C80.4354 163.702 81.2554 164.523 82.2432 165.094V172.486C82.298 173.308 82.6632 174.078 83.2648 174.641C83.8664 175.204 84.6594 175.517 85.4832 175.517C86.307 175.517 87.1 175.204 87.7016 174.641C88.3032 174.078 88.6684 173.308 88.7232 172.486V165.094C89.709 164.529 90.529 163.715 91.101 162.734C91.673 161.752 91.977 160.638 91.9824 159.502Z" fill="#2E2957"/>
</svg>
