<svg width="263" height="310" viewBox="0 0 263 310" fill="none" xmlns="http://www.w3.org/2000/svg">
<g clip-path="url(#clip0_3599_1565)">
<path d="M7.51986 100.098C6.16977 99.5461 4.76645 98.9899 3.30991 99.0624C1.85336 99.1398 0.333904 100.049 0.0484009 101.476C-0.275814 103.087 1.01137 104.552 2.28403 105.592C4.18093 107.15 6.29075 108.451 8.53121 109.452L7.5247 100.093L7.51986 100.098Z" fill="#F2786A"/>
<path d="M11.483 55.9666C9.43124 53.6304 7.68919 51.0185 6.31491 48.2325C6.14554 47.8891 5.97618 47.5215 6.02457 47.1394C6.12619 46.3027 7.1327 45.9351 7.97469 45.8383C10.9023 45.5046 13.9461 46.2591 16.3752 47.9278L11.4878 55.9617L11.483 55.9666Z" fill="#F2786A"/>
<path d="M262.12 240.336C250.328 311.074 213.333 309.995 213.333 309.995C210.314 305.424 195.25 282.812 191.355 278.919C186.961 274.527 186.661 274.469 186.288 274.096C181.72 270.135 176.252 266.633 169.651 263.746C158.71 258.928 158.067 260.965 131.234 248.191C117.743 241.767 106.115 235.513 106.115 235.513C106.584 232.413 104.3 247.204 114.69 180.321C110.059 177.259 76.2244 155.058 70.7272 154.067C64.8236 153.002 29.8229 131.977 25.1581 128.61C20.3336 125.128 8.93285 117.762 5.86007 114.414C-2.66146 105.142 5.04228 97.6017 11.754 99.9476C15.3349 101.2 24.379 105.916 32.9586 109.133C40.4252 111.928 65.8785 124.978 72.8758 128.61L68.0513 107.445C60.5653 101.471 21.8531 70.2835 15.5091 62.9703C12.5137 59.512 10.5104 56.2568 9.53773 53.5385C8.28926 50.0463 8.53122 46.738 12.1992 46.0995C16.8253 45.3063 25.7582 49.1806 40.7059 58.148C48.9903 63.1492 171.911 138.202 181.13 138.202C181.396 138.221 181.585 138.192 181.705 138.115C186.515 134.961 181.207 126.376 176.881 96.7263C174.568 80.6633 178.967 67.6765 186.109 59.7441C187.895 57.7707 190.121 55.8166 192.487 54.651C193.866 53.9593 195.806 53.3257 197.258 53.8577C203.118 55.9859 202.126 72.5616 204.231 87.6186C206.636 104.47 225.508 153.399 225.852 154.618C228.049 161.839 224.536 194.681 229.791 211.736C230.943 215.508 232.801 219.165 236.488 223.31C239.706 226.938 244.177 230.464 247.516 232.621C252.742 236.06 258.564 238.976 262.13 240.34L262.12 240.336Z" fill="#FFC98F"/>
<path d="M262.12 240.336C250.328 311.074 213.333 309.995 213.333 309.995C210.314 305.424 195.25 282.812 191.355 278.919C186.961 274.527 186.661 274.469 186.288 274.096C181.72 270.135 176.252 266.633 169.651 263.746C158.71 258.928 158.067 260.965 131.234 248.191C117.743 241.767 106.115 235.513 106.115 235.513C106.584 232.413 104.3 247.204 114.69 180.321C110.059 177.259 76.2244 155.058 70.7272 154.067C64.8236 153.002 29.8229 131.977 25.1581 128.61C20.3336 125.128 8.93285 117.762 5.86007 114.414C-2.66146 105.142 5.04228 97.6017 11.754 99.9476C15.3349 101.2 24.379 105.916 32.9586 109.133C40.4252 111.928 65.8785 124.978 72.8758 128.61L68.0513 107.445C60.5653 101.471 21.8531 70.2835 15.5091 62.9703C12.5137 59.512 10.5104 56.2568 9.53773 53.5385C8.28926 50.0463 8.53121 46.738 12.1992 46.0995C16.8253 45.3063 25.7582 49.1806 40.7059 58.148C50.3259 63.957 170.566 137.447 181.13 138.202C195.671 151.619 211.233 164.156 226.665 176.224C226.655 186.826 226.704 203.973 230.493 213.811C233.42 221.482 240.248 227.736 247.032 232.302C251.813 235.538 258.22 238.841 262.12 240.336Z" fill="#FFC98F"/>
<path d="M247.032 232.302C246.689 233.453 246.287 234.667 245.827 235.949C238.09 257.424 215.617 282.662 201.342 292.278C200.863 291.591 200.389 290.914 199.915 290.237C213.072 281.347 235.554 256.945 243.427 235.083C244.003 233.482 244.463 232.045 244.826 230.749C245.566 231.286 246.302 231.804 247.032 232.297V232.302Z" fill="#FFC98F"/>
<path d="M171.418 6.69897L80.6037 0.0435334C71.8596 -0.599761 64.2478 5.96861 63.609 14.7087L48.0903 226.178C47.4467 234.923 54.0181 242.532 62.7622 243.17L153.576 249.83C162.32 250.474 169.932 243.905 170.576 235.16L186.094 23.6906C186.738 14.9505 180.167 7.34226 171.423 6.7038L171.418 6.69897Z" fill="#666666"/>
<path d="M167.029 227.741C166.555 234.227 160.883 239.117 154.399 238.643L63.5848 231.982C57.1005 231.508 52.2083 225.845 52.6825 219.354L67.6738 15.0134C68.1481 8.52727 73.8194 3.63727 80.3037 4.11128L114.09 6.58772C117.274 6.81988 119.664 9.58653 119.432 12.7691V12.861C119.19 16.0969 121.614 18.9119 124.852 19.1489C128.089 19.3859 130.905 16.953 131.143 13.722V13.6301C131.384 10.4475 134.152 8.0581 137.336 8.29027L171.123 10.7667C177.607 11.2407 182.499 16.9046 182.025 23.3956L167.029 227.741Z" fill="#FFFEFC"/>
<path d="M93.098 32.6822C99.5243 31.1828 112.962 34.8104 113.204 48.5856C113.446 62.3608 101.716 66.5543 93.3013 64.639C84.891 62.7284 80.6762 58.6703 79.9988 50.4671C79.1326 39.981 86.8121 34.1478 93.098 32.6822Z" fill="#F2C0BA"/>
<path d="M75.8013 69.3577L75.7709 69.7725C75.6534 71.371 76.8546 72.762 78.4538 72.8794L117.796 75.7671C119.395 75.8845 120.786 74.6838 120.904 73.0854L120.934 72.6705C121.052 71.0721 119.851 69.6811 118.251 69.5637L78.9096 66.6759C77.3104 66.5586 75.9188 67.7592 75.8013 69.3577Z" fill="#A1BFCC"/>
<path d="M78.1551 83.3646L128.549 87.0599C130.33 87.1905 131.883 85.8507 132.014 84.0708C132.144 82.2908 130.804 80.7382 129.023 80.6076L78.6294 76.9123C76.8486 76.7817 75.2953 78.1215 75.1646 79.9015C75.034 81.6814 76.3744 83.234 78.1551 83.3646Z" fill="#A1BFCC"/>
<path d="M86.9283 224.602L137.322 228.297C139.103 228.427 140.656 227.088 140.787 225.308C140.917 223.528 139.577 221.975 137.796 221.845L87.4025 218.149C85.6217 218.019 84.0684 219.358 83.9378 221.138C83.8071 222.918 85.1475 224.471 86.9283 224.602Z" fill="#A1BFCC"/>
<path d="M121.212 39.9022L120.922 43.8529C120.829 45.1237 121.784 46.2295 123.055 46.3228L140.303 47.5889C141.575 47.6822 142.681 46.7277 142.774 45.4569L143.065 41.5062C143.158 40.2354 142.203 39.1296 140.932 39.0363L123.683 37.7702C122.412 37.6769 121.306 38.6314 121.212 39.9022Z" fill="#A1BFCC"/>
<path d="M148.857 41.9214L148.568 45.8722C148.475 47.143 149.43 48.2486 150.701 48.3417L167.95 49.6048C169.221 49.6979 170.327 48.7432 170.42 47.4724L170.71 43.5216C170.803 42.2508 169.848 41.1452 168.577 41.0521L151.328 39.789C150.057 39.6959 148.951 40.6506 148.857 41.9214Z" fill="#A1BFCC"/>
<g clip-path="url(#clip1_3599_1565)">
<path d="M165 103L74.246 96.229L67.488 186.809L158.242 193.58L165 103Z" fill="#54A1EE"/>
<path fill-rule="evenodd" clip-rule="evenodd" d="M100.183 135.916L105.418 136.306L104.785 144.788C103.481 146.054 101.907 147.008 100.181 147.58C98.4548 148.152 96.6212 148.326 94.8177 148.09C93.0973 147.951 91.4236 147.461 89.8996 146.651C88.3758 145.842 87.0338 144.73 85.9565 143.384C84.083 140.884 83.2077 137.779 83.5006 134.671C83.6065 133.08 84.0259 131.526 84.7347 130.097C85.4435 128.668 86.4278 127.394 87.6313 126.345C88.8497 125.263 90.2753 124.439 91.8217 123.923C93.3682 123.406 95.0036 123.207 96.6293 123.339C100.205 123.628 103.555 125.203 106.055 127.772L102.268 131.483C101.614 130.543 100.753 129.765 99.752 129.207C98.7503 128.65 97.6347 128.328 96.4896 128.267C94.6495 128.165 92.8435 128.792 91.4639 130.011C90.6932 130.625 90.0566 131.391 89.5934 132.259C89.1302 133.129 88.8502 134.083 88.7706 135.064C88.6751 136.065 88.7852 137.074 89.094 138.031C89.4027 138.987 89.9037 139.871 90.5665 140.628C91.726 141.972 93.3266 142.861 95.082 143.136C96.6481 143.338 98.2397 143.118 99.6918 142.499L100.183 135.916Z" fill="#EEEDE4"/>
<path d="M113.234 130.567L108.016 130.178L106.615 148.953L111.833 149.342L113.234 130.567Z" fill="#EEEDE4"/>
<path fill-rule="evenodd" clip-rule="evenodd" d="M121.552 150.067L115.537 130.739L121.243 131.165L124.741 143.317L130.3 131.84L135.727 132.245L126.909 150.467L121.552 150.067Z" fill="#EEEDE4"/>
<path fill-rule="evenodd" clip-rule="evenodd" d="M142.543 136.607L141.946 144.601C141.968 145.259 142.226 145.886 142.673 146.37C143.121 146.853 143.727 147.16 144.382 147.235C144.817 147.254 145.251 147.174 145.65 147.001C146.049 146.827 146.403 146.565 146.685 146.233C147.505 147.185 148.381 148.086 149.309 148.933C148.482 149.804 147.484 150.496 146.377 150.965C145.27 151.434 144.079 151.67 142.876 151.658C142.001 151.631 141.141 151.423 140.351 151.048C139.561 150.672 138.857 150.137 138.284 149.477C137.665 148.761 137.207 147.92 136.942 147.012C136.676 146.104 136.61 145.149 136.746 144.213L138.069 126.483L143.304 126.874L142.864 132.778L147.401 133.116L147.115 136.948L142.543 136.607Z" fill="#EEEDE4"/>
<path d="M135.976 126.327L108.457 124.274L108.171 128.105L135.69 130.158L135.976 126.327Z" fill="#F2DF7F"/>
<path d="M135.378 152.497L93.0026 154.977C91.0427 155.092 89.5475 156.77 89.6629 158.727L90.447 172.009C90.5625 173.966 92.2449 175.458 94.2048 175.344L136.581 172.864C138.54 172.749 140.036 171.07 139.92 169.114L139.136 155.831C139.021 153.875 137.338 152.382 135.378 152.497Z" fill="#E28D4D"/>
<path d="M100.097 172.063L99.9646 169.82L95.5606 170.077L95.4549 168.286L100.125 161.517L101.498 161.437L101.879 167.895L103.206 167.817L103.313 169.624L101.986 169.701L102.118 171.944L100.097 172.063ZM97.475 168.153L100.084 168L99.8834 164.598L97.475 168.153Z" fill="#F2DF7F"/>
<path d="M105.011 169.857L104.381 159.184L106.462 159.062L106.762 164.135L110.956 158.784L113.248 158.65L109.426 163.632L114.136 169.323L111.798 169.459L108.192 165.033L106.904 166.543L107.092 169.735L105.011 169.857ZM114.904 169.278L114.438 161.39L116.459 161.271L116.925 169.159L114.904 169.278ZM114.373 160.291L114.255 158.288L116.276 158.17L116.394 160.172L114.373 160.291ZM122.03 169.012C121.487 169.043 120.978 168.968 120.503 168.784C120.028 168.6 119.614 168.332 119.26 167.98C118.906 167.629 118.619 167.212 118.399 166.732C118.189 166.241 118.066 165.709 118.033 165.137C117.999 164.565 118.053 164.028 118.195 163.526C118.347 163.024 118.568 162.578 118.857 162.188C119.147 161.799 119.502 161.486 119.922 161.25C120.342 161.014 120.808 160.881 121.321 160.851C121.904 160.817 122.435 160.927 122.915 161.18C123.404 161.434 123.792 161.779 124.08 162.215L123.815 157.729L125.837 157.611L126.348 166.282C126.361 166.492 126.405 166.641 126.481 166.727C126.556 166.813 126.68 166.856 126.852 166.856L126.953 168.573C126.605 168.663 126.321 168.715 126.099 168.728C125.737 168.749 125.435 168.676 125.194 168.509C124.951 168.342 124.807 168.114 124.76 167.825L124.685 167.331C124.423 167.849 124.048 168.254 123.561 168.544C123.083 168.824 122.573 168.98 122.03 169.012ZM122.456 167.265C122.648 167.254 122.842 167.212 123.039 167.14C123.236 167.058 123.417 166.952 123.58 166.821C123.744 166.691 123.887 166.542 124.008 166.373C124.139 166.204 124.234 166.023 124.294 165.828L124.183 163.946C124.089 163.73 123.962 163.536 123.8 163.364C123.648 163.182 123.473 163.031 123.274 162.912C123.085 162.782 122.882 162.683 122.666 162.615C122.46 162.546 122.257 162.518 122.056 162.53C121.754 162.547 121.477 162.629 121.223 162.775C120.979 162.92 120.774 163.114 120.606 163.355C120.438 163.586 120.313 163.85 120.229 164.147C120.146 164.444 120.113 164.748 120.132 165.059C120.151 165.391 120.225 165.693 120.352 165.968C120.479 166.242 120.644 166.479 120.848 166.679C121.051 166.879 121.287 167.031 121.556 167.136C121.834 167.241 122.135 167.284 122.456 167.265ZM131.464 168.46C130.801 168.499 130.146 168.431 129.5 168.257C128.854 168.084 128.293 167.814 127.818 167.449L128.497 166.141C129 166.454 129.483 166.687 129.946 166.842C130.419 166.985 130.881 167.044 131.334 167.017C131.736 166.994 132.048 166.9 132.271 166.736C132.493 166.572 132.596 166.349 132.579 166.068C132.563 165.787 132.415 165.589 132.136 165.475C131.856 165.36 131.405 165.235 130.782 165.101C130.261 164.99 129.815 164.88 129.445 164.771C129.076 164.662 128.776 164.533 128.545 164.386C128.314 164.228 128.141 164.047 128.029 163.842C127.915 163.627 127.849 163.369 127.831 163.068C127.808 162.666 127.862 162.301 127.994 161.971C128.136 161.64 128.341 161.356 128.609 161.119C128.877 160.872 129.194 160.677 129.559 160.535C129.934 160.392 130.342 160.308 130.785 160.282C131.378 160.247 131.936 160.3 132.459 160.441C132.992 160.581 133.486 160.829 133.941 161.185L133.198 162.452C132.778 162.174 132.373 161.977 131.983 161.858C131.602 161.74 131.226 161.691 130.854 161.713C130.512 161.733 130.23 161.82 130.007 161.974C129.784 162.128 129.682 162.36 129.7 162.672C129.708 162.812 129.74 162.926 129.796 163.014C129.861 163.1 129.957 163.175 130.082 163.239C130.206 163.302 130.366 163.363 130.561 163.422C130.766 163.47 131.016 163.521 131.312 163.574C131.863 163.683 132.334 163.796 132.724 163.915C133.125 164.032 133.451 164.174 133.703 164.341C133.965 164.507 134.158 164.707 134.283 164.941C134.418 165.165 134.494 165.442 134.514 165.774C134.56 166.546 134.309 167.175 133.763 167.661C133.216 168.136 132.45 168.402 131.464 168.46Z" fill="white"/>
</g>
<path d="M79.0636 24.8593L79.0331 25.2741C78.9156 26.8726 80.1168 28.2636 81.7161 28.3809L121.058 31.2687C122.657 31.3861 124.049 30.1854 124.166 28.5869L124.197 28.1721C124.314 26.5736 123.113 25.1827 121.514 25.0653L82.1718 22.1775C80.5726 22.0601 79.181 23.2608 79.0636 24.8593Z" fill="#A1BFCC"/>
<path d="M51.9663 156.209C64.6494 161.012 77.7002 167.996 80.9182 174.429C84.1361 180.858 72.3386 185.148 60.5459 182.468C48.7532 179.789 39.0993 181.138 38.0299 169.747C36.9605 158.357 44.911 153.539 51.9663 156.214V156.209Z" fill="#FFC98F"/>
<path d="M204.86 297.395C219.285 286.169 240.083 260.766 246.998 239.402C247.429 238.077 247.797 236.819 248.111 235.625C248.319 234.846 248.499 234.091 248.658 233.366C248.276 233.119 247.894 232.872 247.507 232.616C247.1 232.345 246.684 232.065 246.273 231.779C246.142 232.505 245.973 233.284 245.769 234.12C245.445 235.46 245.019 236.95 244.482 238.614C237.485 260.225 216.856 284.684 203.413 295.277L204.86 297.395Z" fill="#F5B673"/>
<path d="M246.258 217.511C242 213.907 234.001 218.231 233.106 218.734L233.023 218.778C233.483 219.504 233.977 220.205 234.499 220.892C234.509 220.877 234.519 220.868 234.528 220.858C236.566 219.755 242.208 217.424 244.613 219.45C245.479 220.186 246.466 222.014 245.755 226.585C245.74 226.677 245.731 226.768 245.716 226.86C245.527 227.987 245.242 229.274 244.831 230.744C244.468 232.045 244.008 233.482 243.432 235.083C236.048 255.576 215.835 278.304 202.489 288.389C201.604 289.062 200.737 289.681 199.92 290.237C196.624 292.467 193.914 293.719 192.167 293.719C189.172 293.719 187.101 292.82 186.007 291.045C184.154 288.046 184.977 282.527 188.258 275.872C187.962 275.591 187.648 275.301 187.319 275.006C187.154 274.856 186.995 274.706 186.82 274.556C186.67 274.425 186.52 274.285 186.361 274.15C186.341 274.135 186.322 274.121 186.298 274.096C186.244 274.198 186.196 274.3 186.143 274.396C182.262 282.116 181.439 288.505 183.839 292.384C184.933 294.16 187.266 296.268 192.167 296.268C194.374 296.268 197.573 294.822 201.347 292.278C214.214 283.61 233.744 262.251 243.137 242.391C244.168 240.22 245.068 238.062 245.837 235.949C246.297 234.667 246.698 233.458 247.042 232.302C249.312 224.718 249.045 219.861 246.268 217.511H246.258Z" fill="#FFB730"/>
<path d="M245.755 226.589C245.527 228.181 245.174 229.753 244.763 231.305C244.361 232.863 243.897 234.406 243.393 235.934C242.368 238.986 241.177 241.985 239.817 244.911C237.112 250.769 233.788 256.331 230.038 261.579C226.244 266.793 222.044 271.726 217.403 276.196L215.661 277.869C215.075 278.421 214.471 278.953 213.87 279.49C212.68 280.573 211.441 281.598 210.203 282.629C209.588 283.146 208.954 283.639 208.31 284.128L206.399 285.598C205.117 286.566 203.796 287.48 202.484 288.404C207.425 284.307 212.124 279.954 216.551 275.364L217.384 274.503L218.192 273.618L219.813 271.862L221.385 270.063C221.913 269.468 222.431 268.863 222.929 268.239C224.995 265.816 226.921 263.272 228.794 260.699C230.676 258.13 232.414 255.455 234.078 252.742C235.753 250.033 237.291 247.243 238.743 244.403C240.18 241.559 241.506 238.652 242.692 235.687C243.901 232.732 244.947 229.704 245.75 226.599L245.755 226.589Z" fill="#FFDD9C"/>
<path d="M51.3663 208.935C40.643 208.751 37.5702 204.326 37.9331 200.253C38.2961 196.18 38.7654 187.847 45.9127 188.746C53.0648 189.646 62.5783 196.48 62.5493 202.691C62.5299 207.01 57.2457 209.037 51.3663 208.935Z" fill="#FFC98F"/>
<path d="M44.5723 60.4745C44.0739 61.5724 43.3771 62.6172 42.9609 63.2847C41.5528 65.5193 39.6752 67.3282 37.4202 68.6777C36.946 68.9631 36.4718 68.3101 36.8395 67.928C38.5768 66.119 40.1349 64.1553 41.3689 61.9642C41.8576 61.0936 42.2302 60.1939 42.5835 59.2798C43.1787 59.6377 43.8416 60.0343 44.5723 60.4793V60.4745Z" fill="#E6A35C"/>
<path d="M51.5163 117.771C50.5775 120.731 48.0757 123.725 45.9465 125.142C45.7433 125.278 45.5062 125.017 45.6223 124.818C46.6675 122.99 47.8628 121.283 48.7483 119.362C49.1306 118.545 49.3968 117.694 49.6968 116.872C50.3017 117.167 50.9114 117.471 51.5163 117.776V117.771Z" fill="#E6A35C"/>
<path d="M84.0878 179.102C83.3716 181.041 81.0876 181.361 79.1568 181.356C75.6098 181.346 72.0676 180.925 68.6126 180.113C67.4802 179.847 66.3528 179.542 65.2446 179.189C63.9526 178.778 62.8299 177.922 62.1573 176.737C62.0654 176.567 61.9928 176.422 61.9638 176.316C61.3008 173.805 60.7346 170.768 63.4832 169.225C64.6494 168.567 66.0576 168.432 67.3593 168.766C68.932 169.167 70.4901 169.622 72.0289 170.139C74.6662 171.01 77.2551 172.04 79.7714 173.225C81.3683 173.97 82.9893 174.821 83.841 176.451C84.2717 177.273 84.4023 178.241 84.0829 179.107L84.0878 179.102Z" fill="#F2786A"/>
<path d="M62.5202 204.863C61.3976 205.356 60.1346 205.356 58.9103 205.351C57.236 205.337 55.3827 205.351 53.6455 205.071C52.7841 204.921 51.9518 204.708 51.1921 204.379C47.858 202.923 47.9306 200.374 48.0709 198.807C48.2064 197.235 49.1258 195.624 50.6308 195.16H51.7921C53.1035 195.15 54.4246 195.382 55.7166 195.798C58.2329 196.592 60.6379 198.052 62.6751 199.6C63.4881 200.224 64.2913 201.003 64.4171 202.019C64.5671 203.228 63.6381 204.369 62.5202 204.863Z" fill="#F2786A"/>
<path d="M226.665 174.928C211.732 163.184 196.624 151.116 182.165 137.771C182.204 137.733 182.499 137.515 182.785 137.104C185.098 133.636 182.184 126.937 178.589 107.232C178.076 104.359 176.91 97.4228 176.605 94.5159C175.923 88.4553 176.184 81.6742 177.863 75.5266C179.557 69.0985 183.123 62.2206 187.904 57.9158C189.38 56.5422 191.054 55.2991 192.884 54.4575C194.408 53.7658 196.411 53.2338 197.824 54.1189C198.134 54.2737 198.589 54.6558 198.797 54.888C202.939 59.1298 202.266 73.6209 204.221 87.6089C206.365 102.613 222.982 147.087 225.663 154.057C226.941 157.302 226.665 168.649 226.665 174.918V174.928Z" fill="#FFC98F"/>
<path d="M195.11 62.8832C194.558 65.1323 194.335 67.483 194.166 69.7998C193.88 73.7515 196.953 77.1566 200.916 77.205C200.941 77.205 200.965 77.205 200.984 77.205C201.497 77.2098 202.044 77.205 202.479 76.9002C203.273 76.3488 203.36 75.1058 203.365 74.0514C203.379 67.425 203.394 60.7985 203.409 54.1721C203.409 52.7743 203.404 51.3184 202.842 50.0754C202.281 48.8323 200.979 47.8988 199.818 48.3583C199.818 48.3583 197.994 51.0717 195.11 62.8784V62.8832Z" fill="#F2786A"/>
<path d="M187.062 101.273C185.16 104.044 182.518 106.245 180.612 109.036C180.162 109.694 179.721 110.376 179.305 111.082C179.073 109.853 178.831 108.572 178.584 107.232C180.675 104.489 183.278 101.718 186.602 100.668C186.927 100.567 187.265 100.973 187.062 101.268V101.273Z" fill="#E6955C"/>
<path d="M189.341 112.896C187.411 116.199 184.464 118.874 182.475 122.192C182.262 122.545 182.054 122.903 181.846 123.256C181.575 122.018 181.28 120.683 180.97 119.237C183.089 116.489 185.703 113.553 188.882 112.296C189.225 112.16 189.506 112.605 189.341 112.891V112.896Z" fill="#E6955C"/>
<path d="M196.411 250.822C191.655 255.886 185.959 260.007 179.63 262.875C177.607 263.789 175.41 264.67 173.14 265.385C172.037 264.834 170.876 264.283 169.651 263.751C169.831 263.707 170.005 263.654 170.184 263.601C173.203 262.725 176.184 261.588 179.005 260.205C184.807 257.376 189.956 253.492 194.311 248.727C195.598 247.32 197.713 249.438 196.406 250.822H196.411Z" fill="#F5BA7B"/>
<path d="M183.99 136.291C183.631 137.031 183.288 137.766 182.959 138.497C182.804 138.816 182.664 139.145 182.518 139.469C181.212 142.429 180.128 145.413 179.465 148.673C178.609 152.852 178.217 157.148 177.936 161.394C177.66 165.578 177.592 169.834 178.25 173.984C178.55 175.876 179 177.752 179.639 179.561C180.365 181.622 181.735 183.407 182.349 185.472C182.756 186.845 181.072 187.59 180.109 186.778C176.973 184.118 175.855 178.236 175.318 174.367C174.699 169.926 174.791 165.433 175.163 160.973C175.792 153.525 176.871 144.814 180.902 138.178C180.984 138.187 181.057 138.192 181.125 138.197C181.391 138.216 181.58 138.187 181.701 138.11C181.865 138.003 182.015 137.892 182.16 137.766C182.16 137.766 182.164 137.765 182.17 137.762C182.291 137.66 182.402 137.554 182.509 137.438C182.606 137.331 182.697 137.22 182.78 137.099C182.799 137.07 182.818 137.041 182.843 137.012C183.118 136.606 183.312 136.136 183.433 135.595C183.448 135.522 183.462 135.45 183.477 135.382C183.486 135.324 183.496 135.266 183.506 135.203C183.898 135.324 184.193 135.841 183.985 136.282L183.99 136.291Z" fill="#E6955C"/>
<path d="M68.6126 180.113C67.4802 179.847 66.3528 179.542 65.2446 179.189C63.9526 178.778 62.8299 177.922 62.1573 176.737C62.0654 176.567 61.9928 176.422 61.9638 176.316C61.3008 173.805 60.7346 170.768 63.4832 169.225C64.6494 168.567 66.0576 168.432 67.3593 168.766C68.932 169.167 70.4901 169.622 72.0289 170.139C72.0289 170.139 62.1863 171.266 68.6077 180.118L68.6126 180.113Z" fill="#F26150"/>
<path d="M53.6455 205.075C52.7841 204.925 51.9518 204.713 51.1921 204.384C47.858 202.928 47.9306 200.379 48.0709 198.812C48.2064 197.24 49.1258 195.629 50.6308 195.165H51.7921C53.1035 195.155 54.4246 195.387 55.7166 195.803C53.7422 196.819 51.1437 199.315 53.6455 205.075Z" fill="#F26150"/>
</g>
<defs>
<clipPath id="clip0_3599_1565">
<rect width="262.12" height="310" fill="white"/>
</clipPath>
<clipPath id="clip1_3599_1565">
<rect x="74.246" y="96.229" width="91.0063" height="90.8313" rx="15" transform="rotate(4.26683 74.246 96.229)" fill="white"/>
</clipPath>
</defs>
</svg>
