<svg width="281" height="231" viewBox="0 0 281 231" fill="none" xmlns="http://www.w3.org/2000/svg">
<path d="M44 135C44 160.461 54.1143 184.879 72.1178 202.882C90.1212 220.886 114.539 231 140 231C165.461 231 189.879 220.886 207.882 202.882C225.886 184.879 236 160.461 236 135C236 109.539 225.886 85.1212 207.882 67.1178C189.879 49.1143 165.461 39 140 39C114.539 39 90.1212 49.1143 72.1178 67.1178C54.1143 85.1212 44 109.539 44 135Z" fill="#E2FFFE"/>
<mask id="mask0_7508_3799" style="mask-type:alpha" maskUnits="userSpaceOnUse" x="44" y="39" width="192" height="192">
<path d="M44 135C44 160.461 54.1143 184.879 72.1178 202.882C90.1212 220.886 114.539 231 140 231C165.461 231 189.879 220.886 207.882 202.882C225.886 184.879 236 160.461 236 135C236 109.539 225.886 85.1212 207.882 67.1178C189.879 49.1143 165.461 39 140 39C114.539 39 90.1212 49.1143 72.1178 67.1178C54.1143 85.1212 44 109.539 44 135Z" fill="#E2FFFE"/>
</mask>
<g mask="url(#mask0_7508_3799)">
<mask id="mask1_7508_3799" style="mask-type:luminance" maskUnits="userSpaceOnUse" x="51" y="60" width="196" height="197">
<path fill-rule="evenodd" clip-rule="evenodd" d="M149.114 257C203.175 257 247 213.004 247 158.731C247 104.46 203.175 60.4636 149.114 60.4636C95.0543 60.4636 51.2297 104.46 51.2297 158.731C51.2297 213.004 95.0543 257 149.114 257Z" fill="white"/>
</mask>
<g mask="url(#mask1_7508_3799)">
<path d="M134.914 182.121C134.914 182.121 109.682 199.273 88.2653 179.852C66.8491 160.431 76.0272 127.554 76.0272 127.554" stroke="#2E2957" stroke-width="8.21132" stroke-linecap="round"/>
<path d="M152.203 182.121C152.203 182.121 177.435 199.273 198.851 179.852C220.268 160.431 211.089 127.554 211.089 127.554" stroke="#2E2957" stroke-width="8.21132" stroke-linecap="round"/>
<path fill-rule="evenodd" clip-rule="evenodd" d="M105.843 62.5964L118.517 64.455C157.164 70.1221 185.809 103.273 185.809 142.333H105.843V62.5964Z" fill="#2E2957"/>
<path d="M181.105 264.285H183.451V261.939V121.24C183.451 100.501 166.549 83.7025 145.826 83.7025C125.102 83.7025 108.201 100.501 108.201 121.24V261.939V264.285H110.547H181.105Z" fill="white" stroke="#2E2957" stroke-width="4.69218"/>
<path fill-rule="evenodd" clip-rule="evenodd" d="M112.899 161.095L148.178 184.222L181.105 169.303V233.797H112.899V161.095Z" fill="#41C98E"/>
<ellipse cx="131.714" cy="127.09" rx="4.70387" ry="4.69041" fill="#2E2957"/>
<ellipse cx="161.113" cy="127.09" rx="4.70387" ry="4.69041" fill="#2E2957"/>
<path d="M110.547 171.649L144.015 193.121C144.782 193.614 145.765 193.617 146.535 193.13L180.517 171.649" stroke="#2E2957" stroke-width="4.69218" stroke-linecap="square"/>
<ellipse cx="121.13" cy="143.506" rx="8.23178" ry="8.20823" fill="#E26952" fill-opacity="0.5"/>
<ellipse cx="171.697" cy="144.679" rx="8.23178" ry="8.20823" fill="#E26952" fill-opacity="0.5"/>
</g>
<path fill-rule="evenodd" clip-rule="evenodd" d="M105.843 62.5964L136.502 67.0922C164.82 71.2447 185.809 95.5358 185.809 124.156C185.809 124.156 170.67 79.5558 147.249 82.9081C142.864 83.5358 133.427 72.1998 130.601 73.2365C120.676 76.877 137.911 74.3225 145.238 82.9081C152.565 91.4938 118.803 74.3225 112.436 74.3225C106.068 74.3225 105.843 142.333 105.843 142.333V62.5964Z" fill="#2E2957"/>
<path d="M140.387 154.003C140.984 154.467 146.212 159.146 148.458 158.395C152.005 157.209 154.608 150.007 155.811 145.195C156.079 144.124 155.428 143.038 154.356 142.77C153.815 142.635 150.04 146.721 146.393 148.819C142.828 150.87 139.384 150.926 139.197 151.439C138.817 152.476 139.546 153.351 140.387 154.003Z" fill="#2E2957"/>
</g>
<path d="M49.0449 149.134C30.2432 151.182 47.4139 156.34 48.4901 165.306" stroke="#E16B55" stroke-width="4.43857" stroke-linecap="round"/>
<path d="M77.2436 97.8567C58.8505 100.364 104.365 106.408 71.0778 108.708" stroke="#EDA52E" stroke-width="4.43857" stroke-linecap="round"/>
<path d="M275.364 127.609C276.186 129.458 277.008 131.308 277.83 133.157" stroke="#F4BF63" stroke-width="4.43857" stroke-linecap="round"/>
<circle cx="267.042" cy="103.752" r="3.88375" fill="#D1333F"/>
<circle cx="223.766" cy="91.5455" r="2.7741" fill="#1CA96C"/>
<path d="M69.9349 216.501C95.8442 216.887 61.2637 211.696 77.0652 203.083" stroke="#1CA96C" stroke-width="4.43857" stroke-linecap="round"/>
<path d="M221.609 19.9471C217.315 21.0431 212.719 21.3104 208.727 23.2349C195.21 29.751 228.348 35.0649 214.891 45.8395" stroke="#2F81C8" stroke-width="4.43857" stroke-linecap="round"/>
<path d="M18.5843 139.815C14.2902 140.911 9.6941 141.178 5.70202 143.103C-7.81507 149.619 25.3234 154.933 11.8657 165.707" stroke="#1CA96C" stroke-width="4.43857" stroke-linecap="round"/>
<path d="M273.802 173.104C269.508 174.2 264.912 174.467 260.92 176.392C247.403 182.908 280.541 188.222 267.083 198.996" stroke="#EDA52E" stroke-width="4.43857" stroke-linecap="round"/>
<path d="M137.861 34.5683C167.534 33.2826 149.234 40.8943 143.739 48.1506C137.819 55.9675 158.176 46.4844 153.088 56.824C152.147 58.7362 150.074 59.838 148.567 61.3449" stroke="#F26448" stroke-width="4.43857" stroke-linecap="round"/>
<path d="M31.2429 128.609C32.065 130.027 32.8872 131.445 33.7093 132.863" stroke="#408CCB" stroke-width="4.43857" stroke-linecap="round"/>
<circle cx="12.9206" cy="80.4622" r="3.88375" fill="#D1333F"/>
<circle cx="134.994" cy="2.7741" r="2.7741" fill="#408CCB"/>
<path d="M232.257 167.747C262.573 176.937 223.707 159.104 245.217 154.173" stroke="#D1333F" stroke-width="5.32628" stroke-linecap="round"/>
<path fill-rule="evenodd" clip-rule="evenodd" d="M45.2935 36.4101H51.5153V46.5101C50.0856 48.1237 48.3094 49.3928 46.3196 50.2224C44.3299 51.0521 42.1782 51.4208 40.0258 51.3009C37.9801 51.2873 35.9588 50.8553 34.0863 50.0314C32.2138 49.2075 30.5297 48.0092 29.1377 46.5101C26.703 43.7157 25.3946 40.1157 25.4668 36.4101C25.4517 34.5168 25.8103 32.6392 26.5221 30.8847C27.2338 29.1302 28.2848 27.5334 29.6147 26.1857C30.9594 24.797 32.5714 23.6952 34.3537 22.9466C36.1359 22.1981 38.0513 21.8184 39.9843 21.8305C44.2362 21.8571 48.3339 23.4268 51.5153 26.2479L47.3674 30.9765C46.5113 29.9212 45.4254 29.0755 44.1925 28.504C42.9596 27.9325 41.6125 27.6503 40.2539 27.6789C38.07 27.721 35.9908 28.6227 34.4676 30.1884C33.6109 30.9837 32.9261 31.9461 32.4552 33.0161C31.9844 34.0861 31.7376 35.2412 31.7301 36.4101C31.7055 37.6032 31.9246 38.7887 32.3739 39.8941C32.8232 40.9996 33.4933 42.0017 34.3432 42.8393C35.8322 44.3288 37.8022 45.2403 39.9013 45.411C41.7701 45.5116 43.6318 45.1106 45.2935 44.2496V36.4101Z" fill="#54A1EE"/>
<path d="M60.2466 28.9232H54.0456V51.2801H60.2466V28.9232Z" fill="#54A1EE"/>
<path fill-rule="evenodd" clip-rule="evenodd" d="M71.7977 51.2801L62.9836 28.9232H69.7653L74.9709 43.0051L80.529 28.9232H86.9789L78.1647 51.2801H71.7977Z" fill="#54A1EE"/>
<path fill-rule="evenodd" clip-rule="evenodd" d="M95.4194 33.486V43.0053C95.5034 43.782 95.8639 44.5026 96.4349 45.0356C97.006 45.5686 97.7497 45.8785 98.5303 45.9088C99.0463 45.8937 99.5519 45.7606 100.008 45.5197C100.465 45.2789 100.86 44.9366 101.164 44.5193C102.217 45.5739 103.332 46.5642 104.503 47.485C103.603 48.5896 102.484 49.4967 101.217 50.1497C99.9506 50.8027 98.5629 51.1876 97.1408 51.2803C96.1043 51.3253 95.0698 51.1551 94.1025 50.7803C93.1352 50.4055 92.256 49.8343 91.5205 49.1027C90.7256 48.3091 90.1105 47.354 89.7169 46.302C89.3233 45.25 89.1604 44.1258 89.2391 43.0053V21.8928H95.4609V28.9234H100.853V33.486H95.4194Z" fill="#54A1EE"/>
<path d="M86.7513 21.8928H54.0456V26.4554H86.7513V21.8928Z" fill="#F2DF7F"/>
<rect x="34.3119" y="60.1758" width="58.7372" height="24.2262" rx="4.21326" transform="rotate(-7.63048 34.3119 60.1758)" fill="#E28D4D"/>
<path d="M48.7225 79.3244L48.3682 76.6799L43.1859 77.3742L42.9029 75.2622L47.826 66.8342L49.4411 66.6178L50.4611 74.2316L52.0229 74.0224L52.3082 76.1521L50.7464 76.3613L51.1007 79.0058L48.7225 79.3244ZM45.2788 74.9259L48.3491 74.5145L47.8118 70.5035L45.2788 74.9259Z" fill="#F2DF7F"/>
<path d="M54.3357 76.2779L52.6499 63.6948L55.0991 63.3666L55.9004 69.3476L60.3856 62.6403L63.0832 62.2789L59.0048 68.5162L65.0731 74.8395L62.3044 75.2104L57.6546 70.305L56.2808 72.1873L56.7849 75.9498L54.3357 76.2779ZM65.9773 74.7183L64.7314 65.4185L67.1096 65.0999L68.3555 74.3997L65.9773 74.7183ZM64.5578 64.1229L64.2416 61.7624L66.6198 61.4438L66.936 63.8043L64.5578 64.1229ZM69.31 69.5385C69.1895 68.6392 69.2584 67.805 69.5167 67.0357C69.7734 66.2546 70.1867 65.609 70.7567 65.0991C71.3268 64.5891 72.0141 64.2802 72.8186 64.1724C73.5049 64.0805 74.1431 64.1696 74.7333 64.4398C75.3338 64.6966 75.8228 65.0647 76.2001 65.5441L75.4916 60.2553L77.8698 59.9367L79.2488 70.2304C79.2821 70.4788 79.3473 70.6508 79.4444 70.7462C79.5415 70.8416 79.6922 70.8876 79.8965 70.8843L80.1557 72.8188C79.7526 72.9571 79.421 73.0437 79.1607 73.0786C78.7347 73.1357 78.3655 73.0767 78.053 72.9018C77.7524 72.7253 77.5613 72.4678 77.4798 72.1295L77.3659 71.5486C77.1004 72.1743 76.6925 72.6806 76.1421 73.0675C75.6036 73.4528 75.0148 73.6882 74.3759 73.7738C73.737 73.8594 73.1288 73.8144 72.5512 73.6389C71.9855 73.4617 71.4722 73.1812 71.0112 72.7973C70.5621 72.4119 70.1863 71.9443 69.8839 71.3947C69.5916 70.8316 69.4003 70.2129 69.31 69.5385ZM76.7708 69.8036L76.4736 67.5851C76.3093 67.2578 76.0787 66.9756 75.782 66.7383C75.4852 66.501 75.1668 66.3269 74.8268 66.2159C74.4851 66.093 74.1545 66.053 73.8351 66.0958C73.4683 66.145 73.1473 66.2662 72.8721 66.4597C72.5969 66.6531 72.3644 66.8951 72.1744 67.1855C71.9963 67.4743 71.8711 67.7982 71.7988 68.1572C71.7382 68.5146 71.7333 68.8826 71.7841 69.2612C71.8348 69.6398 71.9423 69.9928 72.1066 70.32C72.2811 70.6339 72.5033 70.8992 72.7733 71.116C73.0432 71.3327 73.3415 71.4915 73.6681 71.5923C74.0066 71.6915 74.3592 71.7165 74.726 71.6674C74.9508 71.6372 75.1709 71.5716 75.3862 71.4705C75.6117 71.356 75.8163 71.2202 76.0001 71.0631C76.194 70.8926 76.3552 70.7023 76.4837 70.4924C76.6224 70.2691 76.7181 70.0395 76.7708 69.8036ZM85.389 72.2984C84.5962 72.4046 83.8216 72.3759 83.0649 72.2123C82.3083 72.0487 81.6356 71.7474 81.0469 71.3083L81.6919 69.6502C82.3082 70.0253 82.8969 70.2836 83.4579 70.4253C84.0307 70.5653 84.5655 70.6021 85.0625 70.5355C85.5239 70.4737 85.8796 70.3417 86.1295 70.1396C86.3913 69.9359 86.5 69.6684 86.4556 69.3372C86.4255 69.1123 86.3256 68.9511 86.156 68.8534C85.9847 68.7438 85.7448 68.6615 85.4364 68.6065C85.1397 68.5499 84.7764 68.4902 84.3464 68.4273C83.6301 68.2945 83.0269 68.1525 82.5369 68.0013C82.047 67.8502 81.6623 67.6307 81.3828 67.3429C81.1136 67.0418 80.945 66.6368 80.8768 66.128C80.7944 65.5128 80.8776 64.9656 81.1266 64.4866C81.3859 63.9942 81.7769 63.5866 82.2997 63.2636C82.8343 62.939 83.4803 62.726 84.2375 62.6246C84.9001 62.5358 85.5414 62.5583 86.1616 62.692C86.7801 62.8139 87.3628 63.0731 87.9098 63.4695L87.1535 65.1065C86.6311 64.8031 86.1458 64.5971 85.6977 64.4885C85.2479 64.3681 84.8042 64.3372 84.3664 64.3959C84.1179 64.4292 83.8853 64.4904 83.6684 64.5797C83.4633 64.6674 83.2993 64.7918 83.1764 64.9528C83.0637 65.1004 83.0239 65.2984 83.0572 65.5468C83.0873 65.7717 83.1703 65.9412 83.306 66.0555C83.452 66.1564 83.6556 66.2375 83.9168 66.2989C84.1897 66.3587 84.5176 66.4231 84.9002 66.4923C85.6741 66.6054 86.3305 66.7403 86.8694 66.897C87.4202 67.052 87.8479 67.2778 88.1525 67.5742C88.4556 67.8588 88.6452 68.285 88.7213 68.853C88.845 69.7758 88.6044 70.5428 87.9998 71.1537C87.3951 71.7647 86.5248 72.1462 85.389 72.2984Z" fill="white"/>
</svg>
