<svg width="317" height="244" viewBox="0 0 317 244" fill="none" xmlns="http://www.w3.org/2000/svg">
<g clip-path="url(#clip0_3163_929)">
<path d="M0 226.37C0 236.19 34.59 232.57 126.25 232.57C150.11 232.57 185.98 239.57 233 242.64C291.22 246.44 315.92 231.68 316.4 224.43C317.46 208.35 257.62 208.58 165.97 208.58C74.32 208.58 0 216.55 0 226.37Z" fill="#B2E0BA"/>
<path d="M208.45 154.76C208.15 156.02 207.37 157.1 206.3 157.82C203.82 159.48 198.64 163.34 196.73 165.96C194.24 169.37 188.97 172.62 188.97 172.62L186.44 170.71C186.44 170.71 191.17 163.95 196.06 159.15C200.95 154.35 205.64 149.02 207.76 150.81C208.87 151.74 208.79 153.39 208.46 154.76H208.45Z" fill="#F8C3B0"/>
<path d="M188.33 168.23C188.33 168.23 186.8 170.67 185.44 171.15C184.08 171.63 182.45 172.44 181.92 173.06C181.39 173.68 184.36 173.87 186.14 173.43C186.14 173.43 186.95 173.19 187.22 173.45C187.5 173.71 187.24 173.82 187.18 174.47C187.12 175.12 188.9 172.59 189.73 172C190.56 171.41 188.32 168.23 188.32 168.23H188.33Z" fill="#F8C3B0"/>
<path d="M240.22 205.8C240.22 205.8 238.79 206.87 237.81 206.7C236.83 206.53 238.53 215.68 239.13 215.2C239.72 214.72 239.44 211.79 240.88 211.01C240.88 211.01 240.17 210.89 239.9 209.82C239.41 207.89 240.22 205.8 240.22 205.8Z" fill="#220D2C"/>
<path d="M216.51 173.19C217.13 173.25 213.83 190.19 203.93 194.78C194.02 199.37 186.22 198.8 186.22 198.8L186.91 194.5C186.91 194.5 195.38 189.95 199.68 189.83C203.98 189.7 198.09 171.34 216.51 173.18V173.19Z" fill="#F8C3B0"/>
<path d="M204.98 174.93C205.31 174.93 214.13 188.54 214.46 193.89C214.56 195.5 214.56 197.35 214.08 199.44C213.23 203.16 213.9 210.03 213.9 210.03C214.9 210.25 217.81 210.17 217.81 210.17C217.81 210.17 223.05 198.9 221.94 191.77C220.82 184.63 218.26 171.25 214.91 170.8C211.56 170.35 204.98 174.93 204.98 174.93Z" fill="#F8C3B0"/>
<path d="M233.33 124.07C233.33 124.07 223.76 152.24 219.78 152.77C215.79 153.3 213.67 150.38 220.05 140.02C226.43 129.66 229.35 122.75 229.35 122.75L233.34 124.07H233.33Z" fill="#F8C3B0"/>
<path d="M190.59 181.75C190.59 181.75 206.87 164.54 206.87 155.6C206.87 146.66 213.47 141.82 217.79 144.44C224.63 148.59 224.59 184.62 224.59 184.62C224.59 184.62 203.45 192.45 190.59 181.76V181.75Z" fill="#F88A57"/>
<path d="M210.9 146.07C210.9 146.07 210.44 145.17 210.85 144.04C211.26 142.92 210.55 141.45 210.22 139.86L215.83 138.77C215.83 138.77 216.58 141.03 216.33 143.88C216.08 146.73 212.42 147.66 210.89 146.07H210.9Z" fill="#F8C3B0"/>
<path d="M211.73 143.56C214.72 143.79 217.55 142.58 218.12 139.88C218.79 136.71 214.22 126.38 207.76 130.96C199.94 136.5 207.35 143.22 211.73 143.56Z" fill="#F8C3B0"/>
<path d="M213.66 206.7C213.66 206.7 212.95 208.94 213.13 209.56C213.42 210.52 221 213.6 220.89 212.85C220.78 212.09 218.13 210.83 218.21 209.19C218.21 209.19 217.75 209.74 216.68 209.42C214.77 208.85 213.66 206.71 213.66 206.71V206.7Z" fill="#152A3B"/>
<path d="M188.21 193.83C188.21 193.83 186.56 194.51 185.66 194.13C184.76 193.75 184.04 202.66 184.74 202.34C185.44 202.02 185.92 199.24 187.51 198.83C187.51 198.83 186.86 198.56 186.87 197.5C186.89 195.59 188.22 193.83 188.22 193.83H188.21Z" fill="#152A3B"/>
<path d="M196.48 155.65C196.48 155.65 204.5 147.17 211.7 144.98L207.42 158.95C207.42 158.95 201.82 162.68 201.56 162.74C201.3 162.8 196.48 155.64 196.48 155.64V155.65Z" fill="#F88A57"/>
<path d="M216.33 143.88L220.47 139.3L227.52 144.28C227.52 144.28 221.77 149.65 222.31 155.4C222.85 161.15 215.42 147.39 216.33 143.88Z" fill="#F88A57"/>
<path d="M210.92 143.3C210.92 143.3 204.44 143.96 202.45 138.66C200.46 133.36 202.24 128.27 208.63 126.99C210.12 126.69 214.32 126.81 216.02 129.82C216.02 129.82 213.72 131.74 210.84 131.66C210.84 131.66 211.36 136.08 209.29 139.02C209.29 139.02 207.52 137.99 207.16 139.31C206.8 140.63 208.26 141.67 209.88 141.74C209.88 141.74 210.98 142.54 210.91 143.29L210.92 143.3Z" fill="#BF9571"/>
<path d="M205.61 133.26C205.61 133.26 199 127.19 192.52 133.13C186.04 139.07 187.93 143.79 181.32 145.81C181.32 145.81 186.45 150.8 195.22 147.56C203.99 144.32 205.34 135.28 205.34 135.28L205.61 133.26Z" fill="#BF9571"/>
<path d="M229.01 123.35C229.01 123.35 230.96 115.42 231.7 115.42C232.44 115.42 231.55 119.31 231.55 119.31C231.55 119.31 233.99 120.71 234.44 121.75C234.89 122.79 232.84 125.64 232.84 125.64L229 123.34L229.01 123.35Z" fill="#F8C3B0"/>
<path d="M76.53 216.98C76.53 216.98 77.07 217.82 77.07 219.19C77.07 220.56 80.74 220.41 85.8 220.69C88.76 220.85 86.2 220 83.53 218.78C81.71 217.95 80.36 216.35 79.7 214.94L76.53 216.97V216.98Z" fill="#152A3B"/>
<path d="M44.15 215.73C44.15 215.73 43.56 217.86 43.56 219.15C43.56 220.44 50.27 222.02 52.53 220.98C55.1 219.8 48.75 221.81 46.83 215.62L44.15 215.74V215.73Z" fill="#152A3B"/>
<path d="M88.21 70.89C88.21 70.89 93.39 92.68 94.38 94.56C95.37 96.45 101.03 108.47 106.02 122.85L103.9 126.61C103.9 126.61 85.12 105.14 82.99 92.94C80.87 80.73 72.94 69.29 88.21 70.89Z" fill="#F8C3B0"/>
<path d="M57.18 104.59C56.86 109.58 53.56 112.1 53.03 118.08C50.85 142.63 49.97 176.22 46.51 192.88C43.79 205.98 42.76 216 42.96 216.15C45.45 217.98 48.42 217.02 48.42 217.02C48.42 217.02 80.95 127.25 75.13 102.65C72.27 90.59 57.47 100.11 57.18 104.59Z" fill="#8F6F54"/>
<path d="M70.1 104.26C62.06 124.32 67.28 136.06 67.28 136.06C67.28 136.06 69.59 172.13 71.93 191.21C73.56 204.49 75.96 217.13 75.96 217.13L81.46 216.55C81.46 216.55 86.35 149.61 80.65 109.7C78.9 97.43 71.77 100.08 70.1 104.26Z" fill="#8F6F54"/>
<path d="M53.33 117.06C53.33 117.87 78.86 121.12 85.53 115.71C85.53 115.71 84.01 106.6 85.02 95.99C86.7 78.46 86.64 61.29 79.59 60.33C67.7 58.71 57.7 64.65 57.7 64.65L53.33 117.06Z" fill="#B2E0BA"/>
<path d="M64.43 61.84C64.43 61.84 67.93 56.67 67.65 49.1L74.7 48.99C74.7 48.99 76.61 60.5 76.24 60.62C75.87 60.73 64.43 61.85 64.43 61.85V61.84Z" fill="#F8C3B0"/>
<path d="M81.43 50.88C81.38 52.67 80.26 54.26 78.62 54.96C76.78 55.75 74.19 56.56 71.53 56.41C66.53 56.13 62.42 38.27 66.88 34.19C71.13 30.3 81.9 33.33 81.44 50.89L81.43 50.88Z" fill="#F8C3B0"/>
<path d="M56.83 63.53L65.99 58.75C65.99 58.75 72.26 62.43 76.05 58.55L82.93 60.87C82.93 60.87 92.09 69.71 78.54 72.49C65 75.28 56.83 63.53 56.83 63.53Z" fill="#B2E0BA"/>
<path d="M68.49 47.6C68.49 47.6 68.04 44.9 66.69 45.2C65.34 45.5 65.72 47.37 66.32 48.5C66.92 49.62 68.12 50.52 67.74 52.17L67.81 53.07C67.81 53.07 63.84 50.67 62.34 43.92C60.84 37.17 62.86 34.17 64.29 34.17C64.29 34.17 66.31 30.35 72.01 30.57C77.71 30.79 80.78 32.97 82.36 32.67C82.36 32.67 82.21 36.94 79.06 37.92C75.91 38.9 70.74 38.52 70.74 38.52C70.74 38.52 70.59 40.69 69.77 42.19C68.95 43.69 70.07 46.16 68.5 47.59L68.49 47.6Z" fill="#BF9571"/>
<path d="M50.6 88.12C50.6 88.12 51.97 96.95 53.33 117.06C53.59 120.85 66 58.75 66 58.75C56.91 60.35 53.9 62.87 53.9 62.87L50.6 88.12Z" fill="#B2E0BA"/>
<path d="M82.93 60.87C82.93 60.87 87.88 63.45 91.57 82.11L80.09 84.78L82.93 60.87Z" fill="#B2E0BA"/>
<path d="M101.37 121.29C101.37 121.29 99.91 125.12 99.97 126.08C100.03 127.03 101.09 129.13 100.98 129.42C100.87 129.72 99 131.96 99 131.96C99 131.96 99.19 132.79 99.81 132.94C100.43 133.09 104.82 129.78 105.54 127.44C106.26 125.1 104.79 119.21 104.79 119.21L101.38 121.29H101.37Z" fill="#F8C3B0"/>
<path opacity="0.32" d="M68.59 152.38L71.04 131.85C71.04 131.85 70.66 181.76 71.04 185.34C71.42 188.92 68.59 152.38 68.59 152.38Z" fill="#152A3B"/>
<path d="M265.56 137.95C265.56 137.95 267.98 137.57 266.68 133.83C266.68 133.83 262.59 136.63 259.76 138.87C256.93 141.11 256.31 147.35 263.52 149.76C268.57 151.44 269.91 145 269.91 145L265.56 137.95Z" fill="#152A3B"/>
<path d="M273.93 153.34C274.31 153.14 279.75 145.1 280.84 140.99C281.93 136.88 285.64 131.93 285.64 131.93L288.68 132.83C288.68 132.83 286.73 140.9 283.91 147.18C281.1 153.46 278.67 160.16 276.05 159.23C273.43 158.3 273.92 153.34 273.92 153.34H273.93Z" fill="#F8C3B0"/>
<path d="M287.81 135.85C287.81 135.85 288.35 133 289.44 132.06C290.53 131.12 291.75 129.77 292.02 129C292.29 128.23 289.55 127.11 288.47 128.32C288.47 128.32 287.31 130.68 286.96 130.53C286.61 130.38 286.81 130.19 286.62 129.55C286.44 128.91 285.7 131.94 285.14 132.79C284.58 133.64 287.81 135.85 287.81 135.85Z" fill="#F8C3B0"/>
<path d="M262.54 178.8C263.16 178.71 264.31 197.9 255.84 204.79C247.37 211.68 239.5 211.09 239.5 211.09L239.11 206.76C239.11 206.76 246.2 200.26 250.33 199.08C254.47 197.9 244.23 181.55 262.54 178.8Z" fill="#F8C3B0"/>
<path d="M259.43 182.36C259.76 182.36 268.58 195.97 268.91 201.32C269.01 202.93 267.97 205.93 267.49 208.02C266.64 211.74 268.34 217.46 268.34 217.46C269.34 217.68 272.25 217.61 272.25 217.61C272.25 217.61 277.49 206.34 276.38 199.21C275.26 192.07 272.7 178.69 269.35 178.24C266 177.79 259.42 182.37 259.42 182.37L259.43 182.36Z" fill="#F8C3B0"/>
<path d="M260.17 173.01C259.75 172.95 253.21 176.28 251.87 183.86C250.88 189.48 249.63 191.94 249.63 191.94C249.63 191.94 255.96 195.73 261.84 194.98L262.9 191.47L263.73 195.24C263.73 195.24 271.23 196.2 276.05 191.35C276.05 191.35 272.12 184.16 273.93 175.75C275.74 167.34 260.17 173.02 260.17 173.02V173.01Z" fill="#586FCC"/>
<path d="M254.26 176.25C254.26 176.25 257.85 171.77 257.85 162.83C257.85 153.89 271.04 150.06 275.44 151.65C279.84 153.25 274.84 179.48 274.84 179.48C274.84 179.48 263.33 183.59 254.25 176.25H254.26Z" fill="#F8B557"/>
<path d="M267.75 214.8C267.75 214.8 267.93 216.57 267.28 217.33C266.63 218.09 275.35 221.34 275.24 220.58C275.13 219.82 272.48 218.56 272.56 216.92C272.56 216.92 272.1 217.47 271.03 217.15C269.12 216.58 267.75 214.8 267.75 214.8Z" fill="#220D2C"/>
<path d="M262.99 155.13C262.64 154.89 258.15 146.28 257.54 142.07C256.93 137.86 253.81 132.52 253.81 132.52L250.69 133.06C250.69 133.06 251.7 141.3 253.78 147.86C255.85 154.42 257.5 161.36 260.2 160.74C262.9 160.12 262.99 155.13 262.99 155.13Z" fill="#F8C3B0"/>
<path d="M251.21 136.16C251.21 136.16 251 133.27 250.03 132.21C249.06 131.15 248 129.67 247.82 128.88C247.64 128.09 250.49 127.28 251.43 128.61C251.43 128.61 252.31 131.08 252.68 130.98C253.05 130.87 252.87 130.66 253.13 130.05C253.38 129.44 253.77 132.53 254.23 133.44C254.69 134.35 251.23 136.17 251.23 136.17L251.21 136.16Z" fill="#F8C3B0"/>
<path d="M258.81 161.35C258.81 161.35 254.51 153.66 254.61 152.33L260.28 149.35C260.28 149.35 263.97 155.76 264.08 155.92C264.19 156.08 262.13 164.18 259.46 162.95L258.81 161.36V161.35Z" fill="#F8B557"/>
<path d="M274.17 151.7L277.45 147.4L282.76 151.44L277.03 163.82L273.58 151.86" fill="#F8B557"/>
<path d="M260.83 144.58C260.83 144.58 264.67 151.58 270.48 149.02C276.29 146.46 272.58 139.97 269.43 137.54C266.28 135.12 257.59 139.23 260.83 144.58Z" fill="#F8C3B0"/>
<path d="M265.04 147.33C264.96 147.17 263.54 147.36 264.11 148.19C264.67 149.02 258.77 144.41 259.48 141.29C259.48 141.29 261.36 142.32 262.43 144.16C263.5 146 264.7 146.29 265.02 146.6C265.51 147.07 265.04 147.34 265.04 147.34V147.33Z" fill="#152A3B"/>
<path d="M260.47 142.56C260.57 142.55 266.79 139.62 267.03 136C267.03 136 265.37 136.03 264.33 136.66C263.3 137.29 260.35 139.7 259.87 140.64C259.39 141.57 260.47 142.56 260.47 142.56Z" fill="#152A3B"/>
<path d="M260.27 149.34C260.27 149.34 262.79 152.88 267.46 152.11L263.34 158.56L260.27 149.34Z" fill="#F8B557"/>
<path d="M265.63 146.87C265.63 146.87 267.11 151.91 267.11 152.04C267.11 152.17 269.85 154.52 272.67 151.39L271.06 147L265.63 146.87Z" fill="#F8C3B0"/>
<path d="M263.99 133.34C263.99 133.34 266.6 134.74 264.48 137.35L260.61 138.24C260.61 138.24 263.87 135.85 263.79 133.42" fill="#152A3B"/>
<path d="M15.18 112.75C2.35 111.16 3.63 138.65 27.96 133.16C67.77 124.18 48.69 69.91 146.98 74.11C233.5 77.8 205.75 32.23 199.24 51.4C190.64 76.71 210.37 100.02 237.18 92.31C261.76 85.25 275.79 65.01 279.18 35.33" stroke="#152A3B" stroke-miterlimit="10"/>
<path d="M260.04 80.78L260.33 13.42L299.43 0L311.42 34.82L260.04 80.78Z" fill="#F8B557"/>
<path d="M261.85 75.96L296.33 4.73" stroke="white" stroke-miterlimit="10" stroke-linecap="round"/>
<path d="M264.1 15.13L307.77 33.84" stroke="white" stroke-miterlimit="10" stroke-linecap="round"/>
<path d="M54.05 62.82C54.05 62.82 30.38 94.2 40.43 102.7C40.43 102.7 45.06 105.05 69.93 95.46C69.93 95.46 76.83 96.7 78.99 95.53C81.14 94.35 82.63 86.98 82.63 86.98L75.95 87.17C75.95 87.17 74.77 85.73 72.61 86.91C70.45 88.09 67.82 89.5 67.82 89.5C67.82 89.5 51.3 93.74 51.44 90.76C51.59 87.78 54.75 83.44 56.44 80.83C58.13 78.22 59.83 64.67 54.04 62.83L54.05 62.82Z" fill="#F8C3B0"/>
<path d="M63.5 59.51C63.5 59.51 53.67 61.12 50.77 64.18C47.87 67.24 41.26 76.91 42.07 77.07C42.88 77.23 50.77 84.97 55.12 85.93C59.47 86.9 67.53 60.47 63.5 59.51Z" fill="#B2E0BA"/>
<path d="M156.64 81.13C156.64 81.13 161.56 98.45 167.4 104.53C173.24 110.61 178.04 123.24 178.04 123.24C178.04 123.24 178.32 129.5 175.61 125.31C172.9 121.12 164.58 113.68 159.29 106.48C154 99.28 146.8 83.71 146.8 83.71C146.8 83.71 149.98 79.45 156.64 81.14" fill="#F8C3B0"/>
<path d="M142.17 213.8C142.17 213.8 142.27 214.65 142.27 216.03C142.27 217.41 146.38 217.24 151.44 217.51C154.4 217.67 151.84 216.82 149.17 215.6C147.35 214.77 146.86 214.17 146.59 213.27L142.18 213.8H142.17Z" fill="#152A3B"/>
<path d="M111.91 213.35C111.91 213.35 111.51 214.46 111.51 215.74C111.51 217.02 118.72 218.93 120.99 217.89C123.56 216.71 117.67 218.89 115.75 212.7L111.92 213.35H111.91Z" fill="#152A3B"/>
<path d="M141.99 42.81C141.99 42.81 144.04 42 147.58 42.84C151.65 43.81 152.63 50.58 153.44 56.64C154.02 61.02 157 61.84 156.35 66.14C155.94 68.82 154 70.76 149.82 70.7C136.5 70.5 139.98 43.25 141.99 42.81Z" fill="#220D2C"/>
<path d="M122.84 113.8C113.05 130.29 121.49 164.14 121.49 164.14C121.49 164.14 113.18 174.48 113.34 189.92C113.47 202.41 111.74 213.22 111.91 213.36C113.96 215 116.3 214.02 116.3 214.02C116.3 214.02 141.49 134.9 136.39 112.53C133.83 101.31 124.89 110.37 122.85 113.8H122.84Z" fill="#F8C3B0"/>
<path d="M130.38 116.52C124.61 135.46 140.26 165.68 140.26 165.68C140.26 165.68 134.55 178.21 138.13 193.12C141.03 205.18 142.22 213.96 142.22 213.96C142.22 213.96 144.27 214.18 144.94 214.13C146.39 214.02 146.71 213.59 146.71 213.59C146.71 213.59 153.42 159.29 145.59 123.26C143.15 112.01 131.59 112.58 130.39 116.53L130.38 116.52Z" fill="#F8C3B0"/>
<path d="M119.28 152.09C119.28 152.09 116.38 130.55 117.56 121.49C118.74 112.43 125.91 110.32 127.55 100.96C127.55 100.96 136.01 104.7 144.66 102.8C144.66 102.8 143.92 110.1 145.04 118.34C146.1 126.17 146.19 125.38 146.64 129.94C147.99 143.47 119.28 152.08 119.28 152.08V152.09Z" fill="#F8C3B0"/>
<path d="M153.7 85.94C151.89 96.08 144.58 107.1 144.58 107.1L127 106.1C127 106.1 130.28 89.66 125.36 71.1C124.54 67.99 131.92 64.98 136.68 64.98C136.86 64.96 137.04 64.97 137.21 64.98C139.42 65.09 141.71 64.65 144.13 65.49C144.99 66.59 148.63 67.94 149.22 68.16C149.23 68.16 149.24 68.16 149.24 68.16C149.25 68.16 149.26 68.18 149.27 68.2C150.37 68.95 151.53 69.92 152.55 71.09C155.77 74.8 156.12 79.28 159.23 82.55C160.02 83.38 156.14 85.01 153.7 85.93V85.94Z" fill="#586FCC"/>
<path d="M134.63 65.35C134.63 65.35 138.13 61.93 139.12 56.06L144.56 57.09C144.56 57.09 144.21 66.25 143.91 66.27C143.61 66.29 134.63 65.35 134.63 65.35Z" fill="#F8C3B0"/>
<path d="M138.22 59.26C138.22 59.26 142.26 63.98 146.15 63.35C150.03 62.72 151.79 48.44 147.97 45.62C144.15 42.8 135.27 43.83 138.22 59.26Z" fill="#F8C3B0"/>
<path d="M120.48 83.89C120.48 83.89 115.79 101.28 110.03 107.43C104.27 113.58 99.64 126.28 99.64 126.28C99.64 126.28 99.44 132.54 102.1 128.31C104.76 124.08 112.97 116.53 118.17 109.26C123.36 101.99 130.36 86.33 130.36 86.33C130.36 86.33 127.12 82.11 120.49 83.89" fill="#F8C3B0"/>
<path d="M115.96 82.65C115.96 82.65 122.42 76.59 125.6 69.56C125.6 69.56 133.65 78.85 133.93 78.91C134.21 78.98 132.87 86.84 131.08 88.19C129.29 89.54 116.63 85.96 115.96 82.65Z" fill="#586FCC"/>
<path d="M149.31 68.2C149.31 68.2 149.29 68.21 149.28 68.21C141.69 70.99 135.61 68.58 135.58 68.43C135.35 66.92 135.84 65.79 136.68 64.99C138.99 62.79 143.96 63.12 143.93 65.06C143.93 65.2 144 65.35 144.13 65.5C144.99 66.6 148.63 67.95 149.22 68.17C149.23 68.17 149.24 68.17 149.24 68.17C149.28 68.19 149.3 68.19 149.3 68.19L149.31 68.2Z" fill="#F8C3B0"/>
<path d="M146.12 42.7C146.12 42.7 148.36 46.53 143.81 48.9C139.51 51.14 138.78 53.87 139.8 57.46C141.36 62.97 138.27 70.56 130.5 70.38C122.73 70.2 124.09 58.35 127.03 52.83C130.66 46 135.97 40.43 146.12 42.69V42.7Z" fill="#220D2C"/>
<path d="M127.86 99.55C128.38 99.13 125.05 103 117.74 113.97C110.82 124.34 110.44 166.6 101.47 174.9C101.47 174.9 135.52 189.36 158.51 168.74C158.51 168.74 141.82 125.38 146.99 102.09L127.87 99.54L127.86 99.55Z" fill="#586FCC"/>
<path d="M182.19 125.17C182.19 125.17 178.26 123.52 177.57 122.76C176.88 122 175.6 125.31 175.6 125.31C175.6 125.31 178.46 130.42 179.98 131.66C181.5 132.9 183.7 134.21 183.7 134.21C183.7 134.21 184.11 131.52 183.01 129.73C181.91 127.94 181.01 126.28 181.01 126.28C181.01 126.28 182.39 127.11 183.15 127.8C183.91 128.49 184.18 126.9 182.18 125.18L182.19 125.17Z" fill="#F8C3B0"/>
</g>
<defs>
<clipPath id="clip0_3163_929">
<rect width="316.41" height="243.26" fill="white"/>
</clipPath>
</defs>
</svg>
