<svg width="309" height="300" viewBox="0 0 309 300" fill="none" xmlns="http://www.w3.org/2000/svg">
<path d="M271.088 258.009C263.092 266.11 255.936 270.871 250.458 274.466C197.029 309.525 135.955 299.421 117.072 295.967C86.6075 290.394 60.8908 286.463 38.7952 266.845C-11.4121 222.266 -8.96966 129.272 29.3948 71.6669C33.9435 64.8367 72.2493 9.03364 133.457 1.17022C134.954 0.977948 136.071 0.868549 137.049 0.766886C146.518 -0.218804 205.193 -5.41799 253.036 33.9742C259.884 39.6132 270.906 49.784 281.126 65.2964C318.497 122.017 318.615 209.865 271.089 258.009H271.088Z" fill="url(#paint0_linear_3163_1289)"/>
<defs>
<linearGradient id="paint0_linear_3163_1289" x1="334.536" y1="350.55" x2="119.968" y2="122.007" gradientUnits="userSpaceOnUse">
<stop stop-color="#DAE3FE"/>
<stop offset="1" stop-color="#E9EFFD"/>
</linearGradient>
</defs>
</svg>
