<svg width="310" height="261" viewBox="0 0 310 261" fill="none" xmlns="http://www.w3.org/2000/svg">
<g opacity="0.3">
<path d="M65.2753 44.3592C64.7258 44.2851 64.3111 43.8067 64.3277 43.2409C64.3653 42.0044 64.456 40.7501 64.5997 39.5147C64.6694 38.9136 65.2134 38.4826 65.8148 38.5522C65.8226 38.5522 65.8292 38.5544 65.8359 38.5555C66.4263 38.6351 66.8464 39.1733 66.7779 39.7667C66.6419 40.9402 66.5545 42.1314 66.5192 43.3061C66.5015 43.9105 65.9962 44.3868 65.3903 44.368C65.3516 44.368 65.3129 44.3636 65.2753 44.3581V44.3592ZM66.6253 34.9111C66.5833 34.9056 66.5402 34.8968 66.497 34.8857C65.911 34.7343 65.5583 34.1376 65.7087 33.5519C66.0194 32.3486 66.3843 31.1463 66.7934 29.9794C66.9935 29.4081 67.616 29.1086 68.1909 29.3075C68.7626 29.5075 69.0633 30.133 68.8632 30.7043C68.474 31.8137 68.1279 32.9552 67.8327 34.1C67.6923 34.6437 67.1682 34.9863 66.6253 34.9122V34.9111ZM70.023 25.9946C69.9025 25.978 69.782 25.9416 69.667 25.8819C69.1296 25.6045 68.9185 24.9437 69.196 24.4056C69.7654 23.3039 70.3901 22.2121 71.0524 21.1623C71.3752 20.6507 72.053 20.4982 72.5638 20.8198C73.0758 21.1424 73.2295 21.8187 72.9066 22.3303C72.2775 23.3271 71.6848 24.3625 71.1442 25.4101C70.9252 25.8333 70.4697 26.0543 70.023 25.9935V25.9946ZM75.3313 18.0594C75.1312 18.0329 74.9366 17.95 74.7719 17.8096C74.3097 17.4185 74.2522 16.7278 74.6425 16.2659C75.4452 15.3189 76.2977 14.394 77.1767 13.5188C77.6057 13.0923 78.2989 13.0945 78.7268 13.5221C79.1536 13.9509 79.1525 14.6448 78.7235 15.0714C77.8876 15.9024 77.0783 16.7798 76.3165 17.6804C76.0655 17.9765 75.6907 18.1069 75.3313 18.0583V18.0594ZM82.2771 11.5076C81.9963 11.4701 81.7309 11.3242 81.5485 11.08C81.1847 10.596 81.282 9.90976 81.7652 9.5462C82.7548 8.80251 83.7908 8.08977 84.8445 7.43006C85.3575 7.1085 86.0342 7.2621 86.3559 7.77594C86.6777 8.28868 86.5229 8.96496 86.0099 9.28652C85.0092 9.91418 84.0241 10.5905 83.0832 11.2977C82.8432 11.4778 82.5535 11.5452 82.2771 11.5076ZM90.5 6.65433C90.1373 6.60571 89.8067 6.37586 89.6453 6.01673C89.3976 5.46421 89.6442 4.81666 90.1959 4.56803C91.3281 4.06082 92.4957 3.59449 93.6677 3.18453C94.2393 2.98451 94.864 3.28508 95.0642 3.85639C95.2643 4.42658 94.9636 5.05203 94.3919 5.25204C93.2785 5.64212 92.1695 6.08413 91.0937 6.56593C90.9002 6.65322 90.6946 6.67864 90.4989 6.65212L90.5 6.65433ZM130.656 9.45006C130.505 9.43017 130.357 9.37824 130.22 9.29204C129.223 8.66549 128.184 8.0743 127.135 7.53504C126.597 7.25878 126.384 6.59797 126.661 6.05982C126.937 5.52167 127.598 5.3095 128.137 5.58576C129.243 6.15375 130.336 6.77588 131.386 7.43559C131.899 7.75715 132.053 8.43343 131.731 8.94617C131.496 9.32188 131.068 9.50532 130.656 9.44896V9.45006ZM99.5886 3.74478C99.1374 3.684 98.7549 3.34476 98.6609 2.87401C98.5415 2.28061 98.9274 1.70378 99.52 1.58444C100.736 1.34133 101.979 1.14684 103.212 1.00871C103.813 0.944623 104.356 1.37338 104.424 1.97562C104.491 2.57676 104.058 3.11933 103.456 3.18673C102.285 3.31823 101.106 3.50167 99.9501 3.73262C99.8274 3.75693 99.7058 3.76025 99.5875 3.74478H99.5886ZM122.049 5.31613C121.977 5.30619 121.905 5.28961 121.835 5.2653C120.721 4.87744 119.577 4.53377 118.434 4.24094C117.846 4.09065 117.493 3.49394 117.643 2.90827C117.793 2.3226 118.39 1.96567 118.976 2.11817C120.181 2.42647 121.385 2.78782 122.555 3.19558C123.127 3.39448 123.429 4.01883 123.23 4.59013C123.055 5.09071 122.554 5.38465 122.049 5.31613ZM109.1 2.937C108.551 2.86296 108.136 2.38559 108.152 1.82092C108.169 1.21646 108.674 0.740192 109.279 0.756768C110.518 0.792129 111.772 0.880531 113.006 1.02197C113.014 1.02197 113.021 1.02419 113.029 1.02419C113.618 1.10375 114.039 1.64079 113.971 2.2342C113.903 2.83533 113.36 3.2674 112.758 3.19889C111.585 3.06518 110.394 2.9812 109.217 2.94805C109.177 2.94694 109.138 2.94363 109.1 2.9381V2.937Z" fill="#91B3FA"/>
<path d="M136.777 14.1155C136.563 14.0868 136.355 13.9951 136.184 13.8382C135.767 13.4558 135.336 13.0768 134.901 12.7099C134.439 12.3198 134.381 11.6281 134.771 11.1662C135.161 10.7043 135.853 10.6446 136.316 11.0369C136.772 11.4225 137.227 11.8215 137.664 12.2237C138.11 12.6326 138.141 13.3254 137.732 13.7719C137.48 14.047 137.119 14.1641 136.775 14.1177L136.777 14.1155Z" fill="#91B3FA"/>
</g>
<g opacity="0.3">
<path d="M150.633 44.5106C150.109 44.4398 149.699 43.9978 149.685 43.4519C149.672 42.8873 149.645 42.3138 149.608 41.7469C149.568 41.1424 150.026 40.6209 150.629 40.5822C151.236 40.5424 151.755 40.9999 151.795 41.6032C151.834 42.1999 151.861 42.8044 151.876 43.3989C151.89 44.0034 151.411 44.5061 150.806 44.5205C150.747 44.5216 150.688 44.5183 150.632 44.5106H150.633Z" fill="#91B3FA"/>
<path d="M102.273 87.8743C101.773 87.8069 101.273 87.7306 100.772 87.6455C100.175 87.5439 99.7732 86.9781 99.8738 86.3825C99.9756 85.7858 100.544 85.3824 101.138 85.4852C102.294 85.6808 103.456 85.83 104.605 85.9283C105.209 85.9814 105.655 86.5107 105.603 87.1129C105.551 87.7163 105.021 88.1627 104.418 88.1108C103.708 88.05 102.986 87.9704 102.273 87.8743ZM95.1449 86.2897C95.0841 86.2819 95.0233 86.2676 94.9625 86.2488C93.7949 85.883 92.6306 85.4642 91.5017 85.0034C90.9411 84.7747 90.6725 84.1348 90.9013 83.5757C91.1302 83.0154 91.7715 82.7458 92.331 82.9757C93.4035 83.4133 94.5102 83.8111 95.6192 84.1592C96.1964 84.3404 96.5181 84.9548 96.3368 85.5316C96.1743 86.0488 95.6646 86.3604 95.1449 86.2897ZM110.186 88.2025C109.674 88.1329 109.268 87.7085 109.24 87.1737C109.209 86.5692 109.673 86.0543 110.278 86.0233C111.435 85.9637 112.604 85.8543 113.755 85.6963C114.356 85.6145 114.909 86.0333 114.991 86.6333C115.072 87.2334 114.653 87.7859 114.053 87.8676C112.841 88.0334 111.609 88.1494 110.391 88.2124C110.321 88.2157 110.253 88.2124 110.186 88.2036V88.2025ZM86.5395 82.5093C86.4013 82.4906 86.2653 82.4453 86.137 82.3712C85.08 81.759 84.0363 81.0938 83.0345 80.3954C82.5381 80.0484 82.4176 79.3666 82.7636 78.8705C83.1108 78.3743 83.793 78.2528 84.2895 78.5997C85.2403 79.2628 86.231 79.8948 87.2349 80.4761C87.759 80.7789 87.9371 81.4496 87.6341 81.9734C87.4052 82.369 86.9652 82.5679 86.5384 82.5105L86.5395 82.5093ZM119.454 86.6831C119.034 86.6267 118.667 86.3272 118.545 85.893C118.382 85.3106 118.722 84.705 119.305 84.5415C120.419 84.2288 121.536 83.8641 122.624 83.4586C123.191 83.2464 123.823 83.5337 124.035 84.1017C124.246 84.6686 123.959 85.2996 123.391 85.5106C122.246 85.9383 121.069 86.3228 119.896 86.651C119.748 86.693 119.598 86.7018 119.454 86.682V86.6831ZM128.165 83.1679C127.828 83.1226 127.519 82.9226 127.345 82.6022C127.058 82.0695 127.258 81.4054 127.791 81.1181C128.814 80.5678 129.824 79.9678 130.796 79.3357C131.302 79.0053 131.981 79.1478 132.313 79.6561C132.644 80.1634 132.5 80.8418 131.992 81.1722C130.97 81.8375 129.906 82.4685 128.83 83.0475C128.619 83.1613 128.386 83.1989 128.165 83.169V83.1679ZM135.901 77.8384C135.645 77.8041 135.401 77.6792 135.22 77.4693C134.824 77.0118 134.874 76.3201 135.331 75.9244C136.21 75.1642 137.066 74.3597 137.877 73.531C138.3 73.0989 138.993 73.09 139.427 73.5133C139.859 73.9365 139.868 74.6294 139.445 75.0625C138.592 75.9344 137.691 76.782 136.767 77.5809C136.519 77.7953 136.203 77.8781 135.902 77.8384H135.901ZM142.289 70.9496C142.113 70.9253 141.939 70.8579 141.785 70.7441C141.299 70.3838 141.196 69.6987 141.556 69.2125C142.247 68.2798 142.906 67.3063 143.515 66.3206C143.832 65.8057 144.509 65.6454 145.023 65.9626C145.538 66.2797 145.698 66.9549 145.381 67.4698C144.741 68.5086 144.046 69.5329 143.319 70.5153C143.072 70.8479 142.673 71.0015 142.289 70.9496ZM147.011 62.8243C146.911 62.811 146.812 62.7834 146.715 62.7403C146.161 62.4961 145.911 61.8496 146.154 61.296C146.62 60.2363 147.048 59.1423 147.425 58.045C147.622 57.4726 148.247 57.1687 148.817 57.3643C149.39 57.561 149.695 58.1842 149.498 58.7567C149.101 59.9125 148.651 61.064 148.159 62.1789C147.958 62.6364 147.482 62.8873 147.01 62.8243H147.011ZM149.829 53.8669C149.807 53.8636 149.785 53.8603 149.762 53.8558C149.168 53.7387 148.782 53.1619 148.899 52.5685C149.065 51.7309 149.207 50.8778 149.321 50.0335C149.362 49.7274 149.401 49.4224 149.435 49.1174C149.504 48.5163 150.047 48.0842 150.648 48.1517C151.259 48.2091 151.682 48.7616 151.615 49.3628C151.578 49.6843 151.538 50.0048 151.495 50.3264C151.375 51.2148 151.225 52.1121 151.051 52.9939C150.938 53.5652 150.4 53.9442 149.83 53.8669H149.829Z" fill="#91B3FA"/>
<path d="M78.9601 76.9112C78.7445 76.8825 78.5345 76.7886 78.3631 76.6295C77.9274 76.2261 77.4929 75.8062 77.0694 75.3819C76.6427 74.9531 76.6449 74.2592 77.0739 73.8326C77.5029 73.4061 78.1972 73.4072 78.624 73.837C79.0254 74.2404 79.4389 74.6393 79.8524 75.0227C80.2969 75.4338 80.3234 76.1267 79.9121 76.5709C79.66 76.8427 79.3018 76.9588 78.9601 76.9124V76.9112Z" fill="#91B3FA"/>
</g>
<path d="M82.1301 64.5172C82.244 64.7028 82.464 64.7968 82.6774 64.7492L88.7652 63.4022C90.8129 65.4708 93.2067 67.2289 95.8846 68.5727L96.4861 74.7719C96.5071 74.9896 96.6641 75.1697 96.8764 75.2205L104.149 76.9643C104.362 77.0151 104.584 76.9256 104.701 76.7422L108.05 71.49C111.047 71.5054 113.978 71.0247 116.742 70.1087L121.556 74.0691C121.725 74.2083 121.963 74.2249 122.15 74.11L128.526 70.2026C128.713 70.0888 128.806 69.8689 128.758 69.6556L127.41 63.5713C129.48 61.5248 131.239 59.1324 132.584 56.456L138.787 55.8548C139.005 55.8338 139.185 55.6769 139.236 55.4648L140.98 48.1958C141.031 47.9837 140.942 47.7616 140.757 47.6444L135.502 44.2973C135.517 41.3027 135.036 38.3732 134.12 35.6106L138.082 30.7993C138.222 30.6302 138.238 30.3927 138.123 30.2059L134.214 23.8332C134.1 23.6464 133.88 23.5536 133.666 23.6011L127.579 24.9493C125.531 22.8806 123.137 21.1225 120.459 19.7788L119.858 13.5796C119.837 13.3619 119.68 13.1818 119.467 13.1309L112.194 11.3872C111.982 11.3364 111.76 11.4259 111.643 11.6104L108.294 16.8626C105.297 16.8472 102.366 17.3278 99.6019 18.2439L94.7878 14.2835C94.6186 14.1442 94.3809 14.1277 94.194 14.2426L87.8176 18.15C87.6308 18.2638 87.5379 18.4837 87.5855 18.697L88.9333 24.7813C86.8635 26.8278 85.1043 29.2202 83.7598 31.8966L77.5571 32.4977C77.3392 32.5187 77.159 32.6757 77.1082 32.8878L75.3634 40.1567C75.3125 40.3689 75.4021 40.591 75.5856 40.7081L80.8409 44.0553C80.8254 47.0499 81.3064 49.9783 82.223 52.742L78.2603 57.5533C78.1209 57.7223 78.1044 57.9599 78.2194 58.1467L82.129 64.5194L82.1301 64.5172Z" fill="#91B3FA"/>
<path d="M107.16 51.6215C103.528 51.1308 100.7 48.0345 100.656 44.2652C100.607 40.1225 103.938 36.7112 108.085 36.6626C110.092 36.6383 111.99 37.3975 113.426 38.7998C114.863 40.202 115.667 42.0795 115.692 44.0862C115.74 48.229 112.409 51.6402 108.264 51.6889C107.89 51.6933 107.522 51.6701 107.161 51.6215H107.16ZM108.958 38.4671C108.677 38.4296 108.393 38.4119 108.104 38.4152C104.927 38.4528 102.372 41.0684 102.409 44.2443C102.447 47.4212 105.063 49.975 108.242 49.9363C111.419 49.8987 113.974 47.2831 113.937 44.1072C113.918 42.5679 113.302 41.1292 112.2 40.054C111.304 39.1799 110.175 38.6318 108.957 38.4671H108.958Z" fill="#BDD0FB"/>
<path d="M105.857 62.3966C105.233 62.3127 104.609 62.1966 103.989 62.0474C103.793 62.001 103.599 61.9502 103.405 61.8972C102.45 61.6353 101.517 61.2982 100.621 60.8905C100.609 60.8849 100.597 60.8794 100.585 60.8739C100.551 60.8584 100.515 60.8419 100.481 60.8253C100.413 60.7943 100.347 60.7623 100.28 60.7302C100.104 60.6463 100.01 60.4606 100.034 60.2772C100.04 60.233 100.053 60.1877 100.074 60.1457C100.179 59.928 100.441 59.8363 100.659 59.9401C101.782 60.4794 102.971 60.9004 104.193 61.1932C110.26 62.6486 116.362 60.7579 120.549 56.7168C122.878 54.4691 124.614 51.5563 125.424 48.1837C125.565 47.5925 125.677 46.998 125.758 46.4035C126.298 42.4022 125.453 38.3699 123.313 34.8802C120.854 30.8722 116.982 28.061 112.408 26.9648C102.961 24.7017 93.4411 30.5374 91.1767 39.9744C91.0374 40.5568 90.9279 41.1435 90.8483 41.7325C90.5033 44.2851 90.7211 46.8853 91.4951 49.344C91.515 49.4081 91.5194 49.4722 91.5117 49.534C91.4896 49.6965 91.3757 49.8412 91.2087 49.8932C90.9776 49.965 90.7311 49.8379 90.6592 49.6059C89.8465 47.0234 89.6177 44.294 89.9803 41.6143C90.0633 40.9955 90.1794 40.3799 90.3253 39.77C92.7025 29.8622 102.704 23.737 112.613 26.1129C117.415 27.2643 121.481 30.2147 124.061 34.4227C126.308 38.0859 127.196 42.3182 126.628 46.5195C126.544 47.1439 126.426 47.7671 126.278 48.3881C125.126 53.1873 122.174 57.2505 117.965 59.8307C114.299 62.0773 110.063 62.9635 105.858 62.3955L105.857 62.3966Z" fill="#BDD0FB"/>
<g opacity="0.3">
<path d="M24.3335 67.9583C24.0427 67.9185 23.8017 67.6942 23.7553 67.3892C23.669 66.8212 23.5983 66.2433 23.5463 65.6708C23.512 65.2984 23.7862 64.9703 24.1588 64.9349C24.5314 64.8995 24.8609 65.1747 24.8952 65.5471C24.945 66.093 25.0124 66.6433 25.0942 67.1858C25.1506 67.5549 24.8963 67.8997 24.527 67.9572C24.4618 67.9671 24.3965 67.9671 24.3335 67.9583Z" fill="#91B3FA"/>
<path d="M24.025 62.7624C23.6845 62.716 23.428 62.4198 23.4401 62.0695C23.4722 61.0805 23.5562 60.0827 23.6889 59.1036C23.7166 58.897 23.7475 58.6904 23.7796 58.4837C23.8382 58.1146 24.2019 57.8782 24.5536 57.919C24.9228 57.9765 25.1749 58.3235 25.1174 58.6926C25.0865 58.8904 25.0577 59.0882 25.0301 59.2849C24.904 60.2197 24.8233 61.1712 24.7924 62.1137C24.7802 62.4872 24.4673 62.7801 24.0936 62.7679C24.0704 62.7668 24.0472 62.7646 24.0239 62.7624H24.025ZM25.1141 55.8217C25.0821 55.8173 25.05 55.8106 25.019 55.8018C24.6597 55.699 24.4507 55.3244 24.5536 54.9653C24.8819 53.8116 25.2844 52.669 25.751 51.5684C25.8969 51.2236 26.2961 51.0645 26.6388 51.2093C26.9838 51.3551 27.1441 51.7519 26.9982 52.0955C26.5537 53.1453 26.1689 54.236 25.856 55.3355C25.7632 55.6626 25.4436 55.8648 25.1152 55.8206L25.1141 55.8217ZM27.8551 49.3517C27.7699 49.3407 27.6859 49.3119 27.6063 49.2666C27.2823 49.0799 27.1729 48.6655 27.3597 48.3417C27.9601 47.3063 28.6324 46.2963 29.3566 45.3415C29.5832 45.0432 30.0067 44.9857 30.3052 45.2112C30.6027 45.4366 30.6613 45.8609 30.4357 46.1593C29.7447 47.0698 29.1034 48.0323 28.5317 49.0202C28.3902 49.2644 28.1182 49.3871 27.8551 49.3517ZM32.1042 43.7536C31.9648 43.7348 31.8311 43.6729 31.7227 43.568C31.4551 43.3072 31.4496 42.8784 31.7105 42.611C32.5486 41.7524 33.4464 40.938 34.3807 40.191C34.6726 39.9578 35.0994 40.0064 35.3327 40.2971C35.566 40.5888 35.5196 41.0142 35.2266 41.2485C34.3354 41.9601 33.4785 42.737 32.6802 43.5558C32.5243 43.716 32.3098 43.7812 32.1042 43.7536ZM37.5916 39.3622C37.3981 39.3357 37.2168 39.2263 37.1051 39.0462C36.9094 38.7279 37.0078 38.3113 37.3262 38.1157C38.3468 37.487 39.4159 36.9157 40.5028 36.4173C40.8433 36.2604 41.2447 36.4107 41.4006 36.7499C41.5565 37.0903 41.4072 37.4914 41.0678 37.6472C40.0296 38.1235 39.0102 38.6683 38.0372 39.2683C37.899 39.3534 37.7408 39.3832 37.5916 39.3622ZM43.979 36.435C43.728 36.4007 43.5058 36.2261 43.424 35.9687C43.3112 35.6128 43.5091 35.2327 43.8651 35.1189C45.0073 34.7575 46.1837 34.4636 47.3602 34.2459C47.7294 34.1796 48.081 34.4216 48.1485 34.7885C48.217 35.1554 47.9738 35.509 47.6056 35.5764C46.4834 35.783 45.3633 36.0637 44.2742 36.4085C44.1758 36.4394 44.0752 36.4471 43.979 36.4339V36.435ZM50.8861 35.1587C50.5721 35.1167 50.3211 34.8559 50.3012 34.5277C50.2791 34.1542 50.5644 33.8348 50.937 33.8127C52.13 33.742 53.3418 33.7464 54.5415 33.8238C54.9152 33.8547 55.1982 34.1708 55.1728 34.5432C55.1485 34.9156 54.8267 35.1984 54.453 35.1752C53.3086 35.1001 52.1532 35.0968 51.0155 35.1642C50.9713 35.1664 50.927 35.1642 50.8839 35.1587H50.8861ZM61.3148 36.4814C61.2761 36.4759 61.2374 36.467 61.1987 36.4549C60.2589 36.1543 59.2859 35.899 58.3063 35.6968C58.1581 35.6659 58.0122 35.636 57.8662 35.6095C57.4991 35.5399 57.257 35.1863 57.3266 34.8194C57.3952 34.4514 57.7534 34.1995 58.1172 34.2791C58.2731 34.3089 58.4279 34.3387 58.5827 34.3719C59.6054 34.5829 60.6259 34.8504 61.6111 35.1664C61.9671 35.2802 62.1628 35.6615 62.0489 36.0173C61.9472 36.3344 61.6332 36.5245 61.3148 36.4814Z" fill="#91B3FA"/>
</g>
<g opacity="0.3">
<path d="M49.1458 92.006C48.7798 91.9563 48.52 91.6215 48.5653 91.2535C48.6107 90.8833 48.9479 90.6181 49.3194 90.6634C50.4372 90.7993 51.5717 90.8689 52.6939 90.8689C53.0654 90.8722 53.3717 91.1717 53.3706 91.5463C53.3706 91.9198 53.0665 92.2226 52.6928 92.2226C51.5164 92.2226 50.3267 92.1497 49.1558 92.006C49.1525 92.006 49.1491 92.006 49.1469 92.0049L49.1458 92.006ZM45.7393 91.3806C45.7149 91.3772 45.6917 91.3728 45.6674 91.3673C44.523 91.0855 43.3842 90.7319 42.2818 90.3153C41.9324 90.1827 41.7555 89.7926 41.8882 89.4434C42.0198 89.0931 42.4123 88.9185 42.7606 89.0489C43.8121 89.4468 44.899 89.7838 45.9914 90.0534C46.354 90.1429 46.5762 90.5087 46.4867 90.8722C46.4027 91.2115 46.0776 91.427 45.7393 91.3817V91.3806ZM56.0596 92.0071C55.7621 91.9673 55.5167 91.7309 55.4791 91.4192C55.4338 91.0491 55.6969 90.7109 56.0684 90.6656C57.1862 90.5275 58.3052 90.3208 59.3931 90.049C59.7569 89.9606 60.1229 90.1794 60.2136 90.5429C60.3042 90.9054 60.0831 91.2723 59.7204 91.3629C58.5794 91.6469 57.4063 91.8635 56.2343 92.0082C56.1745 92.0159 56.1171 92.0148 56.0607 92.0082L56.0596 92.0071ZM39.2711 88.9318C39.1948 88.9219 39.1185 88.8975 39.0467 88.86C38.0029 88.3119 36.9824 87.6931 36.0138 87.0212C35.7064 86.8079 35.6301 86.3869 35.8435 86.0797C36.0569 85.7736 36.4782 85.6974 36.7856 85.9095C37.7088 86.5494 38.6818 87.1394 39.6769 87.6632C40.0075 87.8378 40.1346 88.2467 39.961 88.5771C39.825 88.8357 39.5453 88.9694 39.2711 88.9329V88.9318ZM62.7665 90.3385C62.5288 90.3065 62.3154 90.1484 62.2248 89.9098C62.091 89.5606 62.2657 89.1694 62.6151 89.0357C63.6643 88.6346 64.7004 88.1649 65.6932 87.6389C66.0238 87.4632 66.434 87.5903 66.6087 87.9207C66.7834 88.2511 66.6574 88.6611 66.3268 88.8357C65.2852 89.386 64.1995 89.8788 63.0993 90.2998C62.9899 90.3418 62.876 90.3529 62.7676 90.3385H62.7665ZM68.8776 87.1096C68.6962 87.0853 68.5249 86.9869 68.4121 86.8256C68.1987 86.5184 68.275 86.0974 68.5812 85.8841C69.5067 85.2421 70.4001 84.5371 71.2382 83.7923C71.5179 83.5437 71.9458 83.5691 72.1946 83.8475C72.4433 84.1271 72.419 84.5537 72.1393 84.8023C71.2603 85.5847 70.3238 86.3228 69.3552 86.9958C69.2104 87.0963 69.0401 87.1328 68.8787 87.1107L68.8776 87.1096ZM74.0399 82.5105C73.9117 82.4928 73.7878 82.4397 73.6839 82.348C73.4031 82.1016 73.3754 81.6739 73.6231 81.3933C74.3672 80.549 75.066 79.6517 75.6995 78.7257C75.9107 78.4185 76.332 78.339 76.6404 78.55C76.9489 78.7611 77.0285 79.1821 76.8174 79.4904C76.1529 80.4606 75.4198 81.4032 74.6403 82.2883C74.4844 82.4652 74.2577 82.5403 74.041 82.5116L74.0399 82.5105Z" fill="#91B3FA"/>
<path d="M33.5636 84.9714C33.4343 84.9537 33.3082 84.8984 33.2043 84.8056C32.772 84.4199 32.3496 84.0188 31.9483 83.6155C31.6851 83.3503 31.6862 82.9215 31.9505 82.6585C32.2158 82.3966 32.6437 82.3966 32.908 82.6618C33.2905 83.0475 33.6941 83.4287 34.1065 83.7978C34.3851 84.0464 34.4095 84.4752 34.1596 84.7537C34.0037 84.9272 33.7781 85.0023 33.5636 84.9736V84.9714Z" fill="#91B3FA"/>
</g>
<path d="M35.2929 76.3842C35.3692 76.509 35.5162 76.5709 35.6589 76.54L39.7333 75.6383C41.1043 77.0229 42.7053 78.1986 44.4965 79.0981L44.8989 83.2464C44.9133 83.3923 45.0183 83.5127 45.1599 83.547L50.027 84.7139C50.1697 84.7482 50.3178 84.6885 50.3963 84.5647L52.6375 81.0507C54.6432 81.0618 56.6035 80.7391 58.4533 80.1269L61.6752 82.7779C61.788 82.8707 61.9472 82.8817 62.0722 82.8055L66.3389 80.191C66.4639 80.1147 66.5258 79.9678 66.4948 79.8252L65.5926 75.7543C66.978 74.384 68.1544 72.7839 69.0545 70.9927L73.2051 70.5905C73.3511 70.5761 73.4716 70.4711 73.5059 70.3297L74.6735 65.4653C74.7077 65.3228 74.648 65.1747 74.5242 65.0962L71.0082 62.8563C71.0192 60.8518 70.6964 58.8926 70.0838 57.0439L72.7363 53.8238C72.8292 53.7111 72.8403 53.5519 72.764 53.4271L70.148 49.1628C70.0717 49.0379 69.9246 48.976 69.782 49.0069L65.7076 49.9087C64.3377 48.524 62.7356 47.3483 60.9444 46.4488L60.5419 42.3005C60.5275 42.1546 60.4225 42.0342 60.281 41.9999L55.4138 40.833C55.2712 40.7988 55.123 40.8584 55.0445 40.9822L52.8034 44.4962C50.7977 44.4851 48.8373 44.8078 46.9875 45.42L43.7656 42.7701C43.6528 42.6773 43.4936 42.6663 43.3687 42.7425L39.1019 45.357C38.977 45.4333 38.9151 45.5802 38.946 45.7228L39.8482 49.7937C38.4628 51.164 37.2864 52.7641 36.3864 54.5553L32.2357 54.9575C32.0898 54.9719 31.9693 55.0769 31.9361 55.2183L30.7685 60.0827C30.7342 60.2252 30.7939 60.3733 30.9178 60.4518L34.4338 62.6917C34.4227 64.6962 34.7456 66.6554 35.3581 68.5042L32.7067 71.7242C32.6139 71.8369 32.6028 71.9961 32.6791 72.1209L35.2951 76.3853L35.2929 76.3842Z" fill="#91B3FA"/>
<path d="M52.0228 67.8444C50.9403 67.6986 49.9375 67.2113 49.1414 66.4344C48.1629 65.4797 47.6145 64.2001 47.599 62.8331C47.5647 60.012 49.8346 57.6892 52.6585 57.6549C55.4857 57.6262 57.8065 59.8904 57.8408 62.7127C57.8574 64.0796 57.3399 65.3714 56.3846 66.3493C55.4293 67.3273 54.149 67.8754 52.7812 67.8909C52.5258 67.8942 52.2726 67.8776 52.0239 67.8444H52.0228ZM53.2268 59.0418C53.0466 59.0174 52.862 59.0053 52.6751 59.0075C50.5976 59.0329 48.9291 60.7413 48.9534 62.8177C48.9656 63.8232 49.3681 64.7636 50.0878 65.4664C50.8076 66.1692 51.7585 66.5482 52.7647 66.5383C53.7708 66.5261 54.7128 66.1239 55.4149 65.4045C56.1182 64.6852 56.4985 63.7348 56.4863 62.7293C56.4642 60.8408 55.0468 59.2893 53.2268 59.0429V59.0418Z" fill="#BDD0FB"/>
<path d="M51.1062 75.3432C50.6816 75.2857 50.257 75.2062 49.8313 75.1045C48.9866 74.9023 48.1629 74.6139 47.379 74.247L47.2739 74.1962C47.003 74.0658 46.8582 73.7796 46.8958 73.4967C46.9046 73.4282 46.9256 73.3597 46.9566 73.2934C47.118 72.9563 47.5227 72.816 47.8599 72.9762C48.5886 73.3265 49.3581 73.5984 50.1476 73.7873C50.1907 73.7984 50.2349 73.8072 50.278 73.8171C52.1499 74.247 54.0572 74.194 55.8594 73.6912C56.8379 73.4182 57.7844 73.0116 58.6778 72.4756C58.6855 72.4712 58.6922 72.4668 58.6999 72.4624C58.722 72.4491 58.7441 72.4359 58.7662 72.4215C61.3623 70.8302 63.1834 68.3251 63.8932 65.3659C63.985 64.9824 64.0568 64.599 64.1088 64.2133C64.4593 61.6231 63.912 59.0119 62.5266 56.7532C60.9344 54.1586 58.4279 52.3397 55.4669 51.6303C52.5082 50.922 49.4455 51.406 46.8493 52.9961C44.2532 54.5874 42.4322 57.0925 41.7224 60.0518C41.6317 60.4286 41.5609 60.8076 41.509 61.1888C41.2856 62.842 41.426 64.5249 41.928 66.1162C41.959 66.2145 41.9667 66.314 41.9535 66.4101C41.9192 66.6621 41.7445 66.8842 41.4858 66.9648C41.1286 67.0765 40.7494 66.8798 40.6366 66.5217C40.076 64.7404 39.9179 62.8574 40.1678 61.0087C40.2253 60.5822 40.3049 60.1567 40.4055 59.7357C41.2005 56.4239 43.2371 53.6216 46.1417 51.8414C49.0463 50.0622 52.4683 49.5164 55.782 50.3131C59.0946 51.1065 61.8997 53.142 63.6809 56.046C65.2311 58.5732 65.8436 61.4938 65.4522 64.3923C65.3936 64.8222 65.314 65.2531 65.2112 65.6808C63.6721 72.0911 57.5102 76.2073 51.1095 75.3421L51.1062 75.3432Z" fill="#BDD0FB"/>
<path d="M16.1792 242.125C16.1792 244.876 18.4348 247.128 21.1901 247.128H292.172C294.928 247.128 297.182 244.876 297.182 242.125L299.437 86.4886C299.437 83.737 296.193 78.3644 290.248 78.7677L25.4149 71.9187C21.9563 71.8292 18.6128 73.1597 16.1649 75.5985C13.7158 78.0384 12.3757 81.3734 12.4575 84.8266L16.1792 242.124V242.125Z" fill="url(#paint0_linear_3239_616)"/>
<path d="M21.126 237.325C21.126 239.93 23.2599 242.063 25.8671 242.063H285.637C288.244 242.063 290.378 239.93 290.378 237.325L292.505 96.0361C292.254 87.5339 284.797 84.4774 280.276 84.6586L26.4575 77.8527C24.0284 77.7875 21.6788 78.7235 19.9584 80.4385C18.238 82.1535 17.2915 84.5017 17.3523 86.9295L21.1271 237.325H21.126Z" fill="#91B3FA"/>
<path d="M287.57 170.203H287.56C287.176 170.197 286.87 169.882 286.875 169.498L287.043 158.039C287.049 157.659 287.358 157.355 287.738 157.355H287.748C288.131 157.361 288.438 157.676 288.432 158.06L288.264 169.519C288.258 169.899 287.949 170.203 287.57 170.203Z" fill="url(#paint1_linear_3239_616)"/>
<path d="M287.983 142.124H287.973C287.59 142.118 287.283 141.802 287.289 141.419L287.933 97.5334C287.921 94.9266 287.13 92.8458 285.581 91.3618C282.688 88.5926 278.095 88.734 277.902 88.7428L196.776 86.5681C196.392 86.5582 196.089 86.2388 196.1 85.8554C196.11 85.4719 196.405 85.146 196.813 85.1802L277.891 87.3549C278.395 87.3251 283.284 87.2411 286.541 90.3584C288.374 92.1121 289.309 94.5299 289.323 97.54L288.679 141.439C288.673 141.819 288.364 142.123 287.984 142.123L287.983 142.124Z" fill="url(#paint2_linear_3239_616)"/>
<path d="M0.624725 260.048L308.427 260.048C308.772 260.048 309.052 259.769 309.052 259.424V246.998C309.052 246.653 308.772 246.374 308.427 246.374L0.624725 246.374C0.279694 246.374 3.05176e-05 246.653 3.05176e-05 246.998V259.424C3.05176e-05 259.769 0.279694 260.048 0.624725 260.048Z" fill="url(#paint3_linear_3239_616)"/>
<path opacity="0.44" d="M273.874 135.268H33.1557C29.3422 135.268 26.2508 132.298 26.2508 128.632V96.6295C26.2508 92.9265 29.4041 89.9407 33.2574 89.9949L273.974 93.4094C277.748 93.4624 280.778 96.4173 280.778 100.044V128.632C280.778 132.297 277.686 135.268 273.873 135.268H273.874Z" fill="white"/>
<path opacity="0.44" d="M278.926 142.124H30.7464C29.7236 142.124 28.8944 142.952 28.8944 143.975V200.758C28.8944 201.78 29.7236 202.609 30.7464 202.609H278.926C279.948 202.609 280.778 201.78 280.778 200.758V143.975C280.778 142.952 279.948 142.124 278.926 142.124Z" fill="white"/>
<path opacity="0.44" d="M279.853 210.155H29.8187C29.3083 210.155 28.8944 210.569 28.8944 211.079V235.222C28.8944 235.732 29.3083 236.145 29.8187 236.145H279.853C280.364 236.145 280.778 235.732 280.778 235.222V211.079C280.778 210.569 280.364 210.155 279.853 210.155Z" fill="white"/>
<path d="M243.355 98.255C242.978 92.4348 239.461 87.2787 234.189 84.7758L165.889 52.3563C161.515 50.2799 156.439 50.2799 152.065 52.3563L83.7643 84.7758C78.4925 87.2787 74.9753 92.4348 74.5983 98.255C68.1921 197.228 131.688 233.29 152.504 242.4C156.632 244.207 161.321 244.207 165.45 242.4C186.265 233.29 249.761 197.228 243.355 98.255Z" fill="url(#paint4_linear_3239_616)"/>
<path opacity="0.67" d="M138.317 66.682C137.704 66.682 137.116 66.3372 136.836 65.7471C136.448 64.9305 136.796 63.9547 137.612 63.5669L153.751 55.9068C154.569 55.5189 155.545 55.867 155.932 56.6825C156.32 57.4991 155.972 58.4749 155.156 58.8627L139.018 66.5228C138.791 66.63 138.552 66.6808 138.317 66.6808V66.682Z" fill="white"/>
<path opacity="0.67" d="M79.8203 120.103C78.9413 120.103 78.2149 119.405 78.1851 118.521C77.9683 112.063 78.0822 105.329 78.5234 98.508C78.8076 94.1221 81.4612 90.2203 85.4504 88.3262L131.398 66.5162C132.215 66.1283 133.191 66.4764 133.579 67.2919C133.967 68.1085 133.619 69.0843 132.803 69.4722L86.8557 91.2822C83.939 92.6668 81.9985 95.5156 81.7906 98.7191C81.3561 105.434 81.2433 112.059 81.4578 118.411C81.4877 119.314 80.7801 120.071 79.8767 120.101C79.8579 120.101 79.8391 120.101 79.8203 120.101V120.103Z" fill="white"/>
<path d="M226.839 102.118C226.764 100.643 225.885 99.3257 224.549 98.6915L160.7 68.3848C159.61 67.8677 158.345 67.8677 157.255 68.3848L93.4057 98.6915C92.07 99.3257 91.191 100.643 91.1158 102.118C89.2274 139.038 97.7598 169.843 116.495 193.719C130.778 211.922 147.487 221.677 157.279 226.228C158.358 226.729 159.599 226.729 160.678 226.228C170.468 221.677 187.177 211.922 201.461 193.719C220.196 169.843 228.729 139.037 226.841 102.118H226.839Z" fill="url(#paint5_linear_3239_616)"/>
<path d="M140.098 141.784H133.735V116.439C133.735 106.485 141.192 98.0726 151.078 96.8715L164.09 95.2913C169.69 94.6106 175.325 96.3654 179.547 100.104C183.77 103.842 186.192 109.22 186.192 114.859V136.985H179.829V114.859C179.829 111.04 178.188 107.397 175.328 104.864C172.468 102.331 168.651 101.144 164.857 101.604L151.846 103.185C145.149 103.998 140.098 109.696 140.098 116.439V141.784Z" fill="url(#paint6_linear_3239_616)"/>
<path d="M131.853 136.095L187.635 133.006C189.901 132.881 191.807 134.682 191.807 136.951V181.117C191.807 183.298 190.037 185.067 187.854 185.067H133.412C131.279 185.067 129.531 183.376 129.462 181.245L128.121 140.168C128.052 138.022 129.709 136.213 131.853 136.095Z" fill="url(#paint7_linear_3239_616)"/>
<path d="M169.057 172.415L165.68 162.714C165.274 161.548 165.55 160.243 166.418 159.364C168.149 157.612 169.179 155.169 169.058 152.486C168.842 147.754 164.974 143.916 160.238 143.735C154.996 143.534 150.684 147.721 150.684 152.914C150.684 155.795 152.012 158.367 154.089 160.05C155.166 160.923 155.609 162.358 155.154 163.667L152.11 172.415C151.369 174.542 152.95 176.764 155.204 176.764H165.964C168.217 176.764 169.798 174.543 169.058 172.415H169.057Z" fill="url(#paint8_linear_3239_616)"/>
<defs>
<linearGradient id="paint0_linear_3239_616" x1="156.689" y1="76.9123" x2="152.872" y2="253.356" gradientUnits="userSpaceOnUse">
<stop stop-color="#09005D"/>
<stop offset="1" stop-color="#1A0F91"/>
</linearGradient>
<linearGradient id="paint1_linear_3239_616" x1="286.875" y1="163.779" x2="288.432" y2="163.779" gradientUnits="userSpaceOnUse">
<stop stop-color="#DAE3FE"/>
<stop offset="1" stop-color="#E9EFFD"/>
</linearGradient>
<linearGradient id="paint2_linear_3239_616" x1="196.099" y1="113.651" x2="289.322" y2="113.651" gradientUnits="userSpaceOnUse">
<stop stop-color="#DAE3FE"/>
<stop offset="1" stop-color="#E9EFFD"/>
</linearGradient>
<linearGradient id="paint3_linear_3239_616" x1="158.227" y1="237.862" x2="181.301" y2="142.048" gradientUnits="userSpaceOnUse">
<stop stop-color="#09005D"/>
<stop offset="1" stop-color="#1A0F91"/>
</linearGradient>
<linearGradient id="paint4_linear_3239_616" x1="229.186" y1="-34.3689" x2="172.45" y2="92.5253" gradientUnits="userSpaceOnUse">
<stop stop-color="#FF928E"/>
<stop offset="1" stop-color="#FE7062"/>
</linearGradient>
<linearGradient id="paint5_linear_3239_616" x1="129.193" y1="49.1561" x2="188.89" y2="195.769" gradientUnits="userSpaceOnUse">
<stop stop-color="#4F52FF"/>
<stop offset="1" stop-color="#4042E2"/>
</linearGradient>
<linearGradient id="paint6_linear_3239_616" x1="211.996" y1="-87.0161" x2="199.206" y2="-34.7148" gradientUnits="userSpaceOnUse">
<stop stop-color="#FF928E"/>
<stop offset="1" stop-color="#FE7062"/>
</linearGradient>
<linearGradient id="paint7_linear_3239_616" x1="220.094" y1="-85.0358" x2="207.304" y2="-32.7345" gradientUnits="userSpaceOnUse">
<stop stop-color="#FF928E"/>
<stop offset="1" stop-color="#FE7062"/>
</linearGradient>
<linearGradient id="paint8_linear_3239_616" x1="159.816" y1="163.103" x2="194.296" y2="65.7258" gradientUnits="userSpaceOnUse">
<stop stop-color="#E1473D"/>
<stop offset="1" stop-color="#E9605A"/>
</linearGradient>
</defs>
</svg>
