<svg width="140" height="140" viewBox="0 0 140 140" fill="none" xmlns="http://www.w3.org/2000/svg">
<path d="M14 70C14 84.8521 19.9 99.0959 30.402 109.598C40.9041 120.1 55.1479 126 70 126C84.8521 126 99.0959 120.1 109.598 109.598C120.1 99.0959 126 84.8521 126 70C126 55.1479 120.1 40.9041 109.598 30.402C99.0959 19.9 84.8521 14 70 14C55.1479 14 40.9041 19.9 30.402 30.402C19.9 40.9041 14 55.1479 14 70Z" fill="#E9FFED"/>
<path d="M70.875 17.75C67.2406 22.6337 63.7452 27.6631 59.8819 32.3681C56.7983 36.1235 53.3403 39.6868 49.1597 42.2292C45.5562 44.4206 40.478 46.4401 36.3333 44.4583C32.533 42.6412 31.9416 38.3737 34.5902 35.3194C37.5248 31.9355 42.7531 31.3229 46.9166 32.0486C51.7526 32.8916 56.2721 34.8316 58.9722 39.1389C61.4187 43.0417 61.8518 47.9966 62.1111 52.4792C62.2902 55.5762 62.0106 58.659 62.1527 61.75C62.1641 61.9981 62.1295 63.8681 62.375 63.5" stroke="#4CDADB" stroke-width="2" stroke-linecap="round" stroke-dasharray="4 4"/>
<path d="M111.047 44.5789L30.0314 59.9192C27.2209 60.4514 25.3721 63.1513 25.9019 65.9497L37.0758 124.961C37.6056 127.759 40.3136 129.596 43.1241 129.064L124.14 113.724C126.95 113.191 128.799 110.492 128.269 107.693L117.095 48.6822C116.565 45.8838 113.857 44.0467 111.047 44.5789Z" fill="#662A00"/>
<path d="M109.399 50.1392L120.573 109.15C121.103 111.948 119.254 114.648 116.443 115.18L35.4272 130.521C32.6167 131.053 29.9092 129.216 29.3793 126.417L18.2056 67.4068C17.7995 65.2618 18.7906 63.175 20.5411 62.0768C21.0741 61.7425 21.6778 61.5002 22.3345 61.3759L103.35 46.0355C103.749 45.9599 104.146 45.932 104.535 45.9487C104.865 45.9623 105.189 46.0069 105.504 46.0806C106.946 46.4195 108.192 47.3674 108.891 48.6875C109.127 49.1317 109.3 49.6187 109.399 50.1387L109.399 50.1392Z" fill="#843B00"/>
<path d="M119.655 67.9275L88.8845 73.754C87.1849 74.0758 86.0669 75.7085 86.3873 77.4007L89.1874 92.1885C89.5078 93.8807 91.1453 94.9916 92.8449 94.6698L123.616 88.8433C125.315 88.5215 126.433 86.8888 126.113 85.1966L123.313 70.4088C122.992 68.7166 121.355 67.6057 119.655 67.9275Z" fill="#662A00"/>
<path d="M104.098 86.3021C106.096 83.3856 105.343 79.4126 102.418 77.4281C99.4931 75.4436 95.5028 76.1992 93.5056 79.1157C91.5085 82.0322 92.2608 86.0052 95.1859 87.9897C98.1111 89.9741 102.101 89.2186 104.098 86.3021Z" fill="#CCCCCC"/>
<path d="M70.3041 6.11745C69.4949 7.51894 70.3564 9.53116 72.2282 10.6119C72.8632 10.9785 73.5328 11.1908 74.1722 11.2566C74.4838 12.1521 75.205 13.0211 76.2282 13.6119C78.1001 14.6926 80.2734 14.4325 81.0826 13.031C81.8917 11.6295 81.0302 9.61733 79.1584 8.53662C78.5234 8.17003 77.8538 7.95771 77.2144 7.89189C76.9029 6.9964 76.1816 6.12735 75.1584 5.53662C73.2866 4.45592 71.1132 4.71596 70.3041 6.11745Z" fill="#DCC74D"/>
<ellipse cx="76" cy="9.58013" rx="2.5" ry="5" transform="rotate(30 76 9.58013)" fill="#4E2600"/>
</svg>
