<svg width="100" height="100" viewBox="0 0 100 100" fill="none" xmlns="http://www.w3.org/2000/svg">
<path d="M79.3193 31.8419L21.4511 42.7993C19.4436 43.1794 18.123 45.1079 18.5015 47.1068L26.4828 89.2575C26.8613 91.2563 28.7955 92.5685 30.803 92.1884L88.6712 81.231C90.6788 80.8509 91.9994 78.9224 91.6209 76.9235L83.6396 34.7728C83.2611 32.774 81.3268 31.4617 79.3193 31.8419Z" fill="#662A00"/>
<circle cx="10.9435" cy="10.9435" r="10.9435" transform="matrix(0.866026 0.5 -0.500001 0.866025 60.5074 13.235)" fill="#FFE500"/>
<circle cx="10.9435" cy="10.9435" r="9.94354" transform="matrix(0.866026 0.5 -0.500001 0.866025 60.5074 13.235)" stroke="black" stroke-opacity="0.1" stroke-width="2"/>
<path fill-rule="evenodd" clip-rule="evenodd" d="M66.8133 29.6408L69.1959 31.0164L66.9629 34.8841C66.0586 35.1859 65.0978 35.2792 64.1525 35.157C63.2071 35.0348 62.3016 34.7003 61.5038 34.1785C60.7234 33.721 60.0449 33.1087 59.51 32.3792C58.9751 31.6497 58.5951 30.8184 58.3935 29.9366C58.079 28.3282 58.3739 26.6603 59.2208 25.2573C59.6336 24.5289 60.1861 23.8891 60.8465 23.3746C61.507 22.8601 62.2625 22.481 63.0697 22.2589C63.8917 22.0245 64.7527 21.9589 65.6007 22.0663C66.4486 22.1737 67.2661 22.4518 68.0036 22.8838C69.626 23.834 70.8481 25.3411 71.4427 27.1248L68.8089 28.0185C68.7143 27.4251 68.4855 26.8612 68.1397 26.3698C67.7939 25.8783 67.3404 25.4724 66.8138 25.183C65.9682 24.7163 64.9726 24.6019 64.0432 24.8647C63.5393 24.9799 63.0642 25.197 62.6474 25.5026C62.2305 25.8083 61.8806 26.196 61.6193 26.642C61.3461 27.0935 61.1679 27.5959 61.0955 28.1185C61.0232 28.6412 61.0582 29.1731 61.1985 29.6818C61.4394 30.5814 61.9923 31.366 62.7584 31.8954C63.4518 32.3472 64.2534 32.6052 65.0801 32.6429L66.8133 29.6408Z" fill="#A89414"/>
<ellipse cx="10.9435" cy="10.9435" rx="10.9435" ry="10.9435" transform="matrix(0.707107 -0.707106 0.707108 0.707106 40.4419 40.0844)" fill="#FFE500"/>
<path d="M62.9496 33.0532C66.8327 36.9364 66.8328 43.2323 62.9496 47.1155C59.0664 50.9987 52.7705 50.9987 48.8873 47.1155C45.0041 43.2323 45.0041 36.9364 48.8873 33.0532C52.7705 29.17 59.0664 29.17 62.9496 33.0532Z" stroke="black" stroke-opacity="0.1" stroke-width="2"/>
<path fill-rule="evenodd" clip-rule="evenodd" d="M57.9208 38.2396L59.8662 36.2942L63.0241 39.4522C63.0816 40.4037 62.9231 41.3559 62.5603 42.2375C62.1976 43.119 61.6401 43.9071 60.9296 44.5426C60.2858 45.178 59.5187 45.6749 58.6756 46.0028C57.8325 46.3306 56.9313 46.4825 56.0273 46.4491C54.3923 46.3366 52.8576 45.6201 51.7215 44.4388C51.1248 43.8516 50.6498 43.1524 50.3238 42.3812C49.9978 41.6101 49.8271 40.7822 49.8215 39.945C49.8078 39.0904 49.9673 38.2418 50.2905 37.4505C50.6137 36.6592 51.0939 35.9416 51.7021 35.341C53.0398 34.0198 54.8119 33.2294 56.6887 33.1168L56.8703 35.8922C56.2726 35.8299 55.6687 35.905 55.1045 36.1118C54.5403 36.3186 54.0308 36.6516 53.615 37.0853C52.9453 37.7813 52.5772 38.7134 52.5904 39.6792C52.5713 40.1957 52.658 40.7108 52.8454 41.1925C53.0327 41.6743 53.3167 42.1126 53.6799 42.4805C54.0452 42.8612 54.4844 43.1634 54.9705 43.3685C55.4566 43.5737 55.9795 43.6775 56.5071 43.6737C57.4384 43.6738 58.3394 43.3428 59.0491 42.7399C59.6649 42.187 60.1216 41.4795 60.372 40.6908L57.9208 38.2396Z" fill="#A89414"/>
<ellipse cx="10.9435" cy="10.9435" rx="10.9435" ry="10.9435" transform="matrix(0.866026 0.5 -0.500001 0.866025 38.0295 19.1849)" fill="#FFE500"/>
<path d="M50.6465 39.1058C47.9007 43.8618 41.8193 45.4913 37.0634 42.7454C32.3075 39.9996 30.678 33.9182 33.4238 29.1623C36.1696 24.4064 42.251 22.7769 47.0069 25.5227C51.7629 28.2686 53.3924 34.3499 50.6465 39.1058Z" stroke="black" stroke-opacity="0.1" stroke-width="2"/>
<path fill-rule="evenodd" clip-rule="evenodd" d="M44.3354 35.5906L46.718 36.9662L44.485 40.834C43.5807 41.1358 42.6199 41.229 41.6746 41.1068C40.7292 40.9846 39.8237 40.6501 39.0259 40.1283C38.2455 39.6708 37.567 39.0585 37.0321 38.329C36.4972 37.5995 36.1172 36.7683 35.9156 35.8864C35.6011 34.278 35.896 32.6102 36.7429 31.2071C37.1557 30.4787 37.7082 29.839 38.3686 29.3245C39.0291 28.81 39.7846 28.4308 40.5918 28.2088C41.4138 27.9743 42.2748 27.9088 43.1227 28.0161C43.9707 28.1235 44.7882 28.4016 45.5257 28.8336C47.1481 29.7839 48.3702 31.291 48.9648 33.0747L46.331 33.9684C46.2364 33.375 46.0075 32.811 45.6618 32.3196C45.316 31.8282 44.8625 31.4222 44.3359 31.1328C43.4903 30.6661 42.4947 30.5517 41.5653 30.8145C41.0614 30.9297 40.5863 31.1468 40.1695 31.4524C39.7526 31.7581 39.4027 32.1459 39.1414 32.5919C38.8682 33.0433 38.69 33.5457 38.6176 34.0684C38.5453 34.591 38.5803 35.123 38.7206 35.6316C38.9615 36.5312 39.5144 37.3158 40.2805 37.8453C40.9739 38.297 41.7755 38.555 42.6022 38.5927L44.3354 35.5906Z" fill="#A89414"/>
<ellipse cx="10.9435" cy="10.9435" rx="10.9435" ry="10.9435" transform="matrix(0.866026 0.5 -0.5 0.866025 22.1621 28.4409)" fill="#FFE500"/>
<path d="M34.7791 48.3618C32.0333 53.1177 25.9519 54.7472 21.196 52.0014C16.44 49.2556 14.8105 43.1742 17.5564 38.4183C20.3022 33.6624 26.3836 32.0329 31.1395 34.7787C35.8954 37.5245 37.5249 43.6059 34.7791 48.3618Z" stroke="black" stroke-opacity="0.1" stroke-width="2"/>
<path fill-rule="evenodd" clip-rule="evenodd" d="M28.4683 44.8465L30.8509 46.2221L28.6179 50.0898C27.7137 50.3916 26.7529 50.4849 25.8075 50.3627C24.8621 50.2405 23.9566 49.906 23.1588 49.3842C22.3785 48.9267 21.6999 48.3144 21.165 47.5849C20.6301 46.8554 20.2502 46.0241 20.0485 45.1423C19.734 43.5339 20.0289 41.866 20.8758 40.463C21.2886 39.7346 21.8411 39.0948 22.5016 38.5803C23.162 38.0658 23.9175 37.6867 24.7248 37.4646C25.5467 37.2301 26.4077 37.1646 27.2557 37.272C28.1037 37.3794 28.9211 37.6575 29.6587 38.0895C31.2811 39.0397 32.5032 40.5468 33.0977 42.3305L30.4639 43.2242C30.3694 42.6308 30.1405 42.0669 29.7947 41.5755C29.449 41.084 28.9955 40.6781 28.4689 40.3887C27.6232 39.922 26.6277 39.8076 25.6982 40.0704C25.1943 40.1855 24.7193 40.4026 24.3024 40.7083C23.8855 41.014 23.5357 41.4017 23.2743 41.8477C23.0011 42.2991 22.8229 42.8016 22.7506 43.3242C22.6782 43.8469 22.7133 44.3788 22.8535 44.8875C23.0944 45.787 23.6473 46.5717 24.4134 47.1011C25.1068 47.5528 25.9084 47.8109 26.7351 47.8486L28.4683 44.8465Z" fill="#A89414"/>
<ellipse cx="72.2496" cy="17.2266" rx="10.9435" ry="10.9435" transform="matrix(0.965926 -0.258819 0.25882 0.965926 -1.99676 19.2865)" fill="#FFE500"/>
<path d="M81.8543 14.6531C83.2757 19.9576 80.1277 25.41 74.8232 26.8314C69.5186 28.2527 64.0662 25.1048 62.6449 19.8002C61.2235 14.4957 64.3715 9.04328 69.676 7.62194C74.9806 6.20059 80.433 9.34854 81.8543 14.6531Z" stroke="black" stroke-opacity="0.1" stroke-width="2"/>
<path fill-rule="evenodd" clip-rule="evenodd" d="M74.9061 16.6303L77.5636 15.9183L78.7195 20.2322C78.2935 21.0849 77.6801 21.8303 76.9252 22.4124C76.1703 22.9944 75.2934 23.3982 74.3604 23.5933C73.4851 23.8216 72.5723 23.8684 71.6782 23.7308C70.7842 23.5932 69.9277 23.2741 69.1616 22.7932C67.8019 21.8783 66.831 20.4904 66.4378 18.8994C66.2146 18.0925 66.1529 17.2494 66.2561 16.4186C66.3593 15.5878 66.6255 14.7855 67.0393 14.0577C67.4547 13.3106 68.0171 12.6555 68.6927 12.1318C69.3682 11.6081 70.1429 11.2268 70.9699 11.0107C72.789 10.5354 74.7188 10.737 76.4005 11.5778L75.1701 14.0721C74.6836 13.7194 74.123 13.4825 73.531 13.3795C72.9391 13.2765 72.3314 13.3101 71.7544 13.4778C70.8264 13.7457 70.0415 14.3688 69.5701 15.2119C69.2952 15.6496 69.1129 16.139 69.0342 16.6499C68.9556 17.1608 68.9824 17.6824 69.1129 18.1826C69.239 18.695 69.4682 19.1763 69.7866 19.597C70.1051 20.0177 70.506 20.3691 70.9648 20.6295C71.7713 21.0953 72.717 21.2592 73.6331 21.0919C74.4429 20.9209 75.1921 20.5366 75.8033 19.9787L74.9061 16.6303Z" fill="#A89414"/>
<path d="M78.1422 35.8138L86.1234 77.9642C86.5019 79.963 85.1813 81.8915 83.1738 82.2717L25.3052 93.2291C23.2977 93.6093 21.3638 92.2969 20.9853 90.2981L13.0041 48.1478C12.714 46.6156 13.4219 45.1251 14.6723 44.3407C15.053 44.1019 15.4842 43.9288 15.9533 43.84L73.8215 32.8826C74.1067 32.8286 74.3898 32.8086 74.6678 32.8206C74.9036 32.8303 75.1351 32.8622 75.3601 32.9148C76.39 33.1569 77.2799 33.834 77.7796 34.7769C77.9479 35.0942 78.0718 35.442 78.1421 35.8135L78.1422 35.8138Z" fill="#843B00"/>
<path d="M85.4683 48.5195L63.4891 52.6813C62.2751 52.9112 61.4766 54.0774 61.7054 55.2861L63.7055 65.8488C63.9344 67.0575 65.104 67.8511 66.318 67.6212L88.2972 63.4594C89.5112 63.2295 90.3098 62.0633 90.0809 60.8546L88.0808 50.2919C87.8519 49.0832 86.6823 48.2897 85.4683 48.5195Z" fill="#662A00"/>
<path d="M74.3562 61.6446C75.7827 59.5614 75.2453 56.7235 73.156 55.306C71.0666 53.8886 68.2164 54.4282 66.7899 56.5115C65.3633 58.5947 65.9007 61.4325 67.9901 62.85C70.0794 64.2675 72.9296 63.7278 74.3562 61.6446Z" fill="#CCCCCC"/>
</svg>
