<svg width="153" height="350" viewBox="0 0 153 350" fill="none" xmlns="http://www.w3.org/2000/svg">
<g clip-path="url(#clip0_446_5989)">
<path d="M72.3288 47.967C72.3288 47.967 76.263 46.3772 80.3383 48.0217C81.8765 49.5239 82.4954 52.605 82.4954 52.605C82.4954 52.605 79.2453 50.2969 76.6104 50.2969C73.9756 50.2969 70.5662 52.605 70.5662 52.605L72.3288 47.967Z" fill="#EF2E78"/>
<g style="mix-blend-mode:multiply" opacity="0.1">
<path d="M72.3288 47.967C72.3288 47.967 76.263 46.3772 80.3383 48.0217C81.8765 49.5239 82.4954 52.605 82.4954 52.605C82.4954 52.605 79.2453 50.2969 76.6104 50.2969C73.9756 50.2969 70.5662 52.605 70.5662 52.605L72.3288 47.967Z" fill="#181A19"/>
</g>
<g style="mix-blend-mode:multiply" opacity="0.2">
<path d="M82.4954 52.6014C82.4954 52.6014 79.2453 50.2934 76.6104 50.2934C73.9756 50.2934 70.5662 52.6014 70.5662 52.6014L71.1018 51.194C72.2347 50.5267 74.5474 49.3198 76.4512 49.3198C78.7929 49.3198 81.6232 51.1429 82.2203 51.5477C82.4085 52.1712 82.4954 52.6014 82.4954 52.6014Z" fill="#181A19"/>
</g>
<g style="mix-blend-mode:soft-light" opacity="0.8">
<path d="M82.4954 52.6013C82.4954 52.6013 82.4339 52.5576 82.3181 52.481C82.0358 51.4783 81.4096 49.6661 80.3383 48.6197C76.263 46.9716 72.3288 48.565 72.3288 48.565L70.8666 52.4081C70.6747 52.5284 70.5662 52.6013 70.5662 52.6013L72.3288 47.967C72.3288 47.967 76.263 46.3772 80.3383 48.0217C81.8765 49.5239 82.4954 52.6013 82.4954 52.6013Z" fill="white"/>
</g>
<path d="M110.006 50.5703L106.531 49.0935C103.98 48.0106 101.432 44.8858 100.871 42.1548L100.107 38.432C99.546 35.6974 97.606 35.1905 95.7927 37.3017L93.3244 40.1749C91.5111 42.2861 87.776 43.7628 85.0217 43.4528L81.2721 43.0335C78.5178 42.7273 77.4392 44.43 78.8725 46.8183L80.8233 50.0707C82.2565 52.459 82.4954 56.4954 81.3517 59.0368L79.799 62.5007C78.6589 65.0421 79.9329 66.6063 82.6293 65.9719L86.3029 65.1077C88.9993 64.4733 92.8828 65.4906 94.9313 67.372L97.7182 69.9316C99.7667 71.8094 101.634 71.0729 101.87 68.2909L102.188 64.5061C102.423 61.724 104.584 58.3185 106.991 56.9402L110.266 55.0587C112.673 53.6768 112.554 51.6605 110.002 50.5739L110.006 50.5703ZM103.954 53.9503L101.967 55.0916C100.509 55.9302 99.1985 57.9939 99.0574 59.6785L98.8655 61.972C98.7244 63.6565 97.5915 64.105 96.3501 62.9637L94.6599 61.4141C93.4185 60.2765 91.0659 59.6566 89.43 60.0431L87.2041 60.5682C85.5682 60.9547 84.7973 60.0067 85.4886 58.4643L86.4296 56.3677C87.1209 54.8254 86.9761 52.3824 86.1075 50.9349L84.924 48.9623C84.0553 47.5147 84.7104 46.4829 86.3789 46.6688L88.6518 46.9204C90.3203 47.1064 92.586 46.213 93.6827 44.9332L95.1775 43.1903C96.2741 41.9105 97.4504 42.2204 97.7906 43.8758L98.2539 46.1292C98.5941 47.7845 100.136 49.6769 101.685 50.3369L103.791 51.2302C105.337 51.8865 105.409 53.1117 103.951 53.9466L103.954 53.9503Z" fill="#EF2E78"/>
<g style="mix-blend-mode:multiply" opacity="0.2">
<path d="M86.5237 51.8608C86.7191 53.0677 86.6142 54.384 86.1798 55.3466L85.2388 57.4432C84.8841 58.2344 84.9131 58.8652 85.2497 59.2444C85.2823 59.0074 85.3583 58.7412 85.4849 58.4568L86.426 56.3602C86.9869 55.1132 86.9978 53.2792 86.5237 51.8572V51.8608ZM97.5481 42.862C97.2079 41.2066 96.0316 40.8966 94.9313 42.1765L93.4366 43.9157C92.3399 45.1955 90.0742 46.0889 88.4057 45.9029L86.1364 45.6477C84.562 45.4726 83.8924 46.3805 84.5439 47.6968C84.5946 46.9639 85.2605 46.541 86.3825 46.665L88.6518 46.9165C90.3203 47.1025 92.586 46.2092 93.6827 44.9294L95.1774 43.1901C96.1583 42.0452 97.2006 42.1728 97.6567 43.3907L97.5481 42.8583V42.862ZM100.107 38.4318C100.06 38.2057 100.006 37.9943 99.9405 37.7974L100.625 41.1373C100.672 41.3634 100.729 41.5931 100.805 41.8228L100.111 38.4355L100.107 38.4318ZM103.549 50.2164L101.442 49.3194C100.056 48.7287 98.6737 47.1499 98.1561 45.6367L98.2575 46.1326C98.5977 47.788 100.14 49.6804 101.689 50.3367L103.795 51.23C104.208 51.405 104.512 51.6202 104.714 51.8535C104.899 51.241 104.504 50.6174 103.549 50.2127V50.2164ZM111.75 51.9155C111.689 52.6557 111.117 53.4104 110.027 54.0339L106.752 55.9154C104.345 57.2973 102.184 60.7029 101.949 63.4849L101.627 67.2697C101.392 70.0518 99.5279 70.7883 97.4793 68.9105L94.6925 66.3509C92.6439 64.4731 88.7604 63.4521 86.064 64.0902L82.3904 64.9544C80.8956 65.3044 79.8388 64.9835 79.39 64.1923C79.39 65.6836 80.6097 66.4457 82.6402 65.9717L86.3101 65.1075C89.0065 64.4731 92.89 65.4904 94.9386 67.3682L97.7254 69.9278C99.774 71.8092 101.642 71.0691 101.877 68.287L102.195 64.5022C102.431 61.7202 104.591 58.3146 106.998 56.9327L110.277 55.0512C111.877 54.1324 112.358 52.9328 111.754 51.9155H111.75Z" fill="#181A19"/>
</g>
<path d="M85.8614 49.9137L84.6779 47.9411C84.6272 47.8573 84.5838 47.7771 84.5439 47.6968C84.5186 48.0542 84.6417 48.4844 84.924 48.9584L86.1075 50.931C86.274 51.2081 86.4115 51.5217 86.5273 51.8608C86.4115 51.1389 86.1871 50.457 85.865 49.9137H85.8614ZM97.7942 43.8792C97.758 43.7042 97.711 43.5438 97.6567 43.3979L98.0114 45.119C98.0476 45.2903 98.0946 45.4654 98.1562 45.6404L97.7942 43.8792Z" fill="#EF2E78"/>
<g style="mix-blend-mode:soft-light" opacity="0.8">
<path d="M110.006 50.57L106.531 49.0933C103.98 48.0104 101.432 44.8856 100.871 42.1546L100.107 38.4354C99.546 35.7008 97.606 35.1939 95.7927 37.3051L93.3244 40.1783C91.5111 42.2895 87.776 43.7662 85.0217 43.4563L81.2721 43.037C79.4986 42.8401 78.4201 43.4745 78.2608 44.5902C78.5974 43.7224 79.618 43.2557 81.1707 43.4271L84.9203 43.8464C87.6746 44.1527 91.4098 42.6796 93.223 40.5685L95.6914 37.6952C97.5047 35.5841 99.4446 36.0946 100.006 38.8256L100.769 42.5447C101.33 45.2794 103.875 48.4005 106.43 49.4871L109.904 50.9638C111.345 51.5764 112.011 52.4843 111.884 53.4068C112.286 52.353 111.649 51.2665 110.006 50.57ZM104.895 53.0312C104.747 53.3557 104.432 53.6766 103.951 53.9501L101.967 55.0913C100.661 55.8388 99.4772 57.5708 99.1406 59.1313C99.5749 57.6801 100.672 56.1706 101.866 55.4851L103.849 54.3439C104.523 53.9574 104.87 53.487 104.895 53.0312ZM98.7171 62.701C98.3444 63.762 97.3852 63.9188 96.3501 62.9672L94.6599 61.4175C93.4185 60.2799 91.0659 59.66 89.43 60.0465L87.2041 60.5716C85.8396 60.8925 85.076 60.2835 85.2642 59.1751C84.8081 60.5278 85.5827 61.3191 87.1028 60.9617L89.3287 60.4367C90.9646 60.0502 93.3171 60.67 94.5586 61.8077L96.2488 63.3573C97.4033 64.4147 98.4638 64.1011 98.7208 62.701H98.7171ZM86.1075 50.931L84.9276 48.962C84.6416 48.4844 84.5222 48.0541 84.5475 47.6968C84.3485 48.1088 84.4245 48.6886 84.8262 49.3558L86.0061 51.3284C86.7191 52.5135 86.9435 54.373 86.6214 55.8534C87.0811 54.322 86.8856 52.2327 86.1075 50.9383V50.931Z" fill="white"/>
</g>
<path d="M98.8619 61.9718L99.0573 59.6784C99.0718 59.4997 99.1008 59.3174 99.1406 59.1314C99.0465 59.4523 98.9813 59.7659 98.956 60.0722L98.7606 62.3656C98.7497 62.4859 98.7352 62.5953 98.7171 62.7011C98.7895 62.4932 98.8402 62.2489 98.8619 61.9718ZM86.6214 55.8498C86.5671 56.0321 86.502 56.2035 86.4296 56.3676L85.4886 58.4642C85.3764 58.7194 85.3004 58.9564 85.2642 59.1715C85.2967 59.0694 85.3402 58.9637 85.3872 58.8543L86.3282 56.7577C86.4549 56.4806 86.549 56.1707 86.6214 55.8462V55.8498Z" fill="#16161A"/>
<path opacity="0.5" d="M103.954 53.9501L101.971 55.0914C100.512 55.9264 99.2021 57.9938 99.061 59.6783L98.8655 61.9718C98.7244 63.6563 97.5915 64.1048 96.3501 62.9672L94.6599 61.4176C93.8854 60.7065 92.6729 60.1961 91.4749 60.0101C90.7547 59.8971 90.0453 59.9007 89.43 60.0466L89.0391 60.1377L87.9352 60.3966L87.2041 60.568C85.5682 60.9508 84.7973 60.0065 85.4886 58.4641L86.4296 56.3676C86.7843 55.5727 86.9218 54.5372 86.8494 53.5235C86.7807 52.5682 86.5309 51.6348 86.1111 50.9347L84.9312 48.9657C84.0626 47.5182 84.7177 46.4863 86.3862 46.6723L88.6591 46.9275C89.3685 47.0077 90.1828 46.891 90.9718 46.6358C92.0395 46.2858 93.0566 45.6769 93.6899 44.944L95.1847 43.2011C96.285 41.9213 97.4576 42.2312 97.7978 43.8866V43.8939L98.0403 45.0789L98.2611 46.1436C98.3625 46.6395 98.5724 47.1572 98.8583 47.6568C99.5279 48.8235 100.606 49.8882 101.692 50.3477L103.799 51.241C105.344 51.8973 105.416 53.1224 103.958 53.9574L103.954 53.9501Z" fill="#727272"/>
<path d="M98.044 38.4828C98.0765 38.3516 98.0005 38.2167 97.8702 38.1838C97.7399 38.151 97.606 38.2276 97.5734 38.3589C97.5409 38.4901 97.6169 38.625 97.7472 38.6579C97.8775 38.6907 98.0114 38.6141 98.044 38.4828Z" fill="white"/>
<g style="mix-blend-mode:multiply">
<path d="M98.044 38.4829C98.0114 38.6141 97.8775 38.6943 97.7472 38.6579C97.6241 38.6251 97.5481 38.5047 97.5699 38.3808C97.5843 38.4646 97.6422 38.5376 97.7327 38.5631C97.8485 38.5923 97.9716 38.523 98.0006 38.4027C98.015 38.348 98.0078 38.2933 97.9825 38.2495C98.0404 38.3079 98.0693 38.399 98.0476 38.4829H98.044Z" fill="#A6A8AB"/>
</g>
<path d="M97.3237 41.2724C97.3563 41.1411 97.2803 41.0062 97.15 40.9734C97.0197 40.9406 96.8858 41.0172 96.8532 41.1484C96.8207 41.2797 96.8967 41.4146 97.027 41.4474C97.1572 41.4802 97.2912 41.4037 97.3237 41.2724Z" fill="white"/>
<g style="mix-blend-mode:multiply">
<path d="M97.3237 41.2724C97.2911 41.4037 97.1572 41.4839 97.0269 41.4474C96.9039 41.4146 96.8279 41.2943 96.8496 41.1703C96.8641 41.2542 96.922 41.3271 97.0124 41.3526C97.1283 41.3818 97.2477 41.3125 97.2803 41.1922C97.2948 41.1375 97.2875 41.0828 97.2622 41.0391C97.3201 41.0974 97.349 41.1886 97.3273 41.2761L97.3237 41.2724Z" fill="#A6A8AB"/>
</g>
<path d="M107.729 53.1264C107.762 52.9951 107.686 52.8602 107.556 52.8274C107.425 52.7946 107.291 52.8712 107.259 53.0024C107.226 53.1337 107.302 53.2686 107.432 53.3014C107.563 53.3342 107.697 53.2577 107.729 53.1264Z" fill="white"/>
<g style="mix-blend-mode:multiply">
<path d="M107.729 53.1264C107.697 53.2577 107.563 53.3379 107.432 53.3014C107.309 53.2686 107.233 53.1483 107.255 53.0243C107.27 53.1082 107.331 53.1811 107.418 53.2066C107.534 53.2358 107.653 53.1665 107.686 53.0462C107.7 52.9915 107.693 52.9368 107.668 52.8931C107.726 52.9514 107.755 53.0426 107.733 53.1264H107.729Z" fill="#A6A8AB"/>
</g>
<path d="M99.6618 44.0727C99.6944 43.9414 99.6184 43.8065 99.4881 43.7737C99.3578 43.7409 99.2239 43.8174 99.1913 43.9487C99.1587 44.08 99.2347 44.2149 99.365 44.2477C99.4953 44.2805 99.6292 44.2039 99.6618 44.0727Z" fill="white"/>
<g style="mix-blend-mode:multiply">
<path d="M99.6618 44.0727C99.6292 44.204 99.4953 44.2842 99.365 44.2477C99.2419 44.2149 99.1659 44.0946 99.1877 43.9706C99.2021 44.0545 99.26 44.1274 99.3505 44.1529C99.4663 44.1821 99.5858 44.1128 99.6184 43.9925C99.6328 43.9378 99.6256 43.8831 99.6003 43.8394C99.6582 43.8977 99.6871 43.9888 99.6654 44.0727H99.6618Z" fill="#A6A8AB"/>
</g>
<path d="M100.491 46.0634C100.523 45.9321 100.447 45.7972 100.317 45.7644C100.187 45.7316 100.053 45.8082 100.02 45.9394C99.9875 46.0707 100.064 46.2056 100.194 46.2384C100.324 46.2712 100.458 46.1947 100.491 46.0634Z" fill="white"/>
<g style="mix-blend-mode:multiply">
<path d="M100.491 46.0634C100.458 46.1947 100.324 46.2749 100.194 46.2385C100.071 46.2056 99.9947 46.0853 100.016 45.9613C100.031 46.0452 100.089 46.1181 100.179 46.1437C100.295 46.1728 100.415 46.1035 100.447 45.9832C100.462 45.9285 100.454 45.8738 100.429 45.8301C100.487 45.8884 100.516 45.9796 100.494 46.0634H100.491Z" fill="#A6A8AB"/>
</g>
<path d="M102.108 47.9926C102.141 47.8613 102.065 47.7264 101.935 47.6936C101.804 47.6608 101.67 47.7374 101.638 47.8686C101.605 47.9999 101.681 48.1348 101.812 48.1676C101.942 48.2004 102.076 48.1239 102.108 47.9926Z" fill="white"/>
<g style="mix-blend-mode:multiply">
<path d="M102.108 47.9926C102.076 48.1239 101.942 48.2041 101.812 48.1677C101.689 48.1348 101.613 48.0145 101.634 47.8905C101.649 47.9744 101.707 48.0473 101.797 48.0729C101.913 48.102 102.032 48.0327 102.065 47.9124C102.079 47.8577 102.072 47.803 102.051 47.7593C102.108 47.8176 102.137 47.9088 102.116 47.9926H102.108Z" fill="#A6A8AB"/>
</g>
<path d="M104.237 49.5639C104.269 49.4326 104.193 49.2977 104.063 49.2649C103.933 49.2321 103.799 49.3087 103.766 49.4399C103.733 49.5712 103.809 49.7061 103.94 49.7389C104.07 49.7717 104.204 49.6952 104.237 49.5639Z" fill="white"/>
<g style="mix-blend-mode:multiply">
<path d="M104.237 49.5639C104.204 49.6952 104.07 49.7754 103.94 49.7389C103.817 49.7061 103.741 49.5858 103.762 49.4618C103.777 49.5457 103.835 49.6186 103.925 49.6441C104.041 49.6733 104.161 49.604 104.193 49.4837C104.208 49.429 104.2 49.3743 104.175 49.3306C104.233 49.3889 104.262 49.4801 104.24 49.5639H104.237Z" fill="#A6A8AB"/>
</g>
<path d="M106.81 51.1464C106.843 51.0151 106.767 50.8802 106.636 50.8474C106.506 50.8146 106.372 50.8912 106.339 51.0224C106.307 51.1537 106.383 51.2886 106.513 51.3214C106.643 51.3542 106.777 51.2777 106.81 51.1464Z" fill="white"/>
<g style="mix-blend-mode:multiply">
<path d="M106.81 51.1464C106.777 51.2777 106.643 51.3579 106.513 51.3215C106.39 51.2886 106.314 51.1683 106.336 51.0443C106.35 51.1282 106.408 51.2011 106.499 51.2267C106.614 51.2558 106.734 51.1866 106.766 51.0662C106.781 51.0115 106.774 50.9568 106.748 50.9131C106.806 50.9714 106.835 51.0626 106.814 51.1464H106.81Z" fill="#A6A8AB"/>
</g>
<path d="M109.626 53.3705C109.658 53.2393 109.582 53.1044 109.452 53.0715C109.322 53.0387 109.188 53.1153 109.155 53.2466C109.123 53.3778 109.199 53.5127 109.329 53.5456C109.459 53.5784 109.593 53.5018 109.626 53.3705Z" fill="white"/>
<g style="mix-blend-mode:multiply">
<path d="M109.626 53.3706C109.593 53.5018 109.459 53.582 109.329 53.5456C109.206 53.5128 109.13 53.3924 109.152 53.2685C109.166 53.3523 109.224 53.4253 109.315 53.4508C109.43 53.48 109.55 53.4107 109.582 53.2903C109.597 53.2357 109.59 53.181 109.564 53.1372C109.622 53.1955 109.651 53.2867 109.629 53.3706H109.626Z" fill="#A6A8AB"/>
</g>
<path d="M106.575 54.7524C106.608 54.6211 106.532 54.4862 106.401 54.4534C106.271 54.4206 106.137 54.4971 106.105 54.6284C106.072 54.7597 106.148 54.8946 106.278 54.9274C106.409 54.9602 106.543 54.8836 106.575 54.7524Z" fill="white"/>
<g style="mix-blend-mode:multiply">
<path d="M106.571 54.7524C106.538 54.8837 106.405 54.9639 106.274 54.9274C106.151 54.8946 106.075 54.7743 106.097 54.6503C106.111 54.7342 106.169 54.8071 106.26 54.8326C106.376 54.8618 106.495 54.7925 106.528 54.6722C106.542 54.6175 106.535 54.5628 106.509 54.519C106.567 54.5774 106.596 54.6685 106.575 54.7524H106.571Z" fill="#A6A8AB"/>
</g>
<path d="M104.808 56.0722C104.841 55.9409 104.765 55.806 104.635 55.7732C104.504 55.7404 104.37 55.817 104.338 55.9482C104.305 56.0795 104.381 56.2144 104.512 56.2472C104.642 56.28 104.776 56.2035 104.808 56.0722Z" fill="white"/>
<g style="mix-blend-mode:multiply">
<path d="M104.808 56.0722C104.776 56.2035 104.642 56.2837 104.512 56.2472C104.389 56.2144 104.313 56.0941 104.334 55.9701C104.349 56.054 104.407 56.1269 104.497 56.1524C104.613 56.1816 104.732 56.1123 104.765 55.992C104.779 55.9373 104.772 55.8826 104.747 55.8389C104.805 55.8972 104.834 55.9884 104.808 56.0722Z" fill="#A6A8AB"/>
</g>
<path d="M102.945 57.7861C102.977 57.6548 102.901 57.5199 102.771 57.4871C102.641 57.4543 102.507 57.5308 102.474 57.6621C102.441 57.7934 102.517 57.9283 102.648 57.9611C102.778 57.9939 102.912 57.9173 102.945 57.7861Z" fill="white"/>
<g style="mix-blend-mode:multiply">
<path d="M102.944 57.7861C102.912 57.9174 102.778 57.9976 102.648 57.9611C102.525 57.9283 102.449 57.808 102.47 57.684C102.485 57.7679 102.543 57.8408 102.633 57.8663C102.749 57.8955 102.868 57.8262 102.901 57.7059C102.916 57.6512 102.908 57.5965 102.883 57.5527C102.941 57.6111 102.97 57.6986 102.948 57.7861H102.944Z" fill="#A6A8AB"/>
</g>
<path d="M101.606 60.0214C101.638 59.8901 101.562 59.7552 101.432 59.7224C101.302 59.6896 101.168 59.7662 101.135 59.8974C101.103 60.0287 101.179 60.1636 101.309 60.1964C101.439 60.2292 101.573 60.1527 101.606 60.0214Z" fill="white"/>
<g style="mix-blend-mode:multiply">
<path d="M101.602 60.0214C101.569 60.1527 101.435 60.2329 101.305 60.1965C101.182 60.1636 101.106 60.0433 101.128 59.9193C101.142 60.0032 101.2 60.0761 101.29 60.1017C101.406 60.1308 101.526 60.0616 101.558 59.9412C101.573 59.8865 101.566 59.8318 101.54 59.7881C101.598 59.8464 101.627 59.9376 101.605 60.0214H101.602Z" fill="#A6A8AB"/>
</g>
<path d="M101.012 62.3149C101.044 62.1836 100.968 62.0487 100.838 62.0159C100.708 61.9831 100.574 62.0596 100.541 62.1909C100.509 62.3222 100.585 62.4571 100.715 62.4899C100.845 62.5227 100.979 62.4461 101.012 62.3149Z" fill="white"/>
<g style="mix-blend-mode:multiply">
<path d="M101.012 62.3149C100.979 62.4462 100.845 62.5264 100.715 62.4899C100.592 62.4571 100.516 62.3368 100.538 62.2128C100.552 62.2967 100.61 62.3696 100.701 62.3951C100.816 62.4243 100.936 62.355 100.968 62.2347C100.983 62.18 100.976 62.1253 100.95 62.0815C101.008 62.1399 101.037 62.231 101.015 62.3149H101.012Z" fill="#A6A8AB"/>
</g>
<path d="M100.328 64.9657C100.36 64.8345 100.284 64.6996 100.154 64.6668C100.024 64.6339 99.8898 64.7105 99.8573 64.8418C99.8247 64.973 99.9007 65.1079 100.031 65.1408C100.161 65.1736 100.295 65.097 100.328 64.9657Z" fill="white"/>
<g style="mix-blend-mode:multiply">
<path d="M100.328 64.9658C100.295 65.097 100.161 65.1773 100.031 65.1408C99.908 65.108 99.832 64.9877 99.8537 64.8637C99.8681 64.9475 99.9261 65.0205 100.017 65.046C100.132 65.0752 100.252 65.0059 100.284 64.8856C100.299 64.8309 100.292 64.7762 100.266 64.7324C100.324 64.7908 100.353 64.8819 100.331 64.9658H100.328Z" fill="#A6A8AB"/>
</g>
<path d="M99.7238 67.3066C99.7563 67.1753 99.6803 67.0404 99.55 67.0076C99.4197 66.9748 99.2858 67.0513 99.2533 67.1826C99.2207 67.3139 99.2967 67.4488 99.427 67.4816C99.5573 67.5144 99.6912 67.4378 99.7238 67.3066Z" fill="white"/>
<g style="mix-blend-mode:multiply">
<path d="M99.7197 67.3066C99.6871 67.4379 99.5532 67.5181 99.4229 67.4816C99.2999 67.4488 99.2239 67.3285 99.2456 67.2045C99.2601 67.2884 99.318 67.3613 99.4084 67.3868C99.5243 67.416 99.6437 67.3467 99.6763 67.2264C99.6908 67.1717 99.6835 67.117 99.6582 67.0732C99.7161 67.1316 99.745 67.2191 99.7233 67.3066H99.7197Z" fill="#A6A8AB"/>
</g>
<path d="M100.281 69.0785C100.313 68.9473 100.237 68.8124 100.107 68.7796C99.9767 68.7467 99.8428 68.8233 99.8102 68.9546C99.7776 69.0858 99.8536 69.2207 99.9839 69.2536C100.114 69.2864 100.248 69.2098 100.281 69.0785Z" fill="white"/>
<g style="mix-blend-mode:multiply">
<path d="M100.281 69.0786C100.248 69.2098 100.114 69.2864 99.9839 69.2536C99.8608 69.2208 99.7848 69.1004 99.8065 68.9765C99.821 69.0603 99.8789 69.1333 99.9694 69.1588C100.085 69.188 100.205 69.1187 100.237 68.9984C100.252 68.9437 100.244 68.889 100.219 68.8452C100.277 68.9036 100.306 68.9947 100.284 69.0822L100.281 69.0786Z" fill="#A6A8AB"/>
</g>
<path d="M97.7327 66.2782C97.7652 66.147 97.6892 66.0121 97.5589 65.9793C97.4287 65.9464 97.2947 66.023 97.2622 66.1543C97.2296 66.2855 97.3056 66.4204 97.4359 66.4533C97.5662 66.4861 97.7001 66.4095 97.7327 66.2782Z" fill="white"/>
<g style="mix-blend-mode:multiply">
<path d="M97.7327 66.2783C97.7001 66.4095 97.5662 66.4898 97.4359 66.4533C97.3129 66.4205 97.2369 66.3002 97.2586 66.1762C97.2731 66.26 97.331 66.333 97.4214 66.3585C97.5373 66.3877 97.6567 66.3184 97.6893 66.1981C97.7038 66.1434 97.6965 66.0887 97.6712 66.0449C97.7291 66.1033 97.758 66.1908 97.7363 66.2783H97.7327Z" fill="#A6A8AB"/>
</g>
<path d="M95.3548 64.4657C95.3874 64.3345 95.3114 64.1996 95.1811 64.1668C95.0508 64.1339 94.9169 64.2105 94.8843 64.3418C94.8517 64.473 94.9277 64.608 95.058 64.6408C95.1883 64.6736 95.3222 64.597 95.3548 64.4657Z" fill="white"/>
<g style="mix-blend-mode:multiply">
<path d="M95.3548 64.4658C95.3222 64.597 95.1883 64.6773 95.058 64.6408C94.9349 64.608 94.8589 64.4877 94.8806 64.3637C94.8951 64.4475 94.953 64.5205 95.0435 64.546C95.1593 64.5752 95.2788 64.5059 95.3113 64.3856C95.3258 64.3309 95.3186 64.2762 95.2932 64.2324C95.3512 64.2908 95.3801 64.3819 95.3584 64.4658H95.3548Z" fill="#A6A8AB"/>
</g>
<path d="M92.9226 63.2773C92.9552 63.146 92.8792 63.0111 92.7489 62.9783C92.6186 62.9455 92.4847 63.022 92.4521 63.1533C92.4195 63.2846 92.4955 63.4195 92.6258 63.4523C92.7561 63.4851 92.89 63.4085 92.9226 63.2773Z" fill="white"/>
<g style="mix-blend-mode:multiply">
<path d="M92.9226 63.2773C92.89 63.4086 92.7561 63.4888 92.6258 63.4523C92.5027 63.4195 92.4267 63.2992 92.4485 63.1752C92.4629 63.2591 92.5208 63.332 92.6113 63.3575C92.7271 63.3867 92.8466 63.3174 92.8792 63.1971C92.8936 63.1424 92.8864 63.0877 92.8611 63.0439C92.919 63.1023 92.9479 63.1934 92.9262 63.2773H92.9226Z" fill="#A6A8AB"/>
</g>
<path d="M90.5122 62.665C90.5447 62.5337 90.4687 62.3988 90.3384 62.366C90.2081 62.3332 90.0742 62.4097 90.0416 62.541C90.0091 62.6723 90.0851 62.8072 90.2154 62.84C90.3457 62.8728 90.4796 62.7962 90.5122 62.665Z" fill="white"/>
<g style="mix-blend-mode:multiply">
<path d="M90.5122 62.665C90.4796 62.7963 90.3457 62.8765 90.2154 62.84C90.0923 62.8072 90.0163 62.6869 90.0381 62.5629C90.0525 62.6468 90.1104 62.7197 90.2009 62.7452C90.3167 62.7744 90.4362 62.7051 90.4687 62.5848C90.4832 62.5301 90.476 62.4754 90.4507 62.4316C90.5086 62.49 90.5375 62.5811 90.5158 62.665H90.5122Z" fill="#A6A8AB"/>
</g>
<path d="M87.7868 62.7338C87.8194 62.6026 87.7434 62.4676 87.6131 62.4348C87.4828 62.402 87.3489 62.4786 87.3163 62.6098C87.2837 62.7411 87.3597 62.876 87.49 62.9088C87.6203 62.9417 87.7542 62.8651 87.7868 62.7338Z" fill="white"/>
<g style="mix-blend-mode:multiply">
<path d="M87.7868 62.7338C87.7543 62.8651 87.6204 62.9453 87.4901 62.9089C87.367 62.876 87.291 62.7557 87.3127 62.6318C87.3272 62.7156 87.3851 62.7885 87.4756 62.8141C87.5914 62.8432 87.7108 62.774 87.7434 62.6536C87.7579 62.5989 87.7507 62.5442 87.7253 62.5005C87.7832 62.5588 87.8122 62.6463 87.7905 62.7338H87.7868Z" fill="#A6A8AB"/>
</g>
<path d="M85.0615 63.2079C85.094 63.0767 85.018 62.9418 84.8877 62.9089C84.7575 62.8761 84.6235 62.9527 84.591 63.084C84.5548 63.2152 84.6344 63.3501 84.7647 63.383C84.895 63.4158 85.0289 63.3392 85.0615 63.2079Z" fill="white"/>
<g style="mix-blend-mode:multiply">
<path d="M85.0615 63.208C85.0289 63.3392 84.895 63.4194 84.7647 63.383C84.6417 63.3502 84.5657 63.2298 84.5874 63.1059C84.6018 63.1897 84.6598 63.2627 84.7502 63.2882C84.8661 63.3174 84.9855 63.2481 85.0181 63.1277C85.0325 63.0731 85.0253 63.0184 85 62.9746C85.0579 63.0329 85.0868 63.1241 85.0651 63.208H85.0615Z" fill="#A6A8AB"/>
</g>
<path d="M82.6691 63.3759C82.7017 63.2446 82.6257 63.1097 82.4954 63.0769C82.3651 63.0441 82.2312 63.1207 82.1986 63.2519C82.1661 63.3832 82.2421 63.5181 82.3723 63.5509C82.5026 63.5837 82.6366 63.5072 82.6691 63.3759Z" fill="white"/>
<g style="mix-blend-mode:multiply">
<path d="M82.6692 63.3759C82.6366 63.5072 82.5027 63.5874 82.3724 63.551C82.2493 63.5181 82.1733 63.3978 82.195 63.2738C82.2095 63.3577 82.271 63.4306 82.3579 63.4562C82.4737 63.4853 82.5932 63.416 82.6257 63.2957C82.6402 63.241 82.633 63.1863 82.6076 63.1426C82.6655 63.2009 82.6945 63.2921 82.6728 63.3759H82.6692Z" fill="#A6A8AB"/>
</g>
<path d="M81.3698 64.3383C81.4024 64.207 81.3264 64.0721 81.1961 64.0393C81.0658 64.0065 80.9319 64.0831 80.8993 64.2143C80.8667 64.3456 80.9427 64.4805 81.073 64.5133C81.2033 64.5461 81.3372 64.4696 81.3698 64.3383Z" fill="white"/>
<g style="mix-blend-mode:multiply">
<path d="M81.3698 64.3383C81.3373 64.4696 81.2034 64.5498 81.0731 64.5134C80.95 64.4805 80.874 64.3602 80.8957 64.2362C80.9102 64.3201 80.9681 64.393 81.0586 64.4186C81.1744 64.4477 81.2938 64.3784 81.3264 64.2581C81.3409 64.2034 81.3337 64.1487 81.3083 64.105C81.3662 64.1633 81.3952 64.2508 81.3735 64.3383H81.3698Z" fill="#A6A8AB"/>
</g>
<path d="M82.9732 61.2206C83.0057 61.0894 82.9297 60.9545 82.7994 60.9216C82.6691 60.8888 82.5352 60.9654 82.5026 61.0967C82.4701 61.2279 82.5461 61.3628 82.6764 61.3957C82.8067 61.4285 82.9406 61.3519 82.9732 61.2206Z" fill="white"/>
<g style="mix-blend-mode:multiply">
<path d="M82.9732 61.2207C82.9406 61.3519 82.8067 61.4321 82.6764 61.3957C82.5533 61.3629 82.4773 61.2425 82.4991 61.1186C82.5135 61.2024 82.5714 61.2754 82.6619 61.3009C82.7777 61.33 82.8972 61.2608 82.9297 61.1404C82.9442 61.0858 82.937 61.0311 82.9153 60.9873C82.9732 61.0456 83.0021 61.1368 82.9768 61.2207H82.9732Z" fill="#A6A8AB"/>
</g>
<path d="M83.8816 58.6796C83.9142 58.5484 83.8382 58.4134 83.7079 58.3806C83.5776 58.3478 83.4437 58.4244 83.4111 58.5556C83.3785 58.6869 83.4545 58.8218 83.5848 58.8546C83.7151 58.8874 83.849 58.8109 83.8816 58.6796Z" fill="white"/>
<g style="mix-blend-mode:multiply">
<path d="M83.8816 58.6796C83.8491 58.8109 83.7151 58.8911 83.5848 58.8547C83.4618 58.8218 83.3858 58.7015 83.4075 58.5776C83.422 58.6614 83.4799 58.7343 83.5704 58.7599C83.6862 58.789 83.8056 58.7198 83.8382 58.5994C83.8527 58.5447 83.8454 58.49 83.8201 58.4463C83.878 58.5046 83.907 58.5958 83.8852 58.6796H83.8816Z" fill="#A6A8AB"/>
</g>
<path d="M84.5584 56.0615C84.591 55.9302 84.515 55.7953 84.3847 55.7625C84.2544 55.7296 84.1205 55.8062 84.0879 55.9375C84.0553 56.0687 84.1313 56.2037 84.2616 56.2365C84.3919 56.2693 84.5258 56.1927 84.5584 56.0615Z" fill="white"/>
<g style="mix-blend-mode:multiply">
<path d="M84.5584 56.0615C84.5259 56.1927 84.392 56.273 84.2617 56.2365C84.1386 56.2037 84.0626 56.0834 84.0843 55.9594C84.0988 56.0433 84.1567 56.1162 84.2472 56.1417C84.363 56.1709 84.4824 56.1016 84.515 55.9813C84.5295 55.9266 84.5223 55.8719 84.4969 55.8281C84.5548 55.8865 84.5838 55.9776 84.5621 56.0615H84.5584Z" fill="#A6A8AB"/>
</g>
<path d="M84.9493 53.5746C84.9819 53.4434 84.9059 53.3085 84.7756 53.2756C84.6453 53.2428 84.5113 53.3194 84.4788 53.4507C84.4462 53.5819 84.5222 53.7168 84.6525 53.7497C84.7828 53.7825 84.9167 53.7059 84.9493 53.5746Z" fill="white"/>
<g style="mix-blend-mode:multiply">
<path d="M84.9493 53.5747C84.9167 53.7059 84.7828 53.7861 84.6525 53.7497C84.5295 53.7169 84.4535 53.5965 84.4752 53.4726C84.4897 53.5564 84.5512 53.6294 84.6381 53.6549C84.7539 53.6841 84.8733 53.6148 84.9059 53.4944C84.9204 53.4398 84.9131 53.3851 84.8878 53.3413C84.9457 53.3996 84.9747 53.4908 84.9529 53.5747H84.9493Z" fill="#A6A8AB"/>
</g>
<path d="M83.8997 51.099C83.9322 50.9678 83.8562 50.8329 83.7259 50.8001C83.5956 50.7672 83.4617 50.8438 83.4292 50.9751C83.3966 51.1063 83.4726 51.2413 83.6029 51.2741C83.7332 51.3069 83.8671 51.2303 83.8997 51.099Z" fill="white"/>
<g style="mix-blend-mode:multiply">
<path d="M83.8997 51.0991C83.8671 51.2303 83.7332 51.3106 83.6029 51.2741C83.4799 51.2413 83.4039 51.121 83.4256 50.997C83.44 51.0808 83.498 51.1538 83.5884 51.1793C83.7043 51.2085 83.8237 51.1392 83.8563 51.0189C83.8707 50.9642 83.8635 50.9095 83.8382 50.8657C83.8961 50.9241 83.925 51.0152 83.9033 51.0991H83.8997Z" fill="#A6A8AB"/>
</g>
<path d="M82.8139 48.7763C82.8465 48.645 82.7705 48.5101 82.6402 48.4773C82.5099 48.4445 82.376 48.5211 82.3434 48.6523C82.3108 48.7836 82.3868 48.9185 82.5171 48.9513C82.6474 48.9841 82.7813 48.9076 82.8139 48.7763Z" fill="white"/>
<g style="mix-blend-mode:multiply">
<path d="M82.8139 48.7763C82.7814 48.9076 82.6475 48.9878 82.5172 48.9513C82.3941 48.9185 82.3181 48.7982 82.3398 48.6742C82.3543 48.7581 82.4158 48.831 82.5027 48.8565C82.6185 48.8857 82.7379 48.8164 82.7705 48.6961C82.785 48.6414 82.7777 48.5867 82.756 48.543C82.8139 48.6013 82.8429 48.6888 82.8212 48.7763H82.8139Z" fill="#A6A8AB"/>
</g>
<path d="M82.2529 46.4282C82.2854 46.2969 82.2094 46.162 82.0791 46.1292C81.9489 46.0963 81.8149 46.1729 81.7824 46.3042C81.7498 46.4354 81.8258 46.5704 81.9561 46.6032C82.0864 46.636 82.2203 46.5594 82.2529 46.4282Z" fill="white"/>
<g style="mix-blend-mode:multiply">
<path d="M82.2529 46.4282C82.2203 46.5594 82.0864 46.6397 81.9561 46.6032C81.8331 46.5704 81.7571 46.4501 81.7788 46.3261C81.7933 46.41 81.8512 46.4829 81.9416 46.5084C82.0575 46.5376 82.1769 46.4683 82.2095 46.348C82.224 46.2933 82.2167 46.2386 82.1914 46.1948C82.2493 46.2532 82.2782 46.3407 82.2565 46.4282H82.2529Z" fill="#A6A8AB"/>
</g>
<path d="M80.3311 45.6699C80.3636 45.5386 80.2876 45.4037 80.1573 45.3709C80.027 45.338 79.8931 45.4146 79.8606 45.5459C79.828 45.6771 79.904 45.8121 80.0343 45.8449C80.1646 45.8777 80.2985 45.8011 80.3311 45.6699Z" fill="white"/>
<g style="mix-blend-mode:multiply">
<path d="M80.3311 45.6699C80.2985 45.8011 80.1646 45.8814 80.0343 45.8449C79.9113 45.8121 79.8352 45.6918 79.857 45.5678C79.8714 45.6517 79.9293 45.7246 80.0198 45.7501C80.1356 45.7793 80.2551 45.71 80.2877 45.5897C80.3021 45.535 80.2949 45.4803 80.2696 45.4365C80.3275 45.4949 80.3564 45.586 80.3347 45.6699H80.3311Z" fill="#A6A8AB"/>
</g>
<path d="M84.1132 45.7026C84.1458 45.5713 84.0698 45.4364 83.9395 45.4036C83.8092 45.3708 83.6753 45.4473 83.6427 45.5786C83.6101 45.7099 83.6861 45.8448 83.8164 45.8776C83.9467 45.9104 84.0807 45.8338 84.1132 45.7026Z" fill="white"/>
<g style="mix-blend-mode:multiply">
<path d="M84.1133 45.7026C84.0807 45.8339 83.9468 45.9141 83.8165 45.8776C83.6934 45.8448 83.6174 45.7245 83.6391 45.6005C83.6536 45.6844 83.7115 45.7573 83.802 45.7828C83.9178 45.812 84.0373 45.7427 84.0698 45.6224C84.0843 45.5677 84.0771 45.513 84.0517 45.4692C84.1096 45.5276 84.1386 45.6187 84.1169 45.7026H84.1133Z" fill="#A6A8AB"/>
</g>
<path d="M86.5128 45.5712C86.5454 45.44 86.4694 45.305 86.3391 45.2722C86.2088 45.2394 86.0749 45.316 86.0423 45.4472C86.0097 45.5785 86.0857 45.7134 86.216 45.7462C86.3463 45.7791 86.4803 45.7025 86.5128 45.5712Z" fill="white"/>
<g style="mix-blend-mode:multiply">
<path d="M86.5129 45.5712C86.4803 45.7025 86.3464 45.7791 86.2161 45.7463C86.093 45.7135 86.017 45.5931 86.0387 45.4692C86.0532 45.553 86.1111 45.6259 86.2016 45.6515C86.3174 45.6806 86.4368 45.6114 86.4694 45.491C86.4839 45.4363 86.4767 45.3816 86.4549 45.3379C86.5129 45.3962 86.5418 45.4874 86.5201 45.5712H86.5129Z" fill="#A6A8AB"/>
</g>
<path d="M89.2237 45.1518C89.2563 45.0205 89.1803 44.8856 89.05 44.8528C88.9197 44.82 88.7858 44.8965 88.7532 45.0278C88.7206 45.1591 88.7966 45.294 88.9269 45.3268C89.0572 45.3596 89.1911 45.283 89.2237 45.1518Z" fill="white"/>
<g style="mix-blend-mode:multiply">
<path d="M89.2237 45.1518C89.1911 45.2831 89.0572 45.3596 88.9269 45.3268C88.8038 45.294 88.7278 45.1737 88.7495 45.0497C88.764 45.1336 88.8219 45.2065 88.9124 45.232C89.0282 45.2612 89.1477 45.1919 89.1802 45.0716C89.1947 45.0169 89.1875 44.9622 89.1621 44.9185C89.2201 44.9768 89.249 45.068 89.2273 45.1518H89.2237Z" fill="#A6A8AB"/>
</g>
<path d="M91.1094 44.3715C91.142 44.2402 91.066 44.1053 90.9357 44.0725C90.8054 44.0397 90.6714 44.1163 90.6389 44.2475C90.6063 44.3788 90.6823 44.5137 90.8126 44.5465C90.9429 44.5793 91.0768 44.5028 91.1094 44.3715Z" fill="white"/>
<g style="mix-blend-mode:multiply">
<path d="M91.1094 44.3715C91.0768 44.5028 90.9429 44.583 90.8126 44.5466C90.6896 44.5137 90.6136 44.3934 90.6353 44.2694C90.6498 44.3533 90.7077 44.4262 90.7982 44.4518C90.914 44.4809 91.0334 44.4116 91.066 44.2913C91.0805 44.2366 91.0732 44.1819 91.0515 44.1382C91.1094 44.1965 91.1384 44.284 91.1167 44.3715H91.1094Z" fill="#A6A8AB"/>
</g>
<path d="M92.9661 43.2343C92.9986 43.103 92.9226 42.9681 92.7923 42.9353C92.6621 42.9025 92.5281 42.9791 92.4956 43.1103C92.463 43.2416 92.539 43.3765 92.6693 43.4093C92.7996 43.4421 92.9335 43.3656 92.9661 43.2343Z" fill="white"/>
<g style="mix-blend-mode:multiply">
<path d="M92.9661 43.2343C92.9335 43.3656 92.7996 43.4458 92.6693 43.4094C92.5463 43.3765 92.4703 43.2562 92.492 43.1322C92.5065 43.2161 92.5644 43.289 92.6548 43.3146C92.7707 43.3437 92.8901 43.2744 92.9227 43.1541C92.9371 43.0994 92.9299 43.0447 92.9046 43.001C92.9625 43.0593 92.9914 43.1505 92.9697 43.2343H92.9661Z" fill="#A6A8AB"/>
</g>
<path d="M94.7142 41.8959C94.7468 41.7647 94.6707 41.6298 94.5404 41.5969C94.4102 41.5641 94.2762 41.6407 94.2437 41.772C94.2111 41.9032 94.2871 42.0381 94.4174 42.0709C94.5477 42.1038 94.6816 42.0272 94.7142 41.8959Z" fill="white"/>
<g style="mix-blend-mode:multiply">
<path d="M94.7142 41.896C94.6816 42.0272 94.5477 42.1074 94.4174 42.071C94.2944 42.0382 94.2184 41.9178 94.2401 41.7939C94.2546 41.8777 94.3125 41.9506 94.4029 41.9762C94.5188 42.0053 94.6382 41.9361 94.6708 41.8157C94.6853 41.761 94.678 41.7064 94.6527 41.6626C94.7106 41.7209 94.7395 41.8084 94.7178 41.896H94.7142Z" fill="#A6A8AB"/>
</g>
<path d="M96.4555 39.5624C96.4881 39.4312 96.4121 39.2963 96.2818 39.2634C96.1515 39.2306 96.0176 39.3072 95.985 39.4385C95.9524 39.5697 96.0284 39.7046 96.1587 39.7374C96.289 39.7703 96.4229 39.6937 96.4555 39.5624Z" fill="white"/>
<g style="mix-blend-mode:multiply">
<path d="M96.4515 39.5625C96.4189 39.6937 96.285 39.7739 96.1547 39.7375C96.0316 39.7047 95.9556 39.5843 95.9773 39.4604C95.9918 39.5442 96.0497 39.6172 96.1402 39.6427C96.256 39.6718 96.3754 39.6026 96.408 39.4822C96.4225 39.4275 96.4153 39.3729 96.3899 39.3291C96.4478 39.3874 96.4768 39.4786 96.4551 39.5625H96.4515Z" fill="#A6A8AB"/>
</g>
<path d="M98.7063 39.9159C98.7389 39.7847 98.6629 39.6498 98.5326 39.617C98.4023 39.5841 98.2684 39.6607 98.2358 39.792C98.2032 39.9232 98.2792 40.0581 98.4095 40.091C98.5398 40.1238 98.6737 40.0472 98.7063 39.9159Z" fill="white"/>
<g style="mix-blend-mode:multiply">
<path d="M98.7063 39.916C98.6738 40.0472 98.5398 40.1275 98.4096 40.091C98.2865 40.0582 98.2105 39.9379 98.2322 39.8139C98.2467 39.8977 98.3046 39.9707 98.3951 39.9962C98.5109 40.0254 98.6303 39.9561 98.6629 39.8358C98.6774 39.7811 98.6701 39.7264 98.6448 39.6826C98.7027 39.741 98.7317 39.8285 98.71 39.916H98.7063Z" fill="#A6A8AB"/>
</g>
<path d="M99.1483 42.0053C99.1808 41.874 99.1048 41.7391 98.9745 41.7063C98.8442 41.6735 98.7103 41.7501 98.6778 41.8813C98.6452 42.0126 98.7212 42.1475 98.8515 42.1803C98.9818 42.2131 99.1157 42.1366 99.1483 42.0053Z" fill="white"/>
<g style="mix-blend-mode:multiply">
<path d="M99.1442 42.0053C99.1116 42.1366 98.9777 42.2168 98.8474 42.1803C98.7244 42.1475 98.6484 42.0272 98.6701 41.9032C98.6846 41.9871 98.7425 42.06 98.8329 42.0855C98.9488 42.1147 99.0682 42.0454 99.1008 41.9251C99.1152 41.8704 99.108 41.8157 99.0827 41.772C99.1406 41.8303 99.1695 41.9178 99.1478 42.0053H99.1442Z" fill="#A6A8AB"/>
</g>
<g style="mix-blend-mode:soft-light" opacity="0.4">
<path d="M97.7942 43.8831L87.9316 60.3932L87.2005 60.5645C85.5646 60.9474 84.7937 60.003 85.485 58.4607L86.426 56.3641C86.7807 55.5692 86.9182 54.5337 86.8458 53.5201L90.9646 46.6251C92.0323 46.275 93.0493 45.6661 93.6827 44.9332L95.1775 43.1903C96.2777 41.9105 97.4504 42.2204 97.7906 43.8758V43.8831H97.7942Z" fill="white"/>
</g>
<g style="mix-blend-mode:soft-light" opacity="0.4">
<path d="M98.8547 47.6499L91.4749 60.0105C90.7547 59.8975 90.0453 59.9012 89.43 60.047L89.0391 60.1382L98.0367 45.0684L98.2575 46.1331C98.3588 46.6289 98.5688 47.1467 98.8547 47.6462V47.6499Z" fill="white"/>
</g>
<path d="M71.6958 43.0081L67.9499 43.4383C65.1992 43.7555 61.4568 42.2898 59.6399 40.1859L57.1643 37.32C55.3438 35.2161 53.4075 35.7302 52.8537 38.4649L52.1009 42.1877C51.5471 44.9223 49.01 48.0544 46.462 49.1446L42.9911 50.6323C40.4431 51.7262 40.3273 53.7425 42.7414 55.1171L46.0241 56.9877C48.4345 58.3623 50.6061 61.7605 50.8486 64.5426L51.178 68.3274C51.4205 71.1058 53.2917 71.8387 55.3329 69.9536L58.1126 67.3867C60.1539 65.5016 64.0338 64.4697 66.7338 65.0968L70.4074 65.95C73.1074 66.5772 74.3778 65.0093 73.2268 62.4716L71.6633 59.0149C70.516 56.4772 70.7403 52.4408 72.1664 50.0489L74.1063 46.7928C75.5323 44.4009 74.4465 42.7018 71.6922 43.0154L71.6958 43.0081ZM68.0657 48.9441L66.8894 50.9204C66.0244 52.3715 65.8905 54.8145 66.5854 56.3569L67.5336 58.4534C68.2285 59.9921 67.4613 60.9401 65.8253 60.5609L63.5994 60.0432C61.9635 59.664 59.611 60.2875 58.3732 61.4287L56.6866 62.9857C55.4488 64.1269 54.3159 63.6857 54.1675 62.0012L53.9685 59.7077C53.8201 58.0232 52.5063 55.9631 51.0441 55.1317L49.0534 53.9978C47.5912 53.1664 47.66 51.9413 49.2055 51.2813L51.3083 50.3807C52.8537 49.7171 54.3919 47.8211 54.7249 46.1657L55.1809 43.9087C55.5139 42.2533 56.6902 41.9397 57.7941 43.2159L59.2961 44.9515C60.3964 46.2277 62.6657 47.1137 64.3342 46.9241L66.6035 46.6652C68.272 46.472 68.9307 47.5038 68.0657 48.955V48.9441Z" fill="#EF2E78"/>
<g style="mix-blend-mode:soft-light" opacity="0.8">
<path d="M71.6954 43.0081L67.9494 43.4383C65.1951 43.7555 61.4564 42.2898 59.6395 40.1859L57.1639 37.32C55.347 35.2161 53.4071 35.7302 52.8533 38.4649L52.1005 42.1877C51.5467 44.9223 49.0096 48.0544 46.4616 49.1446L42.9907 50.6323C41.3475 51.336 40.7178 52.4226 41.1195 53.4763C40.9892 52.5539 41.6552 51.6423 43.092 51.0261L46.5629 49.5384C49.1109 48.4482 51.6517 45.3161 52.2018 42.5815L52.9546 38.8587C53.5084 36.124 55.4483 35.6099 57.2652 37.7138L59.7408 40.5797C61.5577 42.6836 65.3001 44.1493 68.0508 43.8321L71.7968 43.4019C73.3495 43.2232 74.3737 43.6863 74.7103 44.5541C74.5474 43.4383 73.4653 42.8039 71.6918 43.0081H71.6954ZM68.438 47.6789C68.467 48.0362 68.3476 48.4701 68.0616 48.9477L66.8854 50.924C66.1108 52.222 65.9226 54.315 66.3859 55.8427C66.0602 54.3624 66.2809 52.5065 66.9867 51.3178L68.163 49.3452C68.5611 48.6743 68.6371 48.0945 68.4344 47.6862L68.438 47.6789ZM67.7576 59.1571C67.9494 60.2656 67.1894 60.8745 65.8213 60.5573L63.5918 60.0395C61.9559 59.6603 59.6033 60.2838 58.3655 61.4251L56.6789 62.982C55.6438 63.9373 54.6847 63.7842 54.3083 62.7231C54.5689 64.1269 55.6293 64.4369 56.7803 63.3722L58.4668 61.8152C59.7047 60.674 62.0572 60.0468 63.6931 60.4297L65.9226 60.9474C67.4427 61.3011 68.2137 60.5062 67.754 59.1535L67.7576 59.1571ZM51.04 55.1281L49.053 53.9941C48.5717 53.7206 48.2568 53.4034 48.1048 53.0789C48.1301 53.5347 48.4812 54.005 49.1544 54.3879L51.1414 55.5219C52.3394 56.2037 53.4396 57.7132 53.8776 59.1608C53.5337 57.6002 52.3466 55.8719 51.0364 55.1281H51.04Z" fill="white"/>
</g>
<path d="M67.5295 58.4498L66.5813 56.3532C66.5089 56.1891 66.4437 56.0178 66.3858 55.8354C66.4582 56.16 66.5559 56.4699 66.6826 56.747L67.6309 58.8436C67.6815 58.953 67.7214 59.0551 67.7539 59.1608C67.7141 58.942 67.6417 58.705 67.5259 58.4534L67.5295 58.4498ZM53.8811 59.1608C53.9209 59.3468 53.9499 59.5291 53.9644 59.7077L54.1634 62.0012C54.1888 62.2783 54.2394 62.5226 54.3118 62.7304C54.2901 62.6247 54.2756 62.5117 54.2648 62.395L54.0657 60.1015C54.0404 59.7989 53.9752 59.4817 53.8775 59.1608H53.8811Z" fill="#16161A"/>
<path opacity="0.5" d="M66.8889 50.9203C66.0239 52.3715 65.8864 54.8145 66.5849 56.3568L67.5332 58.4534C68.2281 59.9921 67.4608 60.9401 65.8248 60.5609L63.599 60.0468C62.5747 59.8098 61.2717 59.9629 60.1389 60.3932C59.4585 60.6521 58.8396 61.0057 58.3763 61.436L58.0795 61.7095L57.2435 62.4825L56.6897 62.9929C56.3133 63.3393 55.9477 63.5399 55.6184 63.6018C54.8583 63.7513 54.2756 63.1789 54.1743 62.0048L54.1489 61.6985L54.0223 60.2473L53.9752 59.7113C53.8992 58.8435 53.5119 57.8736 52.9546 57.0241C52.542 56.3969 52.0389 55.8391 51.4996 55.4307C51.3512 55.3177 51.2028 55.2192 51.0508 55.1317L49.0638 53.9977C47.6016 53.1664 47.6704 51.9449 49.2158 51.2813L51.3186 50.3807C51.9737 50.0999 52.6288 49.5967 53.1898 48.9842C53.9535 48.1528 54.5435 47.1173 54.7353 46.1657L55.1913 43.9087C55.4809 42.472 56.4074 42.0454 57.3665 42.7966C57.5113 42.9096 57.6597 43.0518 57.8008 43.2159H57.8045L58.5898 44.1311L59.2992 44.9515C59.6286 45.3343 60.0629 45.6844 60.5587 45.9761C60.6167 46.0125 60.6782 46.049 60.7397 46.0818C60.975 46.2131 61.2211 46.3297 61.4708 46.4318C62.1368 46.7089 62.8461 46.8876 63.5121 46.935C63.7944 46.9569 64.0731 46.9532 64.3337 46.9241L66.6066 46.6615C68.2751 46.4719 68.9338 47.5002 68.0688 48.9514L66.8925 50.9276L66.8889 50.9203Z" fill="#727272"/>
<g style="mix-blend-mode:multiply" opacity="0.2">
<path d="M66.6211 56.368L67.5621 58.4646C67.6888 58.749 67.7684 59.0115 67.7974 59.2522C68.1303 58.873 68.1593 58.2385 67.8046 57.4509L66.8636 55.3544C66.4329 54.3918 66.3279 53.0718 66.5197 51.8686C66.0456 53.2906 66.0565 55.1283 66.6175 56.3717L66.6211 56.368ZM55.3904 43.3984C55.8464 42.177 56.8888 42.053 57.8696 43.1979L59.3644 44.9371C60.4646 46.217 62.7267 47.1103 64.3952 46.9243L66.6645 46.6727C67.7865 46.5451 68.4488 46.9717 68.5031 47.7046C69.1546 46.3883 68.485 45.4804 66.9106 45.6554L64.6413 45.9107C62.9728 46.0966 60.7071 45.2033 59.6105 43.9235L58.1157 42.1842C57.0154 40.9044 55.8392 41.2144 55.499 42.8697L55.3904 43.4021V43.3984ZM52.2452 41.8233C52.3176 41.5936 52.3791 41.3638 52.4262 41.1378L53.1102 37.7979C53.0451 37.9947 52.9908 38.2062 52.9437 38.4323L52.2452 41.8196V41.8233ZM48.3363 51.8576C48.539 51.6206 48.8467 51.4092 49.2556 51.2341L51.3621 50.3408C52.9075 49.6845 54.453 47.7921 54.7932 46.1367L54.8945 45.6409C54.377 47.154 52.9944 48.7365 51.6082 49.3235L49.5018 50.2205C48.5463 50.6252 48.1518 51.2487 48.3363 51.8613V51.8576ZM42.7771 55.0554L46.0562 56.9368C48.463 58.3187 50.6237 61.7243 50.859 64.5064L51.1775 68.2911C51.4127 71.0732 53.2803 71.8097 55.3288 69.9319L58.1157 67.3723C60.1642 65.4945 64.0478 64.4772 66.7441 65.1116L70.4141 65.9758C72.4446 66.4534 73.6679 65.6877 73.6643 64.1964C73.2119 64.9877 72.155 65.3085 70.6639 64.9585L66.9903 64.0943C64.2939 63.4599 60.4067 64.4772 58.3618 66.355L55.575 68.9146C53.5264 70.7961 51.6589 70.0559 51.4272 67.2738L51.1051 63.4891C50.8699 60.7107 48.7091 57.3014 46.3023 55.9195L43.0268 54.0381C41.9374 53.4146 41.3655 52.6562 41.304 51.9196C40.6996 52.9369 41.181 54.1365 42.7807 55.0554H42.7771Z" fill="#181A19"/>
</g>
<path d="M55.1298 38.4139C55.0936 38.2826 54.9597 38.206 54.8294 38.2425C54.6991 38.2789 54.6231 38.4139 54.6593 38.5451C54.6955 38.6764 54.8294 38.753 54.9597 38.7165C55.09 38.68 55.166 38.5451 55.1298 38.4139Z" fill="white"/>
<g style="mix-blend-mode:multiply">
<path d="M55.1301 38.414C55.1663 38.5453 55.0903 38.6802 54.96 38.7167C54.837 38.7495 54.7103 38.6839 54.6669 38.5672C54.7212 38.6328 54.808 38.6656 54.8949 38.6401C55.0107 38.6073 55.0795 38.487 55.0469 38.3666C55.0324 38.312 54.9998 38.2682 54.9564 38.2427C55.036 38.2646 55.1048 38.3265 55.1265 38.414H55.1301Z" fill="#A6A8AB"/>
</g>
<path d="M55.8935 41.1922C55.8573 41.0609 55.7234 40.9843 55.5931 41.0208C55.4628 41.0573 55.3868 41.1922 55.423 41.3234C55.4591 41.4547 55.5931 41.5313 55.7234 41.4948C55.8537 41.4583 55.9297 41.3234 55.8935 41.1922Z" fill="white"/>
<g style="mix-blend-mode:multiply">
<path d="M55.8938 41.1921C55.93 41.3234 55.854 41.4583 55.7237 41.4948C55.6007 41.5276 55.474 41.462 55.4305 41.3453C55.4848 41.4109 55.5717 41.4437 55.6586 41.4219C55.7744 41.389 55.8431 41.2687 55.8106 41.1484C55.7961 41.0937 55.7635 41.0499 55.7201 41.0244C55.7997 41.0463 55.8685 41.1083 55.8902 41.1958L55.8938 41.1921Z" fill="#A6A8AB"/>
</g>
<path d="M70.7942 46.1985C70.758 46.0673 70.6241 45.9907 70.4938 46.0271C70.3635 46.0636 70.2875 46.1985 70.3237 46.3298C70.3598 46.461 70.4938 46.5376 70.6241 46.5012C70.7544 46.4647 70.8304 46.3298 70.7942 46.1985Z" fill="white"/>
<g style="mix-blend-mode:multiply">
<path d="M70.7945 46.1987C70.8307 46.33 70.7547 46.4649 70.6244 46.5014C70.5013 46.5342 70.3747 46.4685 70.3312 46.3519C70.3855 46.4175 70.4724 46.4503 70.5629 46.4248C70.6787 46.392 70.7475 46.2716 70.7149 46.1513C70.7004 46.1003 70.6678 46.0529 70.6244 46.0273C70.704 46.0492 70.7728 46.1112 70.7945 46.1987Z" fill="#A6A8AB"/>
</g>
<path d="M59.3101 42.4358C59.2739 42.3046 59.14 42.228 59.0097 42.2645C58.8794 42.3009 58.8034 42.4358 58.8396 42.5671C58.8758 42.6984 59.0097 42.7749 59.14 42.7385C59.2703 42.702 59.3463 42.5671 59.3101 42.4358Z" fill="white"/>
<g style="mix-blend-mode:multiply">
<path d="M59.3104 42.4358C59.3466 42.5671 59.2706 42.702 59.1403 42.7384C59.0173 42.7712 58.8906 42.7056 58.8472 42.5889C58.9015 42.6546 58.9883 42.6874 59.0788 42.6655C59.1946 42.6327 59.2634 42.5124 59.2308 42.392C59.2163 42.341 59.1838 42.2936 59.1403 42.2681C59.22 42.2899 59.2887 42.3519 59.3141 42.4394L59.3104 42.4358Z" fill="#A6A8AB"/>
</g>
<path d="M61.0184 43.7371C60.9822 43.6058 60.8483 43.5293 60.718 43.5657C60.5877 43.6022 60.5117 43.7371 60.5479 43.8684C60.5841 43.9996 60.718 44.0762 60.8483 44.0397C60.9786 44.0033 61.0546 43.8684 61.0184 43.7371Z" fill="white"/>
<g style="mix-blend-mode:multiply">
<path d="M61.0188 43.7373C61.0549 43.8686 60.9789 44.0035 60.8486 44.0399C60.7256 44.0727 60.5989 44.0071 60.5555 43.8904C60.6098 43.9561 60.6966 43.9889 60.7835 43.9634C60.8993 43.9305 60.9681 43.8102 60.9355 43.6899C60.921 43.6352 60.8885 43.5914 60.845 43.5659C60.9247 43.5878 60.9934 43.6498 61.0151 43.7373H61.0188Z" fill="#A6A8AB"/>
</g>
<path d="M63.3782 44.5906C63.342 44.4593 63.2081 44.3828 63.0778 44.4192C62.9475 44.4557 62.8715 44.5906 62.9077 44.7219C62.9439 44.8531 63.0778 44.9297 63.2081 44.8932C63.3384 44.8568 63.4144 44.7219 63.3782 44.5906Z" fill="white"/>
<g style="mix-blend-mode:multiply">
<path d="M63.3786 44.5906C63.4147 44.7218 63.3387 44.8568 63.2084 44.8932C63.0854 44.926 62.9587 44.8604 62.9153 44.7437C62.9696 44.8093 63.0564 44.8422 63.1433 44.8203C63.2591 44.7875 63.3279 44.6671 63.2953 44.5468C63.2808 44.4921 63.2483 44.4484 63.2048 44.4229C63.2845 44.4447 63.3532 44.5067 63.3786 44.5942V44.5906Z" fill="#A6A8AB"/>
</g>
<path d="M65.9986 44.8787C65.9624 44.7474 65.8285 44.6709 65.6982 44.7073C65.5679 44.7438 65.4919 44.8787 65.5281 45.01C65.5643 45.1412 65.6982 45.2178 65.8285 45.1813C65.9588 45.1449 66.0348 45.01 65.9986 44.8787Z" fill="white"/>
<g style="mix-blend-mode:multiply">
<path d="M65.9989 44.8787C66.0351 45.0099 65.9591 45.1448 65.8288 45.1813C65.7058 45.2141 65.5791 45.1485 65.5356 45.0318C65.5899 45.0974 65.6768 45.1303 65.7637 45.1084C65.8795 45.0756 65.9482 44.9552 65.9157 44.8349C65.9012 44.7802 65.8686 44.7365 65.8252 44.7109C65.9048 44.7328 65.9736 44.7948 65.9989 44.8823V44.8787Z" fill="#A6A8AB"/>
</g>
<path d="M69.0135 44.948C68.9773 44.8168 68.8434 44.7402 68.7131 44.7767C68.5828 44.8131 68.5068 44.948 68.543 45.0793C68.5791 45.2106 68.7131 45.2871 68.8434 45.2507C68.9736 45.2142 69.0497 45.0793 69.0135 44.948Z" fill="white"/>
<g style="mix-blend-mode:multiply">
<path d="M69.0138 44.948C69.05 45.0793 68.974 45.2142 68.8437 45.2506C68.7206 45.2835 68.594 45.2178 68.5505 45.1011C68.6048 45.1668 68.6917 45.1996 68.7786 45.1777C68.8944 45.1449 68.9631 45.0246 68.9306 44.9042C68.9161 44.8496 68.8835 44.8058 68.8401 44.7803C68.9197 44.8022 68.9885 44.8641 69.0102 44.9516L69.0138 44.948Z" fill="#A6A8AB"/>
</g>
<path d="M72.5568 45.4549C72.5206 45.3236 72.3867 45.247 72.2564 45.2835C72.1261 45.32 72.0501 45.4549 72.0863 45.5861C72.1225 45.7174 72.2564 45.794 72.3867 45.7575C72.517 45.721 72.593 45.5861 72.5568 45.4549Z" fill="white"/>
<g style="mix-blend-mode:multiply">
<path d="M72.5571 45.4548C72.5933 45.5861 72.5173 45.721 72.387 45.7575C72.264 45.7903 72.1373 45.7247 72.0939 45.608C72.1482 45.6736 72.235 45.7064 72.3219 45.6845C72.4377 45.6517 72.5065 45.5314 72.4739 45.4111C72.4594 45.3564 72.4268 45.3126 72.3834 45.2871C72.463 45.309 72.5318 45.371 72.5535 45.4585L72.5571 45.4548Z" fill="#A6A8AB"/>
</g>
<path d="M70.6023 48.1931C70.5661 48.0619 70.4322 47.9853 70.3019 48.0218C70.1716 48.0582 70.0956 48.1931 70.1318 48.3244C70.168 48.4557 70.3019 48.5322 70.4322 48.4958C70.5625 48.4593 70.6385 48.3244 70.6023 48.1931Z" fill="white"/>
<g style="mix-blend-mode:multiply">
<path d="M70.6027 48.1931C70.6389 48.3244 70.5629 48.4593 70.4326 48.4958C70.3095 48.5286 70.1828 48.4629 70.1394 48.3463C70.1937 48.4119 70.2806 48.4447 70.3674 48.4228C70.4832 48.39 70.552 48.2697 70.5194 48.1494C70.505 48.0947 70.4724 48.0509 70.4289 48.0254C70.5086 48.0473 70.5773 48.1093 70.6027 48.1968V48.1931Z" fill="#A6A8AB"/>
</g>
<path d="M69.7337 50.2239C69.6975 50.0926 69.5636 50.0161 69.4333 50.0525C69.303 50.089 69.227 50.2239 69.2632 50.3552C69.2994 50.4864 69.4333 50.563 69.5636 50.5265C69.6939 50.4901 69.7699 50.3552 69.7337 50.2239Z" fill="white"/>
<g style="mix-blend-mode:multiply">
<path d="M69.7341 50.2239C69.7703 50.3551 69.6943 50.4901 69.564 50.5265C69.4409 50.5593 69.3142 50.4937 69.2708 50.377C69.3251 50.4427 69.412 50.4755 69.4988 50.4536C69.6146 50.4208 69.6834 50.3004 69.6508 50.1801C69.6364 50.1254 69.6038 50.0817 69.5604 50.0562C69.64 50.078 69.7087 50.14 69.7341 50.2275V50.2239Z" fill="#A6A8AB"/>
</g>
<path d="M68.9701 52.6487C68.9339 52.5175 68.8 52.4409 68.6697 52.4773C68.5394 52.5138 68.4634 52.6487 68.4996 52.78C68.5357 52.9112 68.6697 52.9878 68.8 52.9514C68.9303 52.9149 69.0063 52.78 68.9701 52.6487Z" fill="white"/>
<g style="mix-blend-mode:multiply">
<path d="M68.9704 52.6489C69.0066 52.7802 68.9306 52.9151 68.8003 52.9515C68.6772 52.9844 68.5506 52.9187 68.5071 52.8021C68.5614 52.8677 68.6483 52.9005 68.7352 52.875C68.851 52.8422 68.9197 52.7218 68.8872 52.6015C68.8727 52.5468 68.8401 52.5031 68.7967 52.4775C68.8763 52.4994 68.9451 52.5614 68.9668 52.6489H68.9704Z" fill="#A6A8AB"/>
</g>
<path d="M68.9193 55.2596C68.8832 55.1283 68.7492 55.0517 68.6189 55.0882C68.4886 55.1246 68.4126 55.2596 68.4488 55.3908C68.485 55.5221 68.6189 55.5987 68.7492 55.5622C68.8795 55.5257 68.9555 55.3908 68.9193 55.2596Z" fill="white"/>
<g style="mix-blend-mode:multiply">
<path d="M68.9197 55.2595C68.9559 55.3908 68.8799 55.5257 68.7496 55.5622C68.6265 55.595 68.4999 55.5293 68.4564 55.4127C68.5107 55.4783 68.5976 55.5111 68.6844 55.4892C68.8003 55.4564 68.869 55.3361 68.8364 55.2158C68.822 55.1647 68.7894 55.1173 68.746 55.0918C68.8256 55.1137 68.8944 55.1757 68.9161 55.2632L68.9197 55.2595Z" fill="#A6A8AB"/>
</g>
<path d="M69.5455 57.5418C69.5093 57.4105 69.3754 57.3339 69.2451 57.3704C69.1148 57.4069 69.0388 57.5418 69.075 57.673C69.1112 57.8043 69.2451 57.8809 69.3754 57.8444C69.5057 57.808 69.5817 57.673 69.5455 57.5418Z" fill="white"/>
<g style="mix-blend-mode:multiply">
<path d="M69.5459 57.542C69.582 57.6732 69.506 57.8082 69.3757 57.8446C69.2527 57.8774 69.126 57.8118 69.0826 57.6951C69.1369 57.7608 69.2237 57.7936 69.3106 57.768C69.4264 57.7352 69.4952 57.6149 69.4626 57.4946C69.4481 57.4399 69.4156 57.3961 69.3721 57.3706C69.4518 57.3925 69.5205 57.4545 69.5422 57.542H69.5459Z" fill="#A6A8AB"/>
</g>
<path d="M70.273 60.1819C70.2368 60.0507 70.1029 59.9741 69.9726 60.0105C69.8423 60.047 69.7663 60.1819 69.8025 60.3132C69.8387 60.4444 69.9726 60.521 70.1029 60.4846C70.2332 60.4481 70.3092 60.3132 70.273 60.1819Z" fill="white"/>
<g style="mix-blend-mode:multiply">
<path d="M70.2733 60.1821C70.3095 60.3134 70.2335 60.4483 70.1032 60.4848C69.9802 60.5176 69.8535 60.4519 69.8101 60.3353C69.8643 60.4009 69.9512 60.4337 70.0381 60.4082C70.1539 60.3754 70.2227 60.255 70.1901 60.1347C70.1756 60.08 70.143 60.0363 70.0996 60.0107C70.1792 60.0326 70.248 60.0946 70.2733 60.1821Z" fill="#A6A8AB"/>
</g>
<path d="M70.9136 62.5154C70.8774 62.3842 70.7435 62.3076 70.6132 62.344C70.4829 62.3805 70.4069 62.5154 70.4431 62.6467C70.4793 62.7779 70.6132 62.8545 70.7435 62.8181C70.8738 62.7816 70.9498 62.6467 70.9136 62.5154Z" fill="white"/>
<g style="mix-blend-mode:multiply">
<path d="M70.914 62.5154C70.9501 62.6466 70.8741 62.7816 70.7438 62.818C70.6208 62.8508 70.4941 62.7852 70.4507 62.6685C70.505 62.7342 70.5918 62.767 70.6787 62.7451C70.7945 62.7123 70.8633 62.592 70.8307 62.4716C70.8162 62.4169 70.7837 62.3732 70.7402 62.3477C70.8199 62.3695 70.8886 62.4315 70.9103 62.519L70.914 62.5154Z" fill="#A6A8AB"/>
</g>
<path d="M72.2781 63.7659C72.2419 63.6346 72.108 63.5581 71.9777 63.5945C71.8474 63.631 71.7714 63.7659 71.8076 63.8972C71.8438 64.0284 71.9777 64.105 72.108 64.0685C72.2383 64.0321 72.3143 63.8972 72.2781 63.7659Z" fill="white"/>
<g style="mix-blend-mode:multiply">
<path d="M72.2785 63.7659C72.3146 63.8971 72.2386 64.032 72.1083 64.0685C71.9853 64.1013 71.8586 64.0357 71.8152 63.919C71.8695 63.9846 71.9563 64.0175 72.0432 63.9956C72.159 63.9628 72.2278 63.8424 72.1952 63.7221C72.1807 63.6674 72.1482 63.6237 72.1047 63.5981C72.1844 63.62 72.2531 63.682 72.2748 63.7695L72.2785 63.7659Z" fill="#A6A8AB"/>
</g>
<path d="M68.6805 62.6282C68.6443 62.4969 68.5104 62.4204 68.3801 62.4568C68.2498 62.4933 68.1738 62.6282 68.21 62.7595C68.2462 62.8907 68.3801 62.9673 68.5104 62.9308C68.6407 62.8944 68.7167 62.7595 68.6805 62.6282Z" fill="white"/>
<g style="mix-blend-mode:multiply">
<path d="M68.6809 62.6282C68.7171 62.7594 68.6411 62.8943 68.5108 62.9308C68.3877 62.9636 68.261 62.898 68.2176 62.7813C68.2719 62.8469 68.3587 62.8798 68.4492 62.8579C68.565 62.8251 68.6338 62.7047 68.6012 62.5844C68.5868 62.5297 68.5542 62.486 68.5108 62.4604C68.5904 62.4823 68.6591 62.5443 68.6845 62.6318L68.6809 62.6282Z" fill="#A6A8AB"/>
</g>
<path d="M65.7199 62.2566C65.6837 62.1254 65.5498 62.0488 65.4195 62.0853C65.2892 62.1217 65.2132 62.2566 65.2494 62.3879C65.2856 62.5192 65.4195 62.5957 65.5498 62.5593C65.6801 62.5228 65.7561 62.3879 65.7199 62.2566Z" fill="white"/>
<g style="mix-blend-mode:multiply">
<path d="M65.7202 62.2566C65.7564 62.3879 65.6804 62.5228 65.5501 62.5592C65.4271 62.592 65.3004 62.5264 65.257 62.4097C65.3112 62.4754 65.3981 62.5082 65.4886 62.4863C65.6044 62.4535 65.6732 62.3332 65.6406 62.2128C65.6261 62.1581 65.5936 62.1144 65.5501 62.0889C65.6297 62.1107 65.6985 62.1727 65.7238 62.2602L65.7202 62.2566Z" fill="#A6A8AB"/>
</g>
<path d="M63.0235 62.4568C62.9873 62.3256 62.8534 62.249 62.7231 62.2855C62.5928 62.3219 62.5168 62.4568 62.553 62.5881C62.5892 62.7194 62.7231 62.7959 62.8534 62.7595C62.9837 62.723 63.0597 62.5881 63.0235 62.4568Z" fill="white"/>
<g style="mix-blend-mode:multiply">
<path d="M63.0239 62.4568C63.0601 62.5881 62.9841 62.723 62.8538 62.7594C62.7307 62.7922 62.604 62.7266 62.5606 62.6099C62.6149 62.6756 62.7018 62.7084 62.7886 62.6865C62.9044 62.6537 62.9732 62.5334 62.9406 62.413C62.9262 62.3583 62.8936 62.3146 62.8502 62.2891C62.9298 62.3109 62.9985 62.3729 63.0239 62.4604V62.4568Z" fill="#A6A8AB"/>
</g>
<path d="M60.6348 63.1424C60.5986 63.0111 60.4647 62.9345 60.3344 62.971C60.2041 63.0075 60.1281 63.1424 60.1643 63.2736C60.2005 63.4049 60.3344 63.4815 60.4647 63.445C60.595 63.4085 60.671 63.2736 60.6348 63.1424Z" fill="white"/>
<g style="mix-blend-mode:multiply">
<path d="M60.6351 63.1423C60.6713 63.2736 60.5953 63.4085 60.465 63.445C60.342 63.4778 60.2153 63.4122 60.1719 63.2955C60.2262 63.3611 60.313 63.3939 60.4035 63.372C60.5193 63.3392 60.5881 63.2189 60.5555 63.0986C60.541 63.0439 60.5085 63.0001 60.465 62.9746C60.5447 62.9965 60.6134 63.0585 60.6388 63.146L60.6351 63.1423Z" fill="#A6A8AB"/>
</g>
<path d="M58.3112 64.5789C58.275 64.4476 58.1411 64.3711 58.0108 64.4075C57.8805 64.444 57.8045 64.5789 57.8407 64.7102C57.8769 64.8414 58.0108 64.918 58.1411 64.8815C58.2714 64.8451 58.3474 64.7102 58.3112 64.5789Z" fill="white"/>
<g style="mix-blend-mode:multiply">
<path d="M58.3115 64.5789C58.3477 64.7101 58.2717 64.845 58.1414 64.8815C58.0184 64.9143 57.8917 64.8487 57.8483 64.732C57.9026 64.7976 57.9894 64.8304 58.0763 64.8086C58.1921 64.7758 58.2609 64.6554 58.2283 64.5351C58.2138 64.4804 58.1812 64.4367 58.1378 64.4111C58.2174 64.433 58.2862 64.495 58.3079 64.5825L58.3115 64.5789Z" fill="#A6A8AB"/>
</g>
<path d="M56.1903 66.3655C56.1541 66.2343 56.0202 66.1577 55.8899 66.1941C55.7596 66.2306 55.6836 66.3655 55.7198 66.4968C55.756 66.628 55.8899 66.7046 56.0202 66.6682C56.1505 66.6317 56.2265 66.4968 56.1903 66.3655Z" fill="white"/>
<g style="mix-blend-mode:multiply">
<path d="M56.1906 66.3655C56.2268 66.4967 56.1508 66.6317 56.0205 66.6681C55.8975 66.7009 55.7708 66.6353 55.7274 66.5186C55.7816 66.5843 55.8685 66.6171 55.9554 66.5952C56.0712 66.5624 56.14 66.4421 56.1074 66.3217C56.0929 66.267 56.0603 66.2233 56.0169 66.1978C56.0965 66.2196 56.1653 66.2816 56.1906 66.3691V66.3655Z" fill="#A6A8AB"/>
</g>
<path d="M54.1996 67.7185C54.1634 67.5873 54.0295 67.5107 53.8992 67.5472C53.7689 67.5836 53.6929 67.7185 53.7291 67.8498C53.7653 67.9811 53.8992 68.0576 54.0295 68.0212C54.1598 67.9847 54.2358 67.8498 54.1996 67.7185Z" fill="white"/>
<g style="mix-blend-mode:multiply">
<path d="M54.2 67.7185C54.2362 67.8498 54.1602 67.9847 54.0299 68.0211C53.9068 68.054 53.7801 67.9883 53.7367 67.8716C53.791 67.9373 53.8778 67.9701 53.9647 67.9482C54.0805 67.9154 54.1493 67.7951 54.1167 67.6748C54.1022 67.6201 54.0697 67.5763 54.0262 67.5508C54.1059 67.5727 54.1746 67.6346 54.2 67.7222V67.7185Z" fill="#A6A8AB"/>
</g>
<path d="M53.5554 69.2024C53.5192 69.0712 53.3853 68.9946 53.255 69.0311C53.1247 69.0675 53.0487 69.2024 53.0849 69.3337C53.1211 69.465 53.255 69.5415 53.3853 69.5051C53.5156 69.4686 53.5916 69.3337 53.5554 69.2024Z" fill="white"/>
<g style="mix-blend-mode:multiply">
<path d="M53.5557 69.2024C53.5919 69.3337 53.5159 69.4686 53.3856 69.505C53.2626 69.5378 53.1359 69.4722 53.0925 69.3555C53.1468 69.4212 53.2336 69.454 53.3241 69.4321C53.4399 69.3993 53.5087 69.279 53.4761 69.1586C53.4616 69.1039 53.4291 69.0602 53.3856 69.0347C53.4653 69.0565 53.534 69.1185 53.5557 69.206V69.2024Z" fill="#A6A8AB"/>
</g>
<path d="M53.3889 65.6946C53.3527 65.5634 53.2188 65.4868 53.0885 65.5232C52.9582 65.5597 52.8822 65.6946 52.9184 65.8259C52.9546 65.9571 53.0885 66.0337 53.2188 65.9972C53.3491 65.9608 53.4251 65.8259 53.3889 65.6946Z" fill="white"/>
<g style="mix-blend-mode:multiply">
<path d="M53.3892 65.6946C53.4254 65.8258 53.3494 65.9608 53.2191 65.9972C53.0961 66.03 52.9694 65.9644 52.926 65.8477C52.9803 65.9134 53.0671 65.9462 53.1576 65.9243C53.2734 65.8915 53.3422 65.7712 53.3096 65.6508C53.2951 65.5961 53.2626 65.5524 53.2191 65.5269C53.2988 65.5487 53.3675 65.6107 53.3892 65.6982V65.6946Z" fill="#A6A8AB"/>
</g>
<path d="M52.9148 63.0403C52.8786 62.9091 52.7447 62.8325 52.6144 62.8689C52.4841 62.9054 52.4081 63.0403 52.4443 63.1716C52.4805 63.3028 52.6144 63.3794 52.7447 63.343C52.875 63.3065 52.951 63.1716 52.9148 63.0403Z" fill="white"/>
<g style="mix-blend-mode:multiply">
<path d="M52.9151 63.0403C52.9513 63.1716 52.8753 63.3065 52.745 63.3429C52.622 63.3757 52.4953 63.3101 52.4518 63.1934C52.5061 63.2591 52.593 63.2919 52.6799 63.27C52.7957 63.2372 52.8644 63.1169 52.8319 62.9965C52.8174 62.9418 52.7848 62.8981 52.7414 62.8726C52.821 62.8944 52.8898 62.9564 52.9115 63.0439L52.9151 63.0403Z" fill="#A6A8AB"/>
</g>
<path d="M52.1982 60.4334C52.162 60.3021 52.028 60.2256 51.8978 60.262C51.7675 60.2985 51.6915 60.4334 51.7276 60.5646C51.7638 60.6959 51.8978 60.7725 52.028 60.736C52.1583 60.6996 52.2343 60.5646 52.1982 60.4334Z" fill="white"/>
<g style="mix-blend-mode:multiply">
<path d="M52.1985 60.4334C52.2347 60.5646 52.1587 60.6995 52.0284 60.736C51.9053 60.7688 51.7787 60.7032 51.7352 60.5865C51.7895 60.6521 51.8764 60.6849 51.9632 60.6631C52.0791 60.6302 52.1478 60.5099 52.1153 60.3896C52.1008 60.3385 52.0682 60.2911 52.0248 60.2656C52.1044 60.2875 52.1732 60.3495 52.1949 60.437L52.1985 60.4334Z" fill="#A6A8AB"/>
</g>
<path d="M51.3006 58.0852C51.2644 57.954 51.1305 57.8774 51.0002 57.9139C50.8699 57.9503 50.7939 58.0852 50.8301 58.2165C50.8663 58.3478 51.0002 58.4243 51.1305 58.3879C51.2608 58.3514 51.3368 58.2165 51.3006 58.0852Z" fill="white"/>
<g style="mix-blend-mode:multiply">
<path d="M51.3009 58.0852C51.3371 58.2165 51.2611 58.3514 51.1308 58.3878C51.0078 58.4207 50.8811 58.355 50.8376 58.2383C50.8919 58.304 50.9788 58.3368 51.0657 58.3149C51.1815 58.2821 51.2502 58.1618 51.2177 58.0415C51.2032 57.9868 51.1706 57.943 51.1272 57.9175C51.2068 57.9394 51.2756 58.0013 51.2973 58.0889L51.3009 58.0852Z" fill="#A6A8AB"/>
</g>
<path d="M49.1579 56.47C49.1217 56.3387 48.9878 56.2622 48.8575 56.2986C48.7272 56.3351 48.6512 56.47 48.6874 56.6013C48.7236 56.7325 48.8575 56.8091 48.9878 56.7726C49.1181 56.7362 49.1941 56.6013 49.1579 56.47Z" fill="white"/>
<g style="mix-blend-mode:multiply">
<path d="M49.1583 56.4702C49.1945 56.6015 49.1185 56.7364 48.9882 56.7728C48.8651 56.8057 48.7384 56.74 48.695 56.6233C48.7493 56.689 48.8362 56.7218 48.923 56.6963C49.0388 56.6634 49.1076 56.5431 49.075 56.4228C49.0606 56.3681 49.028 56.3244 48.9846 56.2988C49.0642 56.3207 49.1329 56.3827 49.1547 56.4702H49.1583Z" fill="#A6A8AB"/>
</g>
<path d="M47.066 55.0076C47.0298 54.8763 46.8958 54.7998 46.7655 54.8362C46.6353 54.8727 46.5592 55.0076 46.5954 55.1389C46.6316 55.2701 46.7655 55.3467 46.8958 55.3102C47.0261 55.2738 47.1021 55.1389 47.066 55.0076Z" fill="white"/>
<g style="mix-blend-mode:multiply">
<path d="M47.0663 55.0078C47.1025 55.1391 47.0265 55.274 46.8962 55.3104C46.7731 55.3432 46.6465 55.2776 46.603 55.1609C46.6573 55.2266 46.7442 55.2594 46.8347 55.2339C46.9505 55.201 47.0192 55.0807 46.9867 54.9604C46.9722 54.9057 46.9396 54.8619 46.8962 54.8364C46.9758 54.8583 47.0446 54.9203 47.0699 55.0078H47.0663Z" fill="#A6A8AB"/>
</g>
<path d="M45.412 53.2576C45.3758 53.1263 45.2419 53.0498 45.1116 53.0862C44.9813 53.1227 44.9053 53.2576 44.9415 53.3889C44.9776 53.5201 45.1116 53.5967 45.2419 53.5602C45.3721 53.5238 45.4482 53.3889 45.412 53.2576Z" fill="white"/>
<g style="mix-blend-mode:multiply">
<path d="M45.4123 53.2576C45.4485 53.3888 45.3725 53.5237 45.2422 53.5602C45.1191 53.593 44.9925 53.5274 44.949 53.4107C45.0033 53.4763 45.0902 53.5092 45.1807 53.4873C45.2965 53.4545 45.3653 53.3341 45.3327 53.2138C45.3182 53.1628 45.2856 53.1154 45.2422 53.0898C45.3218 53.1117 45.3906 53.1737 45.4159 53.2612L45.4123 53.2576Z" fill="#A6A8AB"/>
</g>
<path d="M43.3706 53.5711C43.3344 53.4398 43.2005 53.3632 43.0702 53.3997C42.9399 53.4362 42.8639 53.5711 42.9001 53.7023C42.9363 53.8336 43.0702 53.9102 43.2005 53.8737C43.3308 53.8373 43.4068 53.7023 43.3706 53.5711Z" fill="white"/>
<g style="mix-blend-mode:multiply">
<path d="M43.371 53.571C43.4072 53.7023 43.3312 53.8372 43.2009 53.8737C43.0778 53.9065 42.9511 53.8409 42.9077 53.7242C42.962 53.7898 43.0489 53.8226 43.1357 53.8008C43.2515 53.7679 43.3203 53.6476 43.2877 53.5273C43.2733 53.4726 43.2407 53.4288 43.1973 53.4033C43.2769 53.4252 43.3457 53.4872 43.3674 53.5747L43.371 53.571Z" fill="#A6A8AB"/>
</g>
<path d="M46.6606 51.6932C46.6244 51.5619 46.4905 51.4853 46.3602 51.5218C46.2299 51.5582 46.1539 51.6932 46.1901 51.8244C46.2263 51.9557 46.3602 52.0322 46.4905 51.9958C46.6208 51.9593 46.6968 51.8244 46.6606 51.6932Z" fill="white"/>
<g style="mix-blend-mode:multiply">
<path d="M46.661 51.6931C46.6972 51.8244 46.6212 51.9593 46.4909 51.9958C46.3678 52.0286 46.2411 51.9629 46.1977 51.8463C46.252 51.9119 46.3388 51.9447 46.4257 51.9228C46.5415 51.89 46.6103 51.7697 46.5777 51.6494C46.5632 51.5947 46.5307 51.5509 46.4872 51.5254C46.5669 51.5473 46.6356 51.6093 46.661 51.6968V51.6931Z" fill="#A6A8AB"/>
</g>
<path d="M48.6765 50.366C48.6404 50.2347 48.5064 50.1582 48.3761 50.1946C48.2458 50.2311 48.1698 50.366 48.206 50.4973C48.2422 50.6285 48.3761 50.7051 48.5064 50.6686C48.6367 50.6322 48.7127 50.4973 48.6765 50.366Z" fill="white"/>
<g style="mix-blend-mode:multiply">
<path d="M48.6769 50.366C48.7131 50.4972 48.6371 50.6321 48.5068 50.6686C48.3837 50.7014 48.2571 50.6358 48.2136 50.5191C48.2679 50.5847 48.3548 50.6176 48.4416 50.5957C48.5575 50.5629 48.6262 50.4425 48.5937 50.3222C48.5792 50.2675 48.5466 50.2238 48.5032 50.1982C48.5828 50.2201 48.6516 50.2821 48.6769 50.3696V50.366Z" fill="#A6A8AB"/>
</g>
<path d="M50.812 48.638C50.7758 48.5067 50.6419 48.4301 50.5116 48.4666C50.3813 48.5031 50.3053 48.638 50.3415 48.7692C50.3777 48.9005 50.5116 48.9771 50.6419 48.9406C50.7722 48.9041 50.8482 48.7692 50.812 48.638Z" fill="white"/>
<g style="mix-blend-mode:multiply">
<path d="M50.8123 48.6379C50.8485 48.7692 50.7725 48.9041 50.6422 48.9406C50.5192 48.9734 50.3925 48.9078 50.3491 48.7911C50.4033 48.8567 50.4902 48.8895 50.5771 48.8677C50.6929 48.8348 50.7617 48.7145 50.7291 48.5942C50.7146 48.5395 50.682 48.4957 50.6386 48.4702C50.7182 48.4921 50.787 48.5541 50.8123 48.6416V48.6379Z" fill="#A6A8AB"/>
</g>
<path d="M52.057 47.0081C52.0208 46.8768 51.8869 46.8003 51.7566 46.8367C51.6263 46.8732 51.5503 47.0081 51.5865 47.1394C51.6227 47.2706 51.7566 47.3472 51.8869 47.3107C52.0172 47.2743 52.0932 47.1394 52.057 47.0081Z" fill="white"/>
<g style="mix-blend-mode:multiply">
<path d="M52.0573 47.0083C52.0935 47.1396 52.0175 47.2745 51.8872 47.3109C51.7642 47.3437 51.6375 47.2781 51.5941 47.1614C51.6483 47.2271 51.7352 47.2599 51.8221 47.2344C51.9379 47.2015 52.0067 47.0812 51.9741 46.9609C51.9596 46.9062 51.927 46.8624 51.8836 46.8369C51.9632 46.8588 52.032 46.9208 52.0573 47.0083Z" fill="#A6A8AB"/>
</g>
<path d="M53.0957 45.0862C53.0595 44.955 52.9256 44.8784 52.7953 44.9148C52.665 44.9513 52.589 45.0862 52.6252 45.2175C52.6614 45.3487 52.7953 45.4253 52.9256 45.3889C53.0559 45.3524 53.1319 45.2175 53.0957 45.0862Z" fill="white"/>
<g style="mix-blend-mode:multiply">
<path d="M53.0961 45.0862C53.1323 45.2174 53.0563 45.3524 52.926 45.3888C52.8029 45.4216 52.6762 45.356 52.6328 45.2393C52.6871 45.305 52.774 45.3378 52.8608 45.3159C52.9766 45.2831 53.0454 45.1628 53.0128 45.0424C52.9984 44.9877 52.9658 44.944 52.9224 44.9185C53.002 44.9403 53.0707 45.0023 53.0961 45.0898V45.0862Z" fill="#A6A8AB"/>
</g>
<path d="M53.9463 43.0481C53.9101 42.9169 53.7762 42.8403 53.6459 42.8768C53.5156 42.9132 53.4396 43.0481 53.4758 43.1794C53.5119 43.3107 53.6459 43.3872 53.7762 43.3508C53.9064 43.3143 53.9825 43.1794 53.9463 43.0481Z" fill="white"/>
<g style="mix-blend-mode:multiply">
<path d="M53.9466 43.0481C53.9828 43.1794 53.9068 43.3143 53.7765 43.3507C53.6534 43.3835 53.5268 43.3179 53.4833 43.2012C53.5376 43.2669 53.6245 43.2997 53.715 43.2778C53.8308 43.245 53.8996 43.1247 53.867 43.0043C53.8525 42.9496 53.8199 42.9059 53.7765 42.8804C53.8561 42.9022 53.9249 42.9642 53.9466 43.0517V43.0481Z" fill="#A6A8AB"/>
</g>
<path d="M54.2901 40.1492C54.2539 40.0179 54.12 39.9414 53.9897 39.9778C53.8594 40.0143 53.7834 40.1492 53.8196 40.2805C53.8558 40.4117 53.9897 40.4883 54.12 40.4518C54.2503 40.4154 54.3263 40.2805 54.2901 40.1492Z" fill="white"/>
<g style="mix-blend-mode:multiply">
<path d="M54.2905 40.1492C54.3267 40.2804 54.2507 40.4153 54.1204 40.4518C53.9973 40.4846 53.8706 40.419 53.8272 40.3023C53.8815 40.3679 53.9684 40.4008 54.0588 40.3789C54.1747 40.3461 54.2434 40.2257 54.2109 40.1054C54.1964 40.0507 54.1638 40.007 54.1204 39.9814C54.2 40.0033 54.2688 40.0653 54.2941 40.1528L54.2905 40.1492Z" fill="#A6A8AB"/>
</g>
<path d="M56.4146 39.3182C56.3785 39.1869 56.2445 39.1103 56.1142 39.1468C55.9839 39.1832 55.9079 39.3182 55.9441 39.4494C55.9803 39.5807 56.1142 39.6572 56.2445 39.6208C56.3748 39.5843 56.4508 39.4494 56.4146 39.3182Z" fill="white"/>
<g style="mix-blend-mode:multiply">
<path d="M56.415 39.3181C56.4512 39.4494 56.3752 39.5843 56.2449 39.6208C56.1218 39.6536 55.9952 39.5879 55.9517 39.4713C56.006 39.5369 56.0929 39.5697 56.1797 39.5478C56.2956 39.515 56.3643 39.3947 56.3317 39.2744C56.3173 39.2197 56.2847 39.1759 56.2413 39.1504C56.3209 39.1723 56.3897 39.2343 56.4114 39.3218L56.415 39.3181Z" fill="#A6A8AB"/>
</g>
<path d="M57.8371 40.9041C57.8009 40.7728 57.667 40.6963 57.5367 40.7327C57.4064 40.7692 57.3304 40.9041 57.3666 41.0354C57.4028 41.1666 57.5367 41.2432 57.667 41.2067C57.7973 41.1703 57.8733 41.0354 57.8371 40.9041Z" fill="white"/>
<g style="mix-blend-mode:multiply">
<path d="M57.8338 40.9077C57.8699 41.039 57.7939 41.1739 57.6636 41.2103C57.5406 41.2432 57.4139 41.1775 57.3705 41.0608C57.4248 41.1265 57.5116 41.1593 57.5985 41.1338C57.7143 41.1009 57.7831 40.9806 57.7505 40.8603C57.736 40.8056 57.7035 40.7619 57.66 40.7363C57.7397 40.7582 57.8084 40.8202 57.8301 40.9077H57.8338Z" fill="#A6A8AB"/>
</g>
<g style="mix-blend-mode:soft-light" opacity="0.4">
<path d="M60.5732 46.0417L54.0223 60.2911L53.968 59.7552C53.8811 58.8874 53.483 57.9248 52.9148 57.0788C52.4949 56.459 51.9846 55.9048 51.4381 55.5037L57.1494 42.793C57.2942 42.906 57.4425 43.0446 57.5909 43.2086H57.5946L58.3944 44.1165L59.1147 44.9296C59.4476 45.3089 59.8892 45.6516 60.385 45.9397C60.443 45.9725 60.5081 46.0089 60.5696 46.0417H60.5732Z" fill="white"/>
</g>
<g style="mix-blend-mode:soft-light" opacity="0.4">
<path d="M63.3565 46.8583L55.6619 63.6199C54.9054 63.7767 54.3155 63.2115 54.1997 62.0411L54.1707 61.7348L61.3116 46.377C61.9812 46.6468 62.6942 46.8145 63.3601 46.8546L63.3565 46.8583Z" fill="white"/>
</g>
</g>
<defs>
<clipPath id="clip0_446_5989">
<rect width="71" height="35" fill="white" transform="translate(41 36)"/>
</clipPath>
</defs>
</svg>
