<svg width="60" height="74" viewBox="0 0 60 74" fill="none" xmlns="http://www.w3.org/2000/svg">
<path d="M18.2569 6.49683L13.6807 58.4737C13.6807 58.4737 29.7455 63.5447 45.3305 58.4737L40.0762 7.42706L18.2569 6.49683Z" fill="#400100"/>
<path fill-rule="evenodd" clip-rule="evenodd" d="M28.5244 0.696365C28.5244 1.15397 29.1073 1.52456 29.8252 1.52456C30.544 1.52456 31.1261 1.15397 31.1261 0.696365V1.0089e-08C33.4305 0.143594 35.5942 0.678886 37.7579 1.67687C40.2711 2.8361 48.1192 9.21102 50.5885 11.3952C53.0573 13.5794 52.5727 15.3179 49.442 17.7252C46.3118 20.1324 36.6997 23.164 36.6997 23.164L40.0504 69.9715L45.6944 73.9167H33.9658L29.6669 33.3947L27.4182 33.1941C27.4182 33.1941 23.4968 73.5017 23.5803 73.9136C23.3731 73.852 12.9341 73.9167 12.9341 73.9167L17.8944 69.0354L20.8706 21.0242C18.1261 19.7874 11.3801 14.8723 9.29652 13.2006C7.21293 11.5289 7.74256 9.35545 10.1563 7.71746C12.3873 6.20349 22.217 0.819203 28.5244 0.0517653V0.696365ZM23.5822 73.9167C23.5814 73.9171 23.5808 73.9161 23.5803 73.9136C23.5837 73.9146 23.5843 73.9156 23.5822 73.9167ZM18.7246 15.4553C19.5992 16.1165 20.2085 16.5772 20.2425 16.5772C20.3415 16.5772 21.1023 16.1755 21.1023 16.1755L20.9039 7.01454L12.9341 11.2609C14.3708 12.1635 17.0399 14.1815 18.7246 15.4553ZM37.934 17.1458L39.0362 17.8589C39.0362 17.8589 45.0647 15.0061 47.143 14.4711L38.315 7.65541L37.934 17.1458Z" fill="#B81F0F"/>
<path d="M21.1754 17.4292L21.1427 16.2446C21.1427 16.2446 20.3968 16.6432 20.2998 16.6432C20.2546 16.6432 19.1539 15.7875 17.7797 14.7395L16.3833 18.2955C18.1579 19.5056 19.8469 20.5728 20.916 21.0612C20.916 21.0612 22.6019 21.659 22.7964 21.2381C22.991 20.8172 20.7215 19.8207 20.7215 19.8207C20.7215 19.8207 23.4018 20.5956 23.4666 19.8431C23.5315 19.09 21.1541 18.6914 21.1541 18.6914C21.1541 18.6914 23.8993 18.6473 23.8993 17.983C23.8993 17.3187 21.1754 17.4292 21.1754 17.4292Z" fill="#DC3A26"/>
<path d="M37.1966 21.6772L20.8014 22.274L20.7192 23.7008L36.6265 23.2225L37.1966 21.6772Z" fill="#680300"/>
<path d="M20.8019 23.5987L20.7192 24.9748C23.0951 29.1718 27.4382 33.3252 27.4382 33.3252L29.6624 33.5293C32.7369 29.618 36.6184 23.1226 36.6184 23.1226L20.8019 23.5987Z" fill="#DC3A26"/>
<path d="M23.6655 73.9994C23.6276 74.0188 24.9012 60.1648 25.3446 55.4151L18.7895 55.21L17.8286 69.0238L12.7698 73.9994C12.7698 73.9994 23.7991 73.9318 23.6655 73.9994Z" fill="#F09648"/>
<path d="M39.0079 55.21L31.9934 55.6203L33.9942 73.9999H45.8691L40.0875 70.0356L39.0079 55.21Z" fill="#F09648"/>
<path d="M29.9698 20.8101H27.3682V24.568H29.9698V20.8101Z" fill="#FF553E"/>
<path d="M39.1059 17.7279L38.0027 17.0163L37.8925 18.2617C37.8925 18.2617 34.9796 18.2842 35.0458 19.1736C35.0945 19.8307 36.5023 19.7111 37.2358 19.6038C36.4212 19.7533 34.7577 20.1142 34.8917 20.5525C35.068 21.1306 37.5838 20.8861 37.5838 20.8861C37.5838 20.8861 35.2227 22.6212 35.7523 22.9548C36.2819 23.2885 36.7676 23.0215 36.7676 23.0215C36.7676 23.0215 40.1498 21.9581 43.5563 20.5915L41.8488 16.4739C40.3214 17.1545 39.1059 17.7279 39.1059 17.7279Z" fill="#DC3A26"/>
<path fill-rule="evenodd" clip-rule="evenodd" d="M28.5245 0.696613C28.5245 1.15422 29.1075 1.52481 29.8254 1.52481C30.5441 1.52481 31.1262 1.15422 31.1262 0.696613V0.00024408C33.4307 0.143841 35.5944 0.679201 37.758 1.67766C38.1237 1.84617 38.6041 2.12755 39.1623 2.48756C38.339 6.0428 35.7427 14.4056 29.557 14.1595C22.5909 13.8824 21.2184 6.37339 20.8433 2.28803C23.5141 1.20728 26.2486 0.32905 28.5245 0.05205V0.696613Z" fill="#F09648"/>
</svg>
