<svg width="60" height="60" viewBox="0 0 60 60" fill="none" xmlns="http://www.w3.org/2000/svg">
<g clip-path="url(#clip0_446_6339)">
<path opacity="0.3" d="M44.8949 22.4364C47.4527 22.326 52.7155 22.0206 55.0491 23.8917C57.3827 25.7627 55.904 33.8413 52.9783 36.336C50.0526 38.8308 43.2867 38.8015 39.6392 37.0799C35.9916 35.3583 34.4815 28.6732 35.3364 26.237C36.1914 23.8007 37.3406 22.7613 44.8984 22.4364H44.8949Z" fill="#89D3EA"/>
<path opacity="0.3" d="M15.2207 22.4364C12.6594 22.326 7.4001 22.0206 5.07004 23.8917C2.73997 25.7627 4.21509 33.8413 7.14081 36.336C10.0665 38.8308 16.8325 38.8015 20.48 37.0799C24.1275 35.3583 25.6377 28.6732 24.7827 26.237C23.9278 23.8007 22.7785 22.7613 15.2207 22.4364Z" fill="#89D3EA"/>
<path d="M59.2988 21.3449C56.1908 20.6237 47.701 19.8799 44.5896 20.0163C37.6905 20.3216 35.1817 21.1305 33.9203 22.7969C33.3913 23.0145 32.0878 23.4368 29.968 23.4368C27.6239 23.4368 26.2504 22.9041 25.8615 22.7287C24.5335 21.2377 21.9372 20.5003 15.4095 20.2112C12.298 20.0748 3.80821 20.8186 0.700292 21.5398C-0.263268 21.7639 -0.130122 24.3041 0.476045 24.5575C1.54122 25.0025 1.62881 27.364 1.93715 29.5079C2.37163 32.5224 4.11655 36.2677 5.57766 37.5476C9.13407 40.6595 17.3646 40.6205 21.8005 38.4733C25.3254 36.7647 27.2105 31.1484 27.3121 27.39C27.8376 26.9645 28.6821 26.5455 29.9645 26.5455C31.3275 26.5455 32.1789 26.9807 32.687 27.4128C32.8552 31.1678 34.7332 36.6023 38.1915 38.2752C42.6274 40.4223 50.858 40.4613 54.4144 37.3494C55.8755 36.0728 57.6204 32.3242 58.0549 29.3098C58.3632 27.1659 58.4508 24.8044 59.516 24.3593C60.1257 24.106 60.2553 21.5625 59.2917 21.3416L59.2988 21.3449ZM20.476 37.0798C16.8285 38.8014 10.0626 38.8339 7.13687 36.3359C4.21115 33.8412 2.73253 25.7626 5.06609 23.8916C7.39966 22.0205 12.6589 22.3259 15.2168 22.4363C22.7746 22.7644 23.9238 23.8039 24.7788 26.2369C25.6337 28.6731 24.1236 35.3549 20.476 37.0798ZM52.9778 36.3359C50.0521 38.8307 43.2861 38.8014 39.6386 37.0798C35.9911 35.3582 34.481 28.6731 35.3359 26.2369C36.1908 23.8006 37.3401 22.7611 44.8979 22.4363C47.4557 22.3259 52.7185 22.0205 55.0521 23.8916C57.3856 25.7626 55.907 33.8412 52.9813 36.3359H52.9778Z" fill="#404040"/>
<path opacity="0.2" d="M10.5221 33.0744C10.5221 28.8223 13.4093 25.1972 17.4633 23.7907C16.801 23.7322 16.0582 23.6867 15.2243 23.651C12.9994 23.5535 8.43033 23.2904 6.4016 24.9146C4.37637 26.542 5.65878 33.5616 8.19908 35.7283C9.01197 36.4234 10.1682 36.8912 11.4682 37.1576C10.8585 35.9102 10.5186 34.5297 10.5186 33.0711L10.5221 33.0744Z" fill="white"/>
<path opacity="0.2" d="M41.9691 33.1787C41.9691 28.6797 45.1682 24.8727 49.576 23.6091C48.0834 23.5376 46.6223 23.6156 45.6307 23.6578C38.9979 23.9436 37.9853 24.8564 37.2354 26.9971C36.4856 29.1345 37.8136 35.0042 41.0126 36.5147C41.5557 36.7713 42.1794 36.9857 42.8521 37.1514C42.2845 35.9333 41.9656 34.5917 41.9656 33.1787H41.9691Z" fill="white"/>
</g>
<defs>
<clipPath id="clip0_446_6339">
<rect width="60" height="20" fill="white" transform="translate(0 20)"/>
</clipPath>
</defs>
</svg>
