<svg width="60" height="74" viewBox="0 0 60 74" fill="none" xmlns="http://www.w3.org/2000/svg">
<path fill-rule="evenodd" clip-rule="evenodd" d="M41.6463 9.37234L43.0546 16.5486C41.4556 17.2599 40.1584 17.8732 40.1584 17.8732L39.0551 17.1599L39.4365 7.66783L41.6463 9.37234ZM18.0033 14.0992L18.9142 8.67274L22.0061 7.02686L22.2048 16.1894C22.2048 16.1894 21.4431 16.5912 21.344 16.5912C21.31 16.5912 20.7 16.1304 19.8245 15.4691C19.2923 15.0671 18.662 14.591 18.0033 14.0992ZM17.3095 18.2327L14.7463 33.5029C14.7463 33.5029 17.2141 33.9115 21.1532 34.2481L21.9728 21.039C20.8741 20.5443 19.1348 19.4613 17.3095 18.2327ZM28.3879 34.6483C28.4772 33.7291 28.5276 33.2111 28.5276 33.2111L30.7788 33.4117L30.9139 34.684C30.0509 34.6814 29.2076 34.6688 28.3879 34.6483ZM38.6252 34.4263L37.8194 23.1791C37.8194 23.1791 40.7669 22.2504 43.9306 21.0127L46.3816 33.5029C43.784 33.9463 41.1729 34.2417 38.6252 34.4263Z" fill="#4E2600"/>
<path fill-rule="evenodd" clip-rule="evenodd" d="M29.603 0.938005C29.603 1.37099 30.1856 1.72165 30.9032 1.72165C31.6216 1.72165 32.2035 1.37099 32.2035 0.938005V0.00732422C34.6764 0.153524 37.1092 0.78053 39.2826 1.90868C38.9264 5.38223 39.4869 7.84843 39.4869 7.84843C39.4869 7.84843 39.3097 13.1054 39.1381 15.3445C38.9665 17.5837 39.0813 19.8584 39.0813 19.8584L38.7171 20.0619H22.2497L21.8441 7.23775C22.8581 5.40573 21.8441 2.35234 21.8441 2.35234C24.1895 1.01993 26.8739 0.236563 29.603 0.0295313V0.938005Z" fill="#FFD83B"/>
<path d="M22.0469 19.6558L19.8162 38.772C19.8162 38.772 28.2166 41.5981 40.298 39.1521L38.6757 19.6558H22.0469Z" fill="#FFD83B"/>
<path d="M38.8785 19.0464H22.2497L21.8441 21.133H38.6757L38.8785 19.0464Z" fill="#FFFDF7"/>
<path d="M22.1525 17.2829L22.1185 16.0473C22.1185 16.0473 21.3443 16.4631 21.2436 16.4631C21.1967 16.4631 20.0542 15.5706 18.6278 14.4775L17.1783 18.1864C19.0203 19.4486 20.7735 20.5616 21.8832 21.071C21.8832 21.071 23.6332 21.6946 23.8351 21.2556C24.037 20.8166 21.6813 19.7773 21.6813 19.7773C21.6813 19.7773 24.4634 20.5854 24.5307 19.8005C24.598 19.0151 22.1304 18.5994 22.1304 18.5994C22.1304 18.5994 24.9798 18.5534 24.9798 17.8605C24.9798 17.1676 22.1525 17.2829 22.1525 17.2829Z" fill="#D17C30"/>
<path d="M24.6432 73.9992C24.6057 74.0185 25.8665 61.3193 26.3055 56.6174L20.019 52.3525L18.958 69.117L14 73.9998C14 73.9998 24.7755 73.9324 24.6432 73.9992Z" fill="#383000"/>
<path d="M39.8924 52.7593L33.2003 57.0241L35.0221 73.9998H46.7452L41.1039 70.0534L39.8924 52.7593Z" fill="#383000"/>
<path fill-rule="evenodd" clip-rule="evenodd" d="M29.603 0.693572C29.603 1.12556 30.1856 1.4754 30.9032 1.4754C31.6216 1.4754 32.2034 1.12556 32.2034 0.693572V0C33.7145 0.0800325 35.2012 0.31952 36.3931 0.752958C35.8797 2.74218 33.606 5.175 31.1138 5.175C28.4617 5.175 26.2575 2.23681 25.6971 0.768836C26.6114 0.38235 28.029 0.116282 29.603 0.014898V0.693572Z" fill="#4E2600"/>
<path d="M40.1796 17.8084L39.0769 17.0662L38.9668 18.3652C38.9668 18.3652 36.0552 18.3886 36.1214 19.3162C36.1701 20.0017 37.5772 19.8769 38.3104 19.765C37.4962 19.9209 35.8334 20.2973 35.9673 20.7545C36.1436 21.3575 38.6582 21.1025 38.6582 21.1025C38.6582 21.1025 36.2982 22.9121 36.8276 23.2601C37.357 23.6081 37.8424 23.3297 37.8424 23.3297C37.8424 23.3297 41.223 22.2205 44.628 20.7951L42.9213 16.5005C41.3946 17.2104 40.1796 17.8084 40.1796 17.8084Z" fill="#D17C30"/>
<path d="M33.1011 11.3813L34.1383 10.8047L32.8783 9.97992L33.5991 8.71969H32.3752L32.3898 7.65014L31.4207 8.18845L31.0433 7.4707L30.4991 8.42202L29.5496 7.80044L29.5371 8.71969H28.2642L28.7622 9.66643L27.725 10.243L28.985 11.0682L28.2642 12.328H29.488L29.4735 13.398L30.4421 12.8593L30.82 13.577L31.3642 12.6257L32.3137 13.2477L32.3262 12.328H33.5991L33.1011 11.3813Z" fill="#D17C30"/>
</svg>
