<svg width="60" height="60" viewBox="0 0 60 60" fill="none" xmlns="http://www.w3.org/2000/svg">
<g clip-path="url(#clip0_447_5627)">
<path d="M27.1741 20.9201C26.1442 18.3986 24.0877 16.8199 22.507 16.3711C21.6271 16.1225 20.7569 15.9966 19.9258 15.9966C17.1751 15.9966 15.1969 17.3558 13.8932 18.8441C12.5929 17.3622 10.6113 15.9998 7.85739 15.9998C7.02632 15.9998 6.1594 16.1257 5.27618 16.3743C3.69552 16.8199 1.63903 18.3986 0.609151 20.9201C-0.117628 22.699 -0.560865 25.54 1.45 28.9752C3.91714 33.1981 11.8367 39.0578 12.7297 39.7132C13.0752 39.965 13.4826 40.0909 13.89 40.0909C14.2974 40.0909 14.708 39.965 15.0535 39.7132C15.9465 39.0578 23.8661 33.1981 26.3332 28.9752C28.3441 25.54 27.8976 22.699 27.1741 20.9201ZM24.645 28.0066C22.2984 32.0197 13.903 38.1506 13.8932 38.1571C13.8932 38.1571 5.48802 32.0197 3.14147 28.0066C0.0420685 22.7054 3.78351 18.8086 5.81067 18.2372C11.8204 16.5422 13.8867 22.5698 13.89 22.5827C13.8932 22.5698 15.9595 16.5422 21.9725 18.2372C23.9997 18.8086 27.7411 22.7054 24.6417 28.0066H24.645Z" fill="#FA413A"/>
<path opacity="0.6" d="M21.9728 18.238C15.963 16.543 13.8967 22.5707 13.8902 22.5836C13.8869 22.5707 11.8207 16.543 5.81089 18.238C3.78374 18.8094 0.0422907 22.7063 3.14169 28.0075C5.48824 32.0205 13.8837 38.1514 13.8935 38.1579C13.8935 38.1579 22.2987 32.0205 24.6452 28.0075C27.7446 22.7063 24.0032 18.8094 21.976 18.238H21.9728Z" fill="#FA413A"/>
<path opacity="0.2" d="M10.8691 18.7798L2.67896 27.1126C2.81258 27.4064 2.96576 27.7034 3.14175 28.0069C3.38292 28.4201 3.68928 28.8527 4.04452 29.3015L12.2086 19.8807C11.8338 19.4804 11.3873 19.0994 10.8691 18.7798Z" fill="white"/>
<path opacity="0.2" d="M9.68275 34.8286L25.3949 21.737C24.642 19.8096 23.0613 18.5408 21.9695 18.2341C20.1836 17.7304 18.7496 17.9112 17.6121 18.4116L14.3107 21.653C14.0206 22.1954 13.8902 22.5796 13.887 22.5829C13.887 22.5829 13.8381 22.4408 13.7371 22.2148L5.17542 30.6218C6.5149 32.0682 8.16727 33.5565 9.67949 34.8286H9.68275Z" fill="white"/>
<path d="M59.3873 20.9201C58.3574 18.3986 56.3009 16.8199 54.7202 16.3711C53.8403 16.1225 52.9701 15.9966 52.139 15.9966C49.3884 15.9966 47.4101 17.3558 46.1032 18.8441C44.8028 17.359 42.8213 15.9966 40.0673 15.9966C39.2363 15.9966 38.3694 16.1225 37.4861 16.3711C35.9055 16.8166 33.849 18.3954 32.8191 20.9201C32.0923 22.699 31.6491 25.54 33.66 28.9752C36.1304 33.1981 44.0467 39.0578 44.9397 39.7132C45.2852 39.965 45.6925 40.0909 46.0999 40.0909C46.5073 40.0909 46.918 39.965 47.2634 39.7132C48.1564 39.0578 56.076 33.1981 58.5432 28.9752C60.554 25.54 60.1108 22.699 59.384 20.9201H59.3873ZM56.8582 28.0066C54.5117 32.0197 46.1162 38.1506 46.1065 38.1571C46.1065 38.1571 37.7012 32.0197 35.3547 28.0066C32.2553 22.7054 35.9967 18.8086 38.0239 18.2372C44.0337 16.5422 46.0999 22.5698 46.1032 22.5827C46.1065 22.5698 48.1727 16.5422 54.1858 18.2372C56.2129 18.8086 59.9544 22.7054 56.855 28.0066H56.8582Z" fill="#FA413A"/>
<path opacity="0.6" d="M54.1858 18.238C48.1727 16.543 46.1097 22.5707 46.1032 22.5836C46.1 22.5707 44.0337 16.543 38.0239 18.238C35.9967 18.8094 32.2553 22.7063 35.3547 28.0075C37.7013 32.0205 46.0967 38.1514 46.1065 38.1579C46.1065 38.1579 54.5117 32.0205 56.8582 28.0075C59.9576 22.7063 56.2162 18.8094 54.189 18.238H54.1858Z" fill="#FA413A"/>
<path opacity="0.2" d="M43.0821 18.7764L34.892 27.1091C35.0256 27.4029 35.1788 27.7 35.3548 28.0034C35.5959 28.4167 35.9023 28.8493 36.2575 29.2981L44.4216 19.8773C44.0468 19.477 43.6035 19.096 43.0821 18.7764Z" fill="white"/>
<path opacity="0.2" d="M41.8958 34.8286L57.6079 21.737C56.855 19.8096 55.2744 18.5408 54.1826 18.2341C52.3966 17.7304 50.9626 17.9112 49.8251 18.4116L46.5237 21.653C46.2336 22.1954 46.1 22.5796 46.1 22.5829C46.1 22.5829 46.0511 22.4408 45.9501 22.2148L37.3884 30.6218C38.7279 32.0682 40.3803 33.5565 41.8925 34.8286H41.8958Z" fill="white"/>
<path d="M33.9012 21.8662H26.8126V23.6548H33.9012V21.8662Z" fill="#FA413A"/>
<path d="M34.1717 19.8032H25.7013V20.8686H34.1717V19.8032Z" fill="#FA413A"/>
</g>
<defs>
<clipPath id="clip0_447_5627">
<rect width="60" height="27" fill="white" transform="translate(0 16)"/>
</clipPath>
</defs>
</svg>
