<svg width="70" height="70" viewBox="0 0 70 70" fill="none" xmlns="http://www.w3.org/2000/svg">
<path d="M11.3159 37.4084C11.3159 37.4084 26.0501 37.544 28.5919 34.9851C31.5126 32.0437 22.6404 29.0305 22.1719 28.6638C21.1318 27.8348 6.59739 31.3183 6.07387 29.9552C4.462 25.7542 2.31283 18.5879 0.852503 18.5879C-0.607828 18.5879 -0.855808 39.5129 5.61924 45.0132C10.7304 49.3576 16.7853 51.0077 16.7853 51.0077L11.309 37.4005L11.3159 37.4084Z" fill="#FFDA44"/>
<path opacity="0.32" d="M24.886 36.4279C23.2053 35.838 21.4832 35.4076 19.6302 35.3518C16.1309 35.2482 11.9979 35.559 8.5124 35.2242C5.13711 34.9054 2.89151 33.893 0.501251 31.7407C1.20386 37.0816 2.75374 42.5659 5.63307 45.0132C10.7442 49.3576 16.7991 51.0077 16.7991 51.0077L11.3228 37.4004C11.3228 37.4004 19.6715 37.4722 24.886 36.42V36.4279Z" fill="#514700"/>
<path d="M58.6871 37.4087C58.6871 37.4087 43.953 37.5442 41.4112 34.9853C38.4905 32.0439 47.3627 29.0307 47.8311 28.664C48.8712 27.835 63.4057 31.3185 63.9292 29.9554C65.5479 25.7624 67.6971 18.5961 69.1505 18.5961C70.604 18.5961 70.8589 39.5211 64.3838 45.0214C59.2727 49.3658 53.2178 51.0159 53.2178 51.0159L58.694 37.4087H58.6871Z" fill="#FFDA44"/>
<path opacity="0.32" d="M61.7662 35.3439C59.2175 36.0534 57.9294 36.8346 55.0914 37.3607C57.1992 37.4244 58.6871 37.4085 58.6871 37.4085L53.2108 51.0157C53.2108 51.0157 59.2657 49.3656 64.3769 45.0212C67.332 42.5102 68.8818 36.8027 69.5638 31.3263C68.0828 33.0481 64.4802 34.5946 61.7662 35.3439Z" fill="#514700"/>
<path d="M42.4618 31.9478C42.4618 36.2868 38.9419 39.8066 34.603 39.8066C30.264 39.8066 26.7442 36.2868 26.7442 31.9478C26.7442 27.6088 30.264 24.089 34.603 24.089C38.9419 24.089 42.4618 27.6088 42.4618 31.9478Z" fill="#FFF1B2"/>
<path d="M34.6691 27L36.1061 30.1114L39.3333 30.6013L36.9939 33.0196L37.553 36.4333L34.6691 34.8125L31.7853 36.4333L32.3395 33.0196L30 30.6013L33.2321 30.1114L34.6691 27Z" fill="#BFAC34"/>
</svg>
