<svg width="70" height="74" viewBox="0 0 70 74" fill="none" xmlns="http://www.w3.org/2000/svg">
<path d="M6.50507 32.2509C6.50507 32.2509 6.75621 6.15396 35.0352 5.7327C35.0352 5.7327 43.0002 -0.244771 45.5518 0.00778343C48.1035 0.260338 46.0835 6.57421 46.0835 6.57421C46.0835 6.57421 50.4518 1.24934 51.754 1.8181C53.0562 2.38685 50.6821 7.12174 50.6821 7.12174C50.6821 7.12174 64.0811 13.373 63.7749 32.2509C63.4686 51.1289 64.9999 63 64.9999 63C40.2947 60.7543 27.4237 61.2271 4.99988 63L6.50507 32.2509Z" fill="#7B5E46"/>
<path d="M35.3301 64.6973C33.6901 64.6973 32.3584 63.8577 32.3584 62.8211V54.7859C32.3584 53.7504 33.6881 52.9097 35.3301 52.9097C36.9701 52.9097 38.3018 53.7492 38.3018 54.7859V62.8211C38.3018 63.8577 36.9721 64.6973 35.3301 64.6973Z" fill="#C8C7BF"/>
<path d="M62.4637 32.7416C61.6433 32.7416 60.8555 32.878 60.1162 33.1215C59.5281 20.0845 48.8686 9.68848 35.7672 9.68848C22.4334 9.68848 11.6154 20.4522 11.3843 33.8131C10.2565 33.1374 8.94482 32.7416 7.5363 32.7416C3.37488 32.7416 0 36.1363 0 40.3249C0 44.5123 3.37366 47.9083 7.5363 47.9083C10.0859 47.9083 12.3354 46.631 13.6992 44.6804C17.6004 53.0186 26.0019 58.8035 35.7672 58.8035C45.0835 58.8035 53.174 53.5483 57.287 45.8261C58.6375 47.1132 60.4562 47.9083 62.4637 47.9083C66.6251 47.9083 70 44.5136 70 40.3249C70 36.1363 66.6251 32.7416 62.4637 32.7416Z" fill="#C8C7BF"/>
<path d="M10.6241 32.7079C10.6241 32.7079 8.0581 46.5661 12.6255 47.3076C17.1929 48.0491 16.9813 31.9177 16.9813 31.9177C16.9813 31.9177 29.2506 30.3019 42.476 19.4761C42.476 19.4761 49.2487 30.3517 53.3113 33.4043C53.3113 33.4043 54.2571 47.5046 58.6435 47.8012C63.0312 48.0978 61.9604 32.0328 61.9604 32.0328C61.9604 32.0328 61.8826 9.91019 36.7626 8.5755C11.6427 7.242 9.44501 27.6989 10.6241 32.7079Z" fill="#7B5E46"/>
</svg>
