<svg width="60" height="60" viewBox="0 0 60 60" fill="none" xmlns="http://www.w3.org/2000/svg">
<path d="M57.023 33.0649C57.3498 30.1394 56.9086 28.3674 56.0105 25.1844L5.36749 25.0994C4.60253 26.8397 3.77397 27.9172 3.56628 30.491C3.3586 33.0649 3.86487 34.641 3.86487 34.641C29.6685 45.987 57.023 33.0649 57.023 33.0649Z" fill="#DD2D54"/>
<path d="M18.8157 35.0488C20.0009 34.1386 20.2506 32.4037 19.3735 31.1738C18.4964 29.9439 16.8246 29.6847 15.6394 30.5949C14.4542 31.5051 14.2044 33.24 15.0815 34.4699C15.9586 35.6998 17.6305 35.959 18.8157 35.0488Z" fill="white"/>
<path d="M45.23 34.5639C46.4152 33.6537 46.6649 31.9188 45.7878 30.6889C44.9107 29.459 43.2389 29.1998 42.0537 30.11C40.8685 31.0202 40.6187 32.7551 41.4958 33.985C42.3729 35.2149 44.0448 35.4741 45.23 34.5639Z" fill="white"/>
<path d="M11.3269 26.7201C11.795 28.8876 22.0369 26.266 21.4349 24.3871C20.832 22.5072 10.7923 24.2449 11.3269 26.7201Z" fill="#1F1F1F"/>
<path d="M39.4434 25.4618C39.2987 27.6781 49.8368 28.1816 49.7734 26.202C49.7114 24.2236 39.6088 22.9311 39.4434 25.4618Z" fill="#1F1F1F"/>
<path d="M29.4834 34.3691L28.1658 35.7311C28.1658 35.7311 28.7705 36.8609 30.1462 36.8049" stroke="#DE7651" stroke-width="1.07359" stroke-miterlimit="10" stroke-linecap="round" stroke-linejoin="round"/>
</svg>
