<svg width="70" height="74" viewBox="0 0 70 74" fill="none" xmlns="http://www.w3.org/2000/svg">
<path d="M6.51467 37.8821C6.51467 37.8821 6.76738 7.22846 35.2244 6.73364C35.2244 6.73364 43.2394 -0.287509 45.8071 0.00914244C48.3748 0.305794 46.3421 7.72208 46.3421 7.72208C46.3421 7.72208 50.738 1.46748 52.0483 2.13554C53.3587 2.8036 50.9697 8.36522 50.9697 8.36522C50.9697 8.36522 64.453 15.7079 64.1448 37.8821C63.8367 60.0562 65.3775 74 65.3775 74H5L6.51467 37.8821Z" fill="#2D3228"/>
<path d="M35.3301 64.6973C33.6901 64.6973 32.3584 63.8577 32.3584 62.8211V54.7859C32.3584 53.7504 33.6881 52.9097 35.3301 52.9097C36.9701 52.9097 38.3018 53.7492 38.3018 54.7859V62.8211C38.3018 63.8577 36.9721 64.6973 35.3301 64.6973Z" fill="#C8C7BF"/>
<path d="M62.4637 32.7416C61.6433 32.7416 60.8555 32.878 60.1162 33.1215C59.5281 20.0845 48.8686 9.68848 35.7672 9.68848C22.4334 9.68848 11.6154 20.4522 11.3843 33.8131C10.2565 33.1374 8.94482 32.7416 7.5363 32.7416C3.37488 32.7416 0 36.1363 0 40.3249C0 44.5123 3.37366 47.9083 7.5363 47.9083C10.0859 47.9083 12.3354 46.631 13.6992 44.6804C17.6004 53.0186 26.0019 58.8035 35.7672 58.8035C45.0835 58.8035 53.174 53.5483 57.287 45.8261C58.6375 47.1132 60.4562 47.9083 62.4637 47.9083C66.6251 47.9083 70 44.5136 70 40.3249C70 36.1363 66.6251 32.7416 62.4637 32.7416Z" fill="#C8C7BF"/>
<path d="M10.6241 32.7079C10.6241 32.7079 8.0581 46.5661 12.6255 47.3076C17.1929 48.0491 16.9813 31.9177 16.9813 31.9177C16.9813 31.9177 29.2506 30.3019 42.476 19.4761C42.476 19.4761 49.2487 30.3517 53.3113 33.4043C53.3113 33.4043 54.2571 47.5046 58.6435 47.8012C63.0312 48.0978 61.9604 32.0328 61.9604 32.0328C61.9604 32.0328 61.8826 9.91019 36.7626 8.5755C11.6427 7.242 9.44501 27.6989 10.6241 32.7079Z" fill="#2D3228"/>
</svg>
