<svg width="60" height="60" viewBox="0 0 60 60" fill="none" xmlns="http://www.w3.org/2000/svg">
<g clip-path="url(#clip0_446_6349)">
<path d="M26.475 25.257C26.475 25.257 29.7997 23.8944 33.2436 25.3039C34.5435 26.5915 35.0665 29.2324 35.0665 29.2324C35.0665 29.2324 32.3199 27.2541 30.0933 27.2541C27.8666 27.2541 24.9855 29.2324 24.9855 29.2324L26.475 25.257Z" fill="#EF2E78"/>
<g style="mix-blend-mode:multiply" opacity="0.1">
<path d="M26.475 25.257C26.475 25.257 29.7997 23.8944 33.2436 25.3039C34.5435 26.5915 35.0665 29.2324 35.0665 29.2324C35.0665 29.2324 32.3199 27.2541 30.0933 27.2541C27.8666 27.2541 24.9855 29.2324 24.9855 29.2324L26.475 25.257Z" fill="#181A19"/>
</g>
<g style="mix-blend-mode:multiply" opacity="0.2">
<path d="M35.0665 29.2293C35.0665 29.2293 32.3199 27.251 30.0933 27.251C27.8666 27.251 24.9855 29.2293 24.9855 29.2293L25.4381 28.0229C26.3955 27.451 28.3499 26.4165 29.9587 26.4165C31.9376 26.4165 34.3294 27.9792 34.8341 28.3261C34.9931 28.8605 35.0665 29.2293 35.0665 29.2293Z" fill="#181A19"/>
</g>
<g style="mix-blend-mode:soft-light" opacity="0.8">
<path d="M35.0665 29.2293C35.0665 29.2293 35.0145 29.1918 34.9167 29.1262C34.6781 28.2667 34.149 26.7134 33.2436 25.8164C29.7997 24.4038 26.475 25.7696 26.475 25.7696L25.2393 29.0636C25.0772 29.1668 24.9855 29.2293 24.9855 29.2293L26.475 25.257C26.475 25.257 29.7997 23.8944 33.2436 25.3039C34.5435 26.5915 35.0665 29.2293 35.0665 29.2293Z" fill="white"/>
</g>
<path d="M58.3147 27.4885L55.3785 26.2228C53.2222 25.2945 51.069 22.6161 50.5949 20.2753L49.9495 17.0843C49.4755 14.7403 47.8361 14.3059 46.3037 16.1155L44.2178 18.5782C42.6854 20.3878 39.529 21.6535 37.2014 21.3879L34.0327 21.0285C31.7052 20.7659 30.7937 22.2255 32.0049 24.2726L33.6535 27.0603C34.8647 29.1074 35.0665 32.5672 34.1 34.7455L32.7879 37.7146C31.8245 39.8929 32.9011 41.2337 35.1797 40.6899L38.2842 39.9492C40.5628 39.4054 43.8446 40.2773 45.5758 41.89L47.9309 44.084C49.662 45.6935 51.2403 45.0622 51.4391 42.6776L51.7082 39.4335C51.907 37.0489 53.733 34.1298 55.767 32.9485L58.535 31.3358C60.5689 30.1513 60.468 28.423 58.3117 27.4916L58.3147 27.4885ZM53.2008 30.3857L51.5217 31.3639C50.289 32.0827 49.1818 33.8517 49.0626 35.2956L48.9005 37.2614C48.7812 38.7053 47.8238 39.0897 46.7747 38.1115L45.3464 36.7832C44.2973 35.8081 42.3092 35.2768 40.9268 35.6081L39.0457 36.0582C37.6633 36.3894 37.0118 35.5769 37.596 34.2548L38.3912 32.4578C38.9754 31.1358 38.8531 29.0418 38.119 27.801L37.1188 26.1102C36.3848 24.8695 36.9384 23.985 38.3484 24.1444L40.2692 24.3601C41.6792 24.5195 43.5938 23.7537 44.5206 22.6568L45.7838 21.1629C46.7105 20.0659 47.7046 20.3315 47.9921 21.7504L48.3836 23.6819C48.6711 25.1008 49.974 26.7228 51.2831 27.2885L53.0632 28.0542C54.3692 28.6168 54.4304 29.6669 53.1977 30.3826L53.2008 30.3857Z" fill="#EF2E78"/>
<g style="mix-blend-mode:multiply" opacity="0.2">
<path d="M38.4707 28.5949C38.6359 29.6294 38.5472 30.7576 38.1801 31.5827L37.3849 33.3798C37.0852 34.058 37.1096 34.5987 37.3941 34.9237C37.4216 34.7205 37.4858 34.4924 37.5929 34.2486L38.3881 32.4516C38.8622 31.3827 38.8714 29.8107 38.4707 28.5918V28.5949ZM47.7871 20.8816C47.4996 19.4627 46.5056 19.1971 45.5758 20.294L44.3126 21.7848C43.3858 22.8818 41.4712 23.6475 40.0612 23.4881L38.1434 23.2694C36.813 23.1193 36.2471 23.8975 36.7977 25.0258C36.8405 24.3976 37.4033 24.0351 38.3514 24.1413L40.2691 24.357C41.6791 24.5164 43.5938 23.7507 44.5206 22.6537L45.7838 21.1629C46.6126 20.1815 47.4935 20.2909 47.8789 21.3348L47.7871 20.8785V20.8816ZM49.9495 17.0843C49.9098 16.8906 49.8639 16.7093 49.8088 16.5405L50.3869 19.4033C50.4267 19.5971 50.4756 19.794 50.5398 19.9909L49.9526 17.0875L49.9495 17.0843ZM52.8582 27.1854L51.0781 26.4166C49.9067 25.9103 48.7383 24.557 48.301 23.26L48.3866 23.685C48.6741 25.1039 49.9771 26.726 51.2861 27.2885L53.0662 28.0542C53.4149 28.2042 53.6718 28.3886 53.8431 28.5887C53.9991 28.0636 53.6657 27.5292 52.8582 27.1823V27.1854ZM59.789 28.6418C59.737 29.2762 59.2537 29.9232 58.3331 30.4576L55.5651 32.0703C53.5311 33.2548 51.7051 36.1738 51.5063 38.5584L51.2341 41.8025C51.0353 44.1872 49.4602 44.8185 47.729 43.2089L45.3739 41.015C43.6428 39.4054 40.3609 38.5303 38.0823 39.0772L34.9778 39.818C33.7146 40.118 32.8215 39.843 32.4423 39.1648C32.4423 40.443 33.473 41.0962 35.1889 40.6899L38.2903 39.9492C40.5689 39.4054 43.8507 40.2774 45.5819 41.8869L47.937 44.0809C49.6681 45.6936 51.2464 45.0591 51.4452 42.6745L51.7143 39.4304C51.9131 37.0458 53.7391 34.1267 55.773 32.9422L58.5441 31.3296C59.896 30.542 60.3028 29.5138 59.792 28.6418H59.789Z" fill="#181A19"/>
</g>
<path d="M37.911 26.9258L36.9108 25.235C36.868 25.1631 36.8313 25.0943 36.7977 25.0256C36.7762 25.3319 36.8802 25.7006 37.1188 26.1069L38.119 27.7977C38.2597 28.0353 38.3759 28.304 38.4738 28.5947C38.3759 27.9759 38.1862 27.3915 37.914 26.9258H37.911ZM47.9951 21.7534C47.9645 21.6033 47.9247 21.4658 47.8789 21.3408L48.1786 22.816C48.2092 22.9629 48.2489 23.1129 48.3009 23.2629L47.9951 21.7534Z" fill="#EF2E78"/>
<g style="mix-blend-mode:soft-light" opacity="0.8">
<path d="M58.3148 27.4883L55.3785 26.2226C53.2222 25.2943 51.069 22.6159 50.5949 20.2751L49.9496 17.0872C49.4755 14.7432 47.8361 14.3088 46.3038 16.1184L44.2178 18.5811C42.6855 20.3907 39.529 21.6565 37.2014 21.3908L34.0328 21.0314C32.5341 20.8626 31.6226 21.4064 31.488 22.3628C31.7725 21.619 32.635 21.2189 33.9471 21.3658L37.1158 21.7252C39.4434 21.9877 42.5998 20.7251 44.1322 18.9155L46.2181 16.4528C47.7505 14.6432 49.3899 15.0808 49.8639 17.4216L50.5093 20.6095C50.9834 22.9535 53.1336 25.6287 55.2929 26.5601L58.2291 27.8259C59.4464 28.3509 60.0092 29.1291 59.9022 29.9198C60.2417 29.0166 59.7034 28.0853 58.3148 27.4883ZM53.9961 29.5979C53.8707 29.8761 53.6046 30.1511 53.1978 30.3855L51.5217 31.3637C50.4175 32.0044 49.4174 33.4889 49.1329 34.8266C49.5 33.5827 50.4267 32.2888 51.436 31.7013L53.1121 30.723C53.681 30.3917 53.9747 29.9886 53.9961 29.5979ZM48.7751 37.8863C48.4601 38.7957 47.6495 38.9301 46.7748 38.1144L45.3464 36.7862C44.2973 35.8111 42.3093 35.2798 40.9268 35.611L39.0458 36.0611C37.8927 36.3361 37.2473 35.8142 37.4064 34.8641C37.021 36.0236 37.6755 36.7018 38.9601 36.3955L40.8412 35.9454C42.2236 35.6142 44.2117 36.1455 45.2608 37.1206L46.6891 38.4488C47.6648 39.3552 48.561 39.0864 48.7781 37.8863H48.7751ZM38.119 27.7977L37.1219 26.11C36.8803 25.7006 36.7794 25.3318 36.8008 25.0256C36.6326 25.3787 36.6968 25.8756 37.0363 26.4476L38.0334 28.1384C38.6359 29.1541 38.8256 30.748 38.5533 32.0169C38.9418 30.7043 38.7766 28.9135 38.119 27.804V27.7977Z" fill="white"/>
</g>
<path d="M48.8974 37.2613L49.0626 35.2955C49.0748 35.1423 49.0993 34.9861 49.1329 34.8267C49.0534 35.1017 48.9984 35.3705 48.9769 35.633L48.8118 37.5988C48.8026 37.702 48.7904 37.7957 48.7751 37.8864C48.8363 37.7082 48.8791 37.4988 48.8974 37.2613ZM38.5533 32.0139C38.5075 32.1701 38.4524 32.317 38.3912 32.4577L37.596 34.2547C37.5012 34.4735 37.437 34.6766 37.4064 34.861C37.4339 34.7735 37.4706 34.6829 37.5104 34.5891L38.3056 32.7921C38.4126 32.5545 38.4922 32.2889 38.5533 32.0107V32.0139Z" fill="#16161A"/>
<path opacity="0.5" d="M53.2008 30.3857L51.5247 31.364C50.2921 32.0797 49.1849 33.8517 49.0656 35.2956L48.9004 37.2615C48.7811 38.7054 47.8238 39.0898 46.7747 38.1147L45.3464 36.7864C44.6918 36.177 43.6672 35.7394 42.6548 35.58C42.0462 35.4831 41.4467 35.4863 40.9267 35.6113L40.5964 35.6894L39.6635 35.9113L39.0457 36.0582C37.6632 36.3864 37.0118 35.5769 37.5959 34.2549L38.3912 32.4578C38.6909 31.7765 38.8071 30.8889 38.746 30.0201C38.6879 29.2012 38.4768 28.4012 38.122 27.8011L37.1249 26.1134C36.3909 24.8727 36.9445 23.9882 38.3545 24.1476L40.2752 24.3664C40.8747 24.4351 41.5629 24.3351 42.2297 24.1163C43.132 23.8163 43.9914 23.2944 44.5267 22.6662L45.7899 21.1723C46.7197 20.0753 47.7106 20.3409 47.9981 21.7598V21.7661L48.2031 22.7818L48.3896 23.6944C48.4753 24.1195 48.6527 24.5633 48.8943 24.9914C49.4601 25.9915 50.3716 26.9041 51.2892 27.2979L53.0693 28.0636C54.3753 28.6262 54.4364 29.6763 53.2038 30.392L53.2008 30.3857Z" fill="#727272"/>
<path d="M48.2062 17.128C48.2337 17.0155 48.1695 16.8999 48.0594 16.8717C47.9493 16.8436 47.8361 16.9092 47.8086 17.0217C47.7811 17.1343 47.8453 17.2499 47.9554 17.278C48.0655 17.3062 48.1787 17.2405 48.2062 17.128Z" fill="white"/>
<g style="mix-blend-mode:multiply">
<path d="M48.2063 17.1282C48.1788 17.2408 48.0656 17.3095 47.9555 17.2783C47.8515 17.2501 47.7873 17.147 47.8056 17.0407C47.8178 17.1126 47.8668 17.1751 47.9432 17.197C48.0411 17.222 48.1451 17.1626 48.1696 17.0595C48.1818 17.0126 48.1757 16.9657 48.1543 16.9282C48.2032 16.9782 48.2277 17.0564 48.2093 17.1282H48.2063Z" fill="#A6A8AB"/>
</g>
<path d="M47.5974 19.5191C47.625 19.4066 47.5607 19.291 47.4506 19.2628C47.3405 19.2347 47.2274 19.3003 47.1998 19.4129C47.1723 19.5254 47.2365 19.641 47.3466 19.6691C47.4568 19.6973 47.5699 19.6316 47.5974 19.5191Z" fill="white"/>
<g style="mix-blend-mode:multiply">
<path d="M47.5974 19.5194C47.5699 19.6319 47.4567 19.7006 47.3466 19.6694C47.2426 19.6412 47.1784 19.5381 47.1967 19.4318C47.209 19.5037 47.2579 19.5662 47.3344 19.5881C47.4322 19.6131 47.5332 19.5537 47.5607 19.4506C47.5729 19.4037 47.5668 19.3568 47.5454 19.3193C47.5943 19.3693 47.6188 19.4475 47.6005 19.5225L47.5974 19.5194Z" fill="#A6A8AB"/>
</g>
<path d="M56.3909 29.6793C56.4184 29.5668 56.3542 29.4511 56.2441 29.423C56.134 29.3949 56.0208 29.4605 55.9933 29.573C55.9658 29.6855 56.03 29.8012 56.1401 29.8293C56.2502 29.8574 56.3634 29.7918 56.3909 29.6793Z" fill="white"/>
<g style="mix-blend-mode:multiply">
<path d="M56.3909 29.6795C56.3633 29.792 56.2502 29.8608 56.1401 29.8295C56.0361 29.8014 55.9718 29.6983 55.9902 29.592C56.0024 29.6639 56.0544 29.7264 56.1278 29.7483C56.2257 29.7733 56.3266 29.7139 56.3542 29.6108C56.3664 29.5639 56.3603 29.517 56.3389 29.4795C56.3878 29.5295 56.4123 29.6076 56.3939 29.6795H56.3909Z" fill="#A6A8AB"/>
</g>
<path d="M49.5734 21.919C49.6009 21.8065 49.5367 21.6909 49.4266 21.6627C49.3165 21.6346 49.2033 21.7003 49.1758 21.8128C49.1483 21.9253 49.2125 22.0409 49.3226 22.069C49.4327 22.0972 49.5459 22.0315 49.5734 21.919Z" fill="white"/>
<g style="mix-blend-mode:multiply">
<path d="M49.5733 21.9193C49.5458 22.0318 49.4327 22.1005 49.3225 22.0693C49.2186 22.0411 49.1543 21.938 49.1727 21.8318C49.1849 21.9036 49.2338 21.9661 49.3103 21.988C49.4082 22.013 49.5091 21.9536 49.5366 21.8505C49.5489 21.8036 49.5428 21.7567 49.5214 21.7192C49.5703 21.7692 49.5948 21.8474 49.5764 21.9193H49.5733Z" fill="#A6A8AB"/>
</g>
<path d="M50.2737 23.6256C50.3012 23.5131 50.237 23.3974 50.1269 23.3693C50.0168 23.3412 49.9036 23.4068 49.8761 23.5193C49.8486 23.6318 49.9128 23.7475 50.0229 23.7756C50.133 23.8037 50.2462 23.7381 50.2737 23.6256Z" fill="white"/>
<g style="mix-blend-mode:multiply">
<path d="M50.2737 23.6258C50.2461 23.7383 50.133 23.8071 50.0229 23.7758C49.9189 23.7477 49.8546 23.6446 49.873 23.5383C49.8852 23.6102 49.9342 23.6727 50.0106 23.6946C50.1085 23.7196 50.2094 23.6602 50.237 23.557C50.2492 23.5102 50.2431 23.4633 50.2217 23.4258C50.2706 23.4758 50.2951 23.5539 50.2767 23.6258H50.2737Z" fill="#A6A8AB"/>
</g>
<path d="M51.6409 25.2789C51.6684 25.1664 51.6042 25.0507 51.4941 25.0226C51.384 24.9945 51.2708 25.0601 51.2433 25.1726C51.2158 25.2851 51.28 25.4008 51.3901 25.4289C51.5002 25.457 51.6134 25.3914 51.6409 25.2789Z" fill="white"/>
<g style="mix-blend-mode:multiply">
<path d="M51.641 25.2791C51.6134 25.3916 51.5003 25.4604 51.3902 25.4291C51.2862 25.401 51.222 25.2979 51.2403 25.1916C51.2525 25.2635 51.3015 25.326 51.3779 25.3479C51.4758 25.3729 51.5767 25.3135 51.6043 25.2104C51.6165 25.1635 51.6104 25.1166 51.592 25.0791C51.641 25.1291 51.6654 25.2072 51.6471 25.2791H51.641Z" fill="#A6A8AB"/>
</g>
<path d="M53.4394 26.6261C53.4669 26.5135 53.4027 26.3979 53.2926 26.3698C53.1825 26.3416 53.0693 26.4073 53.0418 26.5198C53.0142 26.6323 53.0785 26.7479 53.1886 26.7761C53.2987 26.8042 53.4118 26.7386 53.4394 26.6261Z" fill="white"/>
<g style="mix-blend-mode:multiply">
<path d="M53.4393 26.6263C53.4118 26.7388 53.2986 26.8076 53.1885 26.7763C53.0845 26.7482 53.0203 26.645 53.0386 26.5388C53.0509 26.6107 53.0998 26.6732 53.1763 26.695C53.2742 26.72 53.3751 26.6607 53.4026 26.5575C53.4148 26.5107 53.4087 26.4638 53.3873 26.4263C53.4363 26.4763 53.4607 26.5544 53.4424 26.6263H53.4393Z" fill="#A6A8AB"/>
</g>
<path d="M55.6141 27.9825C55.6416 27.87 55.5774 27.7544 55.4672 27.7262C55.3571 27.6981 55.244 27.7637 55.2164 27.8762C55.1889 27.9888 55.2531 28.1044 55.3633 28.1325C55.4734 28.1606 55.5865 28.095 55.6141 27.9825Z" fill="white"/>
<g style="mix-blend-mode:multiply">
<path d="M55.614 27.9827C55.5865 28.0952 55.4733 28.164 55.3632 28.1328C55.2592 28.1046 55.195 28.0015 55.2133 27.8952C55.2256 27.9671 55.2745 28.0296 55.351 28.0515C55.4488 28.0765 55.5498 28.0171 55.5773 27.914C55.5895 27.8671 55.5834 27.8202 55.562 27.7827C55.6109 27.8327 55.6354 27.9109 55.6171 27.9827H55.614Z" fill="#A6A8AB"/>
</g>
<path d="M57.9936 29.8887C58.0211 29.7762 57.9569 29.6606 57.8468 29.6325C57.7367 29.6043 57.6235 29.67 57.596 29.7825C57.5684 29.895 57.6327 30.0106 57.7428 30.0388C57.8529 30.0669 57.966 30.0013 57.9936 29.8887Z" fill="white"/>
<g style="mix-blend-mode:multiply">
<path d="M57.9936 29.889C57.9661 30.0015 57.8529 30.0703 57.7428 30.039C57.6388 30.0109 57.5746 29.9077 57.593 29.8015C57.6052 29.8734 57.6541 29.9359 57.7306 29.9577C57.8285 29.9827 57.9294 29.9234 57.9569 29.8202C57.9692 29.7733 57.9631 29.7265 57.9416 29.689C57.9906 29.739 58.015 29.8171 57.9967 29.889H57.9936Z" fill="#A6A8AB"/>
</g>
<path d="M55.4156 31.0733C55.4431 30.9608 55.3789 30.8452 55.2688 30.817C55.1586 30.7889 55.0455 30.8545 55.018 30.9671C54.9904 31.0796 55.0547 31.1952 55.1648 31.2233C55.2749 31.2515 55.388 31.1858 55.4156 31.0733Z" fill="white"/>
<g style="mix-blend-mode:multiply">
<path d="M55.4121 31.0736C55.3846 31.1861 55.2714 31.2548 55.1613 31.2236C55.0573 31.1954 54.9931 31.0923 55.0114 30.986C55.0237 31.0579 55.0726 31.1204 55.1491 31.1423C55.2469 31.1673 55.3479 31.1079 55.3754 31.0048C55.3876 30.9579 55.3815 30.911 55.3601 30.8735C55.409 30.9235 55.4335 31.0017 55.4151 31.0736H55.4121Z" fill="#A6A8AB"/>
</g>
<path d="M53.9227 32.2047C53.9502 32.0922 53.8859 31.9765 53.7758 31.9484C53.6657 31.9203 53.5526 31.9859 53.525 32.0984C53.4975 32.2109 53.5617 32.3266 53.6718 32.3547C53.782 32.3828 53.8951 32.3172 53.9227 32.2047Z" fill="white"/>
<g style="mix-blend-mode:multiply">
<path d="M53.9226 32.2049C53.8951 32.3174 53.7819 32.3862 53.6718 32.3549C53.5678 32.3268 53.5036 32.2237 53.5219 32.1174C53.5342 32.1893 53.5831 32.2518 53.6596 32.2737C53.7574 32.2987 53.8584 32.2393 53.8859 32.1361C53.8981 32.0893 53.892 32.0424 53.8706 32.0049C53.9195 32.0549 53.944 32.133 53.9226 32.2049Z" fill="#A6A8AB"/>
</g>
<path d="M52.3474 33.6734C52.375 33.5609 52.3107 33.4453 52.2006 33.4171C52.0905 33.389 51.9774 33.4546 51.9498 33.5672C51.9223 33.6797 51.9865 33.7953 52.0966 33.8234C52.2068 33.8516 52.3199 33.7859 52.3474 33.6734Z" fill="white"/>
<g style="mix-blend-mode:multiply">
<path d="M52.3474 33.6737C52.3199 33.7862 52.2067 33.8549 52.0966 33.8237C51.9926 33.7955 51.9284 33.6924 51.9467 33.5861C51.959 33.658 52.0079 33.7205 52.0844 33.7424C52.1822 33.7674 52.2832 33.708 52.3107 33.6049C52.3229 33.558 52.3168 33.5111 52.2954 33.4736C52.3443 33.5236 52.3688 33.5986 52.3505 33.6737H52.3474Z" fill="#A6A8AB"/>
</g>
<path d="M51.2161 35.5894C51.2436 35.4769 51.1794 35.3613 51.0693 35.3332C50.9592 35.305 50.846 35.3707 50.8185 35.4832C50.791 35.5957 50.8552 35.7113 50.9653 35.7395C51.0754 35.7676 51.1886 35.7019 51.2161 35.5894Z" fill="white"/>
<g style="mix-blend-mode:multiply">
<path d="M51.2128 35.5897C51.1852 35.7022 51.0721 35.7709 50.9619 35.7397C50.858 35.7116 50.7937 35.6084 50.8121 35.5022C50.8243 35.574 50.8733 35.6365 50.9497 35.6584C51.0476 35.6834 51.1485 35.624 51.1761 35.5209C51.1883 35.474 51.1822 35.4272 51.1608 35.3896C51.2097 35.4397 51.2342 35.5178 51.2158 35.5897H51.2128Z" fill="#A6A8AB"/>
</g>
<path d="M50.7142 37.5553C50.7417 37.4427 50.6775 37.3271 50.5673 37.299C50.4572 37.2708 50.3441 37.3365 50.3165 37.449C50.289 37.5615 50.3532 37.6771 50.4634 37.7053C50.5735 37.7334 50.6866 37.6678 50.7142 37.5553Z" fill="white"/>
<g style="mix-blend-mode:multiply">
<path d="M50.7141 37.5555C50.6866 37.668 50.5734 37.7368 50.4633 37.7055C50.3593 37.6774 50.2951 37.5742 50.3134 37.468C50.3257 37.5399 50.3746 37.6024 50.4511 37.6242C50.5489 37.6492 50.6499 37.5899 50.6774 37.4867C50.6896 37.4399 50.6835 37.393 50.6621 37.3555C50.711 37.4055 50.7355 37.4836 50.7172 37.5555H50.7141Z" fill="#A6A8AB"/>
</g>
<path d="M50.1362 39.8272C50.1637 39.7147 50.0994 39.5991 49.9893 39.5709C49.8792 39.5428 49.7661 39.6085 49.7385 39.721C49.711 39.8335 49.7752 39.9491 49.8854 39.9772C49.9955 40.0054 50.1086 39.9397 50.1362 39.8272Z" fill="white"/>
<g style="mix-blend-mode:multiply">
<path d="M50.1361 39.8275C50.1086 39.94 49.9954 40.0087 49.8853 39.9775C49.7813 39.9493 49.7171 39.8462 49.7354 39.74C49.7477 39.8118 49.7966 39.8743 49.8731 39.8962C49.9709 39.9212 50.0719 39.8618 50.0994 39.7587C50.1116 39.7118 50.1055 39.6649 50.0841 39.6274C50.133 39.6774 50.1575 39.7556 50.1391 39.8275H50.1361Z" fill="#A6A8AB"/>
</g>
<path d="M49.6257 41.8336C49.6532 41.7211 49.589 41.6054 49.4788 41.5773C49.3687 41.5492 49.2556 41.6148 49.228 41.7273C49.2005 41.8398 49.2647 41.9555 49.3748 41.9836C49.485 42.0117 49.5981 41.9461 49.6257 41.8336Z" fill="white"/>
<g style="mix-blend-mode:multiply">
<path d="M49.6223 41.8338C49.5948 41.9463 49.4816 42.0151 49.3715 41.9838C49.2675 41.9557 49.2033 41.8526 49.2216 41.7463C49.2339 41.8182 49.2828 41.8807 49.3593 41.9026C49.4571 41.9276 49.5581 41.8682 49.5856 41.7651C49.5978 41.7182 49.5917 41.6713 49.5703 41.6338C49.6192 41.6838 49.6437 41.7588 49.6254 41.8338H49.6223Z" fill="#A6A8AB"/>
</g>
<path d="M50.0964 43.3526C50.1239 43.2401 50.0596 43.1245 49.9495 43.0963C49.8394 43.0682 49.7263 43.1338 49.6987 43.2464C49.6712 43.3589 49.7354 43.4745 49.8456 43.5026C49.9557 43.5308 50.0688 43.4651 50.0964 43.3526Z" fill="white"/>
<g style="mix-blend-mode:multiply">
<path d="M50.0963 43.3529C50.0688 43.4654 49.9556 43.531 49.8455 43.5029C49.7415 43.4747 49.6773 43.3716 49.6956 43.2653C49.7079 43.3372 49.7568 43.3997 49.8333 43.4216C49.9311 43.4466 50.0321 43.3872 50.0596 43.2841C50.0718 43.2372 50.0657 43.1903 50.0443 43.1528C50.0932 43.2028 50.1177 43.281 50.0994 43.356L50.0963 43.3529Z" fill="#A6A8AB"/>
</g>
<path d="M47.9432 40.9522C47.9707 40.8397 47.9065 40.7241 47.7963 40.6959C47.6862 40.6678 47.5731 40.7335 47.5455 40.846C47.518 40.9585 47.5822 41.0741 47.6924 41.1022C47.8025 41.1304 47.9156 41.0647 47.9432 40.9522Z" fill="white"/>
<g style="mix-blend-mode:multiply">
<path d="M47.9432 40.9525C47.9157 41.065 47.8025 41.1337 47.6924 41.1025C47.5884 41.0743 47.5242 40.9712 47.5425 40.865C47.5548 40.9368 47.6037 40.9993 47.6802 41.0212C47.7781 41.0462 47.879 40.9868 47.9065 40.8837C47.9188 40.8368 47.9126 40.7899 47.8912 40.7524C47.9402 40.8024 47.9646 40.8775 47.9463 40.9525H47.9432Z" fill="#A6A8AB"/>
</g>
<path d="M45.9336 39.399C45.9612 39.2865 45.8969 39.1709 45.7868 39.1427C45.6767 39.1146 45.5635 39.1802 45.536 39.2927C45.5085 39.4053 45.5727 39.5209 45.6828 39.549C45.7929 39.5771 45.9061 39.5115 45.9336 39.399Z" fill="white"/>
<g style="mix-blend-mode:multiply">
<path d="M45.9336 39.3992C45.9061 39.5118 45.7929 39.5805 45.6828 39.5493C45.5788 39.5211 45.5146 39.418 45.5329 39.3117C45.5451 39.3836 45.5941 39.4461 45.6705 39.468C45.7684 39.493 45.8693 39.4336 45.8969 39.3305C45.9091 39.2836 45.903 39.2367 45.8816 39.1992C45.9305 39.2492 45.955 39.3274 45.9366 39.3992H45.9336Z" fill="#A6A8AB"/>
</g>
<path d="M43.8783 38.3804C43.9059 38.2679 43.8416 38.1523 43.7315 38.1242C43.6214 38.096 43.5083 38.1617 43.4807 38.2742C43.4532 38.3867 43.5174 38.5023 43.6275 38.5305C43.7376 38.5586 43.8508 38.493 43.8783 38.3804Z" fill="white"/>
<g style="mix-blend-mode:multiply">
<path d="M43.8783 38.3807C43.8508 38.4932 43.7376 38.562 43.6275 38.5307C43.5235 38.5026 43.4593 38.3994 43.4776 38.2932C43.4898 38.3651 43.5388 38.4276 43.6152 38.4494C43.7131 38.4744 43.8141 38.4151 43.8416 38.3119C43.8538 38.265 43.8477 38.2182 43.8263 38.1807C43.8752 38.2307 43.8997 38.3088 43.8813 38.3807H43.8783Z" fill="#A6A8AB"/>
</g>
<path d="M41.8412 37.8551C41.8688 37.7425 41.8045 37.6269 41.6944 37.5988C41.5843 37.5707 41.4711 37.6363 41.4436 37.7488C41.4161 37.8613 41.4803 37.9769 41.5904 38.0051C41.7005 38.0332 41.8137 37.9676 41.8412 37.8551Z" fill="white"/>
<g style="mix-blend-mode:multiply">
<path d="M41.8412 37.8553C41.8136 37.9678 41.7005 38.0366 41.5904 38.0053C41.4864 37.9772 41.4221 37.874 41.4405 37.7678C41.4527 37.8397 41.5017 37.9022 41.5781 37.9241C41.676 37.9491 41.7769 37.8897 41.8045 37.7865C41.8167 37.7397 41.8106 37.6928 41.7892 37.6553C41.8381 37.7053 41.8626 37.7834 41.8442 37.8553H41.8412Z" fill="#A6A8AB"/>
</g>
<path d="M39.5381 37.9146C39.5657 37.8021 39.5014 37.6865 39.3913 37.6584C39.2812 37.6302 39.168 37.6959 39.1405 37.8084C39.113 37.9209 39.1772 38.0365 39.2873 38.0646C39.3974 38.0928 39.5106 38.0271 39.5381 37.9146Z" fill="white"/>
<g style="mix-blend-mode:multiply">
<path d="M39.5382 37.9149C39.5107 38.0274 39.3975 38.0961 39.2874 38.0649C39.1834 38.0368 39.1192 37.9336 39.1375 37.8274C39.1498 37.8992 39.1987 37.9617 39.2752 37.9836C39.373 38.0086 39.474 37.9492 39.5015 37.8461C39.5137 37.7992 39.5076 37.7523 39.4862 37.7148C39.5351 37.7648 39.5596 37.8399 39.5413 37.9149H39.5382Z" fill="#A6A8AB"/>
</g>
<path d="M37.2351 38.3209C37.2626 38.2084 37.1984 38.0927 37.0883 38.0646C36.9782 38.0365 36.865 38.1021 36.8375 38.2146C36.8069 38.3271 36.8742 38.4428 36.9843 38.4709C37.0944 38.499 37.2076 38.4334 37.2351 38.3209Z" fill="white"/>
<g style="mix-blend-mode:multiply">
<path d="M37.2351 38.3211C37.2076 38.4336 37.0944 38.5024 36.9843 38.4711C36.8803 38.443 36.8161 38.3399 36.8344 38.2336C36.8467 38.3055 36.8956 38.368 36.9721 38.3899C37.0699 38.4149 37.1709 38.3555 37.1984 38.2524C37.2106 38.2055 37.2045 38.1586 37.1831 38.1211C37.232 38.1711 37.2565 38.2492 37.2382 38.3211H37.2351Z" fill="#A6A8AB"/>
</g>
<path d="M35.2133 38.4644C35.2408 38.3519 35.1766 38.2363 35.0665 38.2082C34.9564 38.18 34.8432 38.2457 34.8157 38.3582C34.7882 38.4707 34.8524 38.5863 34.9625 38.6144C35.0726 38.6426 35.1858 38.5769 35.2133 38.4644Z" fill="white"/>
<g style="mix-blend-mode:multiply">
<path d="M35.2134 38.4647C35.1858 38.5772 35.0727 38.6459 34.9626 38.6147C34.8586 38.5866 34.7943 38.4834 34.8127 38.3772C34.8249 38.449 34.8769 38.5115 34.9503 38.5334C35.0482 38.5584 35.1491 38.499 35.1767 38.3959C35.1889 38.349 35.1828 38.3022 35.1614 38.2646C35.2103 38.3147 35.2348 38.3928 35.2164 38.4647H35.2134Z" fill="#A6A8AB"/>
</g>
<path d="M34.1153 39.2896C34.1428 39.1771 34.0786 39.0615 33.9685 39.0334C33.8584 39.0052 33.7452 39.0709 33.7177 39.1834C33.6901 39.2959 33.7544 39.4115 33.8645 39.4396C33.9746 39.4678 34.0877 39.4021 34.1153 39.2896Z" fill="white"/>
<g style="mix-blend-mode:multiply">
<path d="M34.1153 39.2899C34.0878 39.4024 33.9746 39.4711 33.8645 39.4399C33.7605 39.4118 33.6963 39.3086 33.7147 39.2024C33.7269 39.2742 33.7758 39.3367 33.8523 39.3586C33.9502 39.3836 34.0511 39.3242 34.0786 39.2211C34.0909 39.1742 34.0848 39.1273 34.0633 39.0898C34.1123 39.1398 34.1368 39.2149 34.1184 39.2899H34.1153Z" fill="#A6A8AB"/>
</g>
<path d="M35.4703 36.6178C35.4978 36.5052 35.4336 36.3896 35.3234 36.3615C35.2133 36.3333 35.1002 36.399 35.0726 36.5115C35.0451 36.624 35.1093 36.7396 35.2195 36.7678C35.3296 36.7959 35.4427 36.7303 35.4703 36.6178Z" fill="white"/>
<g style="mix-blend-mode:multiply">
<path d="M35.4703 36.618C35.4428 36.7305 35.3296 36.7993 35.2195 36.768C35.1155 36.7399 35.0513 36.6367 35.0696 36.5305C35.0819 36.6024 35.1308 36.6649 35.2073 36.6867C35.3052 36.7117 35.4061 36.6524 35.4336 36.5492C35.4459 36.5024 35.4397 36.4555 35.4214 36.418C35.4703 36.468 35.4948 36.5461 35.4734 36.618H35.4703Z" fill="#A6A8AB"/>
</g>
<path d="M36.238 34.439C36.2655 34.3265 36.2013 34.2109 36.0911 34.1828C35.981 34.1546 35.8679 34.2203 35.8403 34.3328C35.8128 34.4453 35.877 34.5609 35.9872 34.5891C36.0973 34.6172 36.2104 34.5516 36.238 34.439Z" fill="white"/>
<g style="mix-blend-mode:multiply">
<path d="M36.238 34.4393C36.2105 34.5518 36.0973 34.6205 35.9872 34.5893C35.8832 34.5612 35.819 34.458 35.8373 34.3518C35.8496 34.4237 35.8985 34.4862 35.975 34.508C36.0729 34.533 36.1738 34.4737 36.2013 34.3705C36.2136 34.3236 36.2074 34.2768 36.186 34.2393C36.235 34.2893 36.2594 34.3674 36.2411 34.4393H36.238Z" fill="#A6A8AB"/>
</g>
<path d="M36.81 32.1954C36.8375 32.0829 36.7733 31.9672 36.6632 31.9391C36.5531 31.911 36.4399 31.9766 36.4124 32.0891C36.3848 32.2016 36.4491 32.3173 36.5592 32.3454C36.6693 32.3735 36.7824 32.3079 36.81 32.1954Z" fill="white"/>
<g style="mix-blend-mode:multiply">
<path d="M36.81 32.1956C36.7825 32.3081 36.6693 32.3769 36.5592 32.3456C36.4552 32.3175 36.391 32.2144 36.4094 32.1081C36.4216 32.18 36.4705 32.2425 36.547 32.2644C36.6449 32.2894 36.7458 32.23 36.7733 32.1269C36.7856 32.08 36.7795 32.0331 36.758 31.9956C36.807 32.0456 36.8315 32.1237 36.8131 32.1956H36.81Z" fill="#A6A8AB"/>
</g>
<path d="M37.1403 30.0636C37.1678 29.951 37.1036 29.8354 36.9935 29.8073C36.8834 29.7791 36.7702 29.8448 36.7427 29.9573C36.7152 30.0698 36.7794 30.1854 36.8895 30.2136C36.9996 30.2417 37.1128 30.1761 37.1403 30.0636Z" fill="white"/>
<g style="mix-blend-mode:multiply">
<path d="M37.1404 30.0638C37.1128 30.1763 36.9997 30.2451 36.8896 30.2138C36.7856 30.1857 36.7213 30.0825 36.7397 29.9763C36.7519 30.0482 36.8039 30.1107 36.8773 30.1325C36.9752 30.1575 37.0761 30.0982 37.1037 29.995C37.1159 29.9482 37.1098 29.9013 37.0884 29.8638C37.1373 29.9138 37.1618 29.9919 37.1434 30.0638H37.1404Z" fill="#A6A8AB"/>
</g>
<path d="M36.2532 27.9415C36.2807 27.829 36.2165 27.7133 36.1064 27.6852C35.9963 27.6571 35.8831 27.7227 35.8556 27.8352C35.8281 27.9477 35.8923 28.0634 36.0024 28.0915C36.1125 28.1196 36.2257 28.054 36.2532 27.9415Z" fill="white"/>
<g style="mix-blend-mode:multiply">
<path d="M36.2533 27.9417C36.2258 28.0542 36.1126 28.123 36.0025 28.0917C35.8985 28.0636 35.8343 27.9605 35.8526 27.8542C35.8648 27.9261 35.9138 27.9886 35.9902 28.0105C36.0881 28.0355 36.1891 27.9761 36.2166 27.873C36.2288 27.8261 36.2227 27.7792 36.2013 27.7417C36.2502 27.7917 36.2747 27.8698 36.2563 27.9417H36.2533Z" fill="#A6A8AB"/>
</g>
<path d="M35.3357 25.9508C35.3633 25.8382 35.299 25.7226 35.1889 25.6945C35.0788 25.6664 34.9656 25.732 34.9381 25.8445C34.9106 25.957 34.9748 26.0726 35.0849 26.1008C35.195 26.1289 35.3082 26.0633 35.3357 25.9508Z" fill="white"/>
<g style="mix-blend-mode:multiply">
<path d="M35.3358 25.951C35.3083 26.0635 35.1951 26.1323 35.085 26.101C34.981 26.0729 34.9168 25.9697 34.9351 25.8635C34.9474 25.9354 34.9994 25.9979 35.0728 26.0198C35.1706 26.0448 35.2716 25.9854 35.2991 25.8822C35.3113 25.8354 35.3052 25.7885 35.2869 25.751C35.3358 25.801 35.3603 25.876 35.3419 25.951H35.3358Z" fill="#A6A8AB"/>
</g>
<path d="M34.8616 23.9381C34.8891 23.8256 34.8249 23.7099 34.7148 23.6818C34.6047 23.6537 34.4915 23.7193 34.464 23.8318C34.4365 23.9443 34.5007 24.06 34.6108 24.0881C34.7209 24.1162 34.8341 24.0506 34.8616 23.9381Z" fill="white"/>
<g style="mix-blend-mode:multiply">
<path d="M34.8617 23.9383C34.8342 24.0508 34.721 24.1196 34.6109 24.0883C34.5069 24.0602 34.4427 23.9571 34.461 23.8508C34.4732 23.9227 34.5222 23.9852 34.5986 24.0071C34.6965 24.0321 34.7974 23.9727 34.825 23.8695C34.8372 23.8227 34.8311 23.7758 34.8097 23.7383C34.8586 23.7883 34.8831 23.8633 34.8647 23.9383H34.8617Z" fill="#A6A8AB"/>
</g>
<path d="M33.2375 23.2882C33.265 23.1757 33.2008 23.06 33.0907 23.0319C32.9805 23.0038 32.8674 23.0694 32.8399 23.1819C32.8123 23.2944 32.8766 23.4101 32.9867 23.4382C33.0968 23.4663 33.2099 23.4007 33.2375 23.2882Z" fill="white"/>
<g style="mix-blend-mode:multiply">
<path d="M33.2375 23.2884C33.21 23.4009 33.0968 23.4697 32.9867 23.4384C32.8827 23.4103 32.8185 23.3072 32.8369 23.2009C32.8491 23.2728 32.898 23.3353 32.9745 23.3572C33.0724 23.3822 33.1733 23.3228 33.2008 23.2196C33.2131 23.1728 33.2069 23.1259 33.1855 23.0884C33.2345 23.1384 33.2589 23.2165 33.2406 23.2884H33.2375Z" fill="#A6A8AB"/>
</g>
<path d="M36.4338 23.316C36.4613 23.2035 36.3971 23.0878 36.2869 23.0597C36.1768 23.0316 36.0637 23.0972 36.0361 23.2097C36.0086 23.3222 36.0728 23.4379 36.183 23.466C36.2931 23.4941 36.4062 23.4285 36.4338 23.316Z" fill="white"/>
<g style="mix-blend-mode:multiply">
<path d="M36.4338 23.3162C36.4063 23.4287 36.2931 23.4975 36.183 23.4662C36.079 23.4381 36.0148 23.335 36.0331 23.2287C36.0454 23.3006 36.0943 23.3631 36.1708 23.385C36.2687 23.41 36.3696 23.3506 36.3971 23.2475C36.4094 23.2006 36.4032 23.1537 36.3818 23.1162C36.4308 23.1662 36.4552 23.2443 36.4369 23.3162H36.4338Z" fill="#A6A8AB"/>
</g>
<path d="M38.4616 23.2037C38.4891 23.0912 38.4249 22.9755 38.3148 22.9474C38.2047 22.9193 38.0915 22.9849 38.064 23.0974C38.0364 23.2099 38.1007 23.3256 38.2108 23.3537C38.3209 23.3818 38.4341 23.3162 38.4616 23.2037Z" fill="white"/>
<g style="mix-blend-mode:multiply">
<path d="M38.4617 23.2039C38.4341 23.3164 38.321 23.3821 38.2109 23.3539C38.1069 23.3258 38.0426 23.2227 38.061 23.1164C38.0732 23.1883 38.1222 23.2508 38.1986 23.2727C38.2965 23.2977 38.3974 23.2383 38.4249 23.1352C38.4372 23.0883 38.4311 23.0414 38.4127 23.0039C38.4617 23.0539 38.4861 23.132 38.4678 23.2039H38.4617Z" fill="#A6A8AB"/>
</g>
<path d="M40.7525 22.8443C40.78 22.7318 40.7158 22.6162 40.6057 22.588C40.4956 22.5599 40.3824 22.6255 40.3549 22.7381C40.3273 22.8506 40.3916 22.9662 40.5017 22.9943C40.6118 23.0225 40.725 22.9568 40.7525 22.8443Z" fill="white"/>
<g style="mix-blend-mode:multiply">
<path d="M40.7524 22.8446C40.7249 22.9571 40.6117 23.0227 40.5016 22.9946C40.3976 22.9664 40.3334 22.8633 40.3518 22.757C40.364 22.8289 40.4129 22.8914 40.4894 22.9133C40.5873 22.9383 40.6882 22.8789 40.7157 22.7758C40.728 22.7289 40.7218 22.682 40.7004 22.6445C40.7494 22.6945 40.7738 22.7727 40.7555 22.8446H40.7524Z" fill="#A6A8AB"/>
</g>
<path d="M42.346 22.1754C42.3735 22.0629 42.3093 21.9472 42.1992 21.9191C42.0891 21.891 41.9759 21.9566 41.9484 22.0691C41.9208 22.1816 41.9851 22.2973 42.0952 22.3254C42.2053 22.3535 42.3185 22.2879 42.346 22.1754Z" fill="white"/>
<g style="mix-blend-mode:multiply">
<path d="M42.3459 22.1756C42.3184 22.2881 42.2052 22.3569 42.0951 22.3256C41.9911 22.2975 41.9269 22.1944 41.9453 22.0881C41.9575 22.16 42.0064 22.2225 42.0829 22.2444C42.1808 22.2694 42.2817 22.21 42.3092 22.1068C42.3215 22.06 42.3153 22.0131 42.297 21.9756C42.3459 22.0256 42.3704 22.1006 42.352 22.1756H42.3459Z" fill="#A6A8AB"/>
</g>
<path d="M43.915 21.2003C43.9425 21.0878 43.8783 20.9721 43.7681 20.944C43.658 20.9159 43.5449 20.9815 43.5173 21.094C43.4898 21.2065 43.554 21.3222 43.6642 21.3503C43.7743 21.3784 43.8874 21.3128 43.915 21.2003Z" fill="white"/>
<g style="mix-blend-mode:multiply">
<path d="M43.9149 21.2005C43.8874 21.313 43.7742 21.3818 43.6641 21.3505C43.5601 21.3224 43.4959 21.2193 43.5142 21.113C43.5265 21.1849 43.5754 21.2474 43.6519 21.2693C43.7497 21.2943 43.8507 21.2349 43.8782 21.1318C43.8904 21.0849 43.8843 21.038 43.8629 21.0005C43.9118 21.0505 43.9363 21.1286 43.918 21.2005H43.9149Z" fill="#A6A8AB"/>
</g>
<path d="M45.3923 20.0533C45.4198 19.9408 45.3555 19.8252 45.2454 19.797C45.1353 19.7689 45.0222 19.8345 44.9946 19.947C44.9671 20.0596 45.0313 20.1752 45.1414 20.2033C45.2516 20.2314 45.3647 20.1658 45.3923 20.0533Z" fill="white"/>
<g style="mix-blend-mode:multiply">
<path d="M45.3922 20.0535C45.3647 20.166 45.2515 20.2348 45.1414 20.2036C45.0374 20.1754 44.9732 20.0723 44.9915 19.966C45.0038 20.0379 45.0527 20.1004 45.1292 20.1223C45.227 20.1473 45.328 20.0879 45.3555 19.9848C45.3677 19.9379 45.3616 19.891 45.3402 19.8535C45.3891 19.9035 45.4136 19.9785 45.3953 20.0535H45.3922Z" fill="#A6A8AB"/>
</g>
<path d="M46.8637 18.0533C46.8912 17.9408 46.827 17.8252 46.7169 17.797C46.6068 17.7689 46.4936 17.8345 46.4661 17.947C46.4385 18.0596 46.5028 18.1752 46.6129 18.2033C46.723 18.2314 46.8362 18.1658 46.8637 18.0533Z" fill="white"/>
<g style="mix-blend-mode:multiply">
<path d="M46.8603 18.0535C46.8328 18.166 46.7196 18.2348 46.6095 18.2036C46.5055 18.1754 46.4413 18.0723 46.4597 17.966C46.4719 18.0379 46.5208 18.1004 46.5973 18.1223C46.6952 18.1473 46.7961 18.0879 46.8236 17.9848C46.8359 17.9379 46.8297 17.891 46.8083 17.8535C46.8573 17.9035 46.8817 17.9817 46.8634 18.0535H46.8603Z" fill="#A6A8AB"/>
</g>
<path d="M48.7659 18.3565C48.7934 18.244 48.7292 18.1284 48.6191 18.1002C48.509 18.0721 48.3958 18.1378 48.3683 18.2503C48.3408 18.3628 48.405 18.4784 48.5151 18.5065C48.6252 18.5347 48.7384 18.469 48.7659 18.3565Z" fill="white"/>
<g style="mix-blend-mode:multiply">
<path d="M48.766 18.3568C48.7384 18.4693 48.6253 18.538 48.5152 18.5068C48.4112 18.4786 48.347 18.3755 48.3653 18.2692C48.3775 18.3411 48.4265 18.4036 48.5029 18.4255C48.6008 18.4505 48.7017 18.3911 48.7293 18.288C48.7415 18.2411 48.7354 18.1942 48.714 18.1567C48.7629 18.2067 48.7874 18.2818 48.769 18.3568H48.766Z" fill="#A6A8AB"/>
</g>
<path d="M49.1393 20.1471C49.1669 20.0345 49.1026 19.9189 48.9925 19.8908C48.8824 19.8626 48.7692 19.9283 48.7417 20.0408C48.7142 20.1533 48.7784 20.2689 48.8885 20.2971C48.9986 20.3252 49.1118 20.2596 49.1393 20.1471Z" fill="white"/>
<g style="mix-blend-mode:multiply">
<path d="M49.136 20.1473C49.1084 20.2598 48.9953 20.3286 48.8852 20.2973C48.7812 20.2692 48.7169 20.166 48.7353 20.0598C48.7475 20.1317 48.7965 20.1942 48.8729 20.216C48.9708 20.241 49.0717 20.1817 49.0993 20.0785C49.1115 20.0316 49.1054 19.9848 49.084 19.9473C49.1329 19.9973 49.1574 20.0723 49.139 20.1473H49.136Z" fill="#A6A8AB"/>
</g>
<g style="mix-blend-mode:soft-light" opacity="0.4">
<path d="M47.9951 21.7568L39.6605 35.9083L39.0426 36.0552C37.6602 36.3833 37.0087 35.5739 37.5929 34.2519L38.3881 32.4548C38.6879 31.7735 38.8041 30.8859 38.7429 30.0171L42.2236 24.1071C43.1258 23.807 43.9853 23.2851 44.5205 22.6569L45.7837 21.163C46.7135 20.066 47.7045 20.3317 47.992 21.7506V21.7568H47.9951Z" fill="white"/>
</g>
<g style="mix-blend-mode:soft-light" opacity="0.4">
<path d="M48.8913 24.9852L42.6549 35.58C42.0462 35.4832 41.4467 35.4863 40.9268 35.6113L40.5964 35.6894L48.2 22.7725L48.3866 23.6851C48.4723 24.1101 48.6497 24.5539 48.8913 24.9821V24.9852Z" fill="white"/>
</g>
<path d="M25.9402 21.0066L22.7746 21.3754C20.4501 21.6473 17.2875 20.3909 15.7521 18.5876L13.6601 16.1311C12.1216 14.3277 10.4853 14.7684 10.0173 17.1124L9.38113 20.3034C8.91317 22.6474 6.76911 25.332 4.61588 26.2665L1.68271 27.5416C-0.470529 28.4792 -0.568404 30.2075 1.47166 31.3858L4.24579 32.9891C6.2828 34.1673 8.11794 37.0801 8.32286 39.4647L8.60119 42.7088C8.80612 45.0903 10.3874 45.7185 12.1124 44.1027L14.4614 41.9025C16.1865 40.2867 19.4652 39.4022 21.7469 39.9398L24.8514 40.6711C27.1331 41.2087 28.2066 39.8648 27.234 37.6896L25.9127 34.7267C24.9431 32.5515 25.1328 29.0918 26.3379 27.0416L27.9772 24.2507C29.1823 22.2004 28.2648 20.744 25.9372 21.0128L25.9402 21.0066ZM22.8725 26.0946L21.8785 27.7885C21.1475 29.0324 21.0343 31.1264 21.6215 32.4484L22.4229 34.2454C23.0101 35.5643 22.3617 36.3769 20.9792 36.0519L19.0982 35.6081C17.7157 35.2831 15.7277 35.8175 14.6816 36.7957L13.2563 38.1302C12.2103 39.1085 11.253 38.7303 11.1276 37.2864L10.9594 35.3206C10.834 33.8767 9.72369 32.1108 8.48803 31.3983L6.80581 30.4263C5.57015 29.7137 5.62826 28.6636 6.93427 28.0979L8.7113 27.326C10.0173 26.7572 11.3172 25.132 11.5986 23.7131L11.984 21.7785C12.2654 20.3596 13.2594 20.0908 14.1923 21.1847L15.4616 22.6724C16.3914 23.7662 18.3091 24.5257 19.7191 24.3632L21.6368 24.1413C23.0468 23.9756 23.6035 24.8601 22.8725 26.104V26.0946Z" fill="#EF2E78"/>
<g style="mix-blend-mode:soft-light" opacity="0.8">
<path d="M25.9398 21.0066L22.7742 21.3754C20.4466 21.6473 17.2871 20.3909 15.7517 18.5876L13.6596 16.1311C12.1242 14.3277 10.4848 14.7684 10.0169 17.1124L9.3807 20.3034C8.91274 22.6474 6.76868 25.332 4.61544 26.2665L1.68227 27.5416C0.293682 28.1448 -0.238509 29.0762 0.100992 29.9794C-0.00911621 29.1887 0.553661 28.4073 1.76791 27.8792L4.70108 26.604C6.85432 25.6696 9.00144 22.9849 9.46634 20.6409L10.1025 17.4499C10.5705 15.106 12.2099 14.6653 13.7453 16.4686L15.8373 18.9251C17.3727 20.7284 20.5353 21.9848 22.8598 21.7129L26.0254 21.3441C27.3376 21.191 28.2031 21.5879 28.4876 22.3317C28.35 21.3754 27.4354 20.8315 25.9367 21.0066H25.9398ZM23.1871 25.0101C23.2116 25.3164 23.1106 25.6883 22.869 26.0977L21.875 27.7916C21.2204 28.9043 21.0614 30.6982 21.4529 32.0077C21.1776 30.7388 21.3642 29.148 21.9606 28.1292L22.9546 26.4384C23.2911 25.8633 23.3553 25.3664 23.184 25.0164L23.1871 25.0101ZM22.6121 34.8486C22.7742 35.7987 22.1319 36.3207 20.9757 36.0488L19.0917 35.605C17.7092 35.2799 15.7211 35.8144 14.6751 36.7926L13.2498 38.1271C12.375 38.9459 11.5645 38.8147 11.2464 37.9052C11.4666 39.1085 12.3628 39.3741 13.3354 38.4615L14.7607 37.127C15.8068 36.1488 17.7948 35.6112 19.1773 35.9394L21.0614 36.3832C22.346 36.6863 22.9975 36.005 22.609 34.8455L22.6121 34.8486ZM8.48454 31.3951L6.80538 30.4232C6.39859 30.1888 6.1325 29.9169 6.00404 29.6387C6.02545 30.0294 6.32213 30.4325 6.89102 30.7607L8.57018 31.7327C9.58256 32.3171 10.5124 33.611 10.8825 34.8518C10.5919 33.5141 9.58868 32.0327 8.48148 31.3951H8.48454Z" fill="white"/>
</g>
<path d="M22.4194 34.2423L21.618 32.4453C21.5569 32.3046 21.5018 32.1577 21.4529 32.0015C21.514 32.2796 21.5966 32.5453 21.7037 32.7828L22.505 34.5799C22.5478 34.6736 22.5815 34.7611 22.609 34.8518C22.5754 34.6642 22.5142 34.4611 22.4163 34.2454L22.4194 34.2423ZM10.8855 34.8518C10.9191 35.0112 10.9436 35.1674 10.9559 35.3206L11.1241 37.2864C11.1455 37.5239 11.1883 37.7333 11.2495 37.9115C11.2311 37.8208 11.2189 37.7239 11.2097 37.6239L11.0415 35.6581C11.0201 35.3987 10.965 35.1268 10.8824 34.8518H10.8855Z" fill="#16161A"/>
<path opacity="0.5" d="M21.878 27.7887C21.147 29.0326 21.0307 31.1266 21.621 32.4486L22.4224 34.2456C23.0096 35.5645 22.3612 36.3771 20.9787 36.0521L19.0977 35.6114C18.2321 35.4082 17.1311 35.5395 16.1737 35.9083C15.5987 36.1302 15.0757 36.4334 14.6842 36.8021L14.4334 37.0365L13.7269 37.6991L13.2589 38.1367C12.9408 38.4336 12.6319 38.6055 12.3536 38.6586C11.7113 38.7867 11.2188 38.2961 11.1332 37.2897L11.1118 37.0272L11.0047 35.7833L10.965 35.3239C10.9007 34.58 10.5735 33.7487 10.1025 33.0205C9.75378 32.4829 9.32864 32.0048 8.87292 31.6547C8.74751 31.5578 8.62211 31.4735 8.49365 31.3985L6.8145 30.4265C5.57883 29.7139 5.63695 28.6669 6.94296 28.0981L8.71999 27.3262C9.27359 27.0855 9.82719 26.6542 10.3013 26.1292C10.9466 25.4166 11.4452 24.529 11.6073 23.7133L11.9927 21.7787C12.2373 20.5473 13.0203 20.1817 13.8309 20.8255C13.9532 20.9224 14.0786 21.0443 14.1979 21.1849H14.2009L14.8647 21.9693L15.4641 22.6725C15.7425 23.0007 16.1095 23.3007 16.5285 23.5508C16.5775 23.582 16.6295 23.6133 16.6814 23.6414C16.8803 23.7539 17.0882 23.8539 17.2993 23.9414C17.8621 24.179 18.4615 24.3321 19.0243 24.3727C19.2629 24.3915 19.4984 24.3884 19.7186 24.3633L21.6394 24.1383C23.0494 23.9758 23.6061 24.8571 22.8751 26.101L21.881 27.795L21.878 27.7887Z" fill="#727272"/>
<g style="mix-blend-mode:multiply" opacity="0.2">
<path d="M21.6517 32.4578L22.4469 34.2549C22.554 34.4986 22.6212 34.7237 22.6457 34.9299C22.9271 34.6049 22.9516 34.0611 22.6518 33.386L21.8566 31.589C21.4926 30.7639 21.4039 29.6325 21.566 28.6012C21.1654 29.82 21.1745 31.3952 21.6486 32.4609L21.6517 32.4578ZM12.1609 21.341C12.5463 20.294 13.4272 20.1878 14.2561 21.1691L15.5192 22.6599C16.4491 23.7569 18.3607 24.5226 19.7707 24.3632L21.6884 24.1476C22.6365 24.0382 23.1963 24.4038 23.2421 25.032C23.7927 23.9038 23.2268 23.1256 21.8964 23.2756L19.9786 23.4944C18.5686 23.6538 16.654 22.8881 15.7272 21.7911L14.464 20.3003C13.5342 19.2033 12.5402 19.469 12.2527 20.8879L12.1609 21.3442V21.341ZM9.50303 19.9909C9.56421 19.794 9.6162 19.5971 9.65596 19.4033L10.234 16.5405C10.179 16.7093 10.1331 16.8906 10.0933 17.0843L9.50303 19.9878V19.9909ZM6.19978 28.5918C6.37106 28.3886 6.63104 28.2074 6.97665 28.0574L8.75674 27.2916C10.0628 26.7291 11.3688 25.107 11.6563 23.6881L11.7419 23.2631C11.3045 24.5601 10.1362 25.9165 8.96473 26.4197L7.18464 27.1885C6.37717 27.5354 6.04379 28.0699 6.19978 28.5949V28.5918ZM1.50181 31.3327L4.27288 32.9454C6.30683 34.1299 8.13279 37.0489 8.3316 39.4335L8.60076 42.6776C8.79956 45.0622 10.3778 45.6936 12.1089 44.084L14.464 41.89C16.1952 40.2805 19.477 39.4085 21.7557 39.9523L24.8571 40.693C26.5729 41.1025 27.6067 40.4461 27.6037 39.1679C27.2213 39.8461 26.3282 40.1211 25.0681 39.8211L21.9637 39.0804C19.685 38.5366 16.4001 39.4085 14.672 41.0181L12.3169 43.2121C10.5858 44.8247 9.00755 44.1903 8.8118 41.8057L8.53958 38.5616C8.34078 36.1801 6.51481 33.2579 4.48086 32.0734L1.71285 30.4607C0.792223 29.9263 0.308969 29.2762 0.256973 28.6449C-0.253809 29.5169 0.152982 30.5451 1.50487 31.3327H1.50181Z" fill="#181A19"/>
</g>
<path d="M11.9406 17.0687C11.91 16.9562 11.7969 16.8906 11.6868 16.9218C11.5767 16.9531 11.5124 17.0687 11.543 17.1812C11.5736 17.2938 11.6868 17.3594 11.7969 17.3281C11.907 17.2969 11.9712 17.1812 11.9406 17.0687Z" fill="white"/>
<g style="mix-blend-mode:multiply">
<path d="M11.9409 17.0688C11.9715 17.1813 11.9073 17.2969 11.7972 17.3282C11.6932 17.3563 11.5861 17.3 11.5494 17.2C11.5953 17.2563 11.6687 17.2844 11.7421 17.2625C11.84 17.2344 11.8981 17.1313 11.8706 17.0281C11.8584 16.9813 11.8308 16.9438 11.7941 16.9219C11.8614 16.9406 11.9195 16.9938 11.9379 17.0688H11.9409Z" fill="#A6A8AB"/>
</g>
<path d="M12.586 19.4501C12.5554 19.3376 12.4423 19.2719 12.3322 19.3032C12.222 19.3344 12.1578 19.4501 12.1884 19.5626C12.219 19.6751 12.3322 19.7407 12.4423 19.7095C12.5524 19.6782 12.6166 19.5626 12.586 19.4501Z" fill="white"/>
<g style="mix-blend-mode:multiply">
<path d="M12.5863 19.4499C12.6169 19.5624 12.5527 19.6781 12.4426 19.7093C12.3386 19.7374 12.2315 19.6812 12.1948 19.5812C12.2407 19.6374 12.3141 19.6656 12.3875 19.6468C12.4854 19.6187 12.5435 19.5155 12.516 19.4124C12.5037 19.3655 12.4762 19.328 12.4395 19.3062C12.5068 19.3249 12.5649 19.378 12.5833 19.453L12.5863 19.4499Z" fill="#A6A8AB"/>
</g>
<path d="M25.1782 23.7411C25.1476 23.6286 25.0344 23.563 24.9243 23.5942C24.8142 23.6255 24.75 23.7411 24.7806 23.8536C24.8112 23.9661 24.9243 24.0318 25.0344 24.0005C25.1445 23.9693 25.2088 23.8536 25.1782 23.7411Z" fill="white"/>
<g style="mix-blend-mode:multiply">
<path d="M25.1785 23.7411C25.2091 23.8536 25.1448 23.9693 25.0347 24.0005C24.9307 24.0287 24.8237 23.9724 24.787 23.8724C24.8329 23.9286 24.9063 23.9568 24.9827 23.9349C25.0806 23.9068 25.1387 23.8036 25.1112 23.7005C25.099 23.6567 25.0714 23.6161 25.0347 23.5942C25.102 23.613 25.1601 23.6661 25.1785 23.7411Z" fill="#A6A8AB"/>
</g>
<path d="M15.4733 20.516C15.4428 20.4035 15.3296 20.3379 15.2195 20.3691C15.1094 20.4004 15.0451 20.516 15.0757 20.6285C15.1063 20.741 15.2195 20.8067 15.3296 20.7754C15.4397 20.7442 15.5039 20.6285 15.4733 20.516Z" fill="white"/>
<g style="mix-blend-mode:multiply">
<path d="M15.4737 20.5158C15.5042 20.6283 15.44 20.744 15.3299 20.7752C15.2259 20.8034 15.1189 20.7471 15.0822 20.6471C15.128 20.7034 15.2014 20.7315 15.2779 20.7127C15.3758 20.6846 15.4339 20.5815 15.4064 20.4783C15.3941 20.4346 15.3666 20.3939 15.3299 20.3721C15.3972 20.3908 15.4553 20.444 15.4767 20.519L15.4737 20.5158Z" fill="#A6A8AB"/>
</g>
<path d="M16.917 21.6317C16.8864 21.5192 16.7732 21.4536 16.6631 21.4848C16.553 21.5161 16.4888 21.6317 16.5193 21.7442C16.5499 21.8567 16.6631 21.9224 16.7732 21.8911C16.8833 21.8599 16.9475 21.7442 16.917 21.6317Z" fill="white"/>
<g style="mix-blend-mode:multiply">
<path d="M16.9173 21.6318C16.9478 21.7443 16.8836 21.8599 16.7735 21.8912C16.6695 21.9193 16.5625 21.863 16.5258 21.763C16.5716 21.8193 16.645 21.8474 16.7184 21.8255C16.8163 21.7974 16.8744 21.6943 16.8469 21.5911C16.8347 21.5442 16.8071 21.5067 16.7704 21.4849C16.8377 21.5036 16.8958 21.5567 16.9142 21.6318H16.9173Z" fill="#A6A8AB"/>
</g>
<path d="M18.9112 22.3632C18.8806 22.2507 18.7675 22.185 18.6574 22.2163C18.5472 22.2475 18.483 22.3632 18.5136 22.4757C18.5442 22.5882 18.6574 22.6538 18.7675 22.6226C18.8776 22.5913 18.9418 22.4757 18.9112 22.3632Z" fill="white"/>
<g style="mix-blend-mode:multiply">
<path d="M18.9115 22.363C18.9421 22.4755 18.8779 22.5912 18.7678 22.6224C18.6638 22.6505 18.5567 22.5943 18.52 22.4943C18.5659 22.5505 18.6393 22.5787 18.7127 22.5599C18.8106 22.5318 18.8687 22.4286 18.8412 22.3255C18.8289 22.2786 18.8014 22.2411 18.7647 22.2192C18.832 22.238 18.8901 22.2911 18.9115 22.3661V22.363Z" fill="#A6A8AB"/>
</g>
<path d="M21.1256 22.6098C21.095 22.4972 20.9818 22.4316 20.8717 22.4629C20.7616 22.4941 20.6974 22.6098 20.728 22.7223C20.7585 22.8348 20.8717 22.9004 20.9818 22.8692C21.0919 22.8379 21.1562 22.7223 21.1256 22.6098Z" fill="white"/>
<g style="mix-blend-mode:multiply">
<path d="M21.1259 22.6096C21.1565 22.7221 21.0922 22.8377 20.9821 22.869C20.8781 22.8971 20.7711 22.8409 20.7344 22.7408C20.7803 22.7971 20.8537 22.8252 20.9271 22.8065C21.0249 22.7784 21.0831 22.6752 21.0555 22.5721C21.0433 22.5252 21.0158 22.4877 20.9791 22.4658C21.0463 22.4846 21.1045 22.5377 21.1259 22.6127V22.6096Z" fill="#A6A8AB"/>
</g>
<path d="M23.6734 22.6693C23.6428 22.5568 23.5297 22.4912 23.4196 22.5224C23.3095 22.5537 23.2452 22.6693 23.2758 22.7818C23.3064 22.8943 23.4196 22.96 23.5297 22.9287C23.6398 22.8975 23.704 22.7818 23.6734 22.6693Z" fill="white"/>
<g style="mix-blend-mode:multiply">
<path d="M23.6737 22.6692C23.7043 22.7817 23.6401 22.8973 23.53 22.9286C23.426 22.9567 23.3189 22.9004 23.2822 22.8004C23.3281 22.8567 23.4015 22.8848 23.4749 22.8661C23.5728 22.8379 23.6309 22.7348 23.6034 22.6317C23.5911 22.5848 23.5636 22.5473 23.5269 22.5254C23.5942 22.5441 23.6523 22.5973 23.6707 22.6723L23.6737 22.6692Z" fill="#A6A8AB"/>
</g>
<path d="M26.6677 23.1039C26.6371 22.9914 26.5239 22.9258 26.4138 22.957C26.3037 22.9883 26.2395 23.1039 26.2701 23.2164C26.3007 23.3289 26.4138 23.3946 26.5239 23.3633C26.634 23.332 26.6983 23.2164 26.6677 23.1039Z" fill="white"/>
<g style="mix-blend-mode:multiply">
<path d="M26.668 23.1037C26.6986 23.2162 26.6343 23.3319 26.5242 23.3631C26.4202 23.3913 26.3132 23.335 26.2765 23.235C26.3224 23.2912 26.3958 23.3194 26.4692 23.3006C26.5671 23.2725 26.6252 23.1694 26.5976 23.0662C26.5854 23.0193 26.5579 22.9818 26.5212 22.96C26.5885 22.9787 26.6466 23.0318 26.6649 23.1069L26.668 23.1037Z" fill="#A6A8AB"/>
</g>
<path d="M25.0161 25.4506C24.9855 25.3381 24.8723 25.2724 24.7622 25.3037C24.6521 25.3349 24.5879 25.4506 24.6185 25.5631C24.649 25.6756 24.7622 25.7412 24.8723 25.71C24.9824 25.6787 25.0467 25.5631 25.0161 25.4506Z" fill="white"/>
<g style="mix-blend-mode:multiply">
<path d="M25.0164 25.4504C25.047 25.5629 24.9827 25.6786 24.8726 25.7098C24.7686 25.7379 24.6616 25.6817 24.6249 25.5817C24.6708 25.6379 24.7442 25.6661 24.8176 25.6473C24.9154 25.6192 24.9736 25.516 24.946 25.4129C24.9338 25.366 24.9063 25.3285 24.8696 25.3066C24.9369 25.3254 24.995 25.3785 25.0164 25.4535V25.4504Z" fill="#A6A8AB"/>
</g>
<path d="M24.2821 27.1918C24.2515 27.0793 24.1383 27.0136 24.0282 27.0449C23.9181 27.0761 23.8539 27.1918 23.8845 27.3043C23.915 27.4168 24.0282 27.4824 24.1383 27.4512C24.2484 27.4199 24.3127 27.3043 24.2821 27.1918Z" fill="white"/>
<g style="mix-blend-mode:multiply">
<path d="M24.2824 27.1916C24.313 27.3041 24.2487 27.4198 24.1386 27.451C24.0346 27.4791 23.9276 27.4229 23.8909 27.3229C23.9367 27.3791 24.0102 27.4073 24.0836 27.3885C24.1814 27.3604 24.2395 27.2572 24.212 27.1541C24.1998 27.1072 24.1723 27.0697 24.1356 27.0479C24.2028 27.0666 24.261 27.1197 24.2824 27.1947V27.1916Z" fill="#A6A8AB"/>
</g>
<path d="M23.6367 29.2699C23.6061 29.1574 23.4929 29.0918 23.3828 29.123C23.2727 29.1543 23.2085 29.2699 23.2391 29.3824C23.2697 29.4949 23.3828 29.5606 23.4929 29.5293C23.603 29.4981 23.6673 29.3824 23.6367 29.2699Z" fill="white"/>
<g style="mix-blend-mode:multiply">
<path d="M23.637 29.2699C23.6676 29.3824 23.6033 29.4981 23.4932 29.5293C23.3892 29.5575 23.2822 29.5012 23.2455 29.4012C23.2914 29.4575 23.3648 29.4856 23.4382 29.4637C23.536 29.4356 23.5942 29.3324 23.5666 29.2293C23.5544 29.1824 23.5269 29.1449 23.4902 29.123C23.5575 29.1418 23.6156 29.1949 23.6339 29.2699H23.637Z" fill="#A6A8AB"/>
</g>
<path d="M23.5938 31.5077C23.5632 31.3952 23.4501 31.3296 23.34 31.3608C23.2299 31.3921 23.1656 31.5077 23.1962 31.6202C23.2268 31.7327 23.34 31.7984 23.4501 31.7671C23.5602 31.7359 23.6244 31.6202 23.5938 31.5077Z" fill="white"/>
<g style="mix-blend-mode:multiply">
<path d="M23.5941 31.5075C23.6247 31.62 23.5605 31.7357 23.4504 31.7669C23.3464 31.7951 23.2393 31.7388 23.2026 31.6388C23.2485 31.6951 23.3219 31.7232 23.3953 31.7044C23.4932 31.6763 23.5513 31.5732 23.5238 31.47C23.5116 31.4263 23.484 31.3856 23.4473 31.3638C23.5146 31.3825 23.5727 31.4357 23.5911 31.5107L23.5941 31.5075Z" fill="#A6A8AB"/>
</g>
<path d="M24.123 33.4642C24.0924 33.3517 23.9793 33.2861 23.8691 33.3174C23.759 33.3486 23.6948 33.4642 23.7254 33.5768C23.756 33.6893 23.8691 33.7549 23.9793 33.7236C24.0894 33.6924 24.1536 33.5768 24.123 33.4642Z" fill="white"/>
<g style="mix-blend-mode:multiply">
<path d="M24.1233 33.4643C24.1539 33.5768 24.0897 33.6924 23.9796 33.7237C23.8756 33.7518 23.7685 33.6955 23.7318 33.5955C23.7777 33.6518 23.8511 33.6799 23.9245 33.658C24.0224 33.6299 24.0805 33.5268 24.053 33.4236C24.0407 33.3768 24.0132 33.3393 23.9765 33.3174C24.0438 33.3361 24.1019 33.3893 24.1203 33.4643H24.1233Z" fill="#A6A8AB"/>
</g>
<path d="M24.7378 35.7269C24.7072 35.6144 24.594 35.5488 24.4839 35.5801C24.3738 35.6113 24.3096 35.7269 24.3401 35.8395C24.3707 35.952 24.4839 36.0176 24.594 35.9863C24.7041 35.9551 24.7683 35.8395 24.7378 35.7269Z" fill="white"/>
<g style="mix-blend-mode:multiply">
<path d="M24.7381 35.727C24.7686 35.8395 24.7044 35.9551 24.5943 35.9864C24.4903 36.0145 24.3833 35.9582 24.3466 35.8582C24.3924 35.9145 24.4658 35.9426 24.5392 35.9207C24.6371 35.8926 24.6952 35.7895 24.6677 35.6863C24.6555 35.6395 24.6279 35.602 24.5912 35.5801C24.6585 35.5988 24.7166 35.652 24.7381 35.727Z" fill="#A6A8AB"/>
</g>
<path d="M25.2791 37.7269C25.2485 37.6144 25.1354 37.5488 25.0253 37.5801C24.9152 37.6113 24.8509 37.7269 24.8815 37.8395C24.9121 37.952 25.0253 38.0176 25.1354 37.9863C25.2455 37.9551 25.3097 37.8395 25.2791 37.7269Z" fill="white"/>
<g style="mix-blend-mode:multiply">
<path d="M25.2794 37.7268C25.31 37.8393 25.2458 37.9549 25.1357 37.9862C25.0317 38.0143 24.9246 37.958 24.8879 37.858C24.9338 37.9143 25.0072 37.9424 25.0806 37.9237C25.1785 37.8955 25.2366 37.7924 25.2091 37.6893C25.1969 37.6424 25.1693 37.6049 25.1326 37.583C25.1999 37.6018 25.258 37.6549 25.2764 37.7299L25.2794 37.7268Z" fill="#A6A8AB"/>
</g>
<path d="M26.4322 38.7992C26.4016 38.6867 26.2885 38.6211 26.1783 38.6523C26.0682 38.6836 26.004 38.7992 26.0346 38.9117C26.0652 39.0242 26.1783 39.0899 26.2885 39.0586C26.3986 39.0274 26.4628 38.9117 26.4322 38.7992Z" fill="white"/>
<g style="mix-blend-mode:multiply">
<path d="M26.4325 38.799C26.4631 38.9115 26.3989 39.0272 26.2888 39.0584C26.1848 39.0866 26.0777 39.0303 26.041 38.9303C26.0869 38.9866 26.1603 39.0147 26.2337 38.9959C26.3316 38.9678 26.3897 38.8647 26.3622 38.7615C26.3499 38.7147 26.3224 38.6772 26.2857 38.6553C26.353 38.674 26.4111 38.7272 26.4295 38.8022L26.4325 38.799Z" fill="#A6A8AB"/>
</g>
<path d="M23.3919 37.8241C23.3613 37.7116 23.2482 37.646 23.1381 37.6772C23.028 37.7085 22.9637 37.8241 22.9943 37.9366C23.0249 38.0491 23.1381 38.1148 23.2482 38.0835C23.3583 38.0523 23.4225 37.9366 23.3919 37.8241Z" fill="white"/>
<g style="mix-blend-mode:multiply">
<path d="M23.3922 37.8239C23.4228 37.9365 23.3586 38.0521 23.2485 38.0833C23.1445 38.1115 23.0374 38.0552 23.0007 37.9552C23.0466 38.0115 23.12 38.0396 23.1965 38.0208C23.2944 37.9927 23.3525 37.8896 23.3249 37.7864C23.3127 37.7396 23.2852 37.7021 23.2485 37.6802C23.3158 37.6989 23.3739 37.7521 23.3953 37.8271L23.3922 37.8239Z" fill="#A6A8AB"/>
</g>
<path d="M20.8901 37.5053C20.8595 37.3928 20.7463 37.3271 20.6362 37.3584C20.5261 37.3896 20.4619 37.5053 20.4925 37.6178C20.5231 37.7303 20.6362 37.7959 20.7463 37.7647C20.8565 37.7334 20.9207 37.6178 20.8901 37.5053Z" fill="white"/>
<g style="mix-blend-mode:multiply">
<path d="M20.8904 37.5051C20.921 37.6176 20.8568 37.7332 20.7466 37.7645C20.6427 37.7926 20.5356 37.7364 20.4989 37.6364C20.5448 37.6926 20.6182 37.7207 20.6947 37.702C20.7925 37.6739 20.8506 37.5707 20.8231 37.4676C20.8109 37.4207 20.7834 37.3832 20.7466 37.3613C20.8139 37.3801 20.872 37.4332 20.8935 37.5082L20.8904 37.5051Z" fill="#A6A8AB"/>
</g>
<path d="M18.6114 37.6771C18.5808 37.5646 18.4677 37.499 18.3575 37.5302C18.2474 37.5615 18.1832 37.6771 18.2138 37.7896C18.2444 37.9022 18.3575 37.9678 18.4677 37.9365C18.5778 37.9053 18.642 37.7896 18.6114 37.6771Z" fill="white"/>
<g style="mix-blend-mode:multiply">
<path d="M18.6117 37.677C18.6423 37.7895 18.5781 37.9051 18.468 37.9364C18.364 37.9645 18.2569 37.9082 18.2202 37.8082C18.2661 37.8645 18.3395 37.8926 18.4129 37.8739C18.5108 37.8457 18.5689 37.7426 18.5414 37.6395C18.5291 37.5926 18.5016 37.5551 18.4649 37.5332C18.5322 37.552 18.5903 37.6051 18.6117 37.6801V37.677Z" fill="#A6A8AB"/>
</g>
<path d="M16.5927 38.2645C16.5621 38.152 16.449 38.0864 16.3389 38.1176C16.2288 38.1489 16.1645 38.2645 16.1951 38.3771C16.2257 38.4896 16.3389 38.5552 16.449 38.5239C16.5591 38.4927 16.6233 38.3771 16.5927 38.2645Z" fill="white"/>
<g style="mix-blend-mode:multiply">
<path d="M16.593 38.2644C16.6236 38.3769 16.5594 38.4925 16.4493 38.5238C16.3453 38.5519 16.2382 38.4956 16.2015 38.3956C16.2474 38.4519 16.3208 38.48 16.3973 38.4613C16.4952 38.4331 16.5533 38.33 16.5257 38.2269C16.5135 38.18 16.486 38.1425 16.4493 38.1206C16.5166 38.1394 16.5747 38.1925 16.5961 38.2675L16.593 38.2644Z" fill="#A6A8AB"/>
</g>
<path d="M14.6291 39.496C14.5985 39.3835 14.4854 39.3178 14.3752 39.3491C14.2651 39.3803 14.2009 39.496 14.2315 39.6085C14.2621 39.721 14.3752 39.7866 14.4854 39.7554C14.5955 39.7241 14.6597 39.6085 14.6291 39.496Z" fill="white"/>
<g style="mix-blend-mode:multiply">
<path d="M14.6294 39.4958C14.66 39.6083 14.5958 39.724 14.4857 39.7552C14.3817 39.7833 14.2746 39.7271 14.2379 39.6271C14.2838 39.6833 14.3572 39.7115 14.4306 39.6927C14.5285 39.6646 14.5866 39.5614 14.5591 39.4583C14.5468 39.4114 14.5193 39.3739 14.4826 39.3521C14.5499 39.3708 14.608 39.4239 14.6264 39.4989L14.6294 39.4958Z" fill="#A6A8AB"/>
</g>
<path d="M12.8369 41.0272C12.8063 40.9147 12.6931 40.8491 12.583 40.8803C12.4729 40.9116 12.4087 41.0272 12.4393 41.1397C12.4698 41.2523 12.583 41.3179 12.6931 41.2866C12.8032 41.2554 12.8675 41.1397 12.8369 41.0272Z" fill="white"/>
<g style="mix-blend-mode:multiply">
<path d="M12.8372 41.0271C12.8678 41.1396 12.8035 41.2552 12.6934 41.2865C12.5894 41.3146 12.4824 41.2583 12.4457 41.1583C12.4916 41.2146 12.565 41.2427 12.6384 41.224C12.7362 41.1958 12.7944 41.0927 12.7668 40.9896C12.7546 40.9427 12.7271 40.9052 12.6904 40.8833C12.7577 40.9021 12.8158 40.9552 12.8372 41.0302V41.0271Z" fill="#A6A8AB"/>
</g>
<path d="M11.1546 42.1869C11.124 42.0744 11.0109 42.0088 10.9008 42.04C10.7907 42.0713 10.7264 42.1869 10.757 42.2994C10.7876 42.4119 10.9008 42.4776 11.0109 42.4463C11.121 42.4151 11.1852 42.2994 11.1546 42.1869Z" fill="white"/>
<g style="mix-blend-mode:multiply">
<path d="M11.1549 42.1867C11.1855 42.2992 11.1213 42.4149 11.0112 42.4461C10.9072 42.4743 10.8001 42.418 10.7634 42.318C10.8093 42.3743 10.8827 42.4024 10.9561 42.3836C11.054 42.3555 11.1121 42.2524 11.0846 42.1492C11.0723 42.1024 11.0448 42.0648 11.0081 42.043C11.0754 42.0617 11.1335 42.1149 11.1549 42.1899V42.1867Z" fill="#A6A8AB"/>
</g>
<path d="M10.6102 43.4589C10.5796 43.3464 10.4664 43.2807 10.3563 43.312C10.2462 43.3432 10.182 43.4589 10.2126 43.5714C10.2432 43.6839 10.3563 43.7495 10.4664 43.7183C10.5765 43.687 10.6408 43.5714 10.6102 43.4589Z" fill="white"/>
<g style="mix-blend-mode:multiply">
<path d="M10.6105 43.4587C10.6411 43.5712 10.5768 43.6869 10.4667 43.7181C10.3627 43.7462 10.2557 43.69 10.219 43.59C10.2649 43.6462 10.3383 43.6744 10.4147 43.6556C10.5126 43.6275 10.5707 43.5243 10.5432 43.4212C10.531 43.3743 10.5034 43.3368 10.4667 43.3149C10.534 43.3337 10.5921 43.3868 10.6105 43.4618V43.4587Z" fill="#A6A8AB"/>
</g>
<path d="M10.4696 40.4525C10.439 40.34 10.3258 40.2744 10.2157 40.3056C10.1056 40.3369 10.0414 40.4525 10.072 40.565C10.1025 40.6776 10.2157 40.7432 10.3258 40.7119C10.4359 40.6807 10.5001 40.565 10.4696 40.4525Z" fill="white"/>
<g style="mix-blend-mode:multiply">
<path d="M10.4699 40.4524C10.5005 40.5649 10.4362 40.6805 10.3261 40.7118C10.2221 40.7399 10.1151 40.6836 10.0784 40.5836C10.1242 40.6399 10.1977 40.668 10.2741 40.6493C10.372 40.6211 10.4301 40.518 10.4026 40.4149C10.3903 40.368 10.3628 40.3305 10.3261 40.3086C10.3934 40.3273 10.4515 40.3805 10.4699 40.4555V40.4524Z" fill="#A6A8AB"/>
</g>
<path d="M10.0688 38.1771C10.0382 38.0646 9.92505 37.999 9.81495 38.0302C9.70484 38.0615 9.64061 38.1771 9.67119 38.2896C9.70178 38.4022 9.81495 38.4678 9.92505 38.4365C10.0352 38.4053 10.0994 38.2896 10.0688 38.1771Z" fill="white"/>
<g style="mix-blend-mode:multiply">
<path d="M10.0691 38.177C10.0997 38.2895 10.0355 38.4051 9.92536 38.4364C9.82137 38.4645 9.71432 38.4082 9.67761 38.3082C9.72349 38.3645 9.7969 38.3926 9.8703 38.3739C9.96818 38.3457 10.0263 38.2426 9.99876 38.1395C9.98653 38.0926 9.959 38.0551 9.9223 38.0332C9.98959 38.052 10.0477 38.1051 10.0661 38.1801L10.0691 38.177Z" fill="#A6A8AB"/>
</g>
<path d="M9.46322 35.9423C9.43263 35.8298 9.31946 35.7641 9.20936 35.7954C9.09925 35.8266 9.03502 35.9423 9.0656 36.0548C9.09619 36.1673 9.20936 36.2329 9.31946 36.2017C9.42957 36.1704 9.4938 36.0548 9.46322 35.9423Z" fill="white"/>
<g style="mix-blend-mode:multiply">
<path d="M9.46352 35.9421C9.4941 36.0546 9.42987 36.1703 9.31977 36.2015C9.21577 36.2296 9.10872 36.1734 9.07202 36.0734C9.1179 36.1296 9.19131 36.1578 9.26471 36.139C9.36259 36.1109 9.4207 36.0077 9.39317 35.9046C9.38094 35.8608 9.35341 35.8202 9.31671 35.7983C9.384 35.8171 9.44211 35.8702 9.46046 35.9452L9.46352 35.9421Z" fill="#A6A8AB"/>
</g>
<path d="M8.70467 33.9296C8.67409 33.8171 8.56092 33.7514 8.45081 33.7827C8.3407 33.8139 8.27647 33.9296 8.30706 34.0421C8.33764 34.1546 8.45081 34.2202 8.56092 34.189C8.67103 34.1577 8.73526 34.0421 8.70467 33.9296Z" fill="white"/>
<g style="mix-blend-mode:multiply">
<path d="M8.70497 33.9294C8.73556 34.0419 8.67133 34.1576 8.56122 34.1888C8.45723 34.2169 8.35018 34.1607 8.31348 34.0607C8.35936 34.1169 8.43276 34.1451 8.50617 34.1263C8.60404 34.0982 8.66215 33.995 8.63463 33.8919C8.62239 33.845 8.59486 33.8075 8.55816 33.7856C8.62545 33.8044 8.68356 33.8575 8.70192 33.9325L8.70497 33.9294Z" fill="#A6A8AB"/>
</g>
<path d="M6.894 32.5453C6.86342 32.4328 6.75025 32.3672 6.64014 32.3984C6.53003 32.4297 6.4658 32.5453 6.49639 32.6578C6.52697 32.7703 6.64014 32.836 6.75025 32.8047C6.86036 32.7735 6.92459 32.6578 6.894 32.5453Z" fill="white"/>
<g style="mix-blend-mode:multiply">
<path d="M6.8943 32.5453C6.92489 32.6578 6.86066 32.7735 6.75055 32.8047C6.64656 32.8329 6.53951 32.7766 6.50281 32.6766C6.54869 32.7328 6.62209 32.761 6.6955 32.7391C6.79337 32.711 6.85148 32.6078 6.82396 32.5047C6.81172 32.4578 6.7842 32.4203 6.74749 32.3984C6.81478 32.4172 6.87289 32.4703 6.89125 32.5453H6.8943Z" fill="#A6A8AB"/>
</g>
<path d="M5.12618 31.2919C5.09559 31.1794 4.98243 31.1137 4.87232 31.145C4.76221 31.1762 4.69798 31.2919 4.72857 31.4044C4.75915 31.5169 4.87232 31.5825 4.98243 31.5513C5.09254 31.52 5.15677 31.4044 5.12618 31.2919Z" fill="white"/>
<g style="mix-blend-mode:multiply">
<path d="M5.12648 31.2919C5.15707 31.4044 5.09284 31.5201 4.98273 31.5513C4.87874 31.5794 4.77169 31.5232 4.73499 31.4232C4.78086 31.4794 4.85427 31.5076 4.93073 31.4857C5.02861 31.4576 5.08672 31.3544 5.05919 31.2513C5.04696 31.2044 5.01943 31.1669 4.98273 31.145C5.05002 31.1638 5.10813 31.2169 5.12954 31.2919H5.12648Z" fill="#A6A8AB"/>
</g>
<path d="M3.72848 29.7919C3.69789 29.6794 3.58472 29.6137 3.47461 29.645C3.36451 29.6762 3.30028 29.7919 3.33086 29.9044C3.36145 30.0169 3.47461 30.0825 3.58472 30.0513C3.69483 30.02 3.75906 29.9044 3.72848 29.7919Z" fill="white"/>
<g style="mix-blend-mode:multiply">
<path d="M3.72878 29.7917C3.75936 29.9042 3.69513 30.0199 3.58502 30.0511C3.48103 30.0792 3.37398 30.023 3.33728 29.923C3.38316 29.9792 3.45656 30.0074 3.53303 29.9886C3.6309 29.9605 3.68902 29.8573 3.66149 29.7542C3.64925 29.7105 3.62173 29.6698 3.58502 29.6479C3.65231 29.6667 3.71043 29.7198 3.73184 29.7948L3.72878 29.7917Z" fill="#A6A8AB"/>
</g>
<path d="M2.00338 30.0604C1.97279 29.9479 1.85962 29.8823 1.74952 29.9135C1.63941 29.9448 1.57518 30.0604 1.60576 30.1729C1.63635 30.2855 1.74952 30.3511 1.85963 30.3198C1.96973 30.2886 2.03396 30.1729 2.00338 30.0604Z" fill="white"/>
<g style="mix-blend-mode:multiply">
<path d="M2.00368 30.0603C2.03427 30.1728 1.97004 30.2884 1.85993 30.3197C1.75594 30.3478 1.64889 30.2915 1.61218 30.1915C1.65806 30.2478 1.73147 30.2759 1.80487 30.2572C1.90275 30.229 1.96086 30.1259 1.93333 30.0228C1.9211 29.9759 1.89357 29.9384 1.85687 29.9165C1.92416 29.9353 1.98227 29.9884 2.00062 30.0634L2.00368 30.0603Z" fill="#A6A8AB"/>
</g>
<path d="M4.78365 28.4511C4.75307 28.3386 4.6399 28.2729 4.52979 28.3042C4.41968 28.3354 4.35545 28.4511 4.38604 28.5636C4.41662 28.6761 4.52979 28.7417 4.6399 28.7105C4.75001 28.6792 4.81424 28.5636 4.78365 28.4511Z" fill="white"/>
<g style="mix-blend-mode:multiply">
<path d="M4.78395 28.4509C4.81454 28.5634 4.75031 28.679 4.6402 28.7103C4.53621 28.7384 4.42916 28.6822 4.39246 28.5822C4.43833 28.6384 4.51174 28.6665 4.58515 28.6478C4.68302 28.6197 4.74113 28.5165 4.71361 28.4134C4.70137 28.3665 4.67384 28.329 4.63714 28.3071C4.70443 28.3259 4.76254 28.379 4.78395 28.454V28.4509Z" fill="#A6A8AB"/>
</g>
<path d="M6.48726 27.3134C6.45668 27.2009 6.34351 27.1352 6.2334 27.1665C6.12329 27.1977 6.05906 27.3134 6.08965 27.4259C6.12024 27.5384 6.2334 27.604 6.34351 27.5728C6.45362 27.5415 6.51785 27.4259 6.48726 27.3134Z" fill="white"/>
<g style="mix-blend-mode:multiply">
<path d="M6.48757 27.3132C6.51815 27.4257 6.45392 27.5413 6.34381 27.5726C6.23982 27.6007 6.13277 27.5445 6.09607 27.4445C6.14195 27.5007 6.21535 27.5288 6.28876 27.5101C6.38663 27.482 6.44475 27.3788 6.41722 27.2757C6.40498 27.2288 6.37746 27.1913 6.34075 27.1694C6.40804 27.1882 6.46616 27.2413 6.48757 27.3163V27.3132Z" fill="#A6A8AB"/>
</g>
<path d="M8.29183 25.8319C8.26124 25.7194 8.14808 25.6538 8.03797 25.685C7.92786 25.7163 7.86363 25.8319 7.89422 25.9444C7.9248 26.0569 8.03797 26.1226 8.14808 26.0913C8.25819 26.0601 8.32242 25.9444 8.29183 25.8319Z" fill="white"/>
<g style="mix-blend-mode:multiply">
<path d="M8.29213 25.8318C8.32272 25.9443 8.25849 26.0599 8.14838 26.0912C8.04439 26.1193 7.93734 26.063 7.90063 25.963C7.94651 26.0193 8.01992 26.0474 8.09332 26.0286C8.1912 26.0005 8.24931 25.8974 8.22178 25.7942C8.20955 25.7474 8.18202 25.7099 8.14532 25.688C8.21261 25.7067 8.27072 25.7599 8.29213 25.8349V25.8318Z" fill="#A6A8AB"/>
</g>
<path d="M9.34395 24.4349C9.31337 24.3224 9.2002 24.2568 9.09009 24.2881C8.97998 24.3193 8.91575 24.4349 8.94634 24.5475C8.97693 24.66 9.09009 24.7256 9.2002 24.6944C9.31031 24.6631 9.37454 24.5475 9.34395 24.4349Z" fill="white"/>
<g style="mix-blend-mode:multiply">
<path d="M9.34426 24.435C9.37484 24.5475 9.31061 24.6631 9.2005 24.6944C9.09651 24.7225 8.98946 24.6663 8.95276 24.5662C8.99864 24.6225 9.07204 24.6506 9.14545 24.6287C9.24332 24.6006 9.30144 24.4975 9.27391 24.3943C9.26167 24.3475 9.23415 24.31 9.19744 24.2881C9.26473 24.3068 9.32285 24.36 9.34426 24.435Z" fill="#A6A8AB"/>
</g>
<path d="M10.2218 22.788C10.1912 22.6755 10.078 22.6098 9.9679 22.6411C9.85779 22.6723 9.79356 22.788 9.82415 22.9005C9.85473 23.013 9.9679 23.0786 10.078 23.0474C10.1881 23.0161 10.2523 22.9005 10.2218 22.788Z" fill="white"/>
<g style="mix-blend-mode:multiply">
<path d="M10.2221 22.7878C10.2526 22.9003 10.1884 23.016 10.0783 23.0472C9.97432 23.0753 9.86727 23.0191 9.83057 22.9191C9.87644 22.9753 9.94985 23.0035 10.0233 22.9847C10.1211 22.9566 10.1792 22.8534 10.1517 22.7503C10.1395 22.7034 10.112 22.6659 10.0753 22.644C10.1425 22.6628 10.2007 22.7159 10.2221 22.7909V22.7878Z" fill="#A6A8AB"/>
</g>
<path d="M10.9405 21.0409C10.9099 20.9284 10.7968 20.8628 10.6866 20.894C10.5765 20.9253 10.5123 21.0409 10.5429 21.1534C10.5735 21.2659 10.6866 21.3316 10.7968 21.3003C10.9069 21.2691 10.9711 21.1534 10.9405 21.0409Z" fill="white"/>
<g style="mix-blend-mode:multiply">
<path d="M10.9408 21.0407C10.9714 21.1532 10.9072 21.2689 10.7971 21.3001C10.6931 21.3283 10.586 21.272 10.5493 21.172C10.5952 21.2283 10.6686 21.2564 10.7451 21.2376C10.8429 21.2095 10.9011 21.1064 10.8735 21.0032C10.8613 20.9564 10.8338 20.9188 10.7971 20.897C10.8643 20.9157 10.9225 20.9689 10.9408 21.0439V21.0407Z" fill="#A6A8AB"/>
</g>
<path d="M11.231 18.5565C11.2005 18.444 11.0873 18.3784 10.9772 18.4096C10.8671 18.4409 10.8028 18.5565 10.8334 18.669C10.864 18.7816 10.9772 18.8472 11.0873 18.8159C11.1974 18.7847 11.2616 18.669 11.231 18.5565Z" fill="white"/>
<g style="mix-blend-mode:multiply">
<path d="M11.2313 18.5564C11.2619 18.6689 11.1977 18.7845 11.0876 18.8158C10.9836 18.8439 10.8765 18.7876 10.8398 18.6876C10.8857 18.7439 10.9591 18.772 11.0356 18.7533C11.1335 18.7251 11.1916 18.622 11.1641 18.5189C11.1518 18.472 11.1243 18.4345 11.0876 18.4126C11.1549 18.4313 11.213 18.4845 11.2344 18.5595L11.2313 18.5564Z" fill="#A6A8AB"/>
</g>
<path d="M13.0264 17.8436C12.9959 17.7311 12.8827 17.6655 12.7726 17.6968C12.6625 17.728 12.5982 17.8436 12.6288 17.9562C12.6594 18.0687 12.7726 18.1343 12.8827 18.103C12.9928 18.0718 13.057 17.9562 13.0264 17.8436Z" fill="white"/>
<g style="mix-blend-mode:multiply">
<path d="M13.0268 17.8435C13.0573 17.956 12.9931 18.0716 12.883 18.1029C12.779 18.131 12.672 18.0747 12.6353 17.9747C12.6811 18.031 12.7545 18.0591 12.8279 18.0404C12.9258 18.0122 12.9839 17.9091 12.9564 17.806C12.9442 17.7591 12.9166 17.7216 12.8799 17.6997C12.9472 17.7185 13.0053 17.7716 13.0237 17.8466L13.0268 17.8435Z" fill="#A6A8AB"/>
</g>
<path d="M14.2285 19.203C14.1979 19.0905 14.0847 19.0249 13.9746 19.0561C13.8645 19.0874 13.8003 19.203 13.8309 19.3155C13.8614 19.428 13.9746 19.4937 14.0847 19.4624C14.1948 19.4312 14.2591 19.3155 14.2285 19.203Z" fill="white"/>
<g style="mix-blend-mode:multiply">
<path d="M14.2256 19.206C14.2562 19.3185 14.192 19.4341 14.0819 19.4654C13.9779 19.4935 13.8708 19.4372 13.8341 19.3372C13.88 19.3935 13.9534 19.4216 14.0268 19.3997C14.1247 19.3716 14.1828 19.2685 14.1553 19.1653C14.143 19.1185 14.1155 19.081 14.0788 19.0591C14.1461 19.0778 14.2042 19.131 14.2225 19.206H14.2256Z" fill="#A6A8AB"/>
</g>
<g style="mix-blend-mode:soft-light" opacity="0.4">
<path d="M16.5408 23.6069L11.0047 35.8207L10.9589 35.3613C10.8855 34.6175 10.549 33.7924 10.0688 33.0673C9.71403 32.536 9.28277 32.0609 8.82092 31.7172L13.6473 20.8223C13.7697 20.9192 13.8951 21.0379 14.0205 21.1786H14.0236L14.6995 21.9568L15.3082 22.6537C15.5895 22.9787 15.9627 23.2725 16.3817 23.5194C16.4306 23.5475 16.4857 23.5788 16.5377 23.6069H16.5408Z" fill="white"/>
</g>
<g style="mix-blend-mode:soft-light" opacity="0.4">
<path d="M18.8928 24.3071L12.3903 38.6742C11.751 38.8086 11.2525 38.3242 11.1546 37.3209L11.1301 37.0584L17.1647 23.8945C17.7305 24.1258 18.3331 24.2696 18.8958 24.3039L18.8928 24.3071Z" fill="white"/>
</g>
</g>
<defs>
<clipPath id="clip0_446_6349">
<rect width="60" height="30" fill="white" transform="translate(0 15)"/>
</clipPath>
</defs>
</svg>
