<svg width="60" height="74" viewBox="0 0 60 74" fill="none" xmlns="http://www.w3.org/2000/svg">
<path fill-rule="evenodd" clip-rule="evenodd" d="M40.1909 9.11806L41.0465 17.0621C39.9281 17.5692 39.1276 17.9477 39.1276 17.9477L38.0241 17.2344L38.4055 7.74092L40.1909 9.11806ZM17.6534 14.6857L18.2171 8.5667L20.9727 7.09985L21.1713 16.2637C21.1713 16.2637 20.4096 16.6656 20.3105 16.6656C20.2765 16.6656 19.6664 16.2047 18.7907 15.5433C18.4464 15.2832 18.061 14.992 17.6534 14.6857ZM17.2595 18.9606L13.877 55.6777C13.877 55.6777 15.7066 56.2297 18.7269 56.7719L20.9393 21.114C20.0403 20.7092 18.7125 19.9106 17.2595 18.9606ZM25.15 57.6034C26.229 46.2904 27.4951 33.2878 27.4951 33.2878L29.7466 33.4885L32.3253 57.7729C29.7711 57.8633 27.3487 57.7799 25.15 57.6034ZM39.2127 57.0918L36.7881 23.2544C36.7881 23.2544 38.9379 22.5771 41.5362 21.6084L45.2056 55.6777C43.204 56.3001 41.1945 56.761 39.2127 57.0918Z" fill="#C0FFD6"/>
<path fill-rule="evenodd" clip-rule="evenodd" d="M28.5706 0.825925C28.5706 1.28595 29.1533 1.6585 29.871 1.6585C30.5895 1.6585 31.1714 1.28595 31.1714 0.825925V-4.14275e-10C33.4751 0.149245 35.663 0.695961 37.8181 1.69224C40.3305 2.85373 48.3538 9.32925 50.8223 11.5177C53.2903 13.7061 52.6112 15.5125 49.4815 17.9244C46.3523 20.3364 36.7432 23.3738 36.7432 23.3738L35.0276 26.7086L34.0102 27.7257H32.5938L29.7127 33.6246L27.4647 33.4236C27.4647 33.4236 27.3325 30.4372 27.4647 30.3702C27.5969 30.3032 26.1036 30.3702 26.1036 30.3702H21.1509L20.9192 21.2299C18.1756 19.9906 11.4317 15.066 9.34881 13.391C7.26588 11.716 7.66255 9.54656 10.0755 7.90536C12.3093 6.38606 22.253 0.826654 28.5706 0.0486691V0.825925ZM18.9498 15.742C19.7281 16.3554 20.2593 16.7742 20.2913 16.7742C20.3902 16.7742 21.1509 16.3716 21.1509 16.3716L20.9525 7.19281L13.1099 11.3732C14.5882 12.304 17.3144 14.4529 18.9498 15.742ZM37.9625 18.5978L38.974 17.8753C38.974 17.8753 45.1324 15.088 47.21 14.552L38.396 7.76087L37.9625 18.5978Z" fill="#40C181"/>
<path d="M37.8124 21.8895L20.9172 21.4875V21.6898C21.0874 21.7647 20.9172 21.8195 20.9172 21.8195L20.6984 22.7725C20.6984 22.7725 18.5993 29.5791 17.5852 37.6707C27.2563 41.6729 38.5238 39.289 40.0981 37.6707C38.8812 34.0295 38.4756 25.9379 37.3647 22.7152C37.3647 22.7152 37.7736 22.5897 38.4756 22.3421C38.0602 22.0531 37.8124 21.8895 37.8124 21.8895Z" fill="#40C181"/>
<path d="M20.8878 19.9555L20.8826 21.929L37.5884 21.9728L37.5936 19.9993L20.8878 19.9555Z" fill="#006D42"/>
<path d="M31.4976 20.8947C31.528 19.9123 30.7538 19.0912 29.7684 19.0609C28.783 19.0306 27.9602 19.8028 27.9298 20.7856C27.8995 21.768 28.6736 22.5891 29.659 22.6194C30.6444 22.6497 31.4677 21.8771 31.4976 20.8947Z" fill="#FFD83B"/>
<path d="M21.1836 17.6564L21.162 16.1415C21.162 16.1415 20.4334 16.5749 20.3345 16.5749C20.2885 16.5749 19.1348 15.7476 17.7337 14.6965L16.2974 18.5252C18.1068 19.7389 19.829 20.8091 20.9192 21.299C20.9192 21.299 22.6382 21.8986 22.8365 21.4765C23.0349 21.0543 20.7208 20.055 20.7208 20.055C20.7208 20.055 23.4538 20.8321 23.5199 20.0773C23.586 19.3221 21.162 18.9223 21.162 18.9223C21.162 18.9223 23.9611 18.8781 23.9611 18.2118C23.9611 17.5456 21.1836 17.6564 21.1836 17.6564Z" fill="#6FF6F7"/>
<path d="M39.0791 17.8563L37.9774 17.1458L37.8673 18.6783C37.8673 18.6783 34.9582 18.7006 35.0243 19.5886C35.073 20.2447 36.4789 20.1254 37.2115 20.0182C36.398 20.1675 34.7366 20.5278 34.8704 20.9654C35.0466 21.5426 37.559 21.2985 37.559 21.2985C37.559 21.2985 35.201 23.0307 35.7299 23.3639C36.2589 23.697 36.7439 23.4305 36.7439 23.4305C36.7439 23.4305 40.1216 22.3688 43.5237 21.0043L41.8185 16.6042C40.293 17.2838 39.0791 17.8563 39.0791 17.8563Z" fill="#6FF6F7"/>
<path fill-rule="evenodd" clip-rule="evenodd" d="M28.5706 0.825883C28.5706 1.28591 29.1534 1.65846 29.871 1.65846C30.5896 1.65846 31.1715 1.28591 31.1715 0.825883V0.00878905C32.9828 0.0481149 35.3844 0.63935 35.9397 0.969743C34.7424 3.45544 31.7144 8.3807 30.4863 10.3783C30.1666 10.8982 29.9689 11.2198 29.9572 11.2484C29.9196 11.3425 27.9263 8.3118 26.0025 5.38684C25.015 3.88548 24.0458 2.41198 23.3689 1.40322C24.9017 0.687909 27.25 0.173528 28.5706 0.0320079V0.825883Z" fill="#C0FFD6"/>
<path d="M23.6299 73.9994C23.5923 74.0186 24.8533 61.3693 25.2923 56.6858L19.0049 52.4377L17.9438 69.1363L12.9851 73.9999C12.9851 73.9999 23.7621 73.9328 23.6299 73.9994Z" fill="#008586"/>
<path d="M38.8813 52.8423L32.1882 57.0904L34.0103 73.9993H45.7351L40.093 70.0684L38.8813 52.8423Z" fill="#008586"/>
</svg>
