<svg width="60" height="74" viewBox="0 0 60 74" fill="none" xmlns="http://www.w3.org/2000/svg">
<path fill-rule="evenodd" clip-rule="evenodd" d="M41.3939 9.23913L42.3697 16.9102C41.0966 17.4842 40.1497 17.9319 40.1497 17.9319L39.0459 17.2184L39.4274 7.7223L41.3939 9.23913ZM18.4516 14.5054L19.0916 8.62381L21.9898 7.08105L22.1885 16.2474C22.1885 16.2474 21.4265 16.6494 21.3274 16.6494C21.2934 16.6494 20.6831 16.1884 19.8072 15.5268C19.402 15.2207 18.9398 14.8716 18.4516 14.5054ZM17.989 18.7569L14.7467 48.5557C14.7467 48.5557 16.816 49.0842 20.1897 49.5722L21.9564 21.099C20.9984 20.6677 19.5534 19.7892 17.989 18.7569ZM26.8722 50.2494C27.7313 41.3138 28.514 33.2763 28.514 33.2763L30.7661 33.477L32.5597 50.3676C30.5612 50.4039 28.6505 50.3534 26.8722 50.2494ZM39.7163 49.8501L37.8096 23.2401C37.8096 23.2401 40.1775 22.494 42.947 21.448L46.3952 48.5557C44.1626 49.1435 41.92 49.5629 39.7163 49.8501Z" fill="#4CDADB"/>
<path fill-rule="evenodd" clip-rule="evenodd" d="M29.5898 0.699562C29.5898 1.15715 30.1727 1.52773 30.8906 1.52773C31.6093 1.52773 32.1914 1.15715 32.1914 0.699562V0.0859375C34.4957 0.229528 36.6593 0.764798 38.8229 1.76274C40.2094 2.40229 43.2199 4.62947 46.055 6.86453L43.3014 10.5386L43.2811 10.7529L39.38 7.74102L38.9991 17.2311L40.1011 17.9441C40.1011 17.9441 41.3182 17.3682 42.8471 16.6853L44.5043 20.8311C41.1154 22.1922 37.7647 23.2489 37.7647 23.2489L41.1154 70.0546L46.759 73.9996H35.031L30.7322 33.4793L28.4836 33.2787C28.4836 33.2787 24.5624 73.5846 24.6459 73.9965C24.4387 73.9349 14.0001 73.9996 14.0001 73.9996L18.9602 69.1184L21.9363 21.1092C20.8717 20.6295 19.205 19.5962 17.4419 18.4135L18.8685 14.8444C19.1966 15.0916 19.5074 15.3266 19.7904 15.5405L19.7904 15.5406C20.665 16.2018 21.2743 16.6624 21.3083 16.6624C21.4072 16.6624 22.168 16.2607 22.168 16.2607L21.9696 7.10019L18.7424 8.81965L16.2358 4.97339C20.2266 2.94487 25.6095 0.621976 29.5898 0.137695V0.699562ZM24.6459 73.9965C24.6464 73.999 24.647 74 24.6478 73.9996C24.6499 73.9985 24.6493 73.9975 24.6459 73.9965Z" fill="#008954"/>
<path d="M22.1622 17.3287V16.0345C22.1622 16.0345 21.3611 16.5059 21.2613 16.5059C21.2149 16.5059 18.8544 14.7656 17.4406 13.6685L16.0038 17.391C17.7648 18.6934 20.7436 20.6474 21.8954 21.1308C21.8954 21.1308 23.6299 21.7567 23.8301 21.316C24.0302 20.8754 21.6952 19.8323 21.6952 19.8323C21.6952 19.8323 24.4529 20.6434 24.5196 19.8556C24.5864 19.0673 22.1403 18.65 22.1403 18.65C22.1403 18.65 24.9648 18.6039 24.9648 17.9084C24.9648 17.213 22.1622 17.3287 22.1622 17.3287Z" fill="#C0FFD6"/>
<path d="M38.3376 21.9839L21.8584 22.5373L21.7759 23.8606L37.7646 23.417L38.3376 21.9839Z" fill="#004F50"/>
<path d="M21.7746 23.8835L21.691 25.2318C24.0931 29.344 28.4839 33.4135 28.4839 33.4135L30.7325 33.6135C33.8408 29.7812 37.765 23.417 37.765 23.417L21.7746 23.8835Z" fill="#FAE366"/>
<path d="M40.1709 17.8676L38.9844 16.9927L38.9576 18.4246C38.9576 18.4246 36.0448 18.448 36.111 19.376C36.1597 20.0617 37.5674 19.937 38.3009 19.825C37.4863 19.981 35.8229 20.3575 35.9569 20.8148C36.1332 21.4181 38.6488 21.163 38.6488 21.163C38.6488 21.163 36.2879 22.9734 36.8175 23.3215C37.3471 23.6697 37.8327 23.3911 37.8327 23.3911C37.8327 23.3911 41.2147 22.2815 44.6211 20.8555L42.9137 16.5591C41.3863 17.2693 40.1709 17.8676 40.1709 17.8676Z" fill="#C0FFD6"/>
<path d="M24.6477 73.9993C24.6101 74.0185 25.8715 60.3539 26.3106 55.6691L19.8186 55.4668L18.9601 69.1348L14 73.9998C14 73.9998 24.78 73.9326 24.6477 73.9993Z" fill="#003920"/>
<path d="M40.1061 55.4668L33.0055 55.8715L35.0309 73.9992H46.759L41.1153 70.0672L40.1061 55.4668Z" fill="#003920"/>
<path fill-rule="evenodd" clip-rule="evenodd" d="M29.5897 0.699517C29.5897 1.1571 30.1726 1.52768 30.8905 1.52768C31.6093 1.52768 32.1913 1.1571 32.1913 0.699517V0C33.6509 0.0843091 35.0832 0.342274 36.2515 0.793676C35.7379 2.78222 33.6142 5.19833 31.121 5.19833C28.4677 5.19833 25.8569 2.66721 25.2963 1.19973C26.232 0.580546 27.8202 0.177922 29.5897 0.0312035V0.699517Z" fill="#4CDADB"/>
<path fill-rule="evenodd" clip-rule="evenodd" d="M32.4251 11.9329C32.4251 11.5119 32.7664 11.1707 33.1874 11.1707C33.6083 11.1707 33.9496 11.5119 33.9496 11.9329L33.9496 12.9649C33.9496 13.4034 33.8005 13.8421 33.4518 14.1079C33.2143 14.2889 32.9539 14.4394 32.6765 14.5551C32.189 14.7584 31.6618 14.8487 31.1344 14.8193C30.6331 14.816 30.1378 14.7101 29.679 14.5083C29.2202 14.3064 28.8075 14.0128 28.4664 13.6455C27.8699 12.9607 27.5493 12.0786 27.567 11.1707C27.5633 10.7067 27.6511 10.2467 27.8256 9.81676C28 9.38686 28.2575 8.99559 28.5833 8.66537C28.9128 8.3251 29.3078 8.05512 29.7445 7.87171C30.1812 7.68829 30.6505 7.59526 31.1242 7.59821C31.9301 7.60325 32.7134 7.83457 33.3877 8.25905C33.7169 8.46628 33.7424 8.91685 33.4859 9.20927C33.197 9.53857 32.6781 9.5165 32.2949 9.3043C32.2493 9.27906 32.2028 9.25541 32.1553 9.23342C31.8532 9.09338 31.5231 9.02423 31.1902 9.03126C30.6551 9.04157 30.1457 9.26252 29.7724 9.64614C29.5625 9.84103 29.3947 10.0768 29.2794 10.339C29.164 10.6012 29.1035 10.8842 29.1017 11.1707C29.0956 11.463 29.1493 11.7535 29.2594 12.0243C29.3695 12.2952 29.5337 12.5408 29.742 12.746C30.1068 13.1109 30.5895 13.3343 31.1039 13.3761C31.3185 13.3877 31.5328 13.3722 31.7418 13.3308C32.1795 13.2441 32.4251 12.8114 32.4251 12.3652L32.4251 11.9329Z" fill="#C0FFD6"/>
</svg>
