<svg width="60" height="61" viewBox="0 0 60 61" fill="none" xmlns="http://www.w3.org/2000/svg">
<path d="M0.963142 45.8076L2.0356 50.634C2.0356 50.634 2.46643 56.0841 10.9835 55.6488C19.5005 55.2136 22.5333 48.4027 32.3547 48.4889C37.2357 48.5318 37.569 49.5615 45.0767 53.8516C52.5844 58.1417 56.0553 55.6746 57.2707 53.8516C59.4159 50.634 62.6334 25.4296 56.1982 6.12415C56.1982 6.12415 50.6057 9.6719 48.1542 13.5835C48.1542 13.5835 34.275 11.8453 14.546 13.5835C14.546 13.5835 10.9821 7.6737 8.02717 5.58789C8.02717 5.58789 -3.31137 21.6429 0.963142 45.8076Z" fill="black"/>
<path d="M14.912 45.7269C16.5971 45.7269 17.9632 44.3608 17.9632 42.6757C17.9632 40.9906 16.5971 39.6245 14.912 39.6245C13.2269 39.6245 11.8608 40.9906 11.8608 42.6757C11.8608 44.3608 13.2269 45.7269 14.912 45.7269Z" fill="#F6F8F7"/>
<path d="M48.214 45.6531C49.8991 45.6531 51.2652 44.2871 51.2652 42.602C51.2652 40.9168 49.8991 39.5508 48.214 39.5508C46.5289 39.5508 45.1628 40.9168 45.1628 42.602C45.1628 44.2871 46.5289 45.6531 48.214 45.6531Z" fill="#F6F8F7"/>
<path d="M10.9162 34.0872C10.5004 35.7934 21.1561 38.4437 21.3313 36.8808C21.5065 35.315 11.3903 32.139 10.9162 34.0872Z" fill="#F6F8F7"/>
<path d="M42.0254 35.3813C42.469 37.0806 53.1066 34.3635 52.5198 32.9034C51.9316 31.4433 41.5193 33.4415 42.0254 35.3813Z" fill="#F6F8F7"/>
</svg>
