<svg width="60" height="60" viewBox="0 0 60 60" fill="none" xmlns="http://www.w3.org/2000/svg">
<g clip-path="url(#clip0_446_6359)">
<path d="M48.7113 19.2222C43.8451 18.6452 40.6617 19.2539 35.9836 22.6095C34.383 23.7578 32.624 24.029 30.0015 24.029C27.376 24.029 25.6199 23.7549 24.0194 22.6095C19.3412 19.2539 16.1578 18.6423 11.2917 19.2222C3.81479 20.1109 0 21.5794 0 21.5794L0.657824 26.2132C3.27737 26.8652 3.68558 29.9986 3.68558 29.9986C3.97337 32.1337 5.60912 40.8846 15.6468 40.8846C22.1193 40.8846 27.0589 36.1932 27.3878 29.8543C27.5053 27.5692 28.9824 26.7498 29.9985 26.7412C31.0117 26.7498 32.4918 27.5721 32.6093 29.8543C32.9352 36.1932 37.8748 40.8846 44.3503 40.8846C54.3909 40.8846 56.0266 32.1337 56.3115 29.9986C56.3115 29.9986 56.7197 26.8652 59.3392 26.2132L59.9971 21.5794C59.9971 21.5794 56.1823 20.108 48.7054 19.2222H48.7113ZM15.6497 38.7755C11.4649 38.7755 7.91738 36.2798 6.68102 32.8261C6.68102 32.8261 5.60912 30.8093 5.60912 23.1231C5.60912 23.1231 10.3284 20.033 17.8405 21.7324C22.0782 22.6903 25.0854 26.0545 25.0854 30.1371C25.0854 34.9093 20.8595 38.7784 15.6497 38.7784V38.7755ZM53.319 32.829C52.0826 36.2827 48.538 38.7784 44.3532 38.7784C39.1405 38.7784 34.9175 34.9093 34.9175 30.1371C34.9175 26.0573 37.9247 22.6903 42.1624 21.7324C49.6745 20.0358 54.3938 23.1231 54.3938 23.1231C54.3938 30.8093 53.3219 32.8261 53.3219 32.8261L53.319 32.829Z" fill="#BD5800"/>
<path opacity="0.15" d="M1.74145 22.6035C1.50651 22.6353 1.33912 22.8488 1.37142 23.0796L1.60342 24.7588C1.63573 24.9896 1.85304 25.1541 2.08798 25.1224C2.32292 25.0906 2.49031 24.8771 2.45801 24.6463L2.22601 22.9671C2.1937 22.7363 1.97639 22.5718 1.74145 22.6035Z" fill="black"/>
<path d="M1.66809 22.52C1.43315 22.5518 1.26576 22.7653 1.29806 22.9961L1.53006 24.6753C1.56236 24.9061 1.77968 25.0706 2.01462 25.0389C2.24955 25.0071 2.41695 24.7936 2.38464 24.5628L2.15264 22.8836C2.12034 22.6528 1.90302 22.4883 1.66809 22.52Z" fill="#FF7069"/>
<path opacity="0.15" d="M58.2585 22.6035C58.4935 22.6353 58.6608 22.8488 58.6285 23.0796L58.3965 24.7588C58.3642 24.9896 58.1469 25.1541 57.912 25.1224C57.677 25.0906 57.5097 24.8771 57.542 24.6463L57.774 22.9671C57.8063 22.7363 58.0236 22.5718 58.2585 22.6035Z" fill="black"/>
<path d="M58.3319 22.52C58.5668 22.5518 58.7342 22.7653 58.7019 22.9961L58.4699 24.6753C58.4376 24.9061 58.2203 25.0706 57.9853 25.0389C57.7504 25.0071 57.583 24.7936 57.6153 24.5628L57.8473 22.8836C57.8796 22.6528 58.0969 22.4883 58.3319 22.52Z" fill="#FF7069"/>
<g opacity="0.5">
<mask id="mask0_446_6359" style="mask-type:luminance" maskUnits="userSpaceOnUse" x="34" y="21" width="21" height="18">
<path d="M42.1594 21.7322C49.6715 20.0357 54.3908 23.1229 54.3908 23.1229C54.3908 30.8092 53.3189 32.826 53.3189 32.826C52.0826 36.2797 48.538 38.7754 44.3531 38.7754C39.1405 38.7754 34.9175 34.9063 34.9175 30.1341C34.9175 26.0543 37.9247 22.6873 42.1624 21.7294L42.1594 21.7322Z" fill="white"/>
</mask>
<g mask="url(#mask0_446_6359)">
<path opacity="0.71" d="M42.1594 21.7322C49.6715 20.0357 54.3908 23.1229 54.3908 23.1229C54.3908 30.8092 53.3189 32.826 53.3189 32.826C52.0826 36.2797 48.538 38.7754 44.3531 38.7754C39.1405 38.7754 34.9175 34.9063 34.9175 30.1341C34.9175 26.0543 37.9247 22.6873 42.1624 21.7294L42.1594 21.7322Z" fill="#E6E6E6"/>
<g style="mix-blend-mode:screen" opacity="0.3">
<path d="M41.8511 41H37.5194L45.0315 19H49.3632L41.8511 41Z" fill="url(#paint0_linear_446_6359)"/>
<path d="M44.2738 41H42.8789L50.391 19H51.786L44.2738 41Z" fill="url(#paint1_linear_446_6359)"/>
</g>
</g>
</g>
<g opacity="0.5">
<mask id="mask1_446_6359" style="mask-type:luminance" maskUnits="userSpaceOnUse" x="5" y="21" width="21" height="18">
<path d="M17.8405 21.7322C10.3284 20.0357 5.60913 23.1229 5.60913 23.1229C5.60913 30.8092 6.68103 32.826 6.68103 32.826C7.91739 36.2797 11.462 38.7754 15.6498 38.7754C20.8624 38.7754 25.0854 34.9063 25.0854 30.1341C25.0854 26.0543 22.0782 22.6873 17.8405 21.7294V21.7322Z" fill="white"/>
</mask>
<g mask="url(#mask1_446_6359)">
<path opacity="0.71" d="M17.8405 21.7322C10.3284 20.0357 5.60913 23.1229 5.60913 23.1229C5.60913 30.8092 6.68103 32.826 6.68103 32.826C7.91739 36.2797 11.462 38.7754 15.6498 38.7754C20.8624 38.7754 25.0854 34.9063 25.0854 30.1341C25.0854 26.0543 22.0782 22.6873 17.8405 21.7294V21.7322Z" fill="#E6E6E6"/>
<g style="mix-blend-mode:screen" opacity="0.3">
<path d="M12.854 41H8.52234L16.0345 19H20.3661L12.854 41Z" fill="url(#paint2_linear_446_6359)"/>
<path d="M15.2768 41H13.8818L21.3939 19H22.7889L15.2768 41Z" fill="url(#paint3_linear_446_6359)"/>
</g>
</g>
</g>
</g>
<defs>
<linearGradient id="paint0_linear_446_6359" x1="43.4428" y1="13.4603" x2="43.4428" y2="52.2813" gradientUnits="userSpaceOnUse">
<stop stop-color="white"/>
<stop offset="1"/>
</linearGradient>
<linearGradient id="paint1_linear_446_6359" x1="47.3339" y1="19" x2="47.3339" y2="19" gradientUnits="userSpaceOnUse">
<stop stop-color="white"/>
<stop offset="1"/>
</linearGradient>
<linearGradient id="paint2_linear_446_6359" x1="14.4428" y1="19" x2="14.4428" y2="19" gradientUnits="userSpaceOnUse">
<stop stop-color="white"/>
<stop offset="1"/>
</linearGradient>
<linearGradient id="paint3_linear_446_6359" x1="18.3339" y1="19" x2="18.3339" y2="19" gradientUnits="userSpaceOnUse">
<stop stop-color="white"/>
<stop offset="1"/>
</linearGradient>
<clipPath id="clip0_446_6359">
<rect width="60" height="22" fill="white" transform="translate(0 19)"/>
</clipPath>
</defs>
</svg>
