<svg width="60" height="60" viewBox="0 0 60 60" fill="none" xmlns="http://www.w3.org/2000/svg">
<path d="M10.5 30.25C10.5 27.3499 8.15011 25 5.25 25C2.34989 25 0 27.3499 0 30.25C0 33.1501 2.34989 35.5 5.25 35.5C8.15011 35.5 10.5 33.1501 10.5 30.25Z" fill="#4A413C"/>
<path d="M60 30.25C60 27.3499 57.3144 25 54 25C50.6856 25 48 27.3499 48 30.25C48 33.1501 50.6856 35.5 54 35.5C57.3144 35.5 60 33.1501 60 30.25Z" fill="#4A413C"/>
<path d="M25.996 31L24 33.5141C24 33.5141 24.916 35.5997 27 35.4963" stroke="#E88F7A" stroke-width="3" stroke-miterlimit="10" stroke-linecap="round" stroke-linejoin="round"/>
</svg>
