<svg width="71" height="74" viewBox="0 0 71 74" fill="none" xmlns="http://www.w3.org/2000/svg">
<path d="M35.3717 69.3185C33.7297 69.3185 32.3965 68.4709 32.3965 67.4243V59.3119C32.3965 58.2666 33.7278 57.4177 35.3717 57.4177C37.0136 57.4177 38.3469 58.2653 38.3469 59.3119V67.4243C38.3469 68.4709 37.0156 69.3185 35.3717 69.3185Z" fill="#C8C7BF"/>
<path d="M62.5372 37.056C61.7158 37.056 60.9272 37.1937 60.1869 37.4395C59.5982 24.2773 48.9261 13.7815 35.8093 13.7815C22.4598 13.7815 11.6291 24.6486 11.3977 38.1378C10.2686 37.4555 8.95535 37.056 7.54517 37.056C3.37885 37.056 0 40.4833 0 44.7121C0 48.9397 3.37764 52.3683 7.54517 52.3683C10.0978 52.3683 12.3499 51.0787 13.7153 49.1094C17.6211 57.5277 26.0325 63.3681 35.8093 63.3681C45.1366 63.3681 53.2366 58.0624 57.3545 50.2661C58.7065 51.5655 60.5274 52.3683 62.5372 52.3683C66.7036 52.3683 70.0824 48.9409 70.0824 44.7121C70.0824 40.4833 66.7036 37.056 62.5372 37.056Z" fill="#C8C7BF"/>
<path d="M34.523 5C17.9492 5 5.46606 17.265 5.46606 32.3945C5.46606 34.1788 5.58473 35.2528 5.94242 36.9419C5.94242 36.9419 6.8632 38.1723 10.2728 38.1723C10.2728 38.1723 10.2728 45.6435 12.6226 45.99C14.9725 46.3364 14.9725 37.6111 14.9725 37.6111C14.9725 37.6111 24.9965 33.1279 40.2398 21.2093C40.2398 21.2093 51.8789 32.8461 55.5916 35.4749C55.5916 35.4749 53.4697 45.4365 56.8041 45.5063C60.1385 45.576 60.2901 37.4816 60.2901 37.4816L64.0575 36.9419C64.2091 35.8262 64.5339 33.549 64.5339 32.3956C64.5327 17.265 51.0968 5 34.523 5Z" fill="placeholder"/>
</svg>
