<svg width="60" height="60" viewBox="0 0 60 60" fill="none" xmlns="http://www.w3.org/2000/svg">
<g clip-path="url(#clip0_446_6354)">
<path d="M22.6807 23.6462C22.6807 23.6462 19.5137 19.2574 18.5488 18.4482C17.5797 17.6427 16.3343 17.0323 15.0024 16.9998C14.1323 16.9781 13.1962 17.2454 12.7096 17.8811C12.1116 18.6614 12.3756 19.7522 12.9941 20.518C11.2704 19.6728 9.26628 19.279 7.29514 19.3946C6.18999 19.4597 4.84978 19.922 4.80855 20.8901C4.77968 21.5872 5.46422 22.1291 6.09102 22.5625C4.62298 22.2627 3.03947 22.4217 1.69102 23.0068C1.2704 23.1874 0.845658 23.4403 0.697205 23.8304C0.495143 24.3614 0.915761 24.9502 1.48071 25.2139C2.04566 25.4776 2.70958 25.4992 3.34875 25.5101C1.90133 26.0266 -0.659497 27.9339 0.161122 29.2884C0.981741 30.643 4.90339 29.6569 8.76731 26.684C12.2106 24.0327 13.5055 21.5908 22.6807 23.6426V23.6462Z" fill="#B0A5A4"/>
<path d="M1.70727 28.7501C2.17738 27.4858 4.5114 25.8531 5.7114 25.3582C4.94026 25.3077 4.08666 25.3944 3.28253 25.5425C1.82686 26.0915 -0.643241 27.9626 0.165006 29.2955C0.408305 29.7001 0.940264 29.8915 1.65779 29.8879C1.58356 29.5123 1.57532 29.1221 1.7114 28.7537L1.70727 28.7501Z" fill="#D8D2D2"/>
<path d="M5.09281 23.3755C5.95054 23.3755 6.93198 23.3611 7.64538 23.7765C7.24538 23.3177 6.65982 22.9023 6.06188 22.5628C4.60208 22.2666 3.02683 22.4291 1.68662 23.0107C1.266 23.1913 0.841258 23.4441 0.692805 23.8343C0.639196 23.9751 0.630949 24.1232 0.659815 24.2641C0.936104 24.098 1.23713 23.9571 1.54229 23.8451C2.65569 23.4478 3.88868 23.3791 5.09281 23.3755Z" fill="#D8D2D2"/>
<path d="M18.5443 18.4482C17.5793 17.6427 16.334 17.0323 15.002 16.9998C14.1319 16.9781 13.1958 17.2454 12.7092 17.8811C12.1113 18.6614 12.3752 19.7522 12.9938 20.518C11.2701 19.6728 9.26594 19.279 7.29481 19.3946C6.24739 19.456 4.98553 19.8787 4.82471 20.7528C7.76491 20.583 11.0391 20.7239 13.4515 22.0424C13.2412 21.0273 13.167 20.1893 13.8598 19.6439C14.8618 18.8528 16.2886 19.1851 17.3525 19.9076C18.4165 20.6336 19.002 21.7678 19.4144 22.8949C19.435 22.9526 19.4556 23.0068 19.4763 23.0646C20.4288 23.1874 21.4886 23.3789 22.6845 23.6462C22.6845 23.6462 19.5134 19.2574 18.5484 18.4482H18.5443Z" fill="#D8D2D2"/>
<path d="M37.3199 23.6467C37.3199 23.6467 40.4869 19.2579 41.4519 18.4487C42.4168 17.6432 43.6663 17.0327 44.9983 17.0002C45.8684 16.9786 46.8045 17.2459 47.2911 17.8816C47.889 18.6618 47.6251 19.7527 47.0024 20.5185C48.7261 19.6733 50.7302 19.2795 52.7014 19.3951C53.8065 19.4601 55.1467 19.9225 55.188 20.8906C55.2168 21.5877 54.5323 22.1296 53.9055 22.563C55.3735 22.2632 56.957 22.4221 58.3055 23.0073C58.7261 23.1879 59.1509 23.4408 59.2993 23.8309C59.5014 24.3619 59.0807 24.9507 58.5158 25.2144C57.9508 25.4781 57.2869 25.4997 56.6478 25.5106C58.0952 26.0271 60.656 27.9344 59.8354 29.2889C59.0148 30.6435 55.0931 29.6574 51.2292 26.6845C47.7859 24.0332 46.4911 21.5913 37.3158 23.6431L37.3199 23.6467Z" fill="#B0A5A4"/>
<path d="M58.2928 28.7506C57.8227 27.4863 55.4887 25.8536 54.2928 25.3587C55.064 25.3082 55.9176 25.3948 56.7217 25.5429C58.1774 26.092 60.6475 27.9631 59.8392 29.296C59.5918 29.7006 59.064 29.892 58.3465 29.8884C58.4207 29.5128 58.4289 29.1226 58.2928 28.7542V28.7506Z" fill="#D8D2D2"/>
<path d="M54.9073 23.376C54.0496 23.376 53.0681 23.3616 52.3547 23.777C52.7547 23.3182 53.3362 22.9028 53.9382 22.5633C55.398 22.2671 56.9733 22.4296 58.3135 23.0112C58.7341 23.1918 59.1589 23.4446 59.3073 23.8348C59.3609 23.9756 59.3692 24.1237 59.3403 24.2646C59.064 24.0984 58.763 23.9576 58.4578 23.8456C57.3444 23.4482 56.1114 23.3796 54.9073 23.376Z" fill="#D8D2D2"/>
<path d="M41.4516 18.4487C42.4166 17.6432 43.666 17.0327 44.998 17.0002C45.8681 16.9786 46.8042 17.2459 47.2908 17.8816C47.8887 18.6618 47.6248 19.7527 47.0021 20.5185C48.7258 19.6733 50.73 19.2795 52.7011 19.3951C53.7485 19.4565 55.0104 19.8792 55.1712 20.7533C52.231 20.5835 48.9568 20.7244 46.5444 22.0429C46.7547 21.0278 46.8289 20.1898 46.1361 19.6444C45.1341 18.8533 43.7073 19.1856 42.6434 19.9081C41.5794 20.6341 40.9939 21.7683 40.5815 22.8953C40.5609 22.9531 40.5403 23.0073 40.5196 23.0651C39.5671 23.1879 38.5073 23.3794 37.3114 23.6467C37.3114 23.6467 40.4825 19.2579 41.4475 18.4487H41.4516Z" fill="#D8D2D2"/>
<path d="M29.6577 23.5741C25.1422 23.5741 20.7422 23.4223 16.5814 23.1225L16.6845 22.0425C24.9402 22.6385 34.1567 22.6385 43.3278 22.0425L43.4185 23.1225C38.8 23.4223 34.1732 23.5741 29.6577 23.5741Z" fill="#2A3137"/>
<path d="M16.8535 40.0893C22.2694 40.0893 26.6597 36.2435 26.6597 31.4995C26.6597 26.7555 22.2694 22.9097 16.8535 22.9097C11.4377 22.9097 7.04736 26.7555 7.04736 31.4995C7.04736 36.2435 11.4377 40.0893 16.8535 40.0893Z" fill="#5B344C"/>
<path d="M43.1422 40.0893C48.5581 40.0893 52.9484 36.2435 52.9484 31.4995C52.9484 26.7555 48.5581 22.9097 43.1422 22.9097C37.7264 22.9097 33.3361 26.7555 33.3361 31.4995C33.3361 36.2435 37.7264 40.0893 43.1422 40.0893Z" fill="#5B344C"/>
<path d="M8.72986 36.311C10.4948 38.5903 13.4721 40.0894 16.8536 40.0894C21.934 40.0894 26.1113 36.7048 26.6103 32.3701C21.8144 32.8758 17.068 33.6886 12.4948 35.0323C11.2247 35.4044 9.95872 35.827 8.72986 36.3146V36.311Z" fill="#40132F"/>
<path d="M47.2948 30.6832C42.7092 31.4707 38.0123 31.5682 33.3442 31.8355C33.5463 36.423 37.8515 40.0894 43.1381 40.0894C48.4247 40.0894 52.9442 36.2424 52.9442 31.4996C52.9442 30.7627 52.837 30.0475 52.6391 29.3647C50.9071 29.9391 49.1051 30.3689 47.2948 30.6832Z" fill="#40132F"/>
<path d="M16.066 25.6839C14.1484 25.8934 12.3505 26.8037 11.1381 28.1258C10.1773 29.1733 9.56699 30.5243 9.74844 31.8572C9.82266 32.4134 10.1649 33.0492 10.8041 33.0925C11.3154 33.125 11.7278 32.7566 12.0577 32.4171C13.2618 31.1709 14.4288 29.8813 15.8309 28.8049C17.233 27.7284 19.6165 27.3311 21.4639 27.1071C20.0082 25.991 17.9876 25.478 16.0701 25.6875L16.066 25.6839Z" fill="#6F4D62"/>
<path d="M42.4454 25.6839C40.5278 25.8934 38.7299 26.8037 37.5175 28.1258C36.5567 29.1733 35.9464 30.5243 36.1278 31.8572C36.2021 32.4134 36.5443 33.0492 37.1835 33.0925C37.6948 33.125 38.1072 32.7566 38.4371 32.4171C39.6412 31.1709 40.8082 29.8813 42.2103 28.8049C43.6124 27.7284 45.9959 27.3311 47.8433 27.1071C46.3876 25.991 44.367 25.478 42.4495 25.6875L42.4454 25.6839Z" fill="#6F4D62"/>
<path d="M49.5093 28.9889C49.4021 29.2779 47.9712 29.1118 46.2557 29.2201C44.5403 29.3068 43.1423 29.6355 42.9939 29.361C42.9279 29.231 43.2124 28.9637 43.7774 28.7072C44.3423 28.4471 45.2001 28.2123 46.1733 28.1581C47.1506 28.104 48.033 28.2376 48.631 28.4291C49.233 28.6205 49.5547 28.8517 49.5052 28.9889H49.5093Z" fill="#6F4D62"/>
<path d="M16.8536 21.7466C10.7959 21.7466 5.7196 26.1896 5.7196 31.4995C5.7196 36.8094 10.7959 41.2524 16.8536 41.2524C22.9114 41.2524 27.798 36.8022 27.9876 31.4995C27.798 26.1968 23.0557 21.7466 16.8536 21.7466ZM16.8536 38.9262C12.2351 38.9262 8.37527 35.5488 8.37527 31.4995C8.37527 27.4502 12.0454 24.2282 16.5402 24.0837C21.3897 23.9283 25.1794 27.3527 25.3279 31.4995C25.1835 35.5452 21.5835 38.9262 16.8495 38.9262H16.8536Z" fill="#2A3137"/>
<path d="M25.9011 29.9175C25.7526 25.7707 21.9629 22.3463 17.1134 22.5017C13.1464 22.6281 9.83097 25.2289 9.10107 28.5485C10.3835 26.0199 13.2372 24.1886 16.5444 24.0838C21.3939 23.9285 25.1835 27.3528 25.332 31.4996C25.3155 31.9584 25.2495 32.4099 25.1464 32.8506C25.6 31.9476 25.864 30.9542 25.9011 29.9175Z" fill="#10181F"/>
<path d="M17.4268 39.6703C11.3691 39.6703 6.2928 35.2273 6.2928 29.9173C6.2928 29.213 6.38352 28.523 6.55259 27.8584C6.02064 28.989 5.7196 30.2172 5.7196 31.4995C5.7196 36.8058 10.7959 41.2524 16.8536 41.2524C22.2557 41.2524 26.5526 37.875 27.6907 33.5006C26.033 37.0839 22.1526 39.6703 17.4227 39.6703H17.4268Z" fill="#10181F"/>
<path d="M43.1423 21.7466C49.2001 21.7466 54.2763 26.1896 54.2763 31.4995C54.2763 36.8094 49.2042 41.2524 43.1423 41.2524C37.0805 41.2524 32.198 36.8022 32.0083 31.4995C32.198 26.1968 36.9403 21.7466 43.1423 21.7466ZM43.1423 38.9262C47.7609 38.9262 51.6207 35.5488 51.6207 31.4995C51.6207 27.4502 47.9506 24.2282 43.4557 24.0837C38.6062 23.9283 34.8165 27.3527 34.6681 31.4995C34.8124 35.5452 38.4124 38.9262 43.1464 38.9262H43.1423Z" fill="#2A3137"/>
<path d="M34.0948 29.9175C34.2433 25.7707 38.033 22.3463 42.8825 22.5017C46.8495 22.6281 50.1649 25.2289 50.8948 28.5485C49.6124 26.0199 46.7588 24.1886 43.4515 24.0838C38.6021 23.9285 34.8124 27.3528 34.6639 31.4996C34.6804 31.9584 34.7464 32.4099 34.8495 32.8506C34.3959 31.9476 34.1278 30.9542 34.0948 29.9175Z" fill="#10181F"/>
<path d="M42.5732 39.6703C48.631 39.6703 53.7073 35.2273 53.7073 29.9173C53.7073 29.213 53.6165 28.523 53.4475 27.8584C53.9794 28.989 54.2805 30.2172 54.2805 31.4995C54.2805 36.8058 49.2042 41.2524 43.1464 41.2524C37.7444 41.2524 33.4475 37.875 32.3093 33.5006C33.9671 37.0839 37.8475 39.6703 42.5774 39.6703H42.5732Z" fill="#10181F"/>
<path d="M36.3299 38.0338C35.9711 36.6539 33.6536 34.9381 33.6536 34.9381C33.6536 34.9381 33.7278 32.6625 33.6825 30.7769C33.6454 29.1803 33.4969 27.4392 32.2557 26.2689C31.3732 25.4345 28.6227 25.4345 27.7361 26.2689C26.4949 27.4392 26.3464 29.1803 26.3093 30.7769C26.2639 32.6661 26.2887 34.9381 26.2887 34.9381C26.2887 34.9381 24.0206 36.6576 23.6619 38.0338C23.3031 39.4137 25.7196 40.035 26.7052 39.8327C26.9938 40.3456 28.0536 42 30.132 42C32.2103 42 33.0144 40.3167 33.2866 39.8327C34.2722 40.0313 36.6887 39.4137 36.3299 38.0338Z" fill="#FDB07B"/>
<path d="M28.0082 39.5542C27.4144 39.659 26.7134 39.8323 26.7134 39.8323C27.002 40.3453 28.0618 41.9997 30.1402 41.9997C30.7051 41.9997 31.1711 41.8732 31.5629 41.6818C31.134 41.6384 30.7175 41.5445 30.3175 41.4C29.3361 41.0424 28.5072 40.3778 28.0082 39.5542Z" fill="#FF954D"/>
<path d="M29.1137 35.5737C28.7673 33.3955 28.6931 31.1849 28.8869 28.9959C28.9694 28.0459 29.1137 27.0742 29.625 26.2362C29.7529 26.0267 29.9054 25.8244 30.0869 25.6438C29.1508 25.6293 28.1982 25.8352 27.7446 26.2687C26.5034 27.439 26.3549 29.1801 26.3178 30.7767C26.2724 32.6659 26.2972 34.938 26.2972 34.938C26.2972 34.938 24.0291 36.6574 23.6704 38.0336C23.5425 38.5285 23.7735 38.9222 24.1652 39.222C24.2106 38.7344 24.3508 38.2503 24.5982 37.8096C25.4106 36.3648 27.2869 35.4364 29.1178 35.5773L29.1137 35.5737Z" fill="#FF954D"/>
<path d="M31.8928 34.5877C31.5794 34.5191 31.8062 32.8647 31.7073 30.8527C31.6866 30.3506 31.6495 29.8666 31.6083 29.4331C31.5671 29.0069 31.5052 28.6384 31.4145 28.3458C31.2495 27.757 30.932 27.4645 31.0186 27.3416C31.0598 27.2875 31.2124 27.2911 31.4351 27.3958C31.6537 27.5042 31.9341 27.7281 32.1526 28.0677C32.3753 28.4036 32.5402 28.8335 32.6433 29.3031C32.7464 29.7654 32.8207 30.2747 32.8413 30.813C32.8908 31.893 32.7341 32.8683 32.5155 33.5474C32.3011 34.2301 32.0413 34.6166 31.8928 34.5877Z" fill="#FFE5D3"/>
<path d="M32.0082 40.4249C31.8722 40.349 31.8845 40.1142 31.9051 39.7964C31.9216 39.4785 31.9423 39.0703 31.8639 38.6332C31.7938 38.1962 31.6412 37.8133 31.5216 37.5243C31.4144 37.2462 31.2948 37.0764 31.3484 36.9463C31.3814 36.8849 31.4722 36.8452 31.6247 36.8633C31.7732 36.8777 31.9711 36.9572 32.1567 37.0944C32.5196 37.3581 32.8907 37.8638 32.9856 38.4924C33.0928 39.1173 32.9072 39.688 32.6598 40.0276C32.4082 40.3743 32.1319 40.4971 32.0082 40.4249Z" fill="#FFE5D3"/>
</g>
<defs>
<clipPath id="clip0_446_6354">
<rect width="60" height="25" fill="white" transform="translate(0 17)"/>
</clipPath>
</defs>
</svg>
