<svg width="60" height="74" viewBox="0 0 60 74" fill="none" xmlns="http://www.w3.org/2000/svg">
<path d="M30.2857 60.4285C29.0243 60.4285 28 59.696 28 58.7914V51.78C28 50.8765 29.0228 50.1428 30.2857 50.1428C31.5472 50.1428 32.5714 50.8754 32.5714 51.78V58.7914C32.5714 59.696 31.5486 60.4285 30.2857 60.4285Z" fill="#C8C7BF"/>
<path d="M53.5403 33.1159C52.8371 33.1159 52.1619 33.2349 51.5281 33.4474C51.0241 22.0714 41.8873 13 30.6576 13C19.2287 13 9.95608 22.3923 9.75798 34.0509C8.79131 33.4612 7.66699 33.1159 6.45968 33.1159C2.89275 33.1159 0 36.0781 0 39.733C0 43.3868 2.89171 46.3501 6.45968 46.3501C8.64507 46.3501 10.5732 45.2356 11.7421 43.5335C15.0861 50.8093 22.2874 55.8571 30.6576 55.8571C38.643 55.8571 45.5777 51.2715 49.1032 44.5333C50.2607 45.6563 51.8196 46.3501 53.5403 46.3501C57.1072 46.3501 60 43.3879 60 39.733C60 36.0781 57.1072 33.1159 53.5403 33.1159Z" fill="#C8C7BF"/>
</svg>
