<svg width="100" height="100" viewBox="0 0 100 100" fill="none" xmlns="http://www.w3.org/2000/svg">
<mask id="mask0_11024_38416" style="mask-type:alpha" maskUnits="userSpaceOnUse" x="0" y="0" width="100" height="100">
<circle cx="50" cy="50" r="50" fill="#D9D9D9"/>
</mask>
<g mask="url(#mask0_11024_38416)">
<circle cx="50" cy="50" r="50" fill="#F9EDFF"/>
<path d="M51.5401 85.4373C45.3386 85.3875 25.6157 91.7519 17.5 95C18.429 105.006 33.1979 119.535 50.4486 120.214C65.7667 120.817 72.1961 100.334 74.2349 91.6256C72.8526 90.7438 71.6629 90.0546 70.7575 89.6419C64.5325 86.8026 58.3088 85.4923 51.5401 85.4373Z" fill="#DD2D54"/>
<path d="M51.5401 90.973C49.369 90.973 47.6093 89.2134 47.6093 87.0423V78.4169C47.6093 76.2458 49.369 74.4861 51.5401 74.4861C53.7111 74.4861 55.4708 76.2458 55.4708 78.4169V87.0423C55.4708 89.2134 53.7098 90.973 51.5401 90.973Z" fill="#F8B79B"/>
<path d="M85.1545 50.5323C84.4299 50.5323 83.7289 50.6292 83.0555 50.793C83.2192 49.4723 83.3136 48.1293 83.3136 46.764C83.3136 28.8542 68.7947 14.3353 50.8849 14.3353C32.9751 14.3353 18.4563 28.8542 18.4563 46.764C18.4563 48.8761 18.6646 50.9384 19.0511 52.9379C14.7784 53.5629 11.4949 57.2316 11.4949 61.6785C11.4949 66.5631 15.4545 70.5227 20.3391 70.5227C22.7093 70.5227 24.8582 69.5846 26.4462 68.066C32.3908 74.8806 41.1315 79.1926 50.8863 79.1926C62.2251 79.1926 72.2001 73.3686 77.9966 64.5532C79.603 66.7715 82.2077 68.2206 85.1558 68.2206C90.0404 68.2206 94 64.2611 94 59.3764C93.9987 54.4918 90.0391 50.5323 85.1545 50.5323Z" fill="#F8B79B"/>
<path d="M27.4092 61.1649C27.4092 60.7286 52.3039 51.2017 52.3039 51.2017L74.9057 61.1649L76.7623 42.3851H25.5539L27.4092 61.1649Z" fill="#DD2D54"/>
<path d="M50.8849 14.3353C32.9751 14.3353 18.4563 28.8542 18.4563 46.764C18.4563 48.8761 18.6646 50.9384 19.0511 52.9379C19.0511 52.9379 20.9955 53.6035 24.6799 53.6035C24.6799 53.6035 24.68 62.4476 27.2192 62.8577C29.7585 63.2679 29.7585 52.9392 29.7585 52.9392C29.7585 52.9392 46.8743 45.8245 57.2737 35.6701C57.2737 35.6701 69.6398 47.2985 73.6518 50.4104C73.6518 50.4104 71.3589 62.2027 74.9621 62.2852C78.5652 62.3677 78.729 52.7859 78.729 52.7859L83.0568 50.7943C83.2206 49.4736 83.3149 48.1306 83.3149 46.7653C83.3136 28.8542 68.7947 14.3353 50.8849 14.3353Z" fill="#6768E6"/>
<path d="M43.4074 49.864C43.4074 48.4164 42.2345 47.2435 40.7869 47.2435C39.3393 47.2435 38.1664 48.4164 38.1664 49.864C38.1664 51.3115 39.3393 52.4845 40.7869 52.4845C42.2345 52.4845 43.4074 51.3115 43.4074 49.864Z" fill="#070904"/>
<path d="M65.4459 48.864C65.4459 47.4164 64.273 46.2435 62.8254 46.2435C61.3779 46.2435 60.2049 47.4164 60.2049 48.864C60.2049 50.3115 61.3779 51.4845 62.8254 51.4845C64.273 51.4845 65.4459 50.3115 65.4459 48.864Z" fill="#070904"/>
<path d="M33.1422 43.6602C34.5827 46.7894 43.6153 41.4912 42.7393 39.7276C41.8632 37.9639 32.025 41.2324 33.1422 43.6602Z" fill="#070904"/>
<path d="M71.9672 45.4895C69.7658 48.1393 62.4123 40.6839 63.7149 39.2071C65.0185 37.7293 73.6756 43.4327 71.9672 45.4895Z" fill="#070904"/>
<path d="M52.359 52.4294L54.7056 54.4498L52.359 55.5413" stroke="#DE7651" stroke-width="1.48815" stroke-miterlimit="10" stroke-linecap="round" stroke-linejoin="round"/>
<circle cx="48.2382" cy="68.0555" r="3.05725" fill="#F6F8F7"/>
<path d="M64.8176 78.4091L66.1619 71.2913C66.3522 70.2837 65.0834 69.6766 64.4182 70.457L61.1566 74.2836C61.1566 74.2836 56.5044 62.7426 53.6867 64.1617C51.6044 65.2096 54.2099 70.6457 55.7154 73.4197C53.9432 70.3765 50.1437 64.2402 48.9145 65.3422C47.2924 66.7943 52.0498 76.4689 52.0498 76.4689C52.0498 76.4689 42.6389 69.3462 42.3753 71.8837C42.1117 74.4211 43.7519 76.0031 43.7519 76.0031C43.7519 76.0031 56.5123 93.2367 66.3564 104.991L83.7028 98.3181C79.0677 93.1353 64.8176 78.4091 64.8176 78.4091Z" fill="#431573"/>
</g>
</svg>
