<svg width="140" height="140" viewBox="0 0 140 140" fill="none" xmlns="http://www.w3.org/2000/svg">
<g clip-path="url(#clip0_58012_5643)">
<mask id="mask0_58012_5643" style="mask-type:alpha" maskUnits="userSpaceOnUse" x="0" y="0" width="140" height="140">
<circle cx="70" cy="70" r="70" fill="#D9D9D9"/>
</mask>
<g mask="url(#mask0_58012_5643)">
<circle cx="70" cy="70" r="70" fill="#C0FFD6"/>
<path d="M15.3406 138.967L2.17139 168.03C2.17139 168.03 3.26606 225.411 4.36073 266.917C5.4554 308.407 8.72283 406.565 50.1711 441.66C91.636 476.754 231.605 474.02 231.605 474.02C231.605 474.02 239.284 469.629 234.341 460.864C234.341 460.864 213.476 441.676 201.949 359.425C190.422 277.174 182.743 198.75 182.743 198.75C182.743 198.75 183.124 135.62 153.651 121.487C124.194 107.353 15.324 138.984 15.324 138.984L15.3406 138.967Z" fill="#002020"/>
<path d="M46.9039 109.856C46.9039 109.856 55.9598 106.906 56.5071 101.422C56.5071 101.422 50.304 101.14 45.5936 97.3126C40.8832 93.4851 39.888 85.7968 45.5936 78.937C51.2991 72.0772 50.4698 65.7808 50.7518 59.4678C51.0338 53.1548 54.0524 46.5767 60.9024 41.639C67.7524 36.7013 84.7862 37.5298 89.1648 40.2637C93.5601 42.9977 97.8891 53.4199 96.6783 66.5761C95.4675 79.7323 92.1835 99.3341 101.505 103.526C110.843 107.702 125.87 110.601 125.87 110.601C125.87 110.601 70.771 144.602 46.8873 109.839L46.9039 109.856Z" fill="#FFC4AB"/>
<path d="M93.9251 68.564C93.9251 68.564 98.0384 60.8426 103.976 61.1077C109.897 61.3729 109.897 69.0777 108.62 72.4247C107.327 75.7718 99.8629 85.0342 93.9417 78.0915C88.0205 71.1489 93.9417 68.564 93.9417 68.564H93.9251Z" fill="#FFC4AB"/>
<path d="M7.46235 175.355C7.46235 175.355 9.2868 203.142 21.3614 231.658C33.4359 260.174 38.9259 278.451 38.9259 278.451L106.995 271.143C106.995 271.143 108.454 215.586 120.894 184.866C133.333 154.146 158.942 184.866 163.337 191.444C167.732 198.022 172.194 212.968 157.2 227.814C148.028 236.894 157.648 262.113 188.763 241.666C204.404 231.393 210.806 207.715 206.776 188.71C203.359 172.571 185.297 130.037 149.421 116.135C113.563 102.25 101.488 125.646 67.4537 116.135C67.4537 116.135 51.3488 112.921 29.4055 111.612C7.44576 110.286 -13.7677 124.917 -29.1428 148.313C-44.4848 171.693 -48.8801 197.276 -37.9002 216.298C-26.9203 235.303 -0.581837 238.965 -0.581837 238.965C-0.581837 238.965 -11.5617 214.111 -10.1022 200.955C-8.6426 187.799 7.46235 175.371 7.46235 175.371V175.355Z" fill="#4CDADB"/>
<path d="M67.4874 116.135L27.3992 175.404L79.1141 174.079L26.3542 243.903L29.4724 251.657L134.179 155.438L88.3359 154.808L132.62 116.135C132.62 116.135 90.9067 127.104 67.4874 116.135Z" fill="#FAE366"/>
<path d="M67.4871 116.136C67.4871 116.136 78.7323 118.97 93.2782 106.079C107.824 93.1874 113.579 97.0315 123.747 101.688C133.897 106.344 105.353 120.03 89.4468 120.859C73.5243 121.704 67.4871 116.12 67.4871 116.12V116.136Z" fill="#003737"/>
<path d="M67.4871 116.135C67.4871 116.135 85.0516 119.946 104.54 108.297C124.029 96.649 132.554 97.5603 147.846 110.468C147.846 110.468 127.296 119.863 116.333 121.387C105.353 122.895 85.5989 126.458 67.4871 116.135Z" fill="#004F50"/>
<path d="M67.4871 116.136C67.4871 116.136 78.467 129.11 91.3708 130.485C104.275 131.86 125.123 125.829 141.593 126.094C158.063 126.376 168.147 130.269 174.5 132.705C174.5 132.705 164.283 110.419 149.289 108.679C116.399 104.835 97.4247 131.396 67.5037 116.136H67.4871Z" fill="#00696A"/>
<path d="M67.4868 116.136C67.4868 116.136 59.2105 114.081 51.017 107.172C43.0557 100.461 34.5472 104.007 25.1429 110.055C14.3289 116.997 67.4868 116.136 67.4868 116.136Z" fill="#003737"/>
<path d="M67.487 116.136C67.487 116.136 48.8113 113.419 37.0187 106.625C23.6836 98.9534 15.5896 102.483 -0.200195 121.372C-0.200195 121.372 11.128 116.467 31.4292 118.688C52.1119 120.958 67.487 116.136 67.487 116.136Z" fill="#004F50"/>
<path d="M67.487 116.135C67.487 116.135 56.2417 124.701 35.0946 122.249C13.9475 119.797 -2.20716 125.198 -18.677 134.759C-18.677 134.759 -8.82495 106.641 12.4216 108.314C31.9433 109.838 40.5846 117.891 67.4704 116.151L67.487 116.135Z" fill="#00696A"/>
<g style="mix-blend-mode:soft-light">
<path d="M101.123 68.0176C102.815 66.6258 104.291 66.1121 104.324 66.1121L104.009 65.0186C103.777 65.0848 98.3367 66.9075 96.0645 73.5519L97.0596 73.933C97.7065 72.0275 98.6519 70.5528 99.647 69.4261C101.372 68.2662 103.76 70.7516 103.777 70.7848L104.523 69.9894C104.44 69.89 102.881 68.2662 101.107 68.0176H101.123Z" fill="#21061C"/>
</g>
<path d="M96.6784 42.8316C96.6784 42.8316 103.163 39.5343 105.9 42.8316C108.637 46.129 108.222 54.3309 103.13 61.1078C103.13 61.1078 97.292 63.9246 95.1027 68.3653C95.1027 68.3653 95.2686 72.458 93.2782 72.8225C91.3045 73.187 91.2879 65.8798 91.2879 65.8798C91.2879 65.8798 89.0654 69.3595 89.0654 65.1508C89.0654 60.9421 92.366 47.7859 87.0585 48.1504C87.0585 48.1504 84.6867 43.2127 78.6494 43.7595C72.6121 44.3063 65.53 48.2002 56.1755 45.9798C56.1755 45.9798 53.7208 48.9126 52.8085 51.1495C52.8085 51.1495 38.2129 49.0783 37.3007 31.5312C36.3719 13.9509 54.6662 9.19548 63.4567 19.0709C72.2307 28.9464 70.2238 31.8626 79.1968 30.04C88.1698 28.2173 91.3045 27.1071 96.6784 42.8316Z" fill="#6E3B36"/>
<g style="mix-blend-mode:soft-light">
<path d="M47.1689 39.9158C47.1689 39.9158 49.972 44.3564 56.1585 45.9637" stroke="black" stroke-width="0.5" stroke-miterlimit="10"/>
</g>
<g style="mix-blend-mode:soft-light">
<path d="M56.5068 101.404C56.5068 101.404 65.0984 102.829 73.7065 100.112" stroke="#21061C" stroke-width="0.63" stroke-miterlimit="10"/>
</g>
<path d="M69.9252 72.9224C72.3965 71.0666 73.4414 71.3648 74.8678 71.9448C76.2942 72.5413 78.4835 75.1427 77.0074 78.6886C75.5312 82.2344 71.3184 84.5707 68.1007 84.6204C64.0537 84.6702 61.3337 83.1458 60.1395 81.1408C58.9453 79.1359 59.7082 75.8883 62.3786 75.5901C67.3378 75.0433 67.4704 74.7781 69.9418 72.9224H69.9252Z" fill="#F8F8F8"/>
<path d="M73.0432 57.2136C72.2968 57.5284 72.0812 58.7214 71.9817 59.5665C71.8656 60.4944 71.7495 61.6874 71.8988 62.5987C72.1144 63.8414 73.5408 64.1065 73.972 62.8141C74.3535 61.6874 75.0667 56.3686 73.0266 57.2136H73.0432Z" fill="#5C1723"/>
<path d="M60.1559 57.0162C59.2934 57.2979 59.0612 58.2755 58.8788 59.2365C58.6963 60.2141 58.5139 61.4734 58.63 62.451C58.7958 63.7931 60.2554 63.8428 60.7032 62.6664C61.0847 61.6888 61.2505 60.2473 61.2671 59.1868C61.2671 58.4412 61.1344 56.7014 60.1559 57.0162Z" fill="#5C1723"/>
<g style="mix-blend-mode:soft-light">
<path d="M65.663 57.3459C65.663 57.3459 65.6796 59.5331 65.4806 60.8587C65.1654 62.9465 63.3576 65.233 62.578 66.3598C61.7985 67.4865 60.7204 68.6464 61.6326 70.3365C62.2463 71.4963 63.0092 72.3248 63.0092 72.3248" stroke="#21061C" stroke-width="0.63" stroke-miterlimit="10"/>
</g>
<path d="M79.3131 55.3573C80.0263 53.9158 78.7824 52.0931 77.5716 51.3475C76.7257 50.8339 75.6476 50.635 74.6359 50.8173C73.2427 51.0658 72.2973 51.8612 71.6338 53.0045C71.1529 53.8495 72.2309 54.5123 72.9773 54.2472C74.0886 53.8661 75.2827 53.0376 76.4106 53.6175C77.2399 54.0483 77.6711 54.8603 78.2848 55.5065C78.5834 55.8213 79.0975 55.7384 79.2965 55.3408L79.3131 55.3573Z" fill="#6E3B36"/>
<path d="M56.4573 54.2649C57.2368 53.685 57.8339 52.9062 58.7959 52.5914C60.073 52.1772 61.1511 53.1879 62.196 53.7181C63.0585 54.1489 63.8048 53.0885 63.5561 52.376C62.8429 50.2882 60.2886 49.2941 58.1159 50.2054C56.7724 50.7688 55.1304 52.4257 55.5119 53.917C55.6114 54.3312 56.0758 54.5466 56.4573 54.2649Z" fill="#6E3B36"/>
<path d="M64.949 78.8707L77.3553 75.1426" stroke="#E6DDDD" stroke-width="0.5" stroke-miterlimit="10"/>
</g>
</g>
<defs>
<clipPath id="clip0_58012_5643">
<rect width="140" height="140" fill="white"/>
</clipPath>
</defs>
</svg>
