<svg width="141" height="141" viewBox="0 0 141 141" fill="none" xmlns="http://www.w3.org/2000/svg">
<g id="Avatar" clip-path="url(#clip0_29900_174936)">
<mask id="mask0_29900_174936" style="mask-type:alpha" maskUnits="userSpaceOnUse" x="0" y="0" width="141" height="141">
<circle id="Mask" cx="70.5" cy="70.5" r="70" fill="#D9D9D9"/>
</mask>
<g mask="url(#mask0_29900_174936)">
<circle id="Circle" cx="70.5" cy="70.5" r="70" fill="#C0FFD6"/>
<g id="Group">
<g id="OBJECTS">
<g id="Group_2">
<path id="Vector" d="M41.8823 73.4304L35.2507 88.0657C35.2507 88.0657 35.8019 116.961 36.3531 137.862C36.9044 158.756 38.5498 208.185 59.4219 225.858C80.3025 243.53 150.787 242.153 150.787 242.153C150.787 242.153 154.654 239.942 152.165 235.528C152.165 235.528 141.658 225.866 135.853 184.447C130.048 143.027 126.181 103.535 126.181 103.535C126.181 103.535 126.373 71.7449 111.531 64.6275C96.6978 57.5102 41.874 73.4387 41.874 73.4387L41.8823 73.4304Z" fill="#002020"/>
<path id="Vector_2" d="M152.165 235.52C152.165 235.52 141.658 225.858 135.853 184.438C130.883 148.96 127.325 114.892 126.415 105.855C124.903 108.442 124.001 112.672 124.001 112.672C124.001 112.672 128.946 176.428 133.372 202.386C137.791 228.344 150.787 242.145 150.787 242.145C150.787 242.145 154.654 239.934 152.165 235.52Z" fill="#003737"/>
<path id="Vector_3" d="M57.7765 58.7701C57.7765 58.7701 62.3369 57.2848 62.6125 54.523C62.6125 54.523 59.4887 54.3811 57.1167 52.4537C54.7447 50.5262 54.2436 46.6546 57.1167 43.2003C59.9899 39.7459 59.5723 36.5752 59.7143 33.3961C59.8562 30.2171 61.3763 26.9045 64.8258 24.418C68.2753 21.9315 76.853 22.3487 79.058 23.7255C81.2713 25.1022 83.4512 30.3506 82.8415 36.9757C82.2318 43.6008 80.5781 53.4717 85.272 55.5827C89.9743 57.6853 97.5414 59.1455 97.5414 59.1455C97.5414 59.1455 69.7954 76.2673 57.7682 58.7617L57.7765 58.7701Z" fill="#FFC4AB"/>
<path id="Vector_4" d="M81.4551 37.9769C81.4551 37.9769 83.5264 34.0886 86.5165 34.2221C89.4982 34.3556 89.4982 38.2355 88.8551 39.921C88.2036 41.6065 84.4452 46.2707 81.4634 42.7746C78.4817 39.2785 81.4634 37.9769 81.4634 37.9769H81.4551Z" fill="#FFC4AB"/>
<path id="Vector_5" d="M37.915 91.7537C37.915 91.7537 38.8338 105.746 44.9142 120.106C50.9946 134.466 53.7592 143.67 53.7592 143.67L88.0366 139.99C88.0366 139.99 88.7716 112.013 95.0358 96.5431C101.3 81.0734 114.196 96.5431 116.409 99.8556C118.622 103.168 120.869 110.694 113.319 118.171C108.7 122.743 113.544 135.443 129.213 125.146C137.089 119.973 140.313 108.049 138.283 98.4789C136.563 90.3519 127.467 68.933 109.402 61.9324C91.3441 54.9402 85.2637 66.7218 68.1249 61.9324C68.1249 61.9324 60.0149 60.3137 48.965 59.6545C37.9067 58.987 27.2242 66.3547 19.4817 78.1364C11.7559 89.9097 9.54257 102.793 15.0717 112.372C20.6009 121.942 33.8642 123.786 33.8642 123.786C33.8642 123.786 28.335 111.27 29.07 104.645C29.805 98.02 37.915 91.762 37.915 91.762V91.7537Z" fill="#4CDADB"/>
<g id="Vector_6" style="mix-blend-mode:soft-light">
<path d="M38.2908 79.5967C38.2908 79.5967 37.3888 87.0895 37.9234 91.7455" stroke="black" stroke-width="0.5" stroke-miterlimit="10"/>
</g>
<path id="Vector_7" d="M68.1416 61.9323L47.9544 91.7786L73.9965 91.1111L47.4282 126.272L48.9984 130.177L101.726 81.7242L78.6404 81.4071L100.941 61.9323C100.941 61.9323 79.935 67.456 68.1416 61.9323Z" fill="#FAE366"/>
<path id="Vector_8" d="M88.354 133.715C88.354 133.715 95.7791 192.256 96.8816 213.984C97.9841 235.712 89.8824 229.078 86.5666 213.984C83.2508 198.89 79.2 170.537 71.825 158.021C71.825 158.021 72.9275 188.944 70.355 212.14C67.7741 235.336 62.245 223.922 61.1425 209.929C60.04 195.936 55.6133 153.899 51.0113 135.526C51.0113 135.526 74.3056 142.91 88.3623 133.715H88.354Z" fill="#00696A"/>
<path id="Vector_9" d="M88.8551 127.391L93.4321 125.138" stroke="black" stroke-width="0.66" stroke-miterlimit="10"/>
<path id="Vector_10" d="M30.1224 104.62C30.1224 104.62 21.0185 98.9713 12.8584 113.331C12.8584 113.331 19.6404 128.526 41.7403 132.798C41.7403 132.798 41.8823 138.321 47.2695 139.289C52.6567 140.257 52.6149 140.29 52.7986 138.188L46.7433 124.562C46.7433 124.562 38.8421 120.924 30.114 104.62H30.1224Z" fill="#008586"/>
<path id="Vector_11" d="M48.9984 130.177C48.9984 130.177 68.3254 138.046 88.6129 130.177L89.1307 139.932C89.1307 139.932 69.0604 148.134 52.0135 139.932L48.9984 130.177Z" fill="#F09648"/>
<path id="Vector_12" d="M116.417 109.051C116.417 109.051 130.057 111.629 130.424 125.989C130.424 125.989 117.528 134.091 104.624 136.669C104.624 136.669 97.9757 142.093 89.2727 141.108C89.2727 141.108 87.6023 139.781 88.8551 137.746C88.8551 137.746 86.458 136.577 88.354 133.724C88.354 133.724 86.5917 132.43 87.6273 131.012C87.6273 131.012 85.1133 128.058 88.8551 127.399L89.0806 125.146C89.0806 125.146 94.9522 119.556 99.5125 125.104C99.5125 125.104 111.623 118.872 116.409 109.067L116.417 109.051Z" fill="#008586"/>
<g id="Vector_13" style="mix-blend-mode:soft-light">
<path d="M52.7986 131.413L55.0872 141.225" stroke="black" stroke-width="0.5" stroke-miterlimit="10"/>
</g>
<g id="Vector_14" style="mix-blend-mode:soft-light">
<path d="M59.4219 132.856L61.1759 142.869" stroke="black" stroke-width="0.5" stroke-miterlimit="10"/>
</g>
<g id="Vector_15" style="mix-blend-mode:soft-light">
<path d="M67.6322 133.715L68.2753 143.661" stroke="black" stroke-width="0.5" stroke-miterlimit="10"/>
</g>
<g id="Vector_16" style="mix-blend-mode:soft-light">
<path d="M75.5584 133.332V143.186" stroke="black" stroke-width="0.5" stroke-miterlimit="10"/>
</g>
<g id="Vector_17" style="mix-blend-mode:soft-light">
<path d="M83.0587 131.963L82.5158 141.943" stroke="black" stroke-width="0.5" stroke-miterlimit="10"/>
</g>
<g id="Vector_18" style="mix-blend-mode:soft-light">
<path d="M87.6273 131.003L87.3517 140.749" stroke="black" stroke-width="0.5" stroke-miterlimit="10"/>
</g>
<path id="Vector_19" d="M68.1416 61.9325C68.1416 61.9325 73.8044 63.3593 81.1293 56.8678C88.4542 50.3762 91.3524 52.312 96.4723 54.6566C101.584 57.0013 87.2097 63.8934 79.2 64.3105C71.1818 64.7361 68.1416 61.9242 68.1416 61.9242V61.9325Z" fill="#003737"/>
<path id="Vector_20" d="M68.1416 61.9324C68.1416 61.9324 76.9866 63.8515 86.8005 57.9857C96.6143 52.1199 100.907 52.5788 108.608 59.0787C108.608 59.0787 98.2597 63.8098 92.7389 64.5774C87.2097 65.3367 77.2622 67.1306 68.1416 61.9324Z" fill="#004F50"/>
<path id="Vector_21" d="M68.1416 61.9327C68.1416 61.9327 73.6708 68.466 80.1688 69.1585C86.6668 69.8511 97.1656 66.8139 105.459 66.9474C113.753 67.0892 118.831 69.05 122.03 70.2766C122.03 70.2766 116.885 59.054 109.335 58.1779C92.7723 56.2421 83.2174 69.6174 68.15 61.9327H68.1416Z" fill="#00696A"/>
<path id="Vector_22" d="M68.1417 61.9325C68.1417 61.9325 63.9739 60.8978 59.8479 57.4184C55.8389 54.0391 51.5542 55.8247 46.8185 58.8702C41.3728 62.3664 68.1417 61.9325 68.1417 61.9325Z" fill="#003737"/>
<path id="Vector_23" d="M68.1416 61.9324C68.1416 61.9324 58.737 60.5639 52.7986 57.1429C46.0835 53.2797 42.0076 55.0569 34.0563 64.569C34.0563 64.569 39.7608 62.0992 49.9839 63.2173C60.3991 64.3604 68.1416 61.9324 68.1416 61.9324Z" fill="#004F50"/>
<path id="Vector_24" d="M68.1417 61.9324C68.1417 61.9324 62.4789 66.2462 51.8298 65.0113C41.1807 63.7764 33.0457 66.4965 24.7519 71.311C24.7519 71.311 29.7131 57.1513 40.4123 57.9941C50.2429 58.7617 54.5944 62.8169 68.1333 61.9408L68.1417 61.9324Z" fill="#00696A"/>
<g id="Vector_25" style="mix-blend-mode:soft-light">
<path d="M85.0799 37.7018C85.9319 37.0009 86.6752 36.7422 86.6919 36.7422L86.5332 36.1915C86.4163 36.2249 83.6768 37.1427 82.5325 40.4887L83.0336 40.6806C83.3594 39.721 83.8354 38.9784 84.3366 38.411C85.2052 37.8269 86.4079 39.0785 86.4163 39.0952L86.7921 38.6947C86.7504 38.6446 85.9653 37.8269 85.0716 37.7018H85.0799Z" fill="#21061C"/>
</g>
<path id="Vector_26" d="M82.8415 25.0188C82.8415 25.0188 86.1072 23.3583 87.4854 25.0188C88.8635 26.6792 88.6547 30.8095 86.0905 34.2222C86.0905 34.2222 83.1506 35.6406 82.0481 37.8768C82.0481 37.8768 82.1316 39.9378 81.1293 40.1213C80.1354 40.3049 80.1271 36.6252 80.1271 36.6252C80.1271 36.6252 79.0079 38.3774 79.0079 36.2581C79.0079 34.1387 80.6699 27.5136 77.9972 27.6972C77.9972 27.6972 76.8029 25.2107 73.7627 25.486C70.7225 25.7614 67.1561 27.7222 62.4454 26.6041C62.4454 26.6041 61.2093 28.081 60.7499 29.2074C60.7499 29.2074 53.4 28.1645 52.9406 19.3282C52.4729 10.4753 61.6854 8.08058 66.1121 13.0536C70.5304 18.0266 69.5198 19.4951 74.0383 18.5773C78.5568 17.6594 80.1354 17.1004 82.8415 25.0188Z" fill="#6E3B36"/>
<g id="Vector_27" style="mix-blend-mode:soft-light">
<path d="M57.9102 23.5503C57.9102 23.5503 59.3217 25.7865 62.4371 26.5958" stroke="black" stroke-width="0.5" stroke-miterlimit="10"/>
</g>
<g id="Vector_28" style="mix-blend-mode:soft-light">
<path d="M62.6125 54.5147C62.6125 54.5147 66.9389 55.2323 71.2737 53.8639" stroke="#21061C" stroke-width="0.63" stroke-miterlimit="10"/>
</g>
<path id="Vector_29" d="M69.3694 40.1714C70.6139 39.2369 71.1401 39.3871 71.8584 39.6791C72.5767 39.9795 73.6792 41.2895 72.9358 43.0751C72.1925 44.8607 70.071 46.0372 68.4507 46.0622C66.4127 46.0873 65.043 45.3196 64.4416 44.31C63.8403 43.3004 64.2245 41.665 65.5692 41.5148C68.0665 41.2394 68.1333 41.1059 69.3778 40.1714H69.3694Z" fill="#F8F8F8"/>
<path id="Vector_30" d="M70.9396 32.2615C70.5638 32.42 70.4552 33.0207 70.4051 33.4463C70.3466 33.9136 70.2882 34.5143 70.3633 34.9732C70.4719 35.599 71.1902 35.7325 71.4074 35.0817C71.5995 34.5143 71.9586 31.8359 70.9313 32.2615H70.9396Z" fill="#5C1723"/>
<path id="Vector_31" d="M64.45 32.1612C64.0156 32.3031 63.8987 32.7954 63.8068 33.2793C63.715 33.7716 63.6231 34.4058 63.6816 34.8981C63.7651 35.5739 64.5001 35.599 64.7256 35.0065C64.9177 34.5142 65.0012 33.7883 65.0096 33.2543C65.0096 32.8788 64.9427 32.0027 64.45 32.1612Z" fill="#5C1723"/>
<g id="Vector_32" style="mix-blend-mode:soft-light">
<path d="M67.2229 32.328C67.2229 32.328 67.2312 33.4294 67.131 34.097C66.9723 35.1483 66.0619 36.2998 65.6694 36.8671C65.2768 37.4345 64.7339 38.0186 65.1933 38.8697C65.5023 39.4538 65.8865 39.871 65.8865 39.871" stroke="#21061C" stroke-width="0.63" stroke-miterlimit="10"/>
</g>
<path id="Vector_33" d="M74.0968 31.3269C74.4559 30.601 73.8295 29.6831 73.2198 29.3077C72.7938 29.049 72.2509 28.9489 71.7414 29.0407C71.0399 29.1658 70.5638 29.5663 70.2297 30.1421C69.9875 30.5676 70.5304 30.9014 70.9062 30.7679C71.4658 30.5759 72.0672 30.1587 72.6351 30.4508C73.0527 30.6677 73.2699 31.0766 73.5789 31.402C73.7293 31.5605 73.9882 31.5188 74.0884 31.3186L74.0968 31.3269Z" fill="#6E3B36"/>
<path id="Vector_34" d="M62.5874 30.7763C62.98 30.4842 63.2807 30.0921 63.7651 29.9335C64.4082 29.7249 64.9511 30.2339 65.4773 30.5009C65.9116 30.7179 66.2875 30.1838 66.1622 29.8251C65.803 28.7737 64.5168 28.2731 63.4227 28.732C62.7461 29.0157 61.9193 29.8501 62.1114 30.601C62.1615 30.8096 62.3953 30.9181 62.5874 30.7763Z" fill="#6E3B36"/>
<path id="Vector_35" d="M66.8638 43.1668L73.1112 41.2894" stroke="#E6DDDD" stroke-width="0.5" stroke-miterlimit="10"/>
</g>
</g>
</g>
</g>
</g>
<defs>
<clipPath id="clip0_29900_174936">
<rect width="140" height="140" fill="white" transform="translate(0.5 0.5)"/>
</clipPath>
</defs>
</svg>
