<svg width="36" height="26" viewBox="0 0 36 26" fill="none" xmlns="http://www.w3.org/2000/svg">
<path d="M25.2 12.8588C25.2 11.1682 24.4181 9.66303 23.2087 8.67455V8.66893C22.6294 8.20277 21.7744 8.28702 21.3075 8.86551C20.8406 9.44399 20.925 10.2921 21.5044 10.7638C22.1119 11.2637 22.5 12.0163 22.5 12.8588C22.5 13.7012 22.1119 14.4538 21.5044 14.9481C20.925 15.4198 20.835 16.2679 21.3075 16.8464C21.78 17.4249 22.6294 17.5148 23.2087 17.043C24.4181 16.0545 25.2 14.5493 25.2 12.8588Z" fill="#005231"/>
<path d="M18 2.07529C18 1.36762 17.5837 0.72735 16.9369 0.435298C16.29 0.148862 15.5306 0.261189 15.0019 0.732967L7.41375 7.46702H3.6C1.61437 7.46702 0 9.07893 0 11.0615V14.656C0 16.6386 1.61437 18.2505 3.6 18.2505H7.41375L15.0019 24.9846C15.5306 25.4563 16.29 25.5743 16.9369 25.2822C17.5837 24.9902 18 24.3499 18 23.6422V2.07529Z" fill="#005231"/>
</svg>
