<svg width="36" height="27" viewBox="0 0 36 27" fill="none" xmlns="http://www.w3.org/2000/svg">
<path d="M30.015 0.734722C33.6656 3.69456 36 8.22138 36 13.2874C36 18.3534 33.6656 22.8746 30.015 25.84C29.4356 26.3118 28.5862 26.2219 28.1137 25.6434C27.6412 25.0649 27.7312 24.2169 28.3106 23.7451C31.3594 21.2739 33.3 17.5109 33.3 13.2874C33.3 9.06384 31.3594 5.30085 28.3106 2.82402C27.7312 2.35224 27.6469 1.50417 28.1137 0.92568C28.5806 0.347191 29.4356 0.262945 30.015 0.729106V0.734722ZM26.6119 4.91894C29.0419 6.89591 30.6 9.91191 30.6 13.2874C30.6 16.6628 29.0419 19.6788 26.6119 21.6558C26.0325 22.1276 25.1831 22.0377 24.7106 21.4592C24.2381 20.8807 24.3281 20.0327 24.9075 19.5609C26.7356 18.0782 27.9 15.8204 27.9 13.2874C27.9 10.7544 26.7356 8.49658 24.9075 7.00824C24.3281 6.53646 24.2437 5.68838 24.7106 5.10989C25.1775 4.53141 26.0325 4.44716 26.6119 4.91332V4.91894ZM23.2087 9.10315C24.4181 10.0916 25.2 11.5968 25.2 13.2874C25.2 14.9779 24.4181 16.4831 23.2087 17.4716C22.6294 17.9434 21.78 17.8535 21.3075 17.275C20.835 16.6965 20.925 15.8484 21.5044 15.3767C22.1119 14.8824 22.5 14.1298 22.5 13.2874C22.5 12.4449 22.1119 11.6923 21.5044 11.1924C20.925 10.7207 20.8406 9.8726 21.3075 9.29411C21.7744 8.71562 22.6294 8.63137 23.2087 9.09753V9.10315ZM16.9369 0.863899C17.5837 1.15595 18 1.79622 18 2.50389V24.0708C18 24.7785 17.5837 25.4188 16.9369 25.7108C16.29 26.0029 15.5306 25.8849 15.0019 25.4132L7.41375 18.6791H3.6C1.61437 18.6791 0 17.0672 0 15.0846V11.4901C0 9.50753 1.61437 7.89563 3.6 7.89563H7.41375L15.0019 1.16157C15.5306 0.689791 16.29 0.577463 16.9369 0.863899Z" fill="#005231"/>
</svg>
