<svg width="36" height="27" viewBox="0 0 36 27" fill="none" xmlns="http://www.w3.org/2000/svg">
<path d="M30.6 13.5731C30.6 10.1976 29.0419 7.1816 26.6119 5.20463V5.19901C26.0325 4.73285 25.1775 4.8171 24.7106 5.39559C24.2437 5.97408 24.3281 6.82215 24.9075 7.29393C26.7356 8.78227 27.9 11.0401 27.9 13.5731C27.9 16.1061 26.7356 18.3638 24.9075 19.8466C24.3281 20.3184 24.2381 21.1664 24.7106 21.7449C25.1831 22.3234 26.0325 22.4133 26.6119 21.9415C29.0419 19.9645 30.6 16.9485 30.6 13.5731Z" fill="#005231"/>
<path d="M25.2 13.5731C25.2 11.8825 24.4181 10.3773 23.2087 9.38884V9.38323C22.6294 8.91707 21.7744 9.00131 21.3075 9.5798C20.8406 10.1583 20.925 11.0064 21.5044 11.4781C22.1119 11.978 22.5 12.7306 22.5 13.5731C22.5 14.4155 22.1119 15.1681 21.5044 15.6624C20.925 16.1341 20.835 16.9822 21.3075 17.5607C21.78 18.1392 22.6294 18.229 23.2087 17.7573C24.4181 16.7688 25.2 15.2636 25.2 13.5731Z" fill="#005231"/>
<path d="M18 2.78958C18 2.08191 17.5837 1.44164 16.9369 1.14959C16.29 0.863156 15.5306 0.975484 15.0019 1.44726L7.41375 8.18132H3.6C1.61437 8.18132 0 9.79322 0 11.7758V15.3703C0 17.3529 1.61437 18.9648 3.6 18.9648H7.41375L15.0019 25.6989C15.5306 26.1706 16.29 26.2886 16.9369 25.9965C17.5837 25.7045 18 25.0642 18 24.3565V2.78958Z" fill="#005231"/>
</svg>
