<svg width="241" height="221" viewBox="0 0 241 221" fill="none" xmlns="http://www.w3.org/2000/svg">
    <g clip-path="url(#clip0_141_8256)">
    <path d="M58.1085 34.8412H0.975586L17.9007 13.7223H75.0504L58.1085 34.8412Z" fill="#DBF1FD"/>
    <path d="M91.9923 34.8412H58.1252V181H91.9923V34.8412Z" fill="#299AEA"/>
    <path d="M75.0505 13.7223L68.4918 21.9054L91.9756 34.8412L75.0505 13.7223Z" fill="#1379DA"/>
    <path d="M91.9756 34.8411L68.4917 21.9054L58.1085 34.8411H91.9756Z" fill="#61B6F2"/>
    <path d="M68.1898 0H24.7446C20.9536 0 17.884 3.06241 17.884 6.82766V13.7223H75.0336V6.82766C75.0336 3.04567 71.964 0 68.1898 0Z" fill="#299AEA"/>
    <path d="M58.1253 34.8579V181H0.975586V34.8412L58.1253 34.8579Z" fill="#B0E2FC"/>
    <path d="M70.2809 55.1696H69.9614V71.3785H70.2809V55.1696Z" fill="#4A4A4A"/>
    <path d="M71.5776 55.1696H71.2582V71.3785H71.5776V55.1696Z" fill="#4A4A4A"/>
    <path d="M64.6751 55.1696H63.7182V71.3785H64.6751V55.1696Z" fill="#4A4A4A"/>
    <path d="M68.6603 55.1696H67.0645V71.3785H68.6603V55.1696Z" fill="#4A4A4A"/>
    <path d="M82.7236 55.1696H82.4042V71.3785H82.7236V55.1696Z" fill="#4A4A4A"/>
    <path d="M84.0204 55.1696H83.7009V71.3785H84.0204V55.1696Z" fill="#4A4A4A"/>
    <path d="M81.103 55.1696H79.5071V71.3785H81.103V55.1696Z" fill="#4A4A4A"/>
    <path d="M65.985 55.1696H65.6655V71.3785H65.985V55.1696Z" fill="#4A4A4A"/>
    <path d="M73.6359 55.1696H72.679V71.3785H73.6359V55.1696Z" fill="#4A4A4A"/>
    <path d="M74.9473 55.1696H74.6278V71.3785H74.9473V55.1696Z" fill="#4A4A4A"/>
    <path d="M77.0799 55.1696H76.123V71.3785H77.0799V55.1696Z" fill="#4A4A4A"/>
    <path d="M78.3912 55.1696H78.0718V71.3785H78.3912V55.1696Z" fill="#4A4A4A"/>
    <path d="M86.6942 55.1696H85.0984V71.3785H86.6942V55.1696Z" fill="#4A4A4A"/>
    <path d="M29.5588 135.198C40.6758 135.198 49.6879 126.207 49.6879 115.116C49.6879 104.026 40.6758 95.035 29.5588 95.035C18.4419 95.035 9.42981 104.026 9.42981 115.116C9.42981 126.207 18.4419 135.198 29.5588 135.198Z" fill="white"/>
    <path d="M38.1808 14.2578C36.1511 14.4084 33.9369 15.4292 32.1253 17.2365C30.3137 19.0438 29.2904 21.2528 29.1395 23.2777L27.093 24.1144L30.4479 27.4445C30.4479 27.4445 30.515 27.5115 30.5485 27.5617C32.964 29.9714 37.5937 29.2686 40.8814 25.9886C44.1691 22.7087 44.8737 18.09 42.4582 15.6802L39.0027 12.2329L38.164 14.2745L38.1808 14.2578Z" fill="#D32144"/>
    <path d="M39.0195 12.2161C41.4349 14.6259 40.7304 19.2446 37.4427 22.5246C34.1549 25.8045 29.5253 26.5074 27.1098 24.0976C24.6943 21.6878 25.3988 17.0691 28.6866 13.7892C31.9743 10.5092 36.604 9.80636 39.0195 12.2161Z" fill="#FF3D3D"/>
    <path d="M37.2414 85.4127H21.8595C20.2659 85.4127 18.9575 84.1074 18.9575 82.5343C18.9575 80.9613 20.2659 79.656 21.8595 79.656H37.2414C38.8349 79.656 40.1433 80.9613 40.1433 82.5343C40.1433 84.1074 38.8349 85.4127 37.2414 85.4127Z" fill="#61B6F2"/>
    <path d="M45.4775 73.8659H13.6233C12.0298 73.8659 10.7214 72.5606 10.7214 70.9876C10.7214 69.4145 12.0298 68.1093 13.6233 68.1093H45.4775C47.0711 68.1093 48.3794 69.4145 48.3794 70.9876C48.3794 72.5606 47.0711 73.8659 45.4775 73.8659Z" fill="#61B6F2"/>
    <path d="M19.4272 173.469H9.4298C8.3898 173.469 7.55109 172.616 7.55109 171.595C7.55109 170.574 8.40657 169.721 9.4298 169.721H19.4272C20.4672 169.721 21.3059 170.574 21.3059 171.595C21.3059 172.616 20.4672 173.469 19.4272 173.469Z" fill="#B0E2FC"/>
    <path d="M49.6711 173.469H28.9549C27.9149 173.469 27.0762 172.616 27.0762 171.595C27.0762 170.574 27.9317 169.721 28.9549 169.721H49.6711C50.7111 169.721 51.5498 170.574 51.5498 171.595C51.5498 172.633 50.7111 173.469 49.6711 173.469Z" fill="#B0E2FC"/>
    <path d="M81.6091 173.469H68.7601C66.5962 173.469 64.8182 171.696 64.8182 169.537V165.889C64.8182 163.73 66.5962 161.956 68.7601 161.956H81.6091C83.773 161.956 85.5511 163.73 85.5511 165.889V169.537C85.5511 171.696 83.773 173.469 81.6091 173.469Z" fill="#61B6F2"/>
    <path d="M81.6091 145.456H68.7601C66.5962 145.456 64.8182 143.682 64.8182 141.523V89.2952C64.8182 87.1364 66.5962 85.3625 68.7601 85.3625H81.6091C83.773 85.3625 85.5511 87.1364 85.5511 89.2952V141.523C85.5511 143.682 83.773 145.456 81.6091 145.456Z" fill="#61B6F2"/>
    <path d="M29.5588 155.949C33.5609 155.949 36.8053 152.712 36.8053 148.719C36.8053 144.727 33.5609 141.49 29.5588 141.49C25.5567 141.49 22.3124 144.727 22.3124 148.719C22.3124 152.712 25.5567 155.949 29.5588 155.949Z" fill="white"/>
    </g>
    <path d="M190.898 220.124C190.898 220.124 183.399 210.444 180.64 199.984C178.175 190.649 221.385 169.152 227.698 174.185C232.175 177.76 238.467 191.396 239.973 195.94C241.598 200.83 204.123 225.968 190.893 220.124H190.898Z" fill="#4CDADB"/>
    <path d="M183.327 107.028C182.837 106.806 121.296 68.578 109.552 68.6708C97.3392 68.774 97.1896 76.7734 101.842 83.3907C106.494 90.0131 151.654 110.066 151.654 110.066C151.654 110.066 110.801 119.236 101.728 123.285C93.0738 127.148 93.8423 138.046 102.43 139.124C111.017 140.197 138.425 132.615 138.425 132.615C138.425 132.615 130.786 151.177 139.023 162.318C144.923 170.302 155.77 162.498 155.77 162.498C155.77 162.498 163.857 184.862 180.542 180.473C180.542 180.473 188.665 201.309 190.223 201.149C207.011 199.417 226.821 181.169 225.186 178.781C221.576 173.51 214.892 159.894 214.892 159.894C214.892 159.894 208.739 118.658 183.327 107.028Z" fill="#FFCCAC"/>
    <path d="M169.417 155.747C168.04 158.609 167.416 161.776 167.638 164.948C167.684 165.608 168.716 165.613 168.669 164.948C168.458 161.962 169.009 158.965 170.304 156.268C170.593 155.675 169.701 155.149 169.412 155.747H169.417Z" fill="#C88961"/>
    <path d="M144.15 145.447C144.15 145.447 144.155 145.472 144.16 145.472C144.17 145.462 144.16 145.457 144.15 145.447Z" fill="#515151"/>
    <path d="M144.15 145.447C144.15 145.447 144.155 145.472 144.16 145.472C144.17 145.462 144.16 145.457 144.15 145.447Z" fill="#515151"/>
    <path d="M131.782 145.472C131.782 145.472 131.787 145.467 131.792 145.447C131.782 145.452 131.772 145.462 131.782 145.472Z" fill="#515151"/>
    <path d="M131.782 145.472C131.782 145.472 131.787 145.467 131.792 145.447C131.782 145.452 131.772 145.462 131.782 145.472Z" fill="#515151"/>
    <path d="M173.244 29.6837C173.11 16.8257 165.765 14.675 158.163 14.1541C154.955 13.9323 144.707 13.9994 137.966 14.0716C131.23 13.9994 120.982 13.9272 117.774 14.1489C110.176 14.675 101.414 17.3467 101.274 30.2046C101.274 30.2046 101.579 131.289 102.853 136.926C104.127 142.563 107.402 145.292 116.139 145.472C120.079 145.555 126.248 145.488 131.792 145.426C131.792 145.436 131.792 145.446 131.792 145.452C131.808 145.441 131.838 145.436 131.885 145.426C134.072 145.4 136.161 145.374 137.976 145.359C139.792 145.374 141.88 145.4 144.067 145.426C144.114 145.436 144.145 145.441 144.16 145.452C144.16 145.446 144.16 145.436 144.16 145.426C149.704 145.488 155.873 145.555 159.813 145.472C168.545 145.292 171.826 142.563 173.099 136.926C174.373 131.294 173.259 29.6837 173.259 29.6837H173.244Z" fill="#515151"/>
    <path d="M155.228 138.881C151.922 138.881 148.121 138.84 144.186 138.798L140.586 138.757L137.945 138.731C137.187 138.737 136.382 138.747 135.542 138.752L131.756 138.793C127.821 138.835 124.02 138.876 120.714 138.876C118.893 138.876 117.418 138.865 116.206 138.84C107.969 138.675 106.742 136.194 105.989 132.975C105.112 128.844 104.611 65.5292 104.493 29.8127C104.58 21.7204 108.619 17.9811 118.001 17.3519C118.944 17.29 121.24 17.2126 126.805 17.2126C129.925 17.2126 133.669 17.2333 137.94 17.2797H138.007C142.278 17.2333 146.027 17.2126 149.142 17.2126C154.702 17.2126 156.997 17.29 157.946 17.3519C165.709 17.8728 169.933 19.9359 170.036 29.3485C170.464 63.8375 170.815 128.787 169.953 132.991C169.205 136.199 167.978 138.675 159.741 138.845C158.529 138.871 157.054 138.881 155.233 138.881H155.228Z" fill="white"/>
    <g clip-path="url(#clip1_141_8256)">
    <path d="M110.934 87.8931C109.869 88.0474 109.063 89.2586 109.042 90.7167C108.98 95.5924 108.928 106.74 109.652 107.774C110.582 109.101 165.047 109.209 165.254 108.36C165.931 105.591 165.91 89.5595 165.176 88.572C164.199 87.2451 120.58 86.5199 110.939 87.9008L110.934 87.8931Z" fill="#7EFAB5"/>
    <path d="M113.659 89.5662C113.6 89.602 113.949 82.6742 114.859 83.7393C115.768 84.8043 118.01 89.8171 117.759 89.8171C117.509 89.8171 113.659 89.5662 113.659 89.5662Z" fill="#7EFAB5"/>
    </g>
    <g clip-path="url(#clip2_141_8256)">
    <path d="M134.386 100.443C135.412 96.1457 132.76 91.8301 128.463 90.8039C124.165 89.7777 119.85 92.4296 118.823 96.7271C117.797 101.025 120.449 105.34 124.747 106.366C129.044 107.393 133.36 104.741 134.386 100.443Z" fill="#FAE366"/>
    <path d="M126.604 104.204C129.624 104.204 132.072 101.714 132.072 98.6416C132.072 95.5693 129.624 93.0787 126.604 93.0787C123.584 93.0787 121.137 95.5693 121.137 98.6416C121.137 101.714 123.584 104.204 126.604 104.204Z" fill="#FAE366"/>
    <path opacity="0.5" d="M126.604 104.204C129.624 104.204 132.072 101.714 132.072 98.6416C132.072 95.5693 129.624 93.0787 126.604 93.0787C123.584 93.0787 121.137 95.5693 121.137 98.6416C121.137 101.714 123.584 104.204 126.604 104.204Z" fill="#DCC74D"/>
    <path opacity="0.2" d="M121.804 98.8517C121.804 95.7794 124.102 93.1952 127.123 93.1952C127.456 93.1952 127.782 93.2275 128.099 93.2857C127.617 93.1435 127.108 93.0675 126.581 93.0675C123.562 93.0675 121.114 95.558 121.114 98.6303C121.114 101.363 123.052 103.634 125.605 104.103C123.325 103.434 121.804 101.388 121.804 98.8517Z" fill="#6C5E00"/>
    <path fill-rule="evenodd" clip-rule="evenodd" d="M128.004 98.5221L129.295 98.4979L129.334 100.602C128.75 101.276 128.018 101.62 126.963 101.64C126.08 101.656 125.237 101.268 124.682 100.688C124.13 100.106 123.886 99.3302 123.873 98.6158C123.86 97.8999 124.104 97.0805 124.704 96.4744C125.303 95.8684 125.992 95.5468 126.855 95.5306C127.718 95.5144 128.471 95.7843 129.255 96.3904L128.426 97.3892C128.332 97.2712 127.85 96.7169 126.935 96.7346C126.501 96.7427 126.058 96.9059 125.715 97.2567C125.373 97.609 125.162 98.0259 125.172 98.5916C125.182 99.1573 125.408 99.6162 125.738 99.9217C126.068 100.226 126.533 100.44 126.903 100.432C127.396 100.423 127.752 100.329 128.031 100.158L128 98.5221H128.004Z" fill="#6C5E00"/>
    </g>
    <path d="M140.619 103.085C140.143 103.085 139.737 102.679 139.737 102.189C139.737 101.727 140.143 101.321 140.619 101.321H142.341V95.2451L140.899 95.7911C140.787 95.8331 140.675 95.8611 140.563 95.8611C140.101 95.8611 139.709 95.4691 139.709 94.9931C139.709 94.6151 139.947 94.3211 140.297 94.1811L142.999 93.1591C143.083 93.1311 143.181 93.1031 143.321 93.1031C143.783 93.1031 144.175 93.4951 144.175 93.9431V101.321H145.379C145.855 101.321 146.261 101.727 146.261 102.189C146.261 102.679 145.855 103.085 145.379 103.085H140.619ZM150.53 103.267C148.934 103.267 147.226 102.105 147.226 100.159V96.2111C147.226 94.2651 148.934 93.1031 150.53 93.1031C152.126 93.1031 153.834 94.2651 153.834 96.2111V100.159C153.834 102.105 152.126 103.267 150.53 103.267ZM149.06 100.019C149.06 100.831 149.732 101.489 150.544 101.489C151.314 101.489 152 100.831 152 100.019V96.3511C152 95.4691 151.342 94.8811 150.544 94.8811C149.718 94.8811 149.06 95.4691 149.06 96.3511V100.019Z" fill="#002111"/>
    <path d="M126.98 44.7738H126.297V69.0926H126.98V44.7738Z" fill="#4A4A4A"/>
    <path d="M129.75 44.7738H129.067V69.0926H129.75V44.7738Z" fill="#4A4A4A"/>
    <path d="M115.006 44.7738H112.962V69.0926H115.006V44.7738Z" fill="#4A4A4A"/>
    <path d="M123.518 44.7738H120.109V69.0926H123.518V44.7738Z" fill="#4A4A4A"/>
    <path d="M153.558 44.7738H152.875V69.0926H153.558V44.7738Z" fill="#4A4A4A"/>
    <path d="M156.328 44.7738H155.645V69.0926H156.328V44.7738Z" fill="#4A4A4A"/>
    <path d="M150.096 44.7738H146.687V69.0926H150.096V44.7738Z" fill="#4A4A4A"/>
    <path d="M117.804 44.7738H117.121V69.0926H117.804V44.7738Z" fill="#4A4A4A"/>
    <path d="M134.146 44.7738H132.102V69.0926H134.146V44.7738Z" fill="#4A4A4A"/>
    <path d="M136.947 44.7738H136.265V69.0926H136.947V44.7738Z" fill="#4A4A4A"/>
    <path d="M141.503 44.7738H139.459V69.0926H141.503V44.7738Z" fill="#4A4A4A"/>
    <path d="M144.304 44.7738H143.621V69.0926H144.304V44.7738Z" fill="#4A4A4A"/>
    <path d="M162.039 44.7738H158.63V69.0926H162.039V44.7738Z" fill="#4A4A4A"/>
    <path d="M155.61 163.019C156.683 160.626 157.034 158.016 156.642 155.422C156.6 155.143 156.255 154.999 156.007 155.061C155.713 155.138 155.605 155.422 155.646 155.695C155.992 157.985 155.667 160.378 154.718 162.498C154.604 162.756 154.646 163.05 154.903 163.205C155.12 163.339 155.497 163.272 155.61 163.019Z" fill="#C88961"/>
    <path d="M127.785 21.2253C127.016 21.2253 126.294 21.6689 126.01 22.3806C125.907 22.6385 125.866 22.9325 125.938 23.2368C126.212 24.3302 126.671 24.423 128.677 24.3302C130.42 24.2528 143.371 24.2683 146.816 24.2941C147.6 24.2992 148.658 23.9176 148.951 23.1904C149.065 22.9118 149.117 22.5869 149.039 22.231C148.766 20.9519 146.801 21.3181 146.068 21.2253C145.429 21.1428 131.519 21.2047 127.785 21.2253Z" fill="#515151"/>
    <path d="M108.552 42.6242C108.413 40.8627 108.501 39.0979 108.805 37.3462L108.289 37.673C109.568 37.6338 110.847 37.6044 112.126 37.5847C113.08 37.5684 114.035 37.5586 114.989 37.5684C115.381 37.5684 115.773 37.5782 116.16 37.5946C116.479 37.6076 116.541 37.6011 116.799 37.6468C117.439 37.758 117.712 37.1272 117.072 37.0161C116.464 36.9115 115.778 36.9246 115.154 36.918C114.179 36.9082 113.199 36.918 112.224 36.9311C110.914 36.9507 109.599 36.9801 108.294 37.0194C107.99 37.0292 107.809 37.1632 107.778 37.3462C107.474 39.1012 107.392 40.8627 107.526 42.6242C107.557 43.0425 108.588 43.0458 108.557 42.6242H108.552Z" fill="#7EFAB5"/>
    <path d="M166.359 42.4052C166.498 40.6437 166.41 38.8789 166.106 37.1271C166.075 36.9441 165.895 36.8101 165.59 36.8003C164.28 36.7611 162.97 36.7317 161.66 36.7121C160.685 36.699 159.705 36.6859 158.731 36.699C158.107 36.7056 157.421 36.6925 156.812 36.7971C156.172 36.9082 156.446 37.5389 157.085 37.4278C157.338 37.3853 157.405 37.3886 157.725 37.3755C158.117 37.3592 158.504 37.3526 158.896 37.3494C159.85 37.3428 160.804 37.3494 161.758 37.3657C163.037 37.3853 164.316 37.4147 165.595 37.454C165.425 37.3461 165.25 37.235 165.08 37.1271C165.384 38.8821 165.467 40.6437 165.332 42.4052C165.301 42.8235 166.328 42.8235 166.364 42.4052H166.359Z" fill="#7EFAB5"/>
    <path d="M165.977 69.2693C166.116 71.0309 166.029 72.7957 165.724 74.5507L166.24 74.2238C164.961 74.2631 163.682 74.2925 162.403 74.3121C161.449 74.3284 160.495 74.3382 159.54 74.3284C159.148 74.3252 158.756 74.3186 158.37 74.3023C158.05 74.2892 157.988 74.2957 157.73 74.25C157.09 74.1389 156.817 74.7696 157.457 74.8807C158.065 74.9853 158.751 74.9722 159.375 74.9788C160.35 74.9886 161.33 74.9788 162.305 74.9657C163.615 74.9461 164.925 74.9167 166.235 74.8775C166.534 74.8677 166.72 74.7337 166.751 74.5507C167.055 72.7957 167.138 71.0341 167.003 69.2726C166.972 68.8543 165.941 68.851 165.972 69.2726L165.977 69.2693Z" fill="#7EFAB5"/>
    <path d="M108.176 69.4883C108.036 71.2498 108.124 73.0146 108.428 74.7696C108.459 74.9526 108.64 75.0866 108.944 75.0964C110.254 75.1357 111.564 75.1651 112.874 75.1847C113.849 75.201 114.829 75.2108 115.804 75.1977C116.428 75.1912 117.114 75.2043 117.722 75.0997C118.362 74.9886 118.089 74.3578 117.449 74.469C117.196 74.5147 117.129 74.5082 116.809 74.5212C116.417 74.5376 116.031 74.5441 115.639 74.5474C114.685 74.5539 113.73 74.5474 112.776 74.531C111.497 74.5114 110.218 74.482 108.939 74.4428C109.109 74.5507 109.284 74.6618 109.455 74.7696C109.15 73.0146 109.068 71.2531 109.202 69.4883C109.233 69.07 108.201 69.07 108.17 69.4883H108.176Z" fill="#7EFAB5"/>
    <path d="M183.497 202.016C197.382 202.181 211.018 196.678 220.673 186.651C223.211 184.016 225.444 181.102 227.342 177.976C227.688 177.409 226.795 176.888 226.45 177.455C219.59 188.756 208.249 196.796 195.38 199.736C191.481 200.629 187.489 201.031 183.492 200.984C182.827 200.974 182.827 202.006 183.492 202.016H183.497Z" fill="#00696A"/>
    <path d="M194.06 121.186C194.06 121.186 191.915 115.28 175.451 112.062C158.988 108.844 144.794 104.888 138.533 107.394C132.272 109.901 132.679 120.309 139.941 124.172C150.772 129.928 168.112 133.358 167.576 133.538C167.039 133.719 159.525 160.203 179.567 169.507C199.61 178.812 208.914 157.341 209.45 156.624C209.987 155.907 203.545 123.161 194.06 121.191V121.186Z" fill="#FFCCAC"/>
    <path d="M168.736 130.985C165.25 136.39 163.909 143.018 164.935 149.362C165.91 155.36 169.102 161.338 173.362 165.65C175.735 168.053 178.582 169.941 181.811 170.977C182.445 171.179 182.713 170.183 182.084 169.982C176.498 168.197 172.29 163.705 169.463 158.707C166.446 153.369 164.961 147.366 165.915 141.249C166.456 137.773 167.72 134.456 169.623 131.506C169.984 130.949 169.092 130.428 168.731 130.985H168.736Z" fill="#C88961"/>
    <path d="M165.087 110.416C175.387 112.263 185.594 116.059 193.753 122.753C194.264 123.171 194.996 122.444 194.48 122.026C186.177 115.218 175.846 111.303 165.36 109.426C164.711 109.307 164.432 110.303 165.087 110.421V110.416Z" fill="#C88961"/>
    <path d="M134.959 110.674C135.789 112.124 137.435 112.748 138.935 113.269C140.622 113.852 142.443 114.207 144.212 113.805C145.682 113.47 147.11 112.578 147.765 111.175C148.415 109.793 148.302 108.173 147.327 106.976C146.904 106.461 146.182 107.198 146.6 107.704C147.378 108.658 147.286 110.092 146.641 111.092C145.939 112.17 144.65 112.743 143.412 112.903C141.953 113.088 140.483 112.717 139.116 112.237C137.909 111.814 136.527 111.324 135.856 110.148C135.526 109.571 134.634 110.092 134.964 110.669L134.959 110.674Z" fill="#C88961"/>
    <defs>
    <clipPath id="clip0_141_8256">
    <rect width="91" height="181" fill="white" transform="translate(0.975586)"/>
    </clipPath>
    <clipPath id="clip1_141_8256">
    <rect width="56.7338" height="28.3669" fill="white" transform="translate(109.011 80.5333)"/>
    </clipPath>
    <clipPath id="clip2_141_8256">
    <rect width="16" height="16" fill="white" transform="translate(118.604 90.5851)"/>
    </clipPath>
    </defs>
    </svg>
    