<svg width="245" height="230" viewBox="0 0 245 230" fill="none" xmlns="http://www.w3.org/2000/svg">
<g clip-path="url(#clip0_9_9102)">
<path d="M117.567 115.244C117.567 115.244 105.648 117.38 100.918 119.136C99.7096 119.582 99.2686 121.471 100.09 122.358C101.48 123.854 124.448 148.259 128.58 150.588C132.713 152.917 147.459 151.403 147.864 150.588C148.269 149.768 149 149.08 148.631 148.482C148.269 147.885 121.506 116.94 120.691 116.023C119.337 114.508 117.567 115.25 117.567 115.25V115.244Z" fill="#263238"/>
<path d="M141.503 144.687C141.503 144.687 141.466 144.651 141.418 144.579C141.358 144.488 141.279 144.374 141.188 144.235C140.995 143.927 140.705 143.481 140.324 142.908C139.563 141.767 138.44 140.126 136.941 138.183C133.975 134.274 129.444 129.212 124.557 123.528C123.331 122.11 122.134 120.723 120.981 119.383C120.395 118.72 119.863 118.026 119.211 117.531C118.564 117.012 117.749 116.849 116.957 116.934C116.166 117.006 115.393 117.199 114.637 117.338C113.882 117.489 113.151 117.64 112.444 117.784C111.037 118.092 109.72 118.376 108.518 118.635C106.119 119.172 104.186 119.637 102.851 119.962C102.205 120.119 101.691 120.24 101.311 120.331C101.147 120.367 101.015 120.397 100.906 120.421C100.815 120.439 100.767 120.445 100.767 120.439C100.767 120.433 100.809 120.415 100.9 120.385C101.008 120.355 101.135 120.312 101.292 120.264C101.667 120.162 102.174 120.017 102.815 119.836C104.144 119.474 106.071 118.979 108.463 118.412C109.659 118.128 110.976 117.833 112.39 117.525C113.097 117.374 113.828 117.223 114.583 117.06C115.338 116.916 116.105 116.723 116.933 116.638C117.344 116.602 117.779 116.608 118.208 116.71C118.637 116.813 119.035 117.018 119.392 117.284C120.099 117.821 120.63 118.521 121.216 119.178C122.37 120.518 123.572 121.899 124.799 123.317C129.686 129.001 134.193 134.087 137.123 138.045C138.603 140.012 139.702 141.671 140.433 142.835C140.796 143.42 141.068 143.879 141.249 144.193C141.327 144.338 141.394 144.452 141.448 144.555C141.49 144.639 141.515 144.681 141.509 144.681L141.503 144.687Z" fill="#455A64"/>
<path d="M96.5501 176.858L114.553 193.256L120.564 166.836C121.923 166.16 141.581 170.275 141.581 170.275C141.581 170.275 140.451 216.871 132.682 222.048C124.913 227.219 116.124 223.858 110.656 218.971C105.189 214.084 90.1284 193.691 90.1284 193.691L96.5562 176.858H96.5501Z" fill="#FFBF9D"/>
<path d="M166.664 114.581L196.695 111.353C199.57 112.934 229.094 166.577 229.094 166.577C229.094 166.577 219.15 212.443 217.658 229.777C217.658 229.777 133.667 230.296 130.441 229.716C130.441 229.716 130.653 204.955 129.97 189.292C129.632 181.576 125.795 169.696 128.671 155.632C131.547 141.568 146.559 118.846 146.559 118.846L166.67 114.581H166.664Z" fill="#FF725E"/>
<path d="M112.523 180.966L138.361 184.405L147.568 118.635C147.568 118.635 132.302 123.745 127.125 136.017C121.947 148.289 112.523 180.966 112.523 180.966Z" fill="#FF725E"/>
<path d="M130.773 155.499C130.773 155.499 130.755 155.638 130.689 155.891C130.61 156.175 130.514 156.543 130.387 157.002C130.248 157.484 130.085 158.07 129.928 158.763C129.765 159.457 129.553 160.236 129.396 161.116C129.215 161.991 129.027 162.951 128.882 163.994C128.701 165.032 128.593 166.148 128.46 167.319C128.248 169.672 128.133 172.266 128.212 174.987C128.315 177.708 128.599 180.297 128.967 182.626C129.179 183.784 129.36 184.894 129.613 185.914C129.825 186.946 130.079 187.887 130.32 188.749C130.538 189.618 130.798 190.385 131.003 191.06C131.202 191.742 131.408 192.321 131.577 192.786C131.734 193.232 131.855 193.594 131.951 193.878C132.036 194.131 132.072 194.264 132.06 194.264C132.048 194.264 131.994 194.143 131.891 193.902C131.782 193.625 131.637 193.275 131.462 192.834C131.275 192.37 131.051 191.796 130.834 191.121C130.61 190.445 130.332 189.679 130.103 188.816C129.849 187.953 129.583 187.012 129.36 185.98C129.1 184.954 128.907 183.844 128.683 182.68C128.296 180.339 128 177.745 127.898 175.005C127.819 172.266 127.94 169.66 128.17 167.295C128.315 166.118 128.429 164.996 128.623 163.958C128.78 162.914 128.985 161.955 129.179 161.08C129.348 160.199 129.577 159.421 129.758 158.733C129.928 158.039 130.109 157.454 130.272 156.978C130.417 156.525 130.538 156.163 130.628 155.879C130.713 155.632 130.761 155.499 130.773 155.505V155.499Z" fill="#263238"/>
<path d="M126.828 126.376C127.185 125.923 135.377 127.396 139.581 129.35C143.786 131.305 153.99 138.334 157.512 141.309C161.028 144.283 167.637 151.994 170.712 156.543C173.787 161.092 182.83 172.676 182.83 172.676L166.622 182.752L153.669 164.495C153.669 164.495 136.253 163.258 134.199 161.696C132.145 160.139 130.918 156.971 130.918 156.971C130.918 156.971 124.787 154.986 123.5 153.363C122.213 151.74 120.54 147.843 120.54 147.843C120.54 147.843 115.809 146.51 113.834 143.595C111.858 140.681 110.729 138.666 112.179 137.586C113.628 136.506 115.616 137.303 116.716 138.938C117.815 140.573 119.887 142.322 121.476 142.962C123.065 143.601 128.339 144.506 126.828 142.515C125.318 140.524 108.554 134.147 107.563 132.977C106.56 131.788 108.409 129.254 110.554 129.652C112.704 130.05 126.394 135.058 128.532 135.263C130.665 135.468 137.848 136.217 137.848 136.217C137.848 136.217 133.407 133.707 131.607 132.892C129.807 132.084 124.043 129.869 126.828 126.37V126.376Z" fill="#FFBF9D"/>
<path d="M126.309 149.213C126.285 149.297 124.859 149.007 123.125 148.567C121.385 148.126 119.996 147.704 120.014 147.62C120.038 147.535 121.464 147.825 123.198 148.265C124.938 148.706 126.327 149.128 126.309 149.213Z" fill="#FF9A6C"/>
<path d="M145.157 137.417C145.139 137.465 144.704 137.29 143.979 137.14C143.254 136.977 142.234 136.88 141.092 136.772C138.814 136.542 136.972 136.289 136.978 136.204C136.984 136.12 138.838 136.235 141.122 136.464C142.258 136.573 143.303 136.711 144.034 136.928C144.765 137.14 145.176 137.393 145.157 137.423V137.417Z" fill="#FF9A6C"/>
<path d="M156.225 168.091C156.225 168.091 188.485 220.528 198.688 225.155C206.246 228.582 215.73 222.748 219.977 214.88C233.117 190.511 233.117 153.732 233.117 153.732L205.267 156.266L199.407 188.55L171.358 157.635L156.225 168.085V168.091Z" fill="#FFBF9D"/>
<path d="M196.689 111.353C196.689 111.353 224.804 114.81 232.084 126.31C238.306 136.138 240.022 172.628 237.146 177.105C234.271 181.582 200.313 171.717 200.313 171.717L196.695 111.347L196.689 111.353Z" fill="#FF725E"/>
<path d="M226.448 177.72C226.448 177.72 226.399 177.72 226.309 177.708C226.2 177.69 226.067 177.672 225.904 177.654C225.523 177.594 225.01 177.509 224.357 177.407C223.016 177.171 221.083 176.803 218.697 176.278C213.93 175.223 207.369 173.539 200.211 171.162L200.09 171.12L200.108 170.987C200.168 170.583 200.229 170.148 200.295 169.708C201.437 161.973 202.621 154.993 203.527 149.949C203.98 147.427 204.367 145.393 204.645 143.988C204.784 143.306 204.893 142.769 204.977 142.371C205.013 142.202 205.044 142.063 205.068 141.954C205.092 141.858 205.104 141.81 205.11 141.816C205.11 141.816 205.11 141.864 205.098 141.96C205.08 142.075 205.062 142.214 205.038 142.383C204.971 142.781 204.881 143.324 204.766 144.012C204.518 145.454 204.174 147.487 203.745 149.991C202.893 155.041 201.745 162.021 200.603 169.756C200.543 170.191 200.476 170.625 200.416 171.029L200.313 170.86C207.454 173.232 213.997 174.957 218.745 176.061C221.119 176.61 223.046 177.014 224.375 177.28C225.022 177.407 225.535 177.509 225.91 177.588C226.067 177.624 226.2 177.654 226.309 177.672C226.399 177.696 226.441 177.708 226.441 177.714L226.448 177.72Z" fill="#263238"/>
<path d="M207.043 202.216C206.989 202.228 206.765 201.269 206.246 199.767C205.732 198.264 204.881 196.231 203.642 194.149C202.398 192.068 201.014 190.354 199.933 189.19C198.858 188.019 198.114 187.362 198.151 187.326C198.163 187.308 198.362 187.458 198.706 187.748C199.051 188.032 199.528 188.472 200.096 189.039C201.226 190.173 202.651 191.887 203.914 193.993C205.171 196.098 205.998 198.168 206.463 199.7C206.699 200.466 206.856 201.094 206.941 201.534C207.031 201.975 207.067 202.216 207.049 202.222L207.043 202.216Z" fill="#FF9A6C"/>
<path d="M49.8941 138.642C49.8941 138.642 48.8308 149.357 49.5739 150.781C50.317 152.205 77.8527 170.51 80.9578 170.311C84.063 170.112 90.2129 168.622 91.0828 166.275C91.9528 163.934 99.3472 150.075 99.2384 148.38C99.1297 146.685 97.5288 144.748 97.5288 144.748C97.5288 144.748 72.6572 126.002 71.745 125.93C70.8328 125.857 58.0436 128.228 58.0436 128.228C58.0436 128.228 58.1705 126.509 57.1375 126.153C55.458 125.574 48.1844 135.583 47.9911 137.864C47.7978 140.144 49.8941 138.642 49.8941 138.642Z" fill="#E0E0E0"/>
<path d="M71.8296 126.635C71.8296 126.635 71.8054 126.756 71.7329 126.979C71.6484 127.233 71.5396 127.546 71.4067 127.939C71.1047 128.807 70.6939 130.002 70.1924 131.45C69.6729 132.934 69.0567 134.696 68.2955 136.633C67.9149 137.598 67.486 138.606 67.0087 139.631C66.5315 140.657 66.018 141.713 65.3716 142.739C64.7312 143.764 63.9519 144.681 63.0638 145.411C62.1758 146.141 61.2092 146.691 60.2607 147.131C58.3578 148.006 56.5394 148.501 55.0472 148.983C53.549 149.454 52.3589 149.888 51.5554 150.238C50.7519 150.582 50.323 150.817 50.3109 150.787C50.3109 150.775 50.4076 150.715 50.6069 150.594C50.8063 150.48 51.1023 150.305 51.5071 150.124C52.2985 149.731 53.4886 149.267 54.9807 148.766C56.4669 148.253 58.2732 147.734 60.1399 146.859C61.0703 146.419 62.0127 145.876 62.8705 145.17C63.7284 144.458 64.4775 143.571 65.1058 142.564C65.7401 141.562 66.2475 140.512 66.7308 139.493C67.2141 138.473 67.6431 137.477 68.0297 136.518C68.803 134.6 69.4433 132.844 69.987 131.372C70.5307 129.9 70.9717 128.711 71.2919 127.89C71.455 127.48 71.5819 127.166 71.6725 126.955C71.7631 126.744 71.8175 126.635 71.8236 126.635H71.8296Z" fill="white"/>
<path d="M82.1661 133.906C82.1661 133.906 82.1419 134.026 82.0634 134.25C81.9909 134.473 81.8701 134.793 81.713 135.209C81.3928 136.036 80.9035 137.218 80.2691 138.672C79.6348 140.12 78.8555 141.84 77.9735 143.74C77.5325 144.687 77.0673 145.683 76.5901 146.715C76.1068 147.746 75.6235 148.826 75.0375 149.888C74.4454 150.95 73.7688 151.946 72.9593 152.772C72.1438 153.593 71.2315 154.25 70.3072 154.763C68.4526 155.795 66.598 156.302 65.0635 156.688C63.517 157.062 62.2604 157.303 61.3965 157.496C60.9917 157.587 60.6595 157.659 60.3997 157.72C60.1701 157.768 60.0493 157.792 60.0493 157.78C60.0493 157.768 60.1641 157.726 60.3876 157.659C60.6111 157.587 60.9434 157.49 61.3723 157.382C62.2725 157.159 63.5049 156.851 65.0152 156.477C66.5375 156.066 68.362 155.542 70.1683 154.516C71.0684 154.009 71.9565 153.363 72.7479 152.567C73.5332 151.765 74.1917 150.793 74.7717 149.743C75.3516 148.694 75.8349 147.62 76.3242 146.588C76.8075 145.556 77.2788 144.567 77.7258 143.62C78.6078 141.731 79.4053 140.03 80.0819 138.582C80.7404 137.146 81.2659 135.975 81.6163 135.161C81.7794 134.781 81.9184 134.473 82.0211 134.225C82.1177 134.014 82.1721 133.9 82.1782 133.906H82.1661Z" fill="white"/>
<path d="M86.4855 137.248C86.4855 137.248 86.4613 137.369 86.3828 137.592C86.3103 137.815 86.1895 138.141 86.0264 138.557C85.7001 139.39 85.1987 140.585 84.5523 142.045C83.9059 143.505 83.1024 145.236 82.2083 147.149C81.7613 148.108 81.2901 149.11 80.8007 150.148C80.3114 151.185 79.8281 152.277 79.2421 153.357C78.6561 154.437 77.9855 155.451 77.176 156.296C76.3605 157.128 75.4483 157.804 74.5179 158.329C72.6512 159.385 70.7784 159.898 69.2319 160.29C67.6733 160.67 66.4046 160.911 65.5286 161.11C65.1178 161.201 64.7856 161.273 64.5258 161.334C64.2962 161.382 64.1754 161.406 64.1694 161.394C64.1694 161.382 64.2842 161.34 64.5077 161.273C64.7312 161.201 65.0695 161.104 65.4984 160.99C66.3623 160.76 67.631 160.483 69.1715 160.079C70.7059 159.662 72.5485 159.131 74.3669 158.082C75.2731 157.563 76.1551 156.899 76.9465 156.085C77.7258 155.264 78.3843 154.275 78.9642 153.213C79.5442 152.151 80.0275 151.065 80.5228 150.021C81.0182 148.983 81.4955 147.982 81.9486 147.028C82.8487 145.128 83.6643 143.414 84.353 141.96C85.0296 140.512 85.5612 139.336 85.9176 138.515C86.0868 138.129 86.2197 137.821 86.3284 137.574C86.4251 137.357 86.4794 137.248 86.4915 137.254L86.4855 137.248Z" fill="white"/>
<path d="M90.95 140.313C90.95 140.313 90.9258 140.44 90.8473 140.663C90.7687 140.892 90.6479 141.224 90.4787 141.647C90.1404 142.491 89.6269 143.704 88.9564 145.188C87.6092 148.157 85.676 152.205 83.5193 156.688C82.9393 157.792 82.2748 158.836 81.4774 159.717C80.6679 160.585 79.7557 161.297 78.8132 161.846C76.9223 162.945 75.0254 163.482 73.4487 163.88C71.8659 164.272 70.567 164.519 69.679 164.712C69.2621 164.803 68.9238 164.881 68.658 164.942C68.4224 164.996 68.3016 165.014 68.2955 165.008C68.2955 164.996 68.4103 164.954 68.6399 164.881C68.8694 164.809 69.2077 164.712 69.6488 164.598C70.5308 164.362 71.8175 164.085 73.3882 163.669C74.9469 163.24 76.8257 162.691 78.6622 161.599C79.5744 161.056 80.4625 160.356 81.2418 159.512C82.015 158.655 82.6615 157.629 83.2354 156.543C85.38 152.09 87.3252 148.06 88.751 145.092C89.4457 143.62 89.9954 142.425 90.364 141.592C90.5392 141.2 90.6781 140.886 90.7868 140.633C90.8835 140.416 90.9379 140.301 90.95 140.307V140.313Z" fill="white"/>
<path d="M78.1426 130.274C78.1426 130.274 78.1245 130.394 78.052 130.611C77.9855 130.829 77.8708 131.148 77.7197 131.553C77.4116 132.367 76.9283 133.526 76.2819 134.931C75.6416 136.343 74.8381 138.008 73.9561 139.855C73.5151 140.778 73.062 141.749 72.621 142.769C72.18 143.788 71.7571 144.862 71.2496 145.942C70.7422 147.016 70.1683 148.042 69.4735 148.935C68.7667 149.822 67.9632 150.57 67.1235 151.173C65.432 152.386 63.674 153.062 62.206 153.557C60.7259 154.033 59.4995 154.323 58.6538 154.51C58.2309 154.606 57.8986 154.673 57.6751 154.715C57.4516 154.757 57.3307 154.775 57.3307 154.763C57.3307 154.751 57.4395 154.715 57.663 154.655C57.9167 154.588 58.2369 154.498 58.6236 154.389C59.4572 154.16 60.6715 153.84 62.1335 153.339C63.5834 152.827 65.3111 152.133 66.9543 150.932C67.7759 150.335 68.5492 149.605 69.2319 148.742C69.9024 147.867 70.4643 146.866 70.9657 145.804C71.4671 144.742 71.896 143.668 72.337 142.642C72.7841 141.616 73.2493 140.645 73.6963 139.722C74.5904 137.888 75.3939 136.235 76.0826 134.829C76.7531 133.435 77.2666 132.289 77.6049 131.498C77.762 131.124 77.8889 130.823 77.9916 130.581C78.0822 130.37 78.1305 130.262 78.1426 130.268V130.274Z" fill="white"/>
<path d="M91.0587 164.157C91.0587 164.157 90.956 164.127 90.7687 164.043C90.5512 163.94 90.2915 163.813 89.9713 163.657C89.2826 163.319 88.2918 162.806 87.0715 162.16C84.6369 160.869 81.3203 159.011 77.7258 156.833C74.1313 154.649 70.9536 152.555 68.6882 150.992C67.5525 150.214 66.6463 149.568 66.024 149.11C65.7401 148.899 65.5045 148.724 65.3112 148.579C65.1481 148.452 65.0695 148.386 65.0756 148.374C65.0816 148.368 65.1722 148.416 65.3474 148.525C65.5468 148.651 65.7945 148.814 66.0905 149.007C66.7732 149.46 67.6914 150.063 68.809 150.805C71.1047 152.32 74.3005 154.377 77.8829 156.561C81.4713 158.739 84.7698 160.622 87.1742 161.961C88.3462 162.613 89.3067 163.15 90.0196 163.542C90.3277 163.717 90.5814 163.862 90.7929 163.982C90.9681 164.085 91.0587 164.145 91.0526 164.151L91.0587 164.157Z" fill="white"/>
<path d="M53.9598 149.363C53.5973 149.387 47.8341 156.32 50.8546 159.228C53.8752 162.136 57.506 161.901 57.506 161.901C57.506 161.901 60.4178 168.821 62.049 170.088C63.6801 171.349 65.0575 171.446 65.0575 171.446C65.0575 171.446 65.8428 175.132 68.7547 175.036C68.7547 175.036 71.1047 177.527 73.8353 177.352C76.5599 177.177 78.8374 177.033 78.8374 177.033L90.1284 193.703C91.7293 193.051 102.187 186.463 103.087 183.398L88.7932 168.314L83.2052 169.672C83.2052 169.672 87.295 165.388 86.8178 163.397C86.3164 161.303 85.0296 161.141 84.1355 161.472C83.2414 161.804 77.0734 168.037 77.0734 168.037L74.3367 166.661C74.3367 166.661 77.8406 157.321 77.2848 155.717C76.723 154.112 75.116 153.213 73.787 153.846C72.4579 154.48 68.4466 164.489 68.066 164.242C67.6854 163.994 66.9665 164.224 66.1872 163.451C65.4078 162.679 64.3265 161.472 64.6165 160.362C64.9125 159.252 67.9451 152.489 67.3894 150.974C66.8336 149.46 64.985 149.032 64.0969 149.454C63.2089 149.876 58.9921 158.076 58.9921 158.076L56.3823 155.783C56.3823 155.783 58.1464 152.024 56.9442 150.371C55.742 148.718 53.9598 149.375 53.9598 149.375V149.363Z" fill="#FFBF9D"/>
<path d="M78.4447 166.764C78.4749 166.794 78.191 167.162 77.6835 167.717C77.1761 168.272 76.433 169.002 75.557 169.75C74.6811 170.492 73.8353 171.114 73.207 171.524C72.5787 171.94 72.1679 172.158 72.1438 172.127C72.0954 172.049 73.6178 170.993 75.3516 169.509C77.0915 168.037 78.3783 166.703 78.4508 166.764H78.4447Z" fill="#FF9A6C"/>
<path d="M66.5738 167.85C66.61 167.874 66.5134 168.103 66.314 168.459C66.1207 168.815 65.8247 169.28 65.583 169.823C65.0635 170.915 65.3112 171.916 65.2085 171.934C65.1722 171.94 65.0635 171.711 65.0151 171.295C64.9668 170.885 65.0333 170.281 65.293 169.702C65.5528 169.123 65.8851 168.664 66.1267 168.344C66.3684 168.025 66.5375 167.832 66.5738 167.856V167.85Z" fill="#FF9A6C"/>
<path d="M58.6175 163.982C58.5813 163.994 58.4 163.675 58.249 163.095C58.098 162.522 58.0013 161.696 58.0678 160.785C58.1403 159.88 58.3578 159.071 58.6115 158.528C58.8592 157.985 59.1129 157.702 59.1371 157.726C59.1794 157.756 59.0042 158.07 58.8169 158.613C58.6236 159.156 58.4484 159.934 58.3759 160.809C58.2128 162.577 58.69 163.958 58.6115 163.982H58.6175Z" fill="#FF9A6C"/>
<path d="M55.9836 158.938C55.899 158.926 55.9413 158.13 56.0863 157.159C56.2313 156.187 56.4125 155.415 56.5031 155.427C56.5938 155.439 56.5454 156.235 56.4004 157.207C56.2555 158.178 56.0742 158.95 55.9836 158.938Z" fill="#FF9A6C"/>
<path d="M84.5584 168.091C84.6429 168.151 83.4407 169.835 81.7613 171.741C80.9759 172.646 80.2631 173.467 79.6348 174.191C79.0911 174.818 78.7649 175.211 78.7286 175.186C78.644 175.126 79.8462 173.443 81.5257 171.536C82.311 170.631 83.0239 169.811 83.6522 169.087C84.1959 168.459 84.5221 168.067 84.5584 168.091Z" fill="#FF9A6C"/>
<path d="M48.7463 138.021C48.7463 138.021 44.3604 135.71 43.9677 134.563C43.575 133.417 52.2018 122.937 53.2832 123.239C54.3646 123.54 57.3187 126.43 57.4395 127.486C57.5604 128.542 54.0988 137.206 48.7463 138.027V138.021Z" fill="#FF725E"/>
<path d="M53.2167 123.184C54.4733 124.186 53.4523 127.547 50.9392 130.69C48.4261 133.833 45.3692 135.577 44.1187 134.581C42.8682 133.586 43.8831 130.219 46.3962 127.076C48.9094 123.932 51.9662 122.189 53.2167 123.184Z" fill="#FF725E"/>
<path opacity="0.4" d="M53.2167 123.184C54.4733 124.186 53.4523 127.547 50.9392 130.69C48.4261 133.833 45.3692 135.577 44.1187 134.581C42.8682 133.586 43.8831 130.219 46.3962 127.076C48.9094 123.932 51.9662 122.189 53.2167 123.184Z" fill="white"/>
<path d="M58.4363 128.892C58.4363 128.892 58.4363 129.079 58.3941 129.411C58.3518 129.743 58.243 130.213 58.0678 130.786C57.7235 131.927 57.0287 133.459 55.9051 134.901C54.7754 136.343 53.4584 137.387 52.4314 137.996C51.9179 138.304 51.489 138.521 51.1748 138.642C50.8667 138.769 50.6915 138.829 50.6855 138.811C50.6613 138.757 51.3319 138.455 52.3106 137.809C53.2893 137.164 54.5519 136.12 55.6574 134.708C56.7569 133.296 57.4697 131.818 57.8564 130.714C58.2491 129.61 58.382 128.886 58.4363 128.898V128.892Z" fill="#263238"/>
<path opacity="0.4" d="M60.7561 129.489C60.7561 129.489 68.5009 127.854 69.9447 127.842C71.3886 127.83 95.7466 145.574 96.4051 146.817C97.0636 148.06 95.0458 151.674 95.0458 151.674C95.0458 151.674 69.4916 132.301 68.2834 132.506C67.0752 132.711 60.593 133.9 59.9828 132.397C59.3727 130.895 60.7621 129.489 60.7621 129.489H60.7561Z" fill="white"/>
<path d="M124.865 207.477C124.805 207.495 124.521 206.47 123.802 204.925C123.089 203.381 121.893 201.341 120.304 199.278C118.721 197.208 117.096 195.495 115.864 194.306C115.254 193.709 114.74 193.244 114.39 192.919C114.033 192.599 113.846 192.412 113.858 192.394C113.87 192.376 114.088 192.532 114.468 192.822C114.849 193.118 115.387 193.558 116.015 194.137C117.289 195.29 118.951 196.991 120.552 199.079C122.153 201.16 123.331 203.242 124.001 204.829C124.182 205.221 124.309 205.589 124.424 205.909C124.545 206.228 124.636 206.506 124.69 206.741C124.817 207.206 124.877 207.465 124.859 207.471L124.865 207.477Z" fill="#263238"/>
<path d="M244.843 18.6734C243.955 14.7698 239.388 12.1573 235.564 13.358C238.379 9.1346 236.258 2.53404 231.504 0.74211C226.756 -1.04982 220.793 2.49784 220.104 7.52367C216.274 0.778311 206.771 -2.01516 199.89 1.58076C193.01 5.17667 189.898 14.5707 193.269 21.5634L203.437 57.0942C205.128 60.0989 208.505 62.0839 211.961 62.102C215.416 62.1201 218.811 60.1773 220.539 57.1908C223.953 58.9767 228.532 58.1561 231.111 55.3023C233.691 52.4425 234.029 47.8088 231.897 44.6051C233.963 46.8374 237.908 46.4754 240.07 44.3396C242.239 42.2038 242.807 38.8492 242.275 35.8566C241.744 32.864 240.258 30.1369 238.778 27.4762C242.741 26.9091 245.725 22.5771 244.837 18.6734H244.843Z" fill="#263238"/>
<path d="M214.74 35.9833C206.705 25.4791 195.644 19.2164 182.419 18.5528C174.959 18.1787 171.811 19.6267 166.386 20.8937C160.961 22.1608 156.007 24.8758 152.648 29.3164C148.655 34.5836 145.248 40.5205 144.306 47.0607C143.339 53.7759 142.366 60.5393 142.644 67.3209C142.922 74.1025 144.535 80.9745 148.341 86.5977L165.486 90.1634C175.001 90.809 184.643 91.4425 193.994 89.5842C203.346 87.7259 212.529 83.05 217.772 75.098C225.058 64.0568 222.787 46.4875 214.746 35.9833H214.74Z" fill="#263238"/>
<path d="M199.401 35.3558L176.723 25.4671L170.693 25.9618C157.252 49.2387 147.356 40.1162 146.897 51.0367C146.39 63.1699 146.245 78.0001 147.87 87.008C151.144 105.12 166.477 107.135 166.477 107.135L167.075 115.516C169.673 119.932 178.559 121.073 183.307 119.136C186.135 118.496 191.475 114.744 196.538 111.335L205.267 41.7271C205.267 38.4088 202.712 35.6455 199.401 35.3619V35.3558Z" fill="#FFBF9D"/>
<path d="M151.458 68.0328C151.44 69.2636 152.473 70.2954 153.76 70.3376C155.047 70.3798 156.104 69.4145 156.122 68.1837C156.14 66.9528 155.107 65.9211 153.82 65.8789C152.534 65.8367 151.47 66.802 151.452 68.0328H151.458Z" fill="#263238"/>
<path d="M166.265 77.4148C166.271 77.27 164.707 77.0347 162.169 76.7693C161.529 76.715 160.919 76.6003 160.798 76.1659C160.635 75.7074 160.889 75.0075 161.185 74.2593C161.753 72.6967 162.351 71.0556 162.979 69.3421C165.468 62.3433 167.256 56.5935 166.972 56.497C166.688 56.4004 164.441 61.9934 161.952 68.9922C161.354 70.7177 160.78 72.3649 160.236 73.9396C160.007 74.6757 159.608 75.5083 159.958 76.4615C160.14 76.9382 160.623 77.2761 161.034 77.3786C161.45 77.4933 161.807 77.4933 162.127 77.5053C164.676 77.5898 166.259 77.5657 166.265 77.4209V77.4148Z" fill="#263238"/>
<path d="M166.447 107.105C166.447 107.105 178.716 107.636 190.702 100.094C190.702 100.094 185.12 113.742 166.857 112.427L166.447 107.105Z" fill="#FF9A6C"/>
<path d="M174.638 80.2988C174.252 80.16 173.472 82.7665 170.681 83.9611C167.896 85.1557 165.19 84.0395 165.063 84.3955C164.978 84.5463 165.534 85.0893 166.7 85.4694C167.842 85.8495 169.642 85.9823 171.346 85.2522C173.05 84.5222 174.089 83.1767 174.493 82.133C174.916 81.0711 174.82 80.335 174.632 80.2988H174.638Z" fill="#263238"/>
<path d="M150.147 58.7534C150.582 59.3568 152.497 58.9043 154.751 59.043C157.01 59.1094 158.877 59.7308 159.36 59.1697C159.578 58.8982 159.318 58.307 158.527 57.7036C157.747 57.1063 156.406 56.5693 154.853 56.4969C153.301 56.4306 151.924 56.8408 151.102 57.3657C150.262 57.8906 149.96 58.4578 150.147 58.7474V58.7534Z" fill="#263238"/>
<path d="M177.762 67.4174C177.786 68.6483 176.759 69.686 175.472 69.7343C174.185 69.7825 173.122 68.8232 173.098 67.5924C173.074 66.3616 174.101 65.3238 175.387 65.2756C176.674 65.2273 177.737 66.1866 177.762 67.4174Z" fill="#263238"/>
<path d="M181.743 59.5921C181.241 60.1532 179.308 59.5318 176.976 59.4654C174.644 59.3266 172.663 59.7791 172.216 59.1758C172.023 58.8862 172.343 58.319 173.213 57.7941C174.07 57.2692 175.502 56.8529 177.103 56.9253C178.704 56.9977 180.088 57.5347 180.885 58.132C181.7 58.7293 181.96 59.3206 181.737 59.5981L181.743 59.5921Z" fill="#263238"/>
<path d="M204.427 67.333L201.171 70.4884C188.944 62.0417 164.61 34.7404 163.97 25.63C163.97 25.63 173.412 22.1185 183.465 24.1759C193.517 26.2333 212.517 31.9228 211.822 43.8087C211.127 55.6945 204.433 67.333 204.433 67.333H204.427Z" fill="#263238"/>
<path d="M200.754 70.5669C200.93 69.2274 202.899 66.259 204.252 66.2288C207.871 66.1383 214.232 67.2485 213.121 76.2503C211.604 88.5525 199.54 84.492 199.558 84.136C199.576 83.8585 200.138 75.2005 200.748 70.5669H200.754Z" fill="#FFBF9D"/>
<path d="M204.035 80.1359C204.089 80.0937 204.258 80.2807 204.627 80.4376C204.989 80.5884 205.605 80.6849 206.246 80.4255C207.545 79.9066 208.59 77.801 208.59 75.5626C208.59 74.4343 208.324 73.3664 207.901 72.4855C207.496 71.5926 206.892 70.9711 206.228 70.8746C205.569 70.7419 205.11 71.1461 204.965 71.5021C204.808 71.852 204.893 72.0994 204.826 72.1235C204.79 72.1537 204.554 71.9244 204.639 71.4116C204.681 71.1642 204.82 70.8686 205.104 70.6212C205.394 70.3738 205.829 70.2351 206.294 70.2713C207.255 70.3135 208.137 71.1642 208.608 72.1296C209.127 73.0949 209.454 74.2955 209.454 75.5626C209.442 78.0604 208.227 80.4315 206.445 80.9987C205.581 81.2521 204.844 81.0107 204.458 80.7272C204.065 80.4315 203.992 80.154 204.035 80.1359Z" fill="#FF9A6C"/>
<path d="M222.376 63.0251C222.321 63.0251 222.333 62.2408 222.309 60.841C222.285 59.4352 222.17 57.408 221.808 54.9283C221.107 49.9929 219.089 43.1993 214.752 36.8944C210.408 30.5894 204.778 26.2755 200.416 23.8561C198.229 22.6314 196.374 21.7988 195.07 21.2738C193.765 20.7489 193.034 20.4774 193.052 20.4292C193.058 20.405 193.251 20.4473 193.608 20.5498C193.964 20.6584 194.502 20.7912 195.16 21.0325C196.501 21.485 198.404 22.2573 200.646 23.4459C205.11 25.7868 210.891 30.1068 215.308 36.5203C219.724 42.9338 221.693 49.8662 222.279 54.874C222.587 57.3899 222.629 59.4413 222.569 60.8531C222.563 61.559 222.491 62.108 222.466 62.4761C222.43 62.8441 222.4 63.0372 222.376 63.0372V63.0251Z" fill="#455A64"/>
<path d="M111.623 11.0231H11.4118C4.9417 11.0231 -0.193301 14.7638 0.181252 19.1983L2.51315 90.079C2.85749 94.1274 7.70252 97.2949 13.6048 97.3432L69.9931 97.8017C71.3705 102.562 70.4825 107.672 67.4739 111.992C72.6271 111.715 77.2365 109.114 79.8221 105.772C81.6707 103.383 82.5829 100.668 82.8548 97.9043L108.427 98.1155C114.559 98.1637 119.621 94.8333 119.803 90.622L122.853 18.9691C123.041 14.619 117.954 11.0231 111.611 11.0231H111.623Z" fill="white"/>
<path d="M111.623 11.0231C111.623 11.0231 111.871 11.0231 112.366 11.0351C112.614 11.0351 112.922 11.0532 113.284 11.0955C113.647 11.1256 114.07 11.1739 114.541 11.2704C115.483 11.4333 116.643 11.7229 117.863 12.284C119.084 12.8331 120.389 13.6536 121.391 14.8422C122.418 16.0067 123.065 17.5814 122.932 19.2949C122.866 20.9963 122.787 22.8546 122.708 24.8637C122.545 28.876 122.358 33.4674 122.153 38.5958C121.73 48.8526 121.216 61.2453 120.63 75.3273C120.485 78.8508 120.334 82.4769 120.177 86.2055C120.141 87.1347 120.099 88.0759 120.062 89.0171C120.002 89.9583 120.056 90.9176 119.784 91.8769C119.265 93.7956 117.652 95.5271 115.465 96.6614C114.372 97.2286 113.139 97.663 111.84 97.9284C110.541 98.2 109.164 98.2663 107.823 98.2482C105.135 98.2301 102.422 98.206 99.6734 98.1818C94.182 98.1396 88.5818 98.0913 82.8669 98.0491L83.0662 97.9164C82.7521 101.048 81.5982 104.336 78.9461 107.063C77.611 108.408 75.9557 109.603 74.0105 110.508C72.0652 111.407 69.83 112.01 67.5041 112.143L67.1356 112.161L67.3048 111.92C70.1441 107.872 71.2255 102.725 69.8058 97.8319L70.0052 97.9526C56.5575 97.844 42.5299 97.7293 28.2123 97.6147C24.0077 97.5785 19.8332 97.5483 15.6829 97.5121C14.6438 97.5001 13.6168 97.5121 12.5596 97.4518C11.5145 97.3613 10.4815 97.2044 9.49674 96.9269C8.51807 96.6433 7.57565 96.2874 6.72988 95.8348C5.88412 95.3703 5.12293 94.8333 4.47048 94.2239C3.83616 93.6025 3.31661 92.9207 2.94206 92.1967C2.56147 91.4727 2.38627 90.6944 2.31982 89.9221C2.27149 88.4077 2.22316 86.8933 2.16879 85.391C2.07213 82.3803 1.97547 79.3938 1.87881 76.4374C1.49218 64.5998 1.12367 53.1846 0.767237 42.3063C0.592043 36.8702 0.42289 31.5669 0.253737 26.4143C0.157078 23.838 0.078543 21.298 7.63993e-06 18.7941C-0.0120747 17.5271 0.410808 16.254 1.24449 15.168C2.06609 14.076 3.23204 13.1529 4.58526 12.453C5.93849 11.7531 7.47899 11.2825 9.06178 11.0593C10.6566 10.8179 12.2576 10.9145 13.8101 10.8964C16.9334 10.8964 20.0023 10.8964 23.0109 10.8964C29.0218 10.8964 34.7972 10.9024 40.3007 10.9084C62.3268 10.9265 80.1544 10.9446 92.4844 10.9567C98.6404 10.9688 103.419 10.9808 106.669 10.9869C108.288 10.9929 109.521 10.9989 110.36 11.005C111.194 11.005 111.617 11.0231 111.617 11.0231C111.617 11.0231 111.194 11.0351 110.36 11.0412C109.521 11.0412 108.288 11.0472 106.669 11.0593C103.419 11.0653 98.6404 11.0774 92.4844 11.0894C80.1604 11.1015 62.3329 11.1196 40.3007 11.1377C34.7912 11.1377 29.0218 11.1437 23.0109 11.1498C20.0023 11.1498 16.9395 11.1498 13.8101 11.1498C12.2455 11.1679 10.6627 11.0774 9.12219 11.3127C7.58169 11.5299 6.08952 11.9944 4.77858 12.6702C3.46764 13.3459 2.34399 14.2449 1.54655 15.2947C0.743073 16.3445 0.338314 17.5633 0.350396 18.7941C0.428931 21.2919 0.513508 23.826 0.598084 26.4022C0.773278 31.5548 0.948473 36.8582 1.12971 42.2943C1.49218 53.1725 1.87277 64.5878 2.26545 76.4253C2.36211 79.3817 2.46481 82.3683 2.56147 85.3789C2.6098 86.8813 2.65813 88.3956 2.7125 89.91C2.77895 90.6521 2.94206 91.3882 3.30453 92.0881C3.667 92.7819 4.15634 93.4396 4.77254 94.0369C5.40082 94.6221 6.13785 95.141 6.94736 95.5875C7.76896 96.0279 8.67514 96.3718 9.61756 96.6433C10.566 96.9088 11.5689 97.0596 12.5777 97.1501C13.5866 97.2044 14.6317 97.1984 15.6648 97.2105C19.8151 97.2467 23.9956 97.2768 28.1942 97.313C42.5118 97.4337 56.5394 97.5483 69.9871 97.6569H70.1502L70.1864 97.7776C71.6303 102.743 70.5308 107.962 67.6431 112.071L67.4498 111.848C69.7031 111.721 71.878 111.136 73.7749 110.261C75.6718 109.38 77.2969 108.209 78.6018 106.894C81.1995 104.227 82.3413 100.993 82.6554 97.8983L82.6675 97.7595H82.8487C88.5576 97.8078 94.1639 97.856 99.6553 97.9043C102.398 97.9285 105.117 97.9526 107.799 97.9707C109.14 97.9888 110.451 97.9224 111.72 97.663C112.982 97.4035 114.172 96.9872 115.235 96.4382C117.356 95.3401 118.915 93.6689 119.416 91.8226C119.682 90.9116 119.633 89.9523 119.694 89.005C119.736 88.0638 119.778 87.1226 119.815 86.1935C119.978 82.4648 120.135 78.8387 120.286 75.3152C120.902 61.2272 121.446 48.8405 121.893 38.5837C122.122 33.4553 122.328 28.8639 122.503 24.8517C122.594 22.8486 122.678 20.9903 122.757 19.2888C122.896 17.5935 122.273 16.0489 121.265 14.8905C120.286 13.714 118.999 12.8934 117.797 12.3444C116.589 11.7833 115.447 11.4876 114.511 11.3187C114.045 11.2222 113.629 11.1739 113.266 11.1377C112.904 11.0894 112.602 11.0713 112.354 11.0653C111.865 11.0412 111.611 11.0291 111.611 11.0291L111.623 11.0231Z" fill="#263238"/>
<path d="M41.1163 30.6136H39.7933V77.7648H41.1163V30.6136Z" fill="black"/>
<path d="M46.4869 30.6136H45.1639V77.7648H46.4869V30.6136Z" fill="black"/>
<path d="M17.9 30.6136H13.937V77.7648H17.9V30.6136Z" fill="black"/>
<path d="M34.4045 30.6136H27.7955V77.7648H34.4045V30.6136Z" fill="black"/>
<path d="M92.6475 30.6136H91.3245V77.7648H92.6475V30.6136Z" fill="black"/>
<path d="M98.0181 30.6136H96.6951V77.7648H98.0181V30.6136Z" fill="black"/>
<path d="M85.9358 30.6136H79.3267V77.7648H85.9358V30.6136Z" fill="black"/>
<path d="M23.325 30.6136H22.002V77.7648H23.325V30.6136Z" fill="black"/>
<path d="M55.011 30.6136H51.048V77.7648H55.011V30.6136Z" fill="black"/>
<path d="M60.442 30.6136H59.119V77.7648H60.442V30.6136Z" fill="black"/>
<path d="M69.2742 30.6136H65.3112V77.7648H69.2742V30.6136Z" fill="black"/>
<path d="M74.7052 30.6136H73.3822V77.7648H74.7052V30.6136Z" fill="black"/>
<path d="M109.092 30.6136H102.483V77.7648H109.092V30.6136Z" fill="black"/>
</g>
<defs>
<clipPath id="clip0_9_9102">
<rect width="245" height="230" fill="white"/>
</clipPath>
</defs>
</svg>
