<svg width="141" height="140" viewBox="0 0 141 140" fill="none" xmlns="http://www.w3.org/2000/svg">
<path d="M14.5 70C14.5 84.8521 20.4 99.0959 30.902 109.598C41.4041 120.1 55.6479 126 70.5 126C85.3521 126 99.5959 120.1 110.098 109.598C120.6 99.0959 126.5 84.8521 126.5 70C126.5 55.1479 120.6 40.9041 110.098 30.402C99.5959 19.9 85.3521 14 70.5 14C55.6479 14 41.4041 19.9 30.902 30.402C20.4 40.9041 14.5 55.1479 14.5 70Z" fill="#FFF1B2"/>
<path d="M60.4688 52.0938C61.0312 50.3125 62.7188 49 64.6875 49H76.2188C78.1875 49 79.875 50.3125 80.4375 52.0938L81.4688 55H88.5C91.7812 55 94.5 57.7188 94.5 61V85C94.5 88.375 91.7812 91 88.5 91H52.5C49.125 91 46.5 88.375 46.5 85V61C46.5 57.7188 49.125 55 52.5 55H59.4375L60.4688 52.0938ZM70.5 64C67.2188 64 64.3125 65.7812 62.625 68.5C61.0312 71.3125 61.0312 74.7812 62.625 77.5C64.3125 80.3125 67.2188 82 70.5 82C73.6875 82 76.5938 80.3125 78.2812 77.5C79.875 74.7812 79.875 71.3125 78.2812 68.5C76.5938 65.7812 73.6875 64 70.5 64Z" fill="#383000"/>
<path opacity="0.4" d="M70.5 82C67.2188 82 64.3125 80.3125 62.625 77.5C61.0312 74.7812 61.0312 71.3125 62.625 68.5C64.3125 65.7812 67.2188 64 70.5 64C73.6875 64 76.5938 65.7812 78.2812 68.5C79.875 71.3125 79.875 74.7812 78.2812 77.5C76.5938 80.3125 73.6875 82 70.5 82Z" fill="#383000"/>
</svg>
