<svg width="205" height="221" viewBox="0 0 205 221" fill="none" xmlns="http://www.w3.org/2000/svg">
<g clip-path="url(#clip0_32587_8009)">
<path d="M43.4458 91.9938L33.8041 113.272C33.8041 113.272 34.6055 155.282 35.407 185.671C36.2084 216.048 38.6007 287.913 68.9467 313.607C99.3048 339.301 201.782 337.3 201.782 337.3C201.782 337.3 207.404 334.085 203.785 327.667C203.785 327.667 188.509 313.619 180.07 253.4C171.63 193.18 166.008 135.763 166.008 135.763C166.008 135.763 166.287 89.5433 144.708 79.1953C123.142 68.8474 43.4337 92.0059 43.4337 92.0059L43.4458 91.9938Z" fill="#002020"/>
<path d="M203.786 327.656C203.786 327.656 188.51 313.608 180.07 253.389C172.845 201.807 167.672 152.275 166.348 139.137C164.15 142.897 162.839 149.048 162.839 149.048C162.839 149.048 170.028 241.743 176.463 279.483C182.887 317.223 201.782 337.288 201.782 337.288C201.782 337.288 207.405 334.074 203.786 327.656Z" fill="#003737"/>
<path d="M66.5545 70.68C66.5545 70.68 73.1847 68.5207 73.5854 64.5052C73.5854 64.5052 69.0439 64.299 65.5952 61.4967C62.1465 58.6944 61.4179 53.0655 65.5952 48.0431C69.7725 43.0208 69.1653 38.4109 69.3717 33.7889C69.5782 29.1669 71.7882 24.3508 76.8034 20.7357C81.8186 17.1206 94.2897 17.7272 97.4955 19.7288C100.713 21.7305 103.883 29.361 102.996 38.9932C102.11 48.6254 99.7056 62.9767 106.53 66.0459C113.367 69.103 124.369 71.2259 124.369 71.2259C124.369 71.2259 84.0286 96.1193 66.5423 70.6679L66.5545 70.68Z" fill="#FFC4AB"/>
<path d="M100.981 40.4487C100.981 40.4487 103.992 34.7955 108.34 34.9896C112.675 35.1837 112.675 40.8248 111.74 43.2753C110.793 45.7258 105.328 52.5071 100.993 47.4242C96.6577 42.3412 100.993 40.4487 100.993 40.4487H100.981Z" fill="#FFC4AB"/>
<path d="M37.6777 118.635C37.6777 118.635 39.0135 138.979 47.8538 159.857C56.6941 180.734 60.7135 194.115 60.7135 194.115L110.549 188.765C110.549 188.765 111.618 148.089 120.725 125.598C129.833 103.107 148.582 125.598 151.8 130.414C155.018 135.23 158.285 146.173 147.307 157.042C140.592 163.69 147.635 182.154 170.416 167.184C181.867 159.662 186.554 142.327 183.603 128.412C181.102 116.597 167.878 85.4557 141.612 75.2776C115.358 65.1116 106.518 82.2409 81.5999 75.2776C81.5999 75.2776 69.8088 72.9241 53.7433 71.9658C37.6656 70.9953 22.1344 81.7071 10.8776 98.8365C-0.354963 115.954 -3.57293 134.684 4.46591 148.611C12.5047 162.525 31.7882 165.206 31.7882 165.206C31.7882 165.206 23.7494 147.01 24.818 137.377C25.8866 127.745 37.6777 118.647 37.6777 118.647V118.635Z" fill="#4CDADB"/>
<g style="mix-blend-mode:soft-light">
<path d="M38.2241 100.96C38.2241 100.96 36.9126 111.854 37.6898 118.623" stroke="black" stroke-width="0.5" stroke-miterlimit="10"/>
</g>
<path d="M81.6245 75.2773L52.2742 118.671L90.1369 117.7L51.5092 168.821L53.7921 174.499L130.453 104.053L96.8886 103.592L129.311 75.2773C129.311 75.2773 98.7708 83.3082 81.6245 75.2773Z" fill="#FAE366"/>
<path d="M111.011 179.642C111.011 179.642 121.806 264.755 123.409 296.344C125.012 327.934 113.233 318.29 108.412 296.344C103.591 274.399 97.7016 233.177 86.9791 214.98C86.9791 214.98 88.582 259.939 84.8419 293.663C81.0897 327.388 73.0508 310.793 71.4479 290.449C69.845 270.105 63.4091 208.987 56.7181 182.274C56.7181 182.274 90.5857 193.01 111.023 179.642H111.011Z" fill="#00696A"/>
<path d="M111.739 170.447L118.394 167.172" stroke="black" stroke-width="0.66" stroke-miterlimit="10"/>
<path d="M26.3479 137.341C26.3479 137.341 13.1118 129.128 1.2478 150.006C1.2478 150.006 11.1081 172.097 43.2392 178.308C43.2392 178.308 43.4456 186.339 51.278 187.746C59.1104 189.153 59.0497 189.202 59.3169 186.145L50.513 166.335C50.513 166.335 39.0255 161.045 26.3358 137.341H26.3479Z" fill="#008586"/>
<path d="M53.7917 174.499C53.7917 174.499 81.8913 185.939 111.387 174.499L112.14 188.68C112.14 188.68 82.9599 200.605 58.1755 188.68L53.7917 174.499Z" fill="#F09648"/>
<path d="M151.813 143.783C151.813 143.783 171.643 147.532 172.177 168.409C172.177 168.409 153.428 180.189 134.666 183.937C134.666 183.937 125 191.823 112.347 190.391C112.347 190.391 109.918 188.462 111.74 185.502C111.74 185.502 108.255 183.804 111.011 179.655C111.011 179.655 108.449 177.775 109.955 175.712C109.955 175.712 106.3 171.418 111.74 170.46L112.068 167.184C112.068 167.184 120.604 159.056 127.235 167.124C127.235 167.124 144.842 158.061 151.8 143.807L151.813 143.783Z" fill="#008586"/>
<g style="mix-blend-mode:soft-light">
<path d="M74.7874 205.008C74.7874 205.008 84.1134 209.351 86.9792 214.98" stroke="black" stroke-width="0.5" stroke-miterlimit="10"/>
</g>
<g style="mix-blend-mode:soft-light">
<path d="M59.3173 176.295L62.6445 190.561" stroke="black" stroke-width="0.5" stroke-miterlimit="10"/>
</g>
<g style="mix-blend-mode:soft-light">
<path d="M68.9466 178.393L71.4967 192.95" stroke="black" stroke-width="0.5" stroke-miterlimit="10"/>
</g>
<g style="mix-blend-mode:soft-light">
<path d="M80.8833 179.642L81.8183 194.102" stroke="black" stroke-width="0.5" stroke-miterlimit="10"/>
</g>
<g style="mix-blend-mode:soft-light">
<path d="M92.4077 179.084V193.411" stroke="black" stroke-width="0.5" stroke-miterlimit="10"/>
</g>
<g style="mix-blend-mode:soft-light">
<path d="M103.312 177.095L102.523 191.604" stroke="black" stroke-width="0.5" stroke-miterlimit="10"/>
</g>
<g style="mix-blend-mode:soft-light">
<path d="M109.955 175.699L109.554 189.868" stroke="black" stroke-width="0.5" stroke-miterlimit="10"/>
</g>
<path d="M81.6243 75.278C81.6243 75.278 89.8574 77.3525 100.507 67.9143C111.157 58.4762 115.37 61.2907 122.814 64.6996C130.246 68.1084 109.347 78.1288 97.7019 78.7354C86.0444 79.3541 81.6243 75.2659 81.6243 75.2659V75.278Z" fill="#003737"/>
<path d="M81.6243 75.2771C81.6243 75.2771 94.484 78.0673 108.752 69.5391C123.021 61.0108 129.262 61.678 140.458 71.1283C140.458 71.1283 125.413 78.0067 117.386 79.1227C109.347 80.2267 94.8847 82.8349 81.6243 75.2771Z" fill="#004F50"/>
<path d="M81.6243 75.2778C81.6243 75.2778 89.6631 84.7766 99.1106 85.7835C108.558 86.7904 123.822 82.3746 135.88 82.5687C147.939 82.7749 155.322 85.6258 159.973 87.4091C159.973 87.4091 152.492 71.0925 141.515 69.8188C117.435 67.0043 103.543 86.4507 81.6364 75.2778H81.6243Z" fill="#00696A"/>
<path d="M81.6242 75.2778C81.6242 75.2778 75.5647 73.7735 69.566 68.7148C63.7372 63.8016 57.5077 66.3977 50.6225 70.8256C42.7051 75.9086 81.6242 75.2778 81.6242 75.2778Z" fill="#003737"/>
<path d="M81.6243 75.2779C81.6243 75.2779 67.951 73.2884 59.3172 68.3146C49.554 62.6978 43.6281 65.2818 32.0677 79.1114C32.0677 79.1114 40.3615 75.5205 55.2249 77.1461C70.3675 78.8081 81.6243 75.2779 81.6243 75.2779Z" fill="#004F50"/>
<path d="M81.6244 75.2772C81.6244 75.2772 73.3913 81.5491 57.9086 79.7536C42.4259 77.9582 30.5984 81.913 18.5402 88.9127C18.5402 88.9127 25.7533 68.326 41.3088 69.5513C55.6014 70.6673 61.928 76.5631 81.6122 75.2893L81.6244 75.2772Z" fill="#00696A"/>
<g style="mix-blend-mode:soft-light">
<path d="M106.251 40.0485C107.489 39.0295 108.57 38.6534 108.594 38.6534L108.364 37.8528C108.194 37.9013 104.211 39.2357 102.547 44.1004L103.276 44.3794C103.749 42.9843 104.441 41.9046 105.17 41.0797C106.433 40.2305 108.182 42.0502 108.194 42.0745L108.74 41.4922C108.679 41.4194 107.538 40.2305 106.239 40.0485H106.251Z" fill="#21061C"/>
</g>
<path d="M102.997 21.6088C102.997 21.6088 107.745 19.1947 109.748 21.6088C111.752 24.0229 111.448 30.0279 107.72 34.9896C107.72 34.9896 103.446 37.0519 101.843 40.3031C101.843 40.3031 101.964 43.2995 100.507 43.5664C99.0621 43.8333 99.05 38.4834 99.05 38.4834C99.05 38.4834 97.4228 41.0309 97.4228 37.9496C97.4228 34.8683 99.8393 25.2361 95.9534 25.503C95.9534 25.503 94.2169 21.8878 89.7968 22.2882C85.3767 22.6885 80.1915 25.5394 73.3427 23.9138C73.3427 23.9138 71.5455 26.061 70.8776 27.6987C70.8776 27.6987 60.1915 26.1823 59.5237 13.3353C58.8436 0.464077 72.2377 -3.01759 78.6736 4.21263C85.0974 11.4429 83.628 13.5779 90.1975 12.2435C96.767 10.9091 99.0621 10.0963 102.997 21.6088Z" fill="#6E3B36"/>
<g style="mix-blend-mode:soft-light">
<path d="M66.7487 19.4739C66.7487 19.4739 68.8009 22.725 73.3303 23.9018" stroke="black" stroke-width="0.5" stroke-miterlimit="10"/>
</g>
<g style="mix-blend-mode:soft-light">
<path d="M73.5854 64.4924C73.5854 64.4924 79.8756 65.5357 86.1779 63.5461" stroke="#21061C" stroke-width="0.63" stroke-miterlimit="10"/>
</g>
<path d="M83.4094 43.6394C85.2188 42.2807 85.9838 42.499 87.0281 42.9236C88.0724 43.3603 89.6753 45.2649 88.5946 47.861C87.5138 50.4571 84.4295 52.1676 82.0737 52.204C79.1107 52.2404 77.1192 51.1243 76.2449 49.6565C75.3706 48.1886 75.9292 45.8109 77.8842 45.5925C81.5151 45.1922 81.6122 44.9981 83.4216 43.6394H83.4094Z" fill="#F8F8F8"/>
<path d="M85.6922 32.1386C85.1458 32.3691 84.9879 33.2425 84.9151 33.8612C84.8301 34.5405 84.7451 35.414 84.8543 36.0812C85.0122 36.9911 86.0565 37.1852 86.3723 36.2389C86.6515 35.414 87.1737 31.5199 85.6801 32.1386H85.6922Z" fill="#5C1723"/>
<path d="M76.2568 31.9939C75.6254 32.2001 75.4554 32.9159 75.3218 33.6195C75.1882 34.3352 75.0547 35.2572 75.1397 35.9729C75.2611 36.9556 76.3297 36.992 76.6576 36.1307C76.9369 35.4149 77.0583 34.3595 77.0704 33.5831C77.0704 33.0372 76.9733 31.7634 76.2568 31.9939Z" fill="#5C1723"/>
<g style="mix-blend-mode:soft-light">
<path d="M80.2889 32.2352C80.2889 32.2352 80.3011 33.8366 80.1553 34.8071C79.9246 36.3356 78.601 38.0097 78.0303 38.8346C77.4595 39.6595 76.6702 40.5087 77.3381 41.7461C77.7874 42.5953 78.346 43.2019 78.346 43.2019" stroke="#21061C" stroke-width="0.63" stroke-miterlimit="10"/>
</g>
<path d="M90.2826 30.7795C90.8048 29.7241 89.8941 28.3896 89.0076 27.8437C88.3883 27.4677 87.599 27.3221 86.8583 27.4555C85.8382 27.6375 85.1461 28.2198 84.6603 29.0569C84.3082 29.6756 85.0975 30.1608 85.6439 29.9667C86.4575 29.6877 87.3318 29.0811 88.1576 29.5057C88.7647 29.8211 89.0805 30.4156 89.5298 30.8887C89.7484 31.1192 90.1248 31.0585 90.2705 30.7674L90.2826 30.7795Z" fill="#6E3B36"/>
<path d="M73.549 29.9796C74.1197 29.555 74.5569 28.9848 75.2612 28.7543C76.1962 28.451 76.9855 29.1911 77.7506 29.5793C78.382 29.8947 78.9285 29.1183 78.7463 28.5966C78.2242 27.0681 76.3541 26.3402 74.7633 27.0074C73.7797 27.4199 72.5775 28.633 72.8568 29.7248C72.9297 30.0281 73.2697 30.1858 73.549 29.9796Z" fill="#6E3B36"/>
<path d="M79.7662 47.9945L88.8494 45.265" stroke="#E6DDDD" stroke-width="0.5" stroke-miterlimit="10"/>
</g>
<defs>
<clipPath id="clip0_32587_8009">
<rect width="205" height="220" fill="white" transform="translate(0 0.5)"/>
</clipPath>
</defs>
</svg>
