<svg width="166" height="295" viewBox="0 0 166 295" fill="none" xmlns="http://www.w3.org/2000/svg">
<path d="M130.226 74.0859L137.956 91.1212C137.956 91.1212 137.313 124.755 136.671 149.084C136.028 173.404 134.11 230.939 109.783 251.51C85.4466 272.08 3.2953 270.478 3.2953 270.478C3.2953 270.478 -1.21188 267.904 1.68906 262.766C1.68906 262.766 13.9353 251.519 20.701 203.308C27.4666 155.096 31.9738 109.128 31.9738 109.128C31.9738 109.128 31.7499 72.124 49.0485 63.8395C66.3373 55.5549 130.236 74.0956 130.236 74.0956L130.226 74.0859Z" fill="#002020"/>
<path d="M1.68855 262.755C1.68855 262.755 13.9348 251.508 20.7005 203.296C26.4926 162 30.6396 122.344 31.7007 111.826C33.4627 114.837 34.514 119.761 34.514 119.761C34.514 119.761 28.7511 193.972 23.5917 224.187C18.442 254.402 3.29479 270.466 3.29479 270.466C3.29479 270.466 -1.2124 267.892 1.68855 262.755Z" fill="#003737"/>
<path d="M111.701 57.0164C111.701 57.0164 106.386 55.2876 106.064 52.0728C106.064 52.0728 109.705 51.9077 112.47 49.6642C115.234 47.4206 115.818 42.9141 112.47 38.8933C109.121 34.8724 109.608 31.1817 109.442 27.4814C109.277 23.781 107.505 19.9252 103.485 17.031C99.4641 14.1367 89.4666 14.6223 86.8966 16.2248C84.3169 17.8274 81.7761 23.9364 82.4868 31.6479C83.1974 39.3595 85.1249 50.8491 79.654 53.3063C74.1733 55.7538 65.3537 57.4534 65.3537 57.4534C65.3537 57.4534 97.6924 77.383 111.71 57.0066L111.701 57.0164Z" fill="#FFC4AB"/>
<path d="M84.1028 32.8166C84.1028 32.8166 81.6886 28.2907 78.2035 28.4461C74.7283 28.6014 74.7283 33.1176 75.4778 35.0795C76.2371 37.0414 80.6178 42.4706 84.0931 38.4011C87.5684 34.3317 84.0931 32.8166 84.0931 32.8166H84.1028Z" fill="#FFC4AB"/>
<path d="M134.85 95.4101C134.85 95.4101 133.78 111.698 126.693 128.412C119.606 145.127 116.384 155.84 116.384 155.84L76.4324 151.557C76.4324 151.557 75.5757 118.991 68.2747 100.985C60.9736 82.9784 65.6356 110.416 65.6356 110.416C65.6356 110.416 70.9966 129.955 69.1356 134.239C61.9966 144.282 56.2403 146.239 49.1356 136.739C42.2403 122.739 43.6356 126.739 40.1356 103.739C40.1356 91.7385 30.4747 68.847 51.5309 60.6985C72.5774 52.5596 79.6643 66.2733 99.64 60.6985C99.64 60.6985 109.092 58.8143 121.971 58.047C134.86 57.27 147.311 65.846 156.335 79.5597C165.34 93.2637 167.919 108.259 161.475 119.409C155.031 130.549 138.636 135.239 138.636 135.239C138.636 135.239 146.016 118.127 145.16 110.416C144.303 102.704 134.85 95.4198 134.85 95.4198V95.4101Z" fill="#4CDADB"/>
<g style="mix-blend-mode:soft-light">
<path d="M134.412 81.2651C134.412 81.2651 135.464 89.9868 134.841 95.4062" stroke="black" stroke-width="0.5" stroke-miterlimit="10"/>
</g>
<path d="M99.6196 60.698L123.148 95.4388L92.7956 94.6618L123.762 135.589L121.932 140.135L60.4763 83.7355L87.3831 83.3664L61.3914 60.698C61.3914 60.698 85.8742 67.1275 99.6196 60.698Z" fill="#FAE366"/>
<path d="M62.5789 231.426C62.5789 231.426 76.1101 230.144 81.7465 234.155C81.7465 234.155 75.3021 241.546 71.4375 242.507C67.5728 243.469 62.5789 231.416 62.5789 231.416V231.426Z" fill="#00A1A2"/>
<path d="M92.7969 229.723C92.7969 229.723 105.939 226.256 112.159 229.296C112.159 229.296 107.01 237.639 103.359 239.222C99.6989 240.805 92.8067 229.723 92.8067 229.723H92.7969Z" fill="#00A1A2"/>
<path d="M76.0614 144.254C76.0614 144.254 67.4072 212.395 66.1222 237.686C64.8373 262.976 74.2799 255.255 78.1446 237.686C82.0093 220.116 86.7306 187.114 95.3264 172.545C95.3264 172.545 94.0414 208.539 97.0397 235.539C100.048 262.539 106.492 249.253 107.777 232.965C109.062 216.678 114.221 167.748 119.585 146.361C119.585 146.361 92.4352 154.957 76.0517 144.254H76.0614Z" fill="#00696A"/>
<path d="M75.4777 136.892L70.143 134.27" stroke="black" stroke-width="0.66" stroke-miterlimit="10"/>
<path d="M121.932 140.137C121.932 140.137 99.4056 149.296 75.76 140.137L75.1564 151.491C75.1564 151.491 98.549 161.038 118.418 151.491L121.932 140.137Z" fill="#F09648"/>
<path d="M145.066 109.988C145.066 109.988 152.348 124.434 139.337 134.936C139.337 134.936 122.712 128.735 111.185 118.618C111.185 118.618 103.645 113.524 96.2054 107.553C88.7653 101.582 86.5419 92.2707 99.0172 104.787C99.0172 104.787 82.5608 84.272 102.379 101.477C102.379 101.477 86.6357 80.7385 104.37 98.886C104.37 98.886 93.5608 76.772 109.561 99.272C109.561 99.272 108.617 94.7757 109.276 93.2373C110.354 90.7178 112.875 98.522 118.251 105.704C118.251 105.704 129.929 109.264 145.767 111.707L145.066 109.988Z" fill="#008586"/>
<g style="mix-blend-mode:soft-light">
<path d="M105.101 164.561C105.101 164.561 97.6246 168.038 95.3272 172.545" stroke="black" stroke-width="0.5" stroke-miterlimit="10"/>
</g>
<g style="mix-blend-mode:soft-light">
<path d="M101.557 208.433L103.484 211.978" stroke="black" stroke-width="0.5" stroke-miterlimit="10"/>
</g>
<g style="mix-blend-mode:soft-light">
<path d="M80.4808 207.588C80.4808 207.588 79.595 209.248 78.4365 210.54" stroke="black" stroke-width="0.5" stroke-miterlimit="10"/>
</g>
<g style="mix-blend-mode:soft-light">
<path d="M72.2754 206.425C72.2754 206.425 72.6648 208.27 73.4144 209.834" stroke="black" stroke-width="0.5" stroke-miterlimit="10"/>
</g>
<path d="M81.746 234.151C81.746 234.151 72.2742 236.89 62.5784 231.422L64.0288 273.048C64.0288 273.048 68.4192 286.063 92.8047 294.105C92.8047 294.105 82.554 280.022 74.4547 270.863C74.4547 270.863 79.1663 244.29 81.746 234.16V234.151Z" fill="#4CDADB"/>
<path d="M112.158 229.297C112.158 229.297 103.26 233.541 92.7954 229.724L102.472 271.156C102.472 271.156 108.965 279.956 135.219 284.938C135.219 284.938 121.649 272.565 112.158 264.853C112.158 264.853 111.272 239.708 112.158 229.306V229.297Z" fill="#4CDADB"/>
<g style="mix-blend-mode:soft-light">
<path d="M117.502 141.575L114.835 152.997" stroke="black" stroke-width="0.5" stroke-miterlimit="10"/>
</g>
<g style="mix-blend-mode:soft-light">
<path d="M109.782 143.253L107.738 154.908" stroke="black" stroke-width="0.5" stroke-miterlimit="10"/>
</g>
<g style="mix-blend-mode:soft-light">
<path d="M100.214 144.254L99.4644 155.831" stroke="black" stroke-width="0.5" stroke-miterlimit="10"/>
</g>
<g style="mix-blend-mode:soft-light">
<path d="M90.9745 143.805V155.275" stroke="black" stroke-width="0.5" stroke-miterlimit="10"/>
</g>
<g style="mix-blend-mode:soft-light">
<path d="M82.2331 142.215L82.8659 153.83" stroke="black" stroke-width="0.5" stroke-miterlimit="10"/>
</g>
<g style="mix-blend-mode:soft-light">
<path d="M76.9085 141.098L77.2297 152.442" stroke="black" stroke-width="0.5" stroke-miterlimit="10"/>
</g>
<path d="M99.6201 60.7025C99.6201 60.7025 93.02 62.3633 84.4826 54.8072C75.9453 47.251 72.5673 49.5043 66.5999 52.2334C60.6423 54.9625 77.3957 62.9849 86.7313 63.4705C96.0767 63.9658 99.6201 60.6928 99.6201 60.6928V60.7025Z" fill="#003737"/>
<path d="M99.6201 60.6981C99.6201 60.6981 89.311 62.9319 77.8727 56.1042C66.4344 49.2765 61.4308 49.8107 52.4554 57.3765C52.4554 57.3765 64.5167 62.8834 70.9514 63.7769C77.3957 64.6607 88.9898 66.7489 99.6201 60.6981Z" fill="#004F50"/>
<path d="M99.6201 60.7005C99.6201 60.7005 93.1757 68.3053 85.6021 69.1114C78.0285 69.9175 65.7919 66.3822 56.1254 66.5376C46.4588 66.7027 43.7285 70.0721 40.0001 71.4998C40.0001 71.4998 42.8083 57.3498 51.6085 56.33C70.9124 54.0768 82.0489 69.6455 99.6104 60.7005H99.6201Z" fill="#00696A"/>
<path d="M99.6199 60.7025C99.6199 60.7025 104.478 59.4981 109.286 55.4481C113.959 51.5147 118.953 53.5931 124.473 57.1381C130.82 61.2075 99.6199 60.7025 99.6199 60.7025Z" fill="#003737"/>
<path d="M99.62 60.7014C99.62 60.7014 110.581 59.1086 117.503 55.1266C125.329 50.6298 130.08 52.6985 139.347 63.7705C139.347 63.7705 132.699 60.8957 120.783 62.1971C108.644 63.5277 99.62 60.7014 99.62 60.7014Z" fill="#004F50"/>
<path d="M99.619 60.7003C99.619 60.7003 106.219 65.7215 118.631 64.2841C131.043 62.8467 140.524 66.0129 150.191 71.6169C150.191 71.6169 144.408 55.1351 131.938 56.1161C120.481 57.0096 115.409 61.7298 99.6288 60.71L99.619 60.7003Z" fill="#00696A"/>
<g style="mix-blend-mode:soft-light">
<path d="M79.8776 32.4972C78.8846 31.6813 78.0183 31.3803 77.9988 31.3803L78.1837 30.7393C78.32 30.7781 81.513 31.8465 82.8467 35.7411L82.2626 35.9645C81.8829 34.8475 81.3281 33.9832 80.744 33.3227C79.7316 32.6429 78.3298 34.0997 78.32 34.1191L77.882 33.6529C77.9306 33.5947 78.8457 32.6429 79.8873 32.4972H79.8776Z" fill="#21061C"/>
</g>
<path d="M97.1355 40.71C98.4688 39.8767 101.835 38.81 104.635 41.21" stroke="#DF8B6E" stroke-linecap="round"/>
<path d="M82.4853 17.7332C82.4853 17.7332 78.679 15.8005 77.0728 17.7332C75.4665 19.666 75.7099 24.4735 78.6985 28.4458C78.6985 28.4458 82.1251 30.0969 83.4101 32.6998C83.4101 32.6998 83.3127 35.0988 84.4809 35.3124C85.6393 35.5261 85.6491 31.243 85.6491 31.243C85.6491 31.243 86.9535 33.2826 86.9535 30.8156C86.9535 28.3487 85.0163 20.6372 88.1314 20.8509C88.1314 20.8509 89.5235 17.9566 93.0669 18.2771C96.6104 18.5976 100.767 20.88 106.257 19.5785C106.257 19.5785 107.698 21.2976 108.234 22.6088C108.234 22.6088 116.8 21.3947 117.336 11.1095C117.881 0.804737 107.143 -1.98268 101.984 3.80583C96.8343 9.59434 98.0122 11.3037 92.7457 10.2353C87.4792 9.167 85.6393 8.51627 82.4853 17.7332Z" fill="#6E3B36"/>
<g style="mix-blend-mode:soft-light">
<path d="M111.545 16.022C111.545 16.022 109.899 18.6249 106.268 19.5669" stroke="black" stroke-width="0.5" stroke-miterlimit="10"/>
</g>
<g style="mix-blend-mode:soft-light">
<path d="M106.064 52.0657C106.064 52.0657 101.022 52.9009 95.9694 51.3081" stroke="#21061C" stroke-width="0.63" stroke-miterlimit="10"/>
</g>
<path d="M96.3581 26.1659C96.7962 26.3504 96.9227 27.0497 96.9811 27.545C97.0493 28.0889 97.1174 28.7882 97.0298 29.3224C96.9033 30.0508 96.0661 30.2062 95.813 29.4486C95.5891 28.7882 95.1705 25.6705 96.3679 26.1659H96.3581Z" fill="#5C1723"/>
<path d="M103.922 26.0489C104.429 26.2141 104.565 26.7871 104.672 27.3504C104.779 27.9234 104.886 28.6615 104.818 29.2346C104.721 30.0213 103.864 30.0504 103.601 29.3608C103.377 28.7878 103.28 27.9428 103.27 27.3213C103.27 26.8842 103.348 25.8644 103.922 26.0489Z" fill="#5C1723"/>
<path d="M100.691 26.2407C100.691 26.2407 100.681 27.5227 100.798 28.2997C100.983 29.5235 102.044 30.8638 102.502 31.5242C102.959 32.1846 103.592 32.8645 103.056 33.8551C102.696 34.535 102.248 35.0206 102.248 35.0206" stroke="#DF8B6E" stroke-width="0.63" stroke-miterlimit="10"/>
<path d="M93.3911 25.8814C92.6615 25.284 92.8864 24.0098 93.3538 23.3187C93.682 22.8397 94.2105 22.4728 94.7956 22.3254C95.6007 22.1211 96.2984 22.3172 96.9294 22.7673C97.3907 23.1023 96.9743 23.717 96.5111 23.7559C95.8248 23.8212 94.9861 23.6676 94.523 24.2502C94.1836 24.6808 94.1491 25.2187 93.9771 25.7123C93.8935 25.9527 93.5985 26.0328 93.396 25.8685L93.3911 25.8814Z" fill="#6E3B36"/>
<path d="M105.672 24.8889C105.328 24.4348 105.119 23.8987 104.628 23.5639C103.976 23.1216 103.203 23.5139 102.527 23.6412C101.971 23.7425 101.724 23.0233 101.98 22.663C102.724 21.6047 104.326 21.4635 105.402 22.3323C106.067 22.8694 106.721 24.071 106.262 24.8479C106.138 25.0647 105.841 25.1099 105.672 24.8889Z" fill="#6E3B36"/>
</svg>
