<svg width="240" height="240" viewBox="0 0 240 240" fill="none" xmlns="http://www.w3.org/2000/svg">
<circle cx="120" cy="119" r="105" fill="#F9EDFF"/>
<path d="M150.935 88.0366L164.476 188.663C164.476 188.663 124.65 209.903 80.5759 186.539C80.5759 186.539 53.4945 183.087 40.086 168.22L94.8685 86.7096L150.935 88.0366Z" fill="#6768E6"/>
<path d="M97.0384 100.051C97.0384 100.051 48.4512 41.1381 40.0879 31.3665L48.8495 26.1128L99.428 79.0041C99.428 79.0041 113.326 77.2837 125.891 77.2837C125.891 77.2837 141.909 78.6107 150.935 82.461C159.963 86.3113 180.804 102.242 181.601 111.534C182.397 120.826 165.006 136.89 143.368 144.855L172.906 225.236L196.204 239.766H161.048L127.107 165.365L116.752 166.56L112.57 239.766H76.13L96.2419 223.842L97.0384 100.051ZM148.214 130.218C148.214 130.218 161.954 119.564 168.127 113.143L147.676 95.3836L144.729 129.42L148.214 130.218Z" fill="#070904"/>
<path d="M149.154 213.995L166.677 207.092L172.906 225.236L196.204 239.766H161.048L149.154 213.995Z" fill="#FBC30C"/>
<path d="M96.2434 223.842L96.3167 208.597C101.766 209.352 109.897 210.131 114.64 210.809L112.572 239.766H76.1315L96.2434 223.842Z" fill="#FBC30C"/>
<path d="M96.8785 133.305H148.413L150.935 139.279L96.8451 140.286L96.8785 133.305Z" fill="#3BC493"/>
<path d="M96.8456 140.286L110.781 140.026L111.275 133.305H115.361V139.94L125.909 139.744L127.107 133.305H131.089L130.686 139.655L144.423 139.4L143.368 144.855L127.107 165.365L116.752 166.56L96.8456 144.456V140.286Z" fill="#FBC30C"/>
<path d="M122.26 113.791C117.641 113.791 113.896 110.047 113.896 105.428C113.896 100.809 117.641 97.0642 122.26 97.0642C126.879 97.0642 130.623 100.809 130.623 105.428C130.623 110.047 126.879 113.791 122.26 113.791Z" fill="#FBC30C"/>
<path d="M144.43 134.832C144.43 134.832 137.792 135.163 137.727 133.505C137.66 131.845 144.43 131.713 144.43 131.713L144.73 129.422L148.215 130.219C148.215 130.219 149.26 129.408 150.874 128.122C153.807 131.326 156.289 135.025 158.036 137.913C153.52 140.556 148.569 142.94 143.369 144.855C143.369 144.855 140.116 144.922 139.519 143.86C138.921 142.797 144.422 139.401 144.422 139.401C144.422 139.401 137.926 140.541 137.328 138.881C136.729 137.221 144.43 134.832 144.43 134.832Z" fill="#3BC493"/>
<path d="M48.8486 26.1128L57.873 35.5498L49.5639 42.6722C45.2292 37.463 41.8026 33.3705 40.087 31.3649L48.8486 26.1128Z" fill="#3BC493"/>
<path d="M158.462 51.1088C158.462 51.1088 162.678 62.7585 150.433 62.8573C150.433 62.8573 148.54 74.7061 138.884 68.7323C138.884 68.7323 133.507 75.603 127.632 71.1218L117.177 70.1262C117.177 70.1262 106.026 74.9053 101.446 64.9489C101.446 64.9489 93.9061 66.0911 93.4808 58.6756C93.4808 58.6756 85.8024 58.3761 89.194 48.5201L116.877 44.9358L157.998 47.8239L158.462 51.1088Z" fill="black"/>
<path d="M123.252 83.7656C126.661 83.7656 129.425 81.0018 129.425 77.5927V53.8965C129.425 50.4875 126.661 47.7236 123.252 47.7236C119.843 47.7236 117.079 50.4875 117.079 53.8965V77.5927C117.079 81.0018 119.843 83.7656 123.252 83.7656Z" fill="#BA7948"/>
<path d="M89.1961 30.3167C91.3881 13.2173 105.987 0 123.682 0C142.891 0 158.462 15.5718 158.462 34.7804C158.462 34.8234 158.459 34.8664 158.459 34.9094C159.44 34.5733 160.489 34.3821 161.585 34.3821C166.918 34.3821 171.243 38.7056 171.243 44.0406C171.243 49.374 166.92 53.6991 161.585 53.6991C158.835 53.6991 156.361 52.5457 154.602 50.701C148.825 61.8999 137.152 69.5624 123.682 69.5624C109.681 69.5624 97.62 61.285 92.105 49.3612C91.4375 49.5078 90.7461 49.5891 90.034 49.5891C84.7006 49.5891 80.3755 45.2656 80.3755 39.9306C80.3771 34.8807 84.2562 30.7421 89.1961 30.3167Z" fill="#BA7948"/>
<path d="M50.4435 21.3957C52.7311 24.7554 51.788 28.6137 45.7138 32.5962C39.6396 36.5788 37.0016 35.932 34.9609 33.7416C32.9202 31.5512 30.7792 27.4683 32.9696 23.1385C35.16 18.807 39.0932 15.8201 44.022 16.6166C48.0316 17.265 48.8505 19.0556 50.4435 21.3957Z" fill="#3BC493"/>
<path d="M89.1957 30.3167C91.3877 13.2173 105.986 0 123.681 0C142.89 0 158.462 15.5718 158.462 34.7804C158.462 34.8234 158.459 34.8664 158.459 34.9094C158.459 34.9094 115.275 54.3283 89.1957 30.3167Z" fill="#3BC493"/>
<path d="M139.391 38.5781C137.632 38.5781 136.205 37.1517 136.205 35.3921C136.205 33.6325 137.632 32.2061 139.391 32.2061C141.151 32.2061 142.577 33.6325 142.577 35.3921C142.577 37.1517 141.151 38.5781 139.391 38.5781Z" fill="black"/>
<path d="M108.132 36.786C106.373 36.786 104.946 35.3596 104.946 33.6C104.946 31.8404 106.373 30.4139 108.132 30.4139C109.892 30.4139 111.318 31.8404 111.318 33.6C111.318 35.3596 109.892 36.786 108.132 36.786Z" fill="black"/>
<path d="M145.568 29.0758C145.452 31.983 132.891 31.0208 133.222 28.4561C133.554 25.8897 145.7 25.7559 145.568 29.0758Z" fill="black"/>
<path d="M114.307 27.6836C114.19 30.5908 101.629 29.6286 101.961 27.0639C102.294 24.4975 114.44 24.3637 114.307 27.6836Z" fill="black"/>
<path d="M122.555 53.6974L108.616 47.8224C108.616 47.8224 106.325 56.2861 111.703 58.6756C117.081 61.0651 121.559 56.3864 122.555 53.6974Z" fill="#F6F8F7"/>
<path d="M124.844 43.0115C124.844 43.0115 129.026 44.7367 124.446 46.8618" stroke="#84583A" stroke-width="1.70019" stroke-miterlimit="10" stroke-linecap="round" stroke-linejoin="round"/>
<path d="M48.601 21.3958C48.8001 21.246 51.29 18.06 52.9818 20.0513C54.6736 22.0426 54.9731 26.6718 52.9818 30.3071C50.9905 33.9408 46.4106 26.8726 46.4106 26.7228C46.4106 26.5731 48.601 21.3958 48.601 21.3958Z" fill="#3BC493"/>
</svg>
