<svg width="51" height="41" viewBox="0 0 51 41" fill="none" xmlns="http://www.w3.org/2000/svg">
<g clip-path="url(#clip0_3444_799)">
<path d="M25.5 0C26.5598 0 27.4125 0.86084 27.4125 1.92188V3.84375H29.9625C31.0223 3.84375 31.875 4.70459 31.875 5.76562C31.875 6.82666 31.0223 7.6875 29.9625 7.6875H27.4125V11.4031L36.3933 16.8164C37.5487 17.5131 38.25 18.7623 38.25 20.1156V41H30.6V33.3125C30.6 30.4857 28.313 28.1875 25.5 28.1875C22.687 28.1875 20.4 30.4857 20.4 33.3125V41H12.75V20.1156C12.75 18.7623 13.4513 17.5131 14.6067 16.8164L23.5875 11.4031V7.6875H21.0375C19.9777 7.6875 19.125 6.82666 19.125 5.76562C19.125 4.70459 19.9777 3.84375 21.0375 3.84375H23.5875V1.92188C23.5875 0.86084 24.4402 0 25.5 0Z" fill="#003920"/>
<path opacity="0.4" d="M12.75 41H3.825C1.71248 41 0 39.2783 0 37.1562V29.8211C0 28.4197 0.759422 27.1305 1.98183 26.4498L12.75 20.5V41ZM38.25 20.5L49.0158 26.4498C50.243 27.1305 51 28.4197 51 29.8211V37.1562C51 39.2783 49.2867 41 47.175 41H38.25V20.5Z" fill="#003920"/>
</g>
<defs>
<clipPath id="clip0_3444_799">
<rect width="51" height="41" fill="white"/>
</clipPath>
</defs>
</svg>
