<svg width="141" height="140" viewBox="0 0 141 140" fill="none" xmlns="http://www.w3.org/2000/svg">
<path d="M14.75 70C14.75 84.8521 20.65 99.0959 31.152 109.598C41.6541 120.1 55.8979 126 70.75 126C85.6021 126 99.8459 120.1 110.348 109.598C120.85 99.0959 126.75 84.8521 126.75 70C126.75 55.1479 120.85 40.9041 110.348 30.402C99.8459 19.9 85.6021 14 70.75 14C55.8979 14 41.6541 19.9 31.152 30.402C20.65 40.9041 14.75 55.1479 14.75 70Z" fill="#40C181"/>
<path d="M85.75 58V79C85.75 80.6875 84.3438 82 82.75 82C81.0625 82 79.75 80.6875 79.75 79V65.3125L60.8125 84.1562C59.6875 85.375 57.7188 85.375 56.5938 84.1562C55.375 83.0312 55.375 81.0625 56.5938 79.9375L75.4375 61H61.75C60.0625 61 58.75 59.6875 58.75 58C58.75 56.4062 60.0625 55 61.75 55H82.75C84.3438 55 85.75 56.4062 85.75 58Z" fill="white"/>
</svg>
