<svg width="617" height="231" viewBox="0 0 617 231" fill="none" xmlns="http://www.w3.org/2000/svg">
<path d="M216.61 0V229.78H173.1V11.58L216.61 0Z" fill="#431573"/>
<path d="M256.629 27.83V229.78H216.609V0L218.929 1.61L221.179 3.16L225.559 6.23L227.799 7.79L232.199 10.84L234.429 12.4L238.819 15.45L241.049 16.99L245.439 20.06L247.689 21.62L252.069 24.67L254.309 26.23L256.629 27.83Z" fill="#744AA5"/>
<path d="M221.17 3.16999V229.77H218.93V1.60999L221.17 3.16999Z" fill="#C497F9"/>
<path d="M227.8 7.77998V229.77H225.56V6.22998L227.8 7.77998Z" fill="#431573"/>
<path d="M234.439 12.4V229.77H232.189V10.84L234.439 12.4Z" fill="#C497F9"/>
<path d="M241.049 17.0001V229.77H238.819V15.4501L241.049 17.0001Z" fill="#431573"/>
<path d="M247.679 21.6099V229.77H245.439V20.0599L247.679 21.6099Z" fill="#C497F9"/>
<path d="M254.309 26.23V229.77H252.069V24.67L254.309 26.23Z" fill="#431573"/>
<g style="mix-blend-mode:multiply" opacity="0.25">
<path d="M256.63 71.36V229.78H173.1V106.65L216.61 88.27L256.63 71.36Z" fill="#744AA5"/>
</g>
<path d="M318.06 89.49H289.95V24.82L318.06 2.13V89.49Z" fill="#F9EDFF"/>
<path d="M339.781 12.22L318.061 2.13V89.49H339.781V12.22Z" fill="#8E63C0"/>
<path d="M307.47 36.01V183.76H265.58V43.46L307.47 36.01Z" fill="#F9EDFF"/>
<path d="M302.08 45.0701V49.8901L270.97 55.4301V50.6101L302.08 45.0701Z" fill="#8E63C0"/>
<path d="M302.08 53.52V58.34L270.97 63.5V58.67L302.08 53.52Z" fill="#8E63C0"/>
<path d="M302.08 61.95V66.7799L270.97 71.57V66.76L302.08 61.95Z" fill="#8E63C0"/>
<path d="M270.97 74.8299L302.08 70.4099V75.2399L270.97 79.6499V74.8299Z" fill="#8E63C0"/>
<path d="M302.08 78.8501V83.6701L270.97 87.7201V82.9001L302.08 78.8501Z" fill="#8E63C0"/>
<path d="M302.08 87.3V92.12L270.97 95.8V90.98L302.08 87.3Z" fill="#A87DDC"/>
<path d="M302.08 95.74V100.56L270.97 103.87V99.05L302.08 95.74Z" fill="#A87DDC"/>
<path d="M302.08 104.17V109L270.97 111.96V107.14L302.08 104.17Z" fill="#A87DDC"/>
<path d="M302.08 112.62V117.45L270.97 120.03V115.2L302.08 112.62Z" fill="#A87DDC"/>
<path d="M302.08 121.06V125.88L270.97 128.1V123.28L302.08 121.06Z" fill="#A87DDC"/>
<path d="M302.08 129.51V134.33L270.97 136.18V131.35L302.08 129.51Z" fill="#A87DDC"/>
<path d="M302.08 137.96V142.77L270.97 144.25V139.43L302.08 137.96Z" fill="#A87DDC"/>
<path d="M302.08 146.41V151.23L270.97 152.33V147.5L302.08 146.41Z" fill="#A87DDC"/>
<path d="M302.08 154.84V159.67L270.97 160.4V155.58L302.08 154.84Z" fill="#A87DDC"/>
<path d="M302.08 163.29V168.12L270.97 168.48V163.65L302.08 163.29Z" fill="#A87DDC"/>
<path d="M302.08 171.73H270.97V176.55H302.08V171.73Z" fill="#A87DDC"/>
<path d="M339.85 51.05V183.76H307.47V36.01L339.85 51.05Z" fill="#8E63C0"/>
<path d="M270.97 50.61L277.5 49.45V54.27L270.97 55.43V50.61Z" fill="#5B318B"/>
<path d="M302.07 45.0599V49.8999L285.91 52.7799V47.9499L302.07 45.0599Z" fill="#5B318B"/>
<path d="M270.97 58.68L277.5 57.6V62.41L270.97 63.5V58.68Z" fill="#5B318B"/>
<path d="M302.07 53.5099V58.3399L285.91 61.0199V56.1899L302.07 53.5099Z" fill="#5B318B"/>
<path d="M270.97 66.7599L277.5 65.7599V70.5699L270.97 71.5699V66.7599Z" fill="#5B318B"/>
<path d="M302.07 61.9498V66.7698L285.91 69.2598V64.4398L302.07 61.9498Z" fill="#5B318B"/>
<path d="M270.97 74.8199L277.5 73.8999V78.7299L270.97 79.6499V74.8199Z" fill="#5B318B"/>
<path d="M302.07 70.41V75.24L285.91 77.53V72.7L302.07 70.41Z" fill="#5B318B"/>
<path d="M270.97 82.8999L277.5 82.0499V86.8599L270.97 87.7199V82.8999Z" fill="#5B318B"/>
<path d="M302.07 78.85V83.67L285.91 85.77V80.95L302.07 78.85Z" fill="#5B318B"/>
<path d="M270.97 90.98L277.5 90.21V95.02L270.97 95.8V90.98Z" fill="#5B318B"/>
<path d="M302.07 87.2999V92.1299L285.91 94.0399V89.2099L302.07 87.2999Z" fill="#5B318B"/>
<path d="M270.97 99.06L277.5 98.37V103.18L270.97 103.87V99.06Z" fill="#5B318B"/>
<path d="M302.07 95.7399V100.56L285.91 102.28V97.4599L302.07 95.7399Z" fill="#5B318B"/>
<path d="M270.97 107.14L277.5 106.51V111.34L270.97 111.97V107.14Z" fill="#5B318B"/>
<path d="M302.07 104.17V109L285.91 110.55V105.71L302.07 104.17Z" fill="#5B318B"/>
<path d="M270.97 115.2L277.5 114.66V119.49L270.97 120.03V115.2Z" fill="#5B318B"/>
<path d="M302.07 112.62V117.45L285.91 118.79V113.96L302.07 112.62Z" fill="#5B318B"/>
<path d="M270.97 123.28L277.5 122.82V127.64L270.97 128.1V123.28Z" fill="#5B318B"/>
<path d="M302.07 121.06V125.88L285.91 127.03V122.21L302.07 121.06Z" fill="#5B318B"/>
<path d="M270.97 131.36L277.5 130.97V135.78L270.97 136.18V131.36Z" fill="#5B318B"/>
<path d="M302.07 129.5V134.33L285.91 135.3V130.46L302.07 129.5Z" fill="#5B318B"/>
<path d="M270.97 139.42L277.5 139.11V143.94L270.97 144.25V139.42Z" fill="#5B318B"/>
<path d="M302.07 137.96V142.77L285.91 143.54V138.72L302.07 137.96Z" fill="#5B318B"/>
<path d="M270.97 147.5L277.5 147.27V152.1L270.97 152.33V147.5Z" fill="#5B318B"/>
<path d="M302.07 146.41V151.24L285.91 151.8V146.97L302.07 146.41Z" fill="#5B318B"/>
<path d="M270.97 155.58L277.5 155.43V160.25L270.97 160.4V155.58Z" fill="#5B318B"/>
<path d="M302.07 154.85V159.67L285.91 160.05V155.23L302.07 154.85Z" fill="#5B318B"/>
<path d="M270.97 163.66L277.5 163.58V168.39L270.97 168.48V163.66Z" fill="#5B318B"/>
<path d="M302.07 163.29V168.11L285.91 168.3V163.48L302.07 163.29Z" fill="#5B318B"/>
<path d="M277.49 171.72H270.97V176.55H277.49V171.72Z" fill="#5B318B"/>
<path d="M302.07 171.72H285.91V176.55H302.07V171.72Z" fill="#5B318B"/>
<path d="M311.88 13.41V38.06L307.47 36.01L294.82 38.26V27.2L311.88 13.41Z" fill="#5B318B"/>
<g style="mix-blend-mode:multiply" opacity="0.25">
<path d="M339.85 61.1V168.45H265.58V92.47L307.47 74.76L339.85 61.1Z" fill="#744AA5"/>
</g>
<path d="M382.839 77.59H361.949V14.72L382.839 11.01V77.59Z" fill="#431573"/>
<path d="M382.839 77.59H402.049V19.93L382.839 11.01V77.59Z" fill="#744AA5"/>
<path d="M388.45 150.71H352.08V41.26L388.45 34.8V150.71Z" fill="#431573"/>
<path d="M388.45 150.71H421.9V50.3301L388.45 34.8V150.71Z" fill="#744AA5"/>
<path d="M393.93 230.01H345.56V68.06L393.93 59.47V230.01Z" fill="#431573"/>
<path d="M393.93 230.01H438.41V80.13L393.93 59.47V230.01Z" fill="#744AA5"/>
<path d="M368.01 171.49L371.48 171.25V175.7L368.01 175.9V171.49Z" fill="#744AA5"/>
<path d="M368.01 157.22L371.48 156.93V161.38L368.01 161.64V157.22Z" fill="#744AA5"/>
<path d="M368.01 150.09L371.48 149.77V154.21L368.01 154.51V150.09Z" fill="#744AA5"/>
<path d="M368.01 142.96L371.48 142.61V147.05L368.01 147.37V142.96Z" fill="#744AA5"/>
<path d="M368.01 135.83L371.48 135.45V139.89L368.01 140.24V135.83Z" fill="#744AA5"/>
<path d="M368.01 114.44L371.48 113.96V118.4L368.01 118.84V114.44Z" fill="#744AA5"/>
<path d="M368.01 107.31L371.48 106.81V111.23L368.01 111.71V107.31Z" fill="#744AA5"/>
<path d="M361.84 115.28L365.31 114.81V119.19L361.84 119.63V115.28Z" fill="#744AA5"/>
<path d="M361.84 122.36L365.31 121.92V126.3L361.84 126.72V122.36Z" fill="#744AA5"/>
<path d="M361.84 129.44L365.31 129.02V133.41L361.84 133.79V129.44Z" fill="#744AA5"/>
<path d="M361.84 164.83L365.31 164.56V168.96L361.84 169.2V164.83Z" fill="#744AA5"/>
<path d="M361.84 171.91L365.31 171.67V176.07L361.84 176.27V171.91Z" fill="#744AA5"/>
<path d="M361.84 178.99L365.31 178.78V183.18L361.84 183.36V178.99Z" fill="#744AA5"/>
<path d="M361.84 186.06L365.31 185.89V190.29L361.84 190.43V186.06Z" fill="#744AA5"/>
<path d="M374.18 185.43L377.65 185.25V189.76L374.18 189.91V185.43Z" fill="#744AA5"/>
<path d="M374.18 149.51L377.65 149.19V153.68L374.18 153.98V149.51Z" fill="#744AA5"/>
<path d="M374.18 127.96L377.65 127.55V132.04L374.18 132.42V127.96Z" fill="#744AA5"/>
<path d="M374.18 113.59L377.65 113.12V117.61L374.18 118.05V113.59Z" fill="#744AA5"/>
<path d="M374.18 99.2299L377.65 98.6899V103.17L374.18 103.68V99.2299Z" fill="#C497F9"/>
<path d="M361.84 101.13L365.31 100.6V104.97L361.84 105.47V101.13Z" fill="#744AA5"/>
<path d="M361.84 193.14L365.31 193V197.39L361.84 197.51V193.14Z" fill="#744AA5"/>
<path d="M368.01 192.88L371.48 192.73V197.18L368.01 197.3V192.88Z" fill="#744AA5"/>
<path d="M374.18 92.05L377.65 91.48V95.96L374.18 96.49V92.05Z" fill="#744AA5"/>
<path d="M368.01 93.05L371.48 92.49V96.91L368.01 97.44V93.05Z" fill="#744AA5"/>
<path d="M361.84 94.05L365.31 93.49V97.86L361.84 98.39V94.05Z" fill="#C497F9"/>
<path d="M355.67 95.05L359.14 94.49V98.81L355.67 99.34V95.05Z" fill="#744AA5"/>
<path d="M355.67 102.08L359.14 101.55V105.87L355.67 106.37V102.08Z" fill="#744AA5"/>
<path d="M355.67 109.11L359.14 108.6V112.92L355.67 113.4V109.11Z" fill="#C497F9"/>
<path d="M355.67 116.13L359.14 115.65V119.98L355.67 120.43V116.13Z" fill="#744AA5"/>
<path d="M355.67 123.15L359.14 122.71V127.04L355.67 127.45V123.15Z" fill="#744AA5"/>
<path d="M355.67 137.2L359.14 136.82V141.15L355.67 141.51V137.2Z" fill="#744AA5"/>
<path d="M355.67 144.23L359.14 143.87V148.21L355.67 148.54V144.23Z" fill="#744AA5"/>
<path d="M355.67 151.26L359.14 150.93V155.27L355.67 155.56V151.26Z" fill="#744AA5"/>
<path d="M355.67 158.28L359.14 157.98V162.33L355.67 162.59V158.28Z" fill="#744AA5"/>
<path d="M355.67 165.31L359.14 165.04V169.38L355.67 169.62V165.31Z" fill="#744AA5"/>
<path d="M355.67 186.38L359.14 186.2V190.55L355.67 190.7V186.38Z" fill="#744AA5"/>
<path d="M355.67 193.41L359.14 193.26V197.61L355.67 197.73V193.41Z" fill="#744AA5"/>
<path d="M355.67 200.43L359.14 200.32V204.66L355.67 204.75V200.43Z" fill="#744AA5"/>
<path d="M368.01 200.01L371.48 199.89V204.35L368.01 204.44V200.01Z" fill="#744AA5"/>
<path d="M374.18 199.8L377.65 199.68V204.19L374.18 204.28V199.8Z" fill="#744AA5"/>
<path d="M380.35 199.59L383.82 199.47V204.03L380.35 204.12V199.59Z" fill="#744AA5"/>
<path d="M380.35 192.35L383.82 192.2V196.76L380.35 196.88V192.35Z" fill="#744AA5"/>
<path d="M380.35 177.88L383.82 177.67V182.23L380.35 182.41V177.88Z" fill="#744AA5"/>
<path d="M380.35 170.64L383.82 170.4V174.96L380.35 175.17V170.64Z" fill="#744AA5"/>
<path d="M380.35 163.4L383.82 163.14V167.69L380.35 167.93V163.4Z" fill="#744AA5"/>
<path d="M380.35 156.17L383.82 155.87V160.42L380.35 160.69V156.17Z" fill="#744AA5"/>
<path d="M380.35 148.93L383.82 148.6V153.16L380.35 153.45V148.93Z" fill="#744AA5"/>
<path d="M380.35 141.69L383.82 141.34V145.89L380.35 146.21V141.69Z" fill="#744AA5"/>
<path d="M380.35 134.46L383.82 134.07V138.62L380.35 138.97V134.46Z" fill="#744AA5"/>
<path d="M380.35 119.99L383.82 119.54V124.08L380.35 124.5V119.99Z" fill="#C497F9"/>
<path d="M380.35 105.51L383.82 105.01V109.54L380.35 110.02V105.51Z" fill="#744AA5"/>
<path d="M380.35 98.28L383.82 97.74V102.27L380.35 102.78V98.28Z" fill="#744AA5"/>
<path d="M380.35 83.81L383.82 83.22V87.74L380.35 88.3V83.81Z" fill="#744AA5"/>
<path d="M374.18 84.86L377.65 84.27V88.74L374.18 89.3V84.86Z" fill="#744AA5"/>
<path d="M361.84 86.98L365.31 86.38V90.75L361.84 91.31V86.98Z" fill="#744AA5"/>
<path d="M361.84 207.3L365.31 207.21V211.62L361.84 211.67V207.3Z" fill="#744AA5"/>
<path d="M368.01 207.14L371.48 207.05V211.51L368.01 211.57V207.14Z" fill="#744AA5"/>
<path d="M380.35 206.83L383.82 206.74V211.3L380.35 211.36V206.83Z" fill="#744AA5"/>
<path d="M380.35 76.57L383.82 75.95V80.47L380.35 81.06V76.57Z" fill="#744AA5"/>
<path d="M374.18 77.6801L377.65 77.0601V81.5201L374.18 82.1201V77.6801Z" fill="#C497F9"/>
<path d="M368.01 78.7902L371.48 78.1702V82.5802L368.01 83.1702V78.7902Z" fill="#744AA5"/>
<path d="M355.67 81.01L359.14 80.38V84.69L355.67 85.28V81.01Z" fill="#744AA5"/>
<path d="M349.5 89.09L352.96 88.49V92.75L349.5 93.32V89.09Z" fill="#C497F9"/>
<path d="M349.5 96.06L352.96 95.49V99.76L349.5 100.29V96.06Z" fill="#744AA5"/>
<path d="M349.5 110L352.96 109.5V113.77L349.5 114.24V110Z" fill="#744AA5"/>
<path d="M349.5 123.95L352.96 123.5V127.78L349.5 128.19V123.95Z" fill="#744AA5"/>
<path d="M349.5 130.92L352.96 130.5V134.78L349.5 135.17V130.92Z" fill="#744AA5"/>
<path d="M349.5 137.89L352.96 137.51V141.79L349.5 142.14V137.89Z" fill="#744AA5"/>
<path d="M349.5 151.84L352.96 151.51V155.79L349.5 156.09V151.84Z" fill="#744AA5"/>
<path d="M349.5 158.81L352.96 158.51V162.8L349.5 163.07V158.81Z" fill="#744AA5"/>
<path d="M349.5 172.75L352.96 172.52V176.81L349.5 177.01V172.75Z" fill="#744AA5"/>
<path d="M349.5 186.7L352.96 186.52V190.81L349.5 190.96V186.7Z" fill="#744AA5"/>
<path d="M349.5 193.67L352.96 193.52V197.82L349.5 197.94V193.67Z" fill="#744AA5"/>
<path d="M349.5 207.62L352.96 207.53V211.83L349.5 211.88V207.62Z" fill="#744AA5"/>
<path d="M355.67 214.49L359.14 214.43V218.77L355.67 218.81V214.49Z" fill="#744AA5"/>
<path d="M368.01 214.27L371.48 214.22V218.67L368.01 218.7V214.27Z" fill="#744AA5"/>
<path d="M374.18 214.17L377.65 214.11V218.62L374.18 218.65V214.17Z" fill="#744AA5"/>
<path d="M386.53 213.96L389.99 213.9V218.51L386.53 218.54V213.96Z" fill="#744AA5"/>
<path d="M386.53 206.67L389.99 206.58V211.19L386.53 211.25V206.67Z" fill="#744AA5"/>
<path d="M386.53 192.09L389.99 191.94V196.55L386.53 196.67V192.09Z" fill="#744AA5"/>
<path d="M386.53 184.8L389.99 184.62V189.23L386.53 189.38V184.8Z" fill="#744AA5"/>
<path d="M386.53 170.22L389.99 169.98V174.59L386.53 174.8V170.22Z" fill="#744AA5"/>
<path d="M386.53 155.64L389.99 155.34V159.95L386.53 160.22V155.64Z" fill="#744AA5"/>
<path d="M386.53 141.06L389.99 140.7V145.31L386.53 145.63V141.06Z" fill="#C497F9"/>
<path d="M386.53 133.77L389.99 133.39V137.99L386.53 138.34V133.77Z" fill="#744AA5"/>
<path d="M386.53 126.48L389.99 126.07V130.66L386.53 131.05V126.48Z" fill="#744AA5"/>
<path d="M386.53 111.91L389.99 111.43V116.02L386.53 116.46V111.91Z" fill="#744AA5"/>
<path d="M386.53 104.62L389.99 104.11V108.7L386.53 109.17V104.62Z" fill="#C497F9"/>
<path d="M386.53 90.04L389.99 89.48V94.06L386.53 94.59V90.04Z" fill="#744AA5"/>
<path d="M386.53 82.7502L389.99 82.1602V86.7402L386.53 87.3002V82.7502Z" fill="#744AA5"/>
<path d="M386.53 68.17L389.99 67.52V72.09L386.53 72.71V68.17Z" fill="#744AA5"/>
<path d="M380.35 69.3399L383.82 68.6799V73.1999L380.35 73.8199V69.3399Z" fill="#744AA5"/>
<path d="M368.01 71.66L371.48 71.01V75.42L368.01 76.04V71.66Z" fill="#744AA5"/>
<path d="M361.84 72.82L365.31 72.17V76.53L361.84 77.15V72.82Z" fill="#C497F9"/>
<path d="M355.67 73.9801L359.14 73.3301V77.6301L355.67 78.2601V73.9801Z" fill="#744AA5"/>
<path d="M379.53 45.63L383 44.98V49.39L379.53 50.01V45.63Z" fill="#C497F9"/>
<path d="M366.78 55.87L370.25 55.22V59.58L366.78 60.2V55.87Z" fill="#744AA5"/>
<path d="M357.35 46.37L360.82 45.72V50.02L357.35 50.65V46.37Z" fill="#744AA5"/>
<path d="M367.34 21.4501L370.81 20.8V25.1L367.34 25.73V21.4501Z" fill="#C497F9"/>
<path d="M373.74 27.85L377.21 27.2V31.5L373.74 32.1199V27.85Z" fill="#744AA5"/>
<path d="M349.5 82.12L352.96 81.49V85.75L349.5 86.34V82.12Z" fill="#744AA5"/>
<path d="M349.5 225.83V221.57L352.96 221.54V225.83H349.5Z" fill="#744AA5"/>
<path d="M361.84 225.83V221.46L365.31 221.43V225.83H361.84Z" fill="#744AA5"/>
<path d="M374.18 225.83V221.35L377.65 221.32V225.83H374.18Z" fill="#744AA5"/>
<path d="M386.53 225.83V221.25L389.99 221.22V225.83H386.53Z" fill="#744AA5"/>
<g style="mix-blend-mode:multiply" opacity="0.25">
<path d="M345.56 99.98V230.01H393.93H438.41V80.13L421.9 72.46V67.74L345.56 99.98Z" fill="#744AA5"/>
</g>
<path d="M528.52 14.5901V181.2H481.27V23.0001L528.52 14.5901Z" fill="#431573"/>
<path d="M571.97 34.7801V181.2H528.52V14.5901L571.97 34.7801Z" fill="#744AA5"/>
<path d="M528.52 21.48L481.27 29.88V26.82L528.52 18.42V21.48Z" fill="#744AA5"/>
<path d="M528.52 31.2701L481.27 39.1401V36.0801L528.52 28.2001V31.2701Z" fill="#744AA5"/>
<path d="M528.52 41.05L481.27 48.4V45.34L528.52 37.99V41.05Z" fill="#744AA5"/>
<path d="M528.52 50.84L481.27 57.66V54.6L528.52 47.77V50.84Z" fill="#744AA5"/>
<path d="M528.52 60.6301L481.27 66.9201V63.8601L528.52 57.5601V60.6301Z" fill="#744AA5"/>
<path d="M528.52 70.4101L481.27 76.1901V73.1201L528.52 67.3401V70.4101Z" fill="#744AA5"/>
<path d="M528.52 80.2L481.27 85.45V82.38L528.52 77.13V80.2Z" fill="#744AA5"/>
<path d="M528.52 89.98L481.27 94.71V91.64L528.52 86.91V89.98Z" fill="#744AA5"/>
<path d="M528.52 99.7701L481.27 103.97V100.9L528.52 96.7001V99.7701Z" fill="#744AA5"/>
<path d="M528.52 109.55L481.27 113.23V110.16L528.52 106.48V109.55Z" fill="#744AA5"/>
<path d="M528.52 119.34L481.27 122.49V119.42L528.52 116.27V119.34Z" fill="#744AA5"/>
<path d="M528.52 129.12L481.27 131.75V128.68L528.52 126.05V129.12Z" fill="#744AA5"/>
<path d="M528.52 138.91L481.27 141.01V137.94L528.52 135.84V138.91Z" fill="#744AA5"/>
<path d="M528.52 148.69L481.27 150.27V147.2L528.52 145.62V148.69Z" fill="#744AA5"/>
<path d="M528.52 158.48L481.27 159.53V156.46L528.52 155.41V158.48Z" fill="#744AA5"/>
<path d="M528.52 168.26L481.27 168.79V165.72L528.52 165.2V168.26Z" fill="#744AA5"/>
<path d="M528.52 174.98H481.27V178.05H528.52V174.98Z" fill="#744AA5"/>
<g style="mix-blend-mode:multiply" opacity="0.25">
<path d="M556.87 63.9001V181.2H481.27V95.8301L528.52 75.8801L556.87 63.9001Z" fill="#744AA5"/>
</g>
<path d="M183.359 230H98.9092V96.82L103.099 91.4L104.789 89.21L113.649 77.78L115.309 75.62L123.859 64.58L125.509 62.45L133.749 51.81L135.369 49.69L142.899 39.96L180.329 57.32L180.529 68.57L180.589 71.39L180.789 83.15L180.839 85.93L181.039 97.51L181.079 100.24L181.139 103.35L181.279 111.66L181.319 114.35L181.519 125.6L181.579 128.28L181.769 139.37L181.819 142.01L182.009 152.96L182.059 155.59L182.249 166.38L182.289 168.99L182.479 179.64L182.529 182.27L182.699 192.78L182.759 195.36L182.929 205.76L182.969 208.36L183.159 218.63L183.199 221.21L183.359 230Z" fill="#8E63C0"/>
<path d="M98.8996 96.82L142.9 39.96L114.18 47.07L66.0996 104.14L98.8996 96.82Z" fill="#EEDBFF"/>
<path d="M98.9096 96.8199V230H66.0996V104.14L98.9096 96.8199Z" fill="#EEDBFF"/>
<path d="M180.579 71.3899L142.909 55.6399L133.749 51.8099L135.369 49.6899L142.909 52.8399L180.529 68.5699L180.579 71.3899Z" fill="#5B318B"/>
<path d="M180.84 85.9299L142.91 71.7199L123.85 64.5899L125.51 62.4399L142.91 68.9699L180.79 83.1599L180.84 85.9299Z" fill="#EEDBFF"/>
<path d="M181.089 100.25L142.909 87.5299L113.649 77.7799L115.309 75.6199L142.909 84.8099L181.039 97.5099L181.089 100.25Z" fill="#5B318B"/>
<path d="M181.33 114.36L142.91 103.08L103.1 91.4L104.79 89.21L142.91 100.4L181.29 111.66L181.33 114.36Z" fill="#5B318B"/>
<path d="M181.579 128.28L142.909 118.4L98.9092 107.16V104.5L142.909 115.73L181.529 125.6L181.579 128.28Z" fill="#EEDBFF"/>
<path d="M181.819 142.02L142.909 133.5L98.9092 123.87V121.23L142.909 130.85L181.769 139.37L181.819 142.02Z" fill="#5B318B"/>
<path d="M182.059 155.59L142.909 148.39L98.9092 140.29V137.68L142.909 145.77L182.009 152.95L182.059 155.59Z" fill="#EEDBFF"/>
<path d="M182.289 168.99L142.909 163.08L98.9092 156.47V153.86L142.909 160.48L182.249 166.37L182.289 168.99Z" fill="#EEDBFF"/>
<path d="M182.519 182.26L142.909 177.59L98.9092 172.41V169.8L142.909 174.98L182.469 179.64L182.519 182.26Z" fill="#5B318B"/>
<path d="M182.749 195.37L142.909 191.92L98.9092 188.1V185.51L142.909 189.32L182.699 192.77L182.749 195.37Z" fill="#5B318B"/>
<path d="M182.979 208.36L142.909 206.09L98.9092 203.6V201L142.909 203.5L182.929 205.76L182.979 208.36Z" fill="#5B318B"/>
<path d="M183.209 221.21L142.909 220.09L98.9092 218.87V216.29L142.909 217.51L183.149 218.63L183.209 221.21Z" fill="#5B318B"/>
<g style="mix-blend-mode:multiply" opacity="0.25">
<path d="M183.36 230H66.0996V151.94L98.9096 138.09L181.14 103.35L181.28 111.66L181.32 114.35L181.52 125.6L181.58 128.28L181.77 139.37L181.82 142.01L182.01 152.96L182.06 155.59L182.25 166.38L182.29 168.99L182.48 179.64L182.53 182.27L182.7 192.78L182.76 195.36L182.93 205.76L182.97 208.36L183.16 218.63L183.2 221.21L183.36 230Z" fill="#5B318B"/>
</g>
<path d="M453.71 118.89H393.2V230H453.71V118.89Z" fill="#F9EDFF"/>
<path d="M469.95 118.9H453.71V230.01H469.95V118.9Z" fill="#8E63C0"/>
<path d="M430.8 136.84H400.52V142.8H430.8V136.84Z" fill="#5B318B"/>
<path d="M469.94 136.85H461.46V142.81H469.94V136.85Z" fill="#EEDBFF"/>
<path d="M446.01 136.84H438.12V142.8H446.01V136.84Z" fill="#5B318B"/>
<path d="M430.8 152.03H400.52V157.99H430.8V152.03Z" fill="#5B318B"/>
<path d="M469.94 152.03H461.46V157.99H469.94V152.03Z" fill="#EEDBFF"/>
<path d="M446.01 152.03H438.12V157.99H446.01V152.03Z" fill="#5B318B"/>
<path d="M430.8 166.43H400.52V172.39H430.8V166.43Z" fill="#5B318B"/>
<path d="M469.94 166.43H461.46V172.39H469.94V166.43Z" fill="#EEDBFF"/>
<path d="M446.01 166.43H438.12V172.39H446.01V166.43Z" fill="#5B318B"/>
<path d="M430.8 181.61H400.52V187.57H430.8V181.61Z" fill="#5B318B"/>
<path d="M469.94 181.61H461.46V187.57H469.94V181.61Z" fill="#EEDBFF"/>
<path d="M446.01 181.61H438.12V187.57H446.01V181.61Z" fill="#5B318B"/>
<path d="M430.8 196.6H400.52V202.56H430.8V196.6Z" fill="#5B318B"/>
<path d="M469.94 196.6H461.46V202.56H469.94V196.6Z" fill="#EEDBFF"/>
<path d="M446.01 196.6H438.12V202.56H446.01V196.6Z" fill="#5B318B"/>
<path d="M430.8 211.79H400.52V217.75H430.8V211.79Z" fill="#5B318B"/>
<path d="M469.94 211.79H461.46V217.75H469.94V211.79Z" fill="#EEDBFF"/>
<path d="M446.01 211.79H438.12V217.75H446.01V211.79Z" fill="#5B318B"/>
<path d="M393.2 118.89H453.71L443.3 98.63H407.8L393.2 118.89Z" fill="#8E63C0"/>
<path d="M443.3 98.63L459.13 102.48L469.94 118.9L453.71 118.89L443.3 98.63Z" fill="#744AA5"/>
<path d="M453.71 146.87H393.2V148.21H453.71V146.87Z" fill="#8E63C0"/>
<path d="M453.71 161.81H393.2V163.15H453.71V161.81Z" fill="#8E63C0"/>
<path d="M453.71 176.75H393.2V178.09H453.71V176.75Z" fill="#8E63C0"/>
<path d="M453.71 191.69H393.2V193.03H453.71V191.69Z" fill="#8E63C0"/>
<path d="M453.71 206.62H393.2V207.96H453.71V206.62Z" fill="#8E63C0"/>
<path d="M469.94 146.87H453.71V148.21H469.94V146.87Z" fill="#5B318B"/>
<path d="M469.94 161.81H453.71V163.15H469.94V161.81Z" fill="#5B318B"/>
<path d="M469.94 176.75H453.71V178.09H469.94V176.75Z" fill="#5B318B"/>
<path d="M469.94 191.69H453.71V193.03H469.94V191.69Z" fill="#5B318B"/>
<path d="M469.94 206.62H453.71V207.96H469.94V206.62Z" fill="#5B318B"/>
<g style="mix-blend-mode:multiply" opacity="0.25">
<path d="M393.2 199.63V206.62V207.96V230.01H453.71H469.94V217.75V211.79V202.56V196.6V187.57V181.61V172.39V167.21L393.2 199.63Z" fill="#744AA5"/>
</g>
<path d="M63.0601 142.59H5.54004V230.01H63.0601V142.59Z" fill="#DAB9FF"/>
<path d="M61.7 136.04H0V142.59H61.7V136.04Z" fill="#431573"/>
<path d="M75.0296 142.59H63.0596V230.01H75.0296V142.59Z" fill="#431573"/>
<path d="M61.6899 142.59H77.4199V136.04H61.6899V142.59Z" fill="#744AA5"/>
<path d="M19.8701 152.11H13.55V157.93H19.8701V152.11Z" fill="#744AA5"/>
<path d="M55.9801 152.11H31.6001V157.93H55.9801V152.11Z" fill="#431573"/>
<path d="M19.8701 167.25H13.55V173.07H19.8701V167.25Z" fill="#744AA5"/>
<path d="M55.9801 167.25H31.6001V173.07H55.9801V167.25Z" fill="#431573"/>
<path d="M19.8701 182.39H13.55V188.21H19.8701V182.39Z" fill="#744AA5"/>
<path d="M55.9801 182.39H31.6001V188.21H55.9801V182.39Z" fill="#431573"/>
<path d="M19.8701 197.53H13.55V203.35H19.8701V197.53Z" fill="#744AA5"/>
<path d="M55.9801 197.53H31.6001V203.35H55.9801V197.53Z" fill="#431573"/>
<path d="M19.8701 212.67H13.55V218.49H19.8701V212.67Z" fill="#744AA5"/>
<path d="M55.9801 212.67H31.6001V218.49H55.9801V212.67Z" fill="#431573"/>
<g style="mix-blend-mode:multiply" opacity="0.25">
<path d="M68.0601 168.92V230H5.54004V195.32L63.0601 171.03L68.0601 168.92Z" fill="#431573"/>
</g>
<path d="M283.49 132.97H194.44V230.01H283.49V132.97Z" fill="#C497F9"/>
<path d="M254.261 201.18H223.681V230H254.261V201.18Z" fill="#744AA5"/>
<path d="M283.5 169.31H194.44V171.08H283.5V169.31Z" fill="#744AA5"/>
<path d="M283.5 132.97H194.44V137.7H283.5V132.97Z" fill="#744AA5"/>
<path d="M222.39 147.47H206.95V163.74H222.39V147.47Z" fill="#744AA5"/>
<path d="M246.69 147.47H231.25V163.74H246.69V147.47Z" fill="#744AA5"/>
<path d="M270.99 147.47H255.55V163.74H270.99V147.47Z" fill="#744AA5"/>
<path d="M222.39 176.17H206.95V192.44H222.39V176.17Z" fill="#744AA5"/>
<path d="M215.54 201.25H206.95V217.52H215.54V201.25Z" fill="#744AA5"/>
<path d="M271 201.25H262.41V217.52H271V201.25Z" fill="#744AA5"/>
<path d="M246.69 176.17H231.25V192.44H246.69V176.17Z" fill="#744AA5"/>
<path d="M270.99 176.17H255.55V192.44H270.99V176.17Z" fill="#744AA5"/>
<g style="mix-blend-mode:multiply" opacity="0.25">
<path d="M283.501 156.42V230H212.471V186.42L283.501 156.42Z" fill="#431573"/>
</g>
<path d="M532.12 141.37H473.8V230.01H532.12V141.37Z" fill="#C497F9"/>
<path d="M512.27 203.78H493.66V230H512.27V203.78Z" fill="#744AA5"/>
<path d="M532.12 168.67H473.8V169.6H532.12V168.67Z" fill="#744AA5"/>
<path d="M532.12 198.28H473.8V199.21H532.12V198.28Z" fill="#744AA5"/>
<path d="M530.75 134.73H468.18V141.37H530.75V134.73Z" fill="#744AA5"/>
<path d="M544.26 141.37H532.12V230.01H544.26V141.37Z" fill="#431573"/>
<path d="M530.749 141.36H546.699V134.72H530.749V141.36Z" fill="#5B318B"/>
<path d="M491.33 146.02H481.22V164.3H491.33V146.02Z" fill="#744AA5"/>
<path d="M508.49 146.02H498.38V164.3H508.49V146.02Z" fill="#744AA5"/>
<path d="M525.66 146.02H515.55V164.3H525.66V146.02Z" fill="#744AA5"/>
<path d="M491.33 175.63H481.22V193.91H491.33V175.63Z" fill="#744AA5"/>
<path d="M508.49 175.63H498.38V193.91H508.49V175.63Z" fill="#744AA5"/>
<path d="M525.66 175.63H515.55V193.91H525.66V175.63Z" fill="#744AA5"/>
<g style="mix-blend-mode:multiply" opacity="0.25">
<path d="M544.26 167.63V230H473.8V197.4L532.12 172.77L544.26 167.63Z" fill="#C497F9"/>
</g>
<path d="M330.5 229.77V103.19L254.38 116.64V229.77H330.5Z" fill="#8E63C0"/>
<path d="M370.58 229.77V121.81L330.5 103.19V229.77H370.58Z" fill="#5B318B"/>
<path d="M260.77 123.9L278.65 120.73V128.93L260.77 131.7V123.9Z" fill="#5B318B"/>
<path d="M260.77 136.6L278.65 133.84V142.06L260.77 144.43V136.6Z" fill="#5B318B"/>
<path d="M260.77 149.32L278.65 146.96V155.19L260.77 157.16V149.32Z" fill="#5B318B"/>
<path d="M260.77 162.04L278.65 160.06V168.31L260.77 169.88V162.04Z" fill="#5B318B"/>
<path d="M260.77 174.76L278.65 173.18V181.42L260.77 182.61V174.76Z" fill="#5B318B"/>
<path d="M260.77 187.47L278.65 186.29V194.55L260.77 195.34V187.47Z" fill="#5B318B"/>
<path d="M260.77 200.19L278.65 199.4V207.67L260.77 208.06V200.19Z" fill="#5B318B"/>
<path d="M260.77 212.92L278.65 212.52V220.79H260.77V212.92Z" fill="#5B318B"/>
<path d="M283.5 119.87L301.39 116.71V125.41L283.5 128.19V119.87Z" fill="#5B318B"/>
<path d="M283.5 133.09L301.39 130.32V139.04L283.5 141.42V133.09Z" fill="#5B318B"/>
<path d="M283.5 146.3L301.39 143.94V152.67L283.5 154.64V146.3Z" fill="#5B318B"/>
<path d="M283.5 159.53L301.39 157.55V166.29L283.5 167.88V159.53Z" fill="#5B318B"/>
<path d="M283.5 172.74L301.39 171.17V179.92L283.5 181.11V172.74Z" fill="#5B318B"/>
<path d="M283.5 185.97L301.39 184.78V193.55L283.5 194.34V185.97Z" fill="#5B318B"/>
<path d="M283.5 199.19L301.39 198.4V207.16L283.5 207.56V199.19Z" fill="#5B318B"/>
<path d="M283.5 212.41L301.39 212.02V220.79H283.5V212.41Z" fill="#5B318B"/>
<path d="M324.12 112.69V121.9L306.24 124.67V115.86L324.12 112.69Z" fill="#5B318B"/>
<path d="M306.24 129.57L324.12 126.81V136.03L306.24 138.4V129.57Z" fill="#5B318B"/>
<path d="M306.24 143.29L324.12 140.92V150.16L306.24 152.13V143.29Z" fill="#5B318B"/>
<path d="M306.24 157.02L324.12 155.04V164.29L306.24 165.87V157.02Z" fill="#5B318B"/>
<path d="M306.24 170.74L324.12 169.15V178.42L306.24 179.61V170.74Z" fill="#5B318B"/>
<path d="M306.24 184.47L324.12 183.28V192.54L306.24 193.33V184.47Z" fill="#5B318B"/>
<path d="M306.24 198.19L324.12 197.39V206.67L306.24 207.07V198.19Z" fill="#5B318B"/>
<path d="M306.24 211.92L324.12 211.51V220.79H306.24V211.92Z" fill="#5B318B"/>
<path d="M254.38 132.64L330.56 120.8V125.71L254.38 137.54V132.64Z" fill="#EEDBFF"/>
<path d="M254.38 145.29L330.49 135.14V140.04L254.38 150.18V145.29Z" fill="#EEDBFF"/>
<path d="M254.46 157.76L330.49 149.34V154.23L254.46 162.64V157.76Z" fill="#EEDBFF"/>
<path d="M254.35 170.45L330.68 163.49V168.37L254.35 175.33V170.45Z" fill="#EEDBFF"/>
<path d="M254.35 182.91L330.56 177.87V182.74L254.35 187.79V182.91Z" fill="#EEDBFF"/>
<path d="M254.12 195.38L330.45 192.28V197.14L254.12 200.25V195.38Z" fill="#EEDBFF"/>
<path d="M254.35 208.18L330.68 206.51V211.36L254.35 213.04V208.18Z" fill="#EEDBFF"/>
<g style="mix-blend-mode:multiply" opacity="0.25">
<path d="M370.58 144.69V229.78H254.39V193.77L370.58 144.69Z" fill="#A6A6A6"/>
</g>
<path d="M609.61 165.1H541.91V230H609.61V165.1Z" fill="#EEDBFF"/>
<path d="M609.62 222.62H541.91V230.01H609.62V222.62Z" fill="#8E63C0"/>
<path d="M545.56 144.42L534.83 165.1H616.7L605.97 144.42H545.56Z" fill="#744AA5"/>
<path d="M556.58 170.85H546.99V186.89H556.58V170.85Z" fill="#744AA5"/>
<path d="M572.35 170.85H562.76V186.89H572.35V170.85Z" fill="#744AA5"/>
<path d="M588.13 170.85H578.54V186.89H588.13V170.85Z" fill="#744AA5"/>
<path d="M603.91 170.85H594.32V186.89H603.91V170.85Z" fill="#744AA5"/>
<path d="M556.58 197.94H546.99V213.98H556.58V197.94Z" fill="#744AA5"/>
<path d="M572.35 197.94H562.76V213.98H572.35V197.94Z" fill="#744AA5"/>
<path d="M588.13 197.94H578.54V213.98H588.13V197.94Z" fill="#744AA5"/>
<path d="M603.91 197.94H594.32V213.98H603.91V197.94Z" fill="#744AA5"/>
<path d="M609.62 191.35H541.91V192.06H609.62V191.35Z" fill="#8E63C0"/>
<path d="M609.62 193.89H541.91V194.6H609.62V193.89Z" fill="#8E63C0"/>
<path d="M131.56 208.13L186.25 190.38L173.86 160.45H131.56H125.98H83.68L71.3 190.38L125.98 208.13V209.94L128.77 209.03L131.56 209.94V208.13Z" fill="#5B318B"/>
<path d="M151.25 190.38V169.09L128.77 158.81L106.29 169.09V190.38H71.3V230.01H128.77H186.25V190.38H151.25Z" fill="#8E63C0"/>
<path d="M186.25 223.82H71.3V225.04H186.25V223.82Z" fill="#EEDBFF"/>
<path d="M156.44 167.24L128.77 154.6L101.1 167.24V171.46L128.77 158.81L156.44 171.46V167.24Z" fill="#5B318B"/>
<path d="M140.81 198.74H117.42V230.01H140.81V198.74Z" fill="#5B318B"/>
<path d="M88.2201 198.74H76.6001V218.2H88.2201V198.74Z" fill="#EEDBFF"/>
<path d="M105.44 198.74H93.8198V218.2H105.44V198.74Z" fill="#5B318B"/>
<path d="M163.42 198.74H151.8V218.2H163.42V198.74Z" fill="#EEDBFF"/>
<path d="M180.65 198.74H169.03V218.2H180.65V198.74Z" fill="#5B318B"/>
<path d="M132.84 168.4H124.87V182.41H132.84V168.4Z" fill="#EEDBFF"/>
<g style="mix-blend-mode:multiply" opacity="0.25">
<path d="M186.25 195.68L104.97 230.01H128.77H186.25V195.68Z" fill="#744AA5"/>
</g>
<path d="M385.96 184.75H336.86V230.01H385.96V184.75Z" fill="#C497F9"/>
<path d="M369.24 212.01H353.57V230.01H369.24V212.01Z" fill="#744AA5"/>
<path d="M336.861 208.52H385.961V207.74H336.861V208.52Z" fill="#744AA5"/>
<path d="M338.011 184.74H390.681V179.15H338.011V184.74Z" fill="#431573"/>
<path d="M336.861 184.75H320.031V230.01H336.861V184.75Z" fill="#DAB9FF"/>
<path d="M336.861 179.31H385.961V161.22H336.861V179.31Z" fill="#C497F9"/>
<path d="M336.861 161.23H320.031V179.32H336.861V161.23Z" fill="#DAB9FF"/>
<path d="M338.01 179.16H317.98V184.75H338.01V179.16Z" fill="#C497F9"/>
<path d="M338.011 161.68H390.681V156.09H338.011V161.68Z" fill="#431573"/>
<path d="M338.01 156.09H317.98V161.68H338.01V156.09Z" fill="#C497F9"/>
<path d="M379.721 188.66H371.211V204.05H379.721V188.66Z" fill="#744AA5"/>
<path d="M365.261 188.66H356.751V204.05H365.261V188.66Z" fill="#744AA5"/>
<path d="M350.811 188.66H342.301V204.05H350.811V188.66Z" fill="#744AA5"/>
<path d="M379.721 165.39H371.211V174.16H379.721V165.39Z" fill="#744AA5"/>
<path d="M365.261 165.39H356.751V174.16H365.261V165.39Z" fill="#744AA5"/>
<path d="M350.811 165.39H342.301V174.16H350.811V165.39Z" fill="#744AA5"/>
<path d="M317.98 156.09L330.8 140.51L338.02 156.09H317.98Z" fill="#431573"/>
<path d="M338.021 156.09L330.801 140.51H380.571L390.691 156.09H338.021Z" fill="#C497F9"/>
<g style="mix-blend-mode:multiply" opacity="0.25">
<path d="M320.031 229.46V230.01H336.861H353.57H369.24H385.961V208.52V207.73V201.61L320.031 229.46Z" fill="#C497F9"/>
</g>
<g style="mix-blend-mode:multiply" opacity="0.25">
<path d="M609.62 181.34V230H541.91V209.96L550.37 206.38L609.62 181.34Z" fill="#744AA5"/>
</g>
</svg>
