<svg width="32" height="32" viewBox="0 0 32 32" fill="none" xmlns="http://www.w3.org/2000/svg">
<circle cx="16" cy="16" r="16" fill="#BFDBFC"/>
<path d="M22.6558 21.2123C23.0657 21.6212 23.0657 22.2845 22.6558 22.6934C22.2458 23.1022 21.5807 23.1022 21.1707 22.6934L16.0007 17.4989L10.7939 22.6916C10.384 23.1004 9.71888 23.1004 9.3089 22.6916C8.89892 22.2828 8.89896 21.6195 9.3089 21.2106L14.5174 16.0196L9.30745 10.7877C8.89752 10.3788 8.89752 9.71551 9.30745 9.30664C9.71739 8.89777 10.3825 8.89781 10.7925 9.30664L16.0007 14.5404L21.2075 9.34766C21.6174 8.93883 22.2826 8.93883 22.6925 9.34766C23.1025 9.75648 23.1025 10.4198 22.6925 10.8287L17.484 16.0196L22.6558 21.2123Z" fill="#54A1EE"/>
</svg>
