<svg width="140" height="127" viewBox="0 0 140 127" fill="none" xmlns="http://www.w3.org/2000/svg">
<ellipse cx="70" cy="121" rx="70" ry="6" fill="black" fill-opacity="0.05"/>
<circle cx="67" cy="60" r="60" fill="#F2DF7F"/>
<path fill-rule="evenodd" clip-rule="evenodd" d="M80.5698 59.625H95.1879V83.3552C91.8288 87.1462 87.6556 90.128 82.9806 92.0773C78.3057 94.0266 73.2503 94.8928 68.193 94.6112C63.3867 94.5793 58.6376 93.5643 54.2382 91.6285C49.8388 89.6928 45.8819 86.8772 42.6112 83.3552C36.891 76.7896 33.8168 68.3313 33.9865 59.625C33.951 55.1767 34.7936 50.765 36.4659 46.6428C38.1382 42.5206 40.6074 38.7689 43.732 35.6025C46.8913 32.3398 50.679 29.7509 54.8663 27.9922C59.0537 26.2335 63.554 25.3415 68.0956 25.3698C78.0857 25.4323 87.7131 29.1205 95.1879 35.7487L85.4425 46.8585C83.431 44.3791 80.8795 42.3921 77.9829 41.0493C75.0863 39.7066 71.9211 39.0435 68.729 39.1109C63.5979 39.2097 58.7128 41.3284 55.1341 45.0069C53.1212 46.8756 51.5121 49.1366 50.406 51.6506C49.2998 54.1646 48.7199 56.8785 48.7021 59.625C48.6444 62.4281 49.1591 65.2134 50.2148 67.8107C51.2704 70.408 52.8449 72.7626 54.8418 74.7305C58.3401 78.23 62.9688 80.3716 67.9007 80.7727C72.2915 81.0091 76.6656 80.0669 80.5698 78.0439V59.625Z" fill="#A77F2C"/>
<circle cx="66.7988" cy="6.24162" r="2.21477" fill="#A77F2C"/>
<circle cx="66.7988" cy="113.758" r="2.21477" fill="#A77F2C"/>
<circle cx="120.557" cy="60" r="2.21477" transform="rotate(90 120.557 60)" fill="#A77F2C"/>
<circle cx="13.0404" cy="60" r="2.21477" transform="rotate(90 13.0404 60)" fill="#A77F2C"/>
<circle cx="104.812" cy="21.9871" r="2.21477" transform="rotate(45 104.812 21.9871)" fill="#A77F2C"/>
<circle cx="28.786" cy="98.0129" r="2.21477" transform="rotate(45 28.786 98.0129)" fill="#A77F2C"/>
<circle cx="104.811" cy="98.0129" r="2.21477" transform="rotate(135 104.811 98.0129)" fill="#A77F2C"/>
<circle cx="28.7857" cy="21.9871" r="2.21477" transform="rotate(135 28.7857 21.9871)" fill="#A77F2C"/>
<circle cx="113.355" cy="33.1208" r="2.21477" transform="rotate(60 113.355 33.1208)" fill="#A77F2C"/>
<circle cx="20.2427" cy="86.8791" r="2.21477" transform="rotate(60 20.2427 86.8791)" fill="#A77F2C"/>
<circle cx="93.6778" cy="106.556" r="2.21477" transform="rotate(150 93.6778 106.556)" fill="#A77F2C"/>
<circle cx="39.9194" cy="13.4439" r="2.21477" transform="rotate(150 39.9194 13.4439)" fill="#A77F2C"/>
<circle cx="118.725" cy="46.0863" r="2.21477" transform="rotate(75 118.725 46.0863)" fill="#A77F2C"/>
<circle cx="14.8719" cy="73.9137" r="2.21477" transform="rotate(75 14.8719 73.9137)" fill="#A77F2C"/>
<circle cx="80.7123" cy="111.927" r="2.21477" transform="rotate(165 80.7123 111.927)" fill="#A77F2C"/>
<circle cx="52.8851" cy="8.07333" r="2.21477" transform="rotate(165 52.8851 8.07333)" fill="#A77F2C"/>
<circle cx="118.725" cy="73.9137" r="2.21477" transform="rotate(105 118.725 73.9137)" fill="#A77F2C"/>
<circle cx="14.872" cy="46.0863" r="2.21477" transform="rotate(105 14.872 46.0863)" fill="#A77F2C"/>
<circle cx="52.8849" cy="111.927" r="2.21477" transform="rotate(-165 52.8849 111.927)" fill="#A77F2C"/>
<circle cx="80.7124" cy="8.07337" r="2.21477" transform="rotate(-165 80.7124 8.07337)" fill="#A77F2C"/>
<circle cx="113.355" cy="86.8791" r="2.21477" transform="rotate(120 113.355 86.8791)" fill="#A77F2C"/>
<circle cx="20.2425" cy="33.1207" r="2.21477" transform="rotate(120 20.2425 33.1207)" fill="#A77F2C"/>
<circle cx="39.9194" cy="106.556" r="2.21477" transform="rotate(-150 39.9194 106.556)" fill="#A77F2C"/>
<circle cx="93.6777" cy="13.4439" r="2.21477" transform="rotate(-150 93.6777 13.4439)" fill="#A77F2C"/>
</svg>
