<svg width="48" height="48" viewBox="0 0 48 48" fill="none" xmlns="http://www.w3.org/2000/svg">
<circle cx="24" cy="24" r="24" fill="#F2DF7F"/>
<path fill-rule="evenodd" clip-rule="evenodd" d="M29.4279 23.85H35.2752V33.3421C33.9315 34.8585 32.2622 36.0512 30.3922 36.8309C28.5223 37.6106 26.5001 37.9571 24.4772 37.8445C22.5547 37.8317 20.655 37.4257 18.8953 36.6514C17.1355 35.8771 15.5528 34.7509 14.2445 33.3421C11.9564 30.7158 10.7267 27.3325 10.7946 23.85C10.7804 22.0707 11.1174 20.306 11.7863 18.6571C12.4553 17.0082 13.4429 15.5075 14.6928 14.241C15.9565 12.9359 17.4716 11.9004 19.1465 11.1969C20.8215 10.4934 22.6216 10.1366 24.4382 10.1479C28.4342 10.1729 32.2852 11.6482 35.2752 14.2995L31.377 18.7434C30.5724 17.7516 29.5518 16.9568 28.3931 16.4197C27.2345 15.8826 25.9684 15.6174 24.6916 15.6443C22.6391 15.6839 20.6851 16.5313 19.2536 18.0027C18.4485 18.7502 17.8048 19.6546 17.3624 20.6602C16.9199 21.6658 16.688 22.7514 16.6808 23.85C16.6577 24.9712 16.8636 26.0853 17.2859 27.1243C17.7082 28.1632 18.3379 29.105 19.1367 29.8922C20.536 31.292 22.3875 32.1486 24.3603 32.309C26.1166 32.4036 27.8662 32.0268 29.4279 31.2176V23.85Z" fill="#A77F2C"/>
<ellipse cx="23.9194" cy="2.49662" rx="0.885906" ry="0.885906" fill="#A77F2C"/>
<ellipse cx="23.9195" cy="45.5033" rx="0.885905" ry="0.885906" fill="#A77F2C"/>
<circle cx="45.4227" cy="24" r="0.885906" transform="rotate(90 45.4227 24)" fill="#A77F2C"/>
<ellipse cx="2.4161" cy="24" rx="0.885906" ry="0.885906" transform="rotate(90 2.4161 24)" fill="#A77F2C"/>
<circle cx="39.1246" cy="8.79482" r="0.885906" transform="rotate(45 39.1246 8.79482)" fill="#A77F2C"/>
<circle cx="8.71436" cy="39.2052" r="0.885906" transform="rotate(45 8.71436 39.2052)" fill="#A77F2C"/>
<circle cx="39.1246" cy="39.2052" r="0.885907" transform="rotate(135 39.1246 39.2052)" fill="#A77F2C"/>
<circle cx="8.71424" cy="8.79483" r="0.885906" transform="rotate(135 8.71424 8.79483)" fill="#A77F2C"/>
<ellipse cx="42.5419" cy="13.2483" rx="0.885906" ry="0.885905" transform="rotate(60 42.5419 13.2483)" fill="#A77F2C"/>
<ellipse cx="5.29707" cy="34.7517" rx="0.885906" ry="0.885906" transform="rotate(60 5.29707 34.7517)" fill="#A77F2C"/>
<ellipse cx="34.6711" cy="42.6224" rx="0.885906" ry="0.885906" transform="rotate(150 34.6711 42.6224)" fill="#A77F2C"/>
<ellipse cx="13.1677" cy="5.37752" rx="0.885906" ry="0.885906" transform="rotate(150 13.1677 5.37752)" fill="#A77F2C"/>
<circle cx="44.6901" cy="18.4345" r="0.885906" transform="rotate(75 44.6901 18.4345)" fill="#A77F2C"/>
<ellipse cx="3.14878" cy="29.5654" rx="0.885906" ry="0.885906" transform="rotate(75 3.14878 29.5654)" fill="#A77F2C"/>
<ellipse cx="29.4849" cy="44.7706" rx="0.885907" ry="0.885906" transform="rotate(165 29.4849 44.7706)" fill="#A77F2C"/>
<ellipse cx="18.354" cy="3.22934" rx="0.885906" ry="0.885906" transform="rotate(165 18.354 3.22934)" fill="#A77F2C"/>
<ellipse cx="44.6902" cy="29.5655" rx="0.885906" ry="0.885906" transform="rotate(105 44.6902 29.5655)" fill="#A77F2C"/>
<ellipse cx="3.14882" cy="18.4345" rx="0.885906" ry="0.885906" transform="rotate(105 3.14882 18.4345)" fill="#A77F2C"/>
<circle cx="18.354" cy="44.7706" r="0.885906" transform="rotate(-165 18.354 44.7706)" fill="#A77F2C"/>
<ellipse cx="29.485" cy="3.22935" rx="0.885907" ry="0.885906" transform="rotate(-165 29.485 3.22935)" fill="#A77F2C"/>
<circle cx="42.5419" cy="34.7517" r="0.885906" transform="rotate(120 42.5419 34.7517)" fill="#A77F2C"/>
<ellipse cx="5.29703" cy="13.2483" rx="0.885906" ry="0.885906" transform="rotate(120 5.29703 13.2483)" fill="#A77F2C"/>
<ellipse cx="13.1677" cy="42.6224" rx="0.885906" ry="0.885905" transform="rotate(-150 13.1677 42.6224)" fill="#A77F2C"/>
<ellipse cx="34.6711" cy="5.37754" rx="0.885906" ry="0.885906" transform="rotate(-150 34.6711 5.37754)" fill="#A77F2C"/>
</svg>
