<svg width="161" height="160" viewBox="0 0 161 160" fill="none" xmlns="http://www.w3.org/2000/svg">
<path d="M100.411 33.7777C105.033 33.7777 108.944 37.75 108.944 42.4444V117.556C108.944 122.431 105.033 126.222 100.411 126.222H60.5889C55.7889 126.222 52.0555 122.431 52.0555 117.556V42.4444C52.0555 37.75 55.7889 33.7777 60.5889 33.7777H100.411ZM80.5 120.444C83.5222 120.444 86.1889 117.917 86.1889 114.667C86.1889 111.597 83.5222 108.889 80.5 108.889C77.3 108.889 74.8111 111.597 74.8111 114.667C74.8111 117.917 77.3 120.444 80.5 120.444Z" fill="#3B3240"/>
<path d="M76.762 88.8889C75.8537 88.8889 75.155 88.4977 74.4563 87.6089L65.1288 76.2311C64.7445 75.6977 64.5 75.0933 64.5 74.4889C64.5 73.28 65.4432 72.32 66.5961 72.32C67.3297 72.32 67.9585 72.5689 68.5873 73.4222L76.6223 83.52L92.4127 58.0977C92.9367 57.3155 93.6004 56.8889 94.2991 56.8889C95.417 56.8889 96.5 57.7066 96.5 58.9155C96.5 59.4844 96.1856 60.1244 95.8712 60.6222L78.893 87.6089C78.369 88.4266 77.6354 88.8889 76.762 88.8889Z" fill="#6DE0A8"/>
</svg>
