<svg width="25" height="21" viewBox="0 0 25 21" fill="none" xmlns="http://www.w3.org/2000/svg">
<path d="M12.5 13.5C11.1328 13.5 9.92188 12.7969 9.21875 11.625C8.55469 10.4922 8.55469 9.04688 9.21875 7.875C9.92188 6.74219 11.1328 6 12.5 6C13.8281 6 15.0391 6.74219 15.7422 7.875C16.4062 9.04688 16.4062 10.4922 15.7422 11.625C15.0391 12.7969 13.8281 13.5 12.5 13.5ZM10.1953 14.75H14.7656C17.6562 14.75 20 17.0938 20 19.9844C20 20.5703 19.5312 21 18.9453 21H6.01562C5.42969 21 5 20.5312 5 19.9844C5 17.0938 7.30469 14.75 10.1953 14.75Z" fill="#003737"/>
<path opacity="0.4" d="M8.75 4.125C8.75 5.25781 8.125 6.27344 7.1875 6.85938C6.21094 7.40625 5 7.40625 4.0625 6.85938C3.08594 6.27344 2.5 5.25781 2.5 4.125C2.5 3.03125 3.08594 2.01562 4.0625 1.42969C5 0.882812 6.21094 0.882812 7.1875 1.42969C8.125 2.01562 8.75 3.03125 8.75 4.125ZM23.125 4.125C23.125 5.25781 22.5 6.27344 21.5625 6.85938C20.5859 7.40625 19.375 7.40625 18.4375 6.85938C17.4609 6.27344 16.875 5.25781 16.875 4.125C16.875 3.03125 17.4609 2.01562 18.4375 1.42969C19.375 0.882812 20.5859 0.882812 21.5625 1.42969C22.5 2.01562 23.125 3.03125 23.125 4.125ZM4.14062 8.5H5.82031C6.44531 8.5 7.03125 8.65625 7.57812 8.89062C7.5 9.16406 7.5 9.47656 7.5 9.75C7.5 11.2734 8.125 12.6016 9.17969 13.5H9.14062H0.820312C0.351562 13.5 0 13.1484 0 12.6797C0 10.375 1.83594 8.5 4.14062 8.5ZM15.7812 13.5C16.8359 12.6016 17.5 11.2734 17.5 9.75C17.5 9.47656 17.4609 9.16406 17.4219 8.89062C17.9297 8.65625 18.5156 8.5 19.1406 8.5H20.8203C23.125 8.5 25 10.375 25 12.6797C25 13.1484 24.6094 13.5 24.1406 13.5H15.8203H15.7812Z" fill="#003737"/>
</svg>
