<svg width="23" height="21" viewBox="0 0 23 21" fill="none" xmlns="http://www.w3.org/2000/svg">
<path d="M10.6406 1.3125C11.1484 0.921875 11.8516 0.921875 12.3203 1.3125L22.3203 10.0625C22.8281 10.5312 22.8672 11.3125 22.4375 11.8594C21.9688 12.3672 21.1875 12.4062 20.6406 11.9766L11.5 3.92969L2.32031 11.9766C1.77344 12.4062 0.992188 12.3672 0.523438 11.8594C0.09375 11.3125 0.132812 10.5312 0.640625 10.0625L10.6406 1.3125Z" fill="#003737"/>
<path opacity="0.4" d="M2.75 11.5859L11.5 3.92969L20.25 11.5859V19.4375C20.25 20.2969 19.5469 21 18.6875 21H15.5625C14.6641 21 14 20.3359 14 19.4375V16C14 15.2969 13.4141 14.75 12.75 14.75H10.25C9.54688 14.75 9 15.2969 9 16V19.4375C9 20.3359 8.29688 21 7.4375 21H4.3125C3.45312 21 2.75 20.3359 2.75 19.4375V11.5859Z" fill="#003737"/>
</svg>
