<svg width="21" height="20" viewBox="0 0 21 20" fill="none" xmlns="http://www.w3.org/2000/svg">
<path d="M18 3.75C18 4.45312 17.4141 5 16.75 5H1.75C1.04688 5 0.5 4.45312 0.5 3.75C0.5 3.08594 1.04688 2.5 1.75 2.5H16.75C17.4141 2.5 18 3.08594 18 3.75ZM18 16.25C18 16.9531 17.4141 17.5 16.75 17.5H1.75C1.04688 17.5 0.5 16.9531 0.5 16.25C0.5 15.5859 1.04688 15 1.75 15H16.75C17.4141 15 18 15.5859 18 16.25Z" fill="#003737"/>
<path opacity="0.4" d="M3 10C3 9.33594 3.54688 8.75 4.25 8.75H19.25C19.9141 8.75 20.5 9.33594 20.5 10C20.5 10.7031 19.9141 11.25 19.25 11.25H4.25C3.54688 11.25 3 10.7031 3 10Z" fill="#003737"/>
</svg>
