<svg width="305" height="263" viewBox="0 0 305 263" fill="none" xmlns="http://www.w3.org/2000/svg">
<path d="M152.5 263C236.723 263 305 240.519 305 212.787C305 185.055 236.723 162.574 152.5 162.574C68.2766 162.574 0 185.055 0 212.787C0 240.519 68.2766 263 152.5 263Z" fill="#8E63C0"/>
<path d="M152.5 251.012C115.307 251.012 80.3354 246.906 54.0313 239.453C41.2286 235.824 31.1735 231.598 24.1438 226.889C16.8226 221.984 13.1112 216.759 13.1112 211.359C13.1112 205.96 16.8226 200.733 24.1438 195.83C31.172 191.121 41.227 186.894 54.0313 183.266C80.3369 175.813 115.307 171.707 152.5 171.707C189.693 171.707 224.665 175.811 250.969 183.266C263.771 186.894 273.827 191.121 280.855 195.83C288.176 200.735 291.887 205.96 291.887 211.359C291.887 216.759 288.176 221.985 280.855 226.889C273.827 231.598 263.771 235.824 250.969 239.453C224.663 246.906 189.693 251.012 152.5 251.012ZM152.5 172.138C75.8776 172.138 13.5414 189.732 13.5414 211.359C13.5414 232.986 75.8776 250.581 152.5 250.581C229.122 250.581 291.459 232.986 291.459 211.359C291.459 189.732 229.122 172.138 152.5 172.138Z" fill="#431573"/>
<path d="M134.609 214.743L139.97 208.828C140.131 208.652 140.354 208.554 140.585 208.56L167.119 209.345C167.835 209.366 168.186 210.282 167.69 210.831L162.328 216.745C162.168 216.922 161.944 217.02 161.713 217.013L135.179 216.229C134.464 216.207 134.112 215.291 134.609 214.743Z" fill="#464646"/>
<path d="M135.961 214.422L140.835 209.465C140.975 209.334 141.17 209.261 141.372 209.267L164.495 209.848C165.119 209.864 166.465 209.707 166.032 210.115L160.808 215.425C160.668 215.556 159.985 215.547 159.783 215.543L137.295 214.977C136.67 214.961 135.526 214.83 135.96 214.422H135.961Z" fill="white"/>
<path d="M165.628 211.19L163.602 211.176C163.454 211.176 163.311 211.229 163.2 211.328L161.166 213.146C161.021 213.277 161.112 213.518 161.306 213.518H162.685L165.627 211.19H165.628Z" fill="#464646"/>
<path d="M74.3835 132.168L73.7389 133.905L74.5839 134.175L75.3364 132.4L74.3835 132.168Z" fill="black"/>
<path d="M85.3051 121.883C84.494 122.508 83.5334 122.8 82.5851 122.787C81.2945 122.768 80.0239 122.174 79.1774 121.063C79.0679 120.92 78.9692 120.77 78.8813 120.62C78.1967 119.456 78.1057 118.072 78.5529 116.861C78.5699 116.815 78.5868 116.77 78.6053 116.725C78.889 116.027 79.3563 115.395 79.9931 114.905C81.9097 113.431 84.6544 113.797 86.1208 115.724C87.1816 117.119 87.2849 118.946 86.534 120.409C86.5124 120.451 86.4893 120.494 86.4662 120.536C86.1824 121.044 85.7939 121.505 85.3051 121.881V121.883Z" fill="black"/>
<path d="M75.176 133.735L73.5739 133.062L73.9286 132.25L73.9795 132.132L78.2615 122.078L78.317 121.947L78.4989 121.517L78.5544 121.385L78.8798 120.62V120.617C81.02 121.643 82.417 122.661 82.5835 122.787C82.5943 122.794 82.6005 122.799 82.6005 122.799L82.1657 123.437L82.0855 123.557L81.7802 124.006L81.7 124.124L75.725 132.917L75.6525 133.027L75.1745 133.736L75.176 133.735Z" fill="#739392"/>
<path d="M78.0302 126.973L79.4719 124.251C79.5197 124.16 79.529 124.059 79.4966 123.963C79.4642 123.867 79.3963 123.791 79.3054 123.749L79.1882 123.693C79.0093 123.611 78.7934 123.687 78.7071 123.867L78.0086 125.331L77.802 125.772L77.3856 126.643C77.3163 126.787 77.3486 126.957 77.4643 127.066C77.5121 127.112 77.5691 127.142 77.6308 127.156C77.6786 127.167 77.7249 127.168 77.7727 127.16C77.8852 127.142 77.9808 127.072 78.0348 126.971L78.0302 126.973ZM77.748 127.033C77.6755 127.044 77.6031 127.022 77.5506 126.971C77.4751 126.901 77.455 126.791 77.4982 126.698L78.8227 123.923C78.8721 123.822 78.9831 123.771 79.0864 123.794C79.1018 123.797 79.1188 123.802 79.1327 123.809L79.2499 123.865C79.31 123.892 79.3532 123.941 79.3732 124.005C79.3933 124.067 79.3871 124.132 79.3578 124.189L77.9161 126.911C77.8806 126.976 77.8205 127.021 77.748 127.033Z" fill="#F1FFFE"/>
<path d="M75.728 132.917L75.6556 133.025L73.9286 132.25L73.981 132.132L75.728 132.917Z" fill="#F1FFFE"/>
<path d="M86.4662 120.538C85.0923 119.544 83.4501 118.653 81.5073 117.838C80.6283 117.47 79.6199 117.083 78.5529 116.86C78.5698 116.813 78.5868 116.768 78.6053 116.723C79.6739 116.951 80.6823 117.336 81.5612 117.706C83.5072 118.521 85.1524 119.414 86.534 120.409C86.5124 120.451 86.4893 120.494 86.4662 120.536V120.538Z" fill="#F1FFFE"/>
<path d="M82.087 123.557C81.0401 122.647 79.8158 121.951 78.4989 121.517L78.5544 121.385C79.8805 121.824 81.111 122.523 82.1657 123.437L82.0855 123.557H82.087Z" fill="#F1FFFE"/>
<path d="M81.7015 124.123C81.1881 123.707 80.6268 123.292 80.0254 122.929C79.4333 122.571 78.8443 122.286 78.2614 122.077L78.317 121.945C78.906 122.156 79.5027 122.444 80.0994 122.805C80.7039 123.171 81.2667 123.588 81.7833 124.005L81.7031 124.123H81.7015Z" fill="#F1FFFE"/>
<path d="M99.8765 120.668L97.3754 169.81C97.3754 169.81 123.709 170.866 142.988 168.194L136.831 118.427L99.8765 120.668Z" fill="black"/>
<path d="M147.837 136.441C149.669 137.19 152.142 134.316 155.255 132.098C150.821 128.692 141.833 119.182 135.119 116.482C128.162 113.684 123.809 113.83 118.869 114.151C112.058 114.592 108.275 115.607 102.303 118.696C96.3315 121.785 85.4315 129.536 81.606 133.791C77.7788 138.045 104.74 151.972 104.74 151.972L104.953 159.176C109.711 158.997 114.448 158.941 119.202 158.86C119.202 158.849 119.2 158.837 119.199 158.826C119.199 158.837 119.2 158.849 119.202 158.86C122.17 158.809 125.144 158.747 128.134 158.638C130.353 158.638 132.572 158.09 134.791 157.705L134.655 152.227C134.655 152.227 133.11 149.596 133.654 149.294C133.977 145.998 134.072 147.495 133.955 144.104L134.886 141.717L134.307 127.089M102.246 143.639L90.1869 135.305C96.9129 130.001 103.637 127.087 103.637 127.087C104.333 130.875 104.738 143.639 104.738 143.639H102.245H102.246Z" fill="#FFC12A"/>
<path d="M169.921 120.139C166.444 123.368 151.29 137.224 148.004 136.491C147.873 136.461 147.738 135.934 147.6 135.861C148.073 132.783 149.046 130.297 149.65 127.263L160.33 118.619" fill="#FFC12A"/>
<path d="M119.637 154.52C119.484 156.779 119.49 159.076 118.966 161.242C118.364 164.189 117.721 167.75 117.071 170.661C119.41 170.952 119.408 169.562 121.687 170.105L125.4 170.971L156.768 179.991C157.689 179.374 158.663 178.26 159.396 176.808C162.533 170.588 158.822 163.067 152.044 161.588L119.64 154.519L119.637 154.52Z" fill="#FFC12A"/>
<path d="M156.767 179.993C155.957 176.134 155.117 172.282 154.235 168.438L105.196 181.175L109.725 202.133L116.056 189.698L156.767 179.993Z" fill="#FFC12A"/>
<path d="M105.195 181.175L109.723 202.133L116.055 189.698L130.904 186.075L128.082 175.018L105.195 181.175Z" fill="#028BAA"/>
<path d="M119.473 156.187C119.626 158.445 119.62 160.742 120.144 162.908C120.745 165.855 121.035 167.194 121.687 170.105C119.348 170.396 118.021 170.74 115.743 171.282L113.762 171.718L82.3446 181.659C81.424 181.042 80.4495 179.928 79.7171 178.475C76.5792 172.256 80.2907 164.734 87.0691 163.256L119.473 156.187Z" fill="#FFC12A"/>
<path d="M82.343 181.66C83.1525 177.801 83.9929 173.95 84.8749 170.106L133.913 182.843L129.385 203.801L123.053 191.366L82.343 181.66Z" fill="#FFC12A"/>
<path d="M111.763 179.793C111.961 179.723 131.597 172.724 147.6 170.241L111.763 179.793Z" fill="#305777"/>
<path d="M134.996 145.726L134.888 141.715L134.308 127.087C136.815 128.927 139.218 131.157 141.697 132.573L147.032 124.075C142.719 120.699 138.086 117.672 135.121 116.48C128.163 113.683 123.811 113.828 118.87 114.149C112.059 114.591 108.277 115.606 102.305 118.695C99.4432 120.175 95.4526 122.728 91.6502 125.449L95.3478 131.643C99.9721 128.678 103.64 127.086 103.64 127.086C104.336 130.874 104.741 143.637 104.741 143.637L103.873 151.515C104.419 151.805 104.741 151.971 104.741 151.971L104.806 154.145L134.694 153.64" fill="#6768E6"/>
<path d="M104.805 154.147L104.943 158.821L133.957 157.856C134.236 157.803 134.513 157.754 134.792 157.705L134.692 153.642L104.805 154.147Z" fill="#009DD0"/>
<path d="M134.795 157.826L134.792 157.704C134.513 157.752 134.236 157.803 133.957 157.854L134.795 157.826Z" fill="#009DD0"/>
<path d="M119.891 120.211C124.611 120.367 127.027 116.788 128.11 114.411C124.753 113.822 121.922 113.951 118.869 114.149C115.961 114.338 113.606 114.633 111.395 115.147C112.688 117.165 115.324 120.059 119.889 120.209L119.891 120.211Z" fill="black"/>
<path d="M115.408 128.214C115.408 128.214 119.583 126.582 123.989 128.681L119.546 139.792L115.408 128.214Z" fill="#009DD0"/>
<path d="M133.913 182.841L129.385 203.799L123.053 191.364L108.171 187.877L111.028 176.684L133.913 182.841Z" fill="#009DD0"/>
<path d="M106.943 151.137C107.407 150.088 104.393 148.884 104.393 148.884C104.393 148.884 107.679 149.894 107.833 148.884C107.942 148.171 106.454 147.594 105.569 147.317C106.484 147.544 108.083 147.803 108.22 146.864C108.413 145.544 104.934 145.232 104.934 145.232L104.741 143.639H102.248L99.1826 141.522C98.3962 143.181 97.1873 145.74 96.4379 147.357C100.964 150.021 104.74 151.972 104.74 151.972C104.74 151.972 106.479 152.186 106.943 151.137Z" fill="#009DD0"/>
<path d="M161.853 115.301L162.094 112.26C162.163 111.381 163.235 111 163.838 111.638L164.598 113.238C165.119 113.211 168.208 107.949 168.815 108.76C169.559 109.754 167.903 113.582 167.903 113.582C167.903 113.582 171.414 109.664 172.34 110.263C173.267 110.863 170.562 114.454 170.562 114.454C170.562 114.454 173.972 111.37 174.86 111.916C175.748 112.463 172.479 116.39 172.479 116.39C172.479 116.39 177.012 113.982 175.583 116.737C174.547 118.738 166.672 122.498 165.01 124.786L159.45 119.121L161.85 115.301H161.853Z" fill="#009DD0"/>
<path d="M119.576 116.609C118.189 116.609 117.065 115.477 117.065 114.084V109.752C117.065 108.357 118.19 107.227 119.576 107.227C120.964 107.227 122.088 108.357 122.088 109.752V114.084C122.088 115.479 120.963 116.609 119.576 116.609Z" fill="url(#paint0_linear_24602_143)"/>
<path d="M99.7099 93.0659C99.7099 93.0659 95.613 85.0623 100.328 78.5342C105.044 72.0077 109.992 72.9391 109.992 72.9391C109.992 72.9391 111.461 62.0605 126.921 63.3035C142.382 64.5465 139.986 85.2933 138.826 91.0821C137.666 96.8709 126.612 108.449 126.612 108.449C126.612 108.449 112.157 108.294 111.615 107.982C111.074 107.671 99.7099 93.0644 99.7099 93.0644V93.0659Z" fill="#854D20"/>
<path d="M139.199 90.676C138.458 90.676 137.754 90.8357 137.118 91.1193C136.117 82.2245 128.615 75.3089 119.498 75.3089C110.38 75.3089 102.991 82.1284 101.907 90.9333C101.403 90.769 100.866 90.676 100.308 90.676C97.4587 90.676 95.1489 92.9978 95.1489 95.8619C95.1489 98.7261 97.4587 101.048 100.308 101.048C101.375 101.048 102.368 100.722 103.19 100.163C105.902 106.519 112.181 110.972 119.498 110.972C126.814 110.972 133.28 106.378 135.923 99.8668C136.814 100.603 137.955 101.046 139.199 101.046C142.049 101.046 144.359 98.7246 144.359 95.8604C144.359 92.9962 142.049 90.6745 139.199 90.6745V90.676Z" fill="#FFB79A"/>
<path d="M103.787 87.5282H134.979L135.269 93.472H103.207L103.787 87.5282Z" fill="#6768E6"/>
<path d="M116.021 92.1329C116.597 92.1329 117.065 91.6631 117.065 91.0836C117.065 90.5041 116.597 90.0344 116.021 90.0344C115.444 90.0344 114.977 90.5041 114.977 91.0836C114.977 91.6631 115.444 92.1329 116.021 92.1329Z" fill="#351905"/>
<path d="M128.544 92.1329C129.121 92.1329 129.588 91.6631 129.588 91.0836C129.588 90.5041 129.121 90.0344 128.544 90.0344C127.968 90.0344 127.5 90.5041 127.5 91.0836C127.5 91.6631 127.968 92.1329 128.544 92.1329Z" fill="#351905"/>
<path d="M137.118 91.1177L136.582 81.7192L131.713 74.4146L117.18 73.6381L107.827 76.8247L101.384 85.6823L101.907 90.9318C101.907 90.9318 103.42 93.7634 103.111 96.0944C102.802 98.4255 101.384 100.933 101.384 100.933C101.384 100.933 105.198 112.336 120.195 112.491C135.192 112.646 137.048 100.577 137.048 100.577C137.048 100.577 136.183 96.2417 137.118 91.1177ZM133.878 96.406C133.337 98.9695 130.168 99.5925 125.915 98.193C121.664 96.795 115.866 98.038 112.927 98.737C109.989 99.436 106.124 98.6595 104.578 96.4834C103.031 94.3074 104.578 89.1013 104.578 89.1013C110.221 87.7808 114.55 77.7562 114.55 77.7562C119.111 85.8373 132.638 83.2738 132.638 83.2738C134.339 88.2474 134.416 93.8409 133.875 96.406H133.878Z" fill="#854D20"/>
<path d="M110.297 89.3369C110.24 87.5561 116.597 85.5382 117.044 87.1857C117.492 88.8332 110.368 91.5471 110.297 89.3369Z" fill="#351905"/>
<path d="M124.75 86.3518C124.367 88.0102 131.57 89.4113 131.779 87.911C131.987 86.4107 125.186 84.4579 124.75 86.3518Z" fill="#351905"/>
<path d="M119.159 101.491C119.166 102.525 120.136 103.356 121.326 103.346C122.514 103.337 123.473 102.491 123.465 101.459C123.464 101.225 123.411 100.998 123.319 100.794C123.004 100.09 122.218 99.5956 121.297 99.6018C120.494 99.608 119.795 99.997 119.43 100.57C119.254 100.843 119.159 101.156 119.16 101.491H119.159Z" fill="#D1836B"/>
<path d="M119.428 100.571C121.959 101.69 123.317 100.795 123.317 100.795C123.003 100.09 122.216 99.5941 121.296 99.6018C120.492 99.608 119.794 99.997 119.428 100.571Z" fill="white"/>
<path d="M121.328 103.568C120.699 103.573 120.105 103.363 119.657 102.977C119.197 102.585 118.943 102.057 118.938 101.491C118.936 101.122 119.041 100.763 119.243 100.45C119.661 99.7956 120.448 99.3848 121.296 99.3802C122.284 99.3724 123.158 99.8916 123.519 100.701C123.627 100.941 123.684 101.195 123.686 101.455C123.693 102.457 122.899 103.301 121.835 103.515C121.672 103.548 121.502 103.566 121.33 103.568H121.328ZM119.613 100.691C119.456 100.936 119.377 101.204 119.377 101.49C119.381 101.924 119.581 102.333 119.94 102.641C120.309 102.957 120.801 103.129 121.323 103.125C122.387 103.117 123.249 102.37 123.243 101.459C123.243 101.26 123.2 101.066 123.117 100.884C122.83 100.243 122.099 99.8173 121.297 99.8235C121.154 99.8235 121.012 99.8389 120.875 99.8668C120.346 99.9738 119.883 100.27 119.613 100.691Z" fill="#AF5945"/>
<path d="M97.8997 173.488C97.8997 173.488 118.556 177.685 133.915 182.843L97.8997 173.488Z" fill="#305777"/>
<path d="M60.2454 149.714L58.8854 144.676L39.6265 147.479L40.8061 150.444C40.8061 150.444 41.1314 156.36 41.2548 163.665L59.7843 163.085C59.5237 156.129 59.735 152.082 60.2438 149.713L60.2454 149.714Z" fill="#CC0C0C"/>
<path d="M51.6922 138.932C48.3462 138.788 43.2747 138.851 40.6997 140.63C38.1246 142.41 22.514 170.611 22.514 170.611C22.514 170.611 19.6166 174.548 20.3676 175.033C21.1185 175.518 23.5856 172.175 23.5856 172.175C23.5856 172.175 21.7075 176.867 22.5664 177.191C23.4252 177.515 25.2494 172.823 25.2494 172.823C25.2494 172.823 24.0698 176.953 25.3573 177.206C26.6448 177.46 27.0211 171.582 27.0211 171.582C27.0211 171.582 28.8452 174.061 29.6501 173.522C30.455 172.983 28.1482 170.125 28.1482 170.125L40.8091 150.443C40.8091 150.443 42.4189 179.722 39.8439 188.458C37.2688 197.193 29.3294 212.292 29.3294 212.292L37.3768 219.569L36.5179 210.89C36.5179 210.89 45.7449 197.517 47.4611 189.213C49.1773 180.909 50.6791 169.909 50.6791 169.909C50.6791 169.909 53.5672 189.532 51.6937 219.569H64.734L58.4043 213.239C58.4043 213.239 60.765 183.203 59.9062 165.825C59.0473 148.45 60.6972 146.697 62.8698 146.292C65.0424 145.888 77.0325 146.656 78.8027 143.744C80.5729 140.832 81.0956 131.855 80.1303 127.445C80.1303 127.445 82.4031 123.664 81.8203 123.259C81.2374 122.855 79.0849 125.908 79.0849 125.908C79.0849 125.908 79.2853 122.714 78.1797 122.794C77.0726 122.875 77.3548 126.272 77.3548 126.212C77.3548 126.151 74.4775 122.532 73.6726 123.138C72.8677 123.744 75.2624 126.94 75.2624 126.94C75.2624 126.94 73.2301 126.071 72.9495 126.819C72.6673 127.568 75.1221 129.327 75.1221 129.327L74.8199 139.902C74.8199 139.902 66.6707 139.578 51.6937 138.932H51.6922Z" fill="#FFB79A"/>
<path d="M60.6571 148.296H38.7383V153.659L40.8061 150.444C40.8061 150.444 41.1592 156.856 41.2702 164.573H59.846C59.4204 154.947 59.8183 150.446 60.6571 148.296Z" fill="#CC0C0C"/>
<path d="M67.7577 139.614C63.8952 139.454 58.5014 139.226 51.6907 138.932C48.3446 138.788 43.2732 138.851 40.6981 140.63C39.6959 141.323 36.7137 146.026 33.4479 151.507C34.8094 152.561 36.8201 154.173 37.8656 155.013L40.8045 150.444C40.8045 150.444 45.4042 152.075 52.2442 151.994C55.9788 151.951 58.614 150.773 60.2438 149.713C60.8205 147.036 61.7781 146.494 62.8667 146.291C63.6099 146.153 65.5019 146.151 67.7408 146.092C67.7346 144.322 67.7454 141.677 67.7562 139.611L67.7577 139.614Z" fill="#FF6868"/>
<path d="M39.8408 188.458C38.5965 192.682 36.0985 198.39 33.8488 203.162C35.6375 204.351 37.8733 205.86 39.1947 206.755C42.0597 202.138 46.3432 194.608 47.458 189.213C49.1742 180.909 50.6761 169.909 50.6761 169.909C50.6761 169.909 52.7731 184.182 52.2304 207.007H58.8391C59.476 197.276 60.5183 178.291 59.9015 165.825C59.8707 165.195 59.8429 164.59 59.8183 164L41.2656 164.489C41.3936 173.282 41.2116 183.796 39.8377 188.458H39.8408Z" fill="#FF6868"/>
<path d="M59.0781 177.028H55.7691C55.6235 177.028 55.5054 177.147 55.5054 177.293V187.17C55.5054 187.317 55.6235 187.435 55.7691 187.435H59.0781C59.2237 187.435 59.3418 187.317 59.3418 187.17V177.293C59.3418 177.147 59.2237 177.028 59.0781 177.028Z" fill="#CC0C0C"/>
<path d="M48.5367 178.129L45.2848 177.514C45.1417 177.487 45.0038 177.582 44.9769 177.726L43.1591 187.433C43.1322 187.576 43.2264 187.715 43.3695 187.742L46.6214 188.357C46.7645 188.384 46.9023 188.29 46.9293 188.146L48.747 178.439C48.774 178.295 48.6798 178.157 48.5367 178.129Z" fill="#CC0C0C"/>
<path d="M36.5148 210.89C36.5148 210.89 37.7839 209.05 39.4661 206.316C37.6728 205.053 35.5912 203.672 34.0508 202.731C31.5652 208.033 29.3247 212.292 29.3247 212.292L37.3722 219.569L36.5133 210.89H36.5148Z" fill="#CC0C0C"/>
<path d="M58.4012 213.239C58.4012 213.239 58.6109 210.577 58.8823 206.378C56.5123 206.158 53.8571 206.305 52.2458 206.442C52.1548 210.547 51.9806 214.933 51.6907 219.571H64.7309L58.4012 213.241V213.239Z" fill="#CC0C0C"/>
<path d="M33.5389 203.816L38.7152 207.52C38.9542 207.142 39.204 206.742 39.4646 206.316C37.6713 205.053 35.5897 203.672 34.0493 202.731C33.8766 203.098 33.7069 203.46 33.5373 203.816H33.5389Z" fill="#FFC12A"/>
<path d="M52.218 207.506L58.7929 207.75C58.8222 207.313 58.8515 206.855 58.8823 206.377C56.5123 206.156 53.8571 206.304 52.2458 206.44C52.238 206.79 52.2257 207.153 52.2165 207.506H52.218Z" fill="#FFC12A"/>
<path d="M51.5442 141.131C50.3954 141.131 49.4656 140.195 49.4656 139.042V136.264C49.4656 135.11 50.397 134.175 51.5442 134.175C52.6929 134.175 53.6227 135.111 53.6227 136.264V139.042C53.6227 140.196 52.6914 141.131 51.5442 141.131Z" fill="url(#paint1_linear_24602_143)"/>
<path d="M51.6367 111.204C43.8144 111.204 37.4739 114.575 37.4739 122.438C37.4739 122.501 37.4786 122.565 37.4786 122.628C37.1918 122.565 36.8957 122.528 36.5904 122.528C34.3392 122.528 32.5135 124.363 32.5135 126.626C32.5135 128.888 34.3392 130.724 36.5904 130.724C37.679 130.724 38.6643 130.293 39.3967 129.594C41.8515 133.826 46.4126 136.672 51.6382 136.672C59.4605 136.672 65.801 130.299 65.801 122.436C65.801 114.574 59.4605 111.203 51.6382 111.203L51.6367 111.204Z" fill="#FFB79A"/>
<path d="M35.7839 122.607L37.4338 122.628C37.4338 122.628 38.4268 124.51 42.2817 124.307C46.1366 124.105 53.837 120.607 58.2825 120.648C62.7264 120.688 61.1998 122.041 65.8411 122.568C65.8411 122.568 67.8472 113.955 64.936 106.028C64.936 106.028 62.7094 107.565 61.6007 109.385C61.6007 109.385 52.8224 108.656 43.8946 109.465C43.8946 109.465 42.2817 106.716 40.9448 105.744C40.9448 105.744 33.8503 111.362 35.7855 122.607H35.7839Z" fill="black"/>
<path d="M51.7909 119.842C52.1911 119.842 52.5156 119.516 52.5156 119.113C52.5156 118.711 52.1911 118.385 51.7909 118.385C51.3906 118.385 51.0662 118.711 51.0662 119.113C51.0662 119.516 51.3906 119.842 51.7909 119.842Z" fill="#F5F7F6"/>
<path d="M62.6354 119.842C63.0356 119.842 63.3601 119.516 63.3601 119.113C63.3601 118.711 63.0356 118.385 62.6354 118.385C62.2351 118.385 61.9107 118.711 61.9107 119.113C61.9107 119.516 62.2351 119.842 62.6354 119.842Z" fill="#F5F7F6"/>
<path d="M47.4549 116.293C47.5659 117.102 52.605 116.429 52.4138 115.722C52.2242 115.015 47.3269 115.369 47.4549 116.293Z" fill="#F5F7F6"/>
<path d="M60.472 114.887C60.3302 115.691 65.3307 116.61 65.3662 115.879C65.4017 115.147 60.6355 113.968 60.472 114.887Z" fill="#F5F7F6"/>
<path d="M57.5732 120.984L59.4235 121.995C59.4235 121.995 58.2563 123.329 57.2509 123.289" stroke="#E08B77" stroke-linecap="round" stroke-linejoin="round"/>
<path d="M53.3745 126.45C53.3745 126.45 55.0644 127.946 59.2894 127.056" stroke="#E08B77" stroke-linecap="round" stroke-linejoin="round"/>
<path d="M59.7843 163.085L41.2548 163.665C41.2686 164.449 41.2794 165.249 41.2871 166.059C45.5861 165.9 55.3913 165.529 59.8815 165.36C59.8445 164.57 59.8121 163.81 59.7843 163.085Z" fill="black"/>
<path d="M49.3083 163.412L49.5211 165.751L52.0175 165.658L51.8572 163.333L49.3083 163.412Z" fill="#FFC12A"/>
<path d="M198.12 114.248C198.12 114.248 189.177 121.843 182.58 114.639C182.58 114.639 175.56 113.205 177.941 105.984L177.422 99.3414C177.422 99.3414 170.928 88.4767 180.409 85.4033C180.409 85.4033 181.489 75.8064 191.004 77.9112C191.004 77.9112 192.677 73.3545 196.928 74.3139C196.928 74.3139 207.341 67.4386 209.657 79.365C209.657 79.365 216.939 82.0742 214.468 88.8317C214.468 88.8317 222.908 90.7489 219.269 96.9004C219.269 96.9004 225.932 101.352 220.478 104.547C220.478 104.547 226.011 113.985 215.638 116.306C215.638 116.306 212.101 122.514 206.443 117.162C206.443 117.162 195.844 121.858 194.74 114.161" fill="#5D3C4B"/>
<path d="M190.31 166.692L197.984 167.273L190.31 166.692ZM208.301 155.511C208.301 155.511 219.285 151.156 228.888 142.546C228.888 142.546 215.345 124.388 207.663 120.976C199.981 117.565 199.409 117.571 194.133 117.661C183.971 117.832 169.079 127.587 160.295 134.15C160.295 134.15 165.039 144.17 182.799 154.035L182.819 155.624M218.825 141.477C216.304 143.056 211.54 146.154 211.54 146.154L209.507 145.243L209.222 132.07L218.825 141.478V141.477ZM180.159 146.015C179.961 145.801 174.126 138.926 170.717 135.852L182.024 130.479L182.509 145.534C182.509 145.534 180.36 146.227 180.159 146.015Z" fill="#FF6868"/>
<path d="M177.373 150.765L180.005 148.772C180.005 148.772 180.019 147.53 180.039 145.878C179.177 144.885 173.894 138.718 170.717 135.852L182.024 130.479C182.024 130.479 182.397 129.09 181.91 120.939C174.1 124.403 165.937 129.933 160.295 134.149C160.295 134.149 164.055 142.072 177.375 150.765H177.373Z" fill="#FFB79A"/>
<path d="M208.559 121.429C208.729 124.45 209.045 129.914 209.222 132.067L218.825 141.475C216.986 142.628 213.957 144.586 212.452 145.561L212.933 147.783L214.802 152.36C218.773 150.195 224.008 146.921 228.888 142.544C228.888 142.544 216.35 125.738 208.559 121.429Z" fill="#FFB79A"/>
<path d="M182.779 149.516L182.671 153.053L208.971 153.861L209.078 150.324L182.779 149.516Z" fill="#432A40"/>
<path d="M177.674 132.546L182.022 130.479C182.022 130.479 182.395 129.09 181.908 120.939C178.496 122.453 175.015 124.361 171.708 126.381L177.674 132.545V132.546Z" fill="#6768E9"/>
<path d="M208.559 121.429C208.729 124.45 209.045 129.914 209.222 132.067L211.413 134.214L219.507 131.192C215.866 127.18 211.802 123.222 208.559 121.427V121.429Z" fill="#6768E9"/>
<path d="M219.507 183.012C222.842 186.721 230.498 179.35 230.498 175.554C228.532 169.474 206.134 165.345 199.352 163.68L196.003 174.991L217.331 179.08C217.667 180.662 219.286 183.463 219.507 183.012Z" fill="#FFB79A"/>
<path d="M194.877 192.7L202.163 184.151C202.163 184.151 211.237 185.558 223.161 185.765C226.856 185.828 230.024 183.13 230.569 179.457C230.708 178.519 230.694 178.623 230.835 177.671C230.943 177.181 230.515 175.635 230.415 175.224L195.772 175.476L194.879 192.703L194.877 192.7Z" fill="#FFB79A"/>
<path d="M196.919 197.448L182.061 179.615L191.746 169.903L178.015 162.592C176.408 164.919 172.442 167.925 169.457 170.814C167.3 172.902 166.782 176.183 168.177 178.847C171.353 184.911 178.451 196.329 189.77 203.367C189.77 203.367 190.564 209.783 191.178 211.175C190.861 209.459 196.919 197.448 196.919 197.448Z" fill="#FFB79A"/>
<path d="M208.576 174.56L195.053 174.971L194.592 193.502L201.938 185.38C201.938 185.38 204.493 185.372 208.67 185.349C209.267 179.957 208.809 176.022 208.577 174.56H208.576Z" fill="#FF6868"/>
<path d="M208.301 155.511C208.301 155.511 208.928 155.263 210.001 154.772C209.365 154.198 208.986 153.874 208.986 153.874L183.154 153.079L182.019 153.591C182.28 153.738 182.532 153.887 182.799 154.034L182.819 155.622C182.819 155.622 172.679 162.14 166.371 171.795C180.275 182.637 220.429 173.327 224.928 171.165C214.273 162.093 208.661 161.599 208.301 155.511Z" fill="#6768E9"/>
<path d="M189.067 214.844C190.329 213.345 197.824 197.51 197.824 197.51L189.499 188.584C187.878 191.084 184.893 194.951 183.151 198.639C185.454 200.394 185.855 200.775 188.23 202.31C188.23 202.31 188.446 213.366 189.067 214.844Z" fill="#FF6868"/>
<path d="M226.276 142.472L226.331 140.661L217.723 140.396L218.825 141.477C218.478 141.694 218.082 141.945 217.669 142.207L226.276 142.472Z" fill="#432A40"/>
<path d="M164.051 133.219L163.673 135.184L171.648 136.732C171.324 136.418 171.008 136.119 170.715 135.854L172.718 134.902L164.051 133.219Z" fill="#432A40"/>
<path d="M162.182 137.109C164.026 136.689 165.344 135.609 165.384 134.305C165.415 133.309 164.691 132.399 163.537 131.787C162.387 132.602 161.298 133.397 160.293 134.149C160.293 134.149 160.82 135.262 162.182 137.109Z" fill="#FF6868"/>
<path d="M185.673 154.33C186.383 153.592 182.915 151.346 182.915 151.346C182.915 151.346 186.987 152.957 187.268 151.619C187.414 150.925 186.238 150.286 185.071 149.829C186.543 150.215 188.252 150.455 188.395 149.548C188.651 147.933 182.802 147.168 182.802 147.168L182.509 145.537C182.509 145.537 180.36 146.23 180.159 146.018C180.076 145.929 179.006 144.674 177.546 143.025L173.856 148.338C176.386 150.195 179.344 152.118 182.799 154.038C182.799 154.038 184.966 155.072 185.675 154.334L185.673 154.33Z" fill="#6768E9"/>
<path d="M211.54 146.153L209.507 145.241L209.446 147.262C209.446 147.262 204.05 148.512 204.464 149.629C204.875 150.746 209.197 149.775 209.197 149.775C209.197 149.775 203.899 151.751 204.34 152.8C204.781 153.849 209.026 152.013 209.026 152.013C209.026 152.013 205.037 154.474 205.734 155.24C206.433 156.005 208.301 155.511 208.301 155.511C208.301 155.511 211.754 154.141 216.478 151.422L213.206 145.072C212.223 145.709 211.54 146.153 211.54 146.153Z" fill="#6768E9"/>
<path d="M225.852 138.653C224.174 139.29 223.015 140.553 222.97 142.042C222.927 143.448 223.887 144.714 225.371 145.474C226.549 144.559 227.728 143.586 228.888 142.546C228.888 142.546 227.708 140.965 225.852 138.654V138.653Z" fill="#FF6868"/>
<path d="M198.745 151.79C198.805 149.827 197.27 148.189 195.318 148.129C193.366 148.068 191.736 149.61 191.676 151.573C191.616 153.535 193.15 155.173 195.102 155.233C197.055 155.294 198.684 153.752 198.745 151.79Z" fill="#FABD6E"/>
<path d="M207.31 134.194C207.31 131.154 202.131 128.69 195.744 128.69C189.356 128.69 184.178 131.154 184.178 134.194C184.178 137.233 189.357 139.697 195.744 139.697C202.132 139.697 207.31 137.233 207.31 134.194Z" fill="#FABD6E"/>
<path d="M194.131 117.66C191.73 117.7 189.066 118.279 186.279 119.222C187.457 121.979 190.026 125.4 195.526 125.528C200.45 125.643 203.278 122.613 204.848 119.747C199.741 117.574 198.674 117.584 194.131 117.66Z" fill="#FABD6E"/>
<path d="M195.11 120.06C194.257 120.034 193.588 119.318 193.613 118.461L193.739 114.323C193.766 113.466 194.478 112.793 195.331 112.818C196.183 112.844 196.853 113.56 196.828 114.417L196.701 118.555C196.675 119.412 195.963 120.085 195.11 120.06Z" fill="url(#paint2_linear_24602_143)"/>
<path d="M178.608 107.336C180.997 107.336 182.933 105.389 182.933 102.988C182.933 100.587 180.997 98.6409 178.608 98.6409C176.219 98.6409 174.283 100.587 174.283 102.988C174.283 105.389 176.219 107.336 178.608 107.336Z" fill="url(#paint3_linear_24602_143)"/>
<path d="M213.547 99.7149C212.818 99.6932 212.136 99.8699 211.524 100.172C211.535 99.9986 211.561 99.8296 211.566 99.6545C211.833 90.8945 204.983 83.5744 196.268 83.3063C187.553 83.0382 180.27 89.9228 180.004 98.6827C179.737 107.443 186.586 114.763 195.301 115.031C201.58 115.225 207.097 111.696 209.802 106.438C210.55 107.584 211.817 108.36 213.282 108.405C215.669 108.478 217.664 106.593 217.737 104.194C217.809 101.795 215.934 99.7893 213.547 99.7165V99.7149Z" fill="#FFB79A"/>
<path d="M180.605 94.8638L211.413 97.0228L212.125 92.4909C212.125 92.4909 206.249 82.5081 195.721 82.0447C185.192 81.5828 180.15 89.7724 180.605 94.8638Z" fill="#5D3C4B"/>
<path d="M211.524 100.172C211.535 99.9986 211.561 99.8296 211.566 99.6545C211.594 98.7587 211.527 97.8814 211.412 97.0213C203.511 95.521 186.495 95.0018 180.604 94.8623C180.261 96.0836 180.044 97.3576 180.004 98.6812C192.763 102.063 211.524 100.171 211.524 100.171V100.172Z" fill="#6768E9"/>
<path d="M187.163 97.5281C187.177 97.0616 186.813 96.671 186.349 96.657C185.885 96.6431 185.496 97.0089 185.482 97.4754C185.468 97.9419 185.832 98.3325 186.296 98.3464C186.761 98.3604 187.149 97.9946 187.163 97.5281Z" fill="black"/>
<path d="M200.3 97.9326C200.314 97.4661 199.95 97.0755 199.486 97.0616C199.022 97.0476 198.633 97.4134 198.62 97.8799C198.606 98.3464 198.97 98.737 199.434 98.7509C199.898 98.7649 200.286 98.3991 200.3 97.9326Z" fill="black"/>
<path d="M192.426 100.543C192.426 100.543 190.696 100.708 190.671 101.51C190.646 102.311 192.367 102.468 192.367 102.468" stroke="#E08B77" stroke-linecap="round" stroke-linejoin="round"/>
<path d="M195.018 105.061L201.361 103.108C201.361 103.108 201.966 106.077 199.178 107.131C196.39 108.185 195.018 105.062 195.018 105.062V105.061Z" fill="#F5F7F6"/>
<path d="M179.837 177.189C179.871 177.225 183.31 180.875 186.719 185.417L179.837 177.189Z" fill="#7A635C"/>
<path d="M208.537 175.476C208.593 175.47 214.207 174.782 220.605 174.728L208.537 175.476Z" fill="#7A635C"/>
<path d="M240.368 139.305L234.764 199.977C234.764 199.977 254.435 205.896 273.52 199.977L267.085 140.392L240.368 139.307V139.305Z" fill="#384146"/>
<path d="M238.903 118.777C238.903 118.777 239.037 101.787 254.142 101.513C254.142 101.513 258.396 97.6211 259.759 97.7853C261.122 97.9496 260.043 102.06 260.043 102.06C260.043 102.06 262.376 98.5928 263.071 98.9633C263.767 99.3337 262.499 102.416 262.499 102.416C262.499 102.416 269.656 106.486 269.492 118.775C269.329 131.066 270.146 138.794 270.146 138.794L238.248 138.383L238.901 118.775L238.903 118.777Z" fill="#7A3B08"/>
<path d="M280.226 145.719C277.172 143.033 267.466 135.196 264.359 133.771C261.252 132.345 258.143 131.688 254.762 131.661C247.196 131.599 233.21 139.183 230.225 141.198C227.24 143.212 226.586 145.883 229.161 147.94C231.738 149.995 240.079 156.038 243.473 157.558L239.793 216.586L233.659 222.587C233.659 222.587 246.99 222.505 246.827 222.587C246.664 222.669 251.57 172.521 251.57 172.521L254.35 172.767L259.667 222.587H274.17L267.191 217.736L263.047 160.188C263.047 160.188 274.934 156.461 278.805 153.502C282.677 150.542 283.277 148.405 280.222 145.72L280.226 145.719ZM242.699 152.089C242.576 152.089 236.36 147.238 233.662 145.553L243.518 140.333L243.763 151.596C243.763 151.596 242.823 152.089 242.699 152.089ZM265.939 153.665L264.576 152.788L265.048 141.12L275.965 149.5C273.395 150.158 265.939 153.665 265.939 153.665Z" fill="#FFB79A"/>
<path d="M254.762 131.66C250.013 131.621 242.736 134.594 237.238 137.312L239.467 142.478L243.516 140.333L243.762 151.596L242.038 153.846C242.038 153.846 243.347 157.141 243.475 157.555C243.483 157.581 243.481 157.606 243.47 157.63L243.378 159.102L263.758 158.418L265.156 157.96L264.439 154.321L264.575 152.786L265.047 141.119L267.945 143.344C268.92 141.562 270.143 139.285 270.78 138.099C268.129 136.097 265.662 134.367 264.356 133.769C261.247 132.345 258.14 131.686 254.759 131.66H254.762Z" fill="#010200"/>
<path d="M243.803 153.062L243.762 151.596C243.762 151.596 242.821 152.089 242.698 152.089C242.641 152.089 241.253 151.03 239.518 149.733L237.757 154.133C239.996 155.63 242.127 156.951 243.475 157.555C243.475 157.555 245.601 158.294 245.846 157.774C246.091 157.253 243.23 156.019 243.23 156.019C243.23 156.019 246.61 156.979 246.691 156.047C246.773 155.116 243.774 154.623 243.774 154.623C243.774 154.623 247.236 154.568 247.236 153.745C247.236 152.923 243.8 153.06 243.8 153.06L243.803 153.062Z" fill="#FF9300"/>
<path d="M263.759 158.42L243.379 159.102L243.277 160.734L263.05 160.187L263.759 158.42Z" fill="#FF9300"/>
<path d="M265.939 153.665L264.576 152.788L264.441 154.322C264.441 154.322 260.842 154.35 260.923 155.446C260.984 156.255 262.723 156.108 263.63 155.976C262.623 156.16 260.569 156.605 260.734 157.144C260.951 157.857 264.06 157.555 264.06 157.555C264.06 157.555 261.142 159.692 261.796 160.103C262.45 160.514 263.05 160.185 263.05 160.185C263.05 160.185 267.228 158.876 271.436 157.192L269.327 152.12C267.441 152.957 265.939 153.663 265.939 153.663V153.665Z" fill="#FF9300"/>
<path d="M254.762 131.66C251.666 131.635 247.493 132.89 243.441 134.521C243.905 139.544 245.601 148.775 254.216 149.116C261.866 149.418 265.076 139.138 266.094 134.766C265.404 134.322 264.809 133.977 264.357 133.771C261.249 132.346 258.142 131.688 254.76 131.661L254.762 131.66Z" fill="#384146"/>
<path d="M243.276 160.762L243.173 162.425C242.909 165.799 242.385 175.072 242.385 175.072L251.436 176.055L251.575 172.519L254.355 172.766L254.703 176.028L264.177 175.337L263.051 160.187L243.276 160.762Z" fill="#010200"/>
<path d="M246.829 222.584C246.782 222.607 247.145 218.577 247.687 212.798L240.132 211.175L239.794 216.582L233.66 222.584C233.66 222.584 246.992 222.502 246.829 222.584Z" fill="#FF9300"/>
<path d="M266.798 212.226L258.621 212.76L259.67 222.585H274.173L267.195 217.734L266.798 212.226Z" fill="#FF9300"/>
<path d="M240.05 212.502L239.97 213.777L247.45 215.352C247.49 214.924 247.53 214.485 247.573 214.031L240.05 212.502Z" fill="#010200"/>
<path d="M258.947 215.804L266.997 214.992L266.903 213.681L258.8 214.433L258.947 215.804Z" fill="#010200"/>
<path d="M254.497 133.324C253.94 133.324 253.488 132.87 253.488 132.311V127.968C253.488 127.408 253.94 126.954 254.497 126.954C255.053 126.954 255.505 127.408 255.505 127.968V132.311C255.505 132.87 255.053 133.324 254.497 133.324Z" fill="url(#paint4_linear_24602_143)"/>
<path d="M256.527 137.028H252.275V142.166H256.527V137.028Z" fill="#FF9300"/>
<path d="M254.864 157.416H251.417V161.855H254.864V157.416Z" fill="#FF9300"/>
<path d="M243.171 187.752C243.171 187.752 242.173 189.396 244.055 190.135" stroke="#FF997A" stroke-width="0.99" stroke-linecap="round" stroke-linejoin="round"/>
<path d="M242.699 122.774C244.809 127.278 249.351 130.403 254.632 130.403C259.913 130.403 264.044 127.563 266.268 123.393C266.999 124.088 267.981 124.516 269.066 124.516C271.316 124.516 273.142 122.683 273.142 120.42C273.142 118.157 271.318 116.324 269.066 116.324C268.622 116.324 268.197 116.396 267.797 116.528C267.48 109.485 261.716 103.87 254.631 103.87C247.546 103.87 241.446 116.902 241.446 116.902" fill="#FFB79A"/>
<path d="M248.574 117.914C248.574 117.543 248.275 117.243 247.906 117.243C247.538 117.243 247.239 117.543 247.239 117.914C247.239 118.284 247.538 118.585 247.906 118.585C248.275 118.585 248.574 118.284 248.574 117.914Z" fill="#5D3C4B"/>
<path d="M255.531 117.914C255.531 117.543 255.232 117.243 254.864 117.243C254.495 117.243 254.196 117.543 254.196 117.914C254.196 118.284 254.495 118.585 254.864 118.585C255.232 118.585 255.531 118.284 255.531 117.914Z" fill="#5D3C4B"/>
<path d="M269.492 123.462C269.853 123.462 270.146 123.168 270.146 122.805C270.146 122.442 269.853 122.148 269.492 122.148C269.131 122.148 268.838 122.442 268.838 122.805C268.838 123.168 269.131 123.462 269.492 123.462Z" fill="#F5F7F6"/>
<path d="M250.845 118.699L250.192 119.371C250.192 119.371 250.492 119.927 251.174 119.901" stroke="#E08B77" stroke-linecap="round" stroke-linejoin="round"/>
<path d="M250.683 123.162C250.683 123.162 253.029 123.216 254.719 121.902" stroke="#E08B77" stroke-linecap="round" stroke-linejoin="round"/>
<path d="M240.874 115.9C240.874 115.9 240.244 119.611 241.321 119.611C242.101 119.611 244.71 116.466 244.71 116.466C244.71 116.466 251.007 115.57 257.796 109.569C257.796 109.569 261.272 115.598 263.358 117.291C263.358 117.291 263.844 125.107 266.095 125.273C268.346 125.437 267.797 116.531 267.797 116.531C267.797 116.531 267.757 104.267 254.864 103.528C241.97 102.788 240.268 113.123 240.872 115.9H240.874Z" fill="#7A3B08"/>
<path d="M263.05 188.327C263.05 188.327 264.296 189.23 263.05 190.135" stroke="#FF997A" stroke-width="0.99" stroke-linecap="round" stroke-linejoin="round"/>
<path d="M182.386 24.0418C183.135 38.1752 170.363 50.3496 153.86 51.233C153.478 51.2547 153.094 51.2686 152.71 51.2748C151.354 51.3043 150.019 51.2547 148.708 51.1323C145.19 50.8021 141.851 49.9419 138.809 48.64L133.622 53.4478C132.527 54.4599 130.765 53.6028 130.874 52.1118L131.463 44.1717C126.305 39.8723 122.976 33.9378 122.622 27.2408C122.562 26.0939 122.589 24.9593 122.702 23.845C123.971 11.2072 135.984 0.861734 151.149 0.0511437C160.501 -0.449469 169.044 2.78204 174.826 8.25004C179.253 12.4285 182.064 17.9167 182.386 24.0434V24.0418Z" fill="#F4F4F4"/>
<path d="M133.875 10.812C134.579 10.3765 135.361 9.99831 136.188 10.0092C137.014 10.02 137.884 10.5206 138.083 11.3281C138.4 12.6192 137.224 13.5367 136.354 14.2589C134.769 15.5748 134.085 17.6315 133.548 19.5533C133.008 21.4892 131.895 23.8093 129.593 23.8636C129.107 23.8744 128.603 23.7365 128.244 23.4064C127.033 22.2935 127.611 19.761 128.048 18.4064C129.044 15.3113 131.107 12.5215 133.873 10.8151L133.875 10.812Z" fill="white"/>
<path d="M152.047 38.0063C156.03 35.4552 161.348 30.5095 162.988 25.6847C163.52 24.1193 163.839 22.4299 163.516 20.8088C163.19 19.186 162.126 17.647 160.572 17.103C158.691 16.4458 156.552 17.3882 155.22 18.8761C153.888 20.3639 153.191 22.3029 152.523 24.1891C152.044 21.6054 150.776 19.0822 148.77 17.3959C146.764 15.7096 143.395 15.4601 141.706 17.4657C140.368 19.0558 140.484 21.4117 140.974 23.4358C142.474 29.6245 146.815 34.3362 152.047 38.0063Z" fill="#E2472B"/>
<path d="M182.386 24.0418C183.135 38.1752 170.363 50.3496 153.86 51.233C153.478 51.2547 153.094 51.2687 152.71 51.2748C151.354 51.3043 150.019 51.2547 148.708 51.1323C158.816 50.0241 168.41 43.9082 173.298 34.8941C177.674 26.8208 178.062 16.8147 174.823 8.24849C179.251 12.4285 182.061 17.9167 182.384 24.0418H182.386Z" fill="#E4E2E2"/>
<defs>
<linearGradient id="paint0_linear_24602_143" x1="119.576" y1="116.609" x2="119.576" y2="107.226" gradientUnits="userSpaceOnUse">
<stop stop-color="#FFB79A"/>
<stop offset="0.83" stop-color="#FF997A"/>
</linearGradient>
<linearGradient id="paint1_linear_24602_143" x1="51.5442" y1="141.131" x2="51.5442" y2="134.175" gradientUnits="userSpaceOnUse">
<stop stop-color="#FFB79A"/>
<stop offset="0.83" stop-color="#FF997A"/>
</linearGradient>
<linearGradient id="paint2_linear_24602_143" x1="195.12" y1="120.045" x2="195.343" y2="112.803" gradientUnits="userSpaceOnUse">
<stop stop-color="#FFB79A"/>
<stop offset="0.82" stop-color="#FF997A"/>
</linearGradient>
<linearGradient id="paint3_linear_24602_143" x1="174.294" y1="102.84" x2="182.939" y2="103.103" gradientUnits="userSpaceOnUse">
<stop stop-color="#FFB79A"/>
<stop offset="0.82" stop-color="#FF997A"/>
</linearGradient>
<linearGradient id="paint4_linear_24602_143" x1="254.497" y1="133.324" x2="254.497" y2="126.953" gradientUnits="userSpaceOnUse">
<stop stop-color="#FFB79A"/>
<stop offset="0.82" stop-color="#FF997A"/>
</linearGradient>
</defs>
</svg>
