<svg width="141" height="140" viewBox="0 0 141 140" fill="none" xmlns="http://www.w3.org/2000/svg">
<path d="M13.5583 70C13.5583 84.8521 19.4583 99.0959 29.9604 109.598C40.4624 120.1 54.7062 126 69.5583 126C84.4105 126 98.6543 120.1 109.156 109.598C119.658 99.0959 125.558 84.8521 125.558 70C125.558 55.1479 119.658 40.9041 109.156 30.402C98.6543 19.9 84.4105 14 69.5583 14C54.7062 14 40.4624 19.9 29.9604 30.402C19.4583 40.9041 13.5583 55.1479 13.5583 70Z" fill="#C0FFD6"/>
<path d="M119.128 43.9222C116.511 38.9605 113.165 34.4189 109.202 30.4486C100.411 29.537 91.7159 27.8648 83.214 25.4506C58.3234 18.2252 43.3532 24.8136 35.1772 31.6106C23.2352 41.5506 17.2572 59.01 19.1878 78.323C19.7132 83.4322 19.5796 88.5877 18.7902 93.6628C21.1873 98.7906 24.3464 103.526 28.1604 107.709C31.6001 97.8849 32.8179 87.4201 31.7262 77.0686C30.21 61.9304 34.515 48.559 43.237 41.3C51.7126 34.2468 63.9808 32.984 79.7 37.548C92.5608 41.1506 105.787 43.2889 119.128 43.9222Z" fill="#60DD9B"/>
<path d="M40.059 66.9368C39.865 66.9586 39.6778 67.0206 39.5092 67.119C39.3407 67.2174 39.1946 67.35 39.0803 67.5082C38.966 67.6664 38.886 67.8467 38.8455 68.0376C38.805 68.2285 38.8049 68.4258 38.8452 68.6168L42.4404 85.4C42.5158 85.7521 42.724 86.0617 43.0218 86.2643C43.3195 86.4669 43.6839 86.5469 44.0392 86.4878L75.1402 81.3078C75.469 81.253 75.8067 81.3174 76.0923 81.4893C76.378 81.6613 76.5929 81.9295 76.6984 82.2458L77.362 84.2366C77.4632 84.5406 77.6656 84.8006 77.9354 84.9734C78.2052 85.1461 78.5261 85.2211 78.8446 85.1858L89.0744 84.049C89.4169 84.0111 89.7335 83.8481 89.9634 83.5914C90.1933 83.3346 90.3204 83.002 90.3204 82.6574V59.8374C90.3203 59.5189 90.2117 59.21 90.0124 58.9616C89.8131 58.7131 89.535 58.5401 89.2242 58.471L78.8166 56.1582C78.5057 56.0891 78.2276 55.916 78.0283 55.6676C77.829 55.4192 77.7204 55.1103 77.7204 54.7918V53.3918C77.7204 53.1867 77.6754 52.9841 77.5885 52.7983C77.5015 52.6126 77.3749 52.4482 77.2174 52.3167C77.06 52.1853 76.8756 52.0901 76.6772 52.0378C76.4789 51.9855 76.2715 51.9775 76.0698 52.0142L63.6462 54.2738C63.29 54.3386 62.9728 54.5388 62.7611 54.8325C62.5494 55.1262 62.4597 55.4904 62.5108 55.8488L63.516 62.8852C63.5424 63.0709 63.5313 63.2599 63.4833 63.4412C63.4352 63.6225 63.3513 63.7923 63.2364 63.9405C63.1214 64.0887 62.9779 64.2123 62.8143 64.304C62.6507 64.3957 62.4704 64.4536 62.284 64.4742L40.059 66.9368Z" fill="#40C181"/>
<path d="M90.3203 60.1075V82.6545L111.32 82.5075L116.92 62.9075L90.3203 60.1075Z" fill="#40C181"/>
<path d="M60.4766 43.0598C60.4766 46.6998 55.0978 53.3554 53.1294 55.671C53.0416 55.7741 52.9324 55.8568 52.8095 55.9136C52.6866 55.9704 52.5529 55.9998 52.4175 55.9998C52.2821 55.9998 52.1483 55.9704 52.0254 55.9136C51.9025 55.8568 51.7934 55.7741 51.7056 55.671C49.7358 53.3526 44.3584 46.6956 44.3584 43.0598C44.3443 41.9925 44.5424 40.9331 44.9411 39.943C45.3398 38.9529 45.9311 38.0518 46.6809 37.2921C47.4306 36.5324 48.3238 35.9292 49.3086 35.5175C50.2934 35.1058 51.3501 34.8938 52.4175 34.8938C53.4848 34.8938 54.5416 35.1058 55.5263 35.5175C56.5111 35.9292 57.4043 36.5324 58.154 37.2921C58.9038 38.0518 59.4952 38.9529 59.8939 39.943C60.2926 40.9331 60.4906 41.9925 60.4766 43.0598Z" fill="#A87DDC"/>
<path d="M64.6766 83.6598C64.6766 87.2998 59.2978 93.9554 57.3294 96.271C57.2416 96.3741 57.1325 96.4568 57.0096 96.5136C56.8867 96.5703 56.7529 96.5997 56.6175 96.5997C56.4822 96.5997 56.3484 96.5703 56.2255 96.5136C56.1026 96.4568 55.9934 96.3741 55.9056 96.271C53.9358 93.9526 48.5584 87.2956 48.5584 83.6598C48.5444 82.5925 48.7424 81.5331 49.1411 80.543C49.5398 79.5529 50.1312 78.6518 50.881 77.8921C51.6307 77.1324 52.5239 76.5292 53.5087 76.1175C54.4934 75.7058 55.5502 75.4938 56.6175 75.4938C57.6849 75.4938 58.7416 75.7058 59.7264 76.1175C60.7112 76.5292 61.6044 77.1324 62.3541 77.8921C63.1039 78.6518 63.6953 79.5529 64.0939 80.543C64.4926 81.5331 64.6907 82.5925 64.6766 83.6598Z" fill="#A87DDC"/>
<path d="M111.558 54.2598C111.558 57.8998 106.18 64.5554 104.21 66.871C104.122 66.974 104.013 67.0568 103.89 67.1135C103.767 67.1703 103.634 67.1996 103.499 67.1996C103.363 67.1996 103.23 67.1703 103.107 67.1135C102.984 67.0568 102.875 66.974 102.787 66.871C100.818 64.5526 95.4402 57.8956 95.4402 54.2598C95.4261 53.1925 95.6242 52.1331 96.0229 51.143C96.4215 50.1528 97.0129 49.2518 97.7627 48.4921C98.5124 47.7324 99.4056 47.1292 100.39 46.7175C101.375 46.3058 102.432 46.0938 103.499 46.0938C104.567 46.0938 105.623 46.3058 106.608 46.7175C107.593 47.1292 108.486 47.7324 109.236 48.4921C109.986 49.2518 110.577 50.1528 110.976 51.143C111.374 52.1331 111.572 53.1925 111.558 54.2598Z" fill="#A87DDC"/>
<path d="M73.0886 99.7614C74.4895 102.051 76.3275 104.042 78.4978 105.62C80.6681 107.199 83.1281 108.335 85.7374 108.963C88.3467 109.592 91.0542 109.7 93.7053 109.282C96.3563 108.863 98.8991 107.927 101.188 106.526C103.478 105.125 105.468 103.287 107.047 101.117C108.626 98.9467 109.762 96.4867 110.39 93.8774C111.019 91.2681 111.127 88.5606 110.708 85.9095C110.29 83.2585 109.354 80.7157 107.953 78.4265C106.552 76.1372 104.714 74.1463 102.544 72.5674C100.374 70.9885 97.9136 69.8526 95.3043 69.2244C92.695 68.5962 89.9876 68.4882 87.3365 68.9063C84.6854 69.3245 82.1427 70.2608 79.8534 71.6616C77.5642 73.0625 75.5733 74.9006 73.9944 77.0709C72.4155 79.2411 71.2795 81.7012 70.6514 84.3105C70.0232 86.9198 69.9151 89.6273 70.3333 92.2783C70.7515 94.9294 71.6877 97.4721 73.0886 99.7614Z" fill="#2A0053"/>
<path d="M74.1714 89.0932C74.1714 91.2402 74.5943 93.3662 75.4159 95.3498C76.2375 97.3334 77.4418 99.1357 78.96 100.654C80.4781 102.172 82.2804 103.376 84.264 104.198C86.2476 105.02 88.3736 105.442 90.5206 105.442C92.6676 105.442 94.7936 105.02 96.7772 104.198C98.7607 103.376 100.563 102.172 102.081 100.654C103.599 99.1357 104.804 97.3334 105.625 95.3498C106.447 93.3662 106.87 91.2402 106.87 89.0932C106.87 86.9462 106.447 84.8202 105.625 82.8366C104.804 80.8531 103.599 79.0508 102.081 77.5326C100.563 76.0144 98.7607 74.8102 96.7772 73.9885C94.7936 73.1669 92.6676 72.744 90.5206 72.744C88.3736 72.744 86.2476 73.1669 84.264 73.9885C82.2804 74.8102 80.4781 76.0144 78.96 77.5326C77.4418 79.0508 76.2375 80.8531 75.4159 82.8366C74.5943 84.8202 74.1714 86.9462 74.1714 89.0932Z" fill="#F1F7FF"/>
<path d="M125.78 123.207L125.595 123.39C124.85 124.13 123.844 124.545 122.795 124.545C121.746 124.545 120.739 124.13 119.995 123.39L107.826 111.223C107.58 110.975 107.441 110.639 107.441 110.29C107.441 109.94 107.58 109.605 107.826 109.357L111.746 105.437C111.994 105.191 112.329 105.052 112.678 105.052C113.028 105.052 113.363 105.191 113.611 105.437L125.78 117.604C126.149 117.971 126.441 118.408 126.641 118.889C126.841 119.369 126.944 119.885 126.944 120.406C126.944 120.926 126.841 121.442 126.641 121.922C126.441 122.403 126.149 122.84 125.78 123.207Z" fill="#2A0053"/>
<path d="M111.715 105.47L107.181 100.94C106.518 101.868 105.778 102.739 104.97 103.544C104.482 104.032 103.976 104.49 103.452 104.919L107.86 109.325L111.715 105.47Z" fill="#2A0053"/>
</svg>
