<svg width="375" height="461" viewBox="0 0 375 461" fill="none" xmlns="http://www.w3.org/2000/svg">
<path d="M199.557 308.05C206.197 298.76 233.477 315.43 233.477 315.43C233.477 315.43 195.567 288.44 202.207 280.62C208.847 272.8 244.647 295.71 244.647 295.71C244.647 295.7 198.517 261.59 206.487 253.03C214.447 244.47 259.737 278.55 259.737 278.55C259.737 278.55 226.547 250.67 234.957 242.56C240.007 237.69 288.277 265.79 306.557 279.72C310.187 277.83 341.007 254.39 346.477 265.85C351.947 277.31 330.347 309.27 330.347 309.27L392.997 345V460.5L247.837 348.64C247.837 348.64 192.917 317.34 199.557 308.05Z" fill="#FFC6AD"/>
<path d="M238.005 327.844C237.895 327.844 237.785 327.824 237.675 327.784C237.155 327.604 236.875 327.034 237.055 326.514C244.625 304.544 256.025 288.414 271.895 277.184C272.345 276.864 272.975 276.974 273.285 277.424C273.595 277.874 273.495 278.494 273.045 278.814C257.535 289.794 246.375 305.614 238.945 327.164C238.805 327.574 238.415 327.834 237.995 327.834L238.005 327.844Z" fill="#F4B397"/>
<path d="M214.29 193.717C206.844 185.06 229.52 162.523 229.52 162.523C229.52 162.523 194.294 192.933 188.276 184.624C182.258 176.316 213.019 146.986 213.019 146.986C213.01 146.984 168.914 183.686 162.493 173.91C156.07 164.144 199.937 128.251 199.937 128.251C199.937 128.251 164.968 153.864 159.089 143.768C155.559 137.705 194.325 97.4958 212.2 83.0499C211.227 79.0747 195.782 43.5673 208.214 40.9774C220.646 38.3875 246.557 66.9638 246.557 66.9638L361.357 -32.1086L408.343 42.0474L265.191 156.466C265.191 156.466 221.736 202.375 214.29 193.717Z" fill="#F8B79B"/>
<path d="M236.871 164.918C236.845 165.025 236.799 165.127 236.734 165.224C236.436 165.687 235.816 165.823 235.354 165.525C215.812 152.951 202.853 138.044 195.716 119.96C195.512 119.447 195.769 118.861 196.28 118.667C196.79 118.472 197.369 118.717 197.573 119.23C204.552 136.905 217.267 151.505 236.434 163.843C236.799 164.077 236.959 164.517 236.859 164.925L236.871 164.918Z" fill="#F3A285"/>
<path d="M165.203 284.924C161.648 274.072 130.629 281.812 130.629 281.812C130.629 281.812 174.88 267.407 170.885 257.958C166.89 248.509 125.874 259.653 125.874 259.653C125.877 259.643 180.102 240.905 175.06 230.352C170.027 219.802 116.613 238.763 116.613 238.763C116.613 238.763 156.626 222.096 151.029 211.84C147.668 205.682 93.2005 218.045 71.589 225.865C68.6912 222.975 46.3005 191.384 37.651 200.681C29.0015 209.979 40.0447 246.939 40.0447 246.939L-30.4277 262.278L-65 372.482L106.987 309.201C106.987 309.201 168.758 295.775 165.203 284.924Z" fill="#FDBB9E"/>
<path d="M74.4333 243.257C74.3235 243.263 74.2147 243.289 74.107 243.335C73.5975 243.542 73.3486 244.127 73.5563 244.636C82.2992 266.166 94.5518 281.659 111.004 292.017C111.47 292.312 112.094 292.169 112.379 291.703C112.664 291.237 112.531 290.623 112.064 290.328C95.9852 280.199 83.989 265.004 75.4086 243.885C75.2467 243.483 74.8432 243.245 74.4238 243.267L74.4333 243.257Z" fill="#F2AA8B"/>
<g clip-path="url(#clip0_35534_7319)">
<path d="M229.122 184.997C229.051 187.179 218.668 299.611 214.693 303.697C210.717 307.783 146.442 302.816 146.416 296.354C146.415 295.877 145.839 294.743 145.933 293.171C146.957 276.312 153.85 201.734 158.177 179.411C158.881 175.765 160.171 170.167 166.614 170.358C169.447 170.444 209.298 172.157 225.484 177.987C229.097 179.286 229.157 183.836 229.122 184.997Z" fill="#421B36"/>
<path d="M212.79 297.054C209.118 300.834 149.661 296.241 149.639 290.261C149.625 285.86 154.084 227.628 158.107 196.129C158.84 190.392 159.559 185.544 160.23 182.067C160.888 178.693 162.076 173.518 168.036 173.692C170.654 173.773 207.518 175.356 222.491 180.748C225.834 181.951 225.888 186.162 225.851 187.234C225.835 187.718 225.292 194.039 224.419 203.424C221.651 233.276 215.59 294.176 212.791 297.05L212.79 297.054Z" fill="#C0FFD6"/>
<path d="M208.254 176.796C208.254 176.796 207.999 179.805 205.636 180.126C203.277 180.444 181.703 178.174 180.534 177.065C179.365 175.957 179.211 173.54 179.211 173.54L207.724 176.753L208.249 176.8L208.254 176.796Z" fill="#421B36"/>
</g>
<circle cx="187.086" cy="241.622" r="19.4572" transform="rotate(4.92934 187.086 241.622)" fill="#60DD9B"/>
<path fill-rule="evenodd" clip-rule="evenodd" d="M191.481 241.878L196.204 242.286L195.543 249.953C194.352 251.084 192.92 251.931 191.356 252.431C189.791 252.93 188.134 253.069 186.507 252.837C184.955 252.693 183.449 252.233 182.082 251.485C180.714 250.737 179.514 249.717 178.556 248.488C176.891 246.207 176.133 243.389 176.431 240.58C176.543 239.142 176.938 237.74 177.593 236.455C178.249 235.17 179.151 234.027 180.249 233.091C181.36 232.125 182.656 231.394 184.058 230.942C185.46 230.491 186.939 230.328 188.405 230.463C191.631 230.762 194.639 232.222 196.869 234.572L193.411 237.89C192.83 237.032 192.061 236.319 191.163 235.805C190.264 235.29 189.26 234.988 188.227 234.921C186.567 234.81 184.929 235.358 183.67 236.447C182.968 236.994 182.385 237.68 181.958 238.462C181.53 239.243 181.267 240.104 181.185 240.991C181.088 241.895 181.177 242.809 181.446 243.677C181.714 244.546 182.157 245.351 182.748 246.042C183.781 247.27 185.216 248.091 186.799 248.358C188.211 248.557 189.65 248.374 190.968 247.829L191.481 241.878Z" fill="#003920"/>
<defs>
<clipPath id="clip0_35534_7319">
<rect width="73.2366" height="132.687" fill="white" transform="translate(158.975 168) rotate(6.91475)"/>
</clipPath>
</defs>
</svg>
