<svg width="141" height="140" viewBox="0 0 141 140" fill="none" xmlns="http://www.w3.org/2000/svg">
<mask id="mask0_11833_2001" style="mask-type:alpha" maskUnits="userSpaceOnUse" x="14" y="14" width="113" height="112">
<path d="M14.75 70C14.75 84.8521 20.65 99.0959 31.152 109.598C41.6541 120.1 55.8979 126 70.75 126C85.6021 126 99.8459 120.1 110.348 109.598C120.85 99.0959 126.75 84.8521 126.75 70C126.75 55.1479 120.85 40.9041 110.348 30.402C99.8459 19.9 85.6021 14 70.75 14C55.8979 14 41.6541 19.9 31.152 30.402C20.65 40.9041 14.75 55.1479 14.75 70Z" fill="#E8F4FA"/>
</mask>
<g mask="url(#mask0_11833_2001)">
<path d="M14.75 70C14.75 84.8521 20.65 99.0959 31.152 109.598C41.6541 120.1 55.8979 126 70.75 126C85.6021 126 99.8459 120.1 110.348 109.598C120.85 99.0959 126.75 84.8521 126.75 70C126.75 55.1479 120.85 40.9041 110.348 30.402C99.8459 19.9 85.6021 14 70.75 14C55.8979 14 41.6541 19.9 31.152 30.402C20.65 40.9041 14.75 55.1479 14.75 70Z" fill="#AEFFFF"/>
<path d="M197.718 73.2236C266.708 110.827 136.05 133.661 119.079 134.5C102.108 135.339 90.9566 118.907 73.9985 104.161C73.9985 104.161 57.6239 103.258 57.2528 99.732C56.8818 96.2058 68.5589 97.1805 68.5589 97.1805C68.5589 97.1805 56.2849 90.7758 59.2886 86.1063C62.2923 81.4369 78.8667 94.7036 76.6087 93.4729C76.3429 93.328 64.9784 76.7157 69.5558 74.6246C74.136 72.5351 83.3657 86.647 83.3657 86.647C83.3657 86.647 83.1715 74.434 87.1164 74.9773C91.0614 75.5206 92.9253 94.0619 92.9253 94.0619L119.079 108.504C213.906 100.046 161.359 73.4496 197.718 73.2236Z" fill="#EAA78A"/>
<path d="M51.25 46.4999C51.5872 50.941 56.5047 63.6119 53.8661 64.4262C51.2275 65.2406 38.9195 52.3979 40.9328 39.0488C39.3041 33.7716 45.1114 42.8143 47.75 41.9999C50.3886 41.1856 53.2543 39.8868 51.25 46.4999Z" fill="#6768E6"/>
<path d="M55.2383 72.4048C53.0117 70.2998 51.75 67.2927 51.75 64.1353V63.7594C51.75 58.497 55.4609 53.9863 60.582 53.1593C63.9961 52.5579 67.4102 53.6856 69.8594 56.0913L70.75 56.9934L71.6406 56.0913C74.0156 53.6856 77.5039 52.5579 80.8438 53.1593C85.9648 53.9863 89.75 58.497 89.75 63.7594V64.1353C89.75 67.2927 88.4141 70.2998 86.1875 72.4048L72.7539 87.2482C72.2344 87.7745 71.4922 88 70.75 88C69.9336 88 69.1914 87.7745 68.6719 87.2482L55.2383 72.4048Z" fill="#DD2D54"/>
<path d="M37.2499 8.49997C37.2499 8.49997 37.7152 17.951 55.7325 31.3825C55.7325 31.3825 77.1287 32.0536 77.7635 35.5419C78.3982 39.0303 66.6808 39.9351 66.6808 39.9351C66.6808 39.9351 80.1275 43.5318 77.4828 48.4136C74.8382 53.2954 59.0346 44.9567 59.3106 45.0813C59.5866 45.2058 67.6913 57.9086 64.25 61.4999C60.4135 63.0216 49.278 47.6423 49.278 47.6423C44.1438 40.0907 43.8389 53.892 42.6174 44.8741L15.453 32.436L37.2499 8.49997Z" fill="#6768E6"/>
</g>
</svg>
