<svg width="141" height="140" viewBox="0 0 141 140" fill="none" xmlns="http://www.w3.org/2000/svg">
<path d="M14.25 70C14.25 84.8521 20.15 99.0959 30.652 109.598C41.1541 120.1 55.3979 126 70.25 126C85.1021 126 99.3459 120.1 109.848 109.598C120.35 99.0959 126.25 84.8521 126.25 70C126.25 55.1479 120.35 40.9041 109.848 30.402C99.3459 19.9 85.1021 14 70.25 14C55.3979 14 41.1541 19.9 30.652 30.402C20.15 40.9041 14.25 55.1479 14.25 70Z" fill="#EEDBFF"/>
<path d="M27.6326 31.058C27.6326 26.6397 31.2143 23.058 35.6326 23.058H78.3402C82.7584 23.058 86.3402 26.6397 86.3402 31.058V73.7656C86.3402 78.1839 82.7584 81.7656 78.3402 81.7656H35.6326C31.2143 81.7656 27.6326 78.1839 27.6326 73.7656V31.058Z" fill="#EEDBFF"/>
<path d="M28.6326 31.058C28.6326 27.192 31.7666 24.058 35.6326 24.058H78.3402C82.2062 24.058 85.3402 27.192 85.3402 31.058V73.7656C85.3402 77.6316 82.2062 80.7656 78.3402 80.7656H35.6326C31.7666 80.7656 28.6326 77.6316 28.6326 73.7656V31.058Z" stroke="black" stroke-opacity="0.1" stroke-width="2"/>
<path d="M61.948 67.1832V72.0874H66.8522H71.7564V67.1832H66.8522H61.948Z" fill="#003737"/>
<path d="M57.0437 62.2791H61.9479V67.1833H57.0437V62.2791Z" fill="#003737"/>
<path d="M52.1396 57.3748H57.0439V62.279H52.1396V57.3748Z" fill="#003737"/>
<path d="M52.1395 47.565H52.0751V42.6608H47.1709V37.8448H42.2667V42.6608H37.4255V47.565V52.4707H42.3297V47.6547H47.1709V47.565H47.2339V52.4707H52.1395V47.565Z" fill="#003737"/>
<path d="M47.1709 32.9406H52.0751V37.8448H47.1709V32.9406Z" fill="#003737"/>
<path d="M61.948 42.6608H66.8522V47.565H61.948V42.6608Z" fill="#003737"/>
<path d="M66.8662 57.3734H66.8522V52.4706H61.948V57.3748H61.962V62.279H66.8662H71.7564V67.1832H76.6606V62.279V57.3748V52.4706H71.7564V57.3734H66.8662Z" fill="#003737"/>
<path d="M66.8523 47.5649H71.7565V52.4691H66.8523V47.5649Z" fill="#003737"/>
<path d="M71.7563 42.6608H76.6605V47.565H71.7563V42.6608Z" fill="#003737"/>
<path d="M66.8523 32.8524H71.7565V37.7566H66.8523V32.8524Z" fill="#003737"/>
<path d="M37.4255 67.1832H42.3297V72.0874H37.4255V67.1832Z" fill="#003737"/>
<path d="M42.3298 62.2791H47.234V67.1833H42.3298V62.2791Z" fill="#003737"/>
<path d="M37.4255 57.3748H42.3297V62.279H37.4255V57.3748Z" fill="#003737"/>
<path d="M42.3298 52.4706H47.234V57.3748H42.3298V52.4706Z" fill="#003737"/>
<path d="M51.3298 47.4707H56.234V52.3749H51.3298V47.4707Z" fill="#003737"/>
<path d="M61.948 32.8524H57.0439V37.758H52.1396V42.6608H57.0439H61.948V37.758V32.8524Z" fill="#003737"/>
<path d="M52.1396 67.1832H57.0439V72.0874H52.1396V67.1832Z" fill="#003737"/>
<path d="M99.778 106.717C99.778 107.779 99.356 108.798 98.6048 109.549C97.8536 110.301 96.8349 110.723 95.7726 110.723H67.7334C66.6707 110.723 65.6515 110.3 64.9001 109.549C64.1487 108.798 63.7266 107.778 63.7266 106.716V50.6402C63.7266 49.5779 64.1486 48.5591 64.8997 47.8079C65.6509 47.0568 66.6697 46.6348 67.732 46.6348H95.7726C96.2986 46.6346 96.8195 46.7381 97.3056 46.9393C97.7916 47.1405 98.2332 47.4355 98.6052 47.8075C98.9772 48.1795 99.2722 48.6211 99.4734 49.1071C99.6747 49.5932 99.7781 50.1141 99.778 50.6402V106.717Z" fill="#2A0053"/>
<path d="M63.7266 54.6426H99.778V102.71H63.7266V54.6426Z" fill="#A87DDC"/>
<path d="M83.1501 106.716C83.1501 106.993 83.068 107.263 82.9141 107.493C82.7603 107.724 82.5417 107.903 82.2859 108.009C82.03 108.115 81.7485 108.143 81.477 108.089C81.2054 108.035 80.9559 107.901 80.7601 107.706C80.5644 107.51 80.431 107.26 80.377 106.989C80.323 106.717 80.3507 106.436 80.4567 106.18C80.5626 105.924 80.7421 105.705 80.9723 105.552C81.2025 105.398 81.4732 105.316 81.7501 105.316C82.1214 105.316 82.4775 105.463 82.74 105.726C83.0026 105.988 83.1501 106.344 83.1501 106.716Z" fill="white"/>
<path d="M69.8334 72.5415C69.3466 72.5412 68.8798 72.3477 68.5355 72.0036C68.1911 71.6596 67.9973 71.1929 67.9966 70.7061V65.5079C67.9973 65.021 68.1911 64.5543 68.5354 64.2099C68.8797 63.8656 69.3465 63.6719 69.8334 63.6711H75.0302C75.5084 63.6843 75.9625 63.8836 76.2961 64.2265C76.6297 64.5694 76.8163 65.0289 76.8163 65.5072C76.8163 65.9856 76.6297 66.4451 76.2961 66.788C75.9625 67.1309 75.5084 67.3301 75.0302 67.3433H71.6702V70.7033C71.6704 70.9447 71.623 71.1837 71.5308 71.4067C71.4385 71.6297 71.3033 71.8323 71.1327 72.0031C70.9621 72.1738 70.7596 72.3092 70.5366 72.4016C70.3137 72.494 70.0747 72.5415 69.8334 72.5415Z" fill="white"/>
<path d="M94.0911 72.5417C93.8497 72.5422 93.6105 72.4952 93.3872 72.4032C93.164 72.3112 92.9611 72.1761 92.7901 72.0057C92.6191 71.8352 92.4834 71.6327 92.3907 71.4097C92.2981 71.1868 92.2503 70.9477 92.2501 70.7063V67.3463H88.8901C88.4119 67.3331 87.9577 67.1338 87.6242 66.7909C87.2906 66.448 87.104 65.9885 87.104 65.5102C87.104 65.0318 87.2906 64.5723 87.6242 64.2294C87.9577 63.8865 88.4119 63.6873 88.8901 63.6741H94.0883C94.5751 63.6748 95.0417 63.8686 95.3858 64.213C95.7299 64.5573 95.9233 65.0241 95.9237 65.5109V70.7091C95.9226 71.1948 95.7292 71.6602 95.3857 72.0037C95.0423 72.3471 94.5768 72.5406 94.0911 72.5417Z" fill="white"/>
<path d="M69.8334 92.4678C69.3465 92.4671 68.8797 92.2733 68.5354 91.929C68.1911 91.5847 67.9973 91.1179 67.9966 90.631V85.4328C68.0098 84.9546 68.209 84.5005 68.5519 84.1669C68.8948 83.8333 69.3543 83.6467 69.8327 83.6467C70.3111 83.6467 70.7705 83.8333 71.1134 84.1669C71.4563 84.5005 71.6556 84.9546 71.6688 85.4328V88.7928H75.0288C75.507 88.806 75.9611 89.0053 76.2947 89.3482C76.6283 89.6911 76.8149 90.1506 76.8149 90.6289C76.8149 91.1073 76.6283 91.5668 76.2947 91.9097C75.9611 92.2526 75.507 92.4518 75.0288 92.465L69.8334 92.4678Z" fill="white"/>
<path d="M88.8901 92.4677C88.4119 92.4545 87.9577 92.2553 87.6242 91.9124C87.2906 91.5695 87.104 91.11 87.104 90.6316C87.104 90.1532 87.2906 89.6937 87.6242 89.3508C87.9577 89.0079 88.4119 88.8087 88.8901 88.7955H92.2501V85.4355C92.2501 84.9487 92.4435 84.4819 92.7877 84.1377C93.1319 83.7935 93.5987 83.6001 94.0855 83.6001C94.5723 83.6001 95.0391 83.7935 95.3833 84.1377C95.7275 84.4819 95.9209 84.9487 95.9209 85.4355V90.6337C95.9205 91.1205 95.7271 91.5873 95.383 91.9316C95.0389 92.276 94.5723 92.4698 94.0855 92.4705L88.8901 92.4677Z" fill="white"/>
</svg>
