<svg width="141" height="140" viewBox="0 0 141 140" fill="none" xmlns="http://www.w3.org/2000/svg">
<path d="M14.75 70C14.75 84.8521 20.65 99.0959 31.152 109.598C41.6541 120.1 55.8979 126 70.75 126C85.6021 126 99.8459 120.1 110.348 109.598C120.85 99.0959 126.75 84.8521 126.75 70C126.75 55.1479 120.85 40.9041 110.348 30.402C99.8459 19.9 85.6021 14 70.75 14C55.8979 14 41.6541 19.9 31.152 30.402C20.65 40.9041 14.75 55.1479 14.75 70Z" fill="#FFF1B2"/>
<circle cx="70.75" cy="70" r="32" fill="#FFE500"/>
<circle cx="70.75" cy="70" r="31" stroke="black" stroke-opacity="0.1" stroke-width="2"/>
<path fill-rule="evenodd" clip-rule="evenodd" d="M78.7048 70.3256H86.7495V83.3849C84.9009 85.4711 82.6043 87.1121 80.0316 88.1848C77.4588 89.2576 74.6767 89.7343 71.8936 89.5793C69.2486 89.5618 66.6351 89.0032 64.2139 87.9379C61.7928 86.8726 59.6153 85.3231 57.8154 83.3849C54.6674 79.7717 52.9756 75.1169 53.069 70.3256C53.0495 67.8776 53.5131 65.4497 54.4334 63.1812C55.3537 60.9127 56.7126 58.848 58.4321 57.1054C60.1708 55.3099 62.2552 53.8852 64.5596 52.9173C66.864 51.9495 69.3406 51.4585 71.84 51.4741C77.3377 51.5085 82.636 53.5382 86.7495 57.1859L81.3864 63.2999C80.2794 61.9354 78.8753 60.8419 77.2812 60.103C75.6871 59.364 73.9452 58.9991 72.1886 59.0362C69.3648 59.0906 66.6764 60.2565 64.707 62.2809C63.5992 63.3093 62.7137 64.5536 62.105 65.9371C61.4962 67.3206 61.1771 68.8141 61.1673 70.3256C61.1355 71.8682 61.4188 73.401 61.9998 74.8304C62.5807 76.2597 63.4472 77.5555 64.5461 78.6385C66.4713 80.5643 69.0186 81.7429 71.7327 81.9636C74.1491 82.0937 76.5563 81.5753 78.7048 80.4619V70.3256Z" fill="#A89414"/>
<path d="M77.5596 92.5624L80.0012 95.0054Z" fill="#FFCEBF"/>
<path d="M82.2566 88.242L85.6376 91.6244Z" fill="#FFCEBF"/>
<path d="M73.0516 97.0718L75.4932 99.5134Z" fill="#FFCEBF"/>
</svg>
