<svg width="141" height="140" viewBox="0 0 141 140" fill="none" xmlns="http://www.w3.org/2000/svg">
<g clip-path="url(#clip0_10935_366)">
<path d="M14.5 70C14.5 84.8521 20.4 99.0959 30.902 109.598C41.4041 120.1 55.6479 126 70.5 126C85.3521 126 99.5959 120.1 110.098 109.598C120.6 99.0959 126.5 84.8521 126.5 70C126.5 55.1479 120.6 40.9041 110.098 30.402C99.5959 19.9 85.3521 14 70.5 14C55.6479 14 41.4041 19.9 30.902 30.402C20.4 40.9041 14.5 55.1479 14.5 70Z" fill="#C0FFD6"/>
<path d="M76.1 39.2H80.3V65.8H76.1V39.2Z" fill="#C0FFD6"/>
<path d="M81.5001 87.5002C81.4961 86.7684 81.6715 86.0468 82.0108 85.3986C82.3501 84.7504 82.8431 84.1954 83.4464 83.7822C84.0498 83.369 84.7452 83.1102 85.4717 83.0285C86.1981 82.9468 86.9336 83.0447 87.6135 83.3136C87.8888 81.5543 88.7829 79.9514 90.1346 78.7938C91.4863 77.6362 93.2067 77 94.9855 77C96.7644 77 98.4848 77.6362 99.8365 78.7938C101.188 79.9514 102.082 81.5543 102.358 83.3136C102.974 83.0705 103.637 82.9669 104.298 83.0101C104.959 83.0533 105.602 83.2423 106.182 83.5636C106.762 83.8848 107.263 84.3304 107.651 84.8683C108.038 85.4063 108.302 86.0233 108.424 86.6753C108.545 87.3274 108.521 87.9982 108.353 88.6398C108.186 89.2814 107.878 89.878 107.453 90.3868C107.028 90.8956 106.496 91.3041 105.895 91.5829C105.294 91.8618 104.638 92.0042 103.976 91.9999H85.9952C84.803 91.9999 83.6597 91.5258 82.8167 90.682C81.9737 89.8381 81.5001 88.6936 81.5001 87.5002Z" fill="white"/>
<path d="M112.041 42.6193H103.122C96.1121 42.6343 89.1469 41.5178 82.5013 39.3139C75.8547 37.1103 68.8887 35.9938 61.8781 36.0085H52.9589C52.6187 35.97 52.2767 36.0632 52.0046 36.2687C51.7326 36.4741 51.5517 36.7758 51.5 37.1103V73.2811C51.5517 73.6156 51.7326 73.9173 52.0046 74.1227C52.2767 74.3282 52.6187 74.4215 52.9589 74.3829H61.8781C68.8887 74.3682 75.8547 75.4847 82.5013 77.6883C89.147 79.8914 96.1122 81.007 103.122 80.9912H112.041C112.381 81.0304 112.724 80.9374 112.996 80.7318C113.268 80.5263 113.449 80.2242 113.5 79.8894L96.7137 61.804L113.5 43.7186C113.448 43.3843 113.267 43.0829 112.995 42.8778C112.723 42.6727 112.381 42.5801 112.041 42.6193Z" fill="#40C181"/>
<path d="M51.5 35C51.5 33.3431 52.8431 32 54.5 32C56.1569 32 57.5 33.3431 57.5 35V113H51.5V35Z" fill="#431573"/>
<path d="M27.2527 56.6026C27.9467 56.6072 28.6339 56.7414 29.2794 56.9984C29.6246 54.77 30.748 52.7393 32.4469 51.2726C34.1459 49.806 36.3086 49 38.5449 49C40.7812 49 42.9439 49.806 44.6429 51.2726C46.3419 52.7393 47.4653 54.77 47.8104 56.9984C48.5843 56.6952 49.4149 56.5678 50.2431 56.6254C51.0714 56.683 51.8768 56.9241 52.6021 57.3316C53.3273 57.7391 53.9545 58.3029 54.439 58.9829C54.9235 59.6628 55.2533 60.4422 55.405 61.2654C55.5567 62.0886 55.5264 62.9354 55.3165 63.7455C55.1065 64.5556 54.7219 65.309 54.1902 65.9521C53.6585 66.5951 52.9927 67.112 52.2403 67.4658C51.4878 67.8196 50.6673 68.0017 49.8371 67.9991H27.2527C26.5022 68.0127 25.7565 67.8755 25.0592 67.5952C24.3618 67.315 23.7268 66.8975 23.1913 66.367C22.6557 65.8365 22.2303 65.2037 21.9399 64.5056C21.6496 63.8074 21.5 63.0579 21.5 62.3008C21.5 61.5438 21.6496 60.7943 21.9399 60.0961C22.2303 59.398 22.6557 58.7652 23.1913 58.2347C23.7268 57.7042 24.3618 57.2867 25.0592 57.0065C25.7565 56.7262 26.5022 56.5889 27.2527 56.6026Z" fill="white"/>
<path d="M102.204 110.6C101.435 109.893 100.453 109.459 99.4125 109.365C98.3716 109.271 97.3287 109.523 96.4448 110.08C96.463 109.896 96.4728 109.709 96.4728 109.52C96.4495 108.047 95.848 106.643 94.7981 105.609C93.7482 104.576 92.3341 103.996 90.8609 103.996C89.3877 103.996 87.9735 104.576 86.9236 105.609C85.8737 106.643 85.2722 108.047 85.249 109.52C85.249 109.711 85.2588 109.897 85.277 110.08C84.517 109.604 83.6387 109.35 82.7416 109.347C82.4228 109.348 82.1049 109.38 81.7924 109.442C80.9382 108.108 79.7388 107.03 78.3215 106.322C76.9042 105.614 75.3217 105.303 73.7419 105.422C72.1621 105.54 70.6439 106.084 69.3482 106.996C68.0526 107.908 67.0278 109.153 66.3826 110.6C65.6127 109.893 64.6316 109.459 63.5907 109.365C62.5498 109.271 61.5069 109.523 60.623 110.08C60.6412 109.896 60.651 109.709 60.651 109.52C60.6277 108.047 60.0262 106.643 58.9763 105.609C57.9264 104.576 56.5123 103.996 55.0391 103.996C53.5659 103.996 52.1517 104.576 51.1018 105.609C50.0519 106.643 49.4504 108.047 49.4272 109.52C49.4272 109.711 49.437 109.897 49.4552 110.08C48.5714 109.523 47.5288 109.272 46.4882 109.366C45.4475 109.46 44.4667 109.893 43.697 110.6C43.1137 109.292 42.2195 108.147 41.0923 107.265C39.9652 106.382 38.6393 105.788 37.2301 105.535C35.821 105.283 34.3713 105.378 33.0076 105.814C31.6438 106.249 30.4073 107.012 29.4058 108.035C34.8018 113.87 41.3787 118.49 48.6988 121.586C56.0189 124.682 63.9144 126.183 71.86 125.99C79.8055 125.797 87.6189 123.915 94.7802 120.467C101.942 117.02 108.287 112.087 113.393 105.997C111.294 105.178 108.96 105.199 106.876 106.056C104.793 106.914 103.119 108.541 102.204 110.6Z" fill="white"/>
</g>
<defs>
<clipPath id="clip0_10935_366">
<rect width="140" height="140" fill="white" transform="translate(0.5)"/>
</clipPath>
</defs>
</svg>
