<svg width="25" height="22" viewBox="0 0 25 22" fill="none" xmlns="http://www.w3.org/2000/svg">
<path d="M11.4375 21.0312L2.95312 13.1094C2.76562 12.9219 2.57812 12.7344 2.39062 12.5H6.46875C7.54688 12.5 8.48438 11.8906 8.90625 10.9062L9.375 9.73438L11.7188 14.8438C11.9062 15.2656 12.2812 15.5 12.7031 15.5C13.125 15.5 13.5469 15.2656 13.7344 14.8906L15.75 10.9062L15.7969 11.0938C16.2656 11.9844 17.1562 12.5469 18.1406 12.5469H23.0625C22.875 12.7344 22.6875 12.9219 22.5 13.1094L14.0156 21.0312C13.6875 21.3594 13.2188 21.5 12.75 21.5C12.2344 21.5 11.7656 21.3594 11.4375 21.0312ZM24.3281 10.25H18.1406C18 10.25 17.8594 10.2031 17.8125 10.0625L16.7344 7.90625C16.5469 7.53125 16.125 7.25 15.7031 7.25C15.2812 7.25 14.9062 7.53125 14.7188 7.90625L12.75 11.7969L10.3594 6.45312C10.2188 6.03125 9.79688 5.75 9.32812 5.79688C8.90625 5.79688 8.48438 6.03125 8.29688 6.45312L6.84375 10.0625C6.75 10.2031 6.60938 10.2969 6.46875 10.2969L1.5 10.25C1.35938 10.25 1.26562 10.2969 1.125 10.3438C0.890625 9.59375 0.75 8.79688 0.75 7.95312V7.71875C0.75 4.4375 3.09375 1.625 6.32812 1.10938C8.48438 0.734375 10.6406 1.4375 12.1875 2.9375L12.75 3.5L13.3125 2.9375C14.8125 1.4375 17.0156 0.734375 19.125 1.10938C22.3594 1.625 24.75 4.4375 24.75 7.71875V7.95312C24.75 8.75 24.6094 9.54688 24.3281 10.25Z" fill="#383000"/>
</svg>
