<svg width="31" height="24" viewBox="0 0 31 24" fill="none" xmlns="http://www.w3.org/2000/svg">
<path d="M26.25 11.625V11.25C26.25 9.1875 24.5625 7.5 22.5 7.5H22.125H15.75H15V8.25V11.625C15 12.7031 14.1562 13.5 13.125 13.5C12.0469 13.5 11.25 12.7031 11.25 11.625V6C11.4375 4.3125 12.8438 3 14.625 3H19.875C19.9688 3 20.1094 3.04688 20.25 3.04688L22.125 1.17188C23.1562 0.140625 24.7969 0.140625 25.8281 1.17188L29.4844 4.82812C30.5156 5.85938 30.5156 7.5 29.4844 8.53125L26.25 11.8125V11.625ZM16.5 9V9.04688H22.125C23.5312 9.04688 24.7031 10.2188 24.75 11.625V11.6719C24.7031 12.9375 23.8125 14.0156 22.5938 14.25C23.0156 14.625 23.25 15.1875 23.25 15.7969C23.25 17.0156 22.2188 18.0469 21 18.0469H20.8594C20.9531 18.2812 21 18.5156 21 18.7969C21 20.0156 19.9688 21.0469 18.75 21.0469H11.25C11.2031 21.0469 11.1562 21 11.1094 21L9.32812 22.7812C8.29688 23.8125 6.65625 23.8125 5.625 22.7812L1.96875 19.125C0.9375 18.0938 0.9375 16.4531 1.96875 15.4219L5.39062 12L6.1875 9.28125C6.65625 7.59375 8.0625 6.375 9.75 6.09375V11.625C9.75 13.5 11.25 15 13.125 15C14.9531 15 16.5 13.5 16.5 11.625V9Z" fill="#003737"/>
</svg>
