<svg width="28" height="25" viewBox="0 0 28 25" fill="none" xmlns="http://www.w3.org/2000/svg">
<path d="M27.2031 12C27.2031 12.8438 26.5 13.5 25.7031 13.5H24.2031L24.25 21C24.25 21.1406 24.25 21.2812 24.25 21.375V22.1719C24.25 23.2031 23.4062 24.0469 22.375 24.0469H21.625C21.5312 24.0469 21.4844 24.0469 21.4375 24C21.3906 24.0469 21.2969 24.0469 21.25 24.0469L19.75 24H18.625C17.5469 24 16.75 23.2031 16.75 22.125V21V18C16.75 17.2031 16.0469 16.5 15.25 16.5H12.25C11.4062 16.5 10.75 17.2031 10.75 18V21V22.125C10.75 23.2031 9.90625 24 8.875 24H7.75H6.25C6.15625 24 6.10938 24 6.01562 24C5.96875 24 5.92188 24 5.875 24H5.125C4.04688 24 3.25 23.2031 3.25 22.125V16.875C3.25 16.875 3.25 16.8281 3.25 16.7812V13.5H1.75C0.90625 13.5 0.25 12.8438 0.25 12C0.25 11.5781 0.390625 11.2031 0.71875 10.875L12.7188 0.375C13.0469 0.046875 13.4219 0 13.75 0C14.0781 0 14.4531 0.09375 14.7344 0.328125L26.6875 10.875C27.0625 11.2031 27.25 11.5781 27.2031 12Z" fill="#383000"/>
</svg>
