<svg width="137" height="202" viewBox="0 0 137 202" fill="none" xmlns="http://www.w3.org/2000/svg">
<g id="Group 26086159">
<g id="Group">
<path id="Vector" d="M76.3663 89.7468C76.3663 89.7468 73.8155 95.0594 68.6307 96.0759C63.4396 97.0924 63.593 92.0099 63.593 92.0099L76.3727 89.7532L76.3663 89.7468Z" fill="#035A5B"/>
<path id="Vector_2" d="M6.90601 89.7468C6.90601 89.7468 8.54262 92.6108 14.4626 94.7909C20.3825 96.9773 23.9946 96.0695 23.9946 96.0695L24.5572 92.0802L6.90601 89.7468Z" fill="#035A5B"/>
<path id="Vector_3" d="M24.2288 80.7069L7.09395 90.2323C7.09395 90.2323 7.78794 103.613 11.4058 109.62C16.538 107.693 23.6079 95.8804 28.4743 92.4606C26.6394 87.8822 25.0753 83.6684 24.2355 80.7015L24.2288 80.7069Z" fill="#F7BB8C"/>
<path id="Vector_4" d="M75.0941 97.8131C75.9288 103.053 64.1153 104.506 64.1153 104.506L57.3206 95.7508L69.753 86.1205" fill="#F7BB8C"/>
<path id="Vector_5" d="M19.1672 120.248C19.1672 120.248 41.268 126.424 64.366 118.893C64.366 118.893 58.7274 112.263 43.2818 113.772C27.8362 115.281 24.6844 115.728 19.1672 120.248Z" fill="#429696"/>
<g id="Group_2">
<g id="Group_3">
<path id="Vector_6" d="M20.5417 167.166C21.5006 177.472 22.5107 187.79 22.6897 190.117C22.6897 190.117 11.9942 194.1 11.8535 196.881C11.7129 199.662 26.647 198.441 26.647 198.441C26.647 198.441 36.9973 201.471 34.4082 192.285C34.4082 192.285 35.4758 181.985 36.7097 169.839C31.2692 169.577 25.8607 168.72 20.5353 167.166H20.5417Z" fill="#F7BB8C"/>
<path id="Vector_7" d="M40.4688 131.154C36.8503 131.186 22.3254 145.526 18.7261 145.36C18.8795 148.87 19.6914 158.012 20.5417 167.166C25.8671 168.72 31.2756 169.577 36.7161 169.839C38.4933 152.398 40.6286 131.148 40.4688 131.154Z" fill="#F7BB8C"/>
</g>
<g id="Group_4">
<g id="Group_5">
<path id="Vector_8" d="M16.5009 192.579C12.0642 194.561 10.6257 196.523 10.6257 196.523C10.6257 196.523 10.8111 197.163 16.8078 197.994C17.2873 196.133 17.1722 194.203 16.5009 192.579Z" fill="white"/>
<path id="Vector_9" d="M34.7784 191.358C28.9672 194.433 22.3312 190.054 22.3312 190.054C19.9338 190.674 18.0734 191.876 16.5007 192.572C17.172 194.196 17.2871 196.121 16.8076 197.987C18.3547 198.198 20.279 198.428 22.6956 198.659C34.4844 199.784 35.1364 196.562 35.1364 196.562C35.3858 193.416 34.7273 191.524 34.7784 191.358Z" fill="#E85336"/>
</g>
<path id="Vector_10" d="M35.1435 196.568C35.0668 197.182 34.9645 197.827 34.811 198.499C34.811 198.499 31.3396 199.656 22.0505 199.458C11.6746 199.24 10.4152 197.821 10.4152 197.821C10.4152 197.821 10.3769 197.29 10.6262 196.523C21.5263 198.972 30.4062 197.693 35.1371 196.562L35.1435 196.568Z" fill="white"/>
<path id="Vector_11" d="M20.4521 195.52C20.4521 195.52 20.4457 195.52 20.4393 195.52C20.3626 195.513 20.305 195.436 20.3178 195.353C20.6567 192.886 19.02 191.754 18.9497 191.709C18.8858 191.665 18.8666 191.575 18.9114 191.505C18.9561 191.434 19.0456 191.415 19.1095 191.454C19.1287 191.466 20.9635 192.726 20.5991 195.385C20.5863 195.462 20.5224 195.52 20.4521 195.52Z" fill="#D73C27"/>
<path id="Vector_12" d="M22.5364 194.836C22.4597 194.836 22.3958 194.765 22.4022 194.682C22.5428 192.055 21.098 191.038 21.0852 191.032C21.0213 190.987 21.0021 190.897 21.0469 190.827C21.0916 190.757 21.1811 190.738 21.245 190.782C21.309 190.827 22.8369 191.888 22.6899 194.695C22.6899 194.778 22.6195 194.842 22.5428 194.842L22.5364 194.836Z" fill="#D73C27"/>
<path id="Vector_13" d="M21.8967 191.901C21.8392 191.901 21.7881 191.863 21.7689 191.812C21.6858 191.575 20.9633 189.504 21.4876 188.717C21.6154 188.519 21.82 188.41 22.0693 188.41C22.3826 188.41 22.5424 188.564 22.6191 188.698C23.0794 189.465 22.1397 191.581 22.0374 191.818C22.0118 191.875 21.9607 191.907 21.9031 191.907L21.8967 191.901ZM22.0821 188.705C22.0821 188.705 22.0693 188.705 22.0566 188.705C21.8967 188.705 21.7881 188.762 21.7113 188.877C21.4045 189.344 21.6922 190.603 21.9159 191.345C22.2164 190.597 22.6383 189.312 22.3698 188.858C22.3315 188.794 22.2611 188.711 22.0821 188.705Z" fill="#D73C27"/>
<path id="Vector_14" d="M21.8972 191.939C21.8461 191.939 21.7949 191.907 21.7758 191.856C21.7502 191.805 21.763 191.741 21.8013 191.69C21.9675 191.498 23.4188 189.842 24.3202 189.951C24.5439 189.983 24.7166 190.117 24.8252 190.348C24.9595 190.635 24.8956 190.865 24.8124 191C24.3522 191.799 22.1593 191.927 21.91 191.939C21.91 191.939 21.91 191.939 21.9036 191.939H21.8972ZM24.2243 190.245C23.6873 190.232 22.7795 191.07 22.2552 191.613C23.0224 191.537 24.2946 191.326 24.5631 190.853C24.6015 190.782 24.6462 190.667 24.5631 190.488C24.4928 190.341 24.4033 190.264 24.269 190.252C24.2563 190.252 24.2371 190.252 24.2179 190.252L24.2243 190.245Z" fill="#D73C27"/>
</g>
</g>
<g id="Group_6">
<g id="Group_7">
<path id="Vector_15" d="M66.6808 147.361C63.171 148.307 52.0343 155.646 48.4734 156.401C48.3711 156.42 50.0716 162.161 52.1813 169.129C57.7113 168.394 63.2157 167.173 68.637 165.6C67.8123 157.692 67.026 150.372 66.6808 147.361Z" fill="#F7BB8C"/>
<path id="Vector_16" d="M71.3414 192.406C71.1305 189.804 69.8327 177.082 68.6308 165.607C63.2095 167.179 57.7051 168.394 52.1687 169.136C55.4419 179.965 59.6997 193.781 59.6997 193.781C58.6001 203.377 68.2919 198.141 68.2919 198.141C68.2919 198.141 80.8734 200.378 80.2981 197.68C79.7227 194.983 71.3286 192.406 71.3286 192.406H71.3414Z" fill="#F7BB8C"/>
</g>
<g id="Group_8">
<g id="Group_9">
<path id="Vector_17" d="M77.5292 194.107C81.8765 196.037 83.219 197.987 83.219 197.987C83.219 197.987 83.0017 198.633 76.9666 199.528C76.5767 197.667 76.7812 195.737 77.5292 194.107Z" fill="white"/>
<path id="Vector_18" d="M59.3032 193.09C64.9738 196.101 71.8143 191.645 71.8143 191.645C74.1862 192.24 75.9826 193.416 77.5233 194.1C76.7753 195.731 76.5644 197.661 76.9607 199.522C75.4072 199.752 73.4701 200.001 71.0408 200.257C59.1945 201.516 58.6958 198.301 58.6958 198.301C58.5935 195.155 59.3479 193.256 59.3032 193.09Z" fill="#E85336"/>
</g>
<path id="Vector_19" d="M58.6958 198.301C58.7406 198.914 58.8173 199.554 58.9387 200.231C58.9387 200.231 62.359 201.35 71.6545 201.05C82.0432 200.711 83.3729 199.279 83.3729 199.279C83.3729 199.279 83.4369 198.748 83.2195 197.981C72.2043 200.551 63.3755 199.375 58.6958 198.301Z" fill="white"/>
<path id="Vector_20" d="M73.445 197.086C73.445 197.086 73.4514 197.086 73.4578 197.086C73.5345 197.073 73.592 197.003 73.5856 196.92C73.3683 194.452 75.0496 193.308 75.1264 193.257C75.1903 193.212 75.2159 193.122 75.1775 193.052C75.1391 192.982 75.0496 192.962 74.9857 193.007C74.9665 193.02 73.0742 194.299 73.3107 196.958C73.3171 197.035 73.3811 197.092 73.4514 197.092L73.445 197.086Z" fill="#D73C27"/>
<path id="Vector_21" d="M71.3925 196.427C71.4692 196.427 71.5331 196.357 71.5331 196.274C71.5203 193.646 73.0099 192.617 73.0227 192.604C73.0866 192.56 73.1122 192.47 73.0675 192.4C73.0291 192.329 72.9396 192.31 72.8757 192.355C72.8117 192.4 71.2327 193.48 71.2454 196.287C71.2454 196.37 71.3094 196.434 71.3861 196.434L71.3925 196.427Z" fill="#D73C27"/>
<path id="Vector_22" d="M72.166 193.487C72.1085 193.487 72.0573 193.455 72.0318 193.397C71.9359 193.161 71.0984 191.057 71.597 190.284C71.6801 190.149 71.8528 189.996 72.1596 189.99C72.409 189.99 72.6007 190.098 72.7222 190.29C73.2081 191.07 72.3898 193.154 72.2939 193.391C72.2683 193.448 72.2172 193.48 72.166 193.487ZM71.8336 190.45C71.5395 190.904 71.9039 192.189 72.166 192.937C72.4281 192.195 72.7734 190.936 72.4857 190.469C72.4153 190.354 72.3067 190.296 72.1532 190.296C72.1468 190.296 72.1404 190.296 72.1277 190.296C71.9423 190.296 71.8719 190.386 71.8272 190.45H71.8336Z" fill="#D73C27"/>
<path id="Vector_23" d="M72.1592 193.525C71.9099 193.519 69.7235 193.41 69.3015 192.617C69.2248 192.483 69.1737 192.253 69.3207 191.965C69.4358 191.735 69.6212 191.594 69.845 191.562C70.7464 191.447 72.1273 193.09 72.2807 193.276C72.3191 193.32 72.3255 193.384 72.2999 193.442C72.2743 193.493 72.2232 193.525 72.172 193.531C72.172 193.531 72.1656 193.531 72.1592 193.531V193.525ZM69.8705 191.856C69.7363 191.876 69.6404 191.952 69.5701 192.099C69.4742 192.285 69.5125 192.4 69.5509 192.464C69.8002 192.93 71.0596 193.135 71.8268 193.199C71.3345 192.656 70.4651 191.831 69.9217 191.85C69.9025 191.85 69.8897 191.85 69.8705 191.85V191.856Z" fill="#D73C27"/>
</g>
</g>
<g id="Group_10">
<path id="Vector_24" d="M63.989 124.531L62.4355 115.958C62.4355 115.958 29.2876 114.379 20.446 117.537L18.7966 128.258C33.8139 125.688 48.8119 124.384 63.9954 124.531H63.989Z" fill="#00696A"/>
<path id="Vector_25" d="M18.7974 128.258L14.3606 157.078C14.3606 157.078 20.4851 162.5 39.3446 161.822L41.1027 140.13L42.4516 139.907L46.7541 161.598C46.7541 161.598 60.8252 163.631 69.9736 157.532L63.9962 124.531C48.8191 124.384 33.8146 125.688 18.8038 128.258H18.7974Z" fill="#00696A"/>
<g id="Group_11">
<path id="Vector_26" d="M40.2524 115.281L40.636 132.9" stroke="#2F2035" stroke-width="0.56" stroke-linecap="round" stroke-linejoin="round"/>
<g id="Vector_27">
<path d="M40.604 131.397C40.604 131.397 43.5896 131.621 43.9284 127.709C44.2672 123.796 44.0243 114.149 44.0243 114.149" fill="#00696A"/>
<path d="M40.604 131.397C40.604 131.397 43.5896 131.621 43.9284 127.709C44.2672 123.796 44.0243 114.149 44.0243 114.149" stroke="#2F2035" stroke-width="0.56" stroke-linecap="round" stroke-linejoin="round"/>
</g>
<g id="Vector_28">
<path d="M55.7043 116.105C55.7043 116.105 57.1875 124.237 64.2199 129.058L55.7043 116.105Z" fill="#00696A"/>
<path d="M55.7043 116.105C55.7043 116.105 57.1875 124.237 64.2199 129.058" stroke="#2F2035" stroke-width="0.56" stroke-linecap="round" stroke-linejoin="round"/>
</g>
<g id="Vector_29">
<path d="M20.178 130.528C20.178 130.528 28.1309 127.063 28.5337 115.913L20.178 130.528Z" fill="#00696A"/>
<path d="M20.178 130.528C20.178 130.528 28.1309 127.063 28.5337 115.913" stroke="#2F2035" stroke-width="0.56" stroke-linecap="round" stroke-linejoin="round"/>
</g>
<path id="Vector_30" d="M36.1292 141.115L51.6898 138.251" stroke="#2F2035" stroke-width="0.56" stroke-linecap="round" stroke-linejoin="round"/>
<path id="Vector_31" d="M42.4451 139.907L47.2271 142.771" stroke="#2F2035" stroke-width="0.56" stroke-linecap="round" stroke-linejoin="round"/>
<path id="Vector_32" d="M45.6672 144.765L48.9852 161.713" stroke="#2F2035" stroke-width="0.56" stroke-linecap="round" stroke-linejoin="round"/>
<path id="Vector_33" d="M15.1345 157.308L22.071 119.57" stroke="#2F2035" stroke-width="0.56" stroke-linecap="round" stroke-linejoin="round"/>
</g>
</g>
<g id="Group_12">
<path id="Vector_34" d="M41.0895 71.2901C47.3036 71.4499 50.9284 67.9785 52.9678 64.6541C52.028 64.4687 51.101 64.3217 50.1932 64.213C44.7783 63.5481 42.9691 63.7399 42.3873 63.887C41.812 63.7399 40.0155 63.5481 34.5623 64.213C32.9448 64.4112 31.2571 64.7309 29.5757 65.14C30.9566 67.7995 34.0764 71.1111 41.0895 71.2901Z" fill="#15A569"/>
<g id="Group_13">
<path id="Vector_35" d="M21.4819 94.2667C21.8272 94.2795 22.0957 94.2795 22.2619 94.2731L22.9907 92.0803C22.9907 92.0803 22.3322 93.0201 21.4819 94.2667Z" fill="#15A569"/>
<path id="Vector_36" d="M7.94807 87.5731C7.30877 88.9029 6.90601 89.7468 6.90601 89.7468C13.753 93.6018 19.3213 94.1963 21.4821 94.2666C22.3324 93.02 22.9909 92.0802 22.9909 92.0802C16.8728 91.7222 11.3939 89.4015 7.95446 87.5731H7.94807Z" fill="#15A569"/>
<path id="Vector_37" d="M62.2188 94.2283L60.2305 92.3551C60.1219 92.3615 60.0196 92.3743 59.9109 92.3807L61.5539 98.3966C61.2406 96.9325 60.9018 95.5325 60.531 94.2603C60.531 94.2603 61.1384 94.2986 62.2188 94.2219V94.2283Z" fill="#15A569"/>
<path id="Vector_38" d="M62.2187 94.2282C64.7631 94.0492 69.9671 93.2373 76.3665 89.7467C76.3665 89.7467 76.0405 88.9604 75.5098 87.7201C72.0448 89.5357 66.4189 91.9267 60.2305 92.3615L62.2187 94.2282Z" fill="#15A569"/>
<path id="Vector_39" d="M68.4258 72.1212C66.3736 68.8416 59.5011 65.9263 52.9674 64.6541C50.928 67.9785 47.3032 71.4499 41.0891 71.2901C34.076 71.1111 30.9562 67.7995 29.5817 65.14C23.5147 66.6168 17.5564 69.3402 15.7152 72.3449C15.549 72.6198 15.3572 72.9459 15.1526 73.3039C32.6631 77.6256 51.3372 77.8493 68.4258 72.1212Z" fill="#FAE366"/>
<path id="Vector_40" d="M68.4264 72.1212C51.3314 77.8494 32.6637 77.6257 15.1532 73.304C14.0791 75.2091 12.5384 78.2266 11.0808 81.1674C31.1294 87.0362 52.22 86.2115 72.2238 80.0998C70.8365 76.9544 69.4237 73.8793 68.5734 72.345C68.5351 72.2683 68.4775 72.198 68.4264 72.1212Z" fill="#15A569"/>
<path id="Vector_41" d="M11.0742 81.1674C9.87235 83.584 8.72799 85.9366 7.94165 87.5668C11.3811 89.3952 16.8599 91.7159 22.9781 92.0739L59.77 91.9205L60.2239 92.3488C66.4124 91.9205 72.0383 89.5295 75.5033 87.7075C74.7105 85.8407 73.4703 82.9383 72.2173 80.0934C52.2134 86.2051 31.1228 87.0298 11.0742 81.161V81.1674Z" fill="#FAE366"/>
<path id="Vector_42" d="M20.0942 109.815C19.4997 115.492 19.1672 120.248 19.1672 120.248C24.0068 117.333 38.9025 116.687 40.846 116.636C42.7831 116.687 59.6991 115.971 64.3724 118.886C64.3724 118.886 64.0272 114.417 63.2984 108.875C48.9077 107.782 34.3187 108.37 20.0942 109.808V109.815Z" fill="#15A569"/>
<path id="Vector_43" d="M63.2988 108.881C62.9728 106.381 62.5636 103.671 62.0778 101.043C48.3327 100.525 34.69 99.2405 21.1623 101.171C20.7532 103.971 20.3952 107.008 20.1011 109.821C34.3192 108.376 48.9145 107.788 63.3052 108.888L63.2988 108.881Z" fill="#FAE366"/>
<path id="Vector_44" d="M59.9109 92.3807C60.0195 92.3807 60.1218 92.3616 60.2305 92.3552L59.7766 91.9268L22.9847 92.0803L22.2559 94.2731C22.3837 94.2731 22.4668 94.2667 22.4668 94.2667C21.9873 96.0823 21.5462 98.5181 21.1562 101.165C34.6903 99.2341 48.3331 100.525 62.0781 101.037C61.9119 100.142 61.7393 99.2597 61.5539 98.3966L59.9109 92.3807Z" fill="#15A569"/>
</g>
<path id="Vector_45" d="M36.7676 105.755C42.2656 99.8286 46.9645 93.1543 50.6916 85.9877" stroke="#15A569" stroke-width="0.56" stroke-linecap="round" stroke-linejoin="round"/>
<path id="Vector_46" d="M43.7104 108.772C48.1472 104.227 51.1519 98.2879 52.1684 92.0611" stroke="#15A569" stroke-width="0.56" stroke-linecap="round" stroke-linejoin="round"/>
<path id="Vector_47" d="M23.023 90.725C22.7481 89.9706 24.7044 79.2751 25.8295 76.5644C26.9547 73.8538 29.7037 66.7703 29.7037 66.7703" stroke="#15A569" stroke-width="0.56" stroke-linecap="round" stroke-linejoin="round"/>
<path id="Vector_48" d="M53.7798 66.7766C53.7798 66.7766 58.7408 76.1168 59.3929 79.4284C60.045 82.74 60.1153 90.5779 60.1153 90.5779" stroke="#15A569" stroke-width="0.56" stroke-linecap="round" stroke-linejoin="round"/>
<path id="Vector_49" d="M19.5383 117.838C19.5383 117.838 38.4489 110.454 63.7014 116.029" stroke="#15A569" stroke-width="0.56" stroke-linecap="round" stroke-linejoin="round"/>
</g>
<g id="Group_14">
<g id="Group_15">
<path id="Vector_50" d="M32.2422 57.8455L32.6641 62.2247C37.9703 63.4266 43.4492 63.5672 48.5061 62.6083L48.602 56.3431L32.2422 57.8455Z" fill="#F7BB8C"/>
<path id="Vector_51" d="M32.6643 62.2311L33.3036 65.3317C33.3036 65.3317 34.205 68.8926 40.4255 68.8926C47.3939 68.8926 48.4168 65.3317 48.4168 65.3317L48.5126 62.6083C43.4494 63.5736 37.9769 63.4266 32.6707 62.2247L32.6643 62.2311Z" fill="#F7BB8C"/>
</g>
<g id="Vector_52">
<path d="M21.7 6.97612C16.5345 8.97714 12.2128 13.0559 9.90489 18.0936C9.39345 19.2124 8.97151 20.459 9.26559 21.6545C9.55967 22.85 10.8255 23.8665 11.989 23.4702C8.19795 25.5926 6.2225 30.5025 7.48832 34.658C8.75414 38.8134 13.1398 41.7862 17.4679 41.4282" fill="#99583E"/>
<path d="M21.7 6.97612C16.5345 8.97714 12.2128 13.0559 9.90489 18.0936C9.39345 19.2124 8.97151 20.459 9.26559 21.6545C9.55967 22.85 10.8255 23.8665 11.989 23.4702C8.19795 25.5926 6.2225 30.5025 7.48832 34.658C8.75414 38.8134 13.1398 41.7862 17.4679 41.4282" stroke="#99583E" stroke-width="0.63" stroke-miterlimit="10"/>
</g>
<path id="Vector_53" d="M61.7394 20.1778C61.7394 20.1778 64.271 29.3326 63.0499 42.2274C62.091 52.29 53.1216 61.3745 40.7574 61.0037C29.1349 60.6585 17.5826 54.8664 15.5241 38.3276C13.4655 21.7888 19.7882 9.37356 34.8311 7.17436C49.8675 4.97515 59.7 9.84025 61.7394 20.1778Z" fill="#F7BB8C"/>
<g id="Vector_54">
<mask id="path-58-inside-1_34122_20179" fill="white">
<path d="M60.2629 8.03101C63.4274 10.1151 66.707 12.3271 68.5674 15.6259C70.4342 18.9247 70.3639 23.6492 67.3847 25.9891C67.9281 28.3928 68.4715 30.803 69.0149 33.2068C69.4177 34.9904 69.8268 36.8125 69.6606 38.6345C69.4944 40.4565 68.6633 42.3105 67.097 43.2566C65.0896 44.4649 62.3214 43.8192 60.672 42.157C59.0226 40.4949 58.3769 38.0399 58.4281 35.7001C58.4792 33.3602 59.1441 31.0779 59.809 28.834C57.5266 25.3945 55.6215 21.7057 54.1255 17.8635C53.3648 15.9072 52.7063 13.7847 53.1666 11.739C53.6269 9.6932 55.6215 7.852 57.6737 8.29312"/>
</mask>
<path d="M60.2629 8.03101C63.4274 10.1151 66.707 12.3271 68.5674 15.6259C70.4342 18.9247 70.3639 23.6492 67.3847 25.9891C67.9281 28.3928 68.4715 30.803 69.0149 33.2068C69.4177 34.9904 69.8268 36.8125 69.6606 38.6345C69.4944 40.4565 68.6633 42.3105 67.097 43.2566C65.0896 44.4649 62.3214 43.8192 60.672 42.157C59.0226 40.4949 58.3769 38.0399 58.4281 35.7001C58.4792 33.3602 59.1441 31.0779 59.809 28.834C57.5266 25.3945 55.6215 21.7057 54.1255 17.8635C53.3648 15.9072 52.7063 13.7847 53.1666 11.739C53.6269 9.6932 55.6215 7.852 57.6737 8.29312" fill="#99583E"/>
<path d="M68.5674 15.6259L67.6964 16.1172L67.6971 16.1184L68.5674 15.6259ZM67.3847 25.9891L66.767 25.2026L66.2699 25.593L66.4093 26.2096L67.3847 25.9891ZM69.0149 33.2068L69.9904 32.9865L69.9903 32.9863L69.0149 33.2068ZM67.097 43.2566L67.6127 44.1134L67.6141 44.1126L67.097 43.2566ZM59.809 28.834L60.7677 29.118L60.9004 28.6702L60.6422 28.281L59.809 28.834ZM54.1255 17.8635L53.1935 18.2259L53.1937 18.2263L54.1255 17.8635ZM59.7128 8.86616C62.9112 10.9726 65.9739 13.0628 67.6964 16.1172L69.4384 15.1347C67.4402 11.5914 63.9436 9.25769 60.8129 7.19585L59.7128 8.86616ZM67.6971 16.1184C68.5332 17.596 68.9365 19.4017 68.7967 21.0843C68.6573 22.7624 67.9888 24.243 66.767 25.2026L68.0024 26.7755C69.7597 25.3953 70.616 23.3437 70.7898 21.2499C70.9634 19.1606 70.4684 16.9547 69.4377 15.1334L67.6971 16.1184ZM66.4093 26.2096C66.681 27.4113 66.9527 28.6146 67.2244 29.8181C67.4961 31.0216 67.7678 32.2252 68.0395 33.4273L69.9903 32.9863C69.7186 31.7846 69.447 30.5812 69.1753 29.3777C68.9036 28.1742 68.6318 26.9706 68.3601 25.7686L66.4093 26.2096ZM68.0395 33.4271C68.4485 35.2385 68.8142 36.9052 68.6648 38.5436L70.6565 38.7253C70.8395 36.7197 70.3869 34.7424 69.9904 32.9865L68.0395 33.4271ZM68.6648 38.5436C68.5163 40.1711 67.7839 41.6734 66.58 42.4007L67.6141 44.1126C69.5427 42.9475 70.4725 40.7419 70.6565 38.7253L68.6648 38.5436ZM66.5813 42.3999C65.0577 43.317 62.786 42.8677 61.3818 41.4527L59.9622 42.8614C61.8568 44.7708 65.1215 45.6129 67.6127 44.1134L66.5813 42.3999ZM61.3818 41.4527C59.986 40.046 59.3803 37.8938 59.4278 35.7219L57.4283 35.6782C57.3735 38.186 58.0593 40.9437 59.9622 42.8614L61.3818 41.4527ZM59.4278 35.7219C59.4756 33.5371 60.0972 31.381 60.7677 29.118L58.8502 28.5499C58.1909 30.7748 57.4828 33.1834 57.4283 35.6782L59.4278 35.7219ZM60.6422 28.281C58.4001 24.9022 56.5278 21.2773 55.0574 17.5007L53.1937 18.2263C54.7152 22.1341 56.6532 25.8868 58.9757 29.3869L60.6422 28.281ZM55.0575 17.5011C54.2972 15.546 53.7548 13.6804 54.1422 11.9585L52.191 11.5195C51.6578 13.8891 52.4323 16.2685 53.1935 18.2259L55.0575 17.5011ZM54.1422 11.9585C54.3217 11.1607 54.8104 10.3827 55.4541 9.85932C56.0939 9.33903 56.8045 9.12912 57.4635 9.27079L57.8838 7.31545C56.4907 7.016 55.1779 7.50613 54.1923 8.3076C53.2105 9.10593 52.4718 10.2715 52.191 11.5195L54.1422 11.9585Z" fill="#99583E" mask="url(#path-58-inside-1_34122_20179)"/>
</g>
<g id="Vector_55">
<path d="M65.4408 44.222C67.8829 43.7681 69.9351 41.6839 70.357 39.229C70.6831 37.3175 70.0949 35.374 69.4428 33.552C68.3304 30.4513 67.0071 27.4274 65.4855 24.4994C66.0737 25.5031 66.9176 26.5963 68.0811 26.5644C68.9058 26.5388 69.6218 25.8995 69.9479 25.1387C70.2739 24.378 70.2803 23.5213 70.2036 22.6966C69.9415 19.6791 68.7076 16.7511 66.7322 14.456C64.7567 12.1609 62.0461 10.5051 59.0989 9.79544" fill="#99583E"/>
<path d="M65.4408 44.222C67.8829 43.768 69.9351 41.6839 70.357 39.229C70.6831 37.3175 70.0949 35.374 69.4428 33.552C68.3304 30.4513 67.0071 27.4274 65.4855 24.4994C66.0737 25.5031 66.9176 26.5963 68.0811 26.5644C68.9058 26.5388 69.6218 25.8995 69.9479 25.1387C70.2739 24.378 70.2803 23.5213 70.2036 22.6966C69.9415 19.6791 68.7076 16.7511 66.7322 14.456C64.7567 12.1609 62.0461 10.5051 59.0989 9.79544" stroke="#99583E" stroke-width="0.63" stroke-miterlimit="10"/>
</g>
<path id="Vector_56" d="M15.9556 35.9973L15.955 35.9974L15.954 35.9975L15.9532 35.9976L15.3439 36.0792L15.5511 36.6587L15.5511 36.6588C15.5511 36.6588 15.5512 36.6592 15.5513 36.6593C15.5513 36.6595 15.5514 36.6598 15.5515 36.6601C15.5516 36.6603 15.5515 36.6601 15.5516 36.6604C15.5517 36.6605 15.5517 36.6607 15.5518 36.6608L15.5519 36.6611L15.557 36.6774C15.562 36.6936 15.5695 36.7192 15.5775 36.7518C15.5939 36.8185 15.6106 36.9065 15.6162 36.9984C15.6292 37.2107 15.5781 37.2928 15.5411 37.3208C15.4956 37.3552 15.2604 37.4743 14.5216 37.2565C13.8066 37.0457 12.737 36.5521 11.1648 35.5816C9.68976 34.6695 8.93742 33.492 8.61619 32.2371C8.29083 30.966 8.40102 29.5853 8.71339 28.2841C9.02499 26.9861 9.53008 25.7989 9.96068 24.9323C10.1754 24.5001 10.3701 24.1506 10.5104 23.9102C10.5806 23.7901 10.637 23.6974 10.6754 23.6355C10.6946 23.6046 10.7093 23.5813 10.719 23.5662L10.7296 23.5496L10.7319 23.546L10.7322 23.5456L10.7323 23.5454L15.9556 35.9973ZM15.9556 35.9973L15.9564 35.9972L15.9564 35.9971C15.9605 35.9965 15.9687 35.9951 15.9807 35.9928C16.0048 35.9883 16.0441 35.9802 16.0968 35.967C16.2022 35.9406 16.361 35.8941 16.5588 35.8154C16.954 35.6582 17.5051 35.3726 18.0979 34.8624C19.276 33.8484 20.6633 31.9081 21.2768 28.2024L21.3274 27.8964L21.6207 27.8069L21.6212 27.8068L21.6215 27.8067L21.6217 27.8066L21.6228 27.8062C21.6259 27.8052 21.6326 27.8029 21.6427 27.7992C21.6628 27.7919 21.6965 27.779 21.7422 27.7594C21.8337 27.7201 21.9736 27.6537 22.1511 27.5504C22.5058 27.3438 23.0123 26.9885 23.5826 26.4038C24.7209 25.2369 26.1316 23.1376 27.0844 19.4393L27.2381 18.8424L27.7904 19.1159L27.5685 19.564C27.7904 19.1159 27.7905 19.1159 27.7905 19.116L27.7911 19.1162L27.7934 19.1174L27.8032 19.1222L27.8429 19.1417C27.8781 19.159 27.9308 19.1847 27.9999 19.2182C28.1382 19.2852 28.3424 19.3834 28.6046 19.5073C29.129 19.7551 29.8856 20.106 30.8121 20.5171C32.666 21.3399 35.1966 22.4024 37.9078 23.3641C40.6223 24.327 43.5015 25.183 46.0566 25.6001C48.6332 26.0208 50.7608 25.9735 52.0749 25.2638L52.0805 25.2602C52.0927 25.2521 52.1127 25.2386 52.1391 25.2196C52.192 25.1814 52.27 25.1218 52.3622 25.0407C52.5473 24.8776 52.7839 24.6329 52.9901 24.3076C53.3924 23.673 53.699 22.7057 53.2193 21.3552L52.5991 19.6089L54.0121 20.805L54.0123 20.8051L54.0128 20.8056L54.0131 20.8059L54.0135 20.8062L54.0148 20.8072L54.0328 20.8215C54.0503 20.8352 54.0789 20.857 54.1185 20.8855C54.1977 20.9424 54.321 21.0258 54.4878 21.1241C54.8215 21.3207 55.3291 21.5765 56.0077 21.7987C57.3613 22.2418 59.4091 22.5559 62.1352 21.9835C63.4084 21.7161 64.1986 21.0649 64.6532 20.2391C65.117 19.3965 65.2552 18.3261 65.1196 17.2076C64.9842 16.0918 64.5801 14.9665 64.0078 14.0449C63.4312 13.1166 62.7135 12.441 61.979 12.1534L61.5548 11.9873L61.6806 11.5499L61.6807 11.5498L61.6808 11.5495L61.6808 11.5495L61.6818 11.5459L61.6867 11.528C61.6912 11.5114 61.698 11.4856 61.7066 11.4512C61.7239 11.3824 61.7485 11.2794 61.7762 11.1471C61.8317 10.8824 61.8996 10.5022 61.9472 10.0468C62.0429 9.13099 62.0544 7.9358 61.7386 6.76866C61.4249 5.60939 60.7926 4.48908 59.601 3.67822C58.4042 2.8639 56.5883 2.32425 53.839 2.43796C48.1608 2.67281 44.8893 2.28837 42.2159 1.80716C41.5679 1.69051 40.9607 1.56956 40.3671 1.45132C38.5098 1.08134 36.7853 0.737819 34.356 0.635106C28.0677 0.369228 23.94 3.77633 21.9894 6.89595L21.9064 7.02869L21.7627 7.09035L21.7626 7.09039L15.9556 35.9973Z" fill="#99583E" stroke="#99583E"/>
<g id="Vector_57">
<mask id="path-63-inside-2_34122_20179" fill="white">
<path d="M20.3314 9.89134C18.9569 8.50405 17.7934 6.91858 16.8856 5.18606C16.681 4.79609 16.5596 4.18236 16.9687 4.02253C17.282 3.90106 17.5952 4.18236 17.8126 4.43808C18.5861 5.35228 19.3661 6.26649 20.1397 7.18708C19.3341 5.62079 18.8291 3.90106 18.6756 2.14298C18.6181 1.49728 18.6948 0.69815 19.283 0.429642C19.7305 0.231458 20.2739 0.468 20.5808 0.851582C20.8876 1.23516 21.0091 1.72743 21.1178 2.20691C21.6612 4.51479 22.2046 6.82268 22.7544 9.12417"/>
</mask>
<path d="M20.3314 9.89134C18.9569 8.50405 17.7934 6.91858 16.8856 5.18606C16.681 4.79609 16.5596 4.18236 16.9687 4.02253C17.282 3.90106 17.5952 4.18236 17.8126 4.43808C18.5861 5.35228 19.3661 6.26649 20.1397 7.18708C19.3341 5.62079 18.8291 3.90106 18.6756 2.14298C18.6181 1.49728 18.6948 0.69815 19.283 0.429642C19.7305 0.231458 20.2739 0.468 20.5808 0.851582C20.8876 1.23516 21.0091 1.72743 21.1178 2.20691C21.6612 4.51479 22.2046 6.82268 22.7544 9.12417" fill="#99583E"/>
<path d="M16.8856 5.18606L17.7714 4.72193L17.7711 4.72151L16.8856 5.18606ZM16.9687 4.02253L16.6072 3.09016L16.6049 3.09107L16.9687 4.02253ZM17.8126 4.43808L18.576 3.79213L18.5745 3.79043L17.8126 4.43808ZM20.1397 7.18708L19.3741 7.8304L21.0289 6.72974L20.1397 7.18708ZM18.6756 2.14298L19.6719 2.05603L19.6717 2.05422L18.6756 2.14298ZM19.283 0.429642L18.878 -0.484767L18.8677 -0.480046L19.283 0.429642ZM21.1178 2.20691L20.1425 2.42797L20.1444 2.4361L21.1178 2.20691ZM21.0418 9.18751C19.7368 7.87033 18.6326 6.3655 17.7714 4.72193L15.9998 5.65019C16.9542 7.47165 18.1771 9.13777 19.6211 10.5952L21.0418 9.18751ZM17.7711 4.72151C17.7498 4.68074 17.7289 4.6303 17.7142 4.58023C17.7071 4.55609 17.7025 4.5356 17.6997 4.51966C17.6969 4.50341 17.6968 4.49575 17.6968 4.49641C17.6968 4.4967 17.6972 4.51161 17.6923 4.53813C17.6874 4.56483 17.6761 4.6094 17.6492 4.6633C17.6215 4.71889 17.5793 4.78004 17.519 4.83589C17.4582 4.89219 17.3927 4.9305 17.3326 4.95399L16.6049 3.09107C15.8365 3.39123 15.6882 4.11998 15.6972 4.53957C15.7063 4.95883 15.8488 5.36231 16 5.65061L17.7711 4.72151ZM17.3302 4.95489C17.2249 4.99574 17.1178 5.00052 17.0317 4.98562C16.955 4.97236 16.9134 4.9471 16.9107 4.94551C16.9073 4.94346 16.9212 4.95168 16.9512 4.97965C16.98 5.00651 17.0134 5.04193 17.0506 5.08573L18.5745 3.79043C18.4418 3.63423 18.2258 3.40281 17.9425 3.2322C17.6505 3.05635 17.1598 2.87588 16.6072 3.09017L17.3302 4.95489ZM17.0492 5.08402C17.8266 6.00276 18.6016 6.91115 19.3741 7.8304L20.9053 6.54377C20.1306 5.62182 19.3457 4.7018 18.576 3.79213L17.0492 5.08402ZM21.0289 6.72974C20.2813 5.27607 19.8137 3.68185 19.6719 2.05603L17.6794 2.22992C17.8444 4.12027 18.3869 5.96551 19.2504 7.64443L21.0289 6.72974ZM19.6717 2.05422C19.6481 1.78993 19.6603 1.5611 19.7021 1.40757C19.7417 1.262 19.7688 1.30712 19.6983 1.33933L18.8677 -0.480046C18.209 -0.17933 17.9037 0.399609 17.7723 0.882161C17.6431 1.35674 17.6456 1.85032 17.6796 2.23173L19.6717 2.05422ZM19.6879 1.34399C19.6281 1.37047 19.6036 1.34823 19.6479 1.36404C19.6686 1.37145 19.6961 1.38508 19.7259 1.4066C19.7556 1.42808 19.781 1.45266 19.7999 1.47628L21.3616 0.226887C20.8875 -0.365776 19.8896 -0.932668 18.8781 -0.484707L19.6879 1.34399ZM19.7999 1.47628C19.9425 1.65455 20.0277 1.92137 20.1425 2.42797L22.093 1.98585C21.9905 1.53348 21.8328 0.815781 21.3616 0.226887L19.7999 1.47628ZM20.1444 2.4361C20.6877 4.74372 21.2315 7.05319 21.7818 9.35652L23.727 8.89182C23.1777 6.59217 22.6346 4.28587 22.0912 1.97772L20.1444 2.4361Z" fill="#99583E" mask="url(#path-63-inside-2_34122_20179)"/>
</g>
<g id="Vector_58">
<path d="M25.3435 18.4836C31.2762 21.3796 37.3944 23.9049 43.6404 26.0465C45.7117 26.7562 47.8854 27.4274 50.0526 27.127C52.2198 26.8265 54.3679 25.2538 54.6044 23.0802C54.7834 21.4563 53.9076 19.9284 53.0637 18.5283C54.3551 20.6316 56.5863 22.1212 59.022 22.5176C61.4578 22.9139 64.047 22.1915 65.9329 20.6061" fill="#99583E"/>
<path d="M25.3435 18.4836C31.2762 21.3796 37.3944 23.9049 43.6404 26.0465C45.7117 26.7562 47.8854 27.4274 50.0526 27.127C52.2198 26.8265 54.3679 25.2538 54.6044 23.0802C54.7834 21.4563 53.9076 19.9284 53.0637 18.5283C54.3551 20.6316 56.5863 22.1212 59.022 22.5176C61.4578 22.9139 64.047 22.1915 65.9329 20.6061" stroke="#99583E" stroke-width="0.63" stroke-miterlimit="10"/>
</g>
<path id="Vector_59" d="M57.233 48.9976L58.6458 39.6893C58.6458 39.6893 69.7889 37.4773 69.3925 46.4084C68.9961 55.3395 59.6176 54.8983 57.2266 48.9976H57.233Z" fill="#F7BB8C"/>
<path id="Vector_60" d="M60.2243 49.7966C60.2243 49.7966 60.2754 49.7966 60.301 49.7902C60.3969 49.7583 60.4417 49.656 60.4097 49.5601C60.3969 49.5153 58.9009 45.0594 62.0719 43.3588C63.1843 42.7579 64.2391 42.6173 65.2109 42.9241C66.8858 43.4611 67.7617 45.1936 67.7681 45.2064C67.8128 45.2959 67.9215 45.3343 68.0046 45.2895C68.0941 45.2448 68.1325 45.1361 68.0877 45.053C68.0494 44.9763 67.1416 43.1671 65.3195 42.5853C64.2519 42.2465 63.1012 42.3999 61.8993 43.0456C58.4598 44.8932 60.0517 49.6304 60.0709 49.6816C60.0964 49.7519 60.154 49.7966 60.2243 49.803V49.7966Z" fill="#763633"/>
<path id="Vector_61" d="M64.9421 46.7344C64.9996 46.7344 65.0508 46.7216 65.0891 46.6769C65.153 46.6001 65.153 46.4915 65.0763 46.4211C65.0508 46.3956 62.2698 43.9279 59.8404 45.9417C59.7637 46.0056 59.7509 46.1143 59.8149 46.191C59.8788 46.2677 59.9875 46.2805 60.0642 46.2166C62.257 44.4009 64.8078 46.6641 64.8334 46.6896C64.8654 46.7152 64.8973 46.7344 64.9357 46.7344H64.9421Z" fill="#763633"/>
<path id="Vector_62" d="M33.5334 47.9171C33.0347 49.5793 30.1131 50.1675 27.0061 49.2405C23.8991 48.3135 21.7766 46.2102 22.2753 44.5544C22.7739 42.8986 25.6955 42.304 28.8026 43.231C31.9096 44.158 34.0321 46.2613 33.5334 47.9171Z" fill="#EBA178"/>
<path id="Vector_63" d="M20.1402 45.4685L18.3374 35.7639C18.3374 35.7639 9.97526 31.7938 8.68387 40.6354C7.38608 49.477 16.6816 50.8131 20.1402 45.4685Z" fill="#F7BB8C"/>
<path id="Vector_64" d="M29.3965 33.0479C28.7033 33.1222 28.255 33.0083 27.9499 32.759L27.8273 32.6347C27.8268 32.6341 27.826 32.6333 27.8251 32.6323C27.8206 32.6271 27.8117 32.6167 27.8001 32.6015C27.7765 32.5707 27.7432 32.5226 27.711 32.4603C27.6464 32.3352 27.5931 32.1677 27.6139 31.9703C27.6526 31.6029 27.9922 30.8566 29.8825 30.0176C31.8062 29.1639 33.011 28.9037 33.7663 28.9416C34.1332 28.9601 34.3779 29.0482 34.5495 29.159C34.7208 29.2697 34.8505 29.4234 34.9561 29.6222C35.0758 29.8508 35.0714 30.1909 34.6942 30.6562C34.3145 31.1248 33.608 31.6371 32.5493 32.0817C31.2359 32.6317 30.1974 32.962 29.3965 33.0479Z" fill="#99583E" stroke="#99583E"/>
<path id="Vector_65" d="M32.8045 39.7084C32.715 40.9231 31.8328 41.8437 30.8355 41.767C29.8381 41.6902 29.1093 40.6482 29.1988 39.4335C29.2883 38.2188 30.1706 37.2982 31.1679 37.3749C32.1652 37.4517 32.894 38.4937 32.8045 39.7084Z" fill="#000100"/>
<path id="Vector_66" d="M45.2649 49.0295C45.4375 50.7556 48.1993 51.8872 51.4277 51.5612C54.6562 51.2351 57.1303 49.5729 56.9577 47.8468C56.7851 46.1207 54.0233 44.9891 50.7948 45.3152C47.5664 45.6412 45.0922 47.3034 45.2649 49.0295Z" fill="#EBA178"/>
<path id="Vector_67" d="M55.9673 34.8348C55.967 34.8351 55.9666 34.8355 55.9663 34.8358L55.9591 34.8427C55.6387 35.1513 55.1585 35.2864 54.3727 35.1592C53.5782 35.0306 52.5596 34.6452 51.28 34.024L51.2793 34.0237C50.2476 33.5247 49.5686 32.9741 49.2136 32.4847C48.8598 31.9969 48.8758 31.6578 49.0071 31.4404L49.0071 31.4404L49.008 31.4388C49.1232 31.2463 49.2605 31.1004 49.4374 30.9996C49.6144 30.8987 49.8638 30.8244 50.2319 30.8264C50.9894 30.8305 52.1797 31.1568 54.0539 32.1121C55.8952 33.0507 56.1945 33.8144 56.2136 34.184C56.2238 34.3826 56.1617 34.5473 56.0904 34.669C56.055 34.7295 56.0192 34.7758 55.994 34.8053C55.9815 34.8199 55.9721 34.8298 55.9673 34.8348Z" fill="#99583E" stroke="#99583E"/>
<path id="Vector_68" d="M48.0519 40.7761C47.9624 41.9907 48.6912 43.0328 49.6885 43.1095C50.6858 43.1862 51.568 42.2656 51.6575 41.051C51.747 39.8363 51.0182 38.7942 50.0209 38.7175C49.0236 38.6408 48.1414 39.5614 48.0519 40.7761Z" fill="#000100"/>
<path id="Vector_69" d="M17.0519 45.6924C17.0519 45.6924 17.0008 45.6796 16.9816 45.6668C16.8985 45.6157 16.8665 45.507 16.9177 45.4239C16.9433 45.3855 19.2448 41.294 16.4574 39.0244C15.4793 38.2253 14.4692 37.8865 13.4527 38.0016C11.7074 38.2125 10.5183 39.7468 10.5055 39.766C10.4479 39.8427 10.3329 39.8619 10.2561 39.798C10.1794 39.7405 10.1602 39.6254 10.2178 39.5487C10.2689 39.4783 11.5028 37.8801 13.4015 37.6499C14.5139 37.5157 15.6135 37.8865 16.6748 38.7495C19.7051 41.2109 17.2437 45.5645 17.2246 45.6093C17.1862 45.6732 17.1223 45.7052 17.0519 45.6988V45.6924Z" fill="#763633"/>
<path id="Vector_70" d="M12.9995 41.7926C12.9483 41.7926 12.8908 41.7606 12.8652 41.7095C12.8141 41.6264 12.8396 41.5177 12.9227 41.4665C12.9547 41.4473 16.1512 39.5486 18.1586 41.978C18.2226 42.0547 18.2098 42.1698 18.1331 42.2273C18.0563 42.2912 17.9477 42.2784 17.8837 42.2017C16.0745 40.0089 13.1401 41.7478 13.1145 41.767C13.0826 41.7862 13.0442 41.799 13.0058 41.7926H12.9995Z" fill="#763633"/>
<path id="Vector_71" d="M37.1086 48.0427C37.1086 48.0427 40.1512 50.9008 43.3304 48.7848" stroke="#763633" stroke-width="0.62" stroke-linecap="round" stroke-linejoin="round"/>
</g>
<path id="Vector_72" d="M53.9513 93.1376C53.9513 93.1376 56.8345 92.6133 60.9325 97.3697C60.9325 97.3697 63.9145 100.558 62.4058 101.12C61.7984 101.344 59.1168 98.6483 59.1168 98.6483C59.1168 98.6483 63.6346 102.449 62.9058 103.12C62.1706 103.798 59.0977 101.755 57.5505 100.125C57.5505 100.125 62.2432 103.315 61.4058 104.12C60.5747 104.926 56.5852 101.87 56.5852 101.87C56.5852 101.87 61.0131 104.347 60.4058 105.12C59.7984 105.894 55.2938 102.964 55.2938 102.964C55.2938 102.964 52.858 103.526 48.3957 102.523C48.3957 102.523 26.2502 117.744 17.1977 114.599C8.14513 111.454 9.47489 102.299 17.2808 99.0511C25.0867 95.8035 49.4186 93.7513 53.9449 93.1376H53.9513Z" fill="#F7BB8C"/>
<path id="Vector_73" d="M106.547 93.1269C106.547 93.1269 109.45 92.9223 113.298 98.1134C113.298 98.1134 116.45 101.572 114.916 101.968C114.302 102.128 111.425 99.1938 111.425 99.1938C111.425 99.1938 114.264 102.953 113.497 103.541C112.736 104.136 111.253 102.288 109.789 100.492C109.789 100.492 112.365 104.5 111.496 105.21C110.626 105.919 108.74 102.122 108.74 102.122C108.74 102.122 109.929 105.689 109.284 106.392C108.638 107.096 107.398 103.074 107.398 103.074C107.398 103.074 104.943 103.368 100.538 101.873C100.538 101.873 76.2729 111.257 67.4058 107.12C58.5386 102.984 61.7385 97.3527 69.685 94.9744C77.6316 92.5962 102.002 93.2355 106.547 93.1205V93.1269Z" fill="#F7BB8C"/>
<path id="Vector 12" d="M40.4028 39.7075C43.979 40.6132 44.3547 43.0245 40.4028 43.8946" stroke="#763633" stroke-linecap="round"/>
</g>
<g id="k4">
<g id="Group_16">
<path id="Vector_74" d="M69.0157 140.228C71.2306 141.361 73.2362 141.718 73.5418 141.12C73.8473 140.523 72.3343 139.193 70.1209 138.062C67.906 136.929 65.8759 136.307 65.5704 136.905C65.2648 137.502 66.8021 139.094 69.017 140.227L69.0157 140.228Z" fill="#00A1A2"/>
<path id="Vector_75" d="M63.0231 149.358C63.4685 149.706 65.7601 145.745 65.8889 145.525C65.7967 145.742 64.2522 149.427 65.0753 149.529C65.923 149.635 67.4815 145.993 67.4815 145.993C67.4815 145.993 67.3393 147.746 67.4488 148.594C67.5681 149.502 68.2094 149.065 68.6755 147.436C68.8723 146.753 69.1168 145.863 69.3421 145.026C69.6327 143.958 69.8914 142.976 69.9862 142.618C70.0089 142.525 70.0226 142.474 70.0226 142.474L68.4985 141.317L65.2929 138.883L65.2837 138.875C62.16 139.329 59.7238 141.246 59.6977 141.84C59.656 142.882 63.178 142.05 63.178 142.05C63.178 142.05 60.5578 146.436 61.0691 147.037C61.5804 147.638 63.8905 144.615 63.8905 144.615C63.8905 144.615 62.0359 148.587 63.02 149.356L63.0231 149.358Z" fill="#F7BB8C"/>
<path id="Vector_76" d="M64.9492 139.566L68.4379 142.175L69.6399 143.073L69.9872 142.62L74.6392 136.52L83.5547 124.837C81.741 116.679 74.6294 120.579 74.6294 120.579L68.1205 133.35L65.8503 137.804L65.2982 138.885L64.9508 139.568L64.9492 139.566Z" fill="#F7BB8C"/>
<path id="Vector_77" d="M73.3581 188.143C73.2243 188.909 75.556 190.008 78.9138 190.598C82.2715 191.187 85.0064 191.008 85.1402 190.243C85.2739 189.478 82.7546 188.414 79.3969 187.825C76.0391 187.236 73.4918 187.378 73.3581 188.143Z" fill="#CCCC33"/>
<path id="Vector_78" d="M73.512 195.123L81.9063 196.077C81.9063 196.077 84.1402 189.696 84.2799 189.213C84.4736 188.542 84.6752 187.842 84.8788 187.131C86.7134 180.734 88.8195 173.21 88.6498 172.96C87.8653 171.794 81.5969 165.09 74.8195 172.567L74.051 185.823L73.9671 187.273L73.8733 188.882L73.8593 189.121L73.7116 191.681L73.5918 193.739L73.512 195.123Z" fill="#F7BB8C"/>
<path id="Vector_79" d="M104.403 189.586C104.403 190.363 107.165 190.994 110.573 190.994C113.981 190.994 116.746 190.363 116.746 189.586C116.746 188.808 113.983 188.177 110.573 188.177C107.163 188.177 104.403 188.808 104.403 189.586Z" fill="#CCCC33"/>
<path id="Vector_80" d="M92.3847 97.2581L102.708 96.9676L101.328 92.6779L101.065 91.8564L100.128 88.9592L92.6363 88.1558L92.4945 93.1968L92.4626 94.3689L92.3847 97.2581Z" fill="#F7BB8C"/>
<path id="Vector_81" d="M113.564 43.233C113.56 43.2771 113.574 43.3192 113.6 43.3552C113.961 43.8381 116.754 47.3404 121.627 46.4308C126.855 45.453 118.277 48.7068 122.545 68.9471C123.701 74.429 126.947 76.8433 128.043 77.5185C128.181 77.6027 128.322 77.4844 128.322 77.3222C128.342 75.3727 129.055 74.2486 129.512 74.0323C129.608 73.9862 129.72 74.0323 129.762 74.1324C130.991 76.9395 133.285 77.0557 134.191 76.9815C134.349 76.9675 134.417 76.7832 134.311 76.667C133.525 75.8054 133.147 74.6474 133.002 73.3851C132.752 71.2473 133.165 68.8069 133.377 66.9876C133.503 65.9157 134.792 62.0969 135.742 57.4064C136.313 54.5794 136.761 51.4377 136.755 48.3903C136.741 42.3014 134.914 36.5951 128.642 34.5494C122.417 32.5198 118.76 33.8021 116.612 35.946C113.919 38.6308 113.596 42.666 113.564 43.233Z" fill="#99583E"/>
<path id="Vector_82" d="M65.5688 136.907C65.906 136.79 66.7934 137.034 67.8644 137.467C70.0862 138.366 73.088 140.085 73.5415 141.121C73.5415 141.121 84.9858 125.045 88.1871 116.8C90.2656 111.452 91.3955 105.568 90.543 101.517C90.0821 99.323 89.0402 97.6663 87.25 96.9191C86.7138 96.6954 86.167 96.7098 85.6186 96.9231C83.4109 97.7774 81.165 101.818 79.3071 106.138C77.2581 110.897 75.6721 115.995 75.1112 117.534C71.4198 127.656 65.5704 136.908 65.5704 136.908L65.5688 136.907Z" fill="#4CDADB"/>
<path id="Vector_83" d="M112.833 79.8407C113.112 80.8385 114.563 85.6451 117.392 88.6285C117.544 88.7888 117.344 89.0332 117.159 88.915C115.763 88.0354 113.873 86.697 112.601 85.2224C112.497 85.1022 112.302 85.1583 112.278 85.3166C112.072 86.6409 111.186 90.7844 107.914 93.2227C107.75 93.345 107.539 93.1526 107.64 92.9763C108.786 91.0168 111.437 85.557 108.325 81.3094C108.249 81.2052 108.295 81.0549 108.417 81.0168L112.597 79.7145C112.697 79.6845 112.805 79.7406 112.833 79.8427V79.8407Z" fill="#99583E"/>
<path id="Vector_84" d="M104.994 187.392C105.121 188.095 105.245 188.784 105.363 189.449C105.453 189.944 105.541 190.425 105.622 190.888C105.94 192.647 106.217 194.15 106.401 195.152C106.517 195.789 106.599 196.224 106.633 196.398C106.642 196.454 106.646 196.482 106.646 196.482L107.219 196.478L115.468 196.434L115.53 195.047L115.602 193.422L115.732 190.507L115.746 190.189L115.817 188.58L115.875 187.263L116.47 173.861C110.493 165.727 103.574 171.752 102.674 172.832C102.478 173.064 103.814 180.822 104.992 187.39L104.994 187.392Z" fill="#F7BB8C"/>
<path id="Vector_85" d="M76.8021 133.9C89.3487 137.608 102.217 137.28 115.326 133.934C115.326 133.934 115.288 131.477 115.159 127.875C114.883 120.305 114.193 107.683 112.55 102.211C111.657 99.2415 109.753 97.4122 107.449 96.2902C105.958 95.5609 104.297 95.1262 102.636 94.8697C102.285 94.8156 101.935 94.7675 101.586 94.7314C99.2044 94.459 96.8967 94.503 95.1639 94.501C93.4012 94.501 91.5686 94.5892 89.7959 94.9619C89.5803 95.0079 89.3667 95.056 89.1551 95.1101C87.1349 95.621 85.2144 96.5367 83.5855 98.1496C82.741 98.9831 81.9785 100.001 81.3197 101.245C78.2175 107.092 77.2073 123.695 76.9119 130.71C76.832 132.686 76.8041 133.9 76.8041 133.9H76.8021Z" fill="#00A1A2"/>
<path id="Vector_86" d="M76.0271 84.1505C78.0194 86.2463 80.6226 87.7149 83.2237 88.7688C85.2959 89.6083 87.366 90.1834 89.1267 90.6061C95.2593 92.0788 104.947 90.9187 109.924 85.9458C110.563 85.3086 111.124 84.6074 111.591 83.842C111.691 83.6817 111.789 83.5174 111.888 83.3511C112.254 82.736 112.619 82.0848 112.978 81.4056C113.224 80.9488 113.465 80.482 113.701 80.0011C114.14 79.1115 114.567 78.1818 114.973 77.2221C115.687 75.5231 116.328 73.7258 116.835 71.8785C119.307 62.8804 118.596 52.7142 107.714 47.0159C98.2617 42.0651 89.9452 42.9206 84.2957 46.9739C83.0999 47.8314 82.02 48.8312 81.0777 49.9532C79.2252 52.1492 77.8896 54.8039 77.177 57.7252C77.169 57.7572 77.161 57.7893 77.155 57.8213C77.0951 58.0738 77.0352 58.3202 76.9773 58.5586C75.1348 66.0541 74.3862 65.4189 73.1864 69.9911C71.4616 76.5589 73.0706 81.045 76.0271 84.1505Z" fill="#F7BB8C"/>
<g id="Group_17">
<path id="Vector_87" d="M116.304 199.854C116.153 201.048 115.889 201.88 115.889 201.88L98.2338 201.763C97.8985 201.088 97.6569 200.469 97.5012 199.898C97.3914 199.497 97.3255 199.123 97.2956 198.772C96.8005 193.044 106.187 193.577 106.187 193.577C108.732 195.388 111.575 195.268 113.438 194.885C114.671 194.631 115.474 194.26 115.474 194.26C116.522 196.041 116.51 198.269 116.304 199.854Z" fill="#4CDADB"/>
<path id="Vector_88" d="M116.304 199.854C116.152 201.048 115.889 201.88 115.889 201.88L98.2338 201.763C97.8984 201.088 97.6569 200.469 97.5012 199.898C100.382 200.391 108.339 201.457 116.304 199.854Z" fill="#C8EFFF"/>
<path id="Vector_89" d="M102.278 197.66C102.508 197.66 102.731 197.538 102.851 197.321C103.027 197.005 102.911 196.604 102.596 196.428C100.829 195.446 100.416 194.472 100.412 194.464C100.286 194.124 99.9127 193.955 99.5733 194.082C99.234 194.208 99.0623 194.591 99.188 194.931C99.2399 195.073 99.763 196.356 101.963 197.58C102.063 197.636 102.172 197.662 102.28 197.662L102.278 197.66Z" fill="#C8EFFF"/>
<path id="Vector_90" d="M105.654 196.37C105.883 196.37 106.107 196.247 106.227 196.031C106.402 195.714 106.287 195.314 105.971 195.137C104.204 194.156 103.791 193.182 103.787 193.174C103.661 192.833 103.288 192.665 102.949 192.791C102.609 192.917 102.438 193.3 102.564 193.641C102.615 193.783 103.138 195.065 105.338 196.29C105.438 196.346 105.548 196.372 105.656 196.372L105.654 196.37Z" fill="#C8EFFF"/>
</g>
<g id="Group_18">
<path id="Vector_91" d="M83.7627 198.728C83.611 199.922 83.3475 200.754 83.3475 200.754L65.6923 200.637C65.357 199.962 65.1154 199.343 64.9597 198.772C64.8499 198.371 64.784 197.999 64.7541 197.646C64.259 191.918 73.6455 192.451 73.6455 192.451C76.1908 194.262 79.0335 194.142 80.8961 193.759C82.1298 193.505 82.9323 193.134 82.9323 193.134C83.9803 194.915 83.9683 197.143 83.7627 198.728Z" fill="#4CDADB"/>
<path id="Vector_92" d="M83.7627 198.728C83.611 199.922 83.3475 200.754 83.3475 200.754L65.6923 200.637C65.3569 199.962 65.1154 199.343 64.9597 198.772C67.8403 199.267 75.7955 200.331 83.7627 198.728Z" fill="#C8EFFF"/>
<path id="Vector_93" d="M69.739 196.534C69.9686 196.534 70.1921 196.412 70.3119 196.195C70.4876 195.879 70.3718 195.478 70.0564 195.302C68.2897 194.32 67.8764 193.346 67.8725 193.338C67.7467 192.998 67.3714 192.829 67.034 192.956C66.6946 193.082 66.523 193.465 66.6487 193.805C66.7006 193.947 67.2237 195.23 69.4216 196.454C69.5214 196.51 69.6312 196.536 69.739 196.536V196.534Z" fill="#C8EFFF"/>
<path id="Vector_94" d="M73.1123 195.244C73.3418 195.244 73.5654 195.122 73.6852 194.905C73.8609 194.589 73.7451 194.188 73.4297 194.012C71.671 193.034 71.2537 192.068 71.2497 192.058C71.124 191.717 70.7487 191.543 70.4093 191.669C70.0699 191.796 69.8963 192.172 70.022 192.513C70.0739 192.655 70.597 193.937 72.7949 195.162C72.8947 195.218 73.0045 195.244 73.1123 195.244Z" fill="#C8EFFF"/>
</g>
<g id="Group_19">
<path id="Vector_95" d="M87.5257 70.1254C87.0227 70.0873 86.5435 70.1093 86.0525 70.1654C85.5654 70.2275 85.0743 70.3297 84.5952 70.508C84.1161 70.6824 83.6469 70.9368 83.2397 71.3075C82.8344 71.6761 82.525 72.1931 82.3993 72.7421C82.2815 73.263 82.2615 73.83 82.4192 74.375C82.5769 74.916 82.8943 75.3968 83.2816 75.7575C83.6669 76.1241 84.1101 76.3906 84.5612 76.601C85.0164 76.8073 85.4815 76.9636 85.9546 77.0738C86.1124 77.1099 86.2681 77.0117 86.304 76.8554C86.3359 76.7132 86.2621 76.5729 86.1323 76.5188C85.7071 76.3405 85.2939 76.1522 84.9106 75.9258C84.5273 75.7034 84.174 75.4449 83.8885 75.1444C83.607 74.8418 83.3954 74.5012 83.3056 74.1285C83.2058 73.7599 83.2177 73.3532 83.3116 72.9544C83.3934 72.5798 83.587 72.2492 83.8705 71.9727C84.152 71.6942 84.5193 71.4798 84.9126 71.3055C85.7091 70.9669 86.6274 70.7906 87.5177 70.7084H87.5337C87.6934 70.6924 87.8112 70.5501 87.7972 70.3898C87.7832 70.2456 87.6675 70.1354 87.5297 70.1254H87.5257Z" fill="#763633"/>
<path id="Vector_96" d="M95.1352 70.8406C95.0813 71.9286 94.4106 72.7781 93.638 72.74C92.8634 72.702 92.2805 71.7883 92.3344 70.7024C92.3883 69.6164 93.0591 68.7649 93.8316 68.803C94.6062 68.8411 95.1891 69.7547 95.1352 70.8406Z" fill="#592F23"/>
<path id="Vector_97" d="M83.4772 67.2442C83.3574 68.3262 82.6367 69.1336 81.8662 69.0475C81.0956 68.9613 80.5686 68.0156 80.6884 66.9337C80.8081 65.8517 81.5288 65.0443 82.2994 65.1284C83.0699 65.2146 83.5969 66.1603 83.4772 67.2422V67.2442Z" fill="#592F23"/>
<path id="Vector_98" d="M83.2294 80.8392C83.8063 81.4103 84.4411 81.8851 85.1258 82.3059C85.8106 82.7246 86.5452 83.0753 87.3357 83.3097C87.733 83.4199 88.1422 83.51 88.5634 83.5421C88.9827 83.5802 89.4179 83.5601 89.8411 83.466C90.2643 83.3758 90.6775 83.2115 91.0408 82.9731C91.4002 82.7286 91.7056 82.4241 91.9531 82.0855C92.045 81.9593 92.019 81.7809 91.8913 81.6888C91.7815 81.6086 91.6317 81.6186 91.5339 81.7068L91.5219 81.7168C91.2524 81.9613 90.971 82.1756 90.6655 82.3319C90.3581 82.4882 90.0267 82.5804 89.6893 82.6305C89.0106 82.7286 88.2919 82.6144 87.5972 82.4101C87.2479 82.3059 86.9025 82.1776 86.5612 82.0314C86.2178 81.8891 85.8824 81.7248 85.5471 81.5525C84.8823 81.2059 84.2215 80.8112 83.5907 80.4045L83.5807 80.3965C83.449 80.3123 83.2733 80.3504 83.1894 80.4806C83.1156 80.5948 83.1355 80.7451 83.2294 80.8372V80.8392Z" fill="#763633"/>
<path id="Vector_99" opacity="0.3" d="M96.3111 79.667C94.3154 79.4008 92.8747 77.8476 93.0931 76.1979C93.3116 74.5481 95.1065 73.4265 97.1021 73.6927C99.0978 73.9589 100.538 75.512 100.32 77.1618C100.102 78.8115 98.3067 79.9332 96.3111 79.667Z" fill="#FF8485"/>
<path id="Vector_100" opacity="0.3" d="M77.1145 75.0774C75.348 74.7709 74.1199 73.3388 74.3714 71.8788C74.623 70.4188 76.2589 69.4837 78.0254 69.7903C79.7919 70.0968 81.02 71.5289 80.7684 72.9889C80.5169 74.4489 78.881 75.384 77.1145 75.0774Z" fill="#FF8485"/>
<path id="Vector_101" d="M94.3487 63.5897C93.7398 63.1629 92.6478 64.0706 93.5781 65.0303C93.9794 65.445 96.6005 67.4586 98.9182 69.2839C99.8295 69.7871 99.9849 68.9125 99.8292 68.65C99.0427 67.3357 96.8979 65.3709 94.3507 63.5897H94.3487Z" fill="#99583E"/>
<path id="Vector_102" d="M84.4331 60.8668C85.1757 60.8588 85.571 62.2233 84.2634 62.4937C83.6985 62.61 80.4046 62.7983 77.4661 63.0007C77.1826 63.0207 77.1487 62.5959 77.4241 62.4677C78.8116 61.8245 81.3289 60.9029 84.4331 60.8668Z" fill="#99583E"/>
</g>
<path id="Vector_103" d="M99.9148 41.7725C99.9148 45.1546 110.375 46.8776 113.348 47.3004C113.839 47.3705 114.128 47.4026 114.128 47.4026L115.476 45.3289L116.933 43.0868C116.933 43.0868 116.324 41.0572 115.188 38.5567C113.811 35.5173 111.661 31.7826 108.892 30.1356C105.442 28.0819 102.514 32.4317 101.007 36.6493C100.308 38.6008 99.9148 40.5242 99.9148 41.7725Z" fill="#DAB9FF"/>
<path id="Vector_104" d="M116.043 48.7469C116.043 48.7469 119.732 62.6278 123.621 62.0668C124.605 61.9246 125.976 61.4718 127.424 60.8005C131.688 58.813 136.567 54.92 133.818 51.4919C131.71 48.8651 127.454 47.2302 124.202 46.3146C121.772 45.6293 119.9 45.3468 119.9 45.3468L116.041 48.7489L116.043 48.7469Z" fill="#DAB9FF"/>
<g id="Group_20" opacity="0.5">
<path id="Vector_105" d="M114.501 42.618C114.537 42.618 114.575 42.61 114.609 42.596C114.751 42.5359 114.819 42.3716 114.759 42.2273C114.731 42.1612 111.946 35.6275 106.408 32.5179C106.273 32.4418 106.103 32.4899 106.027 32.6261C105.951 32.7624 105.999 32.9327 106.135 33.0088C111.501 36.0202 114.214 42.3816 114.242 42.4437C114.288 42.5519 114.392 42.616 114.501 42.616V42.618Z" fill="black"/>
</g>
<g id="Group_21" opacity="0.5">
<path id="Vector_106" d="M112.793 43.9042C112.859 43.9042 112.925 43.8822 112.976 43.8341C113.092 43.7319 113.106 43.5536 113.004 43.4374C112.958 43.3833 108.277 38.0477 102.051 36.8315C101.899 36.8015 101.751 36.9016 101.721 37.0539C101.691 37.2062 101.791 37.3545 101.943 37.3845C107.978 38.5646 112.535 43.7539 112.581 43.806C112.637 43.8701 112.715 43.9022 112.793 43.9022V43.9042Z" fill="black"/>
</g>
<path id="Vector_107" opacity="0.3" d="M99.9148 41.7727C99.9148 45.1547 110.375 46.8778 113.348 47.3006L115.476 45.329L116.933 43.087C116.933 43.087 116.324 41.0574 115.188 38.5569C114.096 38.4467 112.635 38.6471 111.509 40.0856C109.553 42.5861 106.75 36.5934 101.007 36.6515C100.308 38.603 99.9148 40.5264 99.9148 41.7747V41.7727Z" fill="black"/>
<g id="Group_22" opacity="0.5">
<path id="Vector_108" d="M129.478 53.6799C129.543 53.6799 129.611 53.6559 129.665 53.6078C129.781 53.5036 129.791 53.3253 129.687 53.2111C125.455 48.4666 118.492 47.1682 118.422 47.1542C118.268 47.1262 118.125 47.2283 118.097 47.3826C118.069 47.5349 118.171 47.6812 118.322 47.7092C118.39 47.7212 125.168 48.9895 129.268 53.5858C129.324 53.6479 129.4 53.6799 129.478 53.6799Z" fill="black"/>
</g>
<g id="Group_23" opacity="0.5">
<path id="Vector_109" d="M126.188 58.817C126.226 58.817 126.264 58.809 126.3 58.7929C126.441 58.7308 126.505 58.5645 126.443 58.4223C123.898 52.5898 117.69 49.1717 117.626 49.1376C117.49 49.0635 117.318 49.1156 117.247 49.2518C117.173 49.3881 117.225 49.5604 117.36 49.6325C117.42 49.6666 123.465 52.9945 125.93 58.6467C125.976 58.7529 126.08 58.815 126.188 58.815V58.817Z" fill="black"/>
</g>
<path id="Vector_110" opacity="0.3" d="M116.043 48.747C116.043 48.747 119.732 62.6279 123.621 62.0669C124.605 61.9246 125.977 61.4718 127.424 60.8006C126.106 60.6724 123.84 60.9769 123.294 58.6668C122.359 54.7257 120.489 54.9121 120.489 53.223C120.489 51.534 123.88 48.9794 124.204 46.3167C121.774 45.6314 119.902 45.3489 119.902 45.3489L116.043 48.751V48.747Z" fill="black"/>
<path id="Vector_111" d="M110.882 47.1561C111.507 48.7911 116.492 52.8784 118.053 52.2252C119.089 51.7904 120.538 50.416 121.211 48.727C121.549 47.8754 121.69 46.9417 121.481 46.0101C121.111 44.3631 118.365 42.0049 116.147 41.3698C115.38 41.1514 114.675 41.1393 114.154 41.4319C112.13 42.5779 110.26 45.5192 110.882 47.1541V47.1561Z" fill="#DAB9FF"/>
<path id="Vector_112" d="M88.8799 99.5841C93.3216 100.245 100.406 95.8094 101.958 94.7294C101.82 94.7134 101.68 94.6994 101.54 94.6854C99.2685 94.463 96.7931 94.499 95.1622 94.497C93.4294 94.497 91.6327 94.5812 89.89 94.9398C89.858 94.9458 89.8261 94.9518 89.7941 94.9578C87.8058 96.6769 85.6858 99.1053 88.8799 99.5801V99.5841Z" fill="#F7BB8C"/>
<path id="Vector_113" opacity="0.3" d="M110.883 47.1562C111.507 48.7911 116.492 52.8784 118.053 52.2252C119.089 51.7905 120.539 50.416 121.211 48.727C120.014 49.1057 117.946 49.4262 116.558 47.7793C114.729 45.6094 115.119 42.5499 116.147 41.3718C115.38 41.1534 114.676 41.1414 114.155 41.4339C112.128 42.58 110.26 45.5212 110.883 47.1562Z" fill="black"/>
<path id="Vector_114" d="M75.2328 55.9159C75.2288 55.992 75.2747 56.1282 75.3366 56.0902C78.9678 53.9724 79.1555 57.3504 84.2041 53.5977C86.2802 52.0549 85.879 54.343 86.0466 58.0717C86.0606 58.3462 86.3201 58.4143 86.5936 58.3883C93.369 57.7251 94.7964 54.7678 96.6649 54.0806C96.9683 53.9704 97.2558 54.2689 97.14 54.5694C96.1978 57.0299 96.2996 59.6766 94.8383 61.1272C94.6107 61.3516 94.7524 61.7403 95.0718 61.7664C99.3299 62.127 102.36 61.0831 103.514 60.5922C103.758 60.4901 104.029 60.6644 104.033 60.9288C104.213 70.9829 111.302 79.6144 112.751 81.2753C112.889 81.4356 113.132 81.4476 113.288 81.3034C117.873 77.0317 120.319 72.9724 121.391 69.2778C124.577 58.3242 115.727 50.5583 114.933 49.8891C114.895 49.857 114.863 49.8169 114.841 49.7708C109.028 38.0138 96.1359 37.2504 84.0184 41.7705C81.3673 42.7603 79.5068 44.5615 78.2092 46.5591C75.668 50.4621 75.2627 55.1124 75.2328 55.9139V55.9159Z" fill="#99583E"/>
<g id="Group_24" opacity="0.3">
<path id="Vector_115" d="M134.658 49.8469C134.704 49.0294 134.652 48.226 134.562 47.4205C134.464 46.6171 134.317 45.8177 134.109 45.0323C133.907 44.2449 133.638 43.4735 133.321 42.7221C132.999 41.9708 132.612 41.2475 132.165 40.5602L131.997 40.3038L131.815 40.0553C131.692 39.893 131.58 39.7187 131.444 39.5645L131.053 39.0896C130.913 38.9393 130.773 38.7891 130.632 38.6408C130.494 38.4885 130.336 38.3543 130.188 38.214C130.039 38.0738 129.891 37.9335 129.727 37.8073C129.567 37.6791 129.412 37.5468 129.248 37.4226L128.743 37.072C128.577 36.9498 128.4 36.8516 128.224 36.7474C128.046 36.6472 127.879 36.531 127.691 36.4449L127.142 36.1744C127.052 36.1263 126.958 36.0862 126.863 36.0502L126.579 35.936C125.828 35.6234 125.042 35.417 124.255 35.2507C124.176 35.2347 124.098 35.2848 124.082 35.3649C124.066 35.4391 124.108 35.5112 124.178 35.5352H124.185L124.744 35.7336C124.93 35.7977 125.118 35.8538 125.297 35.936L125.84 36.1604L125.976 36.2165L126.108 36.2806L126.371 36.4108C127.08 36.7394 127.741 37.1561 128.372 37.6069C129.621 38.5246 130.697 39.6686 131.536 40.975C131.963 41.6222 132.338 42.3074 132.654 43.0207C132.979 43.7299 133.245 44.4673 133.48 45.2146C133.935 46.7133 134.243 48.2781 134.361 49.8469V49.8549C134.367 49.9371 134.438 49.9972 134.518 49.9912C134.592 49.9851 134.65 49.925 134.654 49.8509L134.658 49.8469Z" fill="#F3F1E9"/>
</g>
<g id="Group_25" opacity="0.3">
<path id="Vector_116" d="M129.135 44.4414C128.727 43.3214 128.121 42.2995 127.374 41.3759C127.001 40.9151 126.585 40.4843 126.13 40.0996C125.675 39.7129 125.182 39.3703 124.653 39.0858C124.124 38.8033 123.563 38.5829 122.986 38.4226L122.549 38.3164C122.403 38.2864 122.253 38.2663 122.106 38.2423C122.032 38.2302 121.958 38.2182 121.884 38.2082L121.661 38.1882C121.511 38.1782 121.363 38.1581 121.213 38.1561C120.02 38.1201 118.836 38.3324 117.73 38.7171C117.652 38.7452 117.61 38.8293 117.638 38.9075C117.664 38.9816 117.742 39.0217 117.816 39.0036C118.93 38.7352 120.065 38.6049 121.187 38.673C121.746 38.7191 122.301 38.8033 122.838 38.9576C123.375 39.1118 123.894 39.3202 124.391 39.5787C124.885 39.8411 125.35 40.1597 125.787 40.5143C126.222 40.871 126.627 41.2657 127.003 41.6925C127.378 42.1172 127.715 42.578 128.029 43.0529C128.34 43.5277 128.622 44.0347 128.855 44.5456L128.859 44.5536C128.893 44.6297 128.983 44.6618 129.057 44.6277C129.127 44.5937 129.161 44.5135 129.135 44.4394V44.4414Z" fill="#F3F1E9"/>
</g>
<g id="Group_26" opacity="0.3">
<path id="Vector_117" d="M118.007 70.7464C118.285 69.953 118.478 69.1476 118.654 68.3321C118.822 67.5167 118.95 66.6912 119.029 65.8597C119.189 64.1987 119.169 62.5097 118.896 60.8507C118.75 60.0232 118.544 59.2037 118.263 58.4083C117.975 57.6149 117.602 56.8515 117.153 56.1382L116.804 55.6113L116.414 55.1124C116.288 54.9421 116.139 54.7938 115.997 54.6376C115.851 54.4853 115.718 54.323 115.556 54.1867L115.089 53.764C114.927 53.6297 114.757 53.5055 114.592 53.3773L114.342 53.187L114.079 53.0166L113.55 52.682C113.482 52.64 113.394 52.66 113.352 52.7261C113.312 52.7902 113.328 52.8744 113.388 52.9205L113.398 52.9285L113.891 53.2891L114.138 53.4675L114.37 53.6638C114.524 53.796 114.681 53.9223 114.831 54.0605L115.26 54.4893C115.408 54.6255 115.534 54.7878 115.666 54.9381C115.795 55.0924 115.935 55.2386 116.049 55.4069L116.406 55.8938L116.728 56.4067C117.135 57.102 117.486 57.8313 117.748 58.5967C118.009 59.362 118.207 60.1494 118.341 60.9489C118.48 61.7483 118.548 62.5618 118.576 63.3752C118.606 64.1887 118.584 65.0061 118.528 65.8216C118.468 66.6371 118.371 67.4505 118.237 68.258C118.109 69.0654 117.939 69.8749 117.73 70.6603V70.6643C117.708 70.7404 117.754 70.8206 117.83 70.8406C117.903 70.8606 117.977 70.8186 118.003 70.7484L118.007 70.7464Z" fill="#F3F1E9"/>
</g>
<g id="Group_27" opacity="0.3">
<path id="Vector_118" d="M108.072 45.0083C107.477 44.5314 106.846 44.1568 106.187 43.8141C105.864 43.6338 105.523 43.4896 105.189 43.3293C104.85 43.181 104.509 43.0428 104.165 42.9045C102.782 42.3836 101.346 42.0149 99.8932 41.7585L99.3482 41.6603C99.1665 41.6262 98.9829 41.6122 98.8012 41.5882L97.7033 41.4539L96.6013 41.3778L96.0503 41.3397C95.8667 41.3317 95.683 41.3337 95.4974 41.3317L94.3934 41.3197C94.2098 41.3137 94.0261 41.3237 93.8424 41.3317L93.2915 41.3557L92.1875 41.4038C91.8182 41.4439 91.4469 41.4699 91.0796 41.522C89.6063 41.7224 88.155 42.0991 86.7736 42.6501L86.2605 42.8705L86.005 42.9827L85.7535 43.1049L85.2524 43.3513L84.7633 43.6198C84.1165 43.9865 83.4917 44.3932 82.9008 44.842C81.711 45.7316 80.635 46.7674 79.6908 47.9075C79.2216 48.4805 78.7825 49.0776 78.3812 49.6987C77.978 50.3198 77.6126 50.959 77.3052 51.6462C77.2633 51.7384 77.3052 51.8486 77.397 51.8906C77.4869 51.9307 77.5927 51.8926 77.6366 51.8045L77.6406 51.7965C77.7963 51.4839 77.982 51.1673 78.1716 50.8608C78.3612 50.5542 78.5589 50.2517 78.7665 49.9572C79.1817 49.3661 79.6289 48.7991 80.106 48.2601C81.0562 47.1802 82.1163 46.1944 83.2841 45.3629C84.4479 44.5274 85.7116 43.8402 87.0351 43.3072C88.3646 42.7883 89.76 42.4377 91.1754 42.2554C91.5287 42.2073 91.8861 42.1852 92.2414 42.1492L93.3214 42.0971L93.8624 42.071C94.0421 42.063 94.2217 42.053 94.4034 42.057L95.4854 42.063C95.6651 42.065 95.8467 42.063 96.0264 42.069L96.5654 42.0991L97.6434 42.1592L98.7174 42.2754C98.897 42.2974 99.0767 42.3094 99.2544 42.3395L99.7874 42.4237C101.211 42.638 102.62 42.9626 103.98 43.4335C104.317 43.5577 104.656 43.6759 104.992 43.8061C105.321 43.9484 105.658 44.0746 105.98 44.2369C106.307 44.3872 106.625 44.5535 106.94 44.7258C107.249 44.9021 107.567 45.0864 107.842 45.2888L107.85 45.2948C107.932 45.3549 108.048 45.3369 108.108 45.2547C108.166 45.1746 108.15 45.0624 108.074 45.0023L108.072 45.0083Z" fill="#F3F1E9"/>
</g>
<g id="Group_28" opacity="0.3">
<path id="Vector_119" d="M110.329 67.9675C109.872 67.0839 109.511 66.1342 109.207 65.1825C108.906 64.2267 108.666 63.249 108.517 62.2572C108.497 62.133 108.473 62.0108 108.455 61.8866L108.413 61.5139L108.371 61.1412C108.357 61.017 108.339 60.8928 108.335 60.7665C108.305 60.2656 108.265 59.7668 108.275 59.2639C108.253 58.258 108.365 57.2583 108.483 56.2545V56.2444C108.495 56.1603 108.433 56.0821 108.349 56.0741C108.269 56.0641 108.197 56.1182 108.179 56.1964C108.127 56.4468 108.075 56.6993 108.027 56.9517C107.98 57.2042 107.924 57.4566 107.9 57.7131L107.818 58.4825C107.812 58.5466 107.804 58.6107 107.798 58.6748L107.79 58.8671L107.776 59.2538L107.762 59.6405L107.756 59.8349L107.764 60.0292L107.794 60.8046C107.802 61.0631 107.84 61.3195 107.864 61.576L107.906 61.9627C107.922 62.0909 107.946 62.2171 107.966 62.3454C108.009 62.5998 108.043 62.8563 108.101 63.1087L108.273 63.8641C108.339 64.1146 108.413 64.361 108.483 64.6094C108.552 64.8579 108.642 65.1003 108.724 65.3448C109.069 66.3185 109.501 67.2562 110.07 68.1298C110.116 68.2019 110.211 68.2219 110.283 68.1738C110.349 68.1298 110.371 68.0436 110.335 67.9735L110.329 67.9635V67.9675Z" fill="#F3F1E9"/>
</g>
<g id="Group_29" opacity="0.3">
<path id="Vector_120" d="M105.942 48.7589C105.237 48.5085 104.52 48.3402 103.79 48.2059C103.061 48.0757 102.324 47.9915 101.584 47.9495C100.102 47.8773 98.6012 47.9675 97.1439 48.2981C96.7786 48.3722 96.4193 48.4764 96.058 48.5766L95.525 48.7529C95.3473 48.809 95.1736 48.8851 94.9999 48.9493L94.7384 49.0514L94.4809 49.1657C94.3112 49.2438 94.1375 49.3139 93.9718 49.4021L93.4748 49.6645C93.3071 49.7487 93.1534 49.8549 92.9917 49.9491C92.6663 50.1334 92.3688 50.3638 92.0614 50.5742L91.6242 50.9248C91.5523 50.9849 91.4765 51.039 91.4066 51.1011L91.201 51.2915C91.0652 51.4197 90.9255 51.5419 90.7938 51.6742L90.4125 52.0809C90.3506 52.149 90.2847 52.2151 90.2248 52.2852L90.0491 52.5016L89.7018 52.9344C89.6499 53.0005 89.6599 53.0967 89.7257 53.1488C89.7856 53.1989 89.8735 53.1929 89.9274 53.1388L89.9354 53.1308C90.4464 52.6178 90.9555 52.1069 91.5284 51.6742L91.738 51.5058C91.8099 51.4518 91.8837 51.4017 91.9556 51.3496L92.3928 51.039L92.8479 50.7565C92.9977 50.6583 93.1534 50.5722 93.3111 50.488C93.9299 50.1374 94.5847 49.8509 95.2515 49.6044C95.9182 49.358 96.6069 49.1677 97.3036 49.0194C97.4773 48.9813 97.651 48.9433 97.8287 48.9172C98.0043 48.8892 98.18 48.8531 98.3577 48.8311L98.8887 48.7569L99.4217 48.7028C100.134 48.6447 100.851 48.6107 101.568 48.6247C103.001 48.6387 104.448 48.777 105.862 49.0454H105.87C105.952 49.0635 106.031 49.0074 106.047 48.9252C106.061 48.8511 106.019 48.777 105.95 48.7529L105.942 48.7589Z" fill="#F3F1E9"/>
</g>
<g id="Group_30">
<path id="Vector_121" d="M108.357 80.3316C109.288 80.9187 110.366 81.2894 111.408 81.4136C111.639 81.4396 111.869 81.4577 112.097 81.4597C112.378 81.4637 112.657 81.4476 112.925 81.4136C112.943 81.4136 112.961 81.4076 112.979 81.4036C114.851 81.1431 116.167 80.4499 117.037 79.5282C118.002 78.5084 118.415 77.212 118.427 75.9177C118.433 75.2525 118.331 74.5893 118.143 73.9662C118.059 73.6837 117.952 73.4172 117.826 73.1728C117.568 72.6679 117.231 72.2391 116.836 71.8805C115.76 70.9027 114.245 70.4379 112.693 70.3477C109.963 70.1915 106.766 71.9887 106.062 74.1786C105.153 76.9937 106.447 79.1255 108.357 80.3356V80.3316Z" fill="#F7BB8C"/>
<path id="Vector_122" d="M107.53 76.4127C107.63 76.2664 107.758 76.1061 107.884 75.9619C108.014 75.8156 108.145 75.6754 108.287 75.5411C108.569 75.2747 108.874 75.0402 109.195 74.8359C109.519 74.6335 109.858 74.4652 110.211 74.333C110.567 74.2047 110.932 74.1046 111.307 74.0444C112.056 73.9222 112.833 73.9362 113.611 74.0364C114.39 74.1326 115.166 74.3209 115.955 74.5273C116.081 74.5614 116.21 74.4852 116.242 74.359C116.27 74.2528 116.22 74.1426 116.128 74.0925C115.394 73.6818 114.593 73.3732 113.751 73.1969C113.539 73.1528 113.328 73.1148 113.112 73.0907C112.898 73.0607 112.681 73.0426 112.463 73.0366C112.028 73.0326 111.585 73.0406 111.152 73.1268C110.283 73.2791 109.433 73.6237 108.73 74.1647C108.377 74.4291 108.061 74.7417 107.784 75.0803C107.65 75.2526 107.52 75.4289 107.409 75.6173C107.293 75.8056 107.197 75.9919 107.109 76.2123C107.061 76.3325 107.119 76.4708 107.241 76.5169C107.345 76.559 107.461 76.5209 107.52 76.4307L107.532 76.4127H107.53Z" fill="#763633"/>
</g>
<path id="Vector_123" d="M73.3583 188.179C73.7616 187.955 74.618 187.891 75.696 187.941C79.1037 188.097 84.7152 189.383 85.1484 190.229L89.0671 175.228C89.5862 173.581 93.8941 159.894 95.1897 155.114C95.2037 155.124 95.2237 155.134 95.2376 155.144L96.6849 155.248C97.8069 160.692 101.079 173.068 101.408 174.665H101.444L104.401 189.682C106.88 187.69 113.595 188.047 116.025 189.063C116.344 189.195 116.592 189.343 116.744 189.495C116.744 189.495 116.815 171.207 117.081 167.636C117.35 164.03 117.662 159.253 117.832 154.629C117.971 150.788 118.428 143.323 116.059 132.798C115.821 131.74 115.51 130.984 115.248 130.746C94.6767 138.253 76.9317 132.229 76.9317 132.229L76.7101 134.797C76.7101 134.797 75.69 149.351 75.4285 153.292C75.1251 157.911 74.9474 162.693 74.8496 166.31C74.7478 169.888 74.6659 171.665 74.6659 171.665L73.3563 188.183L73.3583 188.179Z" fill="#FF8A77"/>
<path id="Vector_124" d="M76.71 135.074C80.3632 136.338 87.4919 138.159 97.4175 137.735C100.039 137.622 102.584 137.21 104.959 136.633C109.507 135.529 113.432 133.828 116.061 132.507C115.789 131.137 115.512 130.139 115.252 129.824C109.489 132.239 103.949 133.447 98.9586 133.94C86.1285 135.202 76.9336 131.722 76.9336 131.722L76.71 135.076V135.074Z" fill="#4CDADB"/>
<path id="Vector_125" d="M107.733 142.305C110.22 142.367 112.182 141.821 112.199 141.15C112.216 140.479 110.276 139.935 107.789 139.873C105.302 139.811 103.203 140.128 103.186 140.8C103.17 141.471 105.244 142.24 107.731 142.302L107.733 142.305Z" fill="#00A1A2"/>
<path id="Vector_126" d="M104.038 147.151L109.802 148.191L109.867 147.85L110.11 146.577L111.932 137.008L114.093 125.657C108.823 119.173 104.202 125.84 104.202 125.84L104.128 135.348L104.077 142.149L104.051 145.49L104.038 147.153L104.038 147.151Z" fill="#F7BB8C"/>
<path id="Vector_127" d="M106.792 155.759C107.346 155.879 107.685 151.315 107.706 151.063C107.719 151.297 107.929 155.289 108.713 155.024C109.522 154.751 109.34 150.793 109.34 150.793C109.34 150.793 109.975 152.436 110.444 153.149C110.945 153.914 111.334 153.242 111.044 151.573C110.907 150.777 110.71 149.716 110.531 148.771C110.331 147.722 110.155 146.817 110.11 146.579C110.104 146.538 110.098 146.518 110.098 146.518L108.923 146.281L104.268 145.341C104.196 145.391 104.123 145.443 104.052 145.493C101.578 147.262 100.298 149.908 100.53 150.442C100.945 151.395 103.755 149.115 103.755 149.115C103.755 149.115 103.305 154.205 104.027 154.523C104.746 154.841 105.514 151.117 105.514 151.117C105.514 151.117 105.572 155.499 106.793 155.762L106.792 155.759Z" fill="#F7BB8C"/>
<path id="Vector_128" d="M103.188 140.802C103.442 140.549 104.346 140.357 105.496 140.263C107.857 140.065 111.251 140.264 112.199 141.15C112.199 141.15 114.961 121.603 114.63 112.767C114.384 106.239 112.59 100.434 109.758 97.4534C108.393 96.0192 106.784 95.2379 104.995 95.3499C99.4875 95.6937 103.05 114.535 103.225 119.208C103.625 129.972 103.188 140.802 103.188 140.802Z" fill="#4CDADB"/>
</g>
</g>
</g>
</svg>
