<svg width="31" height="22" viewBox="0 0 31 22" fill="none" xmlns="http://www.w3.org/2000/svg">
<path d="M15.75 0.5C16.125 0.5 16.5 0.59375 16.8281 0.734375L30 5.46875C30.4219 5.60938 30.75 6.03125 30.75 6.5C30.75 7.01562 30.4219 7.4375 30 7.57812L16.8281 12.3125C16.5 12.4531 16.125 12.5 15.7031 12.5C15.3281 12.5 14.9531 12.4531 14.625 12.3125L7.125 9.59375C7.54688 9.17188 8.0625 8.84375 8.625 8.60938L15.9844 5.70312C16.4062 5.5625 16.5938 5.14062 16.4062 4.71875C16.2656 4.34375 15.8438 4.15625 15.4688 4.29688L8.10938 7.20312C7.17188 7.57812 6.375 8.14062 5.76562 8.89062C4.96875 9.96875 4.5 11.2812 4.5 12.6875V13.8594C4.78125 14.4688 4.96875 15.1719 5.10938 15.8281C5.39062 17.0938 5.625 18.9219 5.20312 20.9375C5.15625 21.125 5.0625 21.3125 4.875 21.4062C4.6875 21.5 4.5 21.5469 4.3125 21.5L1.3125 20.75C1.03125 20.7031 0.84375 20.5156 0.75 20.2812C0.703125 20.0469 0.75 19.7656 0.890625 19.5781C1.26562 19.0156 1.64062 18.4062 1.92188 17.7969C2.48438 16.7188 3 15.3594 3 14V12.6875C3 11.1875 3.42188 9.78125 4.17188 8.5625L1.45312 7.57812C1.03125 7.4375 0.75 7.01562 0.75 6.5C0.75 6.03125 1.03125 5.60938 1.45312 5.46875L14.625 0.734375C14.9531 0.59375 15.3281 0.5 15.75 0.5ZM6.75 18.125L7.45312 11.3281L14.1094 13.7188C14.625 13.9062 15.1875 14 15.75 14C16.2656 14 16.8281 13.9062 17.3438 13.7188L24 11.3281L24.75 18.125C24.75 19.8125 20.7188 21.5 15.75 21.5C10.7812 21.5 6.75 19.8125 6.75 18.125Z" fill="#003737"/>
</svg>
