<svg width="159" height="217" viewBox="0 0 159 217" fill="none" xmlns="http://www.w3.org/2000/svg">
<g clip-path="url(#clip0_16_2018)">
<path d="M151.486 8.89584H7.51416V208.104H151.486V8.89584Z" fill="#E53613"/>
<path d="M149.563 8.89585H9.41479C4.48224 8.89585 0.5 4.92207 0.5 0H158.5C158.5 4.92207 154.518 8.89585 149.585 8.89585H149.563Z" fill="#A0ABBA"/>
<path d="M9.41479 208.104H149.563C154.495 208.104 158.477 212.078 158.477 217H0.5C0.5 212.078 4.48224 208.104 9.41479 208.104Z" fill="#A0ABBA"/>
<path d="M150.83 24.4974H8.32878C6.02089 24.4974 4.16553 22.6234 4.16553 20.343C4.16553 18.04 6.04352 16.1886 8.32878 16.1886H150.83C153.138 16.1886 154.993 18.0626 154.993 20.343C154.993 22.646 153.115 24.4974 150.83 24.4974Z" fill="#E53613"/>
<path d="M150.83 37.8412H8.32878C6.02089 37.8412 4.16553 35.9672 4.16553 33.6868C4.16553 31.3838 6.04352 29.5324 8.32878 29.5324H150.83C153.138 29.5324 154.993 31.4064 154.993 33.6868C154.993 35.9898 153.115 37.8412 150.83 37.8412Z" fill="#E53613"/>
<path d="M150.83 186.474H8.32878C6.02089 186.474 4.16553 184.6 4.16553 182.32C4.16553 180.017 6.04352 178.165 8.32878 178.165H150.83C153.138 178.165 154.993 180.039 154.993 182.32C154.993 184.623 153.115 186.474 150.83 186.474Z" fill="#E53613"/>
<path d="M150.83 199.818H8.32878C6.02089 199.818 4.16553 197.944 4.16553 195.664C4.16553 193.361 6.04352 191.509 8.32878 191.509H150.83C153.138 191.509 154.993 193.383 154.993 195.664C154.993 197.966 153.115 199.818 150.83 199.818Z" fill="#E53613"/>
<path d="M22.5155 87.5586C19.6646 87.5586 17.3567 85.2557 17.3567 82.4108V25.4909C17.3567 22.646 19.6646 20.343 22.5155 20.343C25.3664 20.343 27.6743 22.646 27.6743 25.4909V82.4334C27.6743 85.2782 25.3664 87.5812 22.5155 87.5812V87.5586Z" fill="white"/>
<path d="M151.486 93.2709H7.51416V120.568H151.486V93.2709Z" fill="#EFBB2B"/>
<path d="M81.6835 172.656C104.939 172.656 123.791 141.542 123.791 103.16C123.791 64.7787 104.939 33.6642 81.6835 33.6642C58.4281 33.6642 39.5758 64.7787 39.5758 103.16C39.5758 141.542 58.4281 172.656 81.6835 172.656Z" fill="#EFBB2B"/>
<path d="M81.6834 165.973C101.827 165.973 118.157 137.851 118.157 103.16C118.157 68.4697 101.827 40.3474 81.6834 40.3474C61.5396 40.3474 45.2097 68.4697 45.2097 103.16C45.2097 137.851 61.5396 165.973 81.6834 165.973Z" fill="white"/>
<path d="M91.9799 70.2401C78.6217 60.1392 58.6497 75.5284 59.0047 90.6702C59.1168 95.1405 65.3382 96.0155 66.6273 91.7164C68.1406 86.7135 71.4288 82.7759 75.8566 80.0747C82.6572 75.9278 89.5325 79.6752 87.7763 88.0451C85.8519 97.1568 77.7062 103.682 75.0532 112.679C73.652 117.416 79.8921 119.432 82.433 115.856C90.6347 104.252 109.093 83.2134 91.9799 70.2592V70.2401Z" fill="#9197A8"/>
<path d="M84.9238 131.718C84.3073 129.016 81.8598 127.209 79.2256 127.019C76.4418 126.829 74.0504 128.807 73.247 131.432C72.5371 133.753 73.4525 136.169 75.134 137.691C75.7692 138.509 76.61 139.155 77.6188 139.422C79.0948 139.84 80.7762 139.441 82.0653 138.661C84.4007 137.234 85.559 134.4 84.9425 131.718H84.9238Z" fill="#9197A8"/>
</g>
<defs>
<clipPath id="clip0_16_2018">
<rect width="158" height="217" fill="white" transform="translate(0.5)"/>
</clipPath>
</defs>
</svg>
