<svg width="36" height="36" viewBox="0 0 36 36" fill="none" xmlns="http://www.w3.org/2000/svg">
<path d="M12.3281 25.0312L6.5625 19.2656C6.23438 18.9375 6 18.4687 6 18C6 17.4844 6.23438 17.0156 6.5625 16.6875L12.3281 10.9219C12.6094 10.6406 13.0313 10.5 13.4531 10.5C14.2969 10.5 15 11.2031 15 12.0469L15 15L21 15C21.8438 15 22.5 15.6562 22.5 16.5L22.5 19.5C22.5 20.2969 21.8438 21 21 21L15 21L15 23.9062C15 24.75 14.2969 25.5 13.4531 25.5C13.0313 25.5 12.6094 25.3125 12.3281 25.0312ZM22.5 25.5L25.5 25.5C26.3438 25.5 27 24.7969 27 24L27 12C27 11.1562 26.3438 10.5 25.5 10.5L22.5 10.5C21.7031 10.5 21 9.79687 21 9C21 8.15625 21.7031 7.5 22.5 7.5L25.5 7.5C27.9844 7.5 30 9.51562 30 12L30 24C30 26.4844 27.9844 28.5 25.5 28.5L22.5 28.5C21.7031 28.5 21 27.7969 21 27C21 26.1562 21.7031 25.5 22.5 25.5Z" fill="#005231"/>
</svg>
