<svg width="763" height="1187" viewBox="0 0 763 1187" fill="none" xmlns="http://www.w3.org/2000/svg">
<path fill-rule="evenodd" clip-rule="evenodd" d="M763 0H0V1187H763V0ZM48.5722 48.7805H714.426V882.927H48.5722V48.7805Z" fill="#FEFCF4"/>
<g clip-path="url(#clip0_37719_2647)">
<path d="M425.597 1087H358.979V1096.29H425.597V1087Z" fill="#60DD9B"/>
<path fill-rule="evenodd" clip-rule="evenodd" d="M341.27 1116.57H353.919V1137.23C348.081 1143.74 340.842 1146.99 330.514 1146.99C321.87 1146.99 313.665 1143.03 308.353 1137.23C303.038 1131.42 300.793 1123.76 300.793 1116.74C300.793 1109.72 303.337 1101.71 309.316 1095.87C315.293 1090.04 322.106 1087 330.556 1087C339.006 1087 346.342 1089.78 353.919 1095.87L345.625 1105.52C344.734 1104.34 340.108 1098.83 331.151 1098.83C326.896 1098.83 322.52 1100.35 319.096 1103.74C315.672 1107.13 313.541 1111.19 313.541 1116.74C313.541 1122.29 315.674 1126.85 318.849 1129.9C322.024 1132.94 326.548 1135.13 330.179 1135.13C335.015 1135.13 338.514 1134.26 341.272 1132.63V1116.57L341.27 1116.57Z" fill="#005231"/>
<path d="M371.628 1101.36H358.979V1146.99H371.628V1101.36Z" fill="#005231"/>
<path fill-rule="evenodd" clip-rule="evenodd" d="M443.308 1110.66V1130.09C443.308 1130.09 443.947 1135.95 449.633 1136.01C452.43 1136.04 454.271 1134.17 454.981 1133.19C455.538 1134.17 461.795 1139.22 461.795 1139.22C458.462 1143.45 452.662 1146.78 446.757 1146.99C442.168 1147.15 438.413 1145.51 435.291 1142.54C432.168 1139.57 430.608 1135.53 430.659 1130.09V1087H443.308V1101.36H454.271V1110.66H443.308Z" fill="#005231"/>
<path fill-rule="evenodd" clip-rule="evenodd" d="M395.155 1146.99L377.193 1101.36H391.023L401.648 1130.09L412.948 1101.36H426.103L408.142 1146.99H395.155Z" fill="#005231"/>
</g>
<defs>
<clipPath id="clip0_37719_2647">
<rect width="161" height="60" fill="white" transform="translate(300.793 1087)"/>
</clipPath>
</defs>
</svg>
