<svg width="32" height="52" viewBox="0 0 32 52" fill="none" xmlns="http://www.w3.org/2000/svg">
<path d="M27.2 0C29.8 0 32 2.23437 32 4.875V47.125C32 49.8672 29.8 52 27.2 52H4.8C2.1 52 0 49.8672 0 47.125V4.875C0 2.23437 2.1 0 4.8 0H27.2ZM16 48.75C17.7 48.75 19.2 47.3281 19.2 45.5C19.2 43.7734 17.7 42.25 16 42.25C14.2 42.25 12.8 43.7734 12.8 45.5C12.8 47.3281 14.2 48.75 16 48.75Z" fill="#3B3240"/>
<path d="M13.8974 30C13.3865 30 12.9934 29.78 12.6004 29.28L7.35371 22.88C7.13755 22.58 7 22.24 7 21.9C7 21.22 7.53057 20.68 8.17904 20.68C8.5917 20.68 8.94541 20.82 9.29913 21.3L13.8188 26.98L22.7009 12.68C22.9956 12.24 23.369 12 23.762 12C24.3908 12 25 12.46 25 13.14C25 13.46 24.8231 13.82 24.6463 14.1L15.0961 29.28C14.8013 29.74 14.3886 30 13.8974 30Z" fill="#6DE0A8"/>
</svg>
