<svg width="31" height="24" viewBox="0 0 31 24" fill="none" xmlns="http://www.w3.org/2000/svg">
<path d="M4.03125 5.71875L9.09375 0.28125C9.28125 0.140625 9.46875 0 9.75 0C9.98438 0 10.2188 0.140625 10.3594 0.28125L15.4219 5.71875C15.6094 5.90625 15.75 6.1875 15.75 6.46875C15.75 7.03125 15.2344 7.5 14.6719 7.5H13.5L16.9688 11.7188C17.1562 11.9062 17.25 12.1406 17.25 12.4219C17.25 13.0312 16.7344 13.5 16.125 13.5H15L18.4688 17.7188C18.6562 17.9062 18.75 18.1406 18.75 18.4219C18.75 19.0312 18.2344 19.5 17.625 19.5H11.25V22.5C11.25 23.3438 10.5469 24 9.75 24C8.90625 24 8.25 23.3438 8.25 22.5V19.5H1.82812C1.21875 19.5 0.75 19.0312 0.75 18.4219C0.75 18.1406 0.796875 17.9062 0.984375 17.7188L4.5 13.5H3.32812C2.71875 13.5 2.25 13.0312 2.25 12.4219C2.25 12.1406 2.29688 11.9062 2.48438 11.7188L6 7.5H4.78125C4.21875 7.5 3.75 7.03125 3.75 6.46875C3.75 6.1875 3.84375 5.90625 4.03125 5.71875ZM16.7344 4.92188L21.0938 0.28125C21.2812 0.140625 21.4688 0 21.75 0C21.9844 0 22.2188 0.140625 22.3594 0.28125L27.4219 5.71875C27.6094 5.90625 27.75 6.1875 27.75 6.46875C27.75 7.03125 27.2344 7.5 26.6719 7.5H25.5L28.9688 11.7188C29.1562 11.9062 29.25 12.1406 29.25 12.4219C29.25 13.0312 28.7344 13.5 28.125 13.5H27L30.4688 17.7188C30.6562 17.9062 30.75 18.1406 30.75 18.4219C30.75 19.0312 30.2344 19.5 29.625 19.5H23.25V22.5C23.25 23.3438 22.5469 24 21.75 24C20.9062 24 20.25 23.3438 20.25 22.5V19.5V18.4219V18.375C20.2031 17.8125 20.0156 17.2031 19.6406 16.7344L17.7188 14.4844C18.3281 14.0156 18.7031 13.2656 18.7031 12.4219C18.7031 11.8125 18.5156 11.2031 18.1406 10.7344L16.2188 8.48438C16.8281 8.01562 17.2031 7.26562 17.2031 6.46875C17.2031 5.90625 17.0625 5.39062 16.7344 4.92188Z" fill="#003920"/>
</svg>
