<svg width="161" height="160" viewBox="0 0 161 160" fill="none" xmlns="http://www.w3.org/2000/svg">
<path d="M100.411 33.7777C105.033 33.7777 108.944 37.7499 108.944 42.4444V117.555C108.944 122.43 105.033 126.222 100.411 126.222H60.5889C55.7889 126.222 52.0555 122.43 52.0555 117.555V42.4444C52.0555 37.7499 55.7889 33.7777 60.5889 33.7777H100.411ZM80.5 120.444C83.5222 120.444 86.1889 117.917 86.1889 114.667C86.1889 111.597 83.5222 108.889 80.5 108.889C77.3 108.889 74.8111 111.597 74.8111 114.667C74.8111 117.917 77.3 120.444 80.5 120.444Z" fill="#3B3240"/>
<path d="M79.555 78.545C77.845 78.545 76.45 77.15 76.45 75.44V74.18C76.45 72.605 77.665 71.435 78.385 70.805L81.175 68.42C82.615 67.205 83.785 66.44 83.785 64.595C83.785 62.885 82.39 61.49 80.365 61.49C78.565 61.49 77.62 62.57 76.81 63.695C76.405 64.235 75.685 65.045 74.335 65.045C72.76 65.045 71.5 63.74 71.5 62.21C71.5 61.895 71.59 61.49 71.68 61.265C72.67 58.52 76 56 80.365 56C86.35 56 89.815 60.23 89.815 64.595C89.815 68.33 87.52 70.175 85.675 71.66L83.425 73.505C83.02 73.82 82.66 74.18 82.66 74.855V75.44C82.66 77.15 81.265 78.545 79.555 78.545ZM75.415 84.485C75.415 82.145 77.305 80.3 79.645 80.3C81.985 80.3 83.785 82.145 83.785 84.485C83.785 86.915 81.985 88.67 79.645 88.67C77.305 88.67 75.415 86.915 75.415 84.485Z" fill="#FAE366"/>
</svg>
