<svg width="375" height="390" viewBox="0 0 375 390" fill="none" xmlns="http://www.w3.org/2000/svg">
<path d="M209.56 237.05C216.2 227.76 243.48 244.43 243.48 244.43C243.48 244.43 205.57 217.44 212.21 209.62C218.85 201.8 254.65 224.71 254.65 224.71C254.65 224.7 208.52 190.59 216.49 182.03C224.45 173.47 269.74 207.55 269.74 207.55C269.74 207.55 236.55 179.67 244.96 171.56C250.01 166.69 298.28 194.79 316.56 208.72C320.19 206.83 351.01 183.39 356.48 194.85C361.95 206.31 340.35 238.27 340.35 238.27L403 274V389.5L257.84 277.64C257.84 277.64 202.92 246.34 209.56 237.05Z" fill="#F8B79B"/>
<path d="M242.9 252.14C242.79 252.14 242.68 252.12 242.57 252.08C242.05 251.9 241.77 251.33 241.95 250.81C249.52 228.84 260.92 212.71 276.79 201.48C277.24 201.16 277.87 201.27 278.18 201.72C278.49 202.17 278.39 202.79 277.94 203.11C262.43 214.09 251.27 229.91 243.84 251.46C243.7 251.87 243.31 252.13 242.89 252.13L242.9 252.14Z" fill="#DE7651"/>
<path d="M-38 100.827C16 100.827 40.9961 217.403 55.6749 215.26C66.2714 213.718 60.0249 195.277 55.4028 183.384C52.5338 175.998 56.6445 167.558 64.3496 165.58C74.3303 163.008 87.192 166.408 100.943 175.384C118.738 187.003 122.257 212.798 137.381 209.882C141.566 209.072 142.938 200.865 140.822 190.857L141.112 191.678C147.268 184.892 149.502 178.368 149.302 172.362L150.719 174.091C173.223 142.024 125.058 123.746 125.058 123.746C125.058 123.746 166.944 127.346 165.388 114.148C164.044 102.723 122.107 100.827 122.107 100.827L-24 19.4999" fill="#ECB697"/>
<path d="M141.486 194.284C142.105 194.165 142.514 193.576 142.418 192.954C139.545 175.353 128.835 160.455 114.457 154.077C113.87 153.812 113.172 154.077 112.918 154.672C112.651 155.257 112.917 155.952 113.513 156.204C126.968 162.18 137.413 176.75 140.123 193.328C140.222 193.96 140.828 194.388 141.463 194.289C141.475 194.287 141.486 194.284 141.497 194.282L141.486 194.284Z" fill="#BB6F4E"/>
<path d="M149.544 174.899C150.06 174.799 150.452 174.368 150.488 173.816C151.398 157.26 136.727 147.218 124.936 139.154C124.155 138.618 123.375 138.093 122.63 137.562C122.094 137.191 121.372 137.331 121.009 137.852C120.637 138.386 120.776 139.106 121.298 139.467C122.055 139.996 122.834 140.521 123.616 141.057C135.515 149.194 148.994 158.425 148.153 173.675C148.112 174.323 148.61 174.867 149.257 174.895C149.354 174.9 149.447 174.894 149.539 174.876L149.544 174.899Z" fill="#BB6F4E"/>
<path d="M320.122 172.997C320.051 175.179 309.668 287.611 305.693 291.697C301.717 295.783 237.442 290.816 237.416 284.354C237.415 283.877 236.839 282.743 236.933 281.171C237.957 264.312 244.85 189.734 249.177 167.411C249.881 163.765 251.171 158.167 257.614 158.357C260.447 158.443 300.298 160.157 316.484 165.987C320.097 167.286 320.157 171.836 320.122 172.997Z" fill="#421B36"/>
<path d="M303.79 285.054C300.117 288.834 240.66 284.241 240.639 278.261C240.624 273.86 245.084 215.628 249.107 184.129C249.84 178.392 250.559 173.544 251.23 170.067C251.887 166.693 253.076 161.518 259.036 161.692C261.654 161.773 298.517 163.356 313.491 168.748C316.834 169.951 316.888 174.162 316.851 175.234C316.835 175.718 316.291 182.039 315.419 191.424C312.651 221.276 306.59 282.176 303.791 285.05L303.79 285.054Z" fill="#C0FFD6"/>
<path d="M299.254 164.796C299.254 164.796 298.999 167.805 296.636 168.126C294.277 168.444 272.703 166.174 271.534 165.065C270.365 163.957 270.211 161.54 270.211 161.54L298.723 164.753L299.249 164.8L299.254 164.796Z" fill="#421B36"/>
<circle cx="278.086" cy="229.622" r="19.4572" transform="rotate(4.92934 278.086 229.622)" fill="#60DD9B"/>
<path fill-rule="evenodd" clip-rule="evenodd" d="M282.481 229.878L287.204 230.286L286.543 237.953C285.352 239.084 283.921 239.931 282.356 240.431C280.791 240.93 279.134 241.069 277.507 240.837C275.955 240.693 274.449 240.233 273.082 239.485C271.714 238.737 270.515 237.717 269.556 236.488C267.891 234.207 267.133 231.389 267.431 228.58C267.543 227.142 267.938 225.74 268.593 224.455C269.249 223.17 270.151 222.027 271.249 221.091C272.36 220.124 273.656 219.394 275.058 218.942C276.46 218.491 277.939 218.328 279.405 218.463C282.631 218.762 285.639 220.222 287.869 222.572L284.411 225.89C283.83 225.032 283.061 224.319 282.163 223.805C281.265 223.29 280.26 222.988 279.227 222.921C277.567 222.81 275.929 223.358 274.671 224.447C273.968 224.994 273.385 225.68 272.958 226.462C272.53 227.243 272.267 228.104 272.185 228.99C272.088 229.894 272.177 230.809 272.446 231.677C272.714 232.546 273.157 233.35 273.748 234.042C274.781 235.27 276.216 236.091 277.799 236.358C279.211 236.557 280.65 236.374 281.968 235.829L282.481 229.878Z" fill="#003920"/>
</svg>
