<svg width="24" height="24" viewBox="0 0 24 24" fill="none" xmlns="http://www.w3.org/2000/svg">
<path d="M5.75 0C6.78125 0 7.76562 0.609375 8.32812 1.5C8.84375 2.4375 8.84375 3.60938 8.32812 4.5C7.76562 5.4375 6.78125 6 5.75 6C4.67188 6 3.6875 5.4375 3.125 4.5C2.60938 3.60938 2.60938 2.4375 3.125 1.5C3.6875 0.609375 4.67188 0 5.75 0ZM4.67188 7.5H6.78125C7.20312 7.5 7.625 7.59375 8 7.73438C8 7.92188 8 8.10938 8 8.25C8 9.42188 8.46875 10.4531 9.3125 11.1094C7.625 12 6.5 13.7344 6.5 15.75V16.5C6.5 17.8594 7.0625 19.0312 8 19.875V22.5C8 22.8281 8 23.0625 8.09375 23.3438C7.67188 23.7656 7.10938 24 6.5 24H5C3.73438 24 2.75 23.0156 2.75 21.75V16.3594C1.48438 15.8906 0.640625 14.6719 0.734375 13.2656L0.921875 10.9688C1.10938 9 2.75 7.5 4.67188 7.5ZM17 24C16.3438 24 15.7812 23.7656 15.3594 23.3438C15.4531 23.0625 15.5 22.8281 15.5 22.5V19.875C16.3906 19.0312 17 17.8594 17 16.5V15.75C17 13.7344 15.8281 12 14.1875 11.1094C14.9844 10.4531 15.5 9.42188 15.5 8.25C15.5 8.15625 15.4531 8.0625 15.4531 7.92188C15.9219 7.6875 16.4375 7.5 17 7.5H18.4531C19.8125 7.5 20.9844 8.39062 21.3594 9.70312L23.1875 16.125C23.4688 17.0625 22.7188 18 21.7344 18H20.75V21.75C20.75 23.0156 19.7188 24 18.5 24H17ZM17.75 0C18.7812 0 19.7656 0.609375 20.3281 1.5C20.8438 2.4375 20.8438 3.60938 20.3281 4.5C19.7656 5.4375 18.7812 6 17.75 6C16.6719 6 15.6875 5.4375 15.125 4.5C14.6094 3.60938 14.6094 2.4375 15.125 1.5C15.6875 0.609375 16.6719 0 17.75 0ZM11.75 6C12.5469 6 13.25 6.46875 13.6719 7.125C14.0938 7.82812 14.0938 8.71875 13.6719 9.375C13.25 10.0781 12.5469 10.5 11.75 10.5C10.9062 10.5 10.2031 10.0781 9.78125 9.375C9.35938 8.71875 9.35938 7.82812 9.78125 7.125C10.2031 6.46875 10.9062 6 11.75 6ZM11.75 12C13.8125 12 15.5 13.6875 15.5 15.75V16.5C15.5 17.625 14.8906 18.6094 14 19.125V22.5C14 23.3438 13.2969 24 12.5 24H11C10.1562 24 9.5 23.3438 9.5 22.5V19.125C8.5625 18.6094 8 17.625 8 16.5V15.75C8 13.6875 9.64062 12 11.75 12Z" fill="#383000"/>
</svg>
