<svg width="30" height="30" viewBox="0 0 30 30" fill="none" xmlns="http://www.w3.org/2000/svg">
<path d="M21.25 6C21.1119 6 21 6.11193 21 6.25V8.75C21 8.88807 21.1119 9 21.25 9H23.75C23.8881 9 24 8.88807 24 8.75V6.25C24 6.11193 23.8881 6 23.75 6H21.25ZM21 24V23.25C21 22.8358 21.3358 22.5 21.75 22.5C22.1642 22.5 22.5 22.8358 22.5 23.25V24H24V23.25C24 22.8358 24.3358 22.5 24.75 22.5C25.1642 22.5 25.5 22.8358 25.5 23.25V24.75C25.5 25.1642 25.1642 25.5 24.75 25.5H18.75C18.3358 25.5 18 25.1642 18 24.75V23.25C18 22.8358 18.3358 22.5 18.75 22.5C19.1642 22.5 19.5 22.8358 19.5 23.25V24H21ZM16.5 13.5H17.25C17.6642 13.5 18 13.8358 18 14.25C18 14.6642 17.6642 15 17.25 15H14.25C13.8358 15 13.5 14.6642 13.5 14.25C13.5 13.8358 13.8358 13.5 14.25 13.5H15V12H12.75C12.3358 12 12 11.6642 12 11.25C12 10.8358 12.3358 10.5 12.75 10.5H17.25C17.6642 10.5 18 10.8358 18 11.25C18 11.6642 17.6642 12 17.25 12H16.5V13.5ZM24 15H23.25C22.8358 15 22.5 14.6642 22.5 14.25C22.5 13.8358 22.8358 13.5 23.25 13.5H24V12.75C24 12.3358 24.3358 12 24.75 12C25.1642 12 25.5 12.3358 25.5 12.75V15.75C25.5 16.1642 25.1642 16.5 24.75 16.5C24.3358 16.5 24 16.1642 24 15.75V15ZM16.5 18H15.75C15.3358 18 15 17.6642 15 17.25C15 16.8358 15.3358 16.5 15.75 16.5H17.25C17.6642 16.5 18 16.8358 18 17.25V20.25C18 20.6642 17.6642 21 17.25 21H12.75C12.3358 21 12 20.6642 12 20.25C12 19.8358 12.3358 19.5 12.75 19.5H16.5V18ZM21.25 4.5H23.75C24.7165 4.5 25.5 5.2835 25.5 6.25V8.75C25.5 9.7165 24.7165 10.5 23.75 10.5H21.25C20.2835 10.5 19.5 9.7165 19.5 8.75V6.25C19.5 5.2835 20.2835 4.5 21.25 4.5ZM6.25 4.5H8.75C9.7165 4.5 10.5 5.2835 10.5 6.25V8.75C10.5 9.7165 9.7165 10.5 8.75 10.5H6.25C5.2835 10.5 4.5 9.7165 4.5 8.75V6.25C4.5 5.2835 5.2835 4.5 6.25 4.5ZM6.25 6C6.11193 6 6 6.11193 6 6.25V8.75C6 8.88807 6.11193 9 6.25 9H8.75C8.88807 9 9 8.88807 9 8.75V6.25C9 6.11193 8.88807 6 8.75 6H6.25ZM6.25 19.5H8.75C9.7165 19.5 10.5 20.2835 10.5 21.25V23.75C10.5 24.7165 9.7165 25.5 8.75 25.5H6.25C5.2835 25.5 4.5 24.7165 4.5 23.75V21.25C4.5 20.2835 5.2835 19.5 6.25 19.5ZM6.25 21C6.11193 21 6 21.1119 6 21.25V23.75C6 23.8881 6.11193 24 6.25 24H8.75C8.88807 24 9 23.8881 9 23.75V21.25C9 21.1119 8.88807 21 8.75 21H6.25ZM16.5 6H12.75C12.3358 6 12 5.66421 12 5.25C12 4.83579 12.3358 4.5 12.75 4.5H17.25C17.6642 4.5 18 4.83579 18 5.25V8.25C18 8.66421 17.6642 9 17.25 9C16.8358 9 16.5 8.66421 16.5 8.25V6ZM12.75 9C12.3358 9 12 8.66421 12 8.25C12 7.83579 12.3358 7.5 12.75 7.5H14.25C14.6642 7.5 15 7.83579 15 8.25C15 8.66421 14.6642 9 14.25 9H12.75ZM5.25 18C4.83579 18 4.5 17.6642 4.5 17.25C4.5 16.8358 4.83579 16.5 5.25 16.5H8.25C8.66421 16.5 9 16.8358 9 17.25C9 17.6642 8.66421 18 8.25 18H5.25ZM11.25 18C10.8358 18 10.5 17.6642 10.5 17.25C10.5 16.8358 10.8358 16.5 11.25 16.5H12.75C13.1642 16.5 13.5 16.8358 13.5 17.25C13.5 17.6642 13.1642 18 12.75 18H11.25ZM13.5 24V24.75C13.5 25.1642 13.1642 25.5 12.75 25.5C12.3358 25.5 12 25.1642 12 24.75V23.25C12 22.8358 12.3358 22.5 12.75 22.5H15.75C16.1642 22.5 16.5 22.8358 16.5 23.25C16.5 23.6642 16.1642 24 15.75 24H13.5ZM10.5 13.5H11.25C11.6642 13.5 12 13.8358 12 14.25C12 14.6642 11.6642 15 11.25 15H9.75C9.33579 15 9 14.6642 9 14.25V13.5H8.25C7.83579 13.5 7.5 13.1642 7.5 12.75C7.5 12.3358 7.83579 12 8.25 12H9.75C10.1642 12 10.5 12.3358 10.5 12.75V13.5ZM4.5 12.75C4.5 12.3358 4.83579 12 5.25 12C5.66421 12 6 12.3358 6 12.75V14.25C6 14.6642 5.66421 15 5.25 15C4.83579 15 4.5 14.6642 4.5 14.25V12.75ZM19.5 12.75C19.5 12.3358 19.8358 12 20.25 12C20.6642 12 21 12.3358 21 12.75V15.75C21 16.1642 20.6642 16.5 20.25 16.5C19.8358 16.5 19.5 16.1642 19.5 15.75V12.75ZM22.5 19.5V18.75C22.5 18.3358 22.8358 18 23.25 18H24.75C25.1642 18 25.5 18.3358 25.5 18.75C25.5 19.1642 25.1642 19.5 24.75 19.5H24V20.25C24 20.6642 23.6642 21 23.25 21H20.25C19.8358 21 19.5 20.6642 19.5 20.25V18.75C19.5 18.3358 19.8358 18 20.25 18C20.6642 18 21 18.3358 21 18.75V19.5H22.5ZM1.5 6.75C1.5 7.16421 1.16421 7.5 0.75 7.5C0.335786 7.5 0 7.16421 0 6.75V3.75C0 1.67893 1.67893 0 3.75 0H6.75C7.16421 0 7.5 0.335786 7.5 0.75C7.5 1.16421 7.16421 1.5 6.75 1.5H3.75C2.50736 1.5 1.5 2.50736 1.5 3.75V6.75ZM23.25 1.5C22.8358 1.5 22.5 1.16421 22.5 0.75C22.5 0.335786 22.8358 0 23.25 0H26.25C28.3211 0 30 1.67893 30 3.75V6.75C30 7.16421 29.6642 7.5 29.25 7.5C28.8358 7.5 28.5 7.16421 28.5 6.75V3.75C28.5 2.50736 27.4926 1.5 26.25 1.5H23.25ZM6.75 28.5C7.16421 28.5 7.5 28.8358 7.5 29.25C7.5 29.6642 7.16421 30 6.75 30H3.75C1.67893 30 0 28.3211 0 26.25V23.25C0 22.8358 0.335786 22.5 0.75 22.5C1.16421 22.5 1.5 22.8358 1.5 23.25V26.25C1.5 27.4926 2.50736 28.5 3.75 28.5H6.75ZM28.5 23.25C28.5 22.8358 28.8358 22.5 29.25 22.5C29.6642 22.5 30 22.8358 30 23.25V26.25C30 28.3211 28.3211 30 26.25 30H23.25C22.8358 30 22.5 29.6642 22.5 29.25C22.5 28.8358 22.8358 28.5 23.25 28.5H26.25C27.4926 28.5 28.5 27.4926 28.5 26.25V23.25Z" fill="white"/>
</svg>
