<svg width="220" height="220" viewBox="0 0 220 220" fill="none" xmlns="http://www.w3.org/2000/svg">
<path opacity="0.5" d="M20.625 0H61.875C65.3125 0 68.75 3.4375 68.75 6.875C68.75 10.7422 65.3125 13.75 61.875 13.75H20.625C16.7578 13.75 13.75 17.1875 13.75 20.625V61.875C13.75 65.7422 10.3125 68.75 6.875 68.75C3.00781 68.75 0 65.7422 0 61.875V20.625C0 9.45312 9.02344 0 20.625 0ZM199.375 0C210.547 0 220 9.45312 220 20.625V61.875C220 65.7422 216.562 68.75 213.125 68.75C209.258 68.75 206.25 65.7422 206.25 61.875V20.625C206.25 17.1875 202.812 13.75 199.375 13.75H158.125C154.258 13.75 151.25 10.7422 151.25 6.875C151.25 3.4375 154.258 0 158.125 0H199.375ZM0 199.375V158.125C0 154.688 3.00781 151.25 6.875 151.25C10.3125 151.25 13.75 154.688 13.75 158.125V199.375C13.75 203.242 16.7578 206.25 20.625 206.25H61.875C65.3125 206.25 68.75 209.688 68.75 213.125C68.75 216.992 65.3125 220 61.875 220H20.625C9.02344 220 0 210.977 0 199.375ZM199.375 220H158.125C154.258 220 151.25 216.992 151.25 213.125C151.25 209.688 154.258 206.25 158.125 206.25H199.375C202.812 206.25 206.25 203.242 206.25 199.375V158.125C206.25 154.688 209.258 151.25 213.125 151.25C216.562 151.25 220 154.688 220 158.125V199.375C220 210.977 210.547 220 199.375 220Z" fill="#003920"/>
</svg>
