<svg width="141" height="140" viewBox="0 0 141 140" fill="none" xmlns="http://www.w3.org/2000/svg">
<path d="M14.5 70C14.5 84.8521 20.4 99.0959 30.902 109.598C41.4041 120.1 55.6479 126 70.5 126C85.3521 126 99.5959 120.1 110.098 109.598C120.6 99.0959 126.5 84.8521 126.5 70C126.5 55.1479 120.6 40.9041 110.098 30.402C99.5959 19.9 85.3521 14 70.5 14C55.6479 14 41.4041 19.9 30.902 30.402C20.4 40.9041 14.5 55.1479 14.5 70Z" fill="#FFEDEA"/>
<path d="M70.5 46C75.4688 46 79.5 50.0312 79.5 55V70C79.5 74.9688 75.4688 79 70.5 79C65.5312 79 61.5 74.9688 61.5 70V55C61.5 50.0312 65.5312 46 70.5 46ZM58.5 66.25V70C58.5 76.6562 63.8438 82 70.5 82C77.0625 82 82.5 76.6562 82.5 70V66.25C82.5 65.0312 83.4375 64 84.75 64C85.9688 64 87 65.0312 87 66.25V70C87 78.4375 80.7188 85.2812 72.75 86.4062V89.5H77.25C78.4688 89.5 79.5 90.5312 79.5 91.75C79.5 93.0625 78.4688 94 77.25 94H70.5H63.75C62.4375 94 61.5 93.0625 61.5 91.75C61.5 90.5312 62.4375 89.5 63.75 89.5H68.25V86.4062C60.1875 85.2812 54 78.4375 54 70V66.25C54 65.0312 54.9375 64 56.25 64C57.4688 64 58.5 65.0312 58.5 66.25Z" fill="#DC3A26"/>
<path opacity="0.4" d="M70.5 46C75.4688 46 79.5 50.0312 79.5 55V70C79.5 74.9688 75.4688 79 70.5 79C65.5312 79 61.5 74.9688 61.5 70V55C61.5 50.0312 65.5312 46 70.5 46ZM58.5 66.25V70C58.5 76.6562 63.8438 82 70.5 82C77.0625 82 82.5 76.6562 82.5 70V66.25C82.5 65.0312 83.4375 64 84.75 64C85.9688 64 87 65.0312 87 66.25V70C87 78.4375 80.7188 85.2812 72.75 86.4062V89.5H77.25C78.4688 89.5 79.5 90.5312 79.5 91.75C79.5 93.0625 78.4688 94 77.25 94H70.5H63.75C62.4375 94 61.5 93.0625 61.5 91.75C61.5 90.5312 62.4375 89.5 63.75 89.5H68.25V86.4062C60.1875 85.2812 54 78.4375 54 70V66.25C54 65.0312 54.9375 64 56.25 64C57.4688 64 58.5 65.0312 58.5 66.25Z" fill="#DC3A26"/>
</svg>
