<svg width="247" height="226" viewBox="0 0 247 226" fill="none" xmlns="http://www.w3.org/2000/svg">
<g clip-path="url(#clip0_35305_6186)">
<path d="M237.857 181.854C237.857 181.854 217.255 193.403 217.005 192.727C216.751 192.051 209.828 170.977 209.828 170.977L210.104 193.691L190.98 185.58L207.044 200.255L193.968 214.888L210.611 205.033L213.772 225.5L217.827 205.167L237.446 218.717L223.015 199.936L237.853 181.858L237.857 181.854Z" fill="#FAE366"/>
<path d="M131.511 152.716L78.4307 136.302L130.887 126.24L184.662 138.319L131.511 152.716Z" fill="#920700"/>
<path d="M131.584 148.722L130.463 208.346L105.897 202.57L89.9731 198.82L77.3064 195.843L77.6609 177.036L77.977 160.218L78.4305 136.301L131.584 148.722Z" fill="#FF553E"/>
<path d="M184.662 138.319L184.602 141.535L184.347 154.985L183.538 197.86L179.087 198.739L167.696 200.991L167.507 201.028L157.161 203.072L130.463 208.346L131.584 148.722L138.487 147.368L153.215 144.48L153.216 144.484L154.465 144.24L165.322 142.11L184.662 138.319Z" fill="#FF553E"/>
<path d="M141.754 13.7543V13.7581L126.09 31.9093L123.936 34.4096L119.908 39.076H119.904L114.846 44.9408L100.185 61.9321L99.9852 62.1625L99.3746 62.873L99.294 62.9652L98.7563 63.092L95.4692 63.8755L88.4418 65.55L75.0206 68.7416L70.3741 69.8478L60.7123 72.1445L36.0703 78.0093L36.7961 77.0913L48.278 62.5466L55.7855 53.037L59.5488 48.2707L61.3613 45.9739L64.1147 42.4866L64.683 41.7645L68.5922 36.8139L71.5107 33.1153L73.2119 30.9645L74.9668 28.7407L77.0866 28.2645L85.554 26.3633L90.0239 25.3609L91.7059 24.9845H91.7097L95.3002 24.1779L97.7963 23.6172L102.454 22.5725L114.167 19.9455H114.171L119.094 18.8394L140.844 13.9578H140.848L141.754 13.7543Z" fill="#FF553E"/>
<path d="M109.378 79.5609L108.936 79.6454L77.9697 85.6446L68.5999 87.4612L64.1108 88.3331L50.6435 90.9447L44.0154 92.2275L36.4773 78.7505L36.0664 78.0131L60.7123 72.1483H60.7161L70.374 69.8478L75.0205 68.7416L88.4417 65.55L95.4691 63.8755L98.7563 63.092L99.2939 62.9652L99.4475 63.2187L109.378 79.5609Z" fill="#FF553E"/>
<path d="M150.713 27.3543L142.61 37.5859L137.188 44.4339L132.108 50.8517L122.626 62.827L113.998 73.7269L110.115 78.6315L109.378 79.561L99.4475 63.2188L99.2939 62.9653L99.3746 62.8731L99.9852 62.1626L100.185 61.9321L114.846 44.9409L119.908 39.0761L123.936 34.4096L126.09 31.9093H126.094L141.754 13.7582L142.315 14.607L149.626 25.7066L150.713 27.3543Z" fill="#FF553E"/>
<path d="M36.8266 156.794L40.3787 170.812L53.5733 167.217L41.9531 175.659L47.6941 185.822L37.8327 178.655L28.5511 191.544L33.7122 175.659L22.5183 170.812H35.2867L36.8266 156.794Z" fill="#6FF6F7"/>
<path d="M202.148 9.72925L200.6 24.3815L216.709 27.0623L200.746 29.6779L200.562 48.4013L195.758 31.4561L183.496 39.9018L192.524 27.2582L179.587 18.4284L195.516 22.8875L202.148 9.72925Z" fill="#FAE366"/>
<path d="M79.7514 89.2626L82.6583 101.691L92.2625 94.9315L83.8219 105.267L91.4176 117.595L80.7805 107.475L73.661 114.381L77.7392 105.267L66.2227 100.85L78.8989 101.691L79.7514 89.2626Z" fill="#6FF6F7"/>
<path d="M7.94904 82.814L11.8045 91.4671L19.8304 89.4929L12.8183 94.5896L17.6722 103.7L10.1609 96.5176L4.14348 103.108L7.50742 94.5896L0 94.7393L8.52121 91.4671L7.94904 82.814Z" fill="#FAE366"/>
<path d="M131.236 208.194L132.282 152.506L132.357 148.57L132.37 147.922L130.834 147.894L130.821 148.542L130.748 152.481L129.7 208.166L131.236 208.194Z" fill="#920700"/>
<path d="M109.966 78.7291L109.224 79.6551L108.782 79.7375L98.8356 63.3946L98.6794 63.1366L98.5651 62.9517L99.0157 62.6773L99.8745 62.1513L99.9126 62.2129L100.339 62.9139L100.408 63.0294L109.966 78.7291Z" fill="#920700"/>
<path d="M142.464 14.8562L126.951 32.6276L124.67 35.2401L120.62 39.88L115.597 45.633L100.408 63.0295L99.9832 63.5192L99.6237 63.2064L99.2986 62.9206L99.0194 62.6774L99.0156 62.6773L98.8244 62.5075L99.585 61.6353L119.04 39.3541L125.256 32.2317L140.997 14.2002L141 14.2002L141.908 14.0009L141.908 14.0047L142.464 14.8562Z" fill="#920700"/>
<path d="M100.366 63.0255L99.6238 63.2063L99.3701 63.2666L98.8357 63.3947L88.4786 65.9003L74.9805 69.1593L70.4978 70.2444L60.8788 72.5691L36.3278 78.5033L35.9204 77.764L60.5934 72.0147L60.5934 72.0109L35.9242 77.7602L36.6543 76.8456L61.2246 70.9077L70.8128 68.5905L99.5851 61.6353L100.004 61.5336L100.113 61.9834L100.339 62.914L100.366 63.0255Z" fill="#920700"/>
<path d="M95.5795 140.309L95.5338 200.127L104.122 202.152L106.136 142.772L95.5795 140.309Z" fill="#FFFFEB"/>
<path d="M165.322 142.11L167.696 200.991L166.5 201.5L154.465 203.759L154.465 144.24L165.322 142.11Z" fill="#FFFFEB"/>
<path d="M102.454 22.5725L92.0974 37.7087L91.3332 38.8302L91.2641 38.9301L88.6144 42.8015L88.4493 43.0435L88.1881 43.4275L87.9116 43.8308L87.8195 43.9652L86.7174 45.5745L86.533 45.8472L85.5461 47.2874L84.5784 48.7047L82.9425 51.0974L74.9474 62.7808L70.9153 68.6763L70.2663 69.625L70.3738 69.8477L70.6081 70.3317L77.9696 85.6446L68.5997 87.4612L61.0001 72.7014L60.716 72.1483H60.7121V72.1445L60.6392 72.0024L61.3381 71.0384L62.9701 68.7877L68.1351 61.6594L76.2684 50.4368L78.6186 47.1953L80.1085 45.1405L80.2852 44.8947L81.13 43.7309L81.6062 43.0742L81.9096 42.6517L83.845 39.9863L84.3672 39.2604L84.5592 38.9954L86.629 36.1417L87.7926 34.5401L90.6304 30.6226L95.3 24.1779L97.7961 23.6172L102.454 22.5725Z" fill="#FFFFEB"/>
<path d="M64.1145 42.4904L126.378 31.8594L137.188 44.4338L132.108 50.8517L119.908 39.0761L59.5486 48.2707L64.1145 42.4904Z" fill="#FFFFEB"/>
<path d="M87.186 42.6824C79.6978 42.6786 72.1981 42.5518 64.7406 41.7722C57.9128 41.0578 50.2672 40.1168 44.1192 36.8945C42.8212 36.2147 41.7152 35.6962 41.2852 34.1945C40.8704 32.7504 40.9856 31.0105 41.5156 29.6164C42.7982 26.2481 45.5438 25.0498 49.0038 25.8986C55.4859 27.4886 60.4588 31.9285 66.0308 35.3121C69.4332 37.3784 73.0007 39.2143 76.5105 41.0885C78.2539 42.018 80.0473 42.7784 81.5449 44.0728C82.7661 45.129 83.8989 46.0623 85.5886 46.0661C87.0209 46.0661 88.2882 44.5797 87.812 43.1472C87.0862 40.9733 84.7514 39.8365 83.2422 38.208C81.2838 36.0995 79.6325 33.7451 78.3576 31.1603C75.7579 25.8947 74.3025 19.5307 74.7249 13.6352C74.8938 11.2616 75.539 7.98167 77.1019 6.11508C78.0158 5.02048 78.6725 4.8054 79.5941 5.85392C80.4198 6.79489 81.1763 7.81267 81.7523 8.92648C82.9811 11.3039 83.4688 14.1114 84.0026 16.7077C84.6055 19.6344 85.289 22.6685 85.5002 25.6374C85.746 29.0825 86.4526 32.4815 86.6215 35.9343C86.706 37.6742 86.5947 39.4178 86.6599 41.1615C86.6753 41.5417 86.7175 41.9181 86.7329 42.2984C86.7406 42.4866 86.7252 42.7016 86.7521 42.8898C86.8673 43.6541 86.3451 43.416 87.0785 42.8015H90.3388C90.7305 43.2393 90.454 43.6157 90.7189 42.9974C90.7766 42.8668 90.7458 42.4597 90.7535 42.3637C90.8073 41.5302 90.9033 40.7314 91.0799 39.9133C91.4562 38.1389 92.0284 36.3952 92.6044 34.6746C93.6989 31.4061 95.066 28.3144 96.7863 25.3224C98.4913 22.3613 100.404 19.4615 102.497 16.7615C104.543 14.1268 106.709 12.7979 110.046 12.3293C111.129 12.1757 112.469 12.0106 113.353 12.7595C114.459 13.7005 114.405 15.4864 114.524 16.8076C114.67 18.4399 114.512 19.5307 113.664 20.944C112.853 22.2921 111.978 23.6364 111.045 24.9038C109.213 27.3811 107.028 29.8967 104.712 31.9285C103.464 33.0269 102.04 33.9064 100.68 34.8551C99.3861 35.7576 98.2417 36.8522 96.9476 37.7471C95.7764 38.5575 94.6243 39.3717 93.48 40.2205C92.278 41.1077 90.8726 41.6915 89.7128 42.6133C88.58 43.5159 87.6392 43.5696 86.203 43.7886C84.4672 44.0536 82.7545 44.3915 81.0303 44.7372C77.6933 45.4055 74.433 46.1813 71.1536 47.0954C69.6751 47.5064 68.2581 48.0786 66.7912 48.5165C65.2398 48.9773 63.6423 49.1041 62.1562 49.7993C57.1103 52.1536 51.0813 54.8306 48.8924 60.4111C47.7903 63.2148 47.8172 65.7497 50.3901 67.647C52.8708 69.4752 56.0235 69.5174 58.9958 69.3753C66.5339 69.022 72.4246 64.4285 78.4805 60.4073C81.3183 58.5215 83.8029 56.34 86.4295 54.1777C87.7736 53.0715 89.0063 51.8387 90.0047 50.4099C90.7881 49.2846 91.7711 47.8904 92.2051 46.6115C93.1651 43.8001 88.7144 42.5903 87.7621 45.3863C87.9349 44.8793 87.2244 46.0507 87.0977 46.2504C86.7675 46.7651 86.5409 47.3412 86.1991 47.8482C85.2775 49.2116 83.9411 50.2985 82.6739 51.3202C81.5065 52.2612 80.4236 53.2636 79.2984 54.2468C77.9928 55.3875 76.4184 56.2516 74.9822 57.2195C72.225 59.0746 69.4601 60.9795 66.5377 62.5734C63.4349 64.2672 60.3091 64.874 56.7839 64.7895C55.6587 64.7626 53.7694 64.8433 52.9553 63.8524C52.6941 63.5336 52.8209 63.887 52.817 63.3185C52.817 63.0113 53.0436 62.416 53.1396 62.1625C53.393 61.4827 53.7732 60.8643 54.234 60.3036C56.2155 57.9147 58.965 56.244 61.7837 55.0418C63.12 54.4734 64.3489 53.7821 65.7697 53.4633C67.4786 53.0792 69.0645 52.5569 70.7312 52.0192C74.049 50.9515 77.5089 50.0259 80.942 49.419C82.4742 49.1463 83.9911 48.7815 85.5271 48.5241C87.0939 48.2591 88.8565 48.2438 90.358 47.7214C91.5523 47.3028 92.4355 46.3042 93.5184 45.6859C94.9354 44.8793 96.1873 43.8807 97.5006 42.9244C100.035 41.077 102.531 39.1912 105.1 37.3938C107.819 35.4888 110.016 33.2266 112.178 30.7225C114.267 28.3028 116.198 25.7795 117.807 23.0065C119.493 20.0991 119.297 17.207 118.832 13.9808C118.445 11.3 116.747 8.77285 114.067 7.9471C111.275 7.08294 107.662 7.8434 105.012 8.86503C101.836 10.0902 99.7432 12.7633 97.7963 15.4326C95.473 18.6204 93.288 21.9349 91.4831 25.4492C89.6629 28.9942 88.2805 32.7619 87.1899 36.5911C86.4411 39.2258 85.0241 43.7271 87.0939 46.0546C87.9733 47.0416 89.444 46.815 90.3541 46.0546C92.0092 44.6642 91.2834 41.5302 91.2834 39.6444C91.2834 35.7154 90.7996 31.94 90.3503 28.0455C89.9279 24.37 89.5362 20.7635 88.8258 17.1225C88.1691 13.7504 87.4817 10.2669 86.011 7.13671C84.905 4.77852 82.6816 1.32572 79.9858 0.661283C76.787 -0.129902 73.9799 2.06314 72.4938 4.72859C69.1145 10.7854 69.6521 19.1888 71.43 25.6527C72.4938 29.5203 73.9876 33.2881 76.2033 36.6487C77.2709 38.2695 78.4882 39.8057 79.79 41.2422C80.4082 41.922 81.0534 42.5864 81.7484 43.1894C82.0288 43.4314 83.3306 44.2226 83.3843 44.3762C84.1255 43.4045 84.8666 42.4328 85.6078 41.4572C85.2391 41.4572 84.4365 40.4702 84.1831 40.2513C83.465 39.6406 82.7584 39.1451 81.9251 38.6996C80.0665 37.7049 78.1848 36.7601 76.3339 35.7538C72.7856 33.8258 69.2489 31.9131 65.835 29.7508C62.7514 27.7959 59.9519 25.5106 56.6571 23.8822C53.2317 22.1884 49.1689 20.56 45.2866 21.1399C38.2169 22.1923 34.2385 31.0221 37.5986 37.2824C39.1347 40.1399 42.9863 41.7261 45.9087 42.717C49.9369 44.0843 54.2071 44.9062 58.4044 45.563C67.9355 47.0493 77.5781 47.2951 87.2052 47.299C90.1698 47.299 90.1736 42.6901 87.2052 42.6901L87.186 42.6824Z" fill="#FAE366"/>
<path d="M209.808 138.481C206.348 132.04 198.465 127.163 191.088 129.202C184.64 126.206 176.488 128.68 171.78 133.734C166.876 132.382 161.899 134.341 158.412 137.824C156.834 139.403 155.563 141.293 154.741 143.328C154.392 144.469 153.528 145.659 154.015 146.873C154.634 148.321 156.807 148.356 157.494 146.954C158.19 144.438 159.614 141.972 161.553 140.144C163.662 138.159 166.377 136.926 169.418 137.198C166.569 142.514 170.132 150.814 176.63 146.574C179.905 143.674 178.995 137.786 175.505 135.432C178.515 132.82 182.709 131.372 186.702 131.848C182.271 135.862 182.732 145.494 189.982 145.49C196.268 145.306 199.106 137.106 195.17 132.566C199.793 133.008 204.083 136.077 206.325 140.098C207.616 141.75 207.381 145.782 210.273 145.191C213.172 143.977 210.573 140.413 209.808 138.481ZM173.876 143.789C171.342 144.058 172.317 139.779 173.089 138.431C174.763 139.372 175.639 142.606 173.876 143.789ZM190.777 141.458C185.739 142.537 187.574 134.721 190.758 133.5C193.499 135.282 194.271 140.09 190.777 141.458Z" fill="#DAB9FF"/>
<path d="M180.416 52.9103C179.967 52.7874 179.306 53.0639 179.237 53.5824C178.504 58.825 177.436 65.0085 172.713 68.0542C172.433 66.3451 171.68 64.7435 170.344 63.5414C168.942 62.2816 167.06 61.6786 165.19 62.032C163.462 62.3623 161.949 63.7795 161.596 65.5193C160.824 69.3024 165.063 71.507 168.266 71.434C169.138 71.4148 169.998 71.2689 170.835 71.0192C170.432 73.5656 168.977 76.0275 167.402 77.9671C166.976 78.4894 166.519 78.9964 166.023 79.4611C165.793 79.2383 165.547 79.0271 165.271 78.8351C163.931 77.9171 162.037 77.3679 160.417 77.3986C158.712 77.4294 156.942 78.5086 157.226 80.4405C157.495 82.2418 159.334 83.3095 161.001 83.4823C162.629 83.6475 164.265 83.0829 165.62 82.2072C166.058 83.4132 165.954 84.7766 165.436 85.9442C164.245 88.6289 161.392 90.5185 158.716 91.4787C157.971 91.7437 157.21 91.9511 156.435 92.1009C155.924 92.2007 155.636 92.8075 155.763 93.2838C155.909 93.8138 156.435 94.0558 156.942 93.9559C160.54 93.2492 164.126 91.2905 166.296 88.2794C167.828 86.1516 168.258 83.2711 167.156 81.0243C168.074 80.1947 168.877 79.246 169.599 78.2359C170.701 76.6843 171.657 74.9905 172.264 73.1815C172.579 72.2406 172.767 71.2382 172.82 70.228C174.33 69.4407 175.678 68.3269 176.718 67.0211C179.03 64.106 180.055 60.4381 180.673 56.8317C180.831 55.9253 180.962 55.015 181.088 54.1048C181.161 53.5901 180.962 53.0716 180.416 52.9218V52.9103ZM160.498 81.4506C159.994 81.2893 159.48 80.9359 159.226 80.4635C159.054 80.1447 159.065 79.8068 159.361 79.584C160.217 78.9464 161.853 79.4534 162.779 79.7568C163.393 79.9604 163.988 80.2523 164.487 80.6517C164.395 80.7093 164.303 80.7669 164.211 80.8207C163.128 81.4352 161.73 81.8462 160.498 81.4506ZM164.603 68.4306C163.635 67.6855 163.078 66.5064 163.677 65.3465C164.288 64.1636 165.605 63.6758 166.884 63.887C169.318 64.298 170.674 66.6716 170.904 68.9721C168.861 69.748 166.388 69.8056 164.599 68.4268L164.603 68.4306Z" fill="#6FF6F7"/>
<path d="M246.374 61.452C243.383 60.0194 240.011 59.0938 236.674 59.4241C234.408 59.6469 232.285 60.5917 230.657 62.0973C230.046 61.9667 229.428 61.8707 228.809 61.8054C225.611 61.4712 222.274 62.0089 219.382 63.43C217.93 64.1444 216.571 65.0777 215.43 66.2222C214.225 67.432 213.126 68.8646 212.685 70.5315C209.532 72.3712 207.512 76.016 207.013 79.5533C206.879 80.5019 206.871 81.4544 206.944 82.4069C206.982 82.9254 207.577 83.2749 208.054 83.1904C208.603 83.0944 208.879 82.599 208.837 82.0805C208.603 79.0386 209.728 75.9353 211.794 73.7039C212.04 73.4389 212.308 73.1777 212.593 72.9319C212.842 74.1571 213.553 75.2824 214.686 75.8662C216.122 76.6036 218.188 76.2387 219.056 74.7985C219.97 73.2814 219.282 71.434 217.942 70.4278C217.097 69.794 216.083 69.5982 215.077 69.7019C215.511 68.9414 216.099 68.2501 216.686 67.6663C217.608 66.7484 218.664 65.9649 219.816 65.3619C222.101 64.1597 224.701 63.5721 227.281 63.6336C227.926 63.6489 228.575 63.6988 229.213 63.791C228.879 64.2865 228.583 64.8126 228.345 65.3772C227.047 68.446 227.773 72.7245 231.363 73.7692C233.018 74.2493 234.75 73.8921 235.894 72.5517C237.158 71.073 237.169 68.903 236.977 67.0748C236.881 66.1531 236.659 65.2006 236.014 64.5016C235.345 63.7757 234.408 63.3532 233.514 62.9845C233.314 62.9 233.11 62.8232 232.907 62.7502C233.832 62.1242 234.885 61.6825 235.998 61.4674C238.609 60.9643 241.321 61.5096 243.774 62.4314C244.427 62.6772 245.069 62.9537 245.694 63.2572C246.163 63.4799 246.758 63.1496 246.931 62.6964C247.127 62.1741 246.839 61.6863 246.37 61.4597L246.374 61.452ZM217.539 73.0394C217.631 73.4504 217.508 73.846 217.109 74.0995C216.763 74.3184 216.252 74.3722 215.876 74.28C214.828 74.0265 214.398 72.8359 214.421 71.8104C214.67 71.7182 214.924 71.6453 215.189 71.6069C216.199 71.4571 217.312 71.9909 217.543 73.0394H217.539ZM233.095 64.8818C233.671 65.1314 234.408 65.4118 234.746 65.9764C235.092 66.5525 235.103 67.3629 235.142 68.0158C235.184 68.7071 235.169 69.4407 235 70.1128C234.696 71.3188 233.828 72.1407 232.619 72.0562C231.567 71.9832 230.557 71.3764 230.061 70.3778C229.489 69.2256 229.528 67.8506 229.919 66.6485C230.211 65.7459 230.68 64.9317 231.267 64.225C231.889 64.4055 232.5 64.6245 233.095 64.8818Z" fill="#F09648"/>
<path d="M61.4304 140.786C61.3459 137.287 59.7906 133.968 57.5211 131.349C55.1441 128.603 51.9223 126.256 48.4546 125.119C46.8187 124.582 45.0753 124.37 43.4126 124.781C42.7252 124.198 41.9725 123.687 41.2083 123.23C37.806 121.209 33.8123 120.292 29.8685 120.568C28.1404 120.691 26.1474 121.04 24.4386 121.82C21.2321 120.245 17.4188 119.811 13.9474 120.603C13.0373 120.81 12.1464 121.087 11.2862 121.448C10.1457 121.924 10.8638 123.706 12.0043 123.23C14.8882 122.024 18.1293 121.828 21.1514 122.627C21.593 122.742 22.0308 122.888 22.4647 123.049C21.5815 123.806 20.9095 124.774 20.5984 126.01C20.1031 127.969 20.9594 129.801 22.6299 130.877C24.1966 131.887 26.374 132.513 27.9907 131.23C29.4729 130.055 29.8378 127.885 29.1581 126.179C28.6435 124.889 27.6758 123.886 26.5621 123.084C27.1766 122.907 27.8025 122.776 28.4131 122.673C31.6273 122.139 34.9682 122.519 37.9826 123.756C39.1884 124.251 40.3482 124.87 41.4003 125.642C40.2099 126.414 39.2844 127.577 39.0041 128.998C38.67 130.708 39.3804 132.732 40.8858 133.673C42.7367 134.832 45.1329 134.172 46.0162 132.144C46.7803 130.389 46.2734 128.399 45.275 126.859C45.1905 126.732 45.0984 126.61 45.0101 126.487C45.805 126.452 46.6075 126.563 47.3832 126.79C50.3325 127.643 53.105 129.54 55.2516 131.706C57.1832 133.657 58.7423 136.142 59.2876 138.858C59.4335 139.576 59.5065 140.302 59.5257 141.035C59.5372 141.554 60.1247 141.926 60.6009 141.865C61.1577 141.792 61.4419 141.312 61.4304 140.789V140.786ZM27.5836 127.892C27.5875 128.495 27.3916 129.175 26.95 129.605C26.5122 130.028 25.9247 130.097 25.3487 130.001C24.1045 129.793 22.5723 128.837 22.3956 127.501C22.219 126.156 23.0331 124.962 24.0853 124.217C24.2005 124.136 24.3195 124.063 24.4424 123.986C24.7381 124.159 25.0261 124.34 25.3026 124.536C26.397 125.311 27.5721 126.444 27.5836 127.888V127.892ZM44.3496 129.359C44.6491 130.5 44.3764 132.394 42.8442 132.351C41.5539 132.317 40.8282 130.965 40.8435 129.801C40.8627 128.522 41.8266 127.493 42.9326 126.974C43.5777 127.658 44.1115 128.453 44.3496 129.359Z" fill="#F09648"/>
<path d="M136.662 123.088C136.604 120.057 136.082 116.8 134.189 114.338C132.806 112.541 130.909 111.596 128.843 111.055C128.866 107.959 126.912 105.113 124.473 103.35C123.045 102.317 121.386 101.61 119.704 101.111C118.878 100.865 118.037 100.669 117.193 100.508C117.008 100.474 116.824 100.439 116.636 100.404C116.029 99.0371 114.965 97.9272 113.794 97.0131C112.381 95.9108 110.814 95.0582 109.182 94.3323C108.364 93.9674 107.535 93.6294 106.701 93.303C106.217 93.1109 105.645 93.5104 105.522 93.9751C105.373 94.5205 105.711 94.966 106.194 95.158C108.763 96.172 111.448 97.3088 113.468 99.2522C113.763 99.5364 114.055 99.8514 114.312 100.193C112.6 100.274 110.91 101.142 110.353 102.859C109.85 104.41 110.799 105.881 112.235 106.446C113.61 106.984 115.18 106.565 116.11 105.42C116.793 104.575 117.12 103.5 117.1 102.425C117.377 102.49 117.649 102.555 117.911 102.617C119.282 102.939 120.637 103.369 121.893 104.015C124.124 105.167 126.067 107.041 126.724 109.53C126.812 109.868 126.87 110.252 126.893 110.655C126.386 110.578 125.875 110.513 125.368 110.459C124.504 110.371 123.575 110.221 122.738 110.529C122.062 110.774 121.513 111.277 121.213 111.934C120.61 113.259 120.914 114.903 122.081 115.809C123.329 116.777 125.188 116.75 126.501 115.913C127.58 115.226 128.248 114.131 128.586 112.933C129.907 113.294 131.147 113.874 132.131 114.872C133.751 116.52 134.408 118.913 134.634 121.152C134.769 122.473 134.811 123.833 134.696 125.154C134.588 126.379 134.216 127.623 133.283 128.472C132.941 128.783 132.484 129.052 132.019 129.114C131.505 129.179 131.059 129.509 131.059 130.074C131.059 130.542 131.501 131.099 132.019 131.034C133.67 130.823 135.038 129.793 135.794 128.307C136.616 126.702 136.7 124.851 136.67 123.08L136.662 123.088ZM115.176 102.252C115.246 103.154 114.919 104.299 114.005 104.679C113.429 104.917 112.446 104.668 112.177 104.022C112.062 103.742 112.189 103.254 112.438 102.939C112.776 102.513 113.272 102.283 113.79 102.175C114.228 102.083 114.689 102.071 115.153 102.102C115.161 102.152 115.173 102.202 115.176 102.252ZM124.17 114.623C123.767 114.607 123.302 114.427 123.068 114.139C122.857 113.878 122.78 113.517 122.814 113.182C122.849 112.864 123.022 112.526 123.225 112.41C123.736 112.115 124.489 112.295 125.046 112.353C125.583 112.407 126.132 112.468 126.681 112.549C126.344 113.728 125.568 114.676 124.17 114.623Z" fill="#F09648"/>
</g>
<defs>
<clipPath id="clip0_35305_6186">
<rect width="247" height="225" fill="white" transform="translate(0 0.5)"/>
</clipPath>
</defs>
</svg>
