<svg width="80" height="80" viewBox="0 0 80 80" fill="none" xmlns="http://www.w3.org/2000/svg">
<mask id="mask0_3465_4232" style="mask-type:alpha" maskUnits="userSpaceOnUse" x="0" y="0" width="80" height="80">
<circle cx="40" cy="40" r="40" fill="#F2DF7F"/>
</mask>
<g mask="url(#mask0_3465_4232)">
<circle cx="40" cy="40" r="40" fill="#CCCCCC"/>
<path fill-rule="evenodd" clip-rule="evenodd" d="M49.0465 39.75H58.7919V55.5701C56.5526 58.0974 53.7704 60.0853 50.6537 61.3848C47.5371 62.6843 44.1668 63.2618 40.7954 63.0741C37.5911 63.0528 34.4251 62.3761 31.4921 61.0856C28.5592 59.7951 25.9213 57.9181 23.7408 55.5701C19.9273 51.193 17.8779 45.5542 17.991 39.75C17.9674 36.7844 18.5291 33.8433 19.6439 31.0952C20.7588 28.347 22.4049 25.8459 24.488 23.735C26.5942 21.5598 29.1193 19.8339 31.9109 18.6615C34.7025 17.489 37.7026 16.8943 40.7304 16.9132C47.3904 16.9548 53.8087 19.4136 58.7919 23.8324L52.295 31.239C50.954 29.586 49.253 28.2614 47.3219 27.3662C45.3908 26.471 43.2807 26.029 41.1527 26.0739C37.7319 26.1398 34.4752 27.5522 32.0894 30.0045C30.7475 31.2503 29.6748 32.7577 28.9373 34.4337C28.1999 36.1097 27.8133 37.9189 27.8014 39.75C27.7629 41.6187 28.1061 43.4756 28.8098 45.2071C29.5136 46.9386 30.5633 48.5083 31.8945 49.8203C34.2267 52.1533 37.3125 53.581 40.6005 53.8484C43.5276 54.006 46.4437 53.3779 49.0465 52.0292V39.75Z" fill="#3B3240"/>
<circle cx="39.8658" cy="4.16108" r="1.47651" fill="#3B3240"/>
<circle cx="39.8658" cy="75.8389" r="1.47651" fill="#3B3240"/>
<circle cx="75.7046" cy="40" r="1.47651" transform="rotate(90 75.7046 40)" fill="#3B3240"/>
<circle cx="4.02691" cy="40" r="1.47651" transform="rotate(90 4.02691 40)" fill="#3B3240"/>
<circle cx="65.2078" cy="14.658" r="1.47651" transform="rotate(45 65.2078 14.658)" fill="#3B3240"/>
<circle cx="14.5239" cy="65.3419" r="1.47651" transform="rotate(45 14.5239 65.3419)" fill="#3B3240"/>
<circle cx="65.2077" cy="65.342" r="1.47651" transform="rotate(135 65.2077 65.342)" fill="#3B3240"/>
<circle cx="14.5238" cy="14.6581" r="1.47651" transform="rotate(135 14.5238 14.6581)" fill="#3B3240"/>
<circle cx="70.9032" cy="22.0805" r="1.47651" transform="rotate(60 70.9032 22.0805)" fill="#3B3240"/>
<circle cx="8.82846" cy="57.9195" r="1.47651" transform="rotate(60 8.82846 57.9195)" fill="#3B3240"/>
<circle cx="57.7853" cy="71.0374" r="1.47651" transform="rotate(150 57.7853 71.0374)" fill="#3B3240"/>
<circle cx="21.9463" cy="8.96261" r="1.47651" transform="rotate(150 21.9463 8.96261)" fill="#3B3240"/>
<circle cx="74.4835" cy="30.7242" r="1.47651" transform="rotate(75 74.4835 30.7242)" fill="#3B3240"/>
<circle cx="5.24806" cy="49.2758" r="1.47651" transform="rotate(75 5.24806 49.2758)" fill="#3B3240"/>
<circle cx="49.1416" cy="74.6178" r="1.47651" transform="rotate(165 49.1416 74.6178)" fill="#3B3240"/>
<circle cx="30.5901" cy="5.38234" r="1.47651" transform="rotate(165 30.5901 5.38234)" fill="#3B3240"/>
<circle cx="74.4836" cy="49.2758" r="1.47651" transform="rotate(105 74.4836 49.2758)" fill="#3B3240"/>
<circle cx="5.24805" cy="30.7242" r="1.47651" transform="rotate(105 5.24805 30.7242)" fill="#3B3240"/>
<circle cx="30.59" cy="74.6177" r="1.47651" transform="rotate(-165 30.59 74.6177)" fill="#3B3240"/>
<circle cx="49.1417" cy="5.38226" r="1.47651" transform="rotate(-165 49.1417 5.38226)" fill="#3B3240"/>
<circle cx="70.9032" cy="57.9195" r="1.47651" transform="rotate(120 70.9032 57.9195)" fill="#3B3240"/>
<circle cx="8.82839" cy="22.0805" r="1.47651" transform="rotate(120 8.82839 22.0805)" fill="#3B3240"/>
<circle cx="21.9464" cy="71.0374" r="1.47651" transform="rotate(-150 21.9464 71.0374)" fill="#3B3240"/>
<circle cx="57.7852" cy="8.9626" r="1.47651" transform="rotate(-150 57.7852 8.9626)" fill="#3B3240"/>
</g>
</svg>
