<svg width="309" height="150" viewBox="0 0 309 150" fill="none" xmlns="http://www.w3.org/2000/svg">
<g clip-path="url(#clip0_8_1353)">
<path fill-rule="evenodd" clip-rule="evenodd" d="M289.93 0H18.6C18.6 10.23 10.23 18.6 0 18.6V130.93C10.23 130.93 18.6 139.3 18.6 149.53H289.93C289.93 139.3 298.3 130.93 308.53 130.93V18.6C298.3 18.6 289.93 10.23 289.93 0Z" fill="#40C181"/>
<path fill-rule="evenodd" clip-rule="evenodd" d="M282.87 8.40002H25.6599C22.9799 16.53 16.5299 22.98 8.3999 25.66V123.88C16.5299 126.56 22.9799 133.01 25.6599 141.14H282.87C285.55 133.01 292 126.56 300.13 123.88V25.66C292 22.98 285.55 16.53 282.87 8.40002Z" fill="#C0FFD6"/>
<path fill-rule="evenodd" clip-rule="evenodd" d="M154.27 74.77L130.11 8.40002H142.57L154.27 74.77Z" fill="#E9FFED"/>
<path fill-rule="evenodd" clip-rule="evenodd" d="M154.27 74.77V8.40002H165.97L154.27 74.77Z" fill="#E9FFED"/>
<path fill-rule="evenodd" clip-rule="evenodd" d="M154.27 74.77L178.42 8.40002H192.59L154.27 74.77Z" fill="#E9FFED"/>
<path fill-rule="evenodd" clip-rule="evenodd" d="M154.27 74.77L209.96 8.40002H233.37L154.27 74.77Z" fill="#E9FFED"/>
<path fill-rule="evenodd" clip-rule="evenodd" d="M154.27 74.77L269.23 8.40002H282.88C284.99 14.81 289.45 20.18 295.22 23.47L154.28 74.77H154.27Z" fill="#E9FFED"/>
<path fill-rule="evenodd" clip-rule="evenodd" d="M154.27 74.77L300.13 49.05V74.77H154.27Z" fill="#E9FFED"/>
<path fill-rule="evenodd" clip-rule="evenodd" d="M154.27 74.77L300.13 100.49V123.88C298.41 124.45 296.76 125.18 295.2 126.07L154.26 74.77H154.27Z" fill="#E9FFED"/>
<path fill-rule="evenodd" clip-rule="evenodd" d="M154.27 74.77L269.22 141.14H233.36L154.27 74.77Z" fill="#E9FFED"/>
<path fill-rule="evenodd" clip-rule="evenodd" d="M154.27 74.77L209.96 141.14H192.58L154.27 74.77Z" fill="#E9FFED"/>
<path fill-rule="evenodd" clip-rule="evenodd" d="M154.27 74.77L178.42 141.14H165.97L154.27 74.77Z" fill="#E9FFED"/>
<path fill-rule="evenodd" clip-rule="evenodd" d="M154.27 74.77V141.14H142.56L154.27 74.77Z" fill="#E9FFED"/>
<path fill-rule="evenodd" clip-rule="evenodd" d="M154.27 74.77L130.11 141.14H115.95L154.27 74.77Z" fill="#E9FFED"/>
<path fill-rule="evenodd" clip-rule="evenodd" d="M154.27 74.77L98.5699 141.14H75.1699L154.27 74.77Z" fill="#E9FFED"/>
<path fill-rule="evenodd" clip-rule="evenodd" d="M154.27 74.77L39.2998 141.14H25.6598C23.5498 134.73 19.0898 129.36 13.3198 126.07L154.27 74.78V74.77Z" fill="#E9FFED"/>
<path fill-rule="evenodd" clip-rule="evenodd" d="M154.27 74.77L8.3999 100.48V74.76L154.27 74.77Z" fill="#E9FFED"/>
<path fill-rule="evenodd" clip-rule="evenodd" d="M154.27 74.7701L8.3999 49.0401V25.6601C10.1299 25.0901 11.7799 24.3501 13.3299 23.4601L154.27 74.7701Z" fill="#E9FFED"/>
<path fill-rule="evenodd" clip-rule="evenodd" d="M154.27 74.77L39.3298 8.40002H75.1798L154.27 74.77Z" fill="#E9FFED"/>
<path fill-rule="evenodd" clip-rule="evenodd" d="M154.27 74.77L98.5798 8.40002H115.96L154.27 74.77Z" fill="#E9FFED"/>
</g>
<defs>
<clipPath id="clip0_8_1353">
<rect width="308.53" height="149.54" fill="white"/>
</clipPath>
</defs>
</svg>
