<svg width="25" height="24" viewBox="0 0 25 24" fill="none" xmlns="http://www.w3.org/2000/svg">
<mask id="mask0_5631_438" style="mask-type:alpha" maskUnits="userSpaceOnUse" x="0" y="0" width="25" height="24">
<circle cx="12.5" cy="12" r="12" fill="#F2DF7F"/>
</mask>
<g mask="url(#mask0_5631_438)">
<circle cx="12.5" cy="12" r="12" fill="#CCCCCC"/>
<path fill-rule="evenodd" clip-rule="evenodd" d="M15.214 11.925H18.1376V16.6711C17.4658 17.4293 16.6311 18.0256 15.6961 18.4155C14.7612 18.8053 13.7501 18.9786 12.7386 18.9223C11.7774 18.9159 10.8276 18.7129 9.94766 18.3257C9.06778 17.9386 8.27641 17.3755 7.62227 16.6711C6.47822 15.3579 5.86339 13.6663 5.89733 11.925C5.89023 11.0354 6.05874 10.153 6.3932 9.32859C6.72766 8.50415 7.22149 7.7538 7.84642 7.12053C8.47829 6.46798 9.23582 5.95021 10.0733 5.59847C10.9108 5.24673 11.8108 5.06832 12.7191 5.07398C14.7172 5.08648 16.6426 5.82412 18.1376 7.14976L16.1885 9.37172C15.7862 8.87584 15.2759 8.47844 14.6966 8.20989C14.1173 7.94134 13.4842 7.80873 12.8458 7.8222C11.8196 7.84197 10.8426 8.2657 10.1269 9.0014C9.72427 9.37514 9.40245 9.82734 9.18122 10.3301C8.95998 10.8329 8.84401 11.3757 8.84045 11.925C8.8289 12.4856 8.93184 13.0427 9.14298 13.5622C9.35411 14.0816 9.669 14.5525 10.0684 14.9461C10.768 15.646 11.6938 16.0743 12.6802 16.1546C13.5583 16.2018 14.4331 16.0134 15.214 15.6088V11.925Z" fill="#3B3240"/>
<ellipse cx="12.4598" cy="1.24831" rx="0.442953" ry="0.442953" fill="#3B3240"/>
<ellipse cx="12.4598" cy="22.7517" rx="0.442953" ry="0.442954" fill="#3B3240"/>
<ellipse cx="23.2115" cy="12" rx="0.442953" ry="0.442953" transform="rotate(90 23.2115 12)" fill="#3B3240"/>
<ellipse cx="1.70817" cy="12" rx="0.442953" ry="0.442953" transform="rotate(90 1.70817 12)" fill="#3B3240"/>
<circle cx="20.0624" cy="4.39743" r="0.442953" transform="rotate(45 20.0624 4.39743)" fill="#3B3240"/>
<circle cx="4.8573" cy="19.6026" r="0.442953" transform="rotate(45 4.8573 19.6026)" fill="#3B3240"/>
<ellipse cx="20.0623" cy="19.6026" rx="0.442953" ry="0.442953" transform="rotate(135 20.0623 19.6026)" fill="#3B3240"/>
<circle cx="4.85709" cy="4.3974" r="0.442953" transform="rotate(135 4.85709 4.3974)" fill="#3B3240"/>
<ellipse cx="21.771" cy="6.62413" rx="0.442953" ry="0.442953" transform="rotate(60 21.771 6.62413)" fill="#3B3240"/>
<ellipse cx="3.14854" cy="17.3758" rx="0.442953" ry="0.442953" transform="rotate(60 3.14854 17.3758)" fill="#3B3240"/>
<ellipse cx="17.8356" cy="21.3112" rx="0.442953" ry="0.442953" transform="rotate(150 17.8356 21.3112)" fill="#3B3240"/>
<ellipse cx="7.08388" cy="2.68876" rx="0.442953" ry="0.442953" transform="rotate(150 7.08388 2.68876)" fill="#3B3240"/>
<ellipse cx="22.8451" cy="9.21725" rx="0.442953" ry="0.442953" transform="rotate(75 22.8451 9.21725)" fill="#3B3240"/>
<ellipse cx="2.07448" cy="14.7827" rx="0.442953" ry="0.442953" transform="rotate(75 2.07448 14.7827)" fill="#3B3240"/>
<ellipse cx="15.2425" cy="22.3853" rx="0.442953" ry="0.442953" transform="rotate(165 15.2425 22.3853)" fill="#3B3240"/>
<ellipse cx="9.6771" cy="1.6147" rx="0.442953" ry="0.442953" transform="rotate(165 9.6771 1.6147)" fill="#3B3240"/>
<circle cx="22.8452" cy="14.7827" r="0.442953" transform="rotate(105 22.8452 14.7827)" fill="#3B3240"/>
<ellipse cx="2.07456" cy="9.21721" rx="0.442953" ry="0.442953" transform="rotate(105 2.07456 9.21721)" fill="#3B3240"/>
<circle cx="9.67702" cy="22.3853" r="0.442953" transform="rotate(-165 9.67702 22.3853)" fill="#3B3240"/>
<ellipse cx="15.2426" cy="1.61466" rx="0.442953" ry="0.442953" transform="rotate(-165 15.2426 1.61466)" fill="#3B3240"/>
<circle cx="21.771" cy="17.3758" r="0.442953" transform="rotate(120 21.771 17.3758)" fill="#3B3240"/>
<ellipse cx="3.14858" cy="6.62411" rx="0.442953" ry="0.442953" transform="rotate(120 3.14858 6.62411)" fill="#3B3240"/>
<ellipse cx="7.08396" cy="21.3112" rx="0.442953" ry="0.442953" transform="rotate(-150 7.08396 21.3112)" fill="#3B3240"/>
<ellipse cx="17.8357" cy="2.68874" rx="0.442953" ry="0.442953" transform="rotate(-150 17.8357 2.68874)" fill="#3B3240"/>
</g>
</svg>
