<svg width="32" height="34" viewBox="0 0 32 34" fill="none" xmlns="http://www.w3.org/2000/svg">
<path d="M11 16C9.875 16 9 15.125 9 14C9 12.9375 9.875 12 11 12C12.125 12 13 12.9375 13 14C13 15.125 12.125 16 11 16ZM21 16C19.875 16 19 15.125 19 14C19 12.9375 19.875 12 21 12C22.125 12 23 12.9375 23 14C23 15.125 22.125 16 21 16Z" fill="#744AA5"/>
<path opacity="0.4" d="M0 17C0 11.3125 3 6.0625 8 3.1875C12.9375 0.3125 19 0.3125 24 3.1875C28.9375 6.0625 32 11.3125 32 17C32 22.75 28.9375 28 24 30.875C19 33.75 12.9375 33.75 8 30.875C3 28 0 22.75 0 17ZM8.6875 22.6875C10.125 24.3125 12.5 26 16 26C19.4375 26 21.8125 24.3125 23.25 22.6875C23.5625 22.25 23.5625 21.625 23.125 21.25C22.6875 20.9375 22.0625 20.9375 21.6875 21.375C20.625 22.6875 18.6875 24 16 24C13.25 24 11.375 22.6875 10.25 21.375C9.875 20.9375 9.25 20.9375 8.8125 21.25C8.375 21.625 8.375 22.25 8.6875 22.6875ZM13 14C13 12.9375 12.125 12 11 12C9.875 12 9 12.9375 9 14C9 15.125 9.875 16 11 16C12.125 16 13 15.125 13 14ZM23 14C23 12.9375 22.125 12 21 12C19.875 12 19 12.9375 19 14C19 15.125 19.875 16 21 16C22.125 16 23 15.125 23 14Z" fill="#744AA5"/>
</svg>
