<svg width="24" height="26" viewBox="0 0 24 26" fill="none" xmlns="http://www.w3.org/2000/svg">
<path d="M8.25 12.25C7.40625 12.25 6.75 11.5938 6.75 10.75C6.75 9.95312 7.40625 9.25 8.25 9.25C9.09375 9.25 9.75 9.95312 9.75 10.75C9.75 11.5938 9.09375 12.25 8.25 12.25ZM15.75 12.25C14.9062 12.25 14.25 11.5938 14.25 10.75C14.25 9.95312 14.9062 9.25 15.75 9.25C16.5938 9.25 17.25 9.95312 17.25 10.75C17.25 11.5938 16.5938 12.25 15.75 12.25Z" fill="#ACABA4"/>
<path opacity="0.4" d="M0 13C0 8.73438 2.25 4.79688 6 2.64062C9.70312 0.484375 14.25 0.484375 18 2.64062C21.7031 4.79688 24 8.73438 24 13C24 17.3125 21.7031 21.25 18 23.4062C14.25 25.5625 9.70312 25.5625 6 23.4062C2.25 21.25 0 17.3125 0 13ZM6.51562 17.2656C7.59375 18.4844 9.375 19.75 12 19.75C14.5781 19.75 16.3594 18.4844 17.4375 17.2656C17.6719 16.9375 17.6719 16.4688 17.3438 16.1875C17.0156 15.9531 16.5469 15.9531 16.2656 16.2812C15.4688 17.2656 14.0156 18.25 12 18.25C9.9375 18.25 8.53125 17.2656 7.6875 16.2812C7.40625 15.9531 6.9375 15.9531 6.60938 16.1875C6.28125 16.4688 6.28125 16.9375 6.51562 17.2656ZM9.75 10.75C9.75 9.95312 9.09375 9.25 8.25 9.25C7.40625 9.25 6.75 9.95312 6.75 10.75C6.75 11.5938 7.40625 12.25 8.25 12.25C9.09375 12.25 9.75 11.5938 9.75 10.75ZM17.25 10.75C17.25 9.95312 16.5938 9.25 15.75 9.25C14.9062 9.25 14.25 9.95312 14.25 10.75C14.25 11.5938 14.9062 12.25 15.75 12.25C16.5938 12.25 17.25 11.5938 17.25 10.75Z" fill="#ACABA4"/>
</svg>
