<svg width="36" height="36" viewBox="0 0 36 36" fill="none" xmlns="http://www.w3.org/2000/svg">
<path d="M12 6C13.0312 6 14.0156 6.60938 14.5781 7.5C15.0938 8.4375 15.0938 9.60938 14.5781 10.5C14.0156 11.4375 13.0312 12 12 12C10.9219 12 9.9375 11.4375 9.375 10.5C8.85938 9.60938 8.85938 8.4375 9.375 7.5C9.9375 6.60938 10.9219 6 12 6ZM10.9219 13.5H13.0312C13.4531 13.5 13.875 13.5938 14.25 13.7344C14.25 13.9219 14.25 14.1094 14.25 14.25C14.25 15.4219 14.7188 16.4531 15.5625 17.1094C13.875 18 12.75 19.7344 12.75 21.75V22.5C12.75 23.8594 13.3125 25.0312 14.25 25.875V28.5C14.25 28.8281 14.25 29.0625 14.3438 29.3438C13.9219 29.7656 13.3594 30 12.75 30H11.25C9.98438 30 9 29.0156 9 27.75V22.3594C7.73438 21.8906 6.89062 20.6719 6.98438 19.2656L7.17188 16.9688C7.35938 15 9 13.5 10.9219 13.5ZM23.25 30C22.5938 30 22.0312 29.7656 21.6094 29.3438C21.7031 29.0625 21.75 28.8281 21.75 28.5V25.875C22.6406 25.0312 23.25 23.8594 23.25 22.5V21.75C23.25 19.7344 22.0781 18 20.4375 17.1094C21.2344 16.4531 21.75 15.4219 21.75 14.25C21.75 14.1562 21.7031 14.0625 21.7031 13.9219C22.1719 13.6875 22.6875 13.5 23.25 13.5H24.7031C26.0625 13.5 27.2344 14.3906 27.6094 15.7031L29.4375 22.125C29.7188 23.0625 28.9688 24 27.9844 24H27V27.75C27 29.0156 25.9688 30 24.75 30H23.25ZM24 6C25.0312 6 26.0156 6.60938 26.5781 7.5C27.0938 8.4375 27.0938 9.60938 26.5781 10.5C26.0156 11.4375 25.0312 12 24 12C22.9219 12 21.9375 11.4375 21.375 10.5C20.8594 9.60938 20.8594 8.4375 21.375 7.5C21.9375 6.60938 22.9219 6 24 6ZM18 12C18.7969 12 19.5 12.4688 19.9219 13.125C20.3438 13.8281 20.3438 14.7188 19.9219 15.375C19.5 16.0781 18.7969 16.5 18 16.5C17.1562 16.5 16.4531 16.0781 16.0312 15.375C15.6094 14.7188 15.6094 13.8281 16.0312 13.125C16.4531 12.4688 17.1562 12 18 12ZM18 18C20.0625 18 21.75 19.6875 21.75 21.75V22.5C21.75 23.625 21.1406 24.6094 20.25 25.125V28.5C20.25 29.3438 19.5469 30 18.75 30H17.25C16.4062 30 15.75 29.3438 15.75 28.5V25.125C14.8125 24.6094 14.25 23.625 14.25 22.5V21.75C14.25 19.6875 15.8906 18 18 18Z" fill="#005231"/>
</svg>
