<svg width="113" height="117" viewBox="0 0 113 117" fill="none" xmlns="http://www.w3.org/2000/svg">
<path d="M89.9145 40.1793L18.3331 53.7333C15.8498 54.2035 14.2162 56.5891 14.6844 59.0616L24.5571 111.201C25.0252 113.673 27.4179 115.297 29.9011 114.826L101.483 101.272C103.966 100.802 105.599 98.4167 105.131 95.9442L95.2585 43.8048C94.7903 41.3323 92.3977 39.7091 89.9145 40.1793Z" fill="#925833"/>
<path d="M63.9198 12.5422L18.0139 58.9895L40.2732 80.8114L86.1791 34.3641L63.9198 12.5422Z" fill="#AFDB71"/>
<path d="M87.6309 29.9037L85.6105 27.9228L84.4787 26.8135L80.8446 23.2507L78.9665 21.409L75.9308 18.4321L75.9046 18.4068L74.1199 16.6571L68.3949 11.0445C68.3884 11.0377 68.3816 11.0319 68.3755 11.025C68.3511 11.0012 68.3278 10.9787 68.3035 10.9558L68.303 10.9559L63.8767 6.61641L59.4641 11.0817C59.4569 11.0888 59.4501 11.0957 59.4433 11.1027C59.4194 11.1271 59.3963 11.1504 59.3733 11.1746L38.7295 32.0607L34.7459 36.0914L24.7113 46.2454L22.9681 48.0089L21.8086 49.1821L20.2635 50.7453L17.0749 53.9717L16.606 54.4461L16.6055 54.4461L16.5467 54.5065C16.5297 54.5225 16.5138 54.5387 16.4974 54.5551C16.485 54.5674 16.4727 54.5801 16.4608 54.5923L16.436 54.6169L16.1867 54.8689L15.7174 55.3438L15.3681 55.6971L15.3672 55.6972L13.3203 57.7694L12.1569 58.9467L12.0644 59.0404L15.2767 62.1896L16.5392 63.4275C16.5464 63.4351 16.5539 63.4422 16.5615 63.4497C16.585 63.4737 16.6093 63.4965 16.6336 63.5193L18.1898 65.0459L22.2309 69.0066L29.5655 76.1968L35.7883 82.2979L35.8186 82.3276L35.8689 82.3772C35.8764 82.3843 35.8834 82.3911 35.8903 82.3973L37.9907 84.4571L40.0559 86.4815L40.3157 86.7365L40.8866 86.1587L41.5257 85.5116L44.7423 82.2577C44.7446 82.2549 44.7469 82.2521 44.7494 82.2502C44.7539 82.246 44.7574 82.242 44.7618 82.2379L47.4743 79.4929L47.4752 79.4927L47.4756 79.4922L47.476 79.4921L48.7195 78.2329L61.8348 64.9633L65.8475 60.9029L66.245 60.5003L67.2757 59.4574L67.7614 58.9662L72.9575 53.7082L80.5863 45.9895L81.7442 44.818L81.7447 44.8179L83.9056 42.6305L85.0164 41.5062L85.5033 41.0138L87.6938 38.7971L87.7743 38.7156L89.7716 36.695L92.1271 34.3108L87.6297 29.9025L87.6309 29.9037ZM46.1539 74.8609L45.9338 75.0833L45.9333 75.0834L40.4784 80.6028L40.273 80.8106L36.9406 77.5435L36.9401 77.5436L34.5312 75.1822L34.5308 75.1823L27.8953 68.6763L26.7967 67.599L26.7965 67.5981L23.8546 64.7151L23.7554 64.6175L18.3712 59.3396L18.0136 58.9891L18.0881 58.9135L19.8473 57.1338L20.1527 56.8243L22.2033 54.7496C22.2033 54.7496 22.2032 54.7491 22.2037 54.749L23.6743 53.2619C23.6743 53.2619 23.6742 53.2614 23.6748 53.2618L24.0842 52.847L24.3314 52.5968L24.7528 52.1702C24.7528 52.1702 24.7527 52.1698 24.7532 52.1697L24.8278 52.0945L24.8282 52.0944L27.5199 49.3704L27.5326 49.3571L29.2759 47.5936L33.1358 43.6871L33.1367 43.6869L35.068 41.7322L39.0516 37.701L58.2583 18.2683L63.9185 12.5407L69.6605 18.1699L70.5299 19.0228L70.5304 19.0228L72.315 20.7724L73.0454 21.488L75.3772 23.7737L80.4366 28.7337L81.4546 29.7316L85.297 33.4986L86.1779 34.3621L85.0906 35.462L81.542 39.0528L81.4351 39.161L81.4347 39.1611L80.5172 40.0893L80.5167 40.0894L78.2465 42.3874L78.2461 42.3875L76.2177 44.4395L76.2173 44.4396L71.9817 48.7257L67.8202 52.9363L65.6959 55.086L65.6954 55.0861L63.39 57.4187L63.3895 57.4188L63.1954 57.6154L62.8218 57.9937L61.4527 59.3797L60.621 60.2213L60.6205 60.2213L57.1441 63.7393L46.1537 74.8595L46.1539 74.8609Z" fill="#7AAA35"/>
<path d="M69.6612 18.1711C69.3645 18.8021 68.9569 19.3949 68.4378 19.9203C65.9893 22.3978 61.9906 22.4326 59.5066 19.9979C58.9803 19.4816 58.5639 18.8963 58.2586 18.27C57.1363 15.9711 57.5041 13.126 59.3725 11.1751C59.3955 11.1509 59.4191 11.1275 59.4425 11.1032C59.4497 11.0962 59.4565 11.0892 59.4632 11.0823C61.8898 8.64919 65.8199 8.59854 68.3012 10.9562L68.3017 10.9561C68.325 10.9791 68.3495 11.0029 68.3733 11.0258C70.3306 12.9443 70.7634 15.8247 69.6604 18.1717L69.6612 18.1711Z" fill="#7AAA35"/>
<path d="M84.3675 40.5683C87.7949 39.9194 90.0495 36.6268 89.4033 33.2143C88.7572 29.8018 85.4549 27.5614 82.0275 28.2104C78.6002 28.8594 76.3455 32.1519 76.9917 35.5645C77.6379 38.977 80.9401 41.2173 84.3675 40.5683Z" fill="#7AAA35"/>
<path d="M22.1653 65.1423C25.5926 64.4933 27.8472 61.2008 27.2011 57.7883C26.5549 54.3757 23.2526 52.1354 19.8253 52.7844C16.3979 53.4334 14.1433 56.7259 14.7895 60.1384C15.4356 63.551 18.7379 65.7913 22.1653 65.1423Z" fill="#7AAA35"/>
<path d="M44.7614 82.2379C44.7569 82.242 44.7534 82.246 44.749 82.2501C44.7466 82.2525 44.7442 82.2548 44.7419 82.2576C42.3159 84.7039 38.3762 84.7592 35.8898 82.3973C35.8828 82.3906 35.876 82.3843 35.8684 82.3772C35.8515 82.3606 35.8347 82.3443 35.8177 82.3277C35.8078 82.3177 35.7973 82.3079 35.7878 82.2979C33.8567 80.3791 33.4341 77.5177 34.5303 75.1823C34.5303 75.1823 34.5308 75.1822 34.5307 75.1817C34.8279 74.5507 35.2354 73.9579 35.7545 73.4324C38.2026 70.955 42.2013 70.9207 44.6849 73.3555C45.2111 73.8713 45.6275 74.4567 45.9328 75.0829C45.9332 75.0828 45.9329 75.0834 45.9329 75.0834C47.0673 77.406 46.6798 80.2851 44.7608 82.237L44.7614 82.2379Z" fill="#7AAA35"/>
<path d="M61.725 56.1157C66.213 51.5747 65.5406 43.6674 60.2231 38.4543C54.9055 33.2413 46.9565 32.6965 42.4684 37.2375C37.9803 41.7785 38.6527 49.6858 43.9703 54.8988C49.2878 60.1119 57.2369 60.6567 61.725 56.1157Z" fill="#7AAA35"/>
<path d="M69.8452 34.3556C71.1029 32.5189 70.6291 30.0168 68.787 28.7671C66.9448 27.5173 64.4319 27.9931 63.1741 29.8298C61.9164 31.6666 62.3902 34.1686 64.2323 35.4184C66.0745 36.6681 68.5874 36.1923 69.8452 34.3556Z" fill="#7AAA35"/>
<path d="M41.018 63.5236C42.2757 61.6869 41.802 59.1848 39.9598 57.935C38.1177 56.6853 35.6047 57.1611 34.347 58.9978C33.0893 60.8345 33.563 63.3366 35.4052 64.5864C37.2473 65.8361 39.7603 65.3603 41.018 63.5236Z" fill="#7AAA35"/>
<path d="M58.8782 51.4438L58.7691 51.3367L58.311 50.8875L57.9063 51.2967L56.681 52.5363L57.272 53.116L58.1226 53.9498L58.5969 54.4144L59.2273 53.7766L60.2264 52.7652L58.8786 51.4433L58.8782 51.4438ZM47.1761 39.9716L45.8552 38.6767L44.2253 40.3265L45.5913 41.6663L46.037 42.1032L47.6673 40.4534L47.1756 39.9717L47.1761 39.9716ZM59.9248 47.5368C59.804 47.0867 59.5928 46.6441 59.2909 46.2088C59.2443 46.141 59.195 46.0737 59.1433 46.0064C58.956 45.7599 58.7381 45.515 58.4919 45.2735L58.4761 45.258C58.1365 44.925 57.8 44.6509 57.4676 44.4357C57.3756 44.3765 57.2836 44.322 57.1922 44.2712C56.8916 44.1063 56.5945 43.9899 56.2995 43.9227C56.2866 43.9195 56.2736 43.9163 56.2603 43.9136C55.8088 43.8174 55.378 43.7959 54.9673 43.85C54.7229 43.8816 54.486 43.9402 54.2565 44.0253C53.9225 44.1486 53.5678 44.3103 53.1943 44.5107C52.8776 44.6799 52.5461 44.8761 52.2 45.1006C52.1683 45.1217 52.1384 45.1416 52.1095 45.1598C52.0808 45.179 52.0508 45.1984 52.0191 45.2195C51.988 45.241 51.9588 45.2598 51.9327 45.2751C51.9064 45.2915 51.8798 45.3069 51.8534 45.3228C51.2201 45.7322 50.7029 46.0369 50.3019 46.2372C49.9184 46.4276 49.5254 46.5177 49.1239 46.5048C49.1058 46.5049 49.0871 46.5037 49.0689 46.5029C48.6476 46.4809 48.2408 46.2774 47.8483 45.8929L47.8406 45.8849C47.7373 45.7833 47.6443 45.6813 47.5619 45.5772C47.1916 45.1123 47.0301 44.6258 47.0778 44.1148C47.1368 43.4906 47.5087 42.8322 48.1928 42.1397C48.5537 41.7747 48.9837 41.4686 49.4845 41.2205C49.9853 40.9724 50.5642 40.7852 51.2211 40.6589L51.071 39.8084L50.8102 38.3355C50.232 38.4559 49.687 38.6163 49.1758 38.8172C48.6646 39.018 48.1905 39.262 47.7564 39.5486C47.5557 39.6807 47.3624 39.8219 47.1765 39.9715C46.9598 40.1469 46.7525 40.3343 46.5556 40.5338C46.1794 40.9135 45.8581 41.2913 45.5917 41.6662C45.2693 42.119 45.0271 42.5688 44.8638 43.0132C44.7362 43.3633 44.6573 43.7117 44.6291 44.0572C44.5903 44.5125 44.6374 44.9644 44.7705 45.4113C44.8352 45.6275 44.9201 45.8423 45.0252 46.0566C45.3028 46.6218 45.7224 47.1791 46.2826 47.7287L46.2907 47.7366C46.5136 47.9551 46.7348 48.1473 46.954 48.3135C47.516 48.7398 48.0646 48.9926 48.6014 49.0726C48.6055 49.0737 48.6102 49.0738 48.6142 49.0749C49.3541 49.1836 50.0216 49.1003 50.6157 48.8232C51.2142 48.5462 51.9318 48.1156 52.7695 47.5312C52.8011 47.5101 52.8327 47.4889 52.8639 47.4679C52.8956 47.4468 52.9267 47.4257 52.9582 47.4037C52.9794 47.393 52.9962 47.3813 53.0089 47.3681C53.0216 47.3548 53.0397 47.3424 53.0605 47.3318C53.1871 47.2454 53.3099 47.1635 53.4286 47.0876C53.7964 46.8523 54.1273 46.6676 54.4204 46.5345C54.5845 46.46 54.7492 46.4042 54.9152 46.3675C55.141 46.3177 55.369 46.3024 55.5986 46.3233C55.8262 46.3436 56.051 46.4193 56.2718 46.5492C56.436 46.6458 56.5994 46.7734 56.7597 46.9303L56.7678 46.9378C56.92 47.0868 57.05 47.2387 57.1569 47.392C57.471 47.8387 57.5997 48.3049 57.542 48.7908C57.5177 48.9988 57.4601 49.2113 57.3691 49.4281C57.2358 49.7457 57.0312 50.0725 56.7557 50.409C56.726 50.4454 56.6949 50.482 56.6634 50.5188C56.5611 50.6384 56.4493 50.7584 56.3294 50.8805C55.8896 51.3252 55.3998 51.6691 54.8603 51.9113C54.7396 51.9663 54.6164 52.0157 54.4906 52.0593C53.8029 52.3012 53.0403 52.3912 52.203 52.3307L52.4541 54.4418L52.4884 54.7338C52.7799 54.7401 53.0656 54.7309 53.348 54.7063C53.7398 54.6728 54.1226 54.6093 54.4963 54.5158C55.1388 54.3558 55.7519 54.1059 56.334 53.7648C56.4259 53.711 56.5174 53.6549 56.6074 53.5957C56.8349 53.4495 57.0559 53.2894 57.2713 53.1147C57.5107 52.9213 57.7428 52.7118 57.9669 52.4849C58.3138 52.134 58.6176 51.7864 58.8779 51.4424C58.9144 51.3944 58.9499 51.346 58.9845 51.2978C59.3175 50.8384 59.5723 50.3847 59.7481 49.9384C60.0736 49.1128 60.1324 48.3117 59.9241 47.5356L59.9248 47.5368Z" fill="#AFDB71"/>
<g style="mix-blend-mode:multiply">
<path d="M75.9037 18.4069L75.3609 18.7647C75.3555 18.7685 75.3495 18.772 75.344 18.7759C75.336 18.7812 75.3281 18.787 75.3201 18.7923L72.3162 20.7736L51.8535 34.2703L50.7279 35.0128L45.9931 38.1355L39.7696 42.2408L34.0678 46.0022L31.9961 47.3685L30.6184 48.2775L29.5389 48.9899L24.8303 52.0954L24.8299 52.0955L24.8275 52.0979L24.3172 52.4343C24.3142 52.4358 24.3113 52.4378 24.3083 52.4398C24.302 52.4443 24.2948 52.4485 24.288 52.4531L24.2347 52.4878L23.9607 52.6688L17.7379 53.8471L19.046 52.9845L19.0464 52.9844L23.3134 50.1687L24.9998 49.0561L25.0532 49.0219C25.0594 49.0169 25.0662 49.0128 25.0735 49.0086C25.0759 49.0062 25.0786 49.0052 25.0811 49.0033L31.3849 44.846L32.7622 43.9371L33.1376 43.6891L33.1385 43.6889L34.8335 42.5709L41.8199 37.9635L41.8204 37.9634L46.7598 34.7045L46.8861 34.6214L46.8866 34.6213L51.4941 31.5818L70.5317 19.0248L70.5322 19.0248L74.1201 16.658L75.9048 18.4076L75.9037 18.4069Z" fill="#E6E6E6"/>
</g>
<path d="M79.4241 21.1152L24.8657 57.0947L42.094 83.0443L96.6525 47.0648L79.4241 21.1152Z" fill="#AFDB71"/>
<path d="M31.5936 52.6549L28.3849 54.7715L31.5942 52.6557L32.0811 52.3337L31.5936 52.6549ZM27.4093 55.4152L28.0754 54.9759L28.3849 54.7715L28.074 54.9761L27.4088 55.4152L27.4093 55.4152ZM99.0008 42.9908L85.5428 22.7224L84.1105 20.5654C84.1053 20.5579 84.1004 20.5498 84.0947 20.5424C84.0855 20.5285 84.0766 20.5141 84.0669 20.5008C84.0582 20.4874 84.0489 20.4735 84.0391 20.4593L80.6129 15.2998L75.9036 18.4064L75.3608 18.7641C75.3554 18.768 75.3494 18.7715 75.344 18.7754C75.3359 18.7807 75.328 18.7864 75.32 18.7917L72.3161 20.7731L51.8534 34.2698L50.7278 35.0122L45.993 38.135L39.7696 42.2402L34.0677 46.0017L31.996 47.368L30.6183 48.2769L29.5388 48.9894L24.8303 52.0949L24.8298 52.095L24.8274 52.0973L24.3172 52.4338C24.3141 52.4353 24.3112 52.4373 24.3082 52.4393C24.3019 52.4438 24.2947 52.448 24.2879 52.4526L24.2346 52.4873L23.9606 52.6683L23.3021 53.1028L19.0388 55.9149L19.849 57.1348L22.5024 61.1316C22.5078 61.1401 22.5143 61.1493 22.5197 61.1577C22.5428 61.1916 22.5654 61.2257 22.5883 61.2592L23.781 63.0562L24.5253 64.1769L26.7977 67.5992L26.7979 67.6001L26.9087 67.766L33.9618 78.3875L37.2933 83.4036L37.4057 83.573C37.4057 83.573 37.4059 83.5732 37.4063 83.5738L37.4269 83.6049L37.4648 83.662C37.4744 83.6773 37.4847 83.6914 37.4946 83.7066L37.9926 84.4571L39.5566 86.8125L40.9078 88.8477L46.1688 85.3774C46.1712 85.3751 46.1742 85.3735 46.1768 85.3721C46.1819 85.3688 46.1866 85.366 46.1916 85.3627L66.5048 71.9643L68.4168 70.703L71.2509 68.8337L73.1811 67.5605L73.5257 67.333L74.3539 66.7863L77.7354 64.5561L86.9915 58.4508L87.742 57.9558L90.5458 56.107L92.8873 54.5623L96.8077 51.9765L97.2144 51.7079L102.483 48.2328L99.0021 42.9905L99.0008 42.9908ZM64.5797 68.2109L48.8247 78.6027L47.4764 79.4914L47.4759 79.4915L47.4756 79.492L47.4746 79.4922L45.9846 80.4754L42.0971 83.0394L40.4788 80.6026L37.6528 76.3466L35.7328 73.4559L32.5159 68.6111L29.388 63.9004L29.3119 63.7847L27.1214 60.4865L24.8671 57.0919L26.2043 56.21L26.5591 55.9763L27.4098 55.4151L28.0758 54.9758L28.3854 54.7715L31.5947 52.6557L32.0815 52.3336L34.6398 50.6462L34.6402 50.6461L36.1797 49.6303L38.2514 48.264L39.7504 47.2753L40.2166 46.9675L40.2171 46.9675L44.6286 44.0573L45.1351 43.7234L49.8698 40.6007L51.0706 39.8085L56.8987 35.964L62.4757 32.2858L68.2654 28.4666L72.6948 25.5455L72.6952 25.545L75.3781 23.7758L78.966 21.409L79.4218 21.1084L80.8442 23.2507L83.8657 27.8013L83.8662 27.8017L84.1068 28.1639L85.5253 30.3004L89.3029 35.9889L89.7722 36.6957L92.1784 40.3202L92.207 40.3631L95.5633 45.4171L96.6518 47.0559L95.96 47.5123L92.0396 50.0982L89.9244 51.4931L89.698 51.6424L78.4348 59.0715L69.3389 65.0717L67.2676 66.4379L64.5789 68.2115L64.5797 68.2109ZM31.5936 52.6549L28.3849 54.7715L31.5942 52.6557L32.0811 52.3337L31.5936 52.6549ZM27.4093 55.4152L28.0754 54.9759L28.3849 54.7715L28.074 54.9761L27.4088 55.4152L27.4093 55.4152Z" fill="#7AAA35"/>
<path d="M84.4787 26.813C84.3069 27.1582 84.103 27.4887 83.8666 27.8012L83.8662 27.8013C83.7856 27.9078 83.7016 28.0113 83.6148 28.1124C83.2428 28.5438 82.8059 28.9312 82.3066 29.2603C82.0312 29.4421 81.7465 29.5996 81.4553 29.7328C80.4815 30.1802 79.4344 30.361 78.4103 30.2947C76.5099 30.172 74.6875 29.1968 73.5563 27.4932C73.1484 26.8798 72.8635 26.2208 72.6947 25.5451C72.3546 24.1832 72.4878 22.7535 73.0465 21.4887C73.5146 20.4279 74.2821 19.4831 75.3199 18.7913C75.3279 18.786 75.3359 18.7802 75.3439 18.7749C75.3493 18.7711 75.3553 18.7676 75.3607 18.7637C75.5467 18.6419 75.7366 18.5307 75.9302 18.4312C78.7462 16.976 82.2618 17.8279 84.0667 20.5C84.0759 20.5134 84.0847 20.5273 84.0946 20.5415C85.3808 22.4792 85.4483 24.8682 84.479 26.8125L84.4787 26.813Z" fill="#7AAA35"/>
<path d="M98.947 50.0042C100.914 47.1322 100.173 43.2199 97.2924 41.2658C94.412 39.3117 90.4827 40.0557 88.5161 42.9276C86.5494 45.7995 87.2902 49.7118 90.1707 51.666C93.0511 53.6201 96.9804 52.8761 98.947 50.0042Z" fill="#7AAA35"/>
<path d="M31.2684 62.9238C30.6518 63.331 29.9898 63.6158 29.311 63.785C26.8247 64.4043 24.1155 63.4678 22.5863 61.2587C22.5634 61.2252 22.5408 61.1911 22.5177 61.1572C20.6672 58.3698 21.3396 54.6496 23.9889 52.6625C24.0855 52.5903 24.1843 52.52 24.286 52.4525C24.2923 52.448 24.2996 52.4438 24.3063 52.4392C24.3092 52.4368 24.3122 52.4353 24.3152 52.4337C25.9027 51.3904 27.7889 51.152 29.4865 51.6215C30.24 51.8294 30.9563 52.1772 31.5931 52.6551L31.5936 52.655C32.1518 53.0739 32.6487 53.5929 33.0562 54.2069C34.979 57.1022 34.1782 61.0052 31.2685 62.9242L31.2684 62.9238Z" fill="#7AAA35"/>
<path d="M47.9093 83.6675C49.8759 80.7956 49.1351 76.8833 46.2546 74.9291C43.3742 72.975 39.4449 73.719 37.4783 76.5909C35.5117 79.4629 36.2525 83.3752 39.1329 85.3293C42.0134 87.2834 45.9427 86.5394 47.9093 83.6675Z" fill="#7AAA35"/>
<path d="M68.211 63.3045C73.5451 59.7869 74.5327 51.9099 70.417 45.7107C66.3013 39.5116 58.6407 37.3378 53.3067 40.8554C47.9727 44.373 46.9851 52.25 51.1008 58.4491C55.2165 64.6483 62.877 66.8221 68.211 63.3045Z" fill="#7AAA35"/>
<path d="M81.2242 43.038C82.4819 41.2013 82.0081 38.6992 80.166 37.4494C78.3238 36.1997 75.8109 36.6755 74.5531 38.5122C73.2954 40.3489 73.7692 42.851 75.6113 44.1008C77.4535 45.3505 79.9664 44.8747 81.2242 43.038Z" fill="#7AAA35"/>
<path d="M46.9655 65.6354C48.2232 63.7987 47.7495 61.2966 45.9073 60.0468C44.0652 58.7971 41.5522 59.2729 40.2945 61.1096C39.0367 62.9463 39.5105 65.4484 41.3527 66.6982C43.1948 67.9479 45.7078 67.4721 46.9655 65.6354Z" fill="#7AAA35"/>
<path d="M67.8209 52.9375C67.6835 52.6357 67.5116 52.33 67.3056 52.0199L67.293 52.001C66.7071 51.1176 66.0774 50.5267 65.4061 50.2286C65.1409 50.1104 64.8774 50.0235 64.6163 49.967C64.2151 49.8803 63.8171 49.8662 63.4229 49.9243C62.772 50.0201 62.0273 50.2297 61.1875 50.5519C61.1527 50.5666 61.1186 50.5796 61.0872 50.5917C61.0548 50.604 61.0212 50.617 60.9864 50.6316C60.9512 50.6463 60.9192 50.6581 60.8902 50.6678C60.8613 50.6785 60.8318 50.6883 60.8033 50.6985C60.0985 50.9682 59.529 51.1597 59.0953 51.2731C59.0582 51.2829 59.0214 51.2918 58.9843 51.2993C58.9123 51.3153 58.8405 51.3275 58.7686 51.3368C58.4748 51.3759 58.1868 51.3633 57.9054 51.2969C57.8815 51.2915 57.858 51.285 57.834 51.2787C57.4451 51.1745 57.1038 50.9127 56.8098 50.492C56.796 50.4714 56.7816 50.4505 56.7676 50.4295L56.7621 50.4206C56.7596 50.4173 56.7574 50.4134 56.7554 50.41C56.577 50.1406 56.4518 49.8757 56.3785 49.6166C56.2723 49.2441 56.2745 48.8818 56.3843 48.5308C56.5067 48.1382 56.7642 47.7592 57.1562 47.3931C57.3617 47.2014 57.6049 47.013 57.885 46.8284C58.3002 46.5544 58.7689 46.3474 59.2904 46.2089C59.3066 46.204 59.3225 46.2 59.3393 46.1959C59.881 46.0559 60.4853 45.9931 61.1545 46.004L61.1679 45.6231L61.2357 43.6451C60.6458 43.6438 60.0795 43.689 59.537 43.7799C58.9951 43.8712 58.4811 44.0125 57.9964 44.2027C57.8164 44.2732 57.6401 44.3506 57.467 44.4354C57.4252 44.4556 57.383 44.4759 57.3419 44.4974C57.0933 44.6244 56.8519 44.7647 56.6179 44.9192C56.171 45.2134 55.7785 45.5167 55.4399 45.8287C55.2478 46.0061 55.0727 46.1854 54.9149 46.3685C54.7691 46.5371 54.6381 46.7081 54.5231 46.8812C54.4971 46.9198 54.4726 46.9585 54.448 46.9967C53.9888 47.7303 53.7918 48.5066 53.8578 49.3243C53.9235 50.143 54.256 51.0034 54.8542 51.9044L54.8605 51.9122L54.8608 51.9141C55.4081 52.7371 55.9901 53.2987 56.6077 53.5971C56.6857 53.6353 56.7637 53.6683 56.8429 53.6978C57.2815 53.8612 57.7075 53.9456 58.1222 53.9499C58.3745 53.9527 58.6222 53.9262 58.8652 53.8693C58.9807 53.8422 59.1014 53.8118 59.2263 53.7768C59.7975 53.619 60.468 53.3761 61.2394 53.0493C61.2748 53.0355 61.3096 53.0209 61.3449 53.0066C61.3797 52.992 61.4146 52.9783 61.4498 52.9636C61.4729 52.9573 61.4923 52.9494 61.5074 52.939C61.5231 52.9289 61.5424 52.9205 61.5649 52.9139C62.146 52.6733 62.6446 52.506 63.0609 52.414C63.4033 52.3378 63.7335 52.333 64.0519 52.3985C64.1206 52.4125 64.189 52.4298 64.2571 52.4509C64.6385 52.568 64.9747 52.8458 65.2658 53.2841L65.2724 53.2938C65.6879 53.9199 65.829 54.5172 65.6961 55.0873L65.6957 55.0874C65.6824 55.1481 65.6652 55.2076 65.6446 55.2669C65.4334 55.8902 64.8937 56.4877 64.0246 57.0619C63.8177 57.1985 63.6061 57.3181 63.3902 57.42L63.3898 57.4201C62.9389 57.6336 62.4696 57.7722 61.9809 57.8358C61.2837 57.9276 60.5471 57.8665 59.7717 57.6529C59.7437 57.6459 59.7161 57.6379 59.688 57.63L59.6813 57.7074L59.4942 59.7481L59.4673 60.0403C59.7503 60.1069 60.0325 60.1571 60.3131 60.191C60.4157 60.2037 60.5184 60.2141 60.6211 60.2221L60.6216 60.222C60.9078 60.2454 61.1927 60.252 61.4762 60.2414C62.1382 60.2172 62.7895 60.0991 63.429 59.8858C63.7852 59.7668 64.1364 59.6194 64.4812 59.4429C64.7552 59.304 65.026 59.1463 65.292 58.9701C65.7043 58.6985 66.074 58.4204 66.4001 58.1377C66.8834 57.7193 67.2716 57.2877 67.5646 56.8453C68.0544 56.1049 68.2783 55.333 68.2361 54.5302C68.2095 54.0135 68.0708 53.482 67.8208 52.937L67.8209 52.9375ZM57.3418 44.4969L57.1916 44.2704L56.8864 43.8106L56.3195 42.9567L54.9671 43.8491L54.3822 44.2351L54.4115 44.2793L55.4398 45.8283L55.7846 46.3472L57.7224 45.0691L57.3422 44.4964L57.3418 44.4969ZM67.2758 59.4578L66.3997 58.1383L65.9605 57.4773L64.0231 58.7553L64.4809 59.4439L65.506 60.9883L66.2442 60.5013L67.4425 59.711L67.2749 59.4584L67.2758 59.4578Z" fill="#AFDB71"/>
<g style="mix-blend-mode:multiply">
<path d="M90.5217 42.0792L100.874 96.7499C101.342 99.2224 99.7083 101.608 97.2251 102.078L25.6432 115.632C23.16 116.103 20.7678 114.479 20.2996 112.007L9.94764 57.336C9.83825 56.7583 9.84332 56.1854 9.94769 55.6401C10.4187 55.3446 10.9521 55.1306 11.5323 55.0207L17.0748 53.9712L20.2634 50.7448L85.1776 38.4532C85.8289 38.3299 86.4747 38.3505 87.0804 38.4931C87.318 38.5489 87.5503 38.6237 87.7738 38.7152C87.7744 38.7156 87.7748 38.7155 87.7748 38.7155C88.5402 39.0313 89.2114 39.55 89.707 40.2178C89.8426 40.3997 89.9652 40.5932 90.0727 40.7966C90.1438 40.9312 90.2085 41.0699 90.2664 41.2126C90.3782 41.4871 90.4644 41.7764 90.5216 42.0787L90.5217 42.0792Z" fill="#E6E6E6"/>
</g>
<path d="M88.4583 45.0926L98.3308 97.2315C98.799 99.704 97.1654 102.09 94.6822 102.56L23.1003 116.114C20.6171 116.584 18.2249 114.961 17.7568 112.488L7.88418 60.3494C7.52532 58.4542 8.40104 56.6104 9.94769 55.6401C10.4187 55.3447 10.9521 55.1306 11.5323 55.0208L83.1137 41.4667C83.4664 41.4 83.8166 41.3753 84.1606 41.3901C84.4522 41.402 84.7385 41.4415 85.0169 41.5066C86.2909 41.806 87.3916 42.6436 88.0097 43.8099C88.218 44.2024 88.3712 44.6327 88.4582 45.0922L88.4583 45.0926Z" fill="#B96A3B"/>
<path d="M92.0035 99.9802L90.6742 100.232C90.4178 100.28 90.1709 100.113 90.1226 99.8576C90.0742 99.6023 90.2428 99.3561 90.4992 99.3075L91.828 99.0559C91.967 99.0296 92.1048 98.9922 92.2365 98.945C92.4818 98.8579 92.7523 98.9845 92.84 99.229C92.9276 99.4736 92.7995 99.7429 92.5538 99.8306C92.3758 99.8941 92.1905 99.9443 92.0029 99.9798L92.0035 99.9802Z" fill="#CCCCCC"/>
<path d="M87.5892 100.816L85.7711 101.16C85.5147 101.209 85.2677 101.041 85.2194 100.786C85.1711 100.531 85.3397 100.285 85.5961 100.236L87.4142 99.8918C87.6706 99.8433 87.9176 100.011 87.9659 100.266C88.0142 100.521 87.8456 100.768 87.5892 100.816Z" fill="#CCCCCC"/>
<path d="M82.6861 101.744L80.8679 102.089C80.6115 102.137 80.3646 101.97 80.3162 101.714C80.2679 101.459 80.4365 101.213 80.6929 101.164L82.511 100.82C82.7674 100.771 83.0144 100.939 83.0627 101.194C83.1111 101.45 82.9425 101.696 82.6861 101.744Z" fill="#CCCCCC"/>
<path d="M77.7833 102.673L75.9656 103.017C75.7092 103.065 75.4623 102.898 75.4139 102.643C75.3656 102.387 75.5342 102.141 75.7906 102.093L77.6083 101.748C77.8647 101.7 78.1117 101.867 78.16 102.123C78.2083 102.378 78.0397 102.624 77.7833 102.673Z" fill="#CCCCCC"/>
<path d="M72.8802 103.601L71.062 103.946C70.8056 103.994 70.5586 103.827 70.5103 103.571C70.462 103.316 70.6306 103.07 70.887 103.021L72.7051 102.677C72.9615 102.628 73.2085 102.796 73.2568 103.051C73.3052 103.307 73.1366 103.553 72.8802 103.601Z" fill="#CCCCCC"/>
<path d="M67.9774 104.53L66.1593 104.874C65.9029 104.922 65.6559 104.755 65.6076 104.5C65.5592 104.244 65.7279 103.998 65.9842 103.949L67.8024 103.605C68.0588 103.557 68.3058 103.724 68.3541 103.979C68.4024 104.235 68.2338 104.481 67.9774 104.53Z" fill="#CCCCCC"/>
<path d="M63.0743 105.458L61.2561 105.802C60.9997 105.851 60.7527 105.683 60.7044 105.428C60.6561 105.173 60.8247 104.926 61.0811 104.878L62.8992 104.534C63.1556 104.485 63.4026 104.653 63.4509 104.908C63.4993 105.163 63.3307 105.409 63.0743 105.458Z" fill="#CCCCCC"/>
<path d="M58.1711 106.386L56.3529 106.731C56.0965 106.779 55.8496 106.612 55.8012 106.356C55.7529 106.101 55.9215 105.855 56.1779 105.806L57.996 105.462C58.2524 105.414 58.4994 105.581 58.5477 105.836C58.5961 106.092 58.4275 106.338 58.1711 106.386Z" fill="#CCCCCC"/>
<path d="M53.2684 107.315L51.4502 107.659C51.1938 107.707 50.9468 107.54 50.8985 107.285C50.8502 107.029 51.0188 106.783 51.2752 106.735L53.0933 106.39C53.3497 106.342 53.5967 106.509 53.645 106.765C53.6934 107.02 53.5248 107.266 53.2684 107.315Z" fill="#CCCCCC"/>
<path d="M48.3652 108.243L46.547 108.587C46.2906 108.636 46.0437 108.468 45.9953 108.213C45.947 107.958 46.1156 107.712 46.372 107.663L48.1901 107.319C48.4465 107.27 48.6935 107.438 48.7418 107.693C48.7902 107.948 48.6216 108.195 48.3652 108.243Z" fill="#CCCCCC"/>
<path d="M43.4625 109.172L41.6443 109.516C41.3879 109.564 41.1409 109.397 41.0926 109.142C41.0443 108.886 41.2129 108.64 41.4693 108.592L43.2874 108.247C43.5438 108.199 43.7908 108.366 43.8391 108.622C43.8875 108.877 43.7189 109.123 43.4625 109.172Z" fill="#CCCCCC"/>
<path d="M38.5593 110.1L36.7411 110.444C36.4847 110.493 36.2378 110.325 36.1894 110.07C36.1411 109.815 36.3097 109.568 36.5661 109.52L38.3842 109.176C38.6406 109.127 38.8876 109.294 38.9359 109.55C38.9843 109.805 38.8157 110.051 38.5593 110.1Z" fill="#CCCCCC"/>
<path d="M33.6561 111.028L31.8379 111.373C31.5815 111.421 31.3346 111.254 31.2862 110.998C31.2379 110.743 31.4065 110.497 31.6629 110.448L33.4811 110.104C33.7375 110.055 33.9844 110.223 34.0327 110.478C34.0811 110.734 33.9125 110.98 33.6561 111.028Z" fill="#CCCCCC"/>
<path d="M28.7534 111.957L26.9352 112.301C26.6788 112.35 26.4319 112.182 26.3835 111.927C26.3352 111.671 26.5038 111.425 26.7602 111.377L28.5783 111.032C28.8347 110.984 29.0817 111.151 29.13 111.407C29.1784 111.662 29.0098 111.908 28.7534 111.957Z" fill="#CCCCCC"/>
<path d="M23.8502 112.885L22.032 113.229C21.7756 113.278 21.5287 113.11 21.4803 112.855C21.432 112.6 21.6006 112.353 21.857 112.305L23.6752 111.961C23.9316 111.912 24.1785 112.08 24.2268 112.335C24.2752 112.59 24.1066 112.836 23.8502 112.885Z" fill="#CCCCCC"/>
<path d="M94.4908 97.6123C94.4275 97.6243 94.3609 97.6236 94.2943 97.6079C94.0406 97.548 93.8839 97.2948 93.9439 97.0422C94.031 96.6766 94.0394 96.3022 93.9689 95.9296L93.8714 95.4149C93.8231 95.1596 93.9917 94.9134 94.2481 94.8648C94.5045 94.8163 94.7514 94.9838 94.7998 95.2391L94.8972 95.7538C94.9925 96.2571 94.9809 96.7631 94.8628 97.258C94.8182 97.4443 94.6683 97.5787 94.4908 97.6123Z" fill="#CCCCCC"/>
<path d="M93.8419 92.7173C93.5855 92.7658 93.3386 92.5983 93.2902 92.343L92.9475 90.5327C92.8991 90.2774 93.0677 90.0312 93.3241 89.9827C93.5805 89.9341 93.8275 90.1017 93.8758 90.3569L94.2186 92.1672C94.2669 92.4225 94.0983 92.6688 93.8419 92.7173Z" fill="#CCCCCC"/>
<path d="M92.9175 87.8355C92.6611 87.884 92.4142 87.7165 92.3658 87.4612L92.0231 85.6509C91.9747 85.3956 92.1433 85.1494 92.3997 85.1008C92.6561 85.0523 92.9031 85.2198 92.9514 85.4751L93.2942 87.2854C93.3425 87.5407 93.1739 87.7869 92.9175 87.8355Z" fill="#CCCCCC"/>
<path d="M91.9931 82.9534C91.7367 83.002 91.4898 82.8344 91.4414 82.5791L91.0987 80.7693C91.0504 80.514 91.219 80.2678 91.4754 80.2192C91.7318 80.1707 91.9788 80.3382 92.0271 80.5935L92.3698 82.4034C92.4181 82.6586 92.2495 82.9049 91.9931 82.9534Z" fill="#CCCCCC"/>
<path d="M91.0688 78.0718C90.8124 78.1203 90.5655 77.9528 90.5171 77.6975L90.1743 75.8872C90.126 75.6319 90.2946 75.3857 90.551 75.3372C90.8074 75.2886 91.0543 75.4561 91.1027 75.7114L91.4455 77.5217C91.4938 77.777 91.3252 78.0232 91.0688 78.0718Z" fill="#CCCCCC"/>
<path d="M90.1444 73.19C89.888 73.2385 89.641 73.071 89.5927 72.8157L89.2499 71.0054C89.2016 70.7501 89.3702 70.5039 89.6266 70.4553C89.883 70.4068 90.1299 70.5743 90.1783 70.8296L90.5211 72.6399C90.5694 72.8952 90.4008 73.1414 90.1444 73.19Z" fill="#CCCCCC"/>
<path d="M89.2201 68.3084C88.9637 68.3569 88.7167 68.1894 88.6684 67.9341L88.3256 66.1238C88.2773 65.8685 88.4459 65.6223 88.7023 65.5737C88.9587 65.5252 89.2056 65.6927 89.254 65.948L89.5967 67.7583C89.6451 68.0136 89.4765 68.2598 89.2201 68.3084Z" fill="#CCCCCC"/>
<path d="M88.2957 63.4265C88.0393 63.4751 87.7923 63.3075 87.744 63.0523L87.4012 61.242C87.3529 60.9867 87.5215 60.7404 87.7779 60.6919C88.0343 60.6433 88.2812 60.8109 88.3295 61.0662L88.6723 62.8765C88.7207 63.1318 88.5521 63.378 88.2957 63.4265Z" fill="#CCCCCC"/>
<path d="M87.3713 58.5444C87.1149 58.593 86.8679 58.4255 86.8196 58.1702L86.4768 56.3599C86.4285 56.1046 86.5971 55.8584 86.8535 55.8098C87.1099 55.7613 87.3568 55.9288 87.4051 56.1841L87.7479 57.9944C87.7963 58.2497 87.6277 58.4959 87.3713 58.5444Z" fill="#CCCCCC"/>
<path d="M86.4469 53.6629C86.1905 53.7114 85.9436 53.5439 85.8952 53.2886L85.5525 51.4783C85.5041 51.223 85.6727 50.9768 85.9291 50.9282C86.1855 50.8797 86.4325 51.0472 86.4808 51.3025L86.8236 53.1128C86.8719 53.3681 86.7033 53.6143 86.4469 53.6629Z" fill="#CCCCCC"/>
<path d="M85.5225 48.7811C85.2661 48.8296 85.0192 48.6621 84.9708 48.4068L84.8747 47.899C84.8038 47.5245 84.6578 47.1775 84.4414 46.8679C84.2923 46.6549 84.3451 46.362 84.5593 46.2131C84.7734 46.0642 85.0674 46.1164 85.2165 46.3294C85.5097 46.7489 85.7073 47.2176 85.8031 47.7236L85.8993 48.2315C85.9476 48.4867 85.779 48.733 85.5226 48.7815L85.5225 48.7811Z" fill="#CCCCCC"/>
<path d="M82.2267 45.7175C82.2029 45.722 82.1787 45.7247 82.1537 45.7256C82.0153 45.7301 81.8757 45.7456 81.7386 45.7716L80.4034 46.0244C80.147 46.073 79.9 45.9054 79.8517 45.6502C79.8033 45.3949 79.972 45.1486 80.2283 45.1001L81.5635 44.8473C81.7484 44.8123 81.9364 44.7913 82.1234 44.7853C82.384 44.7766 82.6021 44.9799 82.6104 45.2394C82.6177 45.4741 82.4514 45.6745 82.2266 45.717L82.2267 45.7175Z" fill="#CCCCCC"/>
<path d="M77.3184 46.6086L75.5002 46.9529C75.2438 47.0014 74.9968 46.8339 74.9485 46.5786C74.9002 46.3233 75.0688 46.0771 75.3252 46.0286L77.1433 45.6843C77.3997 45.6357 77.6467 45.8033 77.695 46.0586C77.7434 46.3139 77.5748 46.5601 77.3184 46.6086Z" fill="#CCCCCC"/>
<path d="M72.4152 47.5371L70.597 47.8814C70.3406 47.9299 70.0937 47.7624 70.0453 47.5071C69.997 47.2518 70.1656 47.0056 70.422 46.957L72.2402 46.6128C72.4965 46.5642 72.7435 46.7317 72.7918 46.987C72.8402 47.2423 72.6716 47.4885 72.4152 47.5371Z" fill="#CCCCCC"/>
<path d="M67.5124 48.4653L65.6943 48.8096C65.4379 48.8581 65.1909 48.6906 65.1426 48.4353C65.0943 48.18 65.2629 47.9338 65.5193 47.8853L67.3374 47.541C67.5938 47.4924 67.8408 47.66 67.8891 47.9153C67.9375 48.1705 67.7688 48.4168 67.5124 48.4653Z" fill="#CCCCCC"/>
<path d="M62.6093 49.3939L60.7916 49.7381C60.5352 49.7866 60.2882 49.6191 60.2399 49.3638C60.1915 49.1085 60.3601 48.8623 60.6165 48.8137L62.4342 48.4695C62.6906 48.421 62.9376 48.5885 62.9859 48.8438C63.0343 49.0991 62.8657 49.3453 62.6093 49.3939Z" fill="#CCCCCC"/>
<path d="M57.7065 50.3222L55.8884 50.6665C55.632 50.7151 55.385 50.5475 55.3367 50.2922C55.2884 50.037 55.457 49.7907 55.7134 49.7422L57.5315 49.3979C57.7879 49.3494 58.0349 49.5169 58.0832 49.7722C58.1315 50.0275 57.9629 50.2737 57.7065 50.3222Z" fill="#CCCCCC"/>
<path d="M52.8034 51.2505L50.9852 51.5947C50.7288 51.6433 50.4819 51.4758 50.4335 51.2205C50.3852 50.9652 50.5538 50.719 50.8102 50.6704L52.6283 50.3261C52.8847 50.2776 53.1317 50.4451 53.18 50.7004C53.2284 50.9557 53.0598 51.2019 52.8034 51.2505Z" fill="#CCCCCC"/>
<path d="M47.9002 52.1789L46.082 52.5232C45.8256 52.5718 45.5787 52.4042 45.5303 52.1489C45.482 51.8936 45.6506 51.6474 45.907 51.5989L47.7252 51.2546C47.9816 51.2061 48.2285 51.3736 48.2768 51.6289C48.3252 51.8842 48.1566 52.1304 47.9002 52.1789Z" fill="#CCCCCC"/>
<path d="M42.9975 53.1074L41.1793 53.4517C40.9229 53.5002 40.676 53.3327 40.6276 53.0774C40.5793 52.8221 40.7479 52.5759 41.0043 52.5273L42.8224 52.1831C43.0788 52.1345 43.3258 52.3021 43.3741 52.5573C43.4225 52.8126 43.2539 53.0589 42.9975 53.1074Z" fill="#CCCCCC"/>
<path d="M38.0943 54.0359L36.2761 54.3801C36.0197 54.4287 35.7728 54.2612 35.7244 54.0059C35.6761 53.7506 35.8447 53.5044 36.1011 53.4558L37.9193 53.1115C38.1757 53.063 38.4226 53.2305 38.4709 53.4858C38.5193 53.7411 38.3507 53.9873 38.0943 54.0359Z" fill="#CCCCCC"/>
<path d="M33.1916 54.9641L31.3734 55.3084C31.117 55.3569 30.8701 55.1894 30.8217 54.9341C30.7734 54.6788 30.942 54.4326 31.1984 54.384L33.0165 54.0398C33.2729 53.9912 33.5199 54.1587 33.5682 54.414C33.6166 54.6693 33.448 54.9155 33.1916 54.9641Z" fill="#CCCCCC"/>
<path d="M28.2884 55.8926L26.4702 56.2368C26.2138 56.2854 25.9669 56.1178 25.9185 55.8626C25.8702 55.6073 26.0388 55.361 26.2952 55.3125L28.1134 54.9682C28.3698 54.9197 28.6167 55.0872 28.665 55.3425C28.7134 55.5978 28.5448 55.844 28.2884 55.8926Z" fill="#CCCCCC"/>
<path d="M23.3852 56.821L21.567 57.1653C21.3106 57.2138 21.0637 57.0463 21.0153 56.791C20.967 56.5357 21.1356 56.2895 21.392 56.241L23.2102 55.8967C23.4666 55.8481 23.7135 56.0157 23.7619 56.271C23.8102 56.5263 23.6416 56.7725 23.3852 56.821Z" fill="#CCCCCC"/>
<path d="M18.4825 57.7492L16.6643 58.0935C16.4079 58.1421 16.161 57.9745 16.1126 57.7192C16.0643 57.464 16.2329 57.2177 16.4893 57.1692L18.3075 56.8249C18.5639 56.7764 18.8108 56.9439 18.8591 57.1992C18.9075 57.4545 18.7389 57.7007 18.4825 57.7492Z" fill="#CCCCCC"/>
<path d="M13.5793 58.6777L11.7611 59.022C11.5047 59.0705 11.2578 58.903 11.2094 58.6477C11.1611 58.3924 11.3297 58.1462 11.5861 58.0977L13.4043 57.7534C13.6607 57.7048 13.9076 57.8724 13.956 58.1277C14.0043 58.3829 13.8357 58.6292 13.5793 58.6777Z" fill="#CCCCCC"/>
<g style="mix-blend-mode:multiply">
<path d="M68.6475 68.4185L95.8352 63.2705C97.3359 62.9863 98.7838 63.9686 99.0668 65.4629L101.541 78.5287C101.824 80.0229 100.835 81.4666 99.3344 81.7507L74.1149 86.5261C71.528 87.0159 69.0318 85.3224 68.5441 82.7467L66.4411 71.6406C66.1582 70.1463 67.1467 68.7027 68.6475 68.4185Z" fill="#E6E6E6"/>
</g>
<path d="M97.5205 60.8093L70.3328 65.9573C68.8312 66.2417 67.8433 67.6842 68.1264 69.1794L70.6005 82.2452C70.8836 83.7403 72.3304 84.7219 73.8321 84.4376L101.02 79.2896C102.521 79.0052 103.509 77.5626 103.226 76.0675L100.752 63.0017C100.469 61.5065 99.0221 60.525 97.5205 60.8093Z" fill="#925833"/>
<path d="M83.7751 77.044C85.5397 74.4672 84.875 70.9568 82.2905 69.2034C79.706 67.45 76.1803 68.1176 74.4158 70.6945C72.6512 73.2714 73.3159 76.7817 75.9004 78.5351C78.4849 80.2885 82.0105 79.6209 83.7751 77.044Z" fill="#CCCCCC"/>
<g style="mix-blend-mode:screen">
<path d="M85.5423 22.7224C85.6231 24.4636 85.6451 26.1984 85.6105 27.9227C85.6064 28.1368 85.6013 28.3511 85.5949 28.5652C85.5787 29.1449 85.5556 29.7231 85.5257 30.3002C85.4719 31.371 85.3955 32.438 85.2978 33.5001C85.2378 34.1567 85.1688 34.8112 85.0918 35.4635C84.9703 36.4979 84.8283 37.5268 84.6654 38.551C84.5586 39.2288 84.4423 39.9046 84.317 40.5778C84.2745 40.8073 84.2312 41.0354 84.1861 41.2639C84.1784 41.3061 84.1697 41.3479 84.1615 41.3902C84.08 41.8049 83.9953 42.2183 83.9067 42.631C82.6895 48.3296 80.8456 53.8398 78.4356 59.0707C78.4362 59.0711 78.4357 59.0712 78.4358 59.0716C77.5062 61.0902 76.4919 63.0676 75.3971 64.9988C75.057 65.5991 74.7094 66.1948 74.353 66.7864C74.228 66.9946 74.1012 67.2031 73.9736 67.4098C72.4842 69.8343 70.8641 72.1781 69.1212 74.4302C68.5543 75.1624 67.9734 75.886 67.381 76.5989C56.414 89.7901 41.0956 99.5221 23.0775 103.382C22.4471 103.518 21.8133 103.646 21.1762 103.766C20.3895 103.915 19.6035 104.052 18.8179 104.177C17.9624 104.313 17.107 104.435 16.2531 104.542L7.88507 60.349C7.5262 58.4538 8.40193 56.61 9.94857 55.6398C10.4195 55.3443 10.9529 55.1303 11.5332 55.0204L17.0757 53.9709L20.2643 50.7445L21.8094 49.1813L22.9689 48.0081L24.7121 46.2446L34.7467 36.0906L38.7303 32.0599L59.3733 11.1744C59.3963 11.1502 59.4199 11.1268 59.4433 11.1025C59.4505 11.0955 59.4573 11.0885 59.4641 11.0815L63.8766 6.61623L68.302 10.9554C68.3265 10.9792 68.3502 11.0017 68.3746 11.025C68.3811 11.0318 68.3879 11.0376 68.3939 11.0445L74.119 16.6571L75.9037 18.4067L80.613 15.3002L84.0391 20.4596C84.0484 20.4735 84.0582 20.4877 84.067 20.5012C84.0762 20.5146 84.085 20.5285 84.0948 20.5428C84.1 20.5503 84.1049 20.5584 84.1106 20.5658L85.5423 22.7224Z" fill="#1A1A1A"/>
</g>
</svg>
