<svg width="227" height="236" viewBox="0 0 227 236" fill="none" xmlns="http://www.w3.org/2000/svg">
<g clip-path="url(#clip0_728_6257)">
<path d="M99.3873 33.2764C99.3873 30.7586 99.9172 28.2568 100.929 25.9475L108.476 8.85233H64.4952L99.3712 43.7003V33.2764H99.3873Z" fill="#FF3D3D"/>
<path d="M108.476 120.132H0.475586L8.02242 103.052C9.03401 100.727 9.5639 98.2414 9.5639 95.7237V33.2764C9.5639 30.7586 9.03401 28.2569 8.02242 25.9636L0.475586 8.85233H64.5113L81.4997 25.8353L99.3873 43.7003V95.7237C99.3873 98.2414 99.9171 100.743 100.945 103.052L108.492 120.132H108.476Z" fill="#61B6F2"/>
<path d="M29.0572 33.2764V95.7236C29.0572 98.2414 28.5273 100.727 27.4997 103.052L19.9528 120.148H0.475586L8.02242 103.052C9.05007 100.743 9.5639 98.2414 9.5639 95.7236V33.2764C9.5639 30.7586 9.05007 28.2729 8.02242 25.9636L0.475586 8.85233H19.9528L27.4997 25.9475C28.5273 28.2568 29.0572 30.7586 29.0572 33.2764Z" fill="#B0E2FC"/>
<path d="M108.476 120.132H88.9983L81.4354 103.052C80.4238 100.743 79.8939 98.2414 79.8939 95.7236V33.2764C79.8939 30.7586 80.4077 28.2568 81.4354 25.9636L81.4836 25.8513L99.3712 43.7163V95.7397C99.3712 98.2575 99.9011 100.759 100.929 103.068L108.476 120.148V120.132Z" fill="#299AEA"/>
<path d="M108.476 0H0.475586V8.85231H108.476V0Z" fill="#1379DA"/>
<path d="M108.476 120.132H0.475586V128.984H108.476V120.132Z" fill="#1379DA"/>
<path d="M54.4917 73.4966C66.6676 73.4966 76.5381 63.6386 76.5381 51.4781C76.5381 39.3176 66.6676 29.4596 54.4917 29.4596C42.3158 29.4596 32.4453 39.3176 32.4453 51.4781C32.4453 63.6386 42.3158 73.4966 54.4917 73.4966Z" fill="#FFE600"/>
<path d="M54.4757 67.531C63.3438 67.531 70.5328 60.351 70.5328 51.4942C70.5328 42.6373 63.3438 35.4574 54.4757 35.4574C45.6076 35.4574 38.4186 42.6373 38.4186 51.4942C38.4186 60.351 45.6076 67.531 54.4757 67.531Z" fill="white"/>
<path d="M84.5184 63.5218H40.2329C38.5309 63.5218 37.1499 64.7245 37.1499 66.1999V72.6307C36.1705 72.6788 35.3837 73.3844 35.3837 74.2504C35.3837 75.1164 36.2186 75.8701 37.2463 75.8701L84.5184 75.822V63.5057V63.5218Z" fill="#E92B40"/>
<path d="M43.8618 59.8012V71.0109C43.8618 70.1129 43.0108 69.3912 41.9832 69.3912H29.0572L9.57996 69.4233V57.1231H40.7628C42.4809 57.1231 43.8618 58.3258 43.8618 59.8012Z" fill="#FF3D3D"/>
<path d="M41.9831 69.3912H35.3837V74.2504C35.3837 73.3523 36.2186 72.6307 37.2463 72.6307H41.9831C43.0108 72.6307 43.8618 71.909 43.8618 71.0109C43.8618 70.1129 43.0268 69.3912 41.9992 69.3912H41.9831Z" fill="#D40000"/>
<path d="M87.8101 64.1793C87.7298 64.1312 87.6496 64.0991 87.5693 64.051C83.2178 61.5172 79.0269 67.2904 74.0974 74.9881C69.4729 76.3352 63.6121 80.617 57.109 84.6262C46.7361 91.0409 38.4827 94.4087 41.357 100.807C41.5175 101.176 41.7102 101.545 41.9511 101.946C46.3828 109.114 62.183 117.357 73.1661 110.574C75.9118 108.874 78.1116 106.388 79.7655 103.518C83.7798 101.978 87.5693 99.348 90.2187 95.3067C97.2999 84.53 93.4783 67.8998 87.8101 64.1793Z" fill="#1379DA"/>
<path d="M86.1081 60.3465C86.0278 60.2984 85.9476 60.2663 85.8673 60.2182C90.2027 66.1358 92.258 79.8472 86.1242 89.1807C79.2678 99.6046 64.7522 100.727 58.6826 97.4236C59.0359 98.1452 59.5979 98.8027 60.465 99.3801C66.1331 103.101 81.4355 102.251 88.5167 91.4739C95.5979 80.6972 91.7763 64.051 86.1081 60.3465Z" fill="#FFE21F"/>
<path d="M86.1081 89.1967C92.242 79.8633 90.1866 66.1518 85.8512 60.2342C80.2634 56.9788 74.9485 67.4187 67.9636 78.0351C61.9743 87.16 56.7076 93.4785 58.6666 97.4556C64.7362 100.759 79.2518 99.6366 86.1081 89.2127V89.1967Z" fill="#FFC51E"/>
<path d="M79.9903 73.5608C79.5247 72.8071 78.9948 72.2458 78.4167 71.7968C81.7084 79.9114 79.2678 96.9906 69.0554 103.309C59.2285 109.371 45.58 103.421 39.6228 96.9745C39.7834 97.3434 39.9761 97.7122 40.2169 98.1131C44.6487 105.282 60.4488 113.525 71.4319 106.741C82.4149 99.9574 84.4221 80.7292 79.9743 73.5608H79.9903Z" fill="#FFEF81"/>
<path d="M69.0555 103.325C79.2678 97.0226 81.7085 79.9274 78.4168 71.8128C73.5836 68.0281 65.2018 74.7475 55.3748 80.8094C45.002 87.2242 36.7486 90.5919 39.6228 96.9906C45.58 103.437 59.2285 109.387 69.0555 103.325Z" fill="#FFE21F"/>
<path d="M70.5809 89.2287C71.6008 89.2287 72.4275 88.4031 72.4275 87.3845C72.4275 86.366 71.6008 85.5403 70.5809 85.5403C69.5611 85.5403 68.7344 86.366 68.7344 87.3845C68.7344 88.4031 69.5611 89.2287 70.5809 89.2287Z" fill="#FFC51E"/>
<path d="M52.035 92.4201C53.4273 92.4201 54.556 91.2928 54.556 89.9023C54.556 88.5118 53.4273 87.3845 52.035 87.3845C50.6427 87.3845 49.514 88.5118 49.514 89.9023C49.514 91.2928 50.6427 92.4201 52.035 92.4201Z" fill="#FFC51E"/>
<path d="M69.4408 78.8529C69.4408 79.8472 68.6379 80.6491 67.6424 80.6491C66.6469 80.6491 65.844 79.8472 65.844 78.8529C65.844 77.8587 66.6469 77.0568 67.6424 77.0568C68.6379 77.0568 69.4408 77.8587 69.4408 78.8529Z" fill="#FFC51E"/>
<path d="M56.5149 99.5885C56.5149 100.583 55.712 101.385 54.7165 101.385C53.7209 101.385 52.9181 100.583 52.9181 99.5885C52.9181 98.5943 53.7209 97.7924 54.7165 97.7924C55.712 97.7924 56.5149 98.5943 56.5149 99.5885Z" fill="#FFC51E"/>
<path d="M67.6424 95.9803C67.6424 97.7122 66.2454 99.1074 64.5113 99.1074C62.7771 99.1074 61.3801 97.7122 61.3801 95.9803C61.3801 94.2483 62.7771 92.8531 64.5113 92.8531C66.2454 92.8531 67.6424 94.2483 67.6424 95.9803Z" fill="#FFC51E"/>
</g>
<path d="M177.398 235.124C177.398 235.124 169.899 225.444 167.14 214.984C164.675 205.649 207.885 184.152 214.198 189.186C218.675 192.76 224.967 206.397 226.473 210.94C228.098 215.83 190.623 240.968 177.393 235.124H177.398Z" fill="#4CDADB"/>
<path d="M169.827 122.028C169.337 121.806 107.796 83.578 96.0524 83.6709C83.8392 83.774 83.6896 91.7735 88.3418 98.3907C92.9939 105.013 138.154 125.066 138.154 125.066C138.154 125.066 97.3006 134.236 88.2283 138.285C79.5738 142.148 80.3423 153.046 88.9297 154.124C97.5172 155.197 124.925 147.615 124.925 147.615C124.925 147.615 117.286 166.177 125.523 177.318C131.423 185.302 142.27 177.498 142.27 177.498C142.27 177.498 150.357 199.862 167.042 195.473C167.042 195.473 175.165 216.309 176.723 216.15C193.511 214.417 213.321 196.169 211.686 193.781C208.076 188.51 201.392 174.894 201.392 174.894C201.392 174.894 195.239 133.659 169.827 122.028Z" fill="#FFCCAC"/>
<path d="M155.917 170.747C154.54 173.61 153.916 176.776 154.138 179.948C154.184 180.608 155.216 180.614 155.169 179.948C154.958 176.962 155.509 173.965 156.804 171.268C157.093 170.675 156.201 170.149 155.912 170.747H155.917Z" fill="#C88961"/>
<path d="M130.65 160.447C130.65 160.447 130.655 160.472 130.66 160.472C130.67 160.462 130.66 160.457 130.65 160.447Z" fill="#515151"/>
<path d="M130.65 160.447C130.65 160.447 130.655 160.472 130.66 160.472C130.67 160.462 130.66 160.457 130.65 160.447Z" fill="#515151"/>
<path d="M118.282 160.472C118.282 160.472 118.287 160.467 118.292 160.447C118.282 160.452 118.272 160.462 118.282 160.472Z" fill="#515151"/>
<path d="M118.282 160.472C118.282 160.472 118.287 160.467 118.292 160.447C118.282 160.452 118.272 160.462 118.282 160.472Z" fill="#515151"/>
<path d="M159.744 44.6839C159.61 31.8259 152.265 29.6752 144.663 29.1543C141.455 28.9325 131.207 28.9995 124.466 29.0718C117.73 28.9995 107.482 28.9273 104.274 29.1491C96.6765 29.6752 87.9137 32.3468 87.7744 45.2048C87.7744 45.2048 88.0787 146.289 89.3526 151.926C90.6266 157.564 93.9017 160.292 102.639 160.472C106.579 160.555 112.748 160.488 118.292 160.426C118.292 160.436 118.292 160.447 118.292 160.452C118.308 160.442 118.338 160.436 118.385 160.426C120.572 160.4 122.661 160.374 124.476 160.359C126.292 160.374 128.38 160.4 130.567 160.426C130.614 160.436 130.645 160.442 130.66 160.452C130.66 160.447 130.66 160.436 130.66 160.426C136.204 160.488 142.373 160.555 146.313 160.472C155.045 160.292 158.326 157.564 159.599 151.926C160.873 146.294 159.759 44.6839 159.759 44.6839H159.744Z" fill="#515151"/>
<path d="M141.728 153.881C138.422 153.881 134.621 153.84 130.686 153.798L127.086 153.757L124.445 153.731C123.687 153.737 122.882 153.747 122.042 153.752L118.256 153.793C114.321 153.835 110.52 153.876 107.214 153.876C105.393 153.876 103.918 153.866 102.706 153.84C94.469 153.675 93.2415 151.194 92.4885 147.976C91.6117 143.844 91.1114 80.5293 90.9928 44.8128C91.0805 36.7205 95.1189 32.9812 104.501 32.352C105.444 32.2901 107.74 32.2127 113.305 32.2127C116.425 32.2127 120.169 32.2334 124.44 32.2798H124.507C128.778 32.2334 132.527 32.2127 135.642 32.2127C141.202 32.2127 143.497 32.2901 144.446 32.352C152.209 32.8729 156.433 34.936 156.536 44.3486C156.964 78.8376 157.315 143.788 156.453 147.991C155.705 151.199 154.478 153.675 146.241 153.845C145.029 153.871 143.554 153.881 141.733 153.881H141.728Z" fill="white"/>
<g clip-path="url(#clip1_728_6257)">
<path d="M97.4338 102.893C96.3689 103.048 95.5625 104.259 95.5418 105.717C95.4798 110.593 95.4281 121.74 96.1518 122.774C97.0823 124.101 151.547 124.209 151.754 123.36C152.431 120.591 152.41 104.56 151.676 103.572C150.699 102.245 107.08 101.52 97.439 102.901L97.4338 102.893Z" fill="#7EFAB5"/>
<path d="M100.159 104.566C100.1 104.602 100.449 97.6744 101.359 98.7394C102.268 99.8044 104.51 104.817 104.259 104.817C104.009 104.817 100.159 104.566 100.159 104.566Z" fill="#7EFAB5"/>
</g>
<g clip-path="url(#clip2_728_6257)">
<path d="M120.886 115.443C121.912 111.146 119.26 106.83 114.963 105.804C110.665 104.778 106.35 107.43 105.323 111.727C104.297 116.025 106.949 120.34 111.247 121.366C115.544 122.393 119.86 119.741 120.886 115.443Z" fill="#FAE366"/>
<path d="M113.104 119.205C116.124 119.205 118.572 116.714 118.572 113.642C118.572 110.569 116.124 108.079 113.104 108.079C110.084 108.079 107.637 110.569 107.637 113.642C107.637 116.714 110.084 119.205 113.104 119.205Z" fill="#FAE366"/>
<path opacity="0.5" d="M113.104 119.205C116.124 119.205 118.572 116.714 118.572 113.642C118.572 110.569 116.124 108.079 113.104 108.079C110.084 108.079 107.637 110.569 107.637 113.642C107.637 116.714 110.084 119.205 113.104 119.205Z" fill="#DCC74D"/>
<path opacity="0.2" d="M108.304 113.852C108.304 110.779 110.602 108.195 113.623 108.195C113.956 108.195 114.282 108.228 114.599 108.286C114.117 108.144 113.608 108.068 113.081 108.068C110.062 108.068 107.614 110.558 107.614 113.63C107.614 116.363 109.552 118.634 112.105 119.103C109.825 118.434 108.304 116.388 108.304 113.852Z" fill="#6C5E00"/>
<path fill-rule="evenodd" clip-rule="evenodd" d="M114.504 113.522L115.795 113.498L115.834 115.602C115.25 116.276 114.518 116.62 113.463 116.64C112.58 116.656 111.737 116.268 111.182 115.688C110.63 115.106 110.386 114.33 110.373 113.616C110.36 112.9 110.604 112.08 111.204 111.474C111.803 110.868 112.492 110.547 113.355 110.531C114.218 110.514 114.971 110.784 115.755 111.39L114.926 112.389C114.832 112.271 114.35 111.717 113.435 111.735C113.001 111.743 112.558 111.906 112.215 112.257C111.873 112.609 111.662 113.026 111.672 113.592C111.682 114.157 111.908 114.616 112.238 114.922C112.568 115.226 113.033 115.44 113.403 115.432C113.896 115.423 114.252 115.329 114.531 115.158L114.5 113.522H114.504Z" fill="#6C5E00"/>
</g>
<path d="M127.119 118.085C126.643 118.085 126.237 117.679 126.237 117.189C126.237 116.727 126.643 116.321 127.119 116.321H128.841V110.245L127.399 110.791C127.287 110.833 127.175 110.861 127.063 110.861C126.601 110.861 126.209 110.469 126.209 109.993C126.209 109.615 126.447 109.321 126.797 109.181L129.499 108.159C129.583 108.131 129.681 108.103 129.821 108.103C130.283 108.103 130.675 108.495 130.675 108.943V116.321H131.879C132.355 116.321 132.761 116.727 132.761 117.189C132.761 117.679 132.355 118.085 131.879 118.085H127.119ZM137.03 118.267C135.434 118.267 133.726 117.105 133.726 115.159V111.211C133.726 109.265 135.434 108.103 137.03 108.103C138.626 108.103 140.334 109.265 140.334 111.211V115.159C140.334 117.105 138.626 118.267 137.03 118.267ZM135.56 115.019C135.56 115.831 136.232 116.489 137.044 116.489C137.814 116.489 138.5 115.831 138.5 115.019V111.351C138.5 110.469 137.842 109.881 137.044 109.881C136.218 109.881 135.56 110.469 135.56 111.351V115.019Z" fill="#005231"/>
<path d="M113.48 59.7739H112.797V84.0927H113.48V59.7739Z" fill="#4A4A4A"/>
<path d="M116.25 59.7739H115.567V84.0927H116.25V59.7739Z" fill="#4A4A4A"/>
<path d="M101.506 59.7739H99.4618V84.0927H101.506V59.7739Z" fill="#4A4A4A"/>
<path d="M110.018 59.7739H106.609V84.0927H110.018V59.7739Z" fill="#4A4A4A"/>
<path d="M140.058 59.7739H139.375V84.0927H140.058V59.7739Z" fill="#4A4A4A"/>
<path d="M142.828 59.7739H142.145V84.0927H142.828V59.7739Z" fill="#4A4A4A"/>
<path d="M136.596 59.7739H133.187V84.0927H136.596V59.7739Z" fill="#4A4A4A"/>
<path d="M104.304 59.7739H103.621V84.0927H104.304V59.7739Z" fill="#4A4A4A"/>
<path d="M120.646 59.7739H118.602V84.0927H120.646V59.7739Z" fill="#4A4A4A"/>
<path d="M123.447 59.7739H122.765V84.0927H123.447V59.7739Z" fill="#4A4A4A"/>
<path d="M128.003 59.7739H125.959V84.0927H128.003V59.7739Z" fill="#4A4A4A"/>
<path d="M130.804 59.7739H130.121V84.0927H130.804V59.7739Z" fill="#4A4A4A"/>
<path d="M148.539 59.7739H145.13V84.0927H148.539V59.7739Z" fill="#4A4A4A"/>
<path d="M142.11 178.019C143.183 175.626 143.534 173.016 143.142 170.422C143.1 170.144 142.755 169.999 142.507 170.061C142.213 170.138 142.105 170.422 142.146 170.695C142.492 172.985 142.167 175.379 141.218 177.498C141.104 177.756 141.146 178.05 141.403 178.205C141.62 178.339 141.997 178.272 142.11 178.019Z" fill="#C88961"/>
<path d="M114.285 36.2254C113.516 36.2254 112.794 36.6689 112.51 37.3807C112.407 37.6385 112.366 37.9325 112.438 38.2368C112.712 39.3302 113.171 39.4231 115.177 39.3302C116.92 39.2529 129.871 39.2684 133.316 39.2941C134.1 39.2993 135.158 38.9176 135.451 38.1904C135.565 37.9119 135.617 37.587 135.539 37.2311C135.266 35.952 133.301 36.3182 132.568 36.2254C131.929 36.1428 118.019 36.2047 114.285 36.2254Z" fill="#515151"/>
<path d="M95.0521 57.6242C94.9128 55.8627 95.0005 54.0979 95.3048 52.3462L94.7891 52.673C96.0681 52.6338 97.3472 52.6044 98.6263 52.5847C99.5805 52.5684 100.535 52.5586 101.489 52.5684C101.881 52.5684 102.273 52.5782 102.66 52.5946C102.979 52.6076 103.041 52.6011 103.299 52.6468C103.939 52.758 104.212 52.1272 103.572 52.0161C102.964 51.9115 102.278 51.9246 101.654 51.918C100.679 51.9082 99.6991 51.918 98.7243 51.9311C97.4143 51.9507 96.0991 51.9801 94.7942 52.0194C94.4899 52.0292 94.3094 52.1632 94.2785 52.3462C93.9742 54.1012 93.8916 55.8627 94.0257 57.6242C94.0567 58.0425 95.0882 58.0458 95.0573 57.6242H95.0521Z" fill="#7EFAB5"/>
<path d="M152.859 57.4053C152.998 55.6437 152.91 53.8789 152.606 52.1272C152.575 51.9442 152.395 51.8102 152.09 51.8004C150.78 51.7612 149.47 51.7318 148.16 51.7122C147.185 51.6991 146.205 51.686 145.231 51.6991C144.607 51.7056 143.921 51.6925 143.312 51.7971C142.672 51.9082 142.946 52.539 143.585 52.4279C143.838 52.3854 143.905 52.3887 144.225 52.3756C144.617 52.3592 145.004 52.3527 145.396 52.3494C146.35 52.3429 147.304 52.3494 148.258 52.3658C149.537 52.3854 150.816 52.4148 152.095 52.454C151.925 52.3462 151.75 52.2351 151.58 52.1272C151.884 53.8822 151.967 55.6437 151.832 57.4053C151.801 57.8236 152.828 57.8236 152.864 57.4053H152.859Z" fill="#7EFAB5"/>
<path d="M152.477 84.2694C152.616 86.0309 152.529 87.7957 152.224 89.5507L152.74 89.2239C151.461 89.2631 150.182 89.2925 148.903 89.3121C147.949 89.3285 146.995 89.3383 146.04 89.3285C145.648 89.3252 145.256 89.3187 144.87 89.3023C144.55 89.2893 144.488 89.2958 144.23 89.2501C143.59 89.1389 143.317 89.7697 143.957 89.8808C144.565 89.9854 145.251 89.9723 145.875 89.9788C146.85 89.9886 147.83 89.9788 148.805 89.9658C150.115 89.9462 151.425 89.9168 152.735 89.8775C153.034 89.8677 153.22 89.7337 153.251 89.5507C153.555 87.7957 153.638 86.0342 153.503 84.2727C153.472 83.8543 152.441 83.8511 152.472 84.2727L152.477 84.2694Z" fill="#7EFAB5"/>
<path d="M94.6756 84.4883C94.5363 86.2498 94.624 88.0146 94.9283 89.7696C94.9593 89.9526 95.1398 90.0866 95.4441 90.0964C96.7541 90.1357 98.0642 90.1651 99.3742 90.1847C100.349 90.201 101.329 90.2108 102.304 90.1977C102.928 90.1912 103.614 90.2043 104.222 90.0997C104.862 89.9886 104.589 89.3578 103.949 89.469C103.696 89.5147 103.629 89.5082 103.309 89.5212C102.917 89.5376 102.531 89.5441 102.139 89.5474C101.185 89.5539 100.23 89.5474 99.2762 89.531C97.9971 89.5114 96.718 89.482 95.4389 89.4428C95.6091 89.5507 95.7845 89.6618 95.9547 89.7696C95.6504 88.0146 95.5679 86.2531 95.702 84.4883C95.7329 84.07 94.7014 84.07 94.6704 84.4883H94.6756Z" fill="#7EFAB5"/>
<path d="M169.997 217.016C183.882 217.181 197.518 211.678 207.173 201.652C209.711 199.016 211.944 196.102 213.842 192.976C214.188 192.409 213.295 191.888 212.95 192.455C206.09 203.756 194.749 211.797 181.88 214.736C177.981 215.629 173.989 216.031 169.992 215.985C169.327 215.974 169.327 217.006 169.992 217.016H169.997Z" fill="#00696A"/>
<path d="M180.56 136.186C180.56 136.186 178.415 130.28 161.951 127.062C145.488 123.844 131.294 119.888 125.033 122.394C118.772 124.901 119.179 135.309 126.441 139.172C137.272 144.928 154.612 148.358 154.076 148.538C153.539 148.719 146.025 175.203 166.067 184.508C186.11 193.812 195.414 172.341 195.95 171.624C196.487 170.907 190.045 138.161 180.56 136.191V136.186Z" fill="#FFCCAC"/>
<path d="M155.236 145.985C151.75 151.39 150.409 158.018 151.435 164.362C152.41 170.36 155.602 176.338 159.862 180.65C162.235 183.053 165.082 184.941 168.311 185.977C168.945 186.179 169.213 185.183 168.584 184.982C162.998 183.197 158.79 178.705 155.963 173.707C152.946 168.369 151.461 162.366 152.415 156.249C152.956 152.773 154.22 149.456 156.123 146.506C156.484 145.949 155.592 145.428 155.231 145.985H155.236Z" fill="#C88961"/>
<path d="M151.587 125.416C161.887 127.263 172.094 131.059 180.253 137.753C180.764 138.171 181.496 137.444 180.98 137.026C172.677 130.218 162.346 126.303 151.86 124.426C151.211 124.307 150.932 125.303 151.587 125.421V125.416Z" fill="#C88961"/>
<path d="M121.459 125.675C122.289 127.124 123.935 127.748 125.435 128.269C127.122 128.852 128.943 129.208 130.712 128.805C132.182 128.47 133.61 127.578 134.265 126.175C134.915 124.793 134.802 123.173 133.827 121.977C133.404 121.461 132.682 122.198 133.1 122.704C133.878 123.658 133.786 125.092 133.141 126.092C132.439 127.17 131.15 127.743 129.912 127.903C128.453 128.088 126.983 127.717 125.616 127.237C124.409 126.814 123.027 126.324 122.356 125.148C122.026 124.571 121.134 125.092 121.464 125.669L121.459 125.675Z" fill="#C88961"/>
<defs>
<clipPath id="clip0_728_6257">
<rect width="108" height="129" fill="white" transform="translate(0.475586)"/>
</clipPath>
<clipPath id="clip1_728_6257">
<rect width="56.7338" height="28.3669" fill="white" transform="translate(95.5109 95.5335)"/>
</clipPath>
<clipPath id="clip2_728_6257">
<rect width="16" height="16" fill="white" transform="translate(105.104 105.585)"/>
</clipPath>
</defs>
</svg>
